<?xml version="1.0" encoding="UTF-8" standalone="no"?>
<!DOCTYPE svg PUBLIC "-//W3C//DTD SVG 1.1//EN"
 "http://www.w3.org/Graphics/SVG/1.1/DTD/svg11.dtd">
<!-- Generated by graphviz version 2.43.0 (0)
 -->
<!-- Title: include/rendering/Skybox.hpp Pages: 1 -->
<svg width="1032pt" height="258pt"
 viewBox="0.00 0.00 1031.50 258.00" xmlns="http://www.w3.org/2000/svg" xmlns:xlink="http://www.w3.org/1999/xlink">
<g id="graph0" class="graph" transform="scale(1 1) rotate(0) translate(4 254)">
<title>include/rendering/Skybox.hpp</title>
<!-- Node1 -->
<g id="Node000001" class="node">
<title>Node1</title>
<g id="a_Node000001"><a xlink:title="Declares a minimal PPM&#45;based skybox loader and sampler.">
<polygon fill="#999999" stroke="#666666" points="806.5,-250 645.5,-250 645.5,-231 806.5,-231 806.5,-250"/>
<text text-anchor="middle" x="726" y="-238" font-family="Helvetica,sans-Serif" font-size="10.00">include/rendering/Skybox.hpp</text>
</a>
</g>
</g>
<!-- Node2 -->
<g id="Node000002" class="node">
<title>Node2</title>
<g id="a_Node000002"><a xlink:href="../../d1/d3a/ShadowShading_8hpp.html" target="_top" xlink:title=" ">
<polygon fill="white" stroke="#666666" points="747.5,-195 604.5,-195 604.5,-165 747.5,-165 747.5,-195"/>
<text text-anchor="start" x="612.5" y="-183" font-family="Helvetica,sans-Serif" font-size="10.00">include/rendering/Shadow</text>
<text text-anchor="middle" x="676" y="-172" font-family="Helvetica,sans-Serif" font-size="10.00">Shading.hpp</text>
</a>
</g>
</g>
<!-- Node1&#45;&gt;Node2 -->
<g id="edge1_Node000001_Node000002" class="edge">
<title>Node1&#45;&gt;Node2</title>
<g id="a_edge1_Node000001_Node000002"><a xlink:title=" ">
<path fill="none" stroke="#63b8ff" d="M712.03,-223.15C704.49,-214.34 695.28,-203.56 688.06,-195.11"/>
<polygon fill="#63b8ff" stroke="#63b8ff" points="709.46,-225.54 718.62,-230.87 714.79,-220.99 709.46,-225.54"/>
</a>
</g>
</g>
<!-- Node5 -->
<g id="Node000005" class="node">
<title>Node5</title>
<g id="a_Node000005"><a xlink:href="../../df/d39/Raytracer_8cpp.html" target="_top" xlink:title="Implements the main execution flow of the Raytracer application, including argument parsing,...">
<polygon fill="white" stroke="#666666" points="295.5,-19 170.5,-19 170.5,0 295.5,0 295.5,-19"/>
<text text-anchor="middle" x="233" y="-7" font-family="Helvetica,sans-Serif" font-size="10.00">src/core/Raytracer.cpp</text>
</a>
</g>
</g>
<!-- Node1&#45;&gt;Node5 -->
<g id="edge16_Node000001_Node000005" class="edge">
<title>Node1&#45;&gt;Node5</title>
<g id="a_edge16_Node000001_Node000005"><a xlink:title=" ">
<path fill="none" stroke="#63b8ff" d="M653.19,-229.45C512.51,-208.38 211.8,-154.76 151,-74 132.7,-49.69 174.3,-29.8 204.68,-19.09"/>
<polygon fill="#63b8ff" stroke="#63b8ff" points="653.04,-232.97 663.45,-230.97 654.07,-226.04 653.04,-232.97"/>
</a>
</g>
</g>
<!-- Node11 -->
<g id="Node000011" class="node">
<title>Node11</title>
<g id="a_Node000011"><a xlink:href="../../d7/dbd/ShadowShading_8cpp.html" target="_top" xlink:title=" ">
<polygon fill="white" stroke="#666666" points="866.5,-129 685.5,-129 685.5,-110 866.5,-110 866.5,-129"/>
<text text-anchor="middle" x="776" y="-117" font-family="Helvetica,sans-Serif" font-size="10.00">src/rendering/ShadowShading.cpp</text>
</a>
</g>
</g>
<!-- Node1&#45;&gt;Node11 -->
<g id="edge17_Node000001_Node000011" class="edge">
<title>Node1&#45;&gt;Node11</title>
<g id="a_edge17_Node000001_Node000011"><a xlink:title=" ">
<path fill="none" stroke="#63b8ff" d="M739.26,-222.7C745.07,-214.68 751.56,-204.73 756,-195 766.33,-172.33 772.21,-143.28 774.65,-129.08"/>
<polygon fill="#63b8ff" stroke="#63b8ff" points="736.37,-220.73 733.14,-230.82 741.96,-224.94 736.37,-220.73"/>
</a>
</g>
</g>
<!-- Node12 -->
<g id="Node000012" class="node">
<title>Node12</title>
<g id="a_Node000012"><a xlink:href="../../d6/dc9/Skybox_8cpp.html" target="_top" xlink:title=" ">
<polygon fill="white" stroke="#666666" points="1023.5,-129 884.5,-129 884.5,-110 1023.5,-110 1023.5,-129"/>
<text text-anchor="middle" x="954" y="-117" font-family="Helvetica,sans-Serif" font-size="10.00">src/rendering/Skybox.cpp</text>
</a>
</g>
</g>
<!-- Node1&#45;&gt;Node12 -->
<g id="edge18_Node000001_Node000012" class="edge">
<title>Node1&#45;&gt;Node12</title>
<g id="a_edge18_Node000001_Node000012"><a xlink:title=" ">
<path fill="none" stroke="#63b8ff" d="M751.33,-226.28C798.38,-201.72 898.02,-149.72 937.45,-129.14"/>
<polygon fill="#63b8ff" stroke="#63b8ff" points="749.64,-223.21 742.4,-230.94 752.88,-229.42 749.64,-223.21"/>
</a>
</g>
</g>
<!-- Node3 -->
<g id="Node000003" class="node">
<title>Node3</title>
<g id="a_Node000003"><a xlink:href="../../d7/d09/Utils_8hpp.html" target="_top" xlink:title="Utility functions and structures for raytracer configuration, rendering and post&#45;processing.">
<polygon fill="white" stroke="#666666" points="507,-129 385,-129 385,-110 507,-110 507,-129"/>
<text text-anchor="middle" x="446" y="-117" font-family="Helvetica,sans-Serif" font-size="10.00">include/core/Utils.hpp</text>
</a>
</g>
</g>
<!-- Node2&#45;&gt;Node3 -->
<g id="edge2_Node000002_Node000003" class="edge">
<title>Node2&#45;&gt;Node3</title>
<g id="a_edge2_Node000002_Node000003"><a xlink:title=" ">
<path fill="none" stroke="#63b8ff" d="M611.13,-162.5C568.34,-151.62 514.03,-137.8 479.63,-129.05"/>
<polygon fill="#63b8ff" stroke="#63b8ff" points="610.36,-165.91 620.91,-164.99 612.08,-159.13 610.36,-165.91"/>
</a>
</g>
</g>
<!-- Node9 -->
<g id="Node000009" class="node">
<title>Node9</title>
<g id="a_Node000009"><a xlink:href="../../d7/dd9/Visualizer_8cpp.html" target="_top" xlink:title="Implements visualization modes for the raytracer using SFML.">
<polygon fill="white" stroke="#666666" points="681.5,-19 556.5,-19 556.5,0 681.5,0 681.5,-19"/>
<text text-anchor="middle" x="619" y="-7" font-family="Helvetica,sans-Serif" font-size="10.00">src/core/Visualizer.cpp</text>
</a>
</g>
</g>
<!-- Node2&#45;&gt;Node9 -->
<g id="edge13_Node000002_Node000009" class="edge">
<title>Node2&#45;&gt;Node9</title>
<g id="a_edge13_Node000002_Node000009"><a xlink:title=" ">
<path fill="none" stroke="#63b8ff" d="M667.94,-155.18C655.07,-117.12 630.45,-44.34 621.96,-19.25"/>
<polygon fill="#63b8ff" stroke="#63b8ff" points="664.72,-156.57 671.24,-164.92 671.35,-154.33 664.72,-156.57"/>
</a>
</g>
</g>
<!-- Node2&#45;&gt;Node11 -->
<g id="edge14_Node000002_Node000011" class="edge">
<title>Node2&#45;&gt;Node11</title>
<g id="a_edge14_Node000002_Node000011"><a xlink:title=" ">
<path fill="none" stroke="#63b8ff" d="M708.85,-159.78C726.54,-149.43 747.49,-137.18 761.23,-129.14"/>
<polygon fill="#63b8ff" stroke="#63b8ff" points="706.82,-156.92 699.95,-164.99 710.35,-162.96 706.82,-156.92"/>
</a>
</g>
</g>
<!-- Node2&#45;&gt;Node12 -->
<g id="edge15_Node000002_Node000012" class="edge">
<title>Node2&#45;&gt;Node12</title>
<g id="a_edge15_Node000002_Node000012"><a xlink:title=" ">
<path fill="none" stroke="#63b8ff" d="M752.45,-162.91C804.47,-151.97 871.25,-137.91 913.35,-129.05"/>
<polygon fill="#63b8ff" stroke="#63b8ff" points="751.65,-159.5 742.59,-164.99 753.09,-166.35 751.65,-159.5"/>
</a>
</g>
</g>
<!-- Node4 -->
<g id="Node000004" class="node">
<title>Node4</title>
<g id="a_Node000004"><a xlink:href="../../d0/d3a/Raytracer_8hpp.html" target="_top" xlink:title="Declares the main Raytracer application class for program execution and argument handling.">
<polygon fill="white" stroke="#666666" points="306,-74 160,-74 160,-55 306,-55 306,-74"/>
<text text-anchor="middle" x="233" y="-62" font-family="Helvetica,sans-Serif" font-size="10.00">include/core/Raytracer.hpp</text>
</a>
</g>
</g>
<!-- Node3&#45;&gt;Node4 -->
<g id="edge3_Node000003_Node000004" class="edge">
<title>Node3&#45;&gt;Node4</title>
<g id="a_edge3_Node000003_Node000004"><a xlink:title=" ">
<path fill="none" stroke="#63b8ff" d="M396.73,-107.63C355.13,-97.7 297.08,-83.22 262.36,-74.08"/>
<polygon fill="#63b8ff" stroke="#63b8ff" points="396.13,-111.08 406.66,-109.98 397.74,-104.27 396.13,-111.08"/>
</a>
</g>
</g>
<!-- Node8 -->
<g id="Node000008" class="node">
<title>Node8</title>
<g id="a_Node000008"><a xlink:href="../../da/d7d/Visualizer_8hpp.html" target="_top" xlink:title=" ">
<polygon fill="white" stroke="#666666" points="590.5,-74 443.5,-74 443.5,-55 590.5,-55 590.5,-74"/>
<text text-anchor="middle" x="517" y="-62" font-family="Helvetica,sans-Serif" font-size="10.00">include/core/Visualizer.hpp</text>
</a>
</g>
</g>
<!-- Node3&#45;&gt;Node8 -->
<g id="edge8_Node000003_Node000008" class="edge">
<title>Node3&#45;&gt;Node8</title>
<g id="a_edge8_Node000003_Node000008"><a xlink:title=" ">
<path fill="none" stroke="#63b8ff" d="M465.59,-103.88C478.37,-94.34 494.61,-82.21 505.39,-74.17"/>
<polygon fill="#63b8ff" stroke="#63b8ff" points="463.33,-101.2 457.41,-109.98 467.51,-106.81 463.33,-101.2"/>
</a>
</g>
</g>
<!-- Node3&#45;&gt;Node9 -->
<g id="edge12_Node000003_Node000009" class="edge">
<title>Node3&#45;&gt;Node9</title>
<g id="a_edge12_Node000003_Node000009"><a xlink:title=" ">
<path fill="none" stroke="#63b8ff" d="M517.28,-112.35C545.92,-106.49 577.24,-95.28 599,-74 614.2,-59.13 617.88,-32.83 618.75,-19.21"/>
<polygon fill="#63b8ff" stroke="#63b8ff" points="516.48,-108.94 507.28,-114.21 517.76,-115.83 516.48,-108.94"/>
</a>
</g>
</g>
<!-- Node10 -->
<g id="Node000010" class="node">
<title>Node10</title>
<g id="a_Node000010"><a xlink:href="../../df/d0c/Utils_8cpp.html" target="_top" xlink:title="Implements utility functions for argument parsing, rendering, post&#45;processing, and denoising in the r...">
<polygon fill="white" stroke="#666666" points="425.5,-74 324.5,-74 324.5,-55 425.5,-55 425.5,-74"/>
<text text-anchor="middle" x="375" y="-62" font-family="Helvetica,sans-Serif" font-size="10.00">src/core/Utils.cpp</text>
</a>
</g>
</g>
<!-- Node3&#45;&gt;Node10 -->
<g id="edge11_Node000003_Node000010" class="edge">
<title>Node3&#45;&gt;Node10</title>
<g id="a_edge11_Node000003_Node000010"><a xlink:title=" ">
<path fill="none" stroke="#63b8ff" d="M426.41,-103.88C413.63,-94.34 397.39,-82.21 386.61,-74.17"/>
<polygon fill="#63b8ff" stroke="#63b8ff" points="424.49,-106.81 434.59,-109.98 428.67,-101.2 424.49,-106.81"/>
</a>
</g>
</g>
<!-- Node4&#45;&gt;Node3 -->
<g id="edge4_Node000004_Node000003" class="edge">
<title>Node4&#45;&gt;Node3</title>
<g id="a_edge4_Node000004_Node000003"><a xlink:title=" ">
<path fill="none" stroke="#63b8ff" d="M282.57,-76.45C324.26,-86.4 382.29,-100.87 416.89,-109.98"/>
<polygon fill="#63b8ff" stroke="#63b8ff" points="283.16,-72.99 272.62,-74.08 281.54,-79.8 283.16,-72.99"/>
</a>
</g>
</g>
<!-- Node4&#45;&gt;Node5 -->
<g id="edge5_Node000004_Node000005" class="edge">
<title>Node4&#45;&gt;Node5</title>
<g id="a_edge5_Node000004_Node000005"><a xlink:title=" ">
<path fill="none" stroke="#63b8ff" d="M233,-44.66C233,-35.93 233,-25.99 233,-19.09"/>
<polygon fill="#63b8ff" stroke="#63b8ff" points="229.5,-44.75 233,-54.75 236.5,-44.75 229.5,-44.75"/>
</a>
</g>
</g>
<!-- Node6 -->
<g id="Node000006" class="node">
<title>Node6</title>
<g id="a_Node000006"><a xlink:href="../../df/d0a/main_8cpp.html" target="_top" xlink:title="Entry point of the raytracer application. Initializes and runs the Raytracer engine.">
<polygon fill="white" stroke="#666666" points="416.5,-19 313.5,-19 313.5,0 416.5,0 416.5,-19"/>
<text text-anchor="middle" x="365" y="-7" font-family="Helvetica,sans-Serif" font-size="10.00">src/core/main.cpp</text>
</a>
</g>
</g>
<!-- Node4&#45;&gt;Node6 -->
<g id="edge6_Node000004_Node000006" class="edge">
<title>Node4&#45;&gt;Node6</title>
<g id="a_edge6_Node000004_Node000006"><a xlink:title=" ">
<path fill="none" stroke="#63b8ff" d="M263.73,-51.16C288.17,-41.35 321.74,-27.87 343.41,-19.17"/>
<polygon fill="#63b8ff" stroke="#63b8ff" points="262.18,-48.01 254.21,-54.98 264.79,-54.51 262.18,-48.01"/>
</a>
</g>
</g>
<!-- Node7 -->
<g id="Node000007" class="node">
<title>Node7</title>
<g id="a_Node000007"><a xlink:href="../../d3/d79/SceneParser_8cpp.html" target="_top" xlink:title="Implements the scene loading system using libconfig for the raytracer engine.">
<polygon fill="white" stroke="#666666" points="152,-19 0,-19 0,0 152,0 152,-19"/>
<text text-anchor="middle" x="76" y="-7" font-family="Helvetica,sans-Serif" font-size="10.00">src/loaders/SceneParser.cpp</text>
</a>
</g>
</g>
<!-- Node4&#45;&gt;Node7 -->
<g id="edge7_Node000004_Node000007" class="edge">
<title>Node4&#45;&gt;Node7</title>
<g id="a_edge7_Node000004_Node000007"><a xlink:title=" ">
<path fill="none" stroke="#63b8ff" d="M197.95,-51.67C168.68,-41.79 127.63,-27.93 101.42,-19.08"/>
<polygon fill="#63b8ff" stroke="#63b8ff" points="197.18,-55.1 207.78,-54.98 199.42,-48.47 197.18,-55.1"/>
</a>
</g>
</g>
<!-- Node8&#45;&gt;Node5 -->
<g id="edge9_Node000008_Node000005" class="edge">
<title>Node8&#45;&gt;Node5</title>
<g id="a_edge9_Node000008_Node000005"><a xlink:title=" ">
<path fill="none" stroke="#63b8ff" d="M461.42,-53.13C408.17,-43.19 328.77,-28.37 278.99,-19.08"/>
<polygon fill="#63b8ff" stroke="#63b8ff" points="460.9,-56.59 471.37,-54.98 462.18,-49.71 460.9,-56.59"/>
</a>
</g>
</g>
<!-- Node8&#45;&gt;Node9 -->
<g id="edge10_Node000008_Node000009" class="edge">
<title>Node8&#45;&gt;Node9</title>
<g id="a_edge10_Node000008_Node000009"><a xlink:title=" ">
<path fill="none" stroke="#63b8ff" d="M542.27,-50.37C561.01,-40.63 586.02,-27.64 602.31,-19.17"/>
<polygon fill="#63b8ff" stroke="#63b8ff" points="540.65,-47.27 533.39,-54.98 543.88,-53.48 540.65,-47.27"/>
</a>
</g>
</g>
</g>
</svg>
