<?xml version="1.0" encoding="UTF-8" standalone="no"?>
<!DOCTYPE svg PUBLIC "-//W3C//DTD SVG 1.1//EN"
 "http://www.w3.org/Graphics/SVG/1.1/DTD/svg11.dtd">
<!-- Generated by graphviz version 2.43.0 (0)
 -->
<!-- Title: include/rendering/PointLight.hpp Pages: 1 -->
<svg width="210pt" height="302pt"
 viewBox="0.00 0.00 209.50 302.00" xmlns="http://www.w3.org/2000/svg" xmlns:xlink="http://www.w3.org/1999/xlink">
<g id="graph0" class="graph" transform="scale(1 1) rotate(0) translate(4 298)">
<title>include/rendering/PointLight.hpp</title>
<!-- Node1 -->
<g id="Node000001" class="node">
<title>Node1</title>
<g id="a_Node000001"><a xlink:title=" ">
<polygon fill="#999999" stroke="#666666" points="201.5,-294 27.5,-294 27.5,-275 201.5,-275 201.5,-294"/>
<text text-anchor="middle" x="114.5" y="-282" font-family="Helvetica,sans-Serif" font-size="10.00">include/rendering/PointLight.hpp</text>
</a>
</g>
</g>
<!-- Node2 -->
<g id="Node000002" class="node">
<title>Node2</title>
<g id="a_Node000002"><a xlink:href="../../db/d54/ALight_8hpp.html" target="_top" xlink:title="Abstract base class partially implementing the ILight interface.">
<polygon fill="white" stroke="#666666" points="148.5,-239 80.5,-239 80.5,-220 148.5,-220 148.5,-239"/>
<text text-anchor="middle" x="114.5" y="-227" font-family="Helvetica,sans-Serif" font-size="10.00">ALight.hpp</text>
</a>
</g>
</g>
<!-- Node1&#45;&gt;Node2 -->
<g id="edge1_Node000001_Node000002" class="edge">
<title>Node1&#45;&gt;Node2</title>
<g id="a_edge1_Node000001_Node000002"><a xlink:title=" ">
<path fill="none" stroke="#63b8ff" d="M114.5,-274.75C114.5,-267.8 114.5,-257.85 114.5,-249.13"/>
<polygon fill="#63b8ff" stroke="#63b8ff" points="118,-249.09 114.5,-239.09 111,-249.09 118,-249.09"/>
</a>
</g>
</g>
<!-- Node4 -->
<g id="Node000004" class="node">
<title>Node4</title>
<g id="a_Node000004"><a xlink:href="../../df/df2/Point3D_8hpp.html" target="_top" xlink:title="Defines a 3D point structure used in geometric computations.">
<polygon fill="white" stroke="#666666" points="109,-129 0,-129 0,-110 109,-110 109,-129"/>
<text text-anchor="middle" x="54.5" y="-117" font-family="Helvetica,sans-Serif" font-size="10.00">../core/Point3D.hpp</text>
</a>
</g>
</g>
<!-- Node1&#45;&gt;Node4 -->
<g id="edge8_Node000001_Node000004" class="edge">
<title>Node1&#45;&gt;Node4</title>
<g id="a_edge8_Node000001_Node000004"><a xlink:title=" ">
<path fill="none" stroke="#63b8ff" d="M102.53,-274.7C92.49,-266.6 78.68,-253.67 71.5,-239 55.63,-206.6 53.47,-163.65 53.72,-139.36"/>
<polygon fill="#63b8ff" stroke="#63b8ff" points="57.22,-139.15 53.99,-129.06 50.23,-138.97 57.22,-139.15"/>
</a>
</g>
</g>
<!-- Node5 -->
<g id="Node000005" class="node">
<title>Node5</title>
<g id="a_Node000005"><a xlink:href="../../d3/dde/Vector3D_8hpp.html" target="_top" xlink:title="Defines a 3D vector structure with basic arithmetic and transformation operations.">
<polygon fill="white" stroke="#666666" points="174.5,-74 92.5,-74 92.5,-55 174.5,-55 174.5,-74"/>
<text text-anchor="middle" x="133.5" y="-62" font-family="Helvetica,sans-Serif" font-size="10.00">Vector3D.hpp</text>
</a>
</g>
</g>
<!-- Node1&#45;&gt;Node5 -->
<g id="edge9_Node000001_Node000005" class="edge">
<title>Node1&#45;&gt;Node5</title>
<g id="a_edge9_Node000001_Node000005"><a xlink:title=" ">
<path fill="none" stroke="#63b8ff" d="M126.99,-274.93C137.37,-266.99 151.38,-254.14 157.5,-239 179.1,-185.56 155.55,-116.12 141.87,-83.69"/>
<polygon fill="#63b8ff" stroke="#63b8ff" points="144.92,-81.93 137.69,-74.18 138.52,-84.75 144.92,-81.93"/>
</a>
</g>
</g>
<!-- Node3 -->
<g id="Node000003" class="node">
<title>Node3</title>
<g id="a_Node000003"><a xlink:href="../../da/da7/ILight_8hpp.html" target="_top" xlink:title="Abstract interface for all light sources in the path tracer.">
<polygon fill="white" stroke="#666666" points="147,-184 82,-184 82,-165 147,-165 147,-184"/>
<text text-anchor="middle" x="114.5" y="-172" font-family="Helvetica,sans-Serif" font-size="10.00">ILight.hpp</text>
</a>
</g>
</g>
<!-- Node2&#45;&gt;Node3 -->
<g id="edge2_Node000002_Node000003" class="edge">
<title>Node2&#45;&gt;Node3</title>
<g id="a_edge2_Node000002_Node000003"><a xlink:title=" ">
<path fill="none" stroke="#63b8ff" d="M114.5,-219.75C114.5,-212.8 114.5,-202.85 114.5,-194.13"/>
<polygon fill="#63b8ff" stroke="#63b8ff" points="118,-194.09 114.5,-184.09 111,-194.09 118,-194.09"/>
</a>
</g>
</g>
<!-- Node3&#45;&gt;Node4 -->
<g id="edge3_Node000003_Node000004" class="edge">
<title>Node3&#45;&gt;Node4</title>
<g id="a_edge3_Node000003_Node000004"><a xlink:title=" ">
<path fill="none" stroke="#63b8ff" d="M104.86,-164.98C95.99,-157.15 82.63,-145.34 71.89,-135.86"/>
<polygon fill="#63b8ff" stroke="#63b8ff" points="74.13,-133.17 64.32,-129.17 69.49,-138.41 74.13,-133.17"/>
</a>
</g>
</g>
<!-- Node3&#45;&gt;Node5 -->
<g id="edge7_Node000003_Node000005" class="edge">
<title>Node3&#45;&gt;Node5</title>
<g id="a_edge7_Node000003_Node000005"><a xlink:title=" ">
<path fill="none" stroke="#63b8ff" d="M116.05,-164.66C119.13,-147.17 126.06,-107.8 130.2,-84.27"/>
<polygon fill="#63b8ff" stroke="#63b8ff" points="133.69,-84.61 131.98,-74.16 126.8,-83.4 133.69,-84.61"/>
</a>
</g>
</g>
<!-- Node4&#45;&gt;Node5 -->
<g id="edge4_Node000004_Node000005" class="edge">
<title>Node4&#45;&gt;Node5</title>
<g id="a_edge4_Node000004_Node000005"><a xlink:title=" ">
<path fill="none" stroke="#63b8ff" d="M67.19,-109.98C79.33,-101.84 97.86,-89.41 112.25,-79.76"/>
<polygon fill="#63b8ff" stroke="#63b8ff" points="114.22,-82.65 120.58,-74.17 110.32,-76.84 114.22,-82.65"/>
</a>
</g>
</g>
<!-- Node6 -->
<g id="Node000006" class="node">
<title>Node6</title>
<g id="a_Node000006"><a xlink:title=" ">
<polygon fill="#e0e0e0" stroke="#999999" points="119,-19 72,-19 72,0 119,0 119,-19"/>
<text text-anchor="middle" x="95.5" y="-7" font-family="Helvetica,sans-Serif" font-size="10.00">cmath</text>
</a>
</g>
</g>
<!-- Node4&#45;&gt;Node6 -->
<g id="edge6_Node000004_Node000006" class="edge">
<title>Node4&#45;&gt;Node6</title>
<g id="a_edge6_Node000004_Node000006"><a xlink:title=" ">
<path fill="none" stroke="#63b8ff" d="M57.86,-109.66C64.56,-92.01 79.71,-52.09 88.62,-28.64"/>
<polygon fill="#63b8ff" stroke="#63b8ff" points="91.94,-29.75 92.21,-19.16 85.39,-27.27 91.94,-29.75"/>
</a>
</g>
</g>
<!-- Node5&#45;&gt;Node6 -->
<g id="edge5_Node000005_Node000006" class="edge">
<title>Node5&#45;&gt;Node6</title>
<g id="a_edge5_Node000005_Node000006"><a xlink:title=" ">
<path fill="none" stroke="#63b8ff" d="M127.23,-54.75C121.91,-47.34 114.14,-36.5 107.62,-27.41"/>
<polygon fill="#63b8ff" stroke="#63b8ff" points="110.33,-25.18 101.66,-19.09 104.64,-29.26 110.33,-25.18"/>
</a>
</g>
</g>
</g>
</svg>
