<?xml version="1.0" encoding="UTF-8" standalone="no"?>
<!DOCTYPE svg PUBLIC "-//W3C//DTD SVG 1.1//EN"
 "http://www.w3.org/Graphics/SVG/1.1/DTD/svg11.dtd">
<!-- Generated by graphviz version 2.43.0 (0)
 -->
<!-- Title: RayTracer::BVHNode Pages: 1 -->
<svg width="125pt" height="170pt"
 viewBox="0.00 0.00 125.00 170.00" xmlns="http://www.w3.org/2000/svg" xmlns:xlink="http://www.w3.org/1999/xlink">
<g id="graph0" class="graph" transform="scale(1 1) rotate(0) translate(4 166)">
<title>RayTracer::BVHNode</title>
<!-- Node1 -->
<g id="Node000001" class="node">
<title>Node1</title>
<g id="a_Node000001"><a xlink:title="A node (internal or leaf) of the bounding&#45;volume hierarchy.">
<polygon fill="#999999" stroke="#666666" points="117,-19 0,-19 0,0 117,0 117,-19"/>
<text text-anchor="middle" x="58.5" y="-7" font-family="Helvetica,sans-Serif" font-size="10.00">RayTracer::BVHNode</text>
</a>
</g>
</g>
<!-- Node2 -->
<g id="Node000002" class="node">
<title>Node2</title>
<g id="a_Node000002"><a xlink:href="../../d6/dae/structRayTracer_1_1AABB.html" target="_top" xlink:title="Axis&#45;aligned bounding box.">
<polygon fill="white" stroke="#666666" points="107.5,-85 9.5,-85 9.5,-66 107.5,-66 107.5,-85"/>
<text text-anchor="middle" x="58.5" y="-73" font-family="Helvetica,sans-Serif" font-size="10.00">RayTracer::AABB</text>
</a>
</g>
</g>
<!-- Node2&#45;&gt;Node1 -->
<g id="edge1_Node000001_Node000002" class="edge">
<title>Node2&#45;&gt;Node1</title>
<g id="a_edge1_Node000001_Node000002"><a xlink:title=" ">
<path fill="none" stroke="#9a32cd" stroke-dasharray="5,2" d="M58.5,-55.58C58.5,-43.63 58.5,-28.72 58.5,-19.41"/>
<polygon fill="#9a32cd" stroke="#9a32cd" points="55,-55.87 58.5,-65.87 62,-55.87 55,-55.87"/>
</a>
</g>
<text text-anchor="middle" x="69.5" y="-40" font-family="Helvetica,sans-Serif" font-size="10.00" fill="grey"> box</text>
</g>
<!-- Node3 -->
<g id="Node000003" class="node">
<title>Node3</title>
<g id="a_Node000003"><a xlink:href="../../db/daa/structMath_1_1Point3D.html" target="_top" xlink:title="Represents a 3D point in Cartesian coordinates.">
<polygon fill="white" stroke="#666666" points="101.5,-162 15.5,-162 15.5,-143 101.5,-143 101.5,-162"/>
<text text-anchor="middle" x="58.5" y="-150" font-family="Helvetica,sans-Serif" font-size="10.00">Math::Point3D</text>
</a>
</g>
</g>
<!-- Node3&#45;&gt;Node2 -->
<g id="edge2_Node000002_Node000003" class="edge">
<title>Node3&#45;&gt;Node2</title>
<g id="a_edge2_Node000002_Node000003"><a xlink:title=" ">
<path fill="none" stroke="#9a32cd" stroke-dasharray="5,2" d="M58.5,-132.52C58.5,-117.24 58.5,-96.48 58.5,-85"/>
<polygon fill="#9a32cd" stroke="#9a32cd" points="55,-132.9 58.5,-142.9 62,-132.9 55,-132.9"/>
</a>
</g>
<text text-anchor="middle" x="71" y="-117" font-family="Helvetica,sans-Serif" font-size="10.00" fill="grey"> max</text>
<text text-anchor="middle" x="71" y="-106" font-family="Helvetica,sans-Serif" font-size="10.00" fill="grey">min</text>
</g>
</g>
</svg>
