<?xml version="1.0" encoding="UTF-8" standalone="no"?>
<!DOCTYPE svg PUBLIC "-//W3C//DTD SVG 1.1//EN"
 "http://www.w3.org/Graphics/SVG/1.1/DTD/svg11.dtd">
<!-- Generated by graphviz version 2.43.0 (0)
 -->
<!-- Title: include/rendering/ILight.hpp Pages: 1 -->
<svg width="181pt" height="192pt"
 viewBox="0.00 0.00 180.50 192.00" xmlns="http://www.w3.org/2000/svg" xmlns:xlink="http://www.w3.org/1999/xlink">
<g id="graph0" class="graph" transform="scale(1 1) rotate(0) translate(4 188)">
<title>include/rendering/ILight.hpp</title>
<!-- Node1 -->
<g id="Node000001" class="node">
<title>Node1</title>
<g id="a_Node000001"><a xlink:title="Abstract interface for all light sources in the path tracer.">
<polygon fill="#999999" stroke="#666666" points="152,-184 0,-184 0,-165 152,-165 152,-184"/>
<text text-anchor="middle" x="76" y="-172" font-family="Helvetica,sans-Serif" font-size="10.00">include/rendering/ILight.hpp</text>
</a>
</g>
</g>
<!-- Node2 -->
<g id="Node000002" class="node">
<title>Node2</title>
<g id="a_Node000002"><a xlink:href="../../df/df2/Point3D_8hpp.html" target="_top" xlink:title="Defines a 3D point structure used in geometric computations.">
<polygon fill="white" stroke="#666666" points="172.5,-129 63.5,-129 63.5,-110 172.5,-110 172.5,-129"/>
<text text-anchor="middle" x="118" y="-117" font-family="Helvetica,sans-Serif" font-size="10.00">../core/Point3D.hpp</text>
</a>
</g>
</g>
<!-- Node1&#45;&gt;Node2 -->
<g id="edge1_Node000001_Node000002" class="edge">
<title>Node1&#45;&gt;Node2</title>
<g id="a_edge1_Node000001_Node000002"><a xlink:title=" ">
<path fill="none" stroke="#63b8ff" d="M82.94,-164.75C88.87,-157.26 97.57,-146.28 104.82,-137.13"/>
<polygon fill="#63b8ff" stroke="#63b8ff" points="107.73,-139.1 111.19,-129.09 102.24,-134.75 107.73,-139.1"/>
</a>
</g>
</g>
<!-- Node3 -->
<g id="Node000003" class="node">
<title>Node3</title>
<g id="a_Node000003"><a xlink:href="../../d3/dde/Vector3D_8hpp.html" target="_top" xlink:title="Defines a 3D vector structure with basic arithmetic and transformation operations.">
<polygon fill="white" stroke="#666666" points="90,-74 8,-74 8,-55 90,-55 90,-74"/>
<text text-anchor="middle" x="49" y="-62" font-family="Helvetica,sans-Serif" font-size="10.00">Vector3D.hpp</text>
</a>
</g>
</g>
<!-- Node1&#45;&gt;Node3 -->
<g id="edge5_Node000001_Node000003" class="edge">
<title>Node1&#45;&gt;Node3</title>
<g id="a_edge5_Node000001_Node000003"><a xlink:title=" ">
<path fill="none" stroke="#63b8ff" d="M70.39,-164.7C65.15,-156 57.62,-142.13 54,-129 50,-114.47 48.84,-97.42 48.63,-84.64"/>
<polygon fill="#63b8ff" stroke="#63b8ff" points="52.13,-84.32 48.65,-74.31 45.13,-84.3 52.13,-84.32"/>
</a>
</g>
</g>
<!-- Node2&#45;&gt;Node3 -->
<g id="edge2_Node000002_Node000003" class="edge">
<title>Node2&#45;&gt;Node3</title>
<g id="a_edge2_Node000002_Node000003"><a xlink:title=" ">
<path fill="none" stroke="#63b8ff" d="M106.91,-109.98C96.51,-102 80.74,-89.88 68.28,-80.31"/>
<polygon fill="#63b8ff" stroke="#63b8ff" points="70.35,-77.49 60.29,-74.17 66.09,-83.04 70.35,-77.49"/>
</a>
</g>
</g>
<!-- Node4 -->
<g id="Node000004" class="node">
<title>Node4</title>
<g id="a_Node000004"><a xlink:title=" ">
<polygon fill="#e0e0e0" stroke="#999999" points="106.5,-19 59.5,-19 59.5,0 106.5,0 106.5,-19"/>
<text text-anchor="middle" x="83" y="-7" font-family="Helvetica,sans-Serif" font-size="10.00">cmath</text>
</a>
</g>
</g>
<!-- Node2&#45;&gt;Node4 -->
<g id="edge4_Node000002_Node000004" class="edge">
<title>Node2&#45;&gt;Node4</title>
<g id="a_edge4_Node000002_Node000004"><a xlink:title=" ">
<path fill="none" stroke="#63b8ff" d="M115.57,-109.83C112.09,-97.56 105.4,-74.46 99,-55 96.14,-46.32 92.75,-36.79 89.82,-28.77"/>
<polygon fill="#63b8ff" stroke="#63b8ff" points="93.08,-27.48 86.33,-19.32 86.51,-29.91 93.08,-27.48"/>
</a>
</g>
</g>
<!-- Node3&#45;&gt;Node4 -->
<g id="edge3_Node000003_Node000004" class="edge">
<title>Node3&#45;&gt;Node4</title>
<g id="a_edge3_Node000003_Node000004"><a xlink:title=" ">
<path fill="none" stroke="#63b8ff" d="M54.61,-54.75C59.32,-47.42 66.17,-36.73 71.97,-27.7"/>
<polygon fill="#63b8ff" stroke="#63b8ff" points="75.04,-29.4 77.49,-19.09 69.14,-25.62 75.04,-29.4"/>
</a>
</g>
</g>
</g>
</svg>
