<?xml version="1.0" encoding="UTF-8" standalone="no"?>
<!DOCTYPE svg PUBLIC "-//W3C//DTD SVG 1.1//EN"
 "http://www.w3.org/Graphics/SVG/1.1/DTD/svg11.dtd">
<!-- Generated by graphviz version 2.43.0 (0)
 -->
<!-- Title: include/loaders/SceneParser.hpp Pages: 1 -->
<svg width="617pt" height="192pt"
 viewBox="0.00 0.00 616.50 192.00" xmlns="http://www.w3.org/2000/svg" xmlns:xlink="http://www.w3.org/1999/xlink">
<g id="graph0" class="graph" transform="scale(1 1) rotate(0) translate(4 188)">
<title>include/loaders/SceneParser.hpp</title>
<!-- Node1 -->
<g id="Node000001" class="node">
<title>Node1</title>
<g id="a_Node000001"><a xlink:title="Declares functions to load scenes from configuration files (.cfg) into a Scene object.">
<polygon fill="#999999" stroke="#666666" points="497,-184 324,-184 324,-165 497,-165 497,-184"/>
<text text-anchor="middle" x="410.5" y="-172" font-family="Helvetica,sans-Serif" font-size="10.00">include/loaders/SceneParser.hpp</text>
</a>
</g>
</g>
<!-- Node2 -->
<g id="Node000002" class="node">
<title>Node2</title>
<g id="a_Node000002"><a xlink:href="../../d7/d09/Utils_8hpp.html" target="_top" xlink:title="Utility functions and structures for raytracer configuration, rendering and post&#45;processing.">
<polygon fill="white" stroke="#666666" points="421.5,-129 299.5,-129 299.5,-110 421.5,-110 421.5,-129"/>
<text text-anchor="middle" x="360.5" y="-117" font-family="Helvetica,sans-Serif" font-size="10.00">include/core/Utils.hpp</text>
</a>
</g>
</g>
<!-- Node1&#45;&gt;Node2 -->
<g id="edge1_Node000001_Node000002" class="edge">
<title>Node1&#45;&gt;Node2</title>
<g id="a_edge1_Node000001_Node000002"><a xlink:title=" ">
<path fill="none" stroke="#63b8ff" d="M395.16,-157.24C386.4,-147.95 375.76,-136.68 368.6,-129.09"/>
<polygon fill="#63b8ff" stroke="#63b8ff" points="392.84,-159.88 402.24,-164.75 397.93,-155.07 392.84,-159.88"/>
</a>
</g>
</g>
<!-- Node6 -->
<g id="Node000006" class="node">
<title>Node6</title>
<g id="a_Node000006"><a xlink:href="../../d3/d79/SceneParser_8cpp.html" target="_top" xlink:title="Implements the scene loading system using libconfig for the raytracer engine.">
<polygon fill="white" stroke="#666666" points="608.5,-19 456.5,-19 456.5,0 608.5,0 608.5,-19"/>
<text text-anchor="middle" x="532.5" y="-7" font-family="Helvetica,sans-Serif" font-size="10.00">src/loaders/SceneParser.cpp</text>
</a>
</g>
</g>
<!-- Node1&#45;&gt;Node6 -->
<g id="edge12_Node000001_Node000006" class="edge">
<title>Node1&#45;&gt;Node6</title>
<g id="a_edge12_Node000001_Node000006"><a xlink:title=" ">
<path fill="none" stroke="#63b8ff" d="M431.12,-158.83C454.4,-141.23 491.84,-109.59 513.5,-74 524.27,-56.31 529.29,-32.1 531.32,-19.29"/>
<polygon fill="#63b8ff" stroke="#63b8ff" points="428.91,-156.11 422.95,-164.87 433.07,-161.74 428.91,-156.11"/>
</a>
</g>
</g>
<!-- Node3 -->
<g id="Node000003" class="node">
<title>Node3</title>
<g id="a_Node000003"><a xlink:href="../../d0/d3a/Raytracer_8hpp.html" target="_top" xlink:title="Declares the main Raytracer application class for program execution and argument handling.">
<polygon fill="white" stroke="#666666" points="504.5,-74 358.5,-74 358.5,-55 504.5,-55 504.5,-74"/>
<text text-anchor="middle" x="431.5" y="-62" font-family="Helvetica,sans-Serif" font-size="10.00">include/core/Raytracer.hpp</text>
</a>
</g>
</g>
<!-- Node2&#45;&gt;Node3 -->
<g id="edge2_Node000002_Node000003" class="edge">
<title>Node2&#45;&gt;Node3</title>
<g id="a_edge2_Node000002_Node000003"><a xlink:title=" ">
<path fill="none" stroke="#63b8ff" d="M374.66,-103.32C386.29,-93.87 402.46,-82.06 414.74,-74.17"/>
<polygon fill="#63b8ff" stroke="#63b8ff" points="372.16,-100.85 366.79,-109.98 376.69,-106.19 372.16,-100.85"/>
</a>
</g>
</g>
<!-- Node7 -->
<g id="Node000007" class="node">
<title>Node7</title>
<g id="a_Node000007"><a xlink:href="../../da/d7d/Visualizer_8hpp.html" target="_top" xlink:title=" ">
<polygon fill="white" stroke="#666666" points="221,-74 74,-74 74,-55 221,-55 221,-74"/>
<text text-anchor="middle" x="147.5" y="-62" font-family="Helvetica,sans-Serif" font-size="10.00">include/core/Visualizer.hpp</text>
</a>
</g>
</g>
<!-- Node2&#45;&gt;Node7 -->
<g id="edge7_Node000002_Node000007" class="edge">
<title>Node2&#45;&gt;Node7</title>
<g id="a_edge7_Node000002_Node000007"><a xlink:title=" ">
<path fill="none" stroke="#63b8ff" d="M316.55,-107.56C276.66,-97.64 218.63,-83.2 181.99,-74.08"/>
<polygon fill="#63b8ff" stroke="#63b8ff" points="315.73,-110.97 326.28,-109.98 317.42,-104.17 315.73,-110.97"/>
</a>
</g>
</g>
<!-- Node8 -->
<g id="Node000008" class="node">
<title>Node8</title>
<g id="a_Node000008"><a xlink:href="../../d7/dd9/Visualizer_8cpp.html" target="_top" xlink:title="Implements visualization modes for the raytracer using SFML.">
<polygon fill="white" stroke="#666666" points="125,-19 0,-19 0,0 125,0 125,-19"/>
<text text-anchor="middle" x="62.5" y="-7" font-family="Helvetica,sans-Serif" font-size="10.00">src/core/Visualizer.cpp</text>
</a>
</g>
</g>
<!-- Node2&#45;&gt;Node8 -->
<g id="edge11_Node000002_Node000008" class="edge">
<title>Node2&#45;&gt;Node8</title>
<g id="a_edge11_Node000002_Node000008"><a xlink:title=" ">
<path fill="none" stroke="#63b8ff" d="M289.17,-117.89C211.18,-115.54 93.41,-106.53 64.5,-74 51.02,-58.83 55.88,-32.66 59.69,-19.14"/>
<polygon fill="#63b8ff" stroke="#63b8ff" points="289.33,-121.39 299.42,-118.16 289.52,-114.39 289.33,-121.39"/>
</a>
</g>
</g>
<!-- Node9 -->
<g id="Node000009" class="node">
<title>Node9</title>
<g id="a_Node000009"><a xlink:href="../../df/d0c/Utils_8cpp.html" target="_top" xlink:title="Implements utility functions for argument parsing, rendering, post&#45;processing, and denoising in the r...">
<polygon fill="white" stroke="#666666" points="340,-74 239,-74 239,-55 340,-55 340,-74"/>
<text text-anchor="middle" x="289.5" y="-62" font-family="Helvetica,sans-Serif" font-size="10.00">src/core/Utils.cpp</text>
</a>
</g>
</g>
<!-- Node2&#45;&gt;Node9 -->
<g id="edge10_Node000002_Node000009" class="edge">
<title>Node2&#45;&gt;Node9</title>
<g id="a_edge10_Node000002_Node000009"><a xlink:title=" ">
<path fill="none" stroke="#63b8ff" d="M340.91,-103.88C328.13,-94.34 311.89,-82.21 301.11,-74.17"/>
<polygon fill="#63b8ff" stroke="#63b8ff" points="338.99,-106.81 349.09,-109.98 343.17,-101.2 338.99,-106.81"/>
</a>
</g>
</g>
<!-- Node3&#45;&gt;Node2 -->
<g id="edge3_Node000003_Node000002" class="edge">
<title>Node3&#45;&gt;Node2</title>
<g id="a_edge3_Node000003_Node000002"><a xlink:title=" ">
<path fill="none" stroke="#63b8ff" d="M417.11,-80.86C405.42,-90.34 389.25,-102.15 377.02,-109.98"/>
<polygon fill="#63b8ff" stroke="#63b8ff" points="419.65,-83.3 425.03,-74.17 415.14,-77.95 419.65,-83.3"/>
</a>
</g>
</g>
<!-- Node4 -->
<g id="Node000004" class="node">
<title>Node4</title>
<g id="a_Node000004"><a xlink:href="../../df/d39/Raytracer_8cpp.html" target="_top" xlink:title="Implements the main execution flow of the Raytracer application, including argument parsing,...">
<polygon fill="white" stroke="#666666" points="301,-19 176,-19 176,0 301,0 301,-19"/>
<text text-anchor="middle" x="238.5" y="-7" font-family="Helvetica,sans-Serif" font-size="10.00">src/core/Raytracer.cpp</text>
</a>
</g>
</g>
<!-- Node3&#45;&gt;Node4 -->
<g id="edge4_Node000003_Node000004" class="edge">
<title>Node3&#45;&gt;Node4</title>
<g id="a_edge4_Node000003_Node000004"><a xlink:title=" ">
<path fill="none" stroke="#63b8ff" d="M390.75,-52.31C354.64,-42.39 302.67,-28.12 269.75,-19.08"/>
<polygon fill="#63b8ff" stroke="#63b8ff" points="389.92,-55.71 400.49,-54.98 391.78,-48.96 389.92,-55.71"/>
</a>
</g>
</g>
<!-- Node5 -->
<g id="Node000005" class="node">
<title>Node5</title>
<g id="a_Node000005"><a xlink:href="../../df/d0a/main_8cpp.html" target="_top" xlink:title="Entry point of the raytracer application. Initializes and runs the Raytracer engine.">
<polygon fill="white" stroke="#666666" points="438,-19 335,-19 335,0 438,0 438,-19"/>
<text text-anchor="middle" x="386.5" y="-7" font-family="Helvetica,sans-Serif" font-size="10.00">src/core/main.cpp</text>
</a>
</g>
</g>
<!-- Node3&#45;&gt;Node5 -->
<g id="edge5_Node000003_Node000005" class="edge">
<title>Node3&#45;&gt;Node5</title>
<g id="a_edge5_Node000003_Node000005"><a xlink:title=" ">
<path fill="none" stroke="#63b8ff" d="M417.45,-46.96C409.61,-37.72 400.17,-26.6 393.79,-19.09"/>
<polygon fill="#63b8ff" stroke="#63b8ff" points="414.93,-49.39 424.07,-54.75 420.26,-44.86 414.93,-49.39"/>
</a>
</g>
</g>
<!-- Node3&#45;&gt;Node6 -->
<g id="edge6_Node000003_Node000006" class="edge">
<title>Node3&#45;&gt;Node6</title>
<g id="a_edge6_Node000003_Node000006"><a xlink:title=" ">
<path fill="none" stroke="#63b8ff" d="M456.78,-50.23C475.3,-40.51 499.92,-27.6 515.98,-19.17"/>
<polygon fill="#63b8ff" stroke="#63b8ff" points="454.96,-47.24 447.73,-54.98 458.21,-53.44 454.96,-47.24"/>
</a>
</g>
</g>
<!-- Node7&#45;&gt;Node4 -->
<g id="edge8_Node000007_Node000004" class="edge">
<title>Node7&#45;&gt;Node4</title>
<g id="a_edge8_Node000007_Node000004"><a xlink:title=" ">
<path fill="none" stroke="#63b8ff" d="M171.2,-49.7C187.78,-40.04 209.41,-27.44 223.61,-19.17"/>
<polygon fill="#63b8ff" stroke="#63b8ff" points="169,-46.93 162.12,-54.98 172.52,-52.98 169,-46.93"/>
</a>
</g>
</g>
<!-- Node7&#45;&gt;Node8 -->
<g id="edge9_Node000007_Node000008" class="edge">
<title>Node7&#45;&gt;Node8</title>
<g id="a_edge9_Node000007_Node000008"><a xlink:title=" ">
<path fill="none" stroke="#63b8ff" d="M124.93,-49.42C109.5,-39.81 89.55,-27.37 76.41,-19.17"/>
<polygon fill="#63b8ff" stroke="#63b8ff" points="123.51,-52.66 133.84,-54.98 127.21,-46.72 123.51,-52.66"/>
</a>
</g>
</g>
</g>
</svg>
