<?xml version="1.0" encoding="UTF-8" standalone="no"?>
<!DOCTYPE svg PUBLIC "-//W3C//DTD SVG 1.1//EN"
 "http://www.w3.org/Graphics/SVG/1.1/DTD/svg11.dtd">
<!-- Generated by graphviz version 2.43.0 (0)
 -->
<!-- Title: RayTracer::Texture Pages: 1 -->
<svg width="462pt" height="82pt"
 viewBox="0.00 0.00 462.00 82.00" xmlns="http://www.w3.org/2000/svg" xmlns:xlink="http://www.w3.org/1999/xlink">
<g id="graph0" class="graph" transform="scale(1 1) rotate(0) translate(4 78)">
<title>RayTracer::Texture</title>
<!-- Node1 -->
<g id="Node000001" class="node">
<title>Node1</title>
<g id="a_Node000001"><a xlink:title="Abstract interface for UV&#45;mapped colour sources.">
<polygon fill="#999999" stroke="#666666" points="286.5,-74 179.5,-74 179.5,-55 286.5,-55 286.5,-74"/>
<text text-anchor="middle" x="233" y="-62" font-family="Helvetica,sans-Serif" font-size="10.00">RayTracer::Texture</text>
</a>
</g>
</g>
<!-- Node2 -->
<g id="Node000002" class="node">
<title>Node2</title>
<g id="a_Node000002"><a xlink:href="../../d3/d8d/classRayTracer_1_1CheckerTexture.html" target="_top" xlink:title="Procedural checkerboard pattern.">
<polygon fill="white" stroke="#666666" points="146,-19 0,-19 0,0 146,0 146,-19"/>
<text text-anchor="middle" x="73" y="-7" font-family="Helvetica,sans-Serif" font-size="10.00">RayTracer::CheckerTexture</text>
</a>
</g>
</g>
<!-- Node1&#45;&gt;Node2 -->
<g id="edge1_Node000001_Node000002" class="edge">
<title>Node1&#45;&gt;Node2</title>
<g id="a_edge1_Node000001_Node000002"><a xlink:title=" ">
<path fill="none" stroke="#63b8ff" d="M197.67,-51.8C167.81,-41.91 125.73,-27.97 98.91,-19.08"/>
<polygon fill="#63b8ff" stroke="#63b8ff" points="196.7,-55.16 207.29,-54.98 198.9,-48.52 196.7,-55.16"/>
</a>
</g>
</g>
<!-- Node3 -->
<g id="Node000003" class="node">
<title>Node3</title>
<g id="a_Node000003"><a xlink:href="../../d1/d6c/classRayTracer_1_1ImageTexture.html" target="_top" xlink:title="Texture backed by an image file.">
<polygon fill="white" stroke="#666666" points="301.5,-19 164.5,-19 164.5,0 301.5,0 301.5,-19"/>
<text text-anchor="middle" x="233" y="-7" font-family="Helvetica,sans-Serif" font-size="10.00">RayTracer::ImageTexture</text>
</a>
</g>
</g>
<!-- Node1&#45;&gt;Node3 -->
<g id="edge2_Node000001_Node000003" class="edge">
<title>Node1&#45;&gt;Node3</title>
<g id="a_edge2_Node000001_Node000003"><a xlink:title=" ">
<path fill="none" stroke="#63b8ff" d="M233,-44.66C233,-35.93 233,-25.99 233,-19.09"/>
<polygon fill="#63b8ff" stroke="#63b8ff" points="229.5,-44.75 233,-54.75 236.5,-44.75 229.5,-44.75"/>
</a>
</g>
</g>
<!-- Node4 -->
<g id="Node000004" class="node">
<title>Node4</title>
<g id="a_Node000004"><a xlink:href="../../de/d40/classRayTracer_1_1NoiseTexture.html" target="_top" xlink:title=" ">
<polygon fill="white" stroke="#666666" points="454,-19 320,-19 320,0 454,0 454,-19"/>
<text text-anchor="middle" x="387" y="-7" font-family="Helvetica,sans-Serif" font-size="10.00">RayTracer::NoiseTexture</text>
</a>
</g>
</g>
<!-- Node1&#45;&gt;Node4 -->
<g id="edge3_Node000001_Node000004" class="edge">
<title>Node1&#45;&gt;Node4</title>
<g id="a_edge3_Node000001_Node000004"><a xlink:title=" ">
<path fill="none" stroke="#63b8ff" d="M267.38,-51.67C296.09,-41.79 336.36,-27.93 362.06,-19.08"/>
<polygon fill="#63b8ff" stroke="#63b8ff" points="266.06,-48.42 257.74,-54.98 268.34,-55.04 266.06,-48.42"/>
</a>
</g>
</g>
</g>
</svg>
