<?xml version="1.0" encoding="UTF-8" standalone="no"?>
<!DOCTYPE svg PUBLIC "-//W3C//DTD SVG 1.1//EN"
 "http://www.w3.org/Graphics/SVG/1.1/DTD/svg11.dtd">
<!-- Generated by graphviz version 2.43.0 (0)
 -->
<!-- Title: src/rendering/PointLight.cpp Pages: 1 -->
<svg width="199pt" height="368pt"
 viewBox="0.00 0.00 198.50 368.00" xmlns="http://www.w3.org/2000/svg" xmlns:xlink="http://www.w3.org/1999/xlink">
<g id="graph0" class="graph" transform="scale(1 1) rotate(0) translate(4 364)">
<title>src/rendering/PointLight.cpp</title>
<!-- Node1 -->
<g id="Node000001" class="node">
<title>Node1</title>
<g id="a_Node000001"><a xlink:title=" ">
<polygon fill="#999999" stroke="#666666" points="190.5,-360 38.5,-360 38.5,-341 190.5,-341 190.5,-360"/>
<text text-anchor="middle" x="114.5" y="-348" font-family="Helvetica,sans-Serif" font-size="10.00">src/rendering/PointLight.cpp</text>
</a>
</g>
</g>
<!-- Node2 -->
<g id="Node000002" class="node">
<title>Node2</title>
<g id="a_Node000002"><a xlink:href="../../d3/dfa/PointLight_8hpp.html" target="_top" xlink:title=" ">
<polygon fill="white" stroke="#666666" points="174,-305 55,-305 55,-275 174,-275 174,-305"/>
<text text-anchor="start" x="63" y="-293" font-family="Helvetica,sans-Serif" font-size="10.00">../../include/rendering</text>
<text text-anchor="middle" x="114.5" y="-282" font-family="Helvetica,sans-Serif" font-size="10.00">/PointLight.hpp</text>
</a>
</g>
</g>
<!-- Node1&#45;&gt;Node2 -->
<g id="edge1_Node000001_Node000002" class="edge">
<title>Node1&#45;&gt;Node2</title>
<g id="a_edge1_Node000001_Node000002"><a xlink:title=" ">
<path fill="none" stroke="#63b8ff" d="M114.5,-340.87C114.5,-334.11 114.5,-324.35 114.5,-315.26"/>
<polygon fill="#63b8ff" stroke="#63b8ff" points="118,-315.11 114.5,-305.11 111,-315.11 118,-315.11"/>
</a>
</g>
</g>
<!-- Node3 -->
<g id="Node000003" class="node">
<title>Node3</title>
<g id="a_Node000003"><a xlink:href="../../db/d54/ALight_8hpp.html" target="_top" xlink:title="Abstract base class partially implementing the ILight interface.">
<polygon fill="white" stroke="#666666" points="148.5,-239 80.5,-239 80.5,-220 148.5,-220 148.5,-239"/>
<text text-anchor="middle" x="114.5" y="-227" font-family="Helvetica,sans-Serif" font-size="10.00">ALight.hpp</text>
</a>
</g>
</g>
<!-- Node2&#45;&gt;Node3 -->
<g id="edge2_Node000002_Node000003" class="edge">
<title>Node2&#45;&gt;Node3</title>
<g id="a_edge2_Node000002_Node000003"><a xlink:title=" ">
<path fill="none" stroke="#63b8ff" d="M114.5,-274.84C114.5,-267.21 114.5,-257.7 114.5,-249.45"/>
<polygon fill="#63b8ff" stroke="#63b8ff" points="118,-249.27 114.5,-239.27 111,-249.27 118,-249.27"/>
</a>
</g>
</g>
<!-- Node5 -->
<g id="Node000005" class="node">
<title>Node5</title>
<g id="a_Node000005"><a xlink:href="../../df/df2/Point3D_8hpp.html" target="_top" xlink:title="Defines a 3D point structure used in geometric computations.">
<polygon fill="white" stroke="#666666" points="109,-129 0,-129 0,-110 109,-110 109,-129"/>
<text text-anchor="middle" x="54.5" y="-117" font-family="Helvetica,sans-Serif" font-size="10.00">../core/Point3D.hpp</text>
</a>
</g>
</g>
<!-- Node2&#45;&gt;Node5 -->
<g id="edge9_Node000002_Node000005" class="edge">
<title>Node2&#45;&gt;Node5</title>
<g id="a_edge9_Node000002_Node000005"><a xlink:title=" ">
<path fill="none" stroke="#63b8ff" d="M98.41,-274.86C88.99,-265.62 77.75,-252.76 71.5,-239 56.65,-206.31 54.1,-163.79 54.01,-139.58"/>
<polygon fill="#63b8ff" stroke="#63b8ff" points="57.52,-139.33 54.12,-129.29 50.52,-139.25 57.52,-139.33"/>
</a>
</g>
</g>
<!-- Node6 -->
<g id="Node000006" class="node">
<title>Node6</title>
<g id="a_Node000006"><a xlink:href="../../d3/dde/Vector3D_8hpp.html" target="_top" xlink:title="Defines a 3D vector structure with basic arithmetic and transformation operations.">
<polygon fill="white" stroke="#666666" points="174.5,-74 92.5,-74 92.5,-55 174.5,-55 174.5,-74"/>
<text text-anchor="middle" x="133.5" y="-62" font-family="Helvetica,sans-Serif" font-size="10.00">Vector3D.hpp</text>
</a>
</g>
</g>
<!-- Node2&#45;&gt;Node6 -->
<g id="edge10_Node000002_Node000006" class="edge">
<title>Node2&#45;&gt;Node6</title>
<g id="a_edge10_Node000002_Node000006"><a xlink:title=" ">
<path fill="none" stroke="#63b8ff" d="M131.73,-274.73C141.32,-265.63 152.32,-252.96 157.5,-239 177.54,-184.95 154.74,-115.81 141.56,-83.57"/>
<polygon fill="#63b8ff" stroke="#63b8ff" points="144.67,-81.95 137.53,-74.12 138.23,-84.69 144.67,-81.95"/>
</a>
</g>
</g>
<!-- Node4 -->
<g id="Node000004" class="node">
<title>Node4</title>
<g id="a_Node000004"><a xlink:href="../../da/da7/ILight_8hpp.html" target="_top" xlink:title="Abstract interface for all light sources in the path tracer.">
<polygon fill="white" stroke="#666666" points="147,-184 82,-184 82,-165 147,-165 147,-184"/>
<text text-anchor="middle" x="114.5" y="-172" font-family="Helvetica,sans-Serif" font-size="10.00">ILight.hpp</text>
</a>
</g>
</g>
<!-- Node3&#45;&gt;Node4 -->
<g id="edge3_Node000003_Node000004" class="edge">
<title>Node3&#45;&gt;Node4</title>
<g id="a_edge3_Node000003_Node000004"><a xlink:title=" ">
<path fill="none" stroke="#63b8ff" d="M114.5,-219.75C114.5,-212.8 114.5,-202.85 114.5,-194.13"/>
<polygon fill="#63b8ff" stroke="#63b8ff" points="118,-194.09 114.5,-184.09 111,-194.09 118,-194.09"/>
</a>
</g>
</g>
<!-- Node4&#45;&gt;Node5 -->
<g id="edge4_Node000004_Node000005" class="edge">
<title>Node4&#45;&gt;Node5</title>
<g id="a_edge4_Node000004_Node000005"><a xlink:title=" ">
<path fill="none" stroke="#63b8ff" d="M104.86,-164.98C95.99,-157.15 82.63,-145.34 71.89,-135.86"/>
<polygon fill="#63b8ff" stroke="#63b8ff" points="74.13,-133.17 64.32,-129.17 69.49,-138.41 74.13,-133.17"/>
</a>
</g>
</g>
<!-- Node4&#45;&gt;Node6 -->
<g id="edge8_Node000004_Node000006" class="edge">
<title>Node4&#45;&gt;Node6</title>
<g id="a_edge8_Node000004_Node000006"><a xlink:title=" ">
<path fill="none" stroke="#63b8ff" d="M116.05,-164.66C119.13,-147.17 126.06,-107.8 130.2,-84.27"/>
<polygon fill="#63b8ff" stroke="#63b8ff" points="133.69,-84.61 131.98,-74.16 126.8,-83.4 133.69,-84.61"/>
</a>
</g>
</g>
<!-- Node5&#45;&gt;Node6 -->
<g id="edge5_Node000005_Node000006" class="edge">
<title>Node5&#45;&gt;Node6</title>
<g id="a_edge5_Node000005_Node000006"><a xlink:title=" ">
<path fill="none" stroke="#63b8ff" d="M67.19,-109.98C79.33,-101.84 97.86,-89.41 112.25,-79.76"/>
<polygon fill="#63b8ff" stroke="#63b8ff" points="114.22,-82.65 120.58,-74.17 110.32,-76.84 114.22,-82.65"/>
</a>
</g>
</g>
<!-- Node7 -->
<g id="Node000007" class="node">
<title>Node7</title>
<g id="a_Node000007"><a xlink:title=" ">
<polygon fill="#e0e0e0" stroke="#999999" points="119,-19 72,-19 72,0 119,0 119,-19"/>
<text text-anchor="middle" x="95.5" y="-7" font-family="Helvetica,sans-Serif" font-size="10.00">cmath</text>
</a>
</g>
</g>
<!-- Node5&#45;&gt;Node7 -->
<g id="edge7_Node000005_Node000007" class="edge">
<title>Node5&#45;&gt;Node7</title>
<g id="a_edge7_Node000005_Node000007"><a xlink:title=" ">
<path fill="none" stroke="#63b8ff" d="M57.86,-109.66C64.56,-92.01 79.71,-52.09 88.62,-28.64"/>
<polygon fill="#63b8ff" stroke="#63b8ff" points="91.94,-29.75 92.21,-19.16 85.39,-27.27 91.94,-29.75"/>
</a>
</g>
</g>
<!-- Node6&#45;&gt;Node7 -->
<g id="edge6_Node000006_Node000007" class="edge">
<title>Node6&#45;&gt;Node7</title>
<g id="a_edge6_Node000006_Node000007"><a xlink:title=" ">
<path fill="none" stroke="#63b8ff" d="M127.23,-54.75C121.91,-47.34 114.14,-36.5 107.62,-27.41"/>
<polygon fill="#63b8ff" stroke="#63b8ff" points="110.33,-25.18 101.66,-19.09 104.64,-29.26 110.33,-25.18"/>
</a>
</g>
</g>
</g>
</svg>
