<?xml version="1.0" encoding="UTF-8" standalone="no"?>
<!DOCTYPE svg PUBLIC "-//W3C//DTD SVG 1.1//EN"
 "http://www.w3.org/Graphics/SVG/1.1/DTD/svg11.dtd">
<!-- Generated by graphviz version 2.43.0 (0)
 -->
<!-- Title: include/rendering/ShadowShading.hpp Pages: 1 -->
<svg width="1362pt" height="478pt"
 viewBox="0.00 0.00 1361.50 478.00" xmlns="http://www.w3.org/2000/svg" xmlns:xlink="http://www.w3.org/1999/xlink">
<g id="graph0" class="graph" transform="scale(1 1) rotate(0) translate(4 474)">
<title>include/rendering/ShadowShading.hpp</title>
<!-- Node1 -->
<g id="Node000001" class="node">
<title>Node1</title>
<g id="a_Node000001"><a xlink:title=" ">
<polygon fill="#999999" stroke="#666666" points="685.5,-470 542.5,-470 542.5,-440 685.5,-440 685.5,-470"/>
<text text-anchor="start" x="550.5" y="-458" font-family="Helvetica,sans-Serif" font-size="10.00">include/rendering/Shadow</text>
<text text-anchor="middle" x="614" y="-447" font-family="Helvetica,sans-Serif" font-size="10.00">Shading.hpp</text>
</a>
</g>
</g>
<!-- Node2 -->
<g id="Node000002" class="node">
<title>Node2</title>
<g id="a_Node000002"><a xlink:href="../../db/de8/Scene_8hpp.html" target="_top" xlink:title="Declares the scene container: camera, objects, lights, and top&#45;level BVH.">
<polygon fill="white" stroke="#666666" points="553.5,-404 486.5,-404 486.5,-385 553.5,-385 553.5,-404"/>
<text text-anchor="middle" x="520" y="-392" font-family="Helvetica,sans-Serif" font-size="10.00">Scene.hpp</text>
</a>
</g>
</g>
<!-- Node1&#45;&gt;Node2 -->
<g id="edge1_Node000001_Node000002" class="edge">
<title>Node1&#45;&gt;Node2</title>
<g id="a_edge1_Node000001_Node000002"><a xlink:title=" ">
<path fill="none" stroke="#63b8ff" d="M591.25,-439.84C576.4,-430.6 557.1,-418.59 542.34,-409.4"/>
<polygon fill="#63b8ff" stroke="#63b8ff" points="544.15,-406.41 533.81,-404.09 540.45,-412.35 544.15,-406.41"/>
</a>
</g>
</g>
<!-- Node6 -->
<g id="Node000006" class="node">
<title>Node6</title>
<g id="a_Node000006"><a xlink:href="../../d4/db2/Ray_8hpp.html" target="_top" xlink:title="Defines the Ray structure used for ray&#45;object intersection tests in the raytracer.">
<polygon fill="white" stroke="#666666" points="762.5,-184 683.5,-184 683.5,-165 762.5,-165 762.5,-184"/>
<text text-anchor="middle" x="723" y="-172" font-family="Helvetica,sans-Serif" font-size="10.00">core/Ray.hpp</text>
</a>
</g>
</g>
<!-- Node1&#45;&gt;Node6 -->
<g id="edge41_Node000001_Node000006" class="edge">
<title>Node1&#45;&gt;Node6</title>
<g id="a_edge41_Node000001_Node000006"><a xlink:title=" ">
<path fill="none" stroke="#63b8ff" d="M685.8,-454.04C767.57,-449.85 890,-428.84 890,-340.5 890,-340.5 890,-340.5 890,-283.5 890,-226.97 821.7,-198.57 772.45,-185.45"/>
<polygon fill="#63b8ff" stroke="#63b8ff" points="773.13,-182.01 762.58,-182.95 771.41,-188.79 773.13,-182.01"/>
</a>
</g>
</g>
<!-- Node8 -->
<g id="Node000008" class="node">
<title>Node8</title>
<g id="a_Node000008"><a xlink:href="../../d3/dde/Vector3D_8hpp.html" target="_top" xlink:title="Defines a 3D vector structure with basic arithmetic and transformation operations.">
<polygon fill="white" stroke="#666666" points="912,-74 830,-74 830,-55 912,-55 912,-74"/>
<text text-anchor="middle" x="871" y="-62" font-family="Helvetica,sans-Serif" font-size="10.00">Vector3D.hpp</text>
</a>
</g>
</g>
<!-- Node1&#45;&gt;Node8 -->
<g id="edge42_Node000001_Node000008" class="edge">
<title>Node1&#45;&gt;Node8</title>
<g id="a_edge42_Node000001_Node000008"><a xlink:title=" ">
<path fill="none" stroke="#63b8ff" d="M685.69,-452C771.34,-448.16 918.34,-436.91 1040,-404 1098.98,-388.04 1120.37,-389.64 1166,-349 1210.08,-309.73 1226,-289.53 1226,-230.5 1226,-230.5 1226,-230.5 1226,-173.5 1226,-137.02 1205.74,-127.97 1174,-110 1132.02,-86.23 997.31,-73.8 922.42,-68.58"/>
<polygon fill="#63b8ff" stroke="#63b8ff" points="922.48,-65.07 912.27,-67.89 922.01,-72.06 922.48,-65.07"/>
</a>
</g>
</g>
<!-- Node9 -->
<g id="Node000009" class="node">
<title>Node9</title>
<g id="a_Node000009"><a xlink:title=" ">
<polygon fill="#e0e0e0" stroke="#999999" points="381.5,-19 334.5,-19 334.5,0 381.5,0 381.5,-19"/>
<text text-anchor="middle" x="358" y="-7" font-family="Helvetica,sans-Serif" font-size="10.00">cmath</text>
</a>
</g>
</g>
<!-- Node1&#45;&gt;Node9 -->
<g id="edge57_Node000001_Node000009" class="edge">
<title>Node1&#45;&gt;Node9</title>
<g id="a_edge57_Node000001_Node000009"><a xlink:title=" ">
<path fill="none" stroke="#63b8ff" d="M542.19,-452.32C416.47,-448.55 162.08,-436.99 80,-404 37.88,-387.07 0,-385.89 0,-340.5 0,-340.5 0,-340.5 0,-118.5 0,-51.2 234.8,-22.07 324.09,-13.43"/>
<polygon fill="#63b8ff" stroke="#63b8ff" points="324.61,-16.9 334.23,-12.48 323.95,-9.93 324.61,-16.9"/>
</a>
</g>
</g>
<!-- Node11 -->
<g id="Node000011" class="node">
<title>Node11</title>
<g id="a_Node000011"><a xlink:href="../../d0/d70/Material_8hpp.html" target="_top" xlink:title="Declares the physically&#45;based material descriptor used by the renderer.">
<polygon fill="white" stroke="#666666" points="1084,-239 956,-239 956,-220 1084,-220 1084,-239"/>
<text text-anchor="middle" x="1020" y="-227" font-family="Helvetica,sans-Serif" font-size="10.00">rendering/Material.hpp</text>
</a>
</g>
</g>
<!-- Node1&#45;&gt;Node11 -->
<g id="edge43_Node000001_Node000011" class="edge">
<title>Node1&#45;&gt;Node11</title>
<g id="a_edge43_Node000001_Node000011"><a xlink:title=" ">
<path fill="none" stroke="#63b8ff" d="M685.83,-448.11C759.73,-440.92 868.87,-426.82 904,-404 963.2,-365.54 999.48,-285.12 1013.44,-248.89"/>
<polygon fill="#63b8ff" stroke="#63b8ff" points="1016.85,-249.75 1017.05,-239.16 1010.29,-247.31 1016.85,-249.75"/>
</a>
</g>
</g>
<!-- Node16 -->
<g id="Node000016" class="node">
<title>Node16</title>
<g id="a_Node000016"><a xlink:title=" ">
<polygon fill="#e0e0e0" stroke="#999999" points="82,-184 28,-184 28,-165 82,-165 82,-184"/>
<text text-anchor="middle" x="55" y="-172" font-family="Helvetica,sans-Serif" font-size="10.00">random</text>
</a>
</g>
</g>
<!-- Node1&#45;&gt;Node16 -->
<g id="edge58_Node000001_Node000016" class="edge">
<title>Node1&#45;&gt;Node16</title>
<g id="a_edge58_Node000001_Node000016"><a xlink:title=" ">
<path fill="none" stroke="#63b8ff" d="M542.22,-454.3C391.11,-452.99 54,-439.02 54,-340.5 54,-340.5 54,-340.5 54,-283.5 54,-252.19 54.43,-215.77 54.72,-194.23"/>
<polygon fill="#63b8ff" stroke="#63b8ff" points="58.22,-194.23 54.87,-184.18 51.22,-194.13 58.22,-194.23"/>
</a>
</g>
</g>
<!-- Node17 -->
<g id="Node000017" class="node">
<title>Node17</title>
<g id="a_Node000017"><a xlink:href="../../da/da7/ILight_8hpp.html" target="_top" xlink:title="Abstract interface for all light sources in the path tracer.">
<polygon fill="white" stroke="#666666" points="229.5,-349 164.5,-349 164.5,-330 229.5,-330 229.5,-349"/>
<text text-anchor="middle" x="197" y="-337" font-family="Helvetica,sans-Serif" font-size="10.00">ILight.hpp</text>
</a>
</g>
</g>
<!-- Node1&#45;&gt;Node17 -->
<g id="edge40_Node000001_Node000017" class="edge">
<title>Node1&#45;&gt;Node17</title>
<g id="a_edge40_Node000001_Node000017"><a xlink:title=" ">
<path fill="none" stroke="#63b8ff" d="M542.45,-452.76C474.02,-449.38 369.1,-438.37 285,-404 257.38,-392.71 230.25,-371.08 213.58,-356.23"/>
<polygon fill="#63b8ff" stroke="#63b8ff" points="215.6,-353.34 205.86,-349.17 210.88,-358.51 215.6,-353.34"/>
</a>
</g>
</g>
<!-- Node19 -->
<g id="Node000019" class="node">
<title>Node19</title>
<g id="a_Node000019"><a xlink:title=" ">
<polygon fill="#e0e0e0" stroke="#999999" points="278,-294 214,-294 214,-275 278,-275 278,-294"/>
<text text-anchor="middle" x="246" y="-282" font-family="Helvetica,sans-Serif" font-size="10.00">algorithm</text>
</a>
</g>
</g>
<!-- Node1&#45;&gt;Node19 -->
<g id="edge59_Node000001_Node000019" class="edge">
<title>Node1&#45;&gt;Node19</title>
<g id="a_edge59_Node000001_Node000019"><a xlink:title=" ">
<path fill="none" stroke="#63b8ff" d="M548.55,-439.98C514.76,-431.61 473.32,-419.56 438,-404 370.87,-374.43 299.21,-324.71 265.57,-300.15"/>
<polygon fill="#63b8ff" stroke="#63b8ff" points="267.62,-297.31 257.5,-294.19 263.47,-302.94 267.62,-297.31"/>
</a>
</g>
</g>
<!-- Node20 -->
<g id="Node000020" class="node">
<title>Node20</title>
<g id="a_Node000020"><a xlink:title=" ">
<polygon fill="#e0e0e0" stroke="#999999" points="340,-294 296,-294 296,-275 340,-275 340,-294"/>
<text text-anchor="middle" x="318" y="-282" font-family="Helvetica,sans-Serif" font-size="10.00">limits</text>
</a>
</g>
</g>
<!-- Node1&#45;&gt;Node20 -->
<g id="edge56_Node000001_Node000020" class="edge">
<title>Node1&#45;&gt;Node20</title>
<g id="a_edge56_Node000001_Node000020"><a xlink:title=" ">
<path fill="none" stroke="#63b8ff" d="M568.26,-439.94C541.38,-431.01 507.07,-418.43 478,-404 437.36,-383.83 428.42,-376.06 392,-349 371.55,-333.81 349.58,-314.54 334.93,-301.23"/>
<polygon fill="#63b8ff" stroke="#63b8ff" points="336.96,-298.34 327.23,-294.16 332.23,-303.5 336.96,-298.34"/>
</a>
</g>
</g>
<!-- Node21 -->
<g id="Node000021" class="node">
<title>Node21</title>
<g id="a_Node000021"><a xlink:href="../../d6/d46/Sphere_8hpp.html" target="_top" xlink:title="Declares the Sphere primitive for ray tracing.">
<polygon fill="white" stroke="#666666" points="851,-404 727,-404 727,-385 851,-385 851,-404"/>
<text text-anchor="middle" x="789" y="-392" font-family="Helvetica,sans-Serif" font-size="10.00">primitives/Sphere.hpp</text>
</a>
</g>
</g>
<!-- Node1&#45;&gt;Node21 -->
<g id="edge44_Node000001_Node000021" class="edge">
<title>Node1&#45;&gt;Node21</title>
<g id="a_edge44_Node000001_Node000021"><a xlink:title=" ">
<path fill="none" stroke="#63b8ff" d="M655.92,-439.99C685.73,-430.02 725.33,-416.78 753.56,-407.35"/>
<polygon fill="#63b8ff" stroke="#63b8ff" points="755.04,-410.54 763.41,-404.05 752.82,-403.9 755.04,-410.54"/>
</a>
</g>
</g>
<!-- Node22 -->
<g id="Node000022" class="node">
<title>Node22</title>
<g id="a_Node000022"><a xlink:href="../../dc/d94/Skybox_8hpp.html" target="_top" xlink:title="Declares a minimal PPM&#45;based skybox loader and sampler.">
<polygon fill="white" stroke="#666666" points="1132.5,-349 1059.5,-349 1059.5,-330 1132.5,-330 1132.5,-349"/>
<text text-anchor="middle" x="1096" y="-337" font-family="Helvetica,sans-Serif" font-size="10.00">Skybox.hpp</text>
</a>
</g>
</g>
<!-- Node1&#45;&gt;Node22 -->
<g id="edge52_Node000001_Node000022" class="edge">
<title>Node1&#45;&gt;Node22</title>
<g id="a_edge52_Node000001_Node000022"><a xlink:title=" ">
<path fill="none" stroke="#63b8ff" d="M685.53,-449.32C783.18,-442.18 952.66,-426.95 1010,-404 1037.29,-393.07 1063.73,-371.36 1079.93,-356.39"/>
<polygon fill="#63b8ff" stroke="#63b8ff" points="1082.58,-358.7 1087.41,-349.27 1077.76,-353.63 1082.58,-358.7"/>
</a>
</g>
</g>
<!-- Node23 -->
<g id="Node000023" class="node">
<title>Node23</title>
<g id="a_Node000023"><a xlink:title=" ">
<polygon fill="#e0e0e0" stroke="#999999" points="1353.5,-404 1270.5,-404 1270.5,-385 1353.5,-385 1353.5,-404"/>
<text text-anchor="middle" x="1312" y="-392" font-family="Helvetica,sans-Serif" font-size="10.00">initializer_list</text>
</a>
</g>
</g>
<!-- Node1&#45;&gt;Node23 -->
<g id="edge60_Node000001_Node000023" class="edge">
<title>Node1&#45;&gt;Node23</title>
<g id="a_edge60_Node000001_Node000023"><a xlink:title=" ">
<path fill="none" stroke="#63b8ff" d="M685.89,-450.12C804.78,-443.31 1049.69,-427.66 1256,-404 1257.47,-403.83 1258.95,-403.65 1260.45,-403.47"/>
<polygon fill="#63b8ff" stroke="#63b8ff" points="1261,-406.93 1270.46,-402.15 1260.08,-399.99 1261,-406.93"/>
</a>
</g>
</g>
<!-- Node3 -->
<g id="Node000003" class="node">
<title>Node3</title>
<g id="a_Node000003"><a xlink:title=" ">
<polygon fill="#e0e0e0" stroke="#999999" points="823.5,-294 776.5,-294 776.5,-275 823.5,-275 823.5,-294"/>
<text text-anchor="middle" x="800" y="-282" font-family="Helvetica,sans-Serif" font-size="10.00">vector</text>
</a>
</g>
</g>
<!-- Node2&#45;&gt;Node3 -->
<g id="edge2_Node000002_Node000003" class="edge">
<title>Node2&#45;&gt;Node3</title>
<g id="a_edge2_Node000002_Node000003"><a xlink:title=" ">
<path fill="none" stroke="#63b8ff" d="M542.44,-384.84C592.02,-365.72 711.02,-319.82 768.23,-297.75"/>
<polygon fill="#63b8ff" stroke="#63b8ff" points="769.77,-300.91 777.84,-294.05 767.25,-294.38 769.77,-300.91"/>
</a>
</g>
</g>
<!-- Node4 -->
<g id="Node000004" class="node">
<title>Node4</title>
<g id="a_Node000004"><a xlink:title=" ">
<polygon fill="#e0e0e0" stroke="#999999" points="463,-184 405,-184 405,-165 463,-165 463,-184"/>
<text text-anchor="middle" x="434" y="-172" font-family="Helvetica,sans-Serif" font-size="10.00">memory</text>
</a>
</g>
</g>
<!-- Node2&#45;&gt;Node4 -->
<g id="edge3_Node000002_Node000004" class="edge">
<title>Node2&#45;&gt;Node4</title>
<g id="a_edge3_Node000002_Node000004"><a xlink:title=" ">
<path fill="none" stroke="#63b8ff" d="M510.71,-384.75C502.22,-376.3 489.81,-362.79 482,-349 452.78,-297.44 440.51,-227.06 436.11,-194.04"/>
<polygon fill="#63b8ff" stroke="#63b8ff" points="439.57,-193.5 434.87,-184.01 432.63,-194.36 439.57,-193.5"/>
</a>
</g>
</g>
<!-- Node5 -->
<g id="Node000005" class="node">
<title>Node5</title>
<g id="a_Node000005"><a xlink:href="../../de/d81/APrimitive_8hpp.html" target="_top" xlink:title=" ">
<polygon fill="white" stroke="#666666" points="719.5,-294 606.5,-294 606.5,-275 719.5,-275 719.5,-294"/>
<text text-anchor="middle" x="663" y="-282" font-family="Helvetica,sans-Serif" font-size="10.00">core/APrimitive.hpp</text>
</a>
</g>
</g>
<!-- Node2&#45;&gt;Node5 -->
<g id="edge4_Node000002_Node000005" class="edge">
<title>Node2&#45;&gt;Node5</title>
<g id="a_edge4_Node000002_Node000005"><a xlink:title=" ">
<path fill="none" stroke="#63b8ff" d="M531.7,-384.66C556.23,-366.14 613.25,-323.08 643.44,-300.28"/>
<polygon fill="#63b8ff" stroke="#63b8ff" points="645.67,-302.98 651.54,-294.16 641.45,-297.39 645.67,-302.98"/>
</a>
</g>
</g>
<!-- Node15 -->
<g id="Node000015" class="node">
<title>Node15</title>
<g id="a_Node000015"><a xlink:href="../../d6/d80/Camera_8hpp.html" target="_top" xlink:title="Declares the pin&#45;hole / thin&#45;lens camera used by the ray tracer.">
<polygon fill="white" stroke="#666666" points="158,-239 82,-239 82,-220 158,-220 158,-239"/>
<text text-anchor="middle" x="120" y="-227" font-family="Helvetica,sans-Serif" font-size="10.00">Camera.hpp</text>
</a>
</g>
</g>
<!-- Node2&#45;&gt;Node15 -->
<g id="edge22_Node000002_Node000015" class="edge">
<title>Node2&#45;&gt;Node15</title>
<g id="a_edge22_Node000002_Node000015"><a xlink:title=" ">
<path fill="none" stroke="#63b8ff" d="M486.4,-393.7C406.14,-393.52 206.1,-388.96 155,-349 124.54,-325.18 119.62,-276.16 119.38,-249.23"/>
<polygon fill="#63b8ff" stroke="#63b8ff" points="122.88,-249.22 119.5,-239.18 115.88,-249.14 122.88,-249.22"/>
</a>
</g>
</g>
<!-- Node2&#45;&gt;Node17 -->
<g id="edge28_Node000002_Node000017" class="edge">
<title>Node2&#45;&gt;Node17</title>
<g id="a_edge28_Node000002_Node000017"><a xlink:title=" ">
<path fill="none" stroke="#63b8ff" d="M486.35,-387.98C427.15,-378.26 304.5,-358.14 239.53,-347.48"/>
<polygon fill="#63b8ff" stroke="#63b8ff" points="240.05,-344.02 229.61,-345.85 238.92,-350.92 240.05,-344.02"/>
</a>
</g>
</g>
<!-- Node18 -->
<g id="Node000018" class="node">
<title>Node18</title>
<g id="a_Node000018"><a xlink:href="../../d9/dad/BVH_8hpp.html" target="_top" xlink:title="Declares the axis&#45;aligned bounding box (AABB) and the BVH node used for ray&#45;tracing acceleration.">
<polygon fill="white" stroke="#666666" points="549.5,-349 490.5,-349 490.5,-330 549.5,-330 549.5,-349"/>
<text text-anchor="middle" x="520" y="-337" font-family="Helvetica,sans-Serif" font-size="10.00">BVH.hpp</text>
</a>
</g>
</g>
<!-- Node2&#45;&gt;Node18 -->
<g id="edge31_Node000002_Node000018" class="edge">
<title>Node2&#45;&gt;Node18</title>
<g id="a_edge31_Node000002_Node000018"><a xlink:title=" ">
<path fill="none" stroke="#63b8ff" d="M520,-384.75C520,-377.8 520,-367.85 520,-359.13"/>
<polygon fill="#63b8ff" stroke="#63b8ff" points="523.5,-359.09 520,-349.09 516.5,-359.09 523.5,-359.09"/>
</a>
</g>
</g>
<!-- Node5&#45;&gt;Node6 -->
<g id="edge5_Node000005_Node000006" class="edge">
<title>Node5&#45;&gt;Node6</title>
<g id="a_edge5_Node000005_Node000006"><a xlink:title=" ">
<path fill="none" stroke="#63b8ff" d="M703.62,-274.99C723.32,-268.59 745.22,-257.61 757,-239 766.95,-223.28 753.85,-204.38 741.13,-191.31"/>
<polygon fill="#63b8ff" stroke="#63b8ff" points="743.51,-188.74 733.86,-184.35 738.67,-193.8 743.51,-188.74"/>
</a>
</g>
</g>
<!-- Node7 -->
<g id="Node000007" class="node">
<title>Node7</title>
<g id="a_Node000007"><a xlink:href="../../df/df2/Point3D_8hpp.html" target="_top" xlink:title="Defines a 3D point structure used in geometric computations.">
<polygon fill="white" stroke="#666666" points="396,-129 320,-129 320,-110 396,-110 396,-129"/>
<text text-anchor="middle" x="358" y="-117" font-family="Helvetica,sans-Serif" font-size="10.00">Point3D.hpp</text>
</a>
</g>
</g>
<!-- Node5&#45;&gt;Node7 -->
<g id="edge11_Node000005_Node000007" class="edge">
<title>Node5&#45;&gt;Node7</title>
<g id="a_edge11_Node000005_Node000007"><a xlink:title=" ">
<path fill="none" stroke="#63b8ff" d="M615.5,-274.95C588.34,-268.38 554.68,-257.24 529,-239 495.15,-214.96 505.22,-189.9 472,-165 451.73,-149.8 425.61,-139.11 403.49,-132.02"/>
<polygon fill="#63b8ff" stroke="#63b8ff" points="404.23,-128.59 393.64,-129.01 402.18,-135.28 404.23,-128.59"/>
</a>
</g>
</g>
<!-- Node5&#45;&gt;Node8 -->
<g id="edge13_Node000005_Node000008" class="edge">
<title>Node5&#45;&gt;Node8</title>
<g id="a_edge13_Node000005_Node000008"><a xlink:title=" ">
<path fill="none" stroke="#63b8ff" d="M700.15,-274.97C722.94,-268.24 751.56,-256.92 772,-239 822.35,-194.85 853.07,-118.59 865.13,-83.78"/>
<polygon fill="#63b8ff" stroke="#63b8ff" points="868.53,-84.62 868.39,-74.03 861.9,-82.4 868.53,-84.62"/>
</a>
</g>
</g>
<!-- Node10 -->
<g id="Node000010" class="node">
<title>Node10</title>
<g id="a_Node000010"><a xlink:href="../../d8/d1e/Vector2D_8hpp.html" target="_top" xlink:title="Defines a 2D vector structure used for texture coordinates or screen&#45;space math operations.">
<polygon fill="white" stroke="#666666" points="644,-239 538,-239 538,-220 644,-220 644,-239"/>
<text text-anchor="middle" x="591" y="-227" font-family="Helvetica,sans-Serif" font-size="10.00">core/Vector2D.hpp</text>
</a>
</g>
</g>
<!-- Node5&#45;&gt;Node10 -->
<g id="edge12_Node000005_Node000010" class="edge">
<title>Node5&#45;&gt;Node10</title>
<g id="a_edge12_Node000005_Node000010"><a xlink:title=" ">
<path fill="none" stroke="#63b8ff" d="M651.43,-274.98C640.58,-267 624.12,-254.88 611.12,-245.31"/>
<polygon fill="#63b8ff" stroke="#63b8ff" points="612.91,-242.28 602.78,-239.17 608.76,-247.92 612.91,-242.28"/>
</a>
</g>
</g>
<!-- Node5&#45;&gt;Node11 -->
<g id="edge14_Node000005_Node000011" class="edge">
<title>Node5&#45;&gt;Node11</title>
<g id="a_edge14_Node000005_Node000011"><a xlink:title=" ">
<path fill="none" stroke="#63b8ff" d="M719.57,-275.1C782.78,-265.72 885.06,-250.53 952.43,-240.53"/>
<polygon fill="#63b8ff" stroke="#63b8ff" points="953.14,-243.96 962.51,-239.03 952.11,-237.04 953.14,-243.96"/>
</a>
</g>
</g>
<!-- Node14 -->
<g id="Node000014" class="node">
<title>Node14</title>
<g id="a_Node000014"><a xlink:href="../../d0/d38/IPrimitive_8hpp.html" target="_top" xlink:title="Interface for geometric primitives in the raytracer.">
<polygon fill="white" stroke="#666666" points="747.5,-239 662.5,-239 662.5,-220 747.5,-220 747.5,-239"/>
<text text-anchor="middle" x="705" y="-227" font-family="Helvetica,sans-Serif" font-size="10.00">IPrimitive.hpp</text>
</a>
</g>
</g>
<!-- Node5&#45;&gt;Node14 -->
<g id="edge20_Node000005_Node000014" class="edge">
<title>Node5&#45;&gt;Node14</title>
<g id="a_edge20_Node000005_Node000014"><a xlink:title=" ">
<path fill="none" stroke="#63b8ff" d="M669.94,-274.75C675.87,-267.26 684.57,-256.28 691.82,-247.13"/>
<polygon fill="#63b8ff" stroke="#63b8ff" points="694.73,-249.1 698.19,-239.09 689.24,-244.75 694.73,-249.1"/>
</a>
</g>
</g>
<!-- Node6&#45;&gt;Node7 -->
<g id="edge6_Node000006_Node000007" class="edge">
<title>Node6&#45;&gt;Node7</title>
<g id="a_edge6_Node000006_Node000007"><a xlink:title=" ">
<path fill="none" stroke="#63b8ff" d="M683.24,-167.73C615.8,-157.93 479.19,-138.1 406.33,-127.52"/>
<polygon fill="#63b8ff" stroke="#63b8ff" points="406.46,-124 396.06,-126.03 405.45,-130.93 406.46,-124"/>
</a>
</g>
</g>
<!-- Node6&#45;&gt;Node8 -->
<g id="edge10_Node000006_Node000008" class="edge">
<title>Node6&#45;&gt;Node8</title>
<g id="a_edge10_Node000006_Node000008"><a xlink:title=" ">
<path fill="none" stroke="#63b8ff" d="M732.64,-164.86C746.91,-152.22 774.7,-128.24 800,-110 815.15,-99.08 832.96,-87.92 846.95,-79.51"/>
<polygon fill="#63b8ff" stroke="#63b8ff" points="849.14,-82.28 855.95,-74.16 845.56,-76.26 849.14,-82.28"/>
</a>
</g>
</g>
<!-- Node7&#45;&gt;Node8 -->
<g id="edge7_Node000007_Node000008" class="edge">
<title>Node7&#45;&gt;Node8</title>
<g id="a_edge7_Node000007_Node000008"><a xlink:title=" ">
<path fill="none" stroke="#63b8ff" d="M396.14,-114.56C487.06,-105.17 716.64,-81.45 819.62,-70.81"/>
<polygon fill="#63b8ff" stroke="#63b8ff" points="820.19,-74.27 829.77,-69.76 819.47,-67.31 820.19,-74.27"/>
</a>
</g>
</g>
<!-- Node7&#45;&gt;Node9 -->
<g id="edge9_Node000007_Node000009" class="edge">
<title>Node7&#45;&gt;Node9</title>
<g id="a_edge9_Node000007_Node000009"><a xlink:title=" ">
<path fill="none" stroke="#63b8ff" d="M358,-109.66C358,-92.17 358,-52.8 358,-29.27"/>
<polygon fill="#63b8ff" stroke="#63b8ff" points="361.5,-29.16 358,-19.16 354.5,-29.16 361.5,-29.16"/>
</a>
</g>
</g>
<!-- Node8&#45;&gt;Node9 -->
<g id="edge8_Node000008_Node000009" class="edge">
<title>Node8&#45;&gt;Node9</title>
<g id="a_edge8_Node000008_Node000009"><a xlink:title=" ">
<path fill="none" stroke="#63b8ff" d="M829.89,-59.25C731.2,-49.06 482.4,-23.35 391.73,-13.98"/>
<polygon fill="#63b8ff" stroke="#63b8ff" points="392.03,-10.5 381.72,-12.95 391.31,-17.46 392.03,-10.5"/>
</a>
</g>
</g>
<!-- Node11&#45;&gt;Node4 -->
<g id="edge16_Node000011_Node000004" class="edge">
<title>Node11&#45;&gt;Node4</title>
<g id="a_edge16_Node000011_Node000004"><a xlink:title=" ">
<path fill="none" stroke="#63b8ff" d="M955.89,-222.7C834.11,-211.69 572.64,-188.04 473.35,-179.06"/>
<polygon fill="#63b8ff" stroke="#63b8ff" points="473.43,-175.55 463.15,-178.14 472.8,-182.52 473.43,-175.55"/>
</a>
</g>
</g>
<!-- Node11&#45;&gt;Node8 -->
<g id="edge17_Node000011_Node000008" class="edge">
<title>Node11&#45;&gt;Node8</title>
<g id="a_edge17_Node000011_Node000008"><a xlink:title=" ">
<path fill="none" stroke="#63b8ff" d="M1015.95,-219.86C1005.85,-198.99 977.75,-144.96 942,-110 929.24,-97.52 912.4,-86.78 898.33,-78.98"/>
<polygon fill="#63b8ff" stroke="#63b8ff" points="899.58,-75.68 889.11,-74.07 896.29,-81.86 899.58,-75.68"/>
</a>
</g>
</g>
<!-- Node12 -->
<g id="Node000012" class="node">
<title>Node12</title>
<g id="a_Node000012"><a xlink:title=" ">
<polygon fill="#e0e0e0" stroke="#999999" points="1115,-184 1071,-184 1071,-165 1115,-165 1115,-184"/>
<text text-anchor="middle" x="1093" y="-172" font-family="Helvetica,sans-Serif" font-size="10.00">string</text>
</a>
</g>
</g>
<!-- Node11&#45;&gt;Node12 -->
<g id="edge15_Node000011_Node000012" class="edge">
<title>Node11&#45;&gt;Node12</title>
<g id="a_edge15_Node000011_Node000012"><a xlink:title=" ">
<path fill="none" stroke="#63b8ff" d="M1031.73,-219.98C1042.73,-212 1059.42,-199.88 1072.6,-190.31"/>
<polygon fill="#63b8ff" stroke="#63b8ff" points="1075.02,-192.88 1081.06,-184.17 1070.91,-187.21 1075.02,-192.88"/>
</a>
</g>
</g>
<!-- Node13 -->
<g id="Node000013" class="node">
<title>Node13</title>
<g id="a_Node000013"><a xlink:href="../../d0/ddc/Texture_8hpp.html" target="_top" xlink:title="Declares the abstract base class for all 2&#45;D textures. (Solid colour, checkerboard,...">
<polygon fill="white" stroke="#666666" points="1117.5,-129 994.5,-129 994.5,-110 1117.5,-110 1117.5,-129"/>
<text text-anchor="middle" x="1056" y="-117" font-family="Helvetica,sans-Serif" font-size="10.00">rendering/Texture.hpp</text>
</a>
</g>
</g>
<!-- Node11&#45;&gt;Node13 -->
<g id="edge18_Node000011_Node000013" class="edge">
<title>Node11&#45;&gt;Node13</title>
<g id="a_edge18_Node000011_Node000013"><a xlink:title=" ">
<path fill="none" stroke="#63b8ff" d="M1022.95,-219.66C1028.8,-202.09 1042.02,-162.45 1049.85,-138.95"/>
<polygon fill="#63b8ff" stroke="#63b8ff" points="1053.27,-139.75 1053.11,-129.16 1046.63,-137.54 1053.27,-139.75"/>
</a>
</g>
</g>
<!-- Node13&#45;&gt;Node8 -->
<g id="edge19_Node000013_Node000008" class="edge">
<title>Node13&#45;&gt;Node8</title>
<g id="a_edge19_Node000013_Node000008"><a xlink:title=" ">
<path fill="none" stroke="#63b8ff" d="M1026.28,-109.98C994.95,-101.01 945.43,-86.82 910.76,-76.89"/>
<polygon fill="#63b8ff" stroke="#63b8ff" points="911.53,-73.47 900.96,-74.08 909.61,-80.2 911.53,-73.47"/>
</a>
</g>
</g>
<!-- Node14&#45;&gt;Node6 -->
<g id="edge21_Node000014_Node000006" class="edge">
<title>Node14&#45;&gt;Node6</title>
<g id="a_edge21_Node000014_Node000006"><a xlink:title=" ">
<path fill="none" stroke="#63b8ff" d="M707.97,-219.75C710.36,-212.72 713.79,-202.62 716.77,-193.84"/>
<polygon fill="#63b8ff" stroke="#63b8ff" points="720.18,-194.68 720.08,-184.09 713.55,-192.43 720.18,-194.68"/>
</a>
</g>
</g>
<!-- Node15&#45;&gt;Node6 -->
<g id="edge25_Node000015_Node000006" class="edge">
<title>Node15&#45;&gt;Node6</title>
<g id="a_edge25_Node000015_Node000006"><a xlink:title=" ">
<path fill="none" stroke="#63b8ff" d="M158.18,-225.14C263.1,-215.92 555.8,-190.2 673.28,-179.87"/>
<polygon fill="#63b8ff" stroke="#63b8ff" points="673.77,-183.34 683.43,-178.98 673.16,-176.37 673.77,-183.34"/>
</a>
</g>
</g>
<!-- Node15&#45;&gt;Node7 -->
<g id="edge23_Node000015_Node000007" class="edge">
<title>Node15&#45;&gt;Node7</title>
<g id="a_edge23_Node000015_Node000007"><a xlink:title=" ">
<path fill="none" stroke="#63b8ff" d="M136.38,-219.87C160.54,-207.26 207.27,-183.31 248,-165 273.91,-153.35 303.82,-141.34 325.9,-132.74"/>
<polygon fill="#63b8ff" stroke="#63b8ff" points="327.4,-135.92 335.46,-129.04 324.87,-129.39 327.4,-135.92"/>
</a>
</g>
</g>
<!-- Node15&#45;&gt;Node8 -->
<g id="edge24_Node000015_Node000008" class="edge">
<title>Node15&#45;&gt;Node8</title>
<g id="a_edge24_Node000015_Node000008"><a xlink:title=" ">
<path fill="none" stroke="#63b8ff" d="M120.84,-219.74C123.52,-197.09 134.08,-136.53 172,-110 224.66,-73.16 666.98,-66.82 819.52,-65.73"/>
<polygon fill="#63b8ff" stroke="#63b8ff" points="819.6,-69.23 829.57,-65.66 819.55,-62.23 819.6,-69.23"/>
</a>
</g>
</g>
<!-- Node15&#45;&gt;Node9 -->
<g id="edge26_Node000015_Node000009" class="edge">
<title>Node15&#45;&gt;Node9</title>
<g id="a_edge26_Node000015_Node000009"><a xlink:title=" ">
<path fill="none" stroke="#63b8ff" d="M119.37,-219.95C118.28,-198.33 118.57,-140.97 149,-110 198.77,-59.34 279.43,-31.2 324.61,-18.64"/>
<polygon fill="#63b8ff" stroke="#63b8ff" points="325.74,-21.96 334.49,-15.98 323.93,-15.2 325.74,-21.96"/>
</a>
</g>
</g>
<!-- Node15&#45;&gt;Node16 -->
<g id="edge27_Node000015_Node000016" class="edge">
<title>Node15&#45;&gt;Node16</title>
<g id="a_edge27_Node000015_Node000016"><a xlink:title=" ">
<path fill="none" stroke="#63b8ff" d="M109.56,-219.98C99.85,-212.07 85.18,-200.11 73.5,-190.58"/>
<polygon fill="#63b8ff" stroke="#63b8ff" points="75.6,-187.78 65.63,-184.17 71.17,-193.2 75.6,-187.78"/>
</a>
</g>
</g>
<!-- Node17&#45;&gt;Node7 -->
<g id="edge29_Node000017_Node000007" class="edge">
<title>Node17&#45;&gt;Node7</title>
<g id="a_edge29_Node000017_Node000007"><a xlink:title=" ">
<path fill="none" stroke="#63b8ff" d="M196.47,-329.83C196.05,-317.17 196.59,-293.15 205,-275 234.29,-211.81 300.84,-159.45 335.72,-135.13"/>
<polygon fill="#63b8ff" stroke="#63b8ff" points="337.98,-137.83 344.27,-129.3 334.03,-132.05 337.98,-137.83"/>
</a>
</g>
</g>
<!-- Node17&#45;&gt;Node8 -->
<g id="edge30_Node000017_Node000008" class="edge">
<title>Node17&#45;&gt;Node8</title>
<g id="a_edge30_Node000017_Node000008"><a xlink:title=" ">
<path fill="none" stroke="#63b8ff" d="M195.54,-329.73C193.78,-317.35 191.56,-294.12 196,-275 216.22,-187.93 232.03,-151.88 311,-110 355.3,-86.5 689.9,-72.04 819.73,-67.26"/>
<polygon fill="#63b8ff" stroke="#63b8ff" points="819.95,-70.75 829.82,-66.89 819.7,-63.76 819.95,-70.75"/>
</a>
</g>
</g>
<!-- Node18&#45;&gt;Node3 -->
<g id="edge33_Node000018_Node000003" class="edge">
<title>Node18&#45;&gt;Node3</title>
<g id="a_edge33_Node000018_Node000003"><a xlink:title=" ">
<path fill="none" stroke="#63b8ff" d="M549.88,-333.38C595.64,-325.46 685.82,-309.52 762,-294 763.45,-293.7 764.93,-293.4 766.42,-293.08"/>
<polygon fill="#63b8ff" stroke="#63b8ff" points="767.28,-296.48 776.31,-290.95 765.8,-289.64 767.28,-296.48"/>
</a>
</g>
</g>
<!-- Node18&#45;&gt;Node4 -->
<g id="edge32_Node000018_Node000004" class="edge">
<title>Node18&#45;&gt;Node4</title>
<g id="a_edge32_Node000018_Node000004"><a xlink:title=" ">
<path fill="none" stroke="#63b8ff" d="M513.75,-329.79C501.81,-312.88 475.41,-274.21 458,-239 450.73,-224.31 444.28,-206.84 439.9,-193.95"/>
<polygon fill="#63b8ff" stroke="#63b8ff" points="443.19,-192.76 436.74,-184.36 436.54,-194.95 443.19,-192.76"/>
</a>
</g>
</g>
<!-- Node18&#45;&gt;Node5 -->
<g id="edge37_Node000018_Node000005" class="edge">
<title>Node18&#45;&gt;Node5</title>
<g id="a_edge37_Node000018_Node000005"><a xlink:title=" ">
<path fill="none" stroke="#63b8ff" d="M542.98,-329.98C566.5,-321.27 603.29,-307.63 629.94,-297.75"/>
<polygon fill="#63b8ff" stroke="#63b8ff" points="631.45,-300.93 639.61,-294.17 629.01,-294.36 631.45,-300.93"/>
</a>
</g>
</g>
<!-- Node18&#45;&gt;Node6 -->
<g id="edge36_Node000018_Node000006" class="edge">
<title>Node18&#45;&gt;Node6</title>
<g id="a_edge36_Node000018_Node000006"><a xlink:title=" ">
<path fill="none" stroke="#63b8ff" d="M517.57,-329.77C512.13,-308.21 501.55,-251.9 529,-220 547.5,-198.5 622.07,-186.27 673.18,-180.27"/>
<polygon fill="#63b8ff" stroke="#63b8ff" points="673.84,-183.72 683.38,-179.12 673.05,-176.76 673.84,-183.72"/>
</a>
</g>
</g>
<!-- Node18&#45;&gt;Node7 -->
<g id="edge38_Node000018_Node000007" class="edge">
<title>Node18&#45;&gt;Node7</title>
<g id="a_edge38_Node000018_Node000007"><a xlink:title=" ">
<path fill="none" stroke="#63b8ff" d="M509.97,-329.79C500.28,-321.15 485.44,-307.32 474,-294 428.87,-241.43 386.44,-170.59 367.86,-138.11"/>
<polygon fill="#63b8ff" stroke="#63b8ff" points="370.85,-136.3 362.88,-129.32 364.76,-139.75 370.85,-136.3"/>
</a>
</g>
</g>
<!-- Node18&#45;&gt;Node8 -->
<g id="edge39_Node000018_Node000008" class="edge">
<title>Node18&#45;&gt;Node8</title>
<g id="a_edge39_Node000018_Node000008"><a xlink:title=" ">
<path fill="none" stroke="#63b8ff" d="M549.52,-336.75C591.39,-333.29 669.55,-323.16 729,-294 814.32,-252.15 838.5,-220.26 865,-129 869.21,-114.51 870.64,-97.45 871.05,-84.66"/>
<polygon fill="#63b8ff" stroke="#63b8ff" points="874.56,-84.37 871.2,-74.32 867.56,-84.27 874.56,-84.37"/>
</a>
</g>
</g>
<!-- Node18&#45;&gt;Node19 -->
<g id="edge34_Node000018_Node000019" class="edge">
<title>Node18&#45;&gt;Node19</title>
<g id="a_edge34_Node000018_Node000019"><a xlink:title=" ">
<path fill="none" stroke="#63b8ff" d="M490.18,-332.96C447.65,-325.03 366.88,-309.83 288.29,-294.23"/>
<polygon fill="#63b8ff" stroke="#63b8ff" points="288.71,-290.75 278.22,-292.23 287.34,-297.61 288.71,-290.75"/>
</a>
</g>
</g>
<!-- Node18&#45;&gt;Node20 -->
<g id="edge35_Node000018_Node000020" class="edge">
<title>Node18&#45;&gt;Node20</title>
<g id="a_edge35_Node000018_Node000020"><a xlink:title=" ">
<path fill="none" stroke="#63b8ff" d="M490.19,-330.68C452.78,-320.86 388.84,-304.09 350.29,-293.97"/>
<polygon fill="#63b8ff" stroke="#63b8ff" points="350.69,-290.46 340.13,-291.31 348.92,-297.23 350.69,-290.46"/>
</a>
</g>
</g>
<!-- Node21&#45;&gt;Node5 -->
<g id="edge45_Node000021_Node000005" class="edge">
<title>Node21&#45;&gt;Node5</title>
<g id="a_edge45_Node000021_Node000005"><a xlink:title=" ">
<path fill="none" stroke="#63b8ff" d="M778.69,-384.66C757.26,-366.3 707.7,-323.81 680.93,-300.87"/>
<polygon fill="#63b8ff" stroke="#63b8ff" points="682.97,-298.01 673.1,-294.16 678.42,-303.32 682.97,-298.01"/>
</a>
</g>
</g>
<!-- Node21&#45;&gt;Node6 -->
<g id="edge48_Node000021_Node000006" class="edge">
<title>Node21&#45;&gt;Node6</title>
<g id="a_edge48_Node000021_Node000006"><a xlink:title=" ">
<path fill="none" stroke="#63b8ff" d="M796.95,-384.73C813.93,-364.88 850.81,-315.12 833,-275 815.71,-236.05 774.81,-205.88 748.05,-189.41"/>
<polygon fill="#63b8ff" stroke="#63b8ff" points="749.61,-186.27 739.23,-184.17 746.03,-192.29 749.61,-186.27"/>
</a>
</g>
</g>
<!-- Node21&#45;&gt;Node7 -->
<g id="edge46_Node000021_Node000007" class="edge">
<title>Node21&#45;&gt;Node7</title>
<g id="a_edge46_Node000021_Node000007"><a xlink:title=" ">
<path fill="none" stroke="#63b8ff" d="M726.74,-390.64C648.92,-386.02 521.18,-374.7 482,-349 405.11,-298.57 372.07,-183.68 361.78,-138.88"/>
<polygon fill="#63b8ff" stroke="#63b8ff" points="365.19,-138.1 359.64,-129.08 358.35,-139.59 365.19,-138.1"/>
</a>
</g>
</g>
<!-- Node21&#45;&gt;Node8 -->
<g id="edge47_Node000021_Node000008" class="edge">
<title>Node21&#45;&gt;Node8</title>
<g id="a_edge47_Node000021_Node000008"><a xlink:title=" ">
<path fill="none" stroke="#63b8ff" d="M851.17,-393.13C940.16,-391.38 1098,-383.36 1142,-349 1186.53,-314.23 1188,-287 1188,-230.5 1188,-230.5 1188,-230.5 1188,-173.5 1188,-140.38 1176.53,-128.41 1149,-110 1112.82,-85.81 992.42,-73.74 922.5,-68.63"/>
<polygon fill="#63b8ff" stroke="#63b8ff" points="922.37,-65.11 912.15,-67.9 921.88,-72.1 922.37,-65.11"/>
</a>
</g>
</g>
<!-- Node21&#45;&gt;Node9 -->
<g id="edge51_Node000021_Node000009" class="edge">
<title>Node21&#45;&gt;Node9</title>
<g id="a_edge51_Node000021_Node000009"><a xlink:title=" ">
<path fill="none" stroke="#63b8ff" d="M851.32,-391.71C944.08,-388.13 1113.18,-377.76 1166,-349 1226.02,-316.32 1264,-298.84 1264,-230.5 1264,-230.5 1264,-230.5 1264,-118.5 1264,-28.89 556.14,-13.31 391.79,-10.91"/>
<polygon fill="#63b8ff" stroke="#63b8ff" points="391.82,-7.41 381.77,-10.77 391.72,-14.4 391.82,-7.41"/>
</a>
</g>
</g>
<!-- Node21&#45;&gt;Node11 -->
<g id="edge49_Node000021_Node000011" class="edge">
<title>Node21&#45;&gt;Node11</title>
<g id="a_edge49_Node000021_Node000011"><a xlink:title=" ">
<path fill="none" stroke="#63b8ff" d="M805.3,-384.9C821.15,-376.34 845.73,-362.57 866,-349 917.32,-314.64 973.99,-268.83 1002.12,-245.51"/>
<polygon fill="#63b8ff" stroke="#63b8ff" points="1004.45,-248.12 1009.89,-239.03 999.97,-242.74 1004.45,-248.12"/>
</a>
</g>
</g>
<!-- Node21&#45;&gt;Node18 -->
<g id="edge50_Node000021_Node000018" class="edge">
<title>Node21&#45;&gt;Node18</title>
<g id="a_edge50_Node000021_Node000018"><a xlink:title=" ">
<path fill="none" stroke="#63b8ff" d="M745.78,-384.98C694.48,-374.88 609.63,-358.16 559.85,-348.35"/>
<polygon fill="#63b8ff" stroke="#63b8ff" points="560.28,-344.87 549.79,-346.37 558.92,-351.74 560.28,-344.87"/>
</a>
</g>
</g>
<!-- Node22&#45;&gt;Node3 -->
<g id="edge55_Node000022_Node000003" class="edge">
<title>Node22&#45;&gt;Node3</title>
<g id="a_edge55_Node000022_Node000003"><a xlink:title=" ">
<path fill="none" stroke="#63b8ff" d="M1059.41,-331.95C1001.57,-321.59 889.87,-301.59 833.81,-291.55"/>
<polygon fill="#63b8ff" stroke="#63b8ff" points="834.16,-288.06 823.7,-289.74 832.92,-294.95 834.16,-288.06"/>
</a>
</g>
</g>
<!-- Node22&#45;&gt;Node8 -->
<g id="edge53_Node000022_Node000008" class="edge">
<title>Node22&#45;&gt;Node8</title>
<g id="a_edge53_Node000022_Node000008"><a xlink:title=" ">
<path fill="none" stroke="#63b8ff" d="M1103.74,-329.99C1118.67,-312.64 1150,-271.38 1150,-230.5 1150,-230.5 1150,-230.5 1150,-173.5 1150,-143.48 1150,-129.28 1127,-110 1096.69,-84.59 987.77,-73.11 922.17,-68.4"/>
<polygon fill="#63b8ff" stroke="#63b8ff" points="922.25,-64.9 912.03,-67.7 921.77,-71.88 922.25,-64.9"/>
</a>
</g>
</g>
<!-- Node22&#45;&gt;Node12 -->
<g id="edge54_Node000022_Node000012" class="edge">
<title>Node22&#45;&gt;Node12</title>
<g id="a_edge54_Node000022_Node000012"><a xlink:title=" ">
<path fill="none" stroke="#63b8ff" d="M1095.84,-329.74C1095.37,-304.31 1094,-230.08 1093.35,-194.69"/>
<polygon fill="#63b8ff" stroke="#63b8ff" points="1096.85,-194.24 1093.16,-184.31 1089.85,-194.37 1096.85,-194.24"/>
</a>
</g>
</g>
</g>
</svg>
