<?xml version="1.0" encoding="UTF-8" standalone="no"?>
<!DOCTYPE svg PUBLIC "-//W3C//DTD SVG 1.1//EN"
 "http://www.w3.org/Graphics/SVG/1.1/DTD/svg11.dtd">
<!-- Generated by graphviz version 2.43.0 (0)
 -->
<!-- Title: RayTracer::STLLoader::load Pages: 1 -->
<svg width="434pt" height="138pt"
 viewBox="0.00 0.00 434.00 138.00" xmlns="http://www.w3.org/2000/svg" xmlns:xlink="http://www.w3.org/1999/xlink">
<g id="graph0" class="graph" transform="scale(1 1) rotate(0) translate(4 134)">
<title>RayTracer::STLLoader::load</title>
<!-- Node1 -->
<g id="Node000001" class="node">
<title>Node1</title>
<g id="a_Node000001"><a xlink:title="Loads an STL file and returns its geometry as a Mesh.">
<polygon fill="#999999" stroke="#666666" points="121,-79.5 0,-79.5 0,-49.5 121,-49.5 121,-79.5"/>
<text text-anchor="start" x="8" y="-67.5" font-family="Helvetica,sans-Serif" font-size="10.00">RayTracer::STLLoader</text>
<text text-anchor="middle" x="60.5" y="-56.5" font-family="Helvetica,sans-Serif" font-size="10.00">::load</text>
</a>
</g>
</g>
<!-- Node2 -->
<g id="Node000002" class="node">
<title>Node2</title>
<g id="a_Node000002"><a xlink:href="../../d3/d4f/STLLoader_8cpp.html#a8a4be3d7ad6d081ff61b7e9743fe97cd" target="_top" xlink:title=" ">
<polygon fill="white" stroke="#666666" points="231,-130 157,-130 157,-111 231,-111 231,-130"/>
<text text-anchor="middle" x="194" y="-118" font-family="Helvetica,sans-Serif" font-size="10.00">centerMesh</text>
</a>
</g>
</g>
<!-- Node1&#45;&gt;Node2 -->
<g id="edge1_Node000001_Node000002" class="edge">
<title>Node1&#45;&gt;Node2</title>
<g id="a_edge1_Node000001_Node000002"><a xlink:title=" ">
<path fill="none" stroke="#63b8ff" d="M96.74,-79.51C116.78,-88.04 141.69,-98.65 161.15,-106.94"/>
<polygon fill="#63b8ff" stroke="#63b8ff" points="159.92,-110.22 170.49,-110.92 162.66,-103.78 159.92,-110.22"/>
</a>
</g>
</g>
<!-- Node4 -->
<g id="Node000004" class="node">
<title>Node4</title>
<g id="a_Node000004"><a xlink:href="../../d3/d4f/STLLoader_8cpp.html#a4725c4c7e7199370f6166982f2e9bdec" target="_top" xlink:title=" ">
<polygon fill="white" stroke="#666666" points="231,-93 157,-93 157,-74 231,-74 231,-93"/>
<text text-anchor="middle" x="194" y="-81" font-family="Helvetica,sans-Serif" font-size="10.00">isBinarySTL</text>
</a>
</g>
</g>
<!-- Node1&#45;&gt;Node4 -->
<g id="edge3_Node000001_Node000004" class="edge">
<title>Node1&#45;&gt;Node4</title>
<g id="a_edge3_Node000001_Node000004"><a xlink:title=" ">
<path fill="none" stroke="#63b8ff" d="M121.09,-73.11C129.79,-74.37 138.63,-75.64 147,-76.85"/>
<polygon fill="#63b8ff" stroke="#63b8ff" points="146.54,-80.32 156.94,-78.29 147.54,-73.4 146.54,-80.32"/>
</a>
</g>
</g>
<!-- Node5 -->
<g id="Node000005" class="node">
<title>Node5</title>
<g id="a_Node000005"><a xlink:href="../../d3/d4f/STLLoader_8cpp.html#aedb3ca3b691f29fb2d3a60286145b590" target="_top" xlink:title=" ">
<polygon fill="white" stroke="#666666" points="224.5,-56 163.5,-56 163.5,-37 224.5,-37 224.5,-56"/>
<text text-anchor="middle" x="194" y="-44" font-family="Helvetica,sans-Serif" font-size="10.00">loadAscii</text>
</a>
</g>
</g>
<!-- Node1&#45;&gt;Node5 -->
<g id="edge4_Node000001_Node000005" class="edge">
<title>Node1&#45;&gt;Node5</title>
<g id="a_edge4_Node000001_Node000005"><a xlink:title=" ">
<path fill="none" stroke="#63b8ff" d="M121.09,-56.34C131.99,-54.85 143.11,-53.33 153.25,-51.94"/>
<polygon fill="#63b8ff" stroke="#63b8ff" points="153.97,-55.37 163.41,-50.55 153.02,-48.44 153.97,-55.37"/>
</a>
</g>
</g>
<!-- Node7 -->
<g id="Node000007" class="node">
<title>Node7</title>
<g id="a_Node000007"><a xlink:href="../../d3/d4f/STLLoader_8cpp.html#a63d46669c1a2d0e4dfd860e64595857a" target="_top" xlink:title=" ">
<polygon fill="white" stroke="#666666" points="228.5,-19 159.5,-19 159.5,0 228.5,0 228.5,-19"/>
<text text-anchor="middle" x="194" y="-7" font-family="Helvetica,sans-Serif" font-size="10.00">loadBinary</text>
</a>
</g>
</g>
<!-- Node1&#45;&gt;Node7 -->
<g id="edge6_Node000001_Node000007" class="edge">
<title>Node1&#45;&gt;Node7</title>
<g id="a_edge6_Node000001_Node000007"><a xlink:title=" ">
<path fill="none" stroke="#63b8ff" d="M97.43,-49.47C117.12,-41.24 141.33,-31.11 160.46,-23.11"/>
<polygon fill="#63b8ff" stroke="#63b8ff" points="162.07,-26.23 169.94,-19.14 159.37,-19.77 162.07,-26.23"/>
</a>
</g>
</g>
<!-- Node3 -->
<g id="Node000003" class="node">
<title>Node3</title>
<g id="a_Node000003"><a xlink:href="../../d3/d4f/STLLoader_8cpp.html#a66a2f6a6ed1624e39cd0454e6727e3a6" target="_top" xlink:title=" ">
<polygon fill="white" stroke="#666666" points="393,-130 300,-130 300,-111 393,-111 393,-130"/>
<text text-anchor="middle" x="346.5" y="-118" font-family="Helvetica,sans-Serif" font-size="10.00">calculateCenter</text>
</a>
</g>
</g>
<!-- Node2&#45;&gt;Node3 -->
<g id="edge2_Node000002_Node000003" class="edge">
<title>Node2&#45;&gt;Node3</title>
<g id="a_edge2_Node000002_Node000003"><a xlink:title=" ">
<path fill="none" stroke="#63b8ff" d="M231.05,-120.5C248.6,-120.5 270.1,-120.5 289.7,-120.5"/>
<polygon fill="#63b8ff" stroke="#63b8ff" points="289.75,-124 299.75,-120.5 289.75,-117 289.75,-124"/>
</a>
</g>
</g>
<!-- Node6 -->
<g id="Node000006" class="node">
<title>Node6</title>
<g id="a_Node000006"><a xlink:href="../../d7/de3/classRayTracer_1_1Mesh.html#a22fcc813861fb709fda744f825b7d641" target="_top" xlink:title="Append a triangle to the mesh.">
<polygon fill="white" stroke="#666666" points="426,-38 267,-38 267,-19 426,-19 426,-38"/>
<text text-anchor="middle" x="346.5" y="-26" font-family="Helvetica,sans-Serif" font-size="10.00">RayTracer::Mesh::addTriangle</text>
</a>
</g>
</g>
<!-- Node5&#45;&gt;Node6 -->
<g id="edge5_Node000005_Node000006" class="edge">
<title>Node5&#45;&gt;Node6</title>
<g id="a_edge5_Node000005_Node000006"><a xlink:title=" ">
<path fill="none" stroke="#63b8ff" d="M224.73,-42.94C234.21,-41.81 245.23,-40.49 256.68,-39.12"/>
<polygon fill="#63b8ff" stroke="#63b8ff" points="257.31,-42.57 266.82,-37.91 256.48,-35.62 257.31,-42.57"/>
</a>
</g>
</g>
<!-- Node7&#45;&gt;Node6 -->
<g id="edge7_Node000007_Node000006" class="edge">
<title>Node7&#45;&gt;Node6</title>
<g id="a_edge7_Node000007_Node000006"><a xlink:title=" ">
<path fill="none" stroke="#63b8ff" d="M228.78,-13.76C238.2,-14.95 248.88,-16.3 259.87,-17.69"/>
<polygon fill="#63b8ff" stroke="#63b8ff" points="259.65,-21.19 270.01,-18.97 260.53,-14.24 259.65,-21.19"/>
</a>
</g>
</g>
</g>
</svg>
