<?xml version="1.0" encoding="UTF-8" standalone="no"?>
<!DOCTYPE svg PUBLIC "-//W3C//DTD SVG 1.1//EN"
 "http://www.w3.org/Graphics/SVG/1.1/DTD/svg11.dtd">
<!-- Generated by graphviz version 2.43.0 (0)
 -->
<!-- Title: RayTracer::HitRecord Pages: 1 -->
<svg width="405pt" height="184pt"
 viewBox="0.00 0.00 405.00 184.00" xmlns="http://www.w3.org/2000/svg" xmlns:xlink="http://www.w3.org/1999/xlink">
<g id="graph0" class="graph" transform="scale(1 1) rotate(0) translate(4 180)">
<title>RayTracer::HitRecord</title>
<!-- Node1 -->
<g id="Node000001" class="node">
<title>Node1</title>
<g id="a_Node000001"><a xlink:title=" ">
<polygon fill="#999999" stroke="#666666" points="216.5,-19 97.5,-19 97.5,0 216.5,0 216.5,-19"/>
<text text-anchor="middle" x="157" y="-7" font-family="Helvetica,sans-Serif" font-size="10.00">RayTracer::HitRecord</text>
</a>
</g>
</g>
<!-- Node2 -->
<g id="Node000002" class="node">
<title>Node2</title>
<g id="a_Node000002"><a xlink:href="../../db/daa/structMath_1_1Point3D.html" target="_top" xlink:title="Represents a 3D point in Cartesian coordinates.">
<polygon fill="white" stroke="#666666" points="86,-86.5 0,-86.5 0,-67.5 86,-67.5 86,-86.5"/>
<text text-anchor="middle" x="43" y="-74.5" font-family="Helvetica,sans-Serif" font-size="10.00">Math::Point3D</text>
</a>
</g>
</g>
<!-- Node2&#45;&gt;Node1 -->
<g id="edge1_Node000001_Node000002" class="edge">
<title>Node2&#45;&gt;Node1</title>
<g id="a_edge1_Node000001_Node000002"><a xlink:title=" ">
<path fill="none" stroke="#9a32cd" stroke-dasharray="5,2" d="M55.43,-59.6C62.01,-51.85 70.66,-43.01 80,-37 92.37,-29.05 107.39,-23.18 120.88,-19.02"/>
<polygon fill="#9a32cd" stroke="#9a32cd" points="52.7,-57.41 49.16,-67.4 58.15,-61.8 52.7,-57.41"/>
</a>
</g>
<text text-anchor="middle" x="94" y="-40" font-family="Helvetica,sans-Serif" font-size="10.00" fill="grey"> point</text>
</g>
<!-- Node3 -->
<g id="Node000003" class="node">
<title>Node3</title>
<g id="a_Node000003"><a xlink:href="../../d6/d30/structMath_1_1Vector3D.html" target="_top" xlink:title="Represents a 3D vector with real coordinates.">
<polygon fill="white" stroke="#666666" points="184,-176 92,-176 92,-157 184,-157 184,-176"/>
<text text-anchor="middle" x="138" y="-164" font-family="Helvetica,sans-Serif" font-size="10.00">Math::Vector3D</text>
</a>
</g>
</g>
<!-- Node3&#45;&gt;Node1 -->
<g id="edge2_Node000001_Node000003" class="edge">
<title>Node3&#45;&gt;Node1</title>
<g id="a_edge2_Node000001_Node000003"><a xlink:title=" ">
<path fill="none" stroke="#9a32cd" stroke-dasharray="5,2" d="M133.91,-146.85C130.17,-126.69 126.05,-93.71 132,-66 135.77,-48.44 145.56,-29.72 151.71,-19.14"/>
<polygon fill="#9a32cd" stroke="#9a32cd" points="130.52,-147.76 135.93,-156.86 137.38,-146.37 130.52,-147.76"/>
</a>
</g>
<text text-anchor="middle" x="149.5" y="-80" font-family="Helvetica,sans-Serif" font-size="10.00" fill="grey"> color</text>
<text text-anchor="middle" x="149.5" y="-69" font-family="Helvetica,sans-Serif" font-size="10.00" fill="grey">normal</text>
</g>
<!-- Node4 -->
<g id="Node000004" class="node">
<title>Node4</title>
<g id="a_Node000004"><a xlink:href="../../d1/d48/structRayTracer_1_1Material.html" target="_top" xlink:title="Physically&#45;based material parameters.">
<polygon fill="white" stroke="#666666" points="286.5,-86.5 175.5,-86.5 175.5,-67.5 286.5,-67.5 286.5,-86.5"/>
<text text-anchor="middle" x="231" y="-74.5" font-family="Helvetica,sans-Serif" font-size="10.00">RayTracer::Material</text>
</a>
</g>
</g>
<!-- Node3&#45;&gt;Node4 -->
<g id="edge4_Node000004_Node000003" class="edge">
<title>Node3&#45;&gt;Node4</title>
<g id="a_edge4_Node000004_Node000003"><a xlink:title=" ">
<path fill="none" stroke="#9a32cd" stroke-dasharray="5,2" d="M154.59,-149.9C174.2,-131.45 206.14,-101.39 221.78,-86.67"/>
<polygon fill="#9a32cd" stroke="#9a32cd" points="152.14,-147.39 147.26,-156.79 156.94,-152.49 152.14,-147.39"/>
</a>
</g>
<text text-anchor="middle" x="223.5" y="-131" font-family="Helvetica,sans-Serif" font-size="10.00" fill="grey"> albedo</text>
<text text-anchor="middle" x="223.5" y="-120" font-family="Helvetica,sans-Serif" font-size="10.00" fill="grey">emission</text>
<text text-anchor="middle" x="223.5" y="-109" font-family="Helvetica,sans-Serif" font-size="10.00" fill="grey">specular</text>
</g>
<!-- Node4&#45;&gt;Node1 -->
<g id="edge3_Node000001_Node000004" class="edge">
<title>Node4&#45;&gt;Node1</title>
<g id="a_edge3_Node000001_Node000004"><a xlink:title=" ">
<path fill="none" stroke="#9a32cd" stroke-dasharray="5,2" d="M213.52,-60.53C198.99,-47.66 178.81,-29.81 166.91,-19.27"/>
<polygon fill="#9a32cd" stroke="#9a32cd" points="211.52,-63.43 221.33,-67.44 216.16,-58.19 211.52,-63.43"/>
</a>
</g>
<text text-anchor="middle" x="221.5" y="-40" font-family="Helvetica,sans-Serif" font-size="10.00" fill="grey"> material</text>
</g>
<!-- Node5 -->
<g id="Node000005" class="node">
<title>Node5</title>
<g id="a_Node000005"><a xlink:href="../../de/dd8/structMath_1_1Vector2D.html" target="_top" xlink:title="Represents a 2D vector or coordinate pair.">
<polygon fill="white" stroke="#666666" points="397,-86.5 305,-86.5 305,-67.5 397,-67.5 397,-86.5"/>
<text text-anchor="middle" x="351" y="-74.5" font-family="Helvetica,sans-Serif" font-size="10.00">Math::Vector2D</text>
</a>
</g>
</g>
<!-- Node5&#45;&gt;Node1 -->
<g id="edge5_Node000001_Node000005" class="edge">
<title>Node5&#45;&gt;Node1</title>
<g id="a_edge5_Node000001_Node000005"><a xlink:title=" ">
<path fill="none" stroke="#9a32cd" stroke-dasharray="5,2" d="M320.48,-63.72C300.1,-55.7 272.62,-45.23 248,-37 228.49,-30.48 206.34,-24.01 188.78,-19.09"/>
<polygon fill="#9a32cd" stroke="#9a32cd" points="319.28,-67.01 329.87,-67.44 321.86,-60.51 319.28,-67.01"/>
</a>
</g>
<text text-anchor="middle" x="284" y="-40" font-family="Helvetica,sans-Serif" font-size="10.00" fill="grey"> uv</text>
</g>
</g>
</svg>
