<?xml version="1.0" encoding="UTF-8" standalone="no"?>
<!DOCTYPE svg PUBLIC "-//W3C//DTD SVG 1.1//EN"
 "http://www.w3.org/Graphics/SVG/1.1/DTD/svg11.dtd">
<!-- Generated by graphviz version 2.43.0 (0)
 -->
<!-- Title: RayTracer::PointLight Pages: 1 -->
<svg width="214pt" height="149pt"
 viewBox="0.00 0.00 213.50 149.00" xmlns="http://www.w3.org/2000/svg" xmlns:xlink="http://www.w3.org/1999/xlink">
<g id="graph0" class="graph" transform="scale(1 1) rotate(0) translate(4 145)">
<title>RayTracer::PointLight</title>
<!-- Node1 -->
<g id="Node000001" class="node">
<title>Node1</title>
<g id="a_Node000001"><a xlink:title="Emits equally in all directions from a point in space.">
<polygon fill="#999999" stroke="#666666" points="166,-19 47,-19 47,0 166,0 166,-19"/>
<text text-anchor="middle" x="106.5" y="-7" font-family="Helvetica,sans-Serif" font-size="10.00">RayTracer::PointLight</text>
</a>
</g>
</g>
<!-- Node2 -->
<g id="Node000002" class="node">
<title>Node2</title>
<g id="a_Node000002"><a xlink:href="../../df/d0a/classRayTracer_1_1ALight.html" target="_top" xlink:title=" ">
<polygon fill="white" stroke="#666666" points="101,-85 0,-85 0,-66 101,-66 101,-85"/>
<text text-anchor="middle" x="50.5" y="-73" font-family="Helvetica,sans-Serif" font-size="10.00">RayTracer::ALight</text>
</a>
</g>
</g>
<!-- Node2&#45;&gt;Node1 -->
<g id="edge1_Node000001_Node000002" class="edge">
<title>Node2&#45;&gt;Node1</title>
<g id="a_edge1_Node000001_Node000002"><a xlink:title=" ">
<path fill="none" stroke="#63b8ff" d="M64.83,-58.12C75.61,-45.81 89.97,-29.39 98.71,-19.41"/>
<polygon fill="#63b8ff" stroke="#63b8ff" points="62,-56.04 58.05,-65.87 67.27,-60.65 62,-56.04"/>
</a>
</g>
</g>
<!-- Node3 -->
<g id="Node000003" class="node">
<title>Node3</title>
<g id="a_Node000003"><a xlink:href="../../d0/d82/classRayTracer_1_1ILight.html" target="_top" xlink:title="Pure&#45;virtual interface for scene light sources.">
<polygon fill="white" stroke="#666666" points="99.5,-141 1.5,-141 1.5,-122 99.5,-122 99.5,-141"/>
<text text-anchor="middle" x="50.5" y="-129" font-family="Helvetica,sans-Serif" font-size="10.00">RayTracer::ILight</text>
</a>
</g>
</g>
<!-- Node3&#45;&gt;Node2 -->
<g id="edge2_Node000002_Node000003" class="edge">
<title>Node3&#45;&gt;Node2</title>
<g id="a_edge2_Node000002_Node000003"><a xlink:title=" ">
<path fill="none" stroke="#63b8ff" d="M50.5,-111.3C50.5,-102.41 50.5,-92.28 50.5,-85.25"/>
<polygon fill="#63b8ff" stroke="#63b8ff" points="47,-111.58 50.5,-121.58 54,-111.58 47,-111.58"/>
</a>
</g>
</g>
<!-- Node4 -->
<g id="Node000004" class="node">
<title>Node4</title>
<g id="a_Node000004"><a xlink:href="../../db/daa/structMath_1_1Point3D.html" target="_top" xlink:title="Represents a 3D point in Cartesian coordinates.">
<polygon fill="white" stroke="#666666" points="205.5,-85 119.5,-85 119.5,-66 205.5,-66 205.5,-85"/>
<text text-anchor="middle" x="162.5" y="-73" font-family="Helvetica,sans-Serif" font-size="10.00">Math::Point3D</text>
</a>
</g>
</g>
<!-- Node4&#45;&gt;Node1 -->
<g id="edge3_Node000001_Node000004" class="edge">
<title>Node4&#45;&gt;Node1</title>
<g id="a_edge3_Node000001_Node000004"><a xlink:title=" ">
<path fill="none" stroke="#9a32cd" stroke-dasharray="5,2" d="M148.17,-58.12C137.39,-45.81 123.03,-29.39 114.29,-19.41"/>
<polygon fill="#9a32cd" stroke="#9a32cd" points="145.73,-60.65 154.95,-65.87 151,-56.04 145.73,-60.65"/>
</a>
</g>
<text text-anchor="middle" x="150.5" y="-40" font-family="Helvetica,sans-Serif" font-size="10.00" fill="grey"> _pos</text>
</g>
</g>
</svg>
