<?xml version="1.0" encoding="UTF-8" standalone="no"?>
<!DOCTYPE svg PUBLIC "-//W3C//DTD SVG 1.1//EN"
 "http://www.w3.org/Graphics/SVG/1.1/DTD/svg11.dtd">
<!-- Generated by graphviz version 2.43.0 (0)
 -->
<!-- Title: include/rendering/PerlinNoise.hpp Pages: 1 -->
<svg width="479pt" height="148pt"
 viewBox="0.00 0.00 478.50 148.00" xmlns="http://www.w3.org/2000/svg" xmlns:xlink="http://www.w3.org/1999/xlink">
<g id="graph0" class="graph" transform="scale(1 1) rotate(0) translate(4 144)">
<title>include/rendering/PerlinNoise.hpp</title>
<!-- Node1 -->
<g id="Node000001" class="node">
<title>Node1</title>
<g id="a_Node000001"><a xlink:title=" ">
<polygon fill="#999999" stroke="#666666" points="265,-140 133,-140 133,-110 265,-110 265,-140"/>
<text text-anchor="start" x="141" y="-128" font-family="Helvetica,sans-Serif" font-size="10.00">include/rendering/Perlin</text>
<text text-anchor="middle" x="199" y="-117" font-family="Helvetica,sans-Serif" font-size="10.00">Noise.hpp</text>
</a>
</g>
</g>
<!-- Node2 -->
<g id="Node000002" class="node">
<title>Node2</title>
<g id="a_Node000002"><a xlink:href="../../db/d49/NoiseTexture_8hpp.html" target="_top" xlink:title=" ">
<polygon fill="white" stroke="#666666" points="293.5,-74 104.5,-74 104.5,-55 293.5,-55 293.5,-74"/>
<text text-anchor="middle" x="199" y="-62" font-family="Helvetica,sans-Serif" font-size="10.00">include/rendering/NoiseTexture.hpp</text>
</a>
</g>
</g>
<!-- Node1&#45;&gt;Node2 -->
<g id="edge1_Node000001_Node000002" class="edge">
<title>Node1&#45;&gt;Node2</title>
<g id="a_edge1_Node000001_Node000002"><a xlink:title=" ">
<path fill="none" stroke="#63b8ff" d="M199,-99.75C199,-90.72 199,-81.03 199,-74.27"/>
<polygon fill="#63b8ff" stroke="#63b8ff" points="195.5,-99.84 199,-109.84 202.5,-99.84 195.5,-99.84"/>
</a>
</g>
</g>
<!-- Node3 -->
<g id="Node000003" class="node">
<title>Node3</title>
<g id="a_Node000003"><a xlink:href="../../d3/d79/SceneParser_8cpp.html" target="_top" xlink:title="Implements the scene loading system using libconfig for the raytracer engine.">
<polygon fill="white" stroke="#666666" points="152,-19 0,-19 0,0 152,0 152,-19"/>
<text text-anchor="middle" x="76" y="-7" font-family="Helvetica,sans-Serif" font-size="10.00">src/loaders/SceneParser.cpp</text>
</a>
</g>
</g>
<!-- Node1&#45;&gt;Node3 -->
<g id="edge4_Node000001_Node000003" class="edge">
<title>Node1&#45;&gt;Node3</title>
<g id="a_edge4_Node000001_Node000003"><a xlink:title=" ">
<path fill="none" stroke="#63b8ff" d="M139.9,-105.77C123.44,-98.22 106.85,-87.88 95,-74 81.4,-58.07 77.53,-32.7 76.44,-19.36"/>
<polygon fill="#63b8ff" stroke="#63b8ff" points="138.96,-109.18 149.53,-109.9 141.72,-102.74 138.96,-109.18"/>
</a>
</g>
</g>
<!-- Node5 -->
<g id="Node000005" class="node">
<title>Node5</title>
<g id="a_Node000005"><a xlink:href="../../d4/d7d/PerlinNoise_8cpp.html" target="_top" xlink:title=" ">
<polygon fill="white" stroke="#666666" points="470.5,-74 311.5,-74 311.5,-55 470.5,-55 470.5,-74"/>
<text text-anchor="middle" x="391" y="-62" font-family="Helvetica,sans-Serif" font-size="10.00">src/rendering/PerlinNoise.cpp</text>
</a>
</g>
</g>
<!-- Node1&#45;&gt;Node5 -->
<g id="edge5_Node000001_Node000005" class="edge">
<title>Node1&#45;&gt;Node5</title>
<g id="a_edge5_Node000001_Node000005"><a xlink:title=" ">
<path fill="none" stroke="#63b8ff" d="M254.74,-107.02C290.21,-96.21 334.64,-82.67 362.93,-74.05"/>
<polygon fill="#63b8ff" stroke="#63b8ff" points="253.53,-103.73 244.99,-109.99 255.57,-110.42 253.53,-103.73"/>
</a>
</g>
</g>
<!-- Node2&#45;&gt;Node3 -->
<g id="edge2_Node000002_Node000003" class="edge">
<title>Node2&#45;&gt;Node3</title>
<g id="a_edge2_Node000002_Node000003"><a xlink:title=" ">
<path fill="none" stroke="#63b8ff" d="M169.75,-50.9C147.03,-41.11 116.13,-27.79 96.12,-19.17"/>
<polygon fill="#63b8ff" stroke="#63b8ff" points="168.67,-54.24 179.24,-54.98 171.44,-47.81 168.67,-54.24"/>
</a>
</g>
</g>
<!-- Node4 -->
<g id="Node000004" class="node">
<title>Node4</title>
<g id="a_Node000004"><a xlink:href="../../d0/d66/NoiseTexture_8cpp.html" target="_top" xlink:title=" ">
<polygon fill="white" stroke="#666666" points="337.5,-19 170.5,-19 170.5,0 337.5,0 337.5,-19"/>
<text text-anchor="middle" x="254" y="-7" font-family="Helvetica,sans-Serif" font-size="10.00">src/rendering/NoiseTexture.cpp</text>
</a>
</g>
</g>
<!-- Node2&#45;&gt;Node4 -->
<g id="edge3_Node000002_Node000004" class="edge">
<title>Node2&#45;&gt;Node4</title>
<g id="a_edge3_Node000002_Node000004"><a xlink:title=" ">
<path fill="none" stroke="#63b8ff" d="M215.29,-47.8C225.04,-38.41 237.05,-26.83 245.09,-19.09"/>
<polygon fill="#63b8ff" stroke="#63b8ff" points="212.85,-45.29 208.08,-54.75 217.71,-50.33 212.85,-45.29"/>
</a>
</g>
</g>
</g>
</svg>
