<?xml version="1.0" encoding="UTF-8" standalone="no"?>
<!DOCTYPE svg PUBLIC "-//W3C//DTD SVG 1.1//EN"
 "http://www.w3.org/Graphics/SVG/1.1/DTD/svg11.dtd">
<!-- Generated by graphviz version 2.43.0 (0)
 -->
<!-- Title: src Pages: 1 -->
<svg width="448pt" height="98pt"
 viewBox="0.00 0.00 448.00 98.00" xmlns="http://www.w3.org/2000/svg" xmlns:xlink="http://www.w3.org/1999/xlink">
<g id="graph0" class="graph" transform="scale(1 1) rotate(0) translate(4 94)">
<title>src</title>
<g id="clust1" class="cluster">
<title>clusterdir_68267d1309a1af8e8297ef4c3efbcdba</title>
<g id="a_clust1"><a xlink:href="dir_68267d1309a1af8e8297ef4c3efbcdba.html" target="_top">
<polygon fill="#edf0f7" stroke="#404040" stroke-width="2" points="8,-47 8,-82 432,-82 432,-47 8,-47"/>
</a>
</g>
</g>
<!-- dir_68267d1309a1af8e8297ef4c3efbcdba -->
<g id="node1" class="node">
<title>dir_68267d1309a1af8e8297ef4c3efbcdba</title>
<text text-anchor="middle" x="408" y="-62" font-family="Helvetica,sans-Serif" font-size="10.00">src</text>
</g>
<!-- dir_aebb8dcc11953d78e620bbef0b9e2183 -->
<g id="node2" class="node">
<title>dir_aebb8dcc11953d78e620bbef0b9e2183</title>
<g id="a_node2"><a xlink:href="dir_aebb8dcc11953d78e620bbef0b9e2183.html" target="_top" xlink:title="core">
<polygon fill="#a2b4d6" stroke="#404040" points="374,-74 336,-74 336,-55 374,-55 374,-74"/>
<text text-anchor="middle" x="355" y="-62" font-family="Helvetica,sans-Serif" font-size="10.00">core</text>
</a>
</g>
</g>
<!-- dir_d44c64559bbebec7f509842c48db8b23 -->
<g id="node7" class="node">
<title>dir_d44c64559bbebec7f509842c48db8b23</title>
<g id="a_node7"><a xlink:href="dir_d44c64559bbebec7f509842c48db8b23.html" target="_top" xlink:title="include">
<polygon fill="#edf0f7" stroke="red" points="235,-19 183,-19 183,0 235,0 235,-19"/>
<text text-anchor="middle" x="209" y="-7" font-family="Helvetica,sans-Serif" font-size="10.00">include</text>
</a>
</g>
</g>
<!-- dir_aebb8dcc11953d78e620bbef0b9e2183&#45;&gt;dir_d44c64559bbebec7f509842c48db8b23 -->
<g id="edge1" class="edge">
<title>dir_aebb8dcc11953d78e620bbef0b9e2183&#45;&gt;dir_d44c64559bbebec7f509842c48db8b23</title>
<g id="a_edge1"><a xlink:href="dir_000001_000004.html" target="_top">
<path fill="none" stroke="#63b8ff" d="M341.95,-54.96C337.35,-52.18 332.06,-49.24 327,-47 300.4,-35.24 268.87,-25.7 245.09,-19.32"/>
<polygon fill="#63b8ff" stroke="#63b8ff" points="245.97,-15.93 235.41,-16.79 244.2,-22.71 245.97,-15.93"/>
</a>
</g>
<g id="a_edge1&#45;headlabel"><a xlink:href="dir_000001_000004.html" target="_top" xlink:title="13">
<text text-anchor="middle" x="250.17" y="-11.6" font-family="Helvetica,sans-Serif" font-size="10.00" fill="#63b8ff">13</text>
</a>
</g>
</g>
<!-- dir_8488b095f33b8c174fde1ad95a59532c -->
<g id="node3" class="node">
<title>dir_8488b095f33b8c174fde1ad95a59532c</title>
<g id="a_node3"><a xlink:href="dir_8488b095f33b8c174fde1ad95a59532c.html" target="_top" xlink:title="geoTransf">
<polygon fill="#a2b4d6" stroke="#404040" points="318,-74 254,-74 254,-55 318,-55 318,-74"/>
<text text-anchor="middle" x="286" y="-62" font-family="Helvetica,sans-Serif" font-size="10.00">geoTransf</text>
</a>
</g>
</g>
<!-- dir_8488b095f33b8c174fde1ad95a59532c&#45;&gt;dir_d44c64559bbebec7f509842c48db8b23 -->
<g id="edge2" class="edge">
<title>dir_8488b095f33b8c174fde1ad95a59532c&#45;&gt;dir_d44c64559bbebec7f509842c48db8b23</title>
<g id="a_edge2"><a xlink:href="dir_000003_000004.html" target="_top">
<path fill="none" stroke="#63b8ff" d="M273.63,-54.98C261.91,-46.92 244.08,-34.65 230.11,-25.03"/>
<polygon fill="#63b8ff" stroke="#63b8ff" points="231.82,-21.96 221.6,-19.17 227.85,-27.72 231.82,-21.96"/>
</a>
</g>
<g id="a_edge2&#45;headlabel"><a xlink:href="dir_000003_000004.html" target="_top" xlink:title="3">
<text text-anchor="middle" x="236.39" y="-19.16" font-family="Helvetica,sans-Serif" font-size="10.00" fill="#63b8ff">3</text>
</a>
</g>
</g>
<!-- dir_89d1d1577d9ec970dcea336ea8223af4 -->
<g id="node4" class="node">
<title>dir_89d1d1577d9ec970dcea336ea8223af4</title>
<g id="a_node4"><a xlink:href="dir_89d1d1577d9ec970dcea336ea8223af4.html" target="_top" xlink:title="loaders">
<polygon fill="#a2b4d6" stroke="#404040" points="235.5,-74 182.5,-74 182.5,-55 235.5,-55 235.5,-74"/>
<text text-anchor="middle" x="209" y="-62" font-family="Helvetica,sans-Serif" font-size="10.00">loaders</text>
</a>
</g>
</g>
<!-- dir_89d1d1577d9ec970dcea336ea8223af4&#45;&gt;dir_d44c64559bbebec7f509842c48db8b23 -->
<g id="edge3" class="edge">
<title>dir_89d1d1577d9ec970dcea336ea8223af4&#45;&gt;dir_d44c64559bbebec7f509842c48db8b23</title>
<g id="a_edge3"><a xlink:href="dir_000006_000004.html" target="_top">
<path fill="none" stroke="#63b8ff" d="M209,-54.75C209,-47.8 209,-37.85 209,-29.13"/>
<polygon fill="#63b8ff" stroke="#63b8ff" points="212.5,-29.09 209,-19.09 205.5,-29.09 212.5,-29.09"/>
</a>
</g>
<g id="a_edge3&#45;headlabel"><a xlink:href="dir_000006_000004.html" target="_top" xlink:title="28">
<text text-anchor="middle" x="215.34" y="-30.18" font-family="Helvetica,sans-Serif" font-size="10.00" fill="#63b8ff">28</text>
</a>
</g>
</g>
<!-- dir_bbf56bce9985720f86fc476f3812db24 -->
<g id="node5" class="node">
<title>dir_bbf56bce9985720f86fc476f3812db24</title>
<g id="a_node5"><a xlink:href="dir_bbf56bce9985720f86fc476f3812db24.html" target="_top" xlink:title="primitives">
<polygon fill="#a2b4d6" stroke="#404040" points="164,-74 98,-74 98,-55 164,-55 164,-74"/>
<text text-anchor="middle" x="131" y="-62" font-family="Helvetica,sans-Serif" font-size="10.00">primitives</text>
</a>
</g>
</g>
<!-- dir_bbf56bce9985720f86fc476f3812db24&#45;&gt;dir_d44c64559bbebec7f509842c48db8b23 -->
<g id="edge4" class="edge">
<title>dir_bbf56bce9985720f86fc476f3812db24&#45;&gt;dir_d44c64559bbebec7f509842c48db8b23</title>
<g id="a_edge4"><a xlink:href="dir_000008_000004.html" target="_top">
<path fill="none" stroke="#63b8ff" d="M143.53,-54.98C155.4,-46.92 173.46,-34.65 187.61,-25.03"/>
<polygon fill="#63b8ff" stroke="#63b8ff" points="189.94,-27.69 196.24,-19.17 186,-21.9 189.94,-27.69"/>
</a>
</g>
<g id="a_edge4&#45;headlabel"><a xlink:href="dir_000008_000004.html" target="_top" xlink:title="12">
<text text-anchor="middle" x="188.56" y="-29.55" font-family="Helvetica,sans-Serif" font-size="10.00" fill="#63b8ff">12</text>
</a>
</g>
</g>
<!-- dir_1243271318b2b38807a3b1d2ca08dd72 -->
<g id="node6" class="node">
<title>dir_1243271318b2b38807a3b1d2ca08dd72</title>
<g id="a_node6"><a xlink:href="dir_1243271318b2b38807a3b1d2ca08dd72.html" target="_top" xlink:title="rendering">
<polygon fill="#a2b4d6" stroke="#404040" points="79.5,-74 16.5,-74 16.5,-55 79.5,-55 79.5,-74"/>
<text text-anchor="middle" x="48" y="-62" font-family="Helvetica,sans-Serif" font-size="10.00">rendering</text>
</a>
</g>
</g>
<!-- dir_1243271318b2b38807a3b1d2ca08dd72&#45;&gt;dir_d44c64559bbebec7f509842c48db8b23 -->
<g id="edge5" class="edge">
<title>dir_1243271318b2b38807a3b1d2ca08dd72&#45;&gt;dir_d44c64559bbebec7f509842c48db8b23</title>
<g id="a_edge5"><a xlink:href="dir_000010_000004.html" target="_top">
<path fill="none" stroke="#63b8ff" d="M68.3,-54.92C74.86,-52.26 82.2,-49.4 89,-47 116.85,-37.18 148.87,-27.52 172.83,-20.61"/>
<polygon fill="#63b8ff" stroke="#63b8ff" points="173.92,-23.94 182.57,-17.82 171.99,-17.21 173.92,-23.94"/>
</a>
</g>
<g id="a_edge5&#45;headlabel"><a xlink:href="dir_000010_000004.html" target="_top" xlink:title="17">
<text text-anchor="middle" x="171.24" y="-25.16" font-family="Helvetica,sans-Serif" font-size="10.00" fill="#63b8ff">17</text>
</a>
</g>
</g>
</g>
</svg>
