<?xml version="1.0" encoding="UTF-8" standalone="no"?>
<!DOCTYPE svg PUBLIC "-//W3C//DTD SVG 1.1//EN"
 "http://www.w3.org/Graphics/SVG/1.1/DTD/svg11.dtd">
<!-- Generated by graphviz version 2.43.0 (0)
 -->
<!-- Title: include Pages: 1 -->
<svg width="174pt" height="279pt"
 viewBox="0.00 0.00 174.00 279.00" xmlns="http://www.w3.org/2000/svg" xmlns:xlink="http://www.w3.org/1999/xlink">
<g id="graph0" class="graph" transform="scale(1 1) rotate(0) translate(4 275)">
<title>include</title>
<g id="clust1" class="cluster">
<title>clusterdir_d44c64559bbebec7f509842c48db8b23</title>
<g id="a_clust1"><a xlink:href="dir_d44c64559bbebec7f509842c48db8b23.html" target="_top">
<polygon fill="#edf0f7" stroke="#404040" stroke-width="2" points="8,-8 8,-263 158,-263 158,-8 8,-8"/>
</a>
</g>
</g>
<!-- dir_d44c64559bbebec7f509842c48db8b23 -->
<g id="node1" class="node">
<title>dir_d44c64559bbebec7f509842c48db8b23</title>
<text text-anchor="middle" x="124" y="-243" font-family="Helvetica,sans-Serif" font-size="10.00">include</text>
</g>
<!-- dir_3d69f64eaf81436fe2b22361382717e5 -->
<g id="node2" class="node">
<title>dir_3d69f64eaf81436fe2b22361382717e5</title>
<g id="a_node2"><a xlink:href="dir_3d69f64eaf81436fe2b22361382717e5.html" target="_top" xlink:title="core">
<polygon fill="#a2b4d6" stroke="#404040" points="61,-200 23,-200 23,-181 61,-181 61,-200"/>
<text text-anchor="middle" x="42" y="-188" font-family="Helvetica,sans-Serif" font-size="10.00">core</text>
</a>
</g>
</g>
<!-- dir_0b3e70609fdbd05e10b8724bd0a67d69 -->
<g id="node4" class="node">
<title>dir_0b3e70609fdbd05e10b8724bd0a67d69</title>
<g id="a_node4"><a xlink:href="dir_0b3e70609fdbd05e10b8724bd0a67d69.html" target="_top" xlink:title="loaders">
<polygon fill="#a2b4d6" stroke="#404040" points="114.5,-145 61.5,-145 61.5,-126 114.5,-126 114.5,-145"/>
<text text-anchor="middle" x="88" y="-133" font-family="Helvetica,sans-Serif" font-size="10.00">loaders</text>
</a>
</g>
</g>
<!-- dir_3d69f64eaf81436fe2b22361382717e5&#45;&gt;dir_0b3e70609fdbd05e10b8724bd0a67d69 -->
<g id="edge1" class="edge">
<title>dir_3d69f64eaf81436fe2b22361382717e5&#45;&gt;dir_0b3e70609fdbd05e10b8724bd0a67d69</title>
<g id="a_edge1"><a xlink:href="dir_000000_000005.html" target="_top">
<path fill="none" stroke="#63b8ff" d="M49.6,-180.75C56.16,-173.18 65.82,-162.05 73.81,-152.84"/>
<polygon fill="#63b8ff" stroke="#63b8ff" points="76.63,-154.94 80.55,-145.09 71.35,-150.35 76.63,-154.94"/>
</a>
</g>
<g id="a_edge1&#45;headlabel"><a xlink:href="dir_000000_000005.html" target="_top" xlink:title="1">
<text text-anchor="middle" x="76.42" y="-157.01" font-family="Helvetica,sans-Serif" font-size="10.00" fill="#63b8ff">1</text>
</a>
</g>
</g>
<!-- dir_27636f4d4b2113f82b513d65146ca471 -->
<g id="node6" class="node">
<title>dir_27636f4d4b2113f82b513d65146ca471</title>
<g id="a_node6"><a xlink:href="dir_27636f4d4b2113f82b513d65146ca471.html" target="_top" xlink:title="rendering">
<polygon fill="#a2b4d6" stroke="#404040" points="104.5,-90 41.5,-90 41.5,-71 104.5,-71 104.5,-90"/>
<text text-anchor="middle" x="73" y="-78" font-family="Helvetica,sans-Serif" font-size="10.00">rendering</text>
</a>
</g>
</g>
<!-- dir_3d69f64eaf81436fe2b22361382717e5&#45;&gt;dir_27636f4d4b2113f82b513d65146ca471 -->
<g id="edge2" class="edge">
<title>dir_3d69f64eaf81436fe2b22361382717e5&#45;&gt;dir_27636f4d4b2113f82b513d65146ca471</title>
<g id="a_edge2"><a xlink:href="dir_000000_000009.html" target="_top">
<path fill="none" stroke="#63b8ff" d="M36.84,-180.71C35.13,-168.3 38.17,-145.04 44,-126 46.85,-116.69 51.18,-106.76 55.89,-98.65"/>
<polygon fill="#63b8ff" stroke="#63b8ff" points="58.94,-100.38 61.54,-90.11 53.1,-96.52 58.94,-100.38"/>
</a>
</g>
<g id="a_edge2&#45;headlabel"><a xlink:href="dir_000000_000009.html" target="_top" xlink:title="8">
<text text-anchor="middle" x="59.33" y="-102.45" font-family="Helvetica,sans-Serif" font-size="10.00" fill="#63b8ff">8</text>
</a>
</g>
</g>
<!-- dir_e1f2f10ddb0e6061fb2dc8ec2715d208 -->
<g id="node3" class="node">
<title>dir_e1f2f10ddb0e6061fb2dc8ec2715d208</title>
<g id="a_node3"><a xlink:href="dir_e1f2f10ddb0e6061fb2dc8ec2715d208.html" target="_top" xlink:title="geoTransf">
<polygon fill="#a2b4d6" stroke="#404040" points="80,-255 16,-255 16,-236 80,-236 80,-255"/>
<text text-anchor="middle" x="48" y="-243" font-family="Helvetica,sans-Serif" font-size="10.00">geoTransf</text>
</a>
</g>
</g>
<!-- dir_e1f2f10ddb0e6061fb2dc8ec2715d208&#45;&gt;dir_3d69f64eaf81436fe2b22361382717e5 -->
<g id="edge4" class="edge">
<title>dir_e1f2f10ddb0e6061fb2dc8ec2715d208&#45;&gt;dir_3d69f64eaf81436fe2b22361382717e5</title>
<g id="a_edge4"><a xlink:href="dir_000002_000000.html" target="_top">
<path fill="none" stroke="#63b8ff" d="M47.01,-235.75C46.22,-228.8 45.1,-218.85 44.11,-210.13"/>
<polygon fill="#63b8ff" stroke="#63b8ff" points="47.58,-209.63 42.97,-200.09 40.62,-210.42 47.58,-209.63"/>
</a>
</g>
<g id="a_edge4&#45;headlabel"><a xlink:href="dir_000002_000000.html" target="_top" xlink:title="3">
<text text-anchor="middle" x="50.8" y="-210.38" font-family="Helvetica,sans-Serif" font-size="10.00" fill="#63b8ff">3</text>
</a>
</g>
</g>
<!-- dir_e1f2f10ddb0e6061fb2dc8ec2715d208&#45;&gt;dir_27636f4d4b2113f82b513d65146ca471 -->
<g id="edge3" class="edge">
<title>dir_e1f2f10ddb0e6061fb2dc8ec2715d208&#45;&gt;dir_27636f4d4b2113f82b513d65146ca471</title>
<g id="a_edge3"><a xlink:href="dir_000002_000009.html" target="_top">
<path fill="none" stroke="#63b8ff" d="M57.91,-235.87C75.31,-219.98 110.77,-184.12 124,-145 126.71,-137 127.49,-133.69 124,-126 118.38,-113.63 107.43,-103.36 97.11,-95.81"/>
<polygon fill="#63b8ff" stroke="#63b8ff" points="98.97,-92.84 88.73,-90.12 95.04,-98.63 98.97,-92.84"/>
</a>
</g>
<g id="a_edge3&#45;headlabel"><a xlink:href="dir_000002_000009.html" target="_top" xlink:title="3">
<text text-anchor="middle" x="103.54" y="-90.01" font-family="Helvetica,sans-Serif" font-size="10.00" fill="#63b8ff">3</text>
</a>
</g>
</g>
<!-- dir_0b3e70609fdbd05e10b8724bd0a67d69&#45;&gt;dir_27636f4d4b2113f82b513d65146ca471 -->
<g id="edge5" class="edge">
<title>dir_0b3e70609fdbd05e10b8724bd0a67d69&#45;&gt;dir_27636f4d4b2113f82b513d65146ca471</title>
<g id="a_edge5"><a xlink:href="dir_000005_000009.html" target="_top">
<path fill="none" stroke="#63b8ff" d="M85.52,-125.75C83.54,-118.72 80.68,-108.62 78.19,-99.84"/>
<polygon fill="#63b8ff" stroke="#63b8ff" points="81.52,-98.76 75.43,-90.09 74.79,-100.66 81.52,-98.76"/>
</a>
</g>
<g id="a_edge5&#45;headlabel"><a xlink:href="dir_000005_000009.html" target="_top" xlink:title="2">
<text text-anchor="middle" x="85.23" y="-98.94" font-family="Helvetica,sans-Serif" font-size="10.00" fill="#63b8ff">2</text>
</a>
</g>
</g>
<!-- dir_fd4d8f4611cba400d56daa73e6003af6 -->
<g id="node5" class="node">
<title>dir_fd4d8f4611cba400d56daa73e6003af6</title>
<g id="a_node5"><a xlink:href="dir_fd4d8f4611cba400d56daa73e6003af6.html" target="_top" xlink:title="primitives">
<polygon fill="#a2b4d6" stroke="#404040" points="106,-35 40,-35 40,-16 106,-16 106,-35"/>
<text text-anchor="middle" x="73" y="-23" font-family="Helvetica,sans-Serif" font-size="10.00">primitives</text>
</a>
</g>
</g>
<!-- dir_fd4d8f4611cba400d56daa73e6003af6&#45;&gt;dir_3d69f64eaf81436fe2b22361382717e5 -->
<g id="edge7" class="edge">
<title>dir_fd4d8f4611cba400d56daa73e6003af6&#45;&gt;dir_3d69f64eaf81436fe2b22361382717e5</title>
<g id="a_edge7"><a xlink:href="dir_000007_000000.html" target="_top">
<path fill="none" stroke="#63b8ff" d="M61.07,-35.2C51.17,-43.23 37.81,-56.13 32,-71 18.91,-104.52 28.28,-147.33 35.6,-171.24"/>
<polygon fill="#63b8ff" stroke="#63b8ff" points="32.29,-172.38 38.72,-180.79 38.94,-170.2 32.29,-172.38"/>
</a>
</g>
<g id="a_edge7&#45;headlabel"><a xlink:href="dir_000007_000000.html" target="_top" xlink:title="46">
<text text-anchor="middle" x="28.47" y="-167.35" font-family="Helvetica,sans-Serif" font-size="10.00" fill="#63b8ff">46</text>
</a>
</g>
</g>
<!-- dir_fd4d8f4611cba400d56daa73e6003af6&#45;&gt;dir_27636f4d4b2113f82b513d65146ca471 -->
<g id="edge6" class="edge">
<title>dir_fd4d8f4611cba400d56daa73e6003af6&#45;&gt;dir_27636f4d4b2113f82b513d65146ca471</title>
<g id="a_edge6"><a xlink:href="dir_000007_000009.html" target="_top">
<path fill="none" stroke="#63b8ff" d="M78.13,-35.09C79.64,-41.99 80.09,-51.93 79.49,-60.66"/>
<polygon fill="#63b8ff" stroke="#63b8ff" points="76,-60.38 78.17,-70.75 82.94,-61.29 76,-60.38"/>
</a>
</g>
<g id="a_edge6&#45;headlabel"><a xlink:href="dir_000007_000009.html" target="_top" xlink:title="19">
<text text-anchor="middle" x="73.65" y="-53.94" font-family="Helvetica,sans-Serif" font-size="10.00" fill="#63b8ff">19</text>
</a>
</g>
</g>
<!-- dir_27636f4d4b2113f82b513d65146ca471&#45;&gt;dir_3d69f64eaf81436fe2b22361382717e5 -->
<g id="edge8" class="edge">
<title>dir_27636f4d4b2113f82b513d65146ca471&#45;&gt;dir_3d69f64eaf81436fe2b22361382717e5</title>
<g id="a_edge8"><a xlink:href="dir_000009_000000.html" target="_top">
<path fill="none" stroke="#63b8ff" d="M75.15,-90.11C72.79,-98.9 65.97,-113.04 62,-126 57.49,-140.73 54.65,-157.98 51.59,-170.78"/>
<polygon fill="#63b8ff" stroke="#63b8ff" points="48.13,-170.14 48.79,-180.71 54.87,-172.03 48.13,-170.14"/>
</a>
</g>
<g id="a_edge8&#45;headlabel"><a xlink:href="dir_000009_000000.html" target="_top" xlink:title="21">
<text text-anchor="middle" x="46.38" y="-163.41" font-family="Helvetica,sans-Serif" font-size="10.00" fill="#63b8ff">21</text>
</a>
</g>
</g>
<!-- dir_27636f4d4b2113f82b513d65146ca471&#45;&gt;dir_fd4d8f4611cba400d56daa73e6003af6 -->
<g id="edge9" class="edge">
<title>dir_27636f4d4b2113f82b513d65146ca471&#45;&gt;dir_fd4d8f4611cba400d56daa73e6003af6</title>
<g id="a_edge9"><a xlink:href="dir_000009_000007.html" target="_top">
<path fill="none" stroke="#63b8ff" d="M67.83,-70.75C66.34,-63.8 65.9,-53.85 66.52,-45.13"/>
<polygon fill="#63b8ff" stroke="#63b8ff" points="70.01,-45.47 67.87,-35.09 63.07,-44.53 70.01,-45.47"/>
</a>
</g>
<g id="a_edge9&#45;headlabel"><a xlink:href="dir_000009_000007.html" target="_top" xlink:title="2">
<text text-anchor="middle" x="72.34" y="-46.91" font-family="Helvetica,sans-Serif" font-size="10.00" fill="#63b8ff">2</text>
</a>
</g>
</g>
</g>
</svg>
