<?xml version="1.0" encoding="UTF-8" standalone="no"?>
<!DOCTYPE svg PUBLIC "-//W3C//DTD SVG 1.1//EN"
 "http://www.w3.org/Graphics/SVG/1.1/DTD/svg11.dtd">
<!-- Generated by graphviz version 2.43.0 (0)
 -->
<!-- Title: Graphical Class Hierarchy Pages: 1 -->
<svg width="297pt" height="101pt"
 viewBox="0.00 0.00 297.00 101.00" xmlns="http://www.w3.org/2000/svg" xmlns:xlink="http://www.w3.org/1999/xlink">
<g id="graph0" class="graph" transform="scale(1 1) rotate(0) translate(4 97)">
<title>Graphical Class Hierarchy</title>
<!-- Node0 -->
<g id="Node000000" class="node">
<title>Node0</title>
<g id="a_Node000000"><a xlink:href="d8/da7/structRayTracer_1_1Texture.html" target="_top" xlink:title="Abstract interface for UV&#45;mapped colour sources.">
<polygon fill="white" stroke="#666666" points="107,-56 0,-56 0,-37 107,-37 107,-56"/>
<text text-anchor="middle" x="53.5" y="-44" font-family="Helvetica,sans-Serif" font-size="10.00">RayTracer::Texture</text>
</a>
</g>
</g>
<!-- Node1 -->
<g id="Node000001" class="node">
<title>Node1</title>
<g id="a_Node000001"><a xlink:href="d3/d8d/classRayTracer_1_1CheckerTexture.html" target="_top" xlink:title="Procedural checkerboard pattern.">
<polygon fill="white" stroke="#666666" points="289,-93 143,-93 143,-74 289,-74 289,-93"/>
<text text-anchor="middle" x="216" y="-81" font-family="Helvetica,sans-Serif" font-size="10.00">RayTracer::CheckerTexture</text>
</a>
</g>
</g>
<!-- Node0&#45;&gt;Node1 -->
<g id="edge20_Node000000_Node000001" class="edge">
<title>Node0&#45;&gt;Node1</title>
<g id="a_edge20_Node000000_Node000001"><a xlink:title=" ">
<path fill="none" stroke="#63b8ff" d="M105.64,-58.29C127.55,-63.34 152.81,-69.16 173.53,-73.94"/>
<polygon fill="#63b8ff" stroke="#63b8ff" points="106.36,-54.86 95.83,-56.03 104.79,-61.69 106.36,-54.86"/>
</a>
</g>
</g>
<!-- Node2 -->
<g id="Node000002" class="node">
<title>Node2</title>
<g id="a_Node000002"><a xlink:href="d1/d6c/classRayTracer_1_1ImageTexture.html" target="_top" xlink:title="Texture backed by an image file.">
<polygon fill="white" stroke="#666666" points="284.5,-56 147.5,-56 147.5,-37 284.5,-37 284.5,-56"/>
<text text-anchor="middle" x="216" y="-44" font-family="Helvetica,sans-Serif" font-size="10.00">RayTracer::ImageTexture</text>
</a>
</g>
</g>
<!-- Node0&#45;&gt;Node2 -->
<g id="edge21_Node000000_Node000002" class="edge">
<title>Node0&#45;&gt;Node2</title>
<g id="a_edge21_Node000000_Node000002"><a xlink:title=" ">
<path fill="none" stroke="#63b8ff" d="M117.21,-46.5C127.12,-46.5 137.4,-46.5 147.41,-46.5"/>
<polygon fill="#63b8ff" stroke="#63b8ff" points="117.05,-43 107.05,-46.5 117.05,-50 117.05,-43"/>
</a>
</g>
</g>
<!-- Node3 -->
<g id="Node000003" class="node">
<title>Node3</title>
<g id="a_Node000003"><a xlink:href="de/d40/classRayTracer_1_1NoiseTexture.html" target="_top" xlink:title=" ">
<polygon fill="white" stroke="#666666" points="283,-19 149,-19 149,0 283,0 283,-19"/>
<text text-anchor="middle" x="216" y="-7" font-family="Helvetica,sans-Serif" font-size="10.00">RayTracer::NoiseTexture</text>
</a>
</g>
</g>
<!-- Node0&#45;&gt;Node3 -->
<g id="edge22_Node000000_Node000003" class="edge">
<title>Node0&#45;&gt;Node3</title>
<g id="a_edge22_Node000000_Node000003"><a xlink:title=" ">
<path fill="none" stroke="#63b8ff" d="M105.64,-34.71C127.55,-29.66 152.81,-23.84 173.53,-19.06"/>
<polygon fill="#63b8ff" stroke="#63b8ff" points="104.79,-31.31 95.83,-36.97 106.36,-38.14 104.79,-31.31"/>
</a>
</g>
</g>
</g>
</svg>
