<?xml version="1.0" encoding="UTF-8" standalone="no"?>
<!DOCTYPE svg PUBLIC "-//W3C//DTD SVG 1.1//EN"
 "http://www.w3.org/Graphics/SVG/1.1/DTD/svg11.dtd">
<!-- Generated by graphviz version 2.43.0 (0)
 -->
<!-- Title: Graphical Class Hierarchy Pages: 1 -->
<svg width="427pt" height="101pt"
 viewBox="0.00 0.00 427.00 101.00" xmlns="http://www.w3.org/2000/svg" xmlns:xlink="http://www.w3.org/1999/xlink">
<g id="graph0" class="graph" transform="scale(1 1) rotate(0) translate(4 97)">
<title>Graphical Class Hierarchy</title>
<!-- Node0 -->
<g id="Node000000" class="node">
<title>Node0</title>
<g id="a_Node000000"><a xlink:href="d0/d82/classRayTracer_1_1ILight.html" target="_top" xlink:title="Pure&#45;virtual interface for scene light sources.">
<polygon fill="white" stroke="#666666" points="98,-56 0,-56 0,-37 98,-37 98,-56"/>
<text text-anchor="middle" x="49" y="-44" font-family="Helvetica,sans-Serif" font-size="10.00">RayTracer::ILight</text>
</a>
</g>
</g>
<!-- Node1 -->
<g id="Node000001" class="node">
<title>Node1</title>
<g id="a_Node000001"><a xlink:href="df/d0a/classRayTracer_1_1ALight.html" target="_top" xlink:title=" ">
<polygon fill="white" stroke="#666666" points="235,-56 134,-56 134,-37 235,-37 235,-56"/>
<text text-anchor="middle" x="184.5" y="-44" font-family="Helvetica,sans-Serif" font-size="10.00">RayTracer::ALight</text>
</a>
</g>
</g>
<!-- Node0&#45;&gt;Node1 -->
<g id="edge1_Node000000_Node000001" class="edge">
<title>Node0&#45;&gt;Node1</title>
<g id="a_edge1_Node000000_Node000001"><a xlink:title=" ">
<path fill="none" stroke="#63b8ff" d="M108.33,-46.5C116.75,-46.5 125.34,-46.5 133.58,-46.5"/>
<polygon fill="#63b8ff" stroke="#63b8ff" points="108.2,-43 98.2,-46.5 108.2,-50 108.2,-43"/>
</a>
</g>
</g>
<!-- Node2 -->
<g id="Node000002" class="node">
<title>Node2</title>
<g id="a_Node000002"><a xlink:href="df/dc4/classRayTracer_1_1AmbientLight.html" target="_top" xlink:title="Simple ambient light: same contribution everywhere.">
<polygon fill="white" stroke="#666666" points="413,-93 277,-93 277,-74 413,-74 413,-93"/>
<text text-anchor="middle" x="345" y="-81" font-family="Helvetica,sans-Serif" font-size="10.00">RayTracer::AmbientLight</text>
</a>
</g>
</g>
<!-- Node1&#45;&gt;Node2 -->
<g id="edge2_Node000001_Node000002" class="edge">
<title>Node1&#45;&gt;Node2</title>
<g id="a_edge2_Node000001_Node000002"><a xlink:title=" ">
<path fill="none" stroke="#63b8ff" d="M236.29,-58.36C257.86,-63.39 282.68,-69.18 303.05,-73.94"/>
<polygon fill="#63b8ff" stroke="#63b8ff" points="236.85,-54.89 226.32,-56.03 235.26,-61.71 236.85,-54.89"/>
</a>
</g>
</g>
<!-- Node3 -->
<g id="Node000003" class="node">
<title>Node3</title>
<g id="a_Node000003"><a xlink:href="df/d64/classRayTracer_1_1DirectionalLight.html" target="_top" xlink:title="Parallel rays from a given direction (e.g. sunlight).">
<polygon fill="white" stroke="#666666" points="419,-56 271,-56 271,-37 419,-37 419,-56"/>
<text text-anchor="middle" x="345" y="-44" font-family="Helvetica,sans-Serif" font-size="10.00">RayTracer::DirectionalLight</text>
</a>
</g>
</g>
<!-- Node1&#45;&gt;Node3 -->
<g id="edge3_Node000001_Node000003" class="edge">
<title>Node1&#45;&gt;Node3</title>
<g id="a_edge3_Node000001_Node000003"><a xlink:title=" ">
<path fill="none" stroke="#63b8ff" d="M245.27,-46.5C253.65,-46.5 262.35,-46.5 270.95,-46.5"/>
<polygon fill="#63b8ff" stroke="#63b8ff" points="245.22,-43 235.22,-46.5 245.22,-50 245.22,-43"/>
</a>
</g>
</g>
<!-- Node4 -->
<g id="Node000004" class="node">
<title>Node4</title>
<g id="a_Node000004"><a xlink:href="df/de3/classRayTracer_1_1PointLight.html" target="_top" xlink:title="Emits equally in all directions from a point in space.">
<polygon fill="white" stroke="#666666" points="404.5,-19 285.5,-19 285.5,0 404.5,0 404.5,-19"/>
<text text-anchor="middle" x="345" y="-7" font-family="Helvetica,sans-Serif" font-size="10.00">RayTracer::PointLight</text>
</a>
</g>
</g>
<!-- Node1&#45;&gt;Node4 -->
<g id="edge4_Node000001_Node000004" class="edge">
<title>Node1&#45;&gt;Node4</title>
<g id="a_edge4_Node000001_Node000004"><a xlink:title=" ">
<path fill="none" stroke="#63b8ff" d="M236.29,-34.64C257.86,-29.61 282.68,-23.82 303.05,-19.06"/>
<polygon fill="#63b8ff" stroke="#63b8ff" points="235.26,-31.29 226.32,-36.97 236.85,-38.11 235.26,-31.29"/>
</a>
</g>
</g>
</g>
</svg>
