<?xml version="1.0" encoding="UTF-8" standalone="no"?>
<!DOCTYPE svg PUBLIC "-//W3C//DTD SVG 1.1//EN"
 "http://www.w3.org/Graphics/SVG/1.1/DTD/svg11.dtd">
<!-- Generated by graphviz version 2.43.0 (0)
 -->
<!-- Title: include/loaders/SceneParser.hpp Pages: 1 -->
<svg width="887pt" height="467pt"
 viewBox="0.00 0.00 886.70 467.00" xmlns="http://www.w3.org/2000/svg" xmlns:xlink="http://www.w3.org/1999/xlink">
<g id="graph0" class="graph" transform="scale(1 1) rotate(0) translate(4 463)">
<title>include/loaders/SceneParser.hpp</title>
<!-- Node1 -->
<g id="Node000001" class="node">
<title>Node1</title>
<g id="a_Node000001"><a xlink:title="Declares functions to load scenes from configuration files (.cfg) into a Scene object.">
<polygon fill="#999999" stroke="#666666" points="485.84,-459 312.84,-459 312.84,-440 485.84,-440 485.84,-459"/>
<text text-anchor="middle" x="399.34" y="-447" font-family="Helvetica,sans-Serif" font-size="10.00">include/loaders/SceneParser.hpp</text>
</a>
</g>
</g>
<!-- Node2 -->
<g id="Node000002" class="node">
<title>Node2</title>
<g id="a_Node000002"><a xlink:title=" ">
<polygon fill="#e0e0e0" stroke="#999999" points="64.34,-184 20.34,-184 20.34,-165 64.34,-165 64.34,-184"/>
<text text-anchor="middle" x="42.34" y="-172" font-family="Helvetica,sans-Serif" font-size="10.00">string</text>
</a>
</g>
</g>
<!-- Node1&#45;&gt;Node2 -->
<g id="edge1_Node000001_Node000002" class="edge">
<title>Node1&#45;&gt;Node2</title>
<g id="a_edge1_Node000001_Node000002"><a xlink:title=" ">
<path fill="none" stroke="#63b8ff" d="M366.62,-439.93C317.44,-426.07 222.84,-395.48 153.34,-349 95.42,-310.27 61.36,-229.99 48.4,-193.84"/>
<polygon fill="#63b8ff" stroke="#63b8ff" points="51.62,-192.45 45.05,-184.14 45,-194.73 51.62,-192.45"/>
</a>
</g>
</g>
<!-- Node3 -->
<g id="Node000003" class="node">
<title>Node3</title>
<g id="a_Node000003"><a xlink:title=" ">
<polygon fill="#e0e0e0" stroke="#999999" points="507.34,-404 475.34,-404 475.34,-385 507.34,-385 507.34,-404"/>
<text text-anchor="middle" x="491.34" y="-392" font-family="Helvetica,sans-Serif" font-size="10.00">set</text>
</a>
</g>
</g>
<!-- Node1&#45;&gt;Node3 -->
<g id="edge2_Node000001_Node000003" class="edge">
<title>Node1&#45;&gt;Node3</title>
<g id="a_edge2_Node000001_Node000003"><a xlink:title=" ">
<path fill="none" stroke="#63b8ff" d="M414.12,-439.98C428.52,-431.69 450.65,-418.94 467.53,-409.22"/>
<polygon fill="#63b8ff" stroke="#63b8ff" points="469.37,-412.19 476.29,-404.17 465.87,-406.13 469.37,-412.19"/>
</a>
</g>
</g>
<!-- Node4 -->
<g id="Node000004" class="node">
<title>Node4</title>
<g id="a_Node000004"><a xlink:href="../../db/de8/Scene_8hpp.html" target="_top" xlink:title="Declares the scene container: camera, objects, lights, and top&#45;level BVH.">
<polygon fill="white" stroke="#666666" points="457.34,-404 341.34,-404 341.34,-385 457.34,-385 457.34,-404"/>
<text text-anchor="middle" x="399.34" y="-392" font-family="Helvetica,sans-Serif" font-size="10.00">rendering/Scene.hpp</text>
</a>
</g>
</g>
<!-- Node1&#45;&gt;Node4 -->
<g id="edge3_Node000001_Node000004" class="edge">
<title>Node1&#45;&gt;Node4</title>
<g id="a_edge3_Node000001_Node000004"><a xlink:title=" ">
<path fill="none" stroke="#63b8ff" d="M399.34,-439.75C399.34,-432.8 399.34,-422.85 399.34,-414.13"/>
<polygon fill="#63b8ff" stroke="#63b8ff" points="402.84,-414.09 399.34,-404.09 395.84,-414.09 402.84,-414.09"/>
</a>
</g>
</g>
<!-- Node5 -->
<g id="Node000005" class="node">
<title>Node5</title>
<g id="a_Node000005"><a xlink:title=" ">
<polygon fill="#e0e0e0" stroke="#999999" points="603.84,-294 556.84,-294 556.84,-275 603.84,-275 603.84,-294"/>
<text text-anchor="middle" x="580.34" y="-282" font-family="Helvetica,sans-Serif" font-size="10.00">vector</text>
</a>
</g>
</g>
<!-- Node4&#45;&gt;Node5 -->
<g id="edge4_Node000004_Node000005" class="edge">
<title>Node4&#45;&gt;Node5</title>
<g id="a_edge4_Node000004_Node000005"><a xlink:title=" ">
<path fill="none" stroke="#63b8ff" d="M413.84,-384.84C445.16,-366.16 519.34,-321.9 557.21,-299.3"/>
<polygon fill="#63b8ff" stroke="#63b8ff" points="559.22,-302.18 566.01,-294.05 555.63,-296.17 559.22,-302.18"/>
</a>
</g>
</g>
<!-- Node6 -->
<g id="Node000006" class="node">
<title>Node6</title>
<g id="a_Node000006"><a xlink:title=" ">
<polygon fill="#e0e0e0" stroke="#999999" points="140.34,-184 82.34,-184 82.34,-165 140.34,-165 140.34,-184"/>
<text text-anchor="middle" x="111.34" y="-172" font-family="Helvetica,sans-Serif" font-size="10.00">memory</text>
</a>
</g>
</g>
<!-- Node4&#45;&gt;Node6 -->
<g id="edge5_Node000004_Node000006" class="edge">
<title>Node4&#45;&gt;Node6</title>
<g id="a_edge5_Node000004_Node000006"><a xlink:title=" ">
<path fill="none" stroke="#63b8ff" d="M341.22,-390.37C275.37,-383.51 169.86,-361.87 113.34,-294 89.94,-265.9 98.06,-219.72 105.22,-194.09"/>
<polygon fill="#63b8ff" stroke="#63b8ff" points="108.67,-194.77 108.22,-184.19 101.97,-192.74 108.67,-194.77"/>
</a>
</g>
</g>
<!-- Node7 -->
<g id="Node000007" class="node">
<title>Node7</title>
<g id="a_Node000007"><a xlink:href="../../de/d81/APrimitive_8hpp.html" target="_top" xlink:title=" ">
<polygon fill="white" stroke="#666666" points="455.84,-294 342.84,-294 342.84,-275 455.84,-275 455.84,-294"/>
<text text-anchor="middle" x="399.34" y="-282" font-family="Helvetica,sans-Serif" font-size="10.00">core/APrimitive.hpp</text>
</a>
</g>
</g>
<!-- Node4&#45;&gt;Node7 -->
<g id="edge6_Node000004_Node000007" class="edge">
<title>Node4&#45;&gt;Node7</title>
<g id="a_edge6_Node000004_Node000007"><a xlink:title=" ">
<path fill="none" stroke="#63b8ff" d="M399.34,-384.66C399.34,-367.17 399.34,-327.8 399.34,-304.27"/>
<polygon fill="#63b8ff" stroke="#63b8ff" points="402.84,-304.16 399.34,-294.16 395.84,-304.16 402.84,-304.16"/>
</a>
</g>
</g>
<!-- Node16 -->
<g id="Node000016" class="node">
<title>Node16</title>
<g id="a_Node000016"><a xlink:href="../../d6/d80/Camera_8hpp.html" target="_top" xlink:title="Declares the pin&#45;hole / thin&#45;lens camera used by the ray tracer.">
<polygon fill="white" stroke="#666666" points="817.34,-239 741.34,-239 741.34,-220 817.34,-220 817.34,-239"/>
<text text-anchor="middle" x="779.34" y="-227" font-family="Helvetica,sans-Serif" font-size="10.00">Camera.hpp</text>
</a>
</g>
</g>
<!-- Node4&#45;&gt;Node16 -->
<g id="edge24_Node000004_Node000016" class="edge">
<title>Node4&#45;&gt;Node16</title>
<g id="a_edge24_Node000004_Node000016"><a xlink:title=" ">
<path fill="none" stroke="#63b8ff" d="M455.93,-384.97C523.47,-374.52 629.47,-357.21 646.34,-349 697.8,-323.95 744.37,-273.18 766.22,-246.98"/>
<polygon fill="#63b8ff" stroke="#63b8ff" points="769.03,-249.06 772.65,-239.1 763.61,-244.63 769.03,-249.06"/>
</a>
</g>
</g>
<!-- Node18 -->
<g id="Node000018" class="node">
<title>Node18</title>
<g id="a_Node000018"><a xlink:href="../../da/da7/ILight_8hpp.html" target="_top" xlink:title="Abstract interface for all light sources in the path tracer.">
<polygon fill="white" stroke="#666666" points="641.84,-184 576.84,-184 576.84,-165 641.84,-165 641.84,-184"/>
<text text-anchor="middle" x="609.34" y="-172" font-family="Helvetica,sans-Serif" font-size="10.00">ILight.hpp</text>
</a>
</g>
</g>
<!-- Node4&#45;&gt;Node18 -->
<g id="edge30_Node000004_Node000018" class="edge">
<title>Node4&#45;&gt;Node18</title>
<g id="a_edge30_Node000004_Node000018"><a xlink:title=" ">
<path fill="none" stroke="#63b8ff" d="M455.47,-384.95C506.77,-373.79 579.62,-348.78 613.34,-294 632.42,-263 623.23,-218.29 615.72,-193.6"/>
<polygon fill="#63b8ff" stroke="#63b8ff" points="619.04,-192.47 612.6,-184.06 612.38,-194.65 619.04,-192.47"/>
</a>
</g>
</g>
<!-- Node19 -->
<g id="Node000019" class="node">
<title>Node19</title>
<g id="a_Node000019"><a xlink:href="../../d9/dad/BVH_8hpp.html" target="_top" xlink:title="Declares the axis&#45;aligned bounding box (AABB) and the BVH node used for ray&#45;tracing acceleration.">
<polygon fill="white" stroke="#666666" points="319.84,-349 260.84,-349 260.84,-330 319.84,-330 319.84,-349"/>
<text text-anchor="middle" x="290.34" y="-337" font-family="Helvetica,sans-Serif" font-size="10.00">BVH.hpp</text>
</a>
</g>
</g>
<!-- Node4&#45;&gt;Node19 -->
<g id="edge33_Node000004_Node000019" class="edge">
<title>Node4&#45;&gt;Node19</title>
<g id="a_edge33_Node000004_Node000019"><a xlink:title=" ">
<path fill="none" stroke="#63b8ff" d="M381.82,-384.98C364.37,-376.5 337.33,-363.35 317.16,-353.54"/>
<polygon fill="#63b8ff" stroke="#63b8ff" points="318.69,-350.4 308.17,-349.17 315.63,-356.69 318.69,-350.4"/>
</a>
</g>
</g>
<!-- Node8 -->
<g id="Node000008" class="node">
<title>Node8</title>
<g id="a_Node000008"><a xlink:href="../../d4/db2/Ray_8hpp.html" target="_top" xlink:title="Defines the Ray structure used for ray&#45;object intersection tests in the raytracer.">
<polygon fill="white" stroke="#666666" points="509.84,-184 430.84,-184 430.84,-165 509.84,-165 509.84,-184"/>
<text text-anchor="middle" x="470.34" y="-172" font-family="Helvetica,sans-Serif" font-size="10.00">core/Ray.hpp</text>
</a>
</g>
</g>
<!-- Node7&#45;&gt;Node8 -->
<g id="edge7_Node000007_Node000008" class="edge">
<title>Node7&#45;&gt;Node8</title>
<g id="a_edge7_Node000007_Node000008"><a xlink:title=" ">
<path fill="none" stroke="#63b8ff" d="M412.91,-274.84C424.41,-266.83 440.56,-253.95 450.34,-239 459.23,-225.4 464.39,-207.58 467.23,-194.28"/>
<polygon fill="#63b8ff" stroke="#63b8ff" points="470.69,-194.84 469.11,-184.36 463.81,-193.54 470.69,-194.84"/>
</a>
</g>
</g>
<!-- Node9 -->
<g id="Node000009" class="node">
<title>Node9</title>
<g id="a_Node000009"><a xlink:href="../../df/df2/Point3D_8hpp.html" target="_top" xlink:title="Defines a 3D point structure used in geometric computations.">
<polygon fill="white" stroke="#666666" points="684.34,-129 608.34,-129 608.34,-110 684.34,-110 684.34,-129"/>
<text text-anchor="middle" x="646.34" y="-117" font-family="Helvetica,sans-Serif" font-size="10.00">Point3D.hpp</text>
</a>
</g>
</g>
<!-- Node7&#45;&gt;Node9 -->
<g id="edge13_Node000007_Node000009" class="edge">
<title>Node7&#45;&gt;Node9</title>
<g id="a_edge13_Node000007_Node000009"><a xlink:title=" ">
<path fill="none" stroke="#63b8ff" d="M455.86,-276.57C510.28,-269.05 587.96,-255.83 613.34,-239 638.1,-222.58 642.49,-212.36 651.34,-184 655.87,-169.47 654.08,-152.2 651.46,-139.34"/>
<polygon fill="#63b8ff" stroke="#63b8ff" points="654.8,-138.27 649.08,-129.36 647.99,-139.9 654.8,-138.27"/>
</a>
</g>
</g>
<!-- Node10 -->
<g id="Node000010" class="node">
<title>Node10</title>
<g id="a_Node000010"><a xlink:href="../../d3/dde/Vector3D_8hpp.html" target="_top" xlink:title="Defines a 3D vector structure with basic arithmetic and transformation operations.">
<polygon fill="white" stroke="#666666" points="511.34,-74 429.34,-74 429.34,-55 511.34,-55 511.34,-74"/>
<text text-anchor="middle" x="470.34" y="-62" font-family="Helvetica,sans-Serif" font-size="10.00">Vector3D.hpp</text>
</a>
</g>
</g>
<!-- Node7&#45;&gt;Node10 -->
<g id="edge15_Node000007_Node000010" class="edge">
<title>Node7&#45;&gt;Node10</title>
<g id="a_edge15_Node000007_Node000010"><a xlink:title=" ">
<path fill="none" stroke="#63b8ff" d="M383.31,-274.95C370.92,-267.35 354.69,-254.97 347.34,-239 343.8,-231.33 344.55,-227.97 347.34,-220 368.23,-160.2 423.04,-106.24 451.92,-80.84"/>
<polygon fill="#63b8ff" stroke="#63b8ff" points="454.36,-83.35 459.65,-74.18 449.79,-78.05 454.36,-83.35"/>
</a>
</g>
</g>
<!-- Node12 -->
<g id="Node000012" class="node">
<title>Node12</title>
<g id="a_Node000012"><a xlink:href="../../d8/d1e/Vector2D_8hpp.html" target="_top" xlink:title="Defines a 2D vector structure used for texture coordinates or screen&#45;space math operations.">
<polygon fill="white" stroke="#666666" points="604.34,-239 498.34,-239 498.34,-220 604.34,-220 604.34,-239"/>
<text text-anchor="middle" x="551.34" y="-227" font-family="Helvetica,sans-Serif" font-size="10.00">core/Vector2D.hpp</text>
</a>
</g>
</g>
<!-- Node7&#45;&gt;Node12 -->
<g id="edge14_Node000007_Node000012" class="edge">
<title>Node7&#45;&gt;Node12</title>
<g id="a_edge14_Node000007_Node000012"><a xlink:title=" ">
<path fill="none" stroke="#63b8ff" d="M423.76,-274.98C449.06,-266.16 488.79,-252.31 517.19,-242.41"/>
<polygon fill="#63b8ff" stroke="#63b8ff" points="518.43,-245.68 526.72,-239.08 516.13,-239.07 518.43,-245.68"/>
</a>
</g>
</g>
<!-- Node13 -->
<g id="Node000013" class="node">
<title>Node13</title>
<g id="a_Node000013"><a xlink:href="../../d0/d70/Material_8hpp.html" target="_top" xlink:title="Declares the physically&#45;based material descriptor used by the renderer.">
<polygon fill="white" stroke="#666666" points="262.34,-239 134.34,-239 134.34,-220 262.34,-220 262.34,-239"/>
<text text-anchor="middle" x="198.34" y="-227" font-family="Helvetica,sans-Serif" font-size="10.00">rendering/Material.hpp</text>
</a>
</g>
</g>
<!-- Node7&#45;&gt;Node13 -->
<g id="edge16_Node000007_Node000013" class="edge">
<title>Node7&#45;&gt;Node13</title>
<g id="a_edge16_Node000007_Node000013"><a xlink:title=" ">
<path fill="none" stroke="#63b8ff" d="M367.04,-274.98C332.71,-265.93 278.28,-251.58 240.57,-241.64"/>
<polygon fill="#63b8ff" stroke="#63b8ff" points="241.44,-238.25 230.88,-239.08 239.66,-245.02 241.44,-238.25"/>
</a>
</g>
</g>
<!-- Node15 -->
<g id="Node000015" class="node">
<title>Node15</title>
<g id="a_Node000015"><a xlink:href="../../d0/d38/IPrimitive_8hpp.html" target="_top" xlink:title="Interface for geometric primitives in the raytracer.">
<polygon fill="white" stroke="#666666" points="441.84,-239 356.84,-239 356.84,-220 441.84,-220 441.84,-239"/>
<text text-anchor="middle" x="399.34" y="-227" font-family="Helvetica,sans-Serif" font-size="10.00">IPrimitive.hpp</text>
</a>
</g>
</g>
<!-- Node7&#45;&gt;Node15 -->
<g id="edge22_Node000007_Node000015" class="edge">
<title>Node7&#45;&gt;Node15</title>
<g id="a_edge22_Node000007_Node000015"><a xlink:title=" ">
<path fill="none" stroke="#63b8ff" d="M399.34,-274.75C399.34,-267.8 399.34,-257.85 399.34,-249.13"/>
<polygon fill="#63b8ff" stroke="#63b8ff" points="402.84,-249.09 399.34,-239.09 395.84,-249.09 402.84,-249.09"/>
</a>
</g>
</g>
<!-- Node8&#45;&gt;Node9 -->
<g id="edge8_Node000008_Node000009" class="edge">
<title>Node8&#45;&gt;Node9</title>
<g id="a_edge8_Node000008_Node000009"><a xlink:title=" ">
<path fill="none" stroke="#63b8ff" d="M498.61,-164.98C528.29,-156.05 575.12,-141.94 608.09,-132.02"/>
<polygon fill="#63b8ff" stroke="#63b8ff" points="609.27,-135.32 617.84,-129.08 607.25,-128.61 609.27,-135.32"/>
</a>
</g>
</g>
<!-- Node8&#45;&gt;Node10 -->
<g id="edge12_Node000008_Node000010" class="edge">
<title>Node8&#45;&gt;Node10</title>
<g id="a_edge12_Node000008_Node000010"><a xlink:title=" ">
<path fill="none" stroke="#63b8ff" d="M470.34,-164.66C470.34,-147.17 470.34,-107.8 470.34,-84.27"/>
<polygon fill="#63b8ff" stroke="#63b8ff" points="473.84,-84.16 470.34,-74.16 466.84,-84.16 473.84,-84.16"/>
</a>
</g>
</g>
<!-- Node9&#45;&gt;Node10 -->
<g id="edge9_Node000009_Node000010" class="edge">
<title>Node9&#45;&gt;Node10</title>
<g id="a_edge9_Node000009_Node000010"><a xlink:title=" ">
<path fill="none" stroke="#63b8ff" d="M618.06,-109.98C588.38,-101.05 541.55,-86.94 508.59,-77.02"/>
<polygon fill="#63b8ff" stroke="#63b8ff" points="509.42,-73.61 498.83,-74.08 507.4,-80.32 509.42,-73.61"/>
</a>
</g>
</g>
<!-- Node11 -->
<g id="Node000011" class="node">
<title>Node11</title>
<g id="a_Node000011"><a xlink:title=" ">
<polygon fill="#e0e0e0" stroke="#999999" points="669.84,-19 622.84,-19 622.84,0 669.84,0 669.84,-19"/>
<text text-anchor="middle" x="646.34" y="-7" font-family="Helvetica,sans-Serif" font-size="10.00">cmath</text>
</a>
</g>
</g>
<!-- Node9&#45;&gt;Node11 -->
<g id="edge11_Node000009_Node000011" class="edge">
<title>Node9&#45;&gt;Node11</title>
<g id="a_edge11_Node000009_Node000011"><a xlink:title=" ">
<path fill="none" stroke="#63b8ff" d="M646.34,-109.66C646.34,-92.17 646.34,-52.8 646.34,-29.27"/>
<polygon fill="#63b8ff" stroke="#63b8ff" points="649.84,-29.16 646.34,-19.16 642.84,-29.16 649.84,-29.16"/>
</a>
</g>
</g>
<!-- Node10&#45;&gt;Node11 -->
<g id="edge10_Node000010_Node000011" class="edge">
<title>Node10&#45;&gt;Node11</title>
<g id="a_edge10_Node000010_Node000011"><a xlink:title=" ">
<path fill="none" stroke="#63b8ff" d="M498.61,-54.98C529.79,-45.6 579.89,-30.51 612.96,-20.55"/>
<polygon fill="#63b8ff" stroke="#63b8ff" points="614.08,-23.87 622.64,-17.63 612.06,-17.17 614.08,-23.87"/>
</a>
</g>
</g>
<!-- Node13&#45;&gt;Node2 -->
<g id="edge17_Node000013_Node000002" class="edge">
<title>Node13&#45;&gt;Node2</title>
<g id="a_edge17_Node000013_Node000002"><a xlink:title=" ">
<path fill="none" stroke="#63b8ff" d="M173.27,-219.98C146.46,-210.88 103.85,-196.4 74.56,-186.45"/>
<polygon fill="#63b8ff" stroke="#63b8ff" points="75.4,-183.04 64.81,-183.13 73.15,-189.67 75.4,-183.04"/>
</a>
</g>
</g>
<!-- Node13&#45;&gt;Node6 -->
<g id="edge18_Node000013_Node000006" class="edge">
<title>Node13&#45;&gt;Node6</title>
<g id="a_edge18_Node000013_Node000006"><a xlink:title=" ">
<path fill="none" stroke="#63b8ff" d="M184.36,-219.98C170.87,-211.77 150.2,-199.18 134.29,-189.49"/>
<polygon fill="#63b8ff" stroke="#63b8ff" points="135.93,-186.38 125.57,-184.17 132.29,-192.36 135.93,-186.38"/>
</a>
</g>
</g>
<!-- Node13&#45;&gt;Node10 -->
<g id="edge19_Node000013_Node000010" class="edge">
<title>Node13&#45;&gt;Node10</title>
<g id="a_edge19_Node000013_Node000010"><a xlink:title=" ">
<path fill="none" stroke="#63b8ff" d="M204.27,-219.86C219.75,-198.02 263.62,-140.19 314.34,-110 346.54,-90.83 387.43,-79.56 419.26,-73.16"/>
<polygon fill="#63b8ff" stroke="#63b8ff" points="420.09,-76.57 429.26,-71.25 418.78,-69.69 420.09,-76.57"/>
</a>
</g>
</g>
<!-- Node14 -->
<g id="Node000014" class="node">
<title>Node14</title>
<g id="a_Node000014"><a xlink:href="../../d0/ddc/Texture_8hpp.html" target="_top" xlink:title="Declares the abstract base class for all 2&#45;D textures. (Solid colour, checkerboard,...">
<polygon fill="white" stroke="#666666" points="260.84,-129 137.84,-129 137.84,-110 260.84,-110 260.84,-129"/>
<text text-anchor="middle" x="199.34" y="-117" font-family="Helvetica,sans-Serif" font-size="10.00">rendering/Texture.hpp</text>
</a>
</g>
</g>
<!-- Node13&#45;&gt;Node14 -->
<g id="edge20_Node000013_Node000014" class="edge">
<title>Node13&#45;&gt;Node14</title>
<g id="a_edge20_Node000013_Node000014"><a xlink:title=" ">
<path fill="none" stroke="#63b8ff" d="M198.42,-219.66C198.58,-202.17 198.94,-162.8 199.16,-139.27"/>
<polygon fill="#63b8ff" stroke="#63b8ff" points="202.66,-139.19 199.26,-129.16 195.66,-139.13 202.66,-139.19"/>
</a>
</g>
</g>
<!-- Node14&#45;&gt;Node10 -->
<g id="edge21_Node000014_Node000010" class="edge">
<title>Node14&#45;&gt;Node10</title>
<g id="a_edge21_Node000014_Node000010"><a xlink:title=" ">
<path fill="none" stroke="#63b8ff" d="M242.88,-109.98C290.99,-100.58 368.39,-85.44 419.31,-75.48"/>
<polygon fill="#63b8ff" stroke="#63b8ff" points="419.98,-78.91 429.12,-73.56 418.64,-72.04 419.98,-78.91"/>
</a>
</g>
</g>
<!-- Node15&#45;&gt;Node8 -->
<g id="edge23_Node000015_Node000008" class="edge">
<title>Node15&#45;&gt;Node8</title>
<g id="a_edge23_Node000015_Node000008"><a xlink:title=" ">
<path fill="none" stroke="#63b8ff" d="M410.74,-219.98C421.44,-212 437.68,-199.88 450.5,-190.31"/>
<polygon fill="#63b8ff" stroke="#63b8ff" points="452.8,-192.96 458.72,-184.17 448.61,-187.35 452.8,-192.96"/>
</a>
</g>
</g>
<!-- Node16&#45;&gt;Node8 -->
<g id="edge27_Node000016_Node000008" class="edge">
<title>Node16&#45;&gt;Node8</title>
<g id="a_edge27_Node000016_Node000008"><a xlink:title=" ">
<path fill="none" stroke="#63b8ff" d="M741.14,-221.95C685.31,-212.37 581.39,-194.55 519.79,-183.98"/>
<polygon fill="#63b8ff" stroke="#63b8ff" points="520.36,-180.53 509.91,-182.29 519.17,-187.43 520.36,-180.53"/>
</a>
</g>
</g>
<!-- Node16&#45;&gt;Node9 -->
<g id="edge25_Node000016_Node000009" class="edge">
<title>Node16&#45;&gt;Node9</title>
<g id="a_edge25_Node000016_Node000009"><a xlink:title=" ">
<path fill="none" stroke="#63b8ff" d="M773.04,-219.92C763.22,-206.95 743.22,-182.05 722.34,-165 707.47,-152.87 688.91,-141.93 673.86,-133.94"/>
<polygon fill="#63b8ff" stroke="#63b8ff" points="675.03,-130.61 664.54,-129.13 671.82,-136.83 675.03,-130.61"/>
</a>
</g>
</g>
<!-- Node16&#45;&gt;Node10 -->
<g id="edge26_Node000016_Node000010" class="edge">
<title>Node16&#45;&gt;Node10</title>
<g id="a_edge26_Node000016_Node000010"><a xlink:title=" ">
<path fill="none" stroke="#63b8ff" d="M776.15,-219.94C767.19,-197.23 739.38,-135.47 693.34,-110 639.59,-80.27 568.8,-70.24 521.54,-66.95"/>
<polygon fill="#63b8ff" stroke="#63b8ff" points="521.73,-63.45 511.53,-66.33 521.3,-70.44 521.73,-63.45"/>
</a>
</g>
</g>
<!-- Node16&#45;&gt;Node11 -->
<g id="edge28_Node000016_Node000011" class="edge">
<title>Node16&#45;&gt;Node11</title>
<g id="a_edge28_Node000016_Node000011"><a xlink:title=" ">
<path fill="none" stroke="#63b8ff" d="M817.29,-219.96C850.11,-210.53 890.16,-192.88 875.34,-165 833.67,-86.63 732.56,-40.82 679.74,-21.46"/>
<polygon fill="#63b8ff" stroke="#63b8ff" points="680.75,-18.1 670.15,-18.04 678.4,-24.7 680.75,-18.1"/>
</a>
</g>
</g>
<!-- Node17 -->
<g id="Node000017" class="node">
<title>Node17</title>
<g id="a_Node000017"><a xlink:title=" ">
<polygon fill="#e0e0e0" stroke="#999999" points="866.34,-184 812.34,-184 812.34,-165 866.34,-165 866.34,-184"/>
<text text-anchor="middle" x="839.34" y="-172" font-family="Helvetica,sans-Serif" font-size="10.00">random</text>
</a>
</g>
</g>
<!-- Node16&#45;&gt;Node17 -->
<g id="edge29_Node000016_Node000017" class="edge">
<title>Node16&#45;&gt;Node17</title>
<g id="a_edge29_Node000016_Node000017"><a xlink:title=" ">
<path fill="none" stroke="#63b8ff" d="M788.98,-219.98C797.85,-212.15 811.21,-200.34 821.94,-190.86"/>
<polygon fill="#63b8ff" stroke="#63b8ff" points="824.34,-193.41 829.52,-184.17 819.71,-188.17 824.34,-193.41"/>
</a>
</g>
</g>
<!-- Node18&#45;&gt;Node9 -->
<g id="edge31_Node000018_Node000009" class="edge">
<title>Node18&#45;&gt;Node9</title>
<g id="a_edge31_Node000018_Node000009"><a xlink:title=" ">
<path fill="none" stroke="#63b8ff" d="M615.45,-164.75C620.62,-157.34 628.18,-146.5 634.53,-137.41"/>
<polygon fill="#63b8ff" stroke="#63b8ff" points="637.49,-139.29 640.34,-129.09 631.75,-135.29 637.49,-139.29"/>
</a>
</g>
</g>
<!-- Node18&#45;&gt;Node10 -->
<g id="edge32_Node000018_Node000010" class="edge">
<title>Node18&#45;&gt;Node10</title>
<g id="a_edge32_Node000018_Node000010"><a xlink:title=" ">
<path fill="none" stroke="#63b8ff" d="M597.96,-164.66C574.22,-146.22 519.17,-103.45 489.73,-80.57"/>
<polygon fill="#63b8ff" stroke="#63b8ff" points="491.52,-77.53 481.48,-74.16 487.23,-83.06 491.52,-77.53"/>
</a>
</g>
</g>
<!-- Node19&#45;&gt;Node5 -->
<g id="edge35_Node000019_Node000005" class="edge">
<title>Node19&#45;&gt;Node5</title>
<g id="a_edge35_Node000019_Node000005"><a xlink:title=" ">
<path fill="none" stroke="#63b8ff" d="M319.9,-333.72C367.06,-326.01 462.18,-310.03 542.34,-294 543.79,-293.71 545.27,-293.41 546.76,-293.1"/>
<polygon fill="#63b8ff" stroke="#63b8ff" points="547.61,-296.49 556.65,-290.97 546.14,-289.65 547.61,-296.49"/>
</a>
</g>
</g>
<!-- Node19&#45;&gt;Node6 -->
<g id="edge34_Node000019_Node000006" class="edge">
<title>Node19&#45;&gt;Node6</title>
<g id="a_edge34_Node000019_Node000006"><a xlink:title=" ">
<path fill="none" stroke="#63b8ff" d="M260.72,-334.37C218.66,-327.87 144.78,-313.92 127.34,-294 103.03,-266.25 104.76,-219.92 108.09,-194.19"/>
<polygon fill="#63b8ff" stroke="#63b8ff" points="111.56,-194.65 109.59,-184.24 104.64,-193.6 111.56,-194.65"/>
</a>
</g>
</g>
<!-- Node19&#45;&gt;Node7 -->
<g id="edge39_Node000019_Node000007" class="edge">
<title>Node19&#45;&gt;Node7</title>
<g id="a_edge39_Node000019_Node000007"><a xlink:title=" ">
<path fill="none" stroke="#63b8ff" d="M307.85,-329.98C325.3,-321.5 352.34,-308.35 372.51,-298.54"/>
<polygon fill="#63b8ff" stroke="#63b8ff" points="374.04,-301.69 381.5,-294.17 370.98,-295.4 374.04,-301.69"/>
</a>
</g>
</g>
<!-- Node19&#45;&gt;Node8 -->
<g id="edge38_Node000019_Node000008" class="edge">
<title>Node19&#45;&gt;Node8</title>
<g id="a_edge38_Node000019_Node000008"><a xlink:title=" ">
<path fill="none" stroke="#63b8ff" d="M292.16,-329.68C297.1,-307.93 312.78,-251.22 347.34,-220 367.7,-201.6 396.25,-190.66 420.71,-184.23"/>
<polygon fill="#63b8ff" stroke="#63b8ff" points="421.68,-187.6 430.56,-181.82 420.02,-180.8 421.68,-187.6"/>
</a>
</g>
</g>
<!-- Node19&#45;&gt;Node9 -->
<g id="edge40_Node000019_Node000009" class="edge">
<title>Node19&#45;&gt;Node9</title>
<g id="a_edge40_Node000019_Node000009"><a xlink:title=" ">
<path fill="none" stroke="#63b8ff" d="M320.11,-331.48C399.77,-312.48 613.44,-260.1 638.34,-239 665.16,-216.27 673.71,-199.38 666.34,-165 664.36,-155.8 660.34,-146.2 656.41,-138.29"/>
<polygon fill="#63b8ff" stroke="#63b8ff" points="659.43,-136.51 651.65,-129.32 653.25,-139.79 659.43,-136.51"/>
</a>
</g>
</g>
<!-- Node19&#45;&gt;Node10 -->
<g id="edge41_Node000019_Node000010" class="edge">
<title>Node19&#45;&gt;Node10</title>
<g id="a_edge41_Node000019_Node000010"><a xlink:title=" ">
<path fill="none" stroke="#63b8ff" d="M260.63,-333.56C176.55,-318.22 -52.94,-266.24 11.34,-165 54.84,-96.48 308.26,-74.36 418.8,-67.91"/>
<polygon fill="#63b8ff" stroke="#63b8ff" points="419.25,-71.39 429.04,-67.33 418.86,-64.4 419.25,-71.39"/>
</a>
</g>
</g>
<!-- Node20 -->
<g id="Node000020" class="node">
<title>Node20</title>
<g id="a_Node000020"><a xlink:title=" ">
<polygon fill="#e0e0e0" stroke="#999999" points="200.34,-294 136.34,-294 136.34,-275 200.34,-275 200.34,-294"/>
<text text-anchor="middle" x="168.34" y="-282" font-family="Helvetica,sans-Serif" font-size="10.00">algorithm</text>
</a>
</g>
</g>
<!-- Node19&#45;&gt;Node20 -->
<g id="edge36_Node000019_Node000020" class="edge">
<title>Node19&#45;&gt;Node20</title>
<g id="a_edge36_Node000019_Node000020"><a xlink:title=" ">
<path fill="none" stroke="#63b8ff" d="M270.73,-329.98C251.02,-321.42 220.38,-308.11 197.75,-298.28"/>
<polygon fill="#63b8ff" stroke="#63b8ff" points="198.86,-294.94 188.29,-294.17 196.07,-301.37 198.86,-294.94"/>
</a>
</g>
</g>
<!-- Node21 -->
<g id="Node000021" class="node">
<title>Node21</title>
<g id="a_Node000021"><a xlink:title=" ">
<polygon fill="#e0e0e0" stroke="#999999" points="262.34,-294 218.34,-294 218.34,-275 262.34,-275 262.34,-294"/>
<text text-anchor="middle" x="240.34" y="-282" font-family="Helvetica,sans-Serif" font-size="10.00">limits</text>
</a>
</g>
</g>
<!-- Node19&#45;&gt;Node21 -->
<g id="edge37_Node000019_Node000021" class="edge">
<title>Node19&#45;&gt;Node21</title>
<g id="a_edge37_Node000019_Node000021"><a xlink:title=" ">
<path fill="none" stroke="#63b8ff" d="M282.08,-329.75C274.87,-322.11 264.23,-310.82 255.49,-301.56"/>
<polygon fill="#63b8ff" stroke="#63b8ff" points="257.85,-298.96 248.44,-294.09 252.75,-303.76 257.85,-298.96"/>
</a>
</g>
</g>
</g>
</svg>
