<?xml version="1.0" encoding="UTF-8" standalone="no"?>
<!DOCTYPE svg PUBLIC "-//W3C//DTD SVG 1.1//EN"
 "http://www.w3.org/Graphics/SVG/1.1/DTD/svg11.dtd">
<!-- Generated by graphviz version 2.43.0 (0)
 -->
<!-- Title: src/rendering/ShadowShading.cpp Pages: 1 -->
<svg width="1362pt" height="533pt"
 viewBox="0.00 0.00 1362.00 533.00" xmlns="http://www.w3.org/2000/svg" xmlns:xlink="http://www.w3.org/1999/xlink">
<g id="graph0" class="graph" transform="scale(1 1) rotate(0) translate(4 529)">
<title>src/rendering/ShadowShading.cpp</title>
<!-- Node1 -->
<g id="Node000001" class="node">
<title>Node1</title>
<g id="a_Node000001"><a xlink:title=" ">
<polygon fill="#999999" stroke="#666666" points="1175.5,-525 994.5,-525 994.5,-506 1175.5,-506 1175.5,-525"/>
<text text-anchor="middle" x="1085" y="-513" font-family="Helvetica,sans-Serif" font-size="10.00">src/rendering/ShadowShading.cpp</text>
</a>
</g>
</g>
<!-- Node2 -->
<g id="Node000002" class="node">
<title>Node2</title>
<g id="a_Node000002"><a xlink:href="../../d1/d3a/ShadowShading_8hpp.html" target="_top" xlink:title=" ">
<polygon fill="white" stroke="#666666" points="1017.5,-470 898.5,-470 898.5,-440 1017.5,-440 1017.5,-470"/>
<text text-anchor="start" x="906.5" y="-458" font-family="Helvetica,sans-Serif" font-size="10.00">../../include/rendering</text>
<text text-anchor="middle" x="958" y="-447" font-family="Helvetica,sans-Serif" font-size="10.00">/ShadowShading.hpp</text>
</a>
</g>
</g>
<!-- Node1&#45;&gt;Node2 -->
<g id="edge1_Node000001_Node000002" class="edge">
<title>Node1&#45;&gt;Node2</title>
<g id="a_edge1_Node000001_Node000002"><a xlink:title=" ">
<path fill="none" stroke="#63b8ff" d="M1066.53,-505.99C1048.64,-497.75 1020.9,-484.98 997.95,-474.4"/>
<polygon fill="#63b8ff" stroke="#63b8ff" points="999.33,-471.18 988.78,-470.18 996.4,-477.54 999.33,-471.18"/>
</a>
</g>
</g>
<!-- Node10 -->
<g id="Node000010" class="node">
<title>Node10</title>
<g id="a_Node000010"><a xlink:title=" ">
<polygon fill="#e0e0e0" stroke="#999999" points="739.5,-19 692.5,-19 692.5,0 739.5,0 739.5,-19"/>
<text text-anchor="middle" x="716" y="-7" font-family="Helvetica,sans-Serif" font-size="10.00">cmath</text>
</a>
</g>
</g>
<!-- Node1&#45;&gt;Node10 -->
<g id="edge63_Node000001_Node000010" class="edge">
<title>Node1&#45;&gt;Node10</title>
<g id="a_edge63_Node000001_Node000010"><a xlink:title=" ">
<path fill="none" stroke="#63b8ff" d="M994.36,-514.01C733.59,-511.41 0,-495.22 0,-395.5 0,-395.5 0,-395.5 0,-118.5 0,-53 69.71,-71.89 133,-55 237.88,-27.01 574.45,-14.73 682.36,-11.44"/>
<polygon fill="#63b8ff" stroke="#63b8ff" points="682.47,-14.94 692.36,-11.15 682.26,-7.95 682.47,-14.94"/>
</a>
</g>
</g>
<!-- Node17 -->
<g id="Node000017" class="node">
<title>Node17</title>
<g id="a_Node000017"><a xlink:title=" ">
<polygon fill="#e0e0e0" stroke="#999999" points="1288,-184 1234,-184 1234,-165 1288,-165 1288,-184"/>
<text text-anchor="middle" x="1261" y="-172" font-family="Helvetica,sans-Serif" font-size="10.00">random</text>
</a>
</g>
</g>
<!-- Node1&#45;&gt;Node17 -->
<g id="edge65_Node000001_Node000017" class="edge">
<title>Node1&#45;&gt;Node17</title>
<g id="a_edge65_Node000001_Node000017"><a xlink:title=" ">
<path fill="none" stroke="#63b8ff" d="M1175.7,-510.72C1253.79,-502.01 1354,-475.29 1354,-395.5 1354,-395.5 1354,-395.5 1354,-283.5 1354,-241.48 1313.08,-207.69 1285.53,-189.7"/>
<polygon fill="#63b8ff" stroke="#63b8ff" points="1287.11,-186.56 1276.78,-184.21 1283.39,-192.49 1287.11,-186.56"/>
</a>
</g>
</g>
<!-- Node20 -->
<g id="Node000020" class="node">
<title>Node20</title>
<g id="a_Node000020"><a xlink:title=" ">
<polygon fill="#e0e0e0" stroke="#999999" points="1188,-294 1124,-294 1124,-275 1188,-275 1188,-294"/>
<text text-anchor="middle" x="1156" y="-282" font-family="Helvetica,sans-Serif" font-size="10.00">algorithm</text>
</a>
</g>
</g>
<!-- Node1&#45;&gt;Node20 -->
<g id="edge66_Node000001_Node000020" class="edge">
<title>Node1&#45;&gt;Node20</title>
<g id="a_edge66_Node000001_Node000020"><a xlink:title=" ">
<path fill="none" stroke="#63b8ff" d="M1087.7,-505.8C1098.11,-472.22 1135.83,-350.57 1150.3,-303.9"/>
<polygon fill="#63b8ff" stroke="#63b8ff" points="1153.68,-304.79 1153.3,-294.21 1147,-302.72 1153.68,-304.79"/>
</a>
</g>
</g>
<!-- Node21 -->
<g id="Node000021" class="node">
<title>Node21</title>
<g id="a_Node000021"><a xlink:title=" ">
<polygon fill="#e0e0e0" stroke="#999999" points="1250,-294 1206,-294 1206,-275 1250,-275 1250,-294"/>
<text text-anchor="middle" x="1228" y="-282" font-family="Helvetica,sans-Serif" font-size="10.00">limits</text>
</a>
</g>
</g>
<!-- Node1&#45;&gt;Node21 -->
<g id="edge64_Node000001_Node000021" class="edge">
<title>Node1&#45;&gt;Node21</title>
<g id="a_edge64_Node000001_Node000021"><a xlink:title=" ">
<path fill="none" stroke="#63b8ff" d="M1092.4,-505.67C1112.19,-481.71 1167.22,-413 1202,-349 1209.91,-334.44 1216.9,-316.96 1221.63,-304.03"/>
<polygon fill="#63b8ff" stroke="#63b8ff" points="1225,-305 1225.05,-294.4 1218.41,-302.66 1225,-305"/>
</a>
</g>
</g>
<!-- Node23 -->
<g id="Node000023" class="node">
<title>Node23</title>
<g id="a_Node000023"><a xlink:href="../../dc/d94/Skybox_8hpp.html" target="_top" xlink:title="Declares a minimal PPM&#45;based skybox loader and sampler.">
<polygon fill="white" stroke="#666666" points="210.5,-349 137.5,-349 137.5,-330 210.5,-330 210.5,-349"/>
<text text-anchor="middle" x="174" y="-337" font-family="Helvetica,sans-Serif" font-size="10.00">Skybox.hpp</text>
</a>
</g>
</g>
<!-- Node1&#45;&gt;Node23 -->
<g id="edge62_Node000001_Node000023" class="edge">
<title>Node1&#45;&gt;Node23</title>
<g id="a_edge62_Node000001_Node000023"><a xlink:title=" ">
<path fill="none" stroke="#63b8ff" d="M994.32,-513.53C796.3,-509.79 332.83,-491.64 207,-404 191.89,-393.48 183.21,-373.85 178.59,-359.19"/>
<polygon fill="#63b8ff" stroke="#63b8ff" points="181.85,-357.88 175.8,-349.18 175.11,-359.76 181.85,-357.88"/>
</a>
</g>
</g>
<!-- Node3 -->
<g id="Node000003" class="node">
<title>Node3</title>
<g id="a_Node000003"><a xlink:href="../../db/de8/Scene_8hpp.html" target="_top" xlink:title="Declares the scene container: camera, objects, lights, and top&#45;level BVH.">
<polygon fill="white" stroke="#666666" points="929.5,-404 862.5,-404 862.5,-385 929.5,-385 929.5,-404"/>
<text text-anchor="middle" x="896" y="-392" font-family="Helvetica,sans-Serif" font-size="10.00">Scene.hpp</text>
</a>
</g>
</g>
<!-- Node2&#45;&gt;Node3 -->
<g id="edge2_Node000002_Node000003" class="edge">
<title>Node2&#45;&gt;Node3</title>
<g id="a_edge2_Node000002_Node000003"><a xlink:title=" ">
<path fill="none" stroke="#63b8ff" d="M942.99,-439.84C933.81,-431.17 922.05,-420.08 912.59,-411.15"/>
<polygon fill="#63b8ff" stroke="#63b8ff" points="914.97,-408.58 905.29,-404.27 910.16,-413.67 914.97,-408.58"/>
</a>
</g>
</g>
<!-- Node7 -->
<g id="Node000007" class="node">
<title>Node7</title>
<g id="a_Node000007"><a xlink:href="../../d4/db2/Ray_8hpp.html" target="_top" xlink:title="Defines the Ray structure used for ray&#45;object intersection tests in the raytracer.">
<polygon fill="white" stroke="#666666" points="616.5,-184 537.5,-184 537.5,-165 616.5,-165 616.5,-184"/>
<text text-anchor="middle" x="577" y="-172" font-family="Helvetica,sans-Serif" font-size="10.00">core/Ray.hpp</text>
</a>
</g>
</g>
<!-- Node2&#45;&gt;Node7 -->
<g id="edge42_Node000002_Node000007" class="edge">
<title>Node2&#45;&gt;Node7</title>
<g id="a_edge42_Node000002_Node000007"><a xlink:title=" ">
<path fill="none" stroke="#63b8ff" d="M898.26,-444.87C772.52,-424.3 487.45,-370.13 431,-294 395.49,-246.11 484.95,-206.24 539.15,-187.32"/>
<polygon fill="#63b8ff" stroke="#63b8ff" points="540.48,-190.56 548.82,-184.03 538.23,-183.94 540.48,-190.56"/>
</a>
</g>
</g>
<!-- Node9 -->
<g id="Node000009" class="node">
<title>Node9</title>
<g id="a_Node000009"><a xlink:href="../../d3/dde/Vector3D_8hpp.html" target="_top" xlink:title="Defines a 3D vector structure with basic arithmetic and transformation operations.">
<polygon fill="white" stroke="#666666" points="510,-74 428,-74 428,-55 510,-55 510,-74"/>
<text text-anchor="middle" x="469" y="-62" font-family="Helvetica,sans-Serif" font-size="10.00">Vector3D.hpp</text>
</a>
</g>
</g>
<!-- Node2&#45;&gt;Node9 -->
<g id="edge43_Node000002_Node000009" class="edge">
<title>Node2&#45;&gt;Node9</title>
<g id="a_edge43_Node000002_Node000009"><a xlink:title=" ">
<path fill="none" stroke="#63b8ff" d="M898.34,-454.12C743.89,-453.79 334.16,-448.6 207,-404 166.63,-389.84 150.92,-385.13 128,-349 71.03,-259.21 35.56,-178.37 117,-110 161.48,-72.65 331.45,-66.18 417.88,-65.36"/>
<polygon fill="#63b8ff" stroke="#63b8ff" points="418.02,-68.86 427.99,-65.29 417.97,-61.86 418.02,-68.86"/>
</a>
</g>
</g>
<!-- Node2&#45;&gt;Node10 -->
<g id="edge58_Node000002_Node000010" class="edge">
<title>Node2&#45;&gt;Node10</title>
<g id="a_edge58_Node000002_Node000010"><a xlink:title=" ">
<path fill="none" stroke="#63b8ff" d="M1017.52,-447.56C1119.32,-434.87 1316,-402.36 1316,-340.5 1316,-340.5 1316,-340.5 1316,-118.5 1316,-60.52 876.45,-22.67 749.78,-12.97"/>
<polygon fill="#63b8ff" stroke="#63b8ff" points="749.76,-9.46 739.52,-12.19 749.23,-16.44 749.76,-9.46"/>
</a>
</g>
</g>
<!-- Node12 -->
<g id="Node000012" class="node">
<title>Node12</title>
<g id="a_Node000012"><a xlink:href="../../d0/d70/Material_8hpp.html" target="_top" xlink:title="Declares the physically&#45;based material descriptor used by the renderer.">
<polygon fill="white" stroke="#666666" points="308,-239 180,-239 180,-220 308,-220 308,-239"/>
<text text-anchor="middle" x="244" y="-227" font-family="Helvetica,sans-Serif" font-size="10.00">rendering/Material.hpp</text>
</a>
</g>
</g>
<!-- Node2&#45;&gt;Node12 -->
<g id="edge44_Node000002_Node000012" class="edge">
<title>Node2&#45;&gt;Node12</title>
<g id="a_edge44_Node000002_Node000012"><a xlink:title=" ">
<path fill="none" stroke="#63b8ff" d="M898.37,-453.86C739.42,-452.93 314.55,-446.44 269,-404 226,-363.94 233.65,-285.6 240,-249.52"/>
<polygon fill="#63b8ff" stroke="#63b8ff" points="243.5,-249.87 241.95,-239.39 236.62,-248.55 243.5,-249.87"/>
</a>
</g>
</g>
<!-- Node2&#45;&gt;Node17 -->
<g id="edge59_Node000002_Node000017" class="edge">
<title>Node2&#45;&gt;Node17</title>
<g id="a_edge59_Node000002_Node000017"><a xlink:title=" ">
<path fill="none" stroke="#63b8ff" d="M1017.87,-445.43C1055.53,-438.24 1104.17,-425.57 1143,-404 1205.11,-369.49 1230.67,-359.16 1259,-294 1273.3,-261.09 1269.05,-218.03 1264.88,-193.92"/>
<polygon fill="#63b8ff" stroke="#63b8ff" points="1268.3,-193.17 1262.98,-184.01 1261.43,-194.49 1268.3,-193.17"/>
</a>
</g>
</g>
<!-- Node18 -->
<g id="Node000018" class="node">
<title>Node18</title>
<g id="a_Node000018"><a xlink:href="../../da/da7/ILight_8hpp.html" target="_top" xlink:title="Abstract interface for all light sources in the path tracer.">
<polygon fill="white" stroke="#666666" points="1059.5,-349 994.5,-349 994.5,-330 1059.5,-330 1059.5,-349"/>
<text text-anchor="middle" x="1027" y="-337" font-family="Helvetica,sans-Serif" font-size="10.00">ILight.hpp</text>
</a>
</g>
</g>
<!-- Node2&#45;&gt;Node18 -->
<g id="edge41_Node000002_Node000018" class="edge">
<title>Node2&#45;&gt;Node18</title>
<g id="a_edge41_Node000002_Node000018"><a xlink:title=" ">
<path fill="none" stroke="#63b8ff" d="M960.9,-439.95C964.34,-425.39 971.04,-402.38 982,-385 988.91,-374.04 999,-363.74 1007.88,-355.81"/>
<polygon fill="#63b8ff" stroke="#63b8ff" points="1010.23,-358.41 1015.56,-349.25 1005.68,-353.08 1010.23,-358.41"/>
</a>
</g>
</g>
<!-- Node2&#45;&gt;Node20 -->
<g id="edge60_Node000002_Node000020" class="edge">
<title>Node2&#45;&gt;Node20</title>
<g id="a_edge60_Node000002_Node000020"><a xlink:title=" ">
<path fill="none" stroke="#63b8ff" d="M966.67,-439.82C976.66,-424.5 994.38,-400.24 1015,-385 1048.66,-360.13 1068.17,-373.63 1102,-349 1119.49,-336.27 1134.97,-316.75 1144.82,-302.72"/>
<polygon fill="#63b8ff" stroke="#63b8ff" points="1147.99,-304.27 1150.7,-294.02 1142.2,-300.35 1147.99,-304.27"/>
</a>
</g>
</g>
<!-- Node2&#45;&gt;Node21 -->
<g id="edge57_Node000002_Node000021" class="edge">
<title>Node2&#45;&gt;Node21</title>
<g id="a_edge57_Node000002_Node000021"><a xlink:title=" ">
<path fill="none" stroke="#63b8ff" d="M1017.73,-442.66C1048.68,-434.98 1086.14,-422.72 1116,-404 1159.79,-376.54 1198.09,-327.98 1216.45,-302.38"/>
<polygon fill="#63b8ff" stroke="#63b8ff" points="1219.41,-304.26 1222.29,-294.06 1213.68,-300.24 1219.41,-304.26"/>
</a>
</g>
</g>
<!-- Node22 -->
<g id="Node000022" class="node">
<title>Node22</title>
<g id="a_Node000022"><a xlink:href="../../d6/d46/Sphere_8hpp.html" target="_top" xlink:title="Declares the Sphere primitive for ray tracing.">
<polygon fill="white" stroke="#666666" points="402,-404 278,-404 278,-385 402,-385 402,-404"/>
<text text-anchor="middle" x="340" y="-392" font-family="Helvetica,sans-Serif" font-size="10.00">primitives/Sphere.hpp</text>
</a>
</g>
</g>
<!-- Node2&#45;&gt;Node22 -->
<g id="edge45_Node000002_Node000022" class="edge">
<title>Node2&#45;&gt;Node22</title>
<g id="a_edge45_Node000002_Node000022"><a xlink:title=" ">
<path fill="none" stroke="#63b8ff" d="M898.21,-448.87C798.3,-440.2 591.09,-421.87 416,-404 414.74,-403.87 413.46,-403.74 412.18,-403.61"/>
<polygon fill="#63b8ff" stroke="#63b8ff" points="412.51,-400.12 402.2,-402.56 411.78,-407.08 412.51,-400.12"/>
</a>
</g>
</g>
<!-- Node2&#45;&gt;Node23 -->
<g id="edge53_Node000002_Node000023" class="edge">
<title>Node2&#45;&gt;Node23</title>
<g id="a_edge53_Node000002_Node000023"><a xlink:title=" ">
<path fill="none" stroke="#63b8ff" d="M898.21,-452.3C735.93,-447.33 295.37,-431.46 236,-404 214.46,-394.04 196.4,-373.07 185.42,-357.96"/>
<polygon fill="#63b8ff" stroke="#63b8ff" points="188.1,-355.68 179.54,-349.45 182.35,-359.66 188.1,-355.68"/>
</a>
</g>
</g>
<!-- Node24 -->
<g id="Node000024" class="node">
<title>Node24</title>
<g id="a_Node000024"><a xlink:title=" ">
<polygon fill="#e0e0e0" stroke="#999999" points="1107.5,-404 1024.5,-404 1024.5,-385 1107.5,-385 1107.5,-404"/>
<text text-anchor="middle" x="1066" y="-392" font-family="Helvetica,sans-Serif" font-size="10.00">initializer_list</text>
</a>
</g>
</g>
<!-- Node2&#45;&gt;Node24 -->
<g id="edge61_Node000002_Node000024" class="edge">
<title>Node2&#45;&gt;Node24</title>
<g id="a_edge61_Node000002_Node000024"><a xlink:title=" ">
<path fill="none" stroke="#63b8ff" d="M983.87,-439.99C1001.24,-430.58 1024.01,-418.24 1041.17,-408.95"/>
<polygon fill="#63b8ff" stroke="#63b8ff" points="1042.92,-411.98 1050.05,-404.14 1039.59,-405.82 1042.92,-411.98"/>
</a>
</g>
</g>
<!-- Node4 -->
<g id="Node000004" class="node">
<title>Node4</title>
<g id="a_Node000004"><a xlink:title=" ">
<polygon fill="#e0e0e0" stroke="#999999" points="487.5,-294 440.5,-294 440.5,-275 487.5,-275 487.5,-294"/>
<text text-anchor="middle" x="464" y="-282" font-family="Helvetica,sans-Serif" font-size="10.00">vector</text>
</a>
</g>
</g>
<!-- Node3&#45;&gt;Node4 -->
<g id="edge3_Node000003_Node000004" class="edge">
<title>Node3&#45;&gt;Node4</title>
<g id="a_edge3_Node000003_Node000004"><a xlink:title=" ">
<path fill="none" stroke="#63b8ff" d="M862.46,-385.12C781.92,-364.98 578.32,-314.08 497.66,-293.92"/>
<polygon fill="#63b8ff" stroke="#63b8ff" points="498.11,-290.42 487.56,-291.39 496.41,-297.21 498.11,-290.42"/>
</a>
</g>
</g>
<!-- Node5 -->
<g id="Node000005" class="node">
<title>Node5</title>
<g id="a_Node000005"><a xlink:title=" ">
<polygon fill="#e0e0e0" stroke="#999999" points="916,-184 858,-184 858,-165 916,-165 916,-184"/>
<text text-anchor="middle" x="887" y="-172" font-family="Helvetica,sans-Serif" font-size="10.00">memory</text>
</a>
</g>
</g>
<!-- Node3&#45;&gt;Node5 -->
<g id="edge4_Node000003_Node000005" class="edge">
<title>Node3&#45;&gt;Node5</title>
<g id="a_edge4_Node000003_Node000005"><a xlink:title=" ">
<path fill="none" stroke="#63b8ff" d="M895.65,-384.95C894.33,-352.95 889.65,-239.68 887.78,-194.4"/>
<polygon fill="#63b8ff" stroke="#63b8ff" points="891.27,-194.07 887.36,-184.22 884.28,-194.36 891.27,-194.07"/>
</a>
</g>
</g>
<!-- Node6 -->
<g id="Node000006" class="node">
<title>Node6</title>
<g id="a_Node000006"><a xlink:href="../../de/d81/APrimitive_8hpp.html" target="_top" xlink:title=" ">
<polygon fill="white" stroke="#666666" points="657.5,-294 544.5,-294 544.5,-275 657.5,-275 657.5,-294"/>
<text text-anchor="middle" x="601" y="-282" font-family="Helvetica,sans-Serif" font-size="10.00">core/APrimitive.hpp</text>
</a>
</g>
</g>
<!-- Node3&#45;&gt;Node6 -->
<g id="edge5_Node000003_Node000006" class="edge">
<title>Node3&#45;&gt;Node6</title>
<g id="a_edge5_Node000003_Node000006"><a xlink:title=" ">
<path fill="none" stroke="#63b8ff" d="M872.36,-384.84C820.01,-365.68 694.22,-319.63 634.09,-297.62"/>
<polygon fill="#63b8ff" stroke="#63b8ff" points="634.94,-294.2 624.35,-294.05 632.53,-300.77 634.94,-294.2"/>
</a>
</g>
</g>
<!-- Node16 -->
<g id="Node000016" class="node">
<title>Node16</title>
<g id="a_Node000016"><a xlink:href="../../d6/d80/Camera_8hpp.html" target="_top" xlink:title="Declares the pin&#45;hole / thin&#45;lens camera used by the ray tracer.">
<polygon fill="white" stroke="#666666" points="1167,-239 1091,-239 1091,-220 1167,-220 1167,-239"/>
<text text-anchor="middle" x="1129" y="-227" font-family="Helvetica,sans-Serif" font-size="10.00">Camera.hpp</text>
</a>
</g>
</g>
<!-- Node3&#45;&gt;Node16 -->
<g id="edge23_Node000003_Node000016" class="edge">
<title>Node3&#45;&gt;Node16</title>
<g id="a_edge23_Node000003_Node000016"><a xlink:title=" ">
<path fill="none" stroke="#63b8ff" d="M929.66,-392.74C967.19,-390.24 1027.88,-381.06 1068,-349 1084.9,-335.49 1109.67,-278.47 1121.78,-248.73"/>
<polygon fill="#63b8ff" stroke="#63b8ff" points="1125.16,-249.72 1125.64,-239.13 1118.66,-247.11 1125.16,-249.72"/>
</a>
</g>
</g>
<!-- Node3&#45;&gt;Node18 -->
<g id="edge29_Node000003_Node000018" class="edge">
<title>Node3&#45;&gt;Node18</title>
<g id="a_edge29_Node000003_Node000018"><a xlink:title=" ">
<path fill="none" stroke="#63b8ff" d="M917.05,-384.98C938.41,-376.34 971.7,-362.87 996.06,-353.02"/>
<polygon fill="#63b8ff" stroke="#63b8ff" points="997.61,-356.17 1005.57,-349.17 994.99,-349.68 997.61,-356.17"/>
</a>
</g>
</g>
<!-- Node19 -->
<g id="Node000019" class="node">
<title>Node19</title>
<g id="a_Node000019"><a xlink:href="../../d9/dad/BVH_8hpp.html" target="_top" xlink:title="Declares the axis&#45;aligned bounding box (AABB) and the BVH node used for ray&#45;tracing acceleration.">
<polygon fill="white" stroke="#666666" points="849.5,-349 790.5,-349 790.5,-330 849.5,-330 849.5,-349"/>
<text text-anchor="middle" x="820" y="-337" font-family="Helvetica,sans-Serif" font-size="10.00">BVH.hpp</text>
</a>
</g>
</g>
<!-- Node3&#45;&gt;Node19 -->
<g id="edge32_Node000003_Node000019" class="edge">
<title>Node3&#45;&gt;Node19</title>
<g id="a_edge32_Node000003_Node000019"><a xlink:title=" ">
<path fill="none" stroke="#63b8ff" d="M883.79,-384.98C872.22,-376.92 854.62,-364.65 840.84,-355.03"/>
<polygon fill="#63b8ff" stroke="#63b8ff" points="842.64,-352.02 832.43,-349.17 838.63,-357.76 842.64,-352.02"/>
</a>
</g>
</g>
<!-- Node6&#45;&gt;Node7 -->
<g id="edge6_Node000006_Node000007" class="edge">
<title>Node6&#45;&gt;Node7</title>
<g id="a_edge6_Node000006_Node000007"><a xlink:title=" ">
<path fill="none" stroke="#63b8ff" d="M583.23,-274.96C569.99,-267.51 552.88,-255.33 545,-239 537.16,-222.77 548.68,-204.39 560.02,-191.6"/>
<polygon fill="#63b8ff" stroke="#63b8ff" points="562.84,-193.72 567.24,-184.08 557.79,-188.87 562.84,-193.72"/>
</a>
</g>
</g>
<!-- Node8 -->
<g id="Node000008" class="node">
<title>Node8</title>
<g id="a_Node000008"><a xlink:href="../../df/df2/Point3D_8hpp.html" target="_top" xlink:title="Defines a 3D point structure used in geometric computations.">
<polygon fill="white" stroke="#666666" points="925,-129 849,-129 849,-110 925,-110 925,-129"/>
<text text-anchor="middle" x="887" y="-117" font-family="Helvetica,sans-Serif" font-size="10.00">Point3D.hpp</text>
</a>
</g>
</g>
<!-- Node6&#45;&gt;Node8 -->
<g id="edge12_Node000006_Node000008" class="edge">
<title>Node6&#45;&gt;Node8</title>
<g id="a_edge12_Node000006_Node000008"><a xlink:title=" ">
<path fill="none" stroke="#63b8ff" d="M657.83,-276.82C692.88,-270.82 737.72,-259.62 773,-239 796.55,-225.23 848.48,-165.97 873.29,-136.82"/>
<polygon fill="#63b8ff" stroke="#63b8ff" points="876,-139.03 879.79,-129.14 870.66,-134.51 876,-139.03"/>
</a>
</g>
</g>
<!-- Node6&#45;&gt;Node9 -->
<g id="edge14_Node000006_Node000009" class="edge">
<title>Node6&#45;&gt;Node9</title>
<g id="a_edge14_Node000006_Node000009"><a xlink:title=" ">
<path fill="none" stroke="#63b8ff" d="M584.23,-274.97C570.45,-267.22 551.28,-254.63 539,-239 500.78,-190.35 480.68,-118.05 472.9,-84.22"/>
<polygon fill="#63b8ff" stroke="#63b8ff" points="476.29,-83.33 470.72,-74.32 469.45,-84.83 476.29,-83.33"/>
</a>
</g>
</g>
<!-- Node11 -->
<g id="Node000011" class="node">
<title>Node11</title>
<g id="a_Node000011"><a xlink:href="../../d8/d1e/Vector2D_8hpp.html" target="_top" xlink:title="Defines a 2D vector structure used for texture coordinates or screen&#45;space math operations.">
<polygon fill="white" stroke="#666666" points="764,-239 658,-239 658,-220 764,-220 764,-239"/>
<text text-anchor="middle" x="711" y="-227" font-family="Helvetica,sans-Serif" font-size="10.00">core/Vector2D.hpp</text>
</a>
</g>
</g>
<!-- Node6&#45;&gt;Node11 -->
<g id="edge13_Node000006_Node000011" class="edge">
<title>Node6&#45;&gt;Node11</title>
<g id="a_edge13_Node000006_Node000011"><a xlink:title=" ">
<path fill="none" stroke="#63b8ff" d="M618.67,-274.98C636.29,-266.5 663.58,-253.35 683.93,-243.54"/>
<polygon fill="#63b8ff" stroke="#63b8ff" points="685.52,-246.66 693.01,-239.17 682.48,-240.36 685.52,-246.66"/>
</a>
</g>
</g>
<!-- Node6&#45;&gt;Node12 -->
<g id="edge15_Node000006_Node000012" class="edge">
<title>Node6&#45;&gt;Node12</title>
<g id="a_edge15_Node000006_Node000012"><a xlink:title=" ">
<path fill="none" stroke="#63b8ff" d="M544.43,-275.1C481.22,-265.72 378.94,-250.53 311.57,-240.53"/>
<polygon fill="#63b8ff" stroke="#63b8ff" points="311.89,-237.04 301.49,-239.03 310.86,-243.96 311.89,-237.04"/>
</a>
</g>
</g>
<!-- Node15 -->
<g id="Node000015" class="node">
<title>Node15</title>
<g id="a_Node000015"><a xlink:href="../../d0/d38/IPrimitive_8hpp.html" target="_top" xlink:title="Interface for geometric primitives in the raytracer.">
<polygon fill="white" stroke="#666666" points="639.5,-239 554.5,-239 554.5,-220 639.5,-220 639.5,-239"/>
<text text-anchor="middle" x="597" y="-227" font-family="Helvetica,sans-Serif" font-size="10.00">IPrimitive.hpp</text>
</a>
</g>
</g>
<!-- Node6&#45;&gt;Node15 -->
<g id="edge21_Node000006_Node000015" class="edge">
<title>Node6&#45;&gt;Node15</title>
<g id="a_edge21_Node000006_Node000015"><a xlink:title=" ">
<path fill="none" stroke="#63b8ff" d="M600.34,-274.75C599.82,-267.8 599.06,-257.85 598.41,-249.13"/>
<polygon fill="#63b8ff" stroke="#63b8ff" points="601.89,-248.8 597.65,-239.09 594.91,-249.32 601.89,-248.8"/>
</a>
</g>
</g>
<!-- Node7&#45;&gt;Node8 -->
<g id="edge7_Node000007_Node000008" class="edge">
<title>Node7&#45;&gt;Node8</title>
<g id="a_edge7_Node000007_Node000008"><a xlink:title=" ">
<path fill="none" stroke="#63b8ff" d="M616.58,-166.73C673.2,-157.05 777.25,-139.26 838.46,-128.8"/>
<polygon fill="#63b8ff" stroke="#63b8ff" points="839.36,-132.2 848.63,-127.06 838.18,-125.3 839.36,-132.2"/>
</a>
</g>
</g>
<!-- Node7&#45;&gt;Node9 -->
<g id="edge11_Node000007_Node000009" class="edge">
<title>Node7&#45;&gt;Node9</title>
<g id="a_edge11_Node000007_Node000009"><a xlink:title=" ">
<path fill="none" stroke="#63b8ff" d="M568.16,-164.66C549.96,-146.46 508.05,-104.55 484.97,-81.47"/>
<polygon fill="#63b8ff" stroke="#63b8ff" points="487.2,-78.75 477.66,-74.16 482.25,-83.7 487.2,-78.75"/>
</a>
</g>
</g>
<!-- Node8&#45;&gt;Node9 -->
<g id="edge8_Node000008_Node000009" class="edge">
<title>Node8&#45;&gt;Node9</title>
<g id="a_edge8_Node000008_Node000009"><a xlink:title=" ">
<path fill="none" stroke="#63b8ff" d="M848.8,-113.66C773.27,-104.08 604.82,-82.72 519.95,-71.96"/>
<polygon fill="#63b8ff" stroke="#63b8ff" points="520.39,-68.49 510.03,-70.7 519.51,-75.43 520.39,-68.49"/>
</a>
</g>
</g>
<!-- Node8&#45;&gt;Node10 -->
<g id="edge10_Node000008_Node000010" class="edge">
<title>Node8&#45;&gt;Node10</title>
<g id="a_edge10_Node000008_Node000010"><a xlink:title=" ">
<path fill="none" stroke="#63b8ff" d="M873.3,-109.84C843.9,-91.28 774.56,-47.49 738.57,-24.75"/>
<polygon fill="#63b8ff" stroke="#63b8ff" points="740.09,-21.58 729.77,-19.2 736.36,-27.5 740.09,-21.58"/>
</a>
</g>
</g>
<!-- Node9&#45;&gt;Node10 -->
<g id="edge9_Node000009_Node000010" class="edge">
<title>Node9&#45;&gt;Node10</title>
<g id="a_edge9_Node000009_Node000010"><a xlink:title=" ">
<path fill="none" stroke="#63b8ff" d="M508.68,-54.98C556.89,-44.64 637.34,-27.38 682.54,-17.68"/>
<polygon fill="#63b8ff" stroke="#63b8ff" points="683.39,-21.08 692.43,-15.56 681.92,-14.23 683.39,-21.08"/>
</a>
</g>
</g>
<!-- Node12&#45;&gt;Node5 -->
<g id="edge17_Node000012_Node000005" class="edge">
<title>Node12&#45;&gt;Node5</title>
<g id="a_edge17_Node000012_Node000005"><a xlink:title=" ">
<path fill="none" stroke="#63b8ff" d="M308,-223.22C440.19,-212.33 739.99,-187.62 847.62,-178.75"/>
<polygon fill="#63b8ff" stroke="#63b8ff" points="848.04,-182.22 857.71,-177.91 847.46,-175.25 848.04,-182.22"/>
</a>
</g>
</g>
<!-- Node12&#45;&gt;Node9 -->
<g id="edge18_Node000012_Node000009" class="edge">
<title>Node12&#45;&gt;Node9</title>
<g id="a_edge18_Node000012_Node000009"><a xlink:title=" ">
<path fill="none" stroke="#63b8ff" d="M247.24,-219.86C255.86,-198.02 281.54,-140.21 322,-110 349.93,-89.15 387.67,-77.99 417.91,-72.06"/>
<polygon fill="#63b8ff" stroke="#63b8ff" points="418.65,-75.48 427.86,-70.24 417.39,-68.6 418.65,-75.48"/>
</a>
</g>
</g>
<!-- Node13 -->
<g id="Node000013" class="node">
<title>Node13</title>
<g id="a_Node000013"><a xlink:title=" ">
<polygon fill="#e0e0e0" stroke="#999999" points="193,-184 149,-184 149,-165 193,-165 193,-184"/>
<text text-anchor="middle" x="171" y="-172" font-family="Helvetica,sans-Serif" font-size="10.00">string</text>
</a>
</g>
</g>
<!-- Node12&#45;&gt;Node13 -->
<g id="edge16_Node000012_Node000013" class="edge">
<title>Node12&#45;&gt;Node13</title>
<g id="a_edge16_Node000012_Node000013"><a xlink:title=" ">
<path fill="none" stroke="#63b8ff" d="M232.27,-219.98C221.27,-212 204.58,-199.88 191.4,-190.31"/>
<polygon fill="#63b8ff" stroke="#63b8ff" points="193.09,-187.21 182.94,-184.17 188.98,-192.88 193.09,-187.21"/>
</a>
</g>
</g>
<!-- Node14 -->
<g id="Node000014" class="node">
<title>Node14</title>
<g id="a_Node000014"><a xlink:href="../../d0/ddc/Texture_8hpp.html" target="_top" xlink:title="Declares the abstract base class for all 2&#45;D textures. (Solid colour, checkerboard,...">
<polygon fill="white" stroke="#666666" points="269.5,-129 146.5,-129 146.5,-110 269.5,-110 269.5,-129"/>
<text text-anchor="middle" x="208" y="-117" font-family="Helvetica,sans-Serif" font-size="10.00">rendering/Texture.hpp</text>
</a>
</g>
</g>
<!-- Node12&#45;&gt;Node14 -->
<g id="edge19_Node000012_Node000014" class="edge">
<title>Node12&#45;&gt;Node14</title>
<g id="a_edge19_Node000012_Node000014"><a xlink:title=" ">
<path fill="none" stroke="#63b8ff" d="M241.05,-219.66C235.2,-202.09 221.98,-162.45 214.15,-138.95"/>
<polygon fill="#63b8ff" stroke="#63b8ff" points="217.37,-137.54 210.89,-129.16 210.73,-139.75 217.37,-137.54"/>
</a>
</g>
</g>
<!-- Node14&#45;&gt;Node9 -->
<g id="edge20_Node000014_Node000009" class="edge">
<title>Node14&#45;&gt;Node9</title>
<g id="a_edge20_Node000014_Node000009"><a xlink:title=" ">
<path fill="none" stroke="#63b8ff" d="M249.93,-109.98C295.54,-100.72 368.47,-85.91 417.52,-75.95"/>
<polygon fill="#63b8ff" stroke="#63b8ff" points="418.5,-79.33 427.6,-73.91 417.1,-72.47 418.5,-79.33"/>
</a>
</g>
</g>
<!-- Node15&#45;&gt;Node7 -->
<g id="edge22_Node000015_Node000007" class="edge">
<title>Node15&#45;&gt;Node7</title>
<g id="a_edge22_Node000015_Node000007"><a xlink:title=" ">
<path fill="none" stroke="#63b8ff" d="M593.7,-219.75C591.02,-212.65 587.15,-202.4 583.81,-193.56"/>
<polygon fill="#63b8ff" stroke="#63b8ff" points="587.05,-192.21 580.24,-184.09 580.5,-194.68 587.05,-192.21"/>
</a>
</g>
</g>
<!-- Node16&#45;&gt;Node7 -->
<g id="edge26_Node000016_Node000007" class="edge">
<title>Node16&#45;&gt;Node7</title>
<g id="a_edge26_Node000016_Node000007"><a xlink:title=" ">
<path fill="none" stroke="#63b8ff" d="M1090.62,-224.82C993.04,-215.45 735.48,-190.72 626.65,-180.27"/>
<polygon fill="#63b8ff" stroke="#63b8ff" points="626.89,-176.77 616.6,-179.3 626.22,-183.74 626.89,-176.77"/>
</a>
</g>
</g>
<!-- Node16&#45;&gt;Node8 -->
<g id="edge24_Node000016_Node000008" class="edge">
<title>Node16&#45;&gt;Node8</title>
<g id="a_edge24_Node000016_Node000008"><a xlink:title=" ">
<path fill="none" stroke="#63b8ff" d="M1118.51,-219.96C1101.64,-206.58 1067,-180.6 1034,-165 1002.41,-150.07 964.64,-138.76 935.3,-131.28"/>
<polygon fill="#63b8ff" stroke="#63b8ff" points="935.84,-127.81 925.29,-128.8 934.15,-134.6 935.84,-127.81"/>
</a>
</g>
</g>
<!-- Node16&#45;&gt;Node9 -->
<g id="edge25_Node000016_Node000009" class="edge">
<title>Node16&#45;&gt;Node9</title>
<g id="a_edge25_Node000016_Node000009"><a xlink:title=" ">
<path fill="none" stroke="#63b8ff" d="M1127.77,-219.73C1124.09,-197.07 1110.87,-136.48 1072,-110 1026.98,-79.33 658.46,-69.14 520.7,-66.38"/>
<polygon fill="#63b8ff" stroke="#63b8ff" points="520.48,-62.88 510.41,-66.18 520.34,-69.88 520.48,-62.88"/>
</a>
</g>
</g>
<!-- Node16&#45;&gt;Node10 -->
<g id="edge27_Node000016_Node000010" class="edge">
<title>Node16&#45;&gt;Node10</title>
<g id="a_edge27_Node000016_Node000010"><a xlink:title=" ">
<path fill="none" stroke="#63b8ff" d="M1130.97,-219.66C1133.38,-207.19 1136.49,-183.85 1131,-165 1122.9,-137.18 1119.41,-127.07 1096,-110 987.51,-30.88 821.12,-14.61 750.07,-11.31"/>
<polygon fill="#63b8ff" stroke="#63b8ff" points="750.03,-7.81 739.9,-10.9 749.75,-14.8 750.03,-7.81"/>
</a>
</g>
</g>
<!-- Node16&#45;&gt;Node17 -->
<g id="edge28_Node000016_Node000017" class="edge">
<title>Node16&#45;&gt;Node17</title>
<g id="a_edge28_Node000016_Node000017"><a xlink:title=" ">
<path fill="none" stroke="#63b8ff" d="M1150.21,-219.98C1171.73,-211.34 1205.28,-197.87 1229.83,-188.02"/>
<polygon fill="#63b8ff" stroke="#63b8ff" points="1231.43,-191.14 1239.41,-184.17 1228.82,-184.65 1231.43,-191.14"/>
</a>
</g>
</g>
<!-- Node18&#45;&gt;Node8 -->
<g id="edge30_Node000018_Node000008" class="edge">
<title>Node18&#45;&gt;Node8</title>
<g id="a_edge30_Node000018_Node000008"><a xlink:title=" ">
<path fill="none" stroke="#63b8ff" d="M1028.14,-329.75C1031.23,-302.13 1036.98,-215.68 996,-165 980.9,-146.32 956.7,-135.42 934.93,-129.08"/>
<polygon fill="#63b8ff" stroke="#63b8ff" points="935.7,-125.67 925.14,-126.48 933.91,-132.43 935.7,-125.67"/>
</a>
</g>
</g>
<!-- Node18&#45;&gt;Node9 -->
<g id="edge31_Node000018_Node000009" class="edge">
<title>Node18&#45;&gt;Node9</title>
<g id="a_edge31_Node000018_Node000009"><a xlink:title=" ">
<path fill="none" stroke="#63b8ff" d="M1031.31,-329.78C1039.83,-311.73 1058,-268.73 1058,-230.5 1058,-230.5 1058,-230.5 1058,-173.5 1058,-111.58 993.43,-127.37 934,-110 857.52,-87.65 624.48,-73.39 520.28,-67.97"/>
<polygon fill="#63b8ff" stroke="#63b8ff" points="520.18,-64.46 510.02,-67.44 519.82,-71.45 520.18,-64.46"/>
</a>
</g>
</g>
<!-- Node19&#45;&gt;Node4 -->
<g id="edge34_Node000019_Node000004" class="edge">
<title>Node19&#45;&gt;Node4</title>
<g id="a_edge34_Node000019_Node000004"><a xlink:title=" ">
<path fill="none" stroke="#63b8ff" d="M790.5,-335.18C734.19,-328.67 607.59,-313.16 502,-294 500.54,-293.74 499.06,-293.45 497.56,-293.16"/>
<polygon fill="#63b8ff" stroke="#63b8ff" points="498.16,-289.71 487.66,-291.1 496.73,-296.56 498.16,-289.71"/>
</a>
</g>
</g>
<!-- Node19&#45;&gt;Node5 -->
<g id="edge33_Node000019_Node000005" class="edge">
<title>Node19&#45;&gt;Node5</title>
<g id="a_edge33_Node000019_Node000005"><a xlink:title=" ">
<path fill="none" stroke="#63b8ff" d="M823.6,-329.74C834.14,-304.09 865.1,-228.78 879.49,-193.78"/>
<polygon fill="#63b8ff" stroke="#63b8ff" points="882.82,-194.89 883.38,-184.31 876.34,-192.23 882.82,-194.89"/>
</a>
</g>
</g>
<!-- Node19&#45;&gt;Node6 -->
<g id="edge38_Node000019_Node000006" class="edge">
<title>Node19&#45;&gt;Node6</title>
<g id="a_edge38_Node000019_Node000006"><a xlink:title=" ">
<path fill="none" stroke="#63b8ff" d="M790.46,-331.35C753.39,-322.38 689.43,-306.9 646.19,-296.44"/>
<polygon fill="#63b8ff" stroke="#63b8ff" points="646.75,-292.97 636.21,-294.02 645.11,-299.78 646.75,-292.97"/>
</a>
</g>
</g>
<!-- Node19&#45;&gt;Node7 -->
<g id="edge37_Node000019_Node000007" class="edge">
<title>Node19&#45;&gt;Node7</title>
<g id="a_edge37_Node000019_Node000007"><a xlink:title=" ">
<path fill="none" stroke="#63b8ff" d="M819.25,-329.78C816.87,-307.75 807.46,-249.51 773,-220 751.37,-201.47 677.62,-188.48 627.02,-181.49"/>
<polygon fill="#63b8ff" stroke="#63b8ff" points="627.29,-178 616.92,-180.14 626.36,-184.94 627.29,-178"/>
</a>
</g>
</g>
<!-- Node19&#45;&gt;Node8 -->
<g id="edge39_Node000019_Node000008" class="edge">
<title>Node19&#45;&gt;Node8</title>
<g id="a_edge39_Node000019_Node000008"><a xlink:title=" ">
<path fill="none" stroke="#63b8ff" d="M829,-329.84C850.98,-307.96 906.92,-247.64 925,-184 927.31,-175.88 927.92,-172.92 925,-165 920.94,-153.99 912.81,-143.86 905.1,-136.05"/>
<polygon fill="#63b8ff" stroke="#63b8ff" points="907.39,-133.39 897.71,-129.07 902.58,-138.48 907.39,-133.39"/>
</a>
</g>
</g>
<!-- Node19&#45;&gt;Node9 -->
<g id="edge40_Node000019_Node000009" class="edge">
<title>Node19&#45;&gt;Node9</title>
<g id="a_edge40_Node000019_Node000009"><a xlink:title=" ">
<path fill="none" stroke="#63b8ff" d="M790.42,-335.6C721.48,-328.61 554.51,-310.19 535,-294 470.68,-240.65 466.81,-128.84 468.01,-84.35"/>
<polygon fill="#63b8ff" stroke="#63b8ff" points="471.51,-84.47 468.4,-74.34 464.51,-84.2 471.51,-84.47"/>
</a>
</g>
</g>
<!-- Node19&#45;&gt;Node20 -->
<g id="edge35_Node000019_Node000020" class="edge">
<title>Node19&#45;&gt;Node20</title>
<g id="a_edge35_Node000019_Node000020"><a xlink:title=" ">
<path fill="none" stroke="#63b8ff" d="M849.52,-333.84C909.23,-324.42 1044.51,-303.09 1113.63,-292.18"/>
<polygon fill="#63b8ff" stroke="#63b8ff" points="1114.4,-295.61 1123.73,-290.59 1113.31,-288.69 1114.4,-295.61"/>
</a>
</g>
</g>
<!-- Node19&#45;&gt;Node21 -->
<g id="edge36_Node000019_Node000021" class="edge">
<title>Node19&#45;&gt;Node21</title>
<g id="a_edge36_Node000019_Node000021"><a xlink:title=" ">
<path fill="none" stroke="#63b8ff" d="M849.56,-336.53C911.88,-332.05 1061.38,-319.6 1195.69,-293.98"/>
<polygon fill="#63b8ff" stroke="#63b8ff" points="1196.59,-297.37 1205.74,-292.03 1195.26,-290.5 1196.59,-297.37"/>
</a>
</g>
</g>
<!-- Node22&#45;&gt;Node6 -->
<g id="edge46_Node000022_Node000006" class="edge">
<title>Node22&#45;&gt;Node6</title>
<g id="a_edge46_Node000022_Node000006"><a xlink:title=" ">
<path fill="none" stroke="#63b8ff" d="M360.92,-384.84C407.04,-365.76 517.6,-320.01 571.06,-297.89"/>
<polygon fill="#63b8ff" stroke="#63b8ff" points="572.44,-301.1 580.35,-294.05 569.77,-294.64 572.44,-301.1"/>
</a>
</g>
</g>
<!-- Node22&#45;&gt;Node7 -->
<g id="edge49_Node000022_Node000007" class="edge">
<title>Node22&#45;&gt;Node7</title>
<g id="a_edge49_Node000022_Node000007"><a xlink:title=" ">
<path fill="none" stroke="#63b8ff" d="M342.36,-384.88C351.56,-351.47 385.17,-231.85 398,-220 432.94,-187.71 487.61,-177.91 527.35,-175.38"/>
<polygon fill="#63b8ff" stroke="#63b8ff" points="527.55,-178.87 537.36,-174.87 527.2,-171.88 527.55,-178.87"/>
</a>
</g>
</g>
<!-- Node22&#45;&gt;Node8 -->
<g id="edge47_Node000022_Node000008" class="edge">
<title>Node22&#45;&gt;Node8</title>
<g id="a_edge47_Node000022_Node000008"><a xlink:title=" ">
<path fill="none" stroke="#63b8ff" d="M402.42,-391.39C531.83,-386.54 820.47,-373.14 858,-349 926.87,-304.7 925.79,-264.65 940,-184 941.47,-175.68 943.57,-172.65 940,-165 934.17,-152.49 922.91,-142.25 912.25,-134.76"/>
<polygon fill="#63b8ff" stroke="#63b8ff" points="913.88,-131.64 903.58,-129.13 910.06,-137.51 913.88,-131.64"/>
</a>
</g>
</g>
<!-- Node22&#45;&gt;Node9 -->
<g id="edge48_Node000022_Node000009" class="edge">
<title>Node22&#45;&gt;Node9</title>
<g id="a_edge48_Node000022_Node000009"><a xlink:title=" ">
<path fill="none" stroke="#63b8ff" d="M339.46,-384.82C338.37,-366.49 336,-322.46 336,-285.5 336,-285.5 336,-285.5 336,-173.5 336,-123.87 392.5,-93.05 431.85,-77.61"/>
<polygon fill="#63b8ff" stroke="#63b8ff" points="433.31,-80.8 441.44,-74.02 430.85,-74.25 433.31,-80.8"/>
</a>
</g>
</g>
<!-- Node22&#45;&gt;Node10 -->
<g id="edge52_Node000022_Node000010" class="edge">
<title>Node22&#45;&gt;Node10</title>
<g id="a_edge52_Node000022_Node000010"><a xlink:title=" ">
<path fill="none" stroke="#63b8ff" d="M277.88,-386.42C224.03,-379.22 151.21,-366.63 128,-349 58.82,-296.46 38,-262.37 38,-175.5 38,-175.5 38,-175.5 38,-118.5 38,-52.57 544.46,-19.93 681.93,-12.28"/>
<polygon fill="#63b8ff" stroke="#63b8ff" points="682.47,-15.76 692.27,-11.72 682.09,-8.77 682.47,-15.76"/>
</a>
</g>
</g>
<!-- Node22&#45;&gt;Node12 -->
<g id="edge50_Node000022_Node000012" class="edge">
<title>Node22&#45;&gt;Node12</title>
<g id="a_edge50_Node000022_Node000012"><a xlink:title=" ">
<path fill="none" stroke="#63b8ff" d="M334.84,-384.74C319.67,-358.98 275,-283.13 254.5,-248.33"/>
<polygon fill="#63b8ff" stroke="#63b8ff" points="257.28,-246.15 249.19,-239.31 251.25,-249.7 257.28,-246.15"/>
</a>
</g>
</g>
<!-- Node22&#45;&gt;Node19 -->
<g id="edge51_Node000022_Node000019" class="edge">
<title>Node22&#45;&gt;Node19</title>
<g id="a_edge51_Node000022_Node000019"><a xlink:title=" ">
<path fill="none" stroke="#63b8ff" d="M402.26,-386.63C502.48,-375.56 696.79,-354.1 780.29,-344.88"/>
<polygon fill="#63b8ff" stroke="#63b8ff" points="780.82,-348.35 790.38,-343.77 780.05,-341.39 780.82,-348.35"/>
</a>
</g>
</g>
<!-- Node23&#45;&gt;Node4 -->
<g id="edge56_Node000023_Node000004" class="edge">
<title>Node23&#45;&gt;Node4</title>
<g id="a_edge56_Node000023_Node000004"><a xlink:title=" ">
<path fill="none" stroke="#63b8ff" d="M210.73,-331.79C267.43,-321.42 375.45,-301.68 430.27,-291.66"/>
<polygon fill="#63b8ff" stroke="#63b8ff" points="430.98,-295.09 440.18,-289.85 429.72,-288.21 430.98,-295.09"/>
</a>
</g>
</g>
<!-- Node23&#45;&gt;Node9 -->
<g id="edge54_Node000023_Node000009" class="edge">
<title>Node23&#45;&gt;Node9</title>
<g id="a_edge54_Node000023_Node000009"><a xlink:title=" ">
<path fill="none" stroke="#63b8ff" d="M165.15,-329.89C148.46,-312.68 114,-272.11 114,-230.5 114,-230.5 114,-230.5 114,-173.5 114,-143.48 113.63,-128.83 137,-110 179.12,-76.06 335.36,-67.95 417.61,-66.05"/>
<polygon fill="#63b8ff" stroke="#63b8ff" points="417.82,-69.55 427.74,-65.84 417.67,-62.55 417.82,-69.55"/>
</a>
</g>
</g>
<!-- Node23&#45;&gt;Node13 -->
<g id="edge55_Node000023_Node000013" class="edge">
<title>Node23&#45;&gt;Node13</title>
<g id="a_edge55_Node000023_Node000013"><a xlink:title=" ">
<path fill="none" stroke="#63b8ff" d="M173.66,-329.98C172.98,-312.79 171.51,-272.7 171,-239 170.77,-223.98 170.79,-206.95 170.85,-194.32"/>
<polygon fill="#63b8ff" stroke="#63b8ff" points="174.35,-194.15 170.92,-184.13 167.35,-194.11 174.35,-194.15"/>
</a>
</g>
</g>
</g>
</svg>
