<?xml version="1.0" encoding="UTF-8" standalone="no"?>
<!DOCTYPE svg PUBLIC "-//W3C//DTD SVG 1.1//EN"
 "http://www.w3.org/Graphics/SVG/1.1/DTD/svg11.dtd">
<!-- Generated by graphviz version 2.43.0 (0)
 -->
<!-- Title: RayTracer::CheckerTexture Pages: 1 -->
<svg width="226pt" height="104pt"
 viewBox="0.00 0.00 225.50 104.00" xmlns="http://www.w3.org/2000/svg" xmlns:xlink="http://www.w3.org/1999/xlink">
<g id="graph0" class="graph" transform="scale(1 1) rotate(0) translate(4 100)">
<title>RayTracer::CheckerTexture</title>
<!-- Node1 -->
<g id="Node000001" class="node">
<title>Node1</title>
<g id="a_Node000001"><a xlink:title="Procedural checkerboard pattern.">
<polygon fill="#999999" stroke="#666666" points="185.5,-19 39.5,-19 39.5,0 185.5,0 185.5,-19"/>
<text text-anchor="middle" x="112.5" y="-7" font-family="Helvetica,sans-Serif" font-size="10.00">RayTracer::CheckerTexture</text>
</a>
</g>
</g>
<!-- Node2 -->
<g id="Node000002" class="node">
<title>Node2</title>
<g id="a_Node000002"><a xlink:href="../../d8/da7/structRayTracer_1_1Texture.html" target="_top" xlink:title="Abstract interface for UV&#45;mapped colour sources.">
<polygon fill="white" stroke="#666666" points="107,-96 0,-96 0,-77 107,-77 107,-96"/>
<text text-anchor="middle" x="53.5" y="-84" font-family="Helvetica,sans-Serif" font-size="10.00">RayTracer::Texture</text>
</a>
</g>
</g>
<!-- Node2&#45;&gt;Node1 -->
<g id="edge1_Node000001_Node000002" class="edge">
<title>Node2&#45;&gt;Node1</title>
<g id="a_edge1_Node000001_Node000002"><a xlink:title=" ">
<path fill="none" stroke="#63b8ff" d="M66.69,-68.73C78.83,-53.3 96.34,-31.04 105.81,-19"/>
<polygon fill="#63b8ff" stroke="#63b8ff" points="63.7,-66.87 60.27,-76.9 69.2,-71.2 63.7,-66.87"/>
</a>
</g>
</g>
<!-- Node3 -->
<g id="Node000003" class="node">
<title>Node3</title>
<g id="a_Node000003"><a xlink:href="../../d6/d30/structMath_1_1Vector3D.html" target="_top" xlink:title="Represents a 3D vector with real coordinates.">
<polygon fill="white" stroke="#666666" points="217.5,-96 125.5,-96 125.5,-77 217.5,-77 217.5,-96"/>
<text text-anchor="middle" x="171.5" y="-84" font-family="Helvetica,sans-Serif" font-size="10.00">Math::Vector3D</text>
</a>
</g>
</g>
<!-- Node3&#45;&gt;Node1 -->
<g id="edge2_Node000001_Node000003" class="edge">
<title>Node3&#45;&gt;Node1</title>
<g id="a_edge2_Node000001_Node000003"><a xlink:title=" ">
<path fill="none" stroke="#9a32cd" stroke-dasharray="5,2" d="M158.31,-68.73C146.17,-53.3 128.66,-31.04 119.19,-19"/>
<polygon fill="#9a32cd" stroke="#9a32cd" points="155.8,-71.2 164.73,-76.9 161.3,-66.87 155.8,-71.2"/>
</a>
</g>
<text text-anchor="middle" x="158.5" y="-51" font-family="Helvetica,sans-Serif" font-size="10.00" fill="grey"> _c1</text>
<text text-anchor="middle" x="158.5" y="-40" font-family="Helvetica,sans-Serif" font-size="10.00" fill="grey">_c2</text>
</g>
</g>
</svg>
