<?xml version="1.0" encoding="UTF-8" standalone="no"?>
<!DOCTYPE svg PUBLIC "-//W3C//DTD SVG 1.1//EN"
 "http://www.w3.org/Graphics/SVG/1.1/DTD/svg11.dtd">
<!-- Generated by graphviz version 2.43.0 (0)
 -->
<!-- Title: Raytracer::run Pages: 1 -->
<svg width="1012pt" height="945pt"
 viewBox="0.00 0.00 1012.00 945.00" xmlns="http://www.w3.org/2000/svg" xmlns:xlink="http://www.w3.org/1999/xlink">
<g id="graph0" class="graph" transform="scale(1 1) rotate(0) translate(4 941)">
<title>Raytracer::run</title>
<!-- Node1 -->
<g id="Node000001" class="node">
<title>Node1</title>
<g id="a_Node000001"><a xlink:title="Launch the raytracing process.">
<polygon fill="#999999" stroke="#666666" points="86,-295 0,-295 0,-276 86,-276 86,-295"/>
<text text-anchor="middle" x="43" y="-283" font-family="Helvetica,sans-Serif" font-size="10.00">Raytracer::run</text>
</a>
</g>
</g>
<!-- Node2 -->
<g id="Node000002" class="node">
<title>Node2</title>
<g id="a_Node000002"><a xlink:href="../../d4/d3d/namespaceUtils.html#a6b68818bad484580792ffda049766b6e" target="_top" xlink:title="Builds a BVH from a list of smart pointers to primitives.">
<polygon fill="white" stroke="#666666" points="239.5,-536 149.5,-536 149.5,-517 239.5,-517 239.5,-536"/>
<text text-anchor="middle" x="194.5" y="-524" font-family="Helvetica,sans-Serif" font-size="10.00">Utils::buildBVH</text>
</a>
</g>
</g>
<!-- Node1&#45;&gt;Node2 -->
<g id="edge1_Node000001_Node000002" class="edge">
<title>Node1&#45;&gt;Node2</title>
<g id="a_edge1_Node000001_Node000002"><a xlink:title=" ">
<path fill="none" stroke="#63b8ff" d="M44.3,-295.27C45.94,-329.97 56.3,-448.46 122,-508.5 127.08,-513.14 133.18,-516.63 139.64,-519.24"/>
<polygon fill="#63b8ff" stroke="#63b8ff" points="138.71,-522.62 149.3,-522.47 140.93,-515.98 138.71,-522.62"/>
</a>
</g>
</g>
<!-- Node5 -->
<g id="Node000005" class="node">
<title>Node5</title>
<g id="a_Node000005"><a xlink:href="../../d4/d3d/namespaceUtils.html#adb433477d0f08da1b223827ed05eef66" target="_top" xlink:title="Validates the command&#45;line argument count.">
<polygon fill="white" stroke="#666666" points="246.5,-499 142.5,-499 142.5,-480 246.5,-480 246.5,-499"/>
<text text-anchor="middle" x="194.5" y="-487" font-family="Helvetica,sans-Serif" font-size="10.00">Utils::checkUsage</text>
</a>
</g>
</g>
<!-- Node1&#45;&gt;Node5 -->
<g id="edge4_Node000001_Node000005" class="edge">
<title>Node1&#45;&gt;Node5</title>
<g id="a_edge4_Node000001_Node000005"><a xlink:title=" ">
<path fill="none" stroke="#63b8ff" d="M45.08,-295.36C49,-326.4 65.45,-422.87 122,-471.5 125.28,-474.32 128.93,-476.7 132.81,-478.72"/>
<polygon fill="#63b8ff" stroke="#63b8ff" points="131.62,-482.02 142.18,-482.81 134.41,-475.61 131.62,-482.02"/>
</a>
</g>
</g>
<!-- Node6 -->
<g id="Node000006" class="node">
<title>Node6</title>
<g id="a_Node000006"><a xlink:href="../../d4/d3d/namespaceUtils.html#a23409e98a4976f47f3825ff7a9d9c8dc" target="_top" xlink:title="Creates a camera from render parameters.">
<polygon fill="white" stroke="#666666" points="251.5,-462 137.5,-462 137.5,-443 251.5,-443 251.5,-462"/>
<text text-anchor="middle" x="194.5" y="-450" font-family="Helvetica,sans-Serif" font-size="10.00">Utils::createCamera</text>
</a>
</g>
</g>
<!-- Node1&#45;&gt;Node6 -->
<g id="edge5_Node000001_Node000006" class="edge">
<title>Node1&#45;&gt;Node6</title>
<g id="a_edge5_Node000001_Node000006"><a xlink:title=" ">
<path fill="none" stroke="#63b8ff" d="M46.17,-295.29C52.62,-322.04 74.31,-396.9 122,-434.5 124.02,-436.09 126.17,-437.55 128.41,-438.88"/>
<polygon fill="#63b8ff" stroke="#63b8ff" points="126.92,-442.05 137.43,-443.39 130.05,-435.79 126.92,-442.05"/>
</a>
</g>
</g>
<!-- Node7 -->
<g id="Node000007" class="node">
<title>Node7</title>
<g id="a_Node000007"><a xlink:href="../../d4/d3d/namespaceUtils.html#a704495a4dfb63d8716ffe636ddbb7b68" target="_top" xlink:title="Applies a basic denoising algorithm to the framebuffer.">
<polygon fill="white" stroke="#666666" points="236,-425 153,-425 153,-406 236,-406 236,-425"/>
<text text-anchor="middle" x="194.5" y="-413" font-family="Helvetica,sans-Serif" font-size="10.00">Utils::denoise</text>
</a>
</g>
</g>
<!-- Node1&#45;&gt;Node7 -->
<g id="edge6_Node000001_Node000007" class="edge">
<title>Node1&#45;&gt;Node7</title>
<g id="a_edge6_Node000001_Node000007"><a xlink:title=" ">
<path fill="none" stroke="#63b8ff" d="M47.83,-295.04C57.08,-316.82 82.81,-370.43 122,-397.5 128.3,-401.85 135.55,-405.15 142.98,-407.65"/>
<polygon fill="#63b8ff" stroke="#63b8ff" points="142.19,-411.07 152.77,-410.51 144.15,-404.35 142.19,-411.07"/>
</a>
</g>
</g>
<!-- Node8 -->
<g id="Node000008" class="node">
<title>Node8</title>
<g id="a_Node000008"><a xlink:href="../../d4/d3d/namespaceUtils.html#abdca61c5ca7a026eae7f8a2bc2b2dd2b" target="_top" xlink:title="Extracts render parameters from command&#45;line arguments.">
<polygon fill="white" stroke="#666666" points="260,-388 129,-388 129,-369 260,-369 260,-388"/>
<text text-anchor="middle" x="194.5" y="-376" font-family="Helvetica,sans-Serif" font-size="10.00">Utils::getRenderParams</text>
</a>
</g>
</g>
<!-- Node1&#45;&gt;Node8 -->
<g id="edge7_Node000001_Node000008" class="edge">
<title>Node1&#45;&gt;Node8</title>
<g id="a_edge7_Node000001_Node000008"><a xlink:title=" ">
<path fill="none" stroke="#63b8ff" d="M51.25,-295.2C63.82,-311.3 91.28,-343.47 122,-360.5 125.27,-362.31 128.73,-363.95 132.28,-365.42"/>
<polygon fill="#63b8ff" stroke="#63b8ff" points="131.28,-368.78 141.87,-368.95 133.69,-362.21 131.28,-368.78"/>
</a>
</g>
</g>
<!-- Node9 -->
<g id="Node000009" class="node">
<title>Node9</title>
<g id="a_Node000009"><a xlink:href="../../d4/d3d/namespaceUtils.html#aad53042e10cdf4f0db031913ac1f5a7f" target="_top" xlink:title="Check if debug mode is enabled through CLI args.">
<polygon fill="white" stroke="#666666" points="267,-351 122,-351 122,-332 267,-332 267,-351"/>
<text text-anchor="middle" x="194.5" y="-339" font-family="Helvetica,sans-Serif" font-size="10.00">Utils::isDebugModeEnable</text>
</a>
</g>
</g>
<!-- Node1&#45;&gt;Node9 -->
<g id="edge8_Node000001_Node000009" class="edge">
<title>Node1&#45;&gt;Node9</title>
<g id="a_edge8_Node000001_Node000009"><a xlink:title=" ">
<path fill="none" stroke="#63b8ff" d="M60.9,-295C76.41,-303.41 100.21,-315.55 122,-323.5 127.62,-325.55 133.58,-327.46 139.56,-329.2"/>
<polygon fill="#63b8ff" stroke="#63b8ff" points="139.01,-332.68 149.58,-331.97 140.88,-325.93 139.01,-332.68"/>
</a>
</g>
</g>
<!-- Node10 -->
<g id="Node000010" class="node">
<title>Node10</title>
<g id="a_Node000010"><a xlink:href="../../d4/d3d/namespaceUtils.html#a763a2a5523575e2175022d2623a77d05" target="_top" xlink:title="Loads a scene from file, or exits on failure.">
<polygon fill="white" stroke="#666666" points="257,-314 132,-314 132,-295 257,-295 257,-314"/>
<text text-anchor="middle" x="194.5" y="-302" font-family="Helvetica,sans-Serif" font-size="10.00">Utils::loadSceneOrExit</text>
</a>
</g>
</g>
<!-- Node1&#45;&gt;Node10 -->
<g id="edge9_Node000001_Node000010" class="edge">
<title>Node1&#45;&gt;Node10</title>
<g id="a_edge9_Node000001_Node000010"><a xlink:title=" ">
<path fill="none" stroke="#63b8ff" d="M86.04,-290.84C97.17,-292.26 109.51,-293.83 121.74,-295.38"/>
<polygon fill="#63b8ff" stroke="#63b8ff" points="121.6,-298.89 131.97,-296.68 122.49,-291.95 121.6,-298.89"/>
</a>
</g>
</g>
<!-- Node49 -->
<g id="Node000049" class="node">
<title>Node49</title>
<g id="a_Node000049"><a xlink:href="../../d4/d3d/namespaceUtils.html#a46b2b4094ba94a6a8c99e8230f6e72ab" target="_top" xlink:title="Determines whether to display a progress bar.">
<polygon fill="white" stroke="#666666" points="251.5,-240 137.5,-240 137.5,-221 251.5,-221 251.5,-240"/>
<text text-anchor="middle" x="194.5" y="-228" font-family="Helvetica,sans-Serif" font-size="10.00">Utils::parseProgress</text>
</a>
</g>
</g>
<!-- Node1&#45;&gt;Node49 -->
<g id="edge28_Node000001_Node000049" class="edge">
<title>Node1&#45;&gt;Node49</title>
<g id="a_edge28_Node000001_Node000049"><a xlink:title=" ">
<path fill="none" stroke="#63b8ff" d="M62.22,-276C77.79,-268.14 100.95,-257.09 122,-249.5 128.58,-247.13 135.59,-244.91 142.55,-242.88"/>
<polygon fill="#63b8ff" stroke="#63b8ff" points="143.98,-246.11 152.66,-240.05 142.09,-239.37 143.98,-246.11"/>
</a>
</g>
</g>
<!-- Node50 -->
<g id="Node000050" class="node">
<title>Node50</title>
<g id="a_Node000050"><a xlink:href="../../d4/d3d/namespaceUtils.html#a90e2950a16dc3e304315292e607d461d" target="_top" xlink:title="Parses thread count from CLI arguments.">
<polygon fill="white" stroke="#666666" points="250,-203 139,-203 139,-184 250,-184 250,-203"/>
<text text-anchor="middle" x="194.5" y="-191" font-family="Helvetica,sans-Serif" font-size="10.00">Utils::parseThreads</text>
</a>
</g>
</g>
<!-- Node1&#45;&gt;Node50 -->
<g id="edge29_Node000001_Node000050" class="edge">
<title>Node1&#45;&gt;Node50</title>
<g id="a_edge29_Node000001_Node000050"><a xlink:title=" ">
<path fill="none" stroke="#63b8ff" d="M51.54,-275.86C64.32,-260.18 91.83,-229.22 122,-212.5 126.14,-210.21 130.56,-208.18 135.11,-206.39"/>
<polygon fill="#63b8ff" stroke="#63b8ff" points="136.29,-209.69 144.55,-203.05 133.96,-203.09 136.29,-209.69"/>
</a>
</g>
</g>
<!-- Node51 -->
<g id="Node000051" class="node">
<title>Node51</title>
<g id="a_Node000051"><a xlink:href="../../df/db1/namespaceViz.html#a8d15e0c2d169bd794380b0e720faabf2" target="_top" xlink:title=" ">
<polygon fill="white" stroke="#666666" points="248,-148 141,-148 141,-129 248,-129 248,-148"/>
<text text-anchor="middle" x="194.5" y="-136" font-family="Helvetica,sans-Serif" font-size="10.00">Viz::parseVizMode</text>
</a>
</g>
</g>
<!-- Node1&#45;&gt;Node51 -->
<g id="edge30_Node000001_Node000051" class="edge">
<title>Node1&#45;&gt;Node51</title>
<g id="a_edge30_Node000001_Node000051"><a xlink:title=" ">
<path fill="none" stroke="#63b8ff" d="M48.81,-275.8C59.49,-255.09 87.02,-205.92 122,-175.5 132.84,-166.07 146.51,-158.25 158.98,-152.26"/>
<polygon fill="#63b8ff" stroke="#63b8ff" points="160.57,-155.38 168.21,-148.05 157.66,-149.02 160.57,-155.38"/>
</a>
</g>
</g>
<!-- Node52 -->
<g id="Node000052" class="node">
<title>Node52</title>
<g id="a_Node000052"><a xlink:href="../../dc/d91/namespacePostFX.html#a97699543bec890d8d5ef02238a9e914c" target="_top" xlink:title="Execute the full post&#45;processing pipeline on a frame&#45;buffer.">
<polygon fill="white" stroke="#666666" points="252,-111 137,-111 137,-92 252,-92 252,-111"/>
<text text-anchor="middle" x="194.5" y="-99" font-family="Helvetica,sans-Serif" font-size="10.00">PostFX::postProcess</text>
</a>
</g>
</g>
<!-- Node1&#45;&gt;Node52 -->
<g id="edge32_Node000001_Node000052" class="edge">
<title>Node1&#45;&gt;Node52</title>
<g id="a_edge32_Node000001_Node000052"><a xlink:title=" ">
<path fill="none" stroke="#63b8ff" d="M45.62,-275.96C50.95,-247.63 70.63,-163.29 122,-120.5 124.03,-118.81 126.19,-117.27 128.46,-115.86"/>
<polygon fill="#63b8ff" stroke="#63b8ff" points="130.37,-118.81 137.62,-111.09 127.13,-112.61 130.37,-118.81"/>
</a>
</g>
</g>
<!-- Node55 -->
<g id="Node000055" class="node">
<title>Node55</title>
<g id="a_Node000055"><a xlink:href="../../d4/d3d/namespaceUtils.html#a8e063dafa9ed499eae606a8effdb5130" target="_top" xlink:title="Performs the raytracing process and produces the framebuffer.">
<polygon fill="white" stroke="#666666" points="248,-277 141,-277 141,-258 248,-258 248,-277"/>
<text text-anchor="middle" x="194.5" y="-265" font-family="Helvetica,sans-Serif" font-size="10.00">Utils::renderImage</text>
</a>
</g>
</g>
<!-- Node1&#45;&gt;Node55 -->
<g id="edge35_Node000001_Node000055" class="edge">
<title>Node1&#45;&gt;Node55</title>
<g id="a_edge35_Node000001_Node000055"><a xlink:title=" ">
<path fill="none" stroke="#63b8ff" d="M86.04,-280.44C99.87,-278.77 115.55,-276.89 130.58,-275.08"/>
<polygon fill="#63b8ff" stroke="#63b8ff" points="131.34,-278.51 140.85,-273.84 130.5,-271.56 131.34,-278.51"/>
</a>
</g>
</g>
<!-- Node71 -->
<g id="Node000071" class="node">
<title>Node71</title>
<g id="a_Node000071"><a xlink:href="../../df/db1/namespaceViz.html#a888cc4fc8971d9c8c1c3c183f6163562" target="_top" xlink:title=" ">
<polygon fill="white" stroke="#666666" points="257.5,-56 131.5,-56 131.5,-37 257.5,-37 257.5,-56"/>
<text text-anchor="middle" x="194.5" y="-44" font-family="Helvetica,sans-Serif" font-size="10.00">Viz::renderImageSFML</text>
</a>
</g>
</g>
<!-- Node1&#45;&gt;Node71 -->
<g id="edge54_Node000001_Node000071" class="edge">
<title>Node1&#45;&gt;Node71</title>
<g id="a_edge54_Node000001_Node000071"><a xlink:title=" ">
<path fill="none" stroke="#63b8ff" d="M45.27,-275.81C49.87,-244.31 68.3,-143.4 122,-83.5 130.91,-73.56 143.12,-65.89 154.92,-60.18"/>
<polygon fill="#63b8ff" stroke="#63b8ff" points="156.54,-63.29 164.24,-56.01 153.68,-56.9 156.54,-63.29"/>
</a>
</g>
</g>
<!-- Node72 -->
<g id="Node000072" class="node">
<title>Node72</title>
<g id="a_Node000072"><a xlink:href="../../d4/d3d/namespaceUtils.html#a93b03e73158568f2d6c223f2052afb14" target="_top" xlink:title="Writes the framebuffer to a .ppm image file.">
<polygon fill="white" stroke="#666666" points="240,-19 149,-19 149,0 240,0 240,-19"/>
<text text-anchor="middle" x="194.5" y="-7" font-family="Helvetica,sans-Serif" font-size="10.00">Utils::writePPM</text>
</a>
</g>
</g>
<!-- Node1&#45;&gt;Node72 -->
<g id="edge56_Node000001_Node000072" class="edge">
<title>Node1&#45;&gt;Node72</title>
<g id="a_edge56_Node000001_Node000072"><a xlink:title=" ">
<path fill="none" stroke="#63b8ff" d="M43.77,-275.84C43.45,-238.03 47.52,-98.56 122,-27.5 126.92,-22.81 132.87,-19.29 139.21,-16.66"/>
<polygon fill="#63b8ff" stroke="#63b8ff" points="140.39,-19.96 148.72,-13.4 138.12,-13.33 140.39,-19.96"/>
</a>
</g>
</g>
<!-- Node3 -->
<g id="Node000003" class="node">
<title>Node3</title>
<g id="a_Node000003"><a xlink:href="../../d1/df4/namespaceRayTracer.html#abe4ebec0fced68876c86cde562a43377" target="_top" xlink:title=" ">
<polygon fill="white" stroke="#666666" points="445.5,-517 329.5,-517 329.5,-498 445.5,-498 445.5,-517"/>
<text text-anchor="middle" x="387.5" y="-505" font-family="Helvetica,sans-Serif" font-size="10.00">RayTracer::buildBVH</text>
</a>
</g>
</g>
<!-- Node2&#45;&gt;Node3 -->
<g id="edge2_Node000002_Node000003" class="edge">
<title>Node2&#45;&gt;Node3</title>
<g id="a_edge2_Node000002_Node000003"><a xlink:title=" ">
<path fill="none" stroke="#63b8ff" d="M239.8,-522.09C263.34,-519.75 292.78,-516.82 319.09,-514.21"/>
<polygon fill="#63b8ff" stroke="#63b8ff" points="319.78,-517.65 329.39,-513.18 319.09,-510.69 319.78,-517.65"/>
</a>
</g>
</g>
<!-- Node4 -->
<g id="Node000004" class="node">
<title>Node4</title>
<g id="a_Node000004"><a xlink:href="../../d4/d3d/namespaceUtils.html#a4ba3286c32e42accbb64c604ca149a6d" target="_top" xlink:title="Extracts raw pointers to primitives from shared_ptr objects.">
<polygon fill="white" stroke="#666666" points="451,-554 324,-554 324,-535 451,-535 451,-554"/>
<text text-anchor="middle" x="387.5" y="-542" font-family="Helvetica,sans-Serif" font-size="10.00">Utils::collectPrimitives</text>
</a>
</g>
</g>
<!-- Node2&#45;&gt;Node4 -->
<g id="edge3_Node000002_Node000004" class="edge">
<title>Node2&#45;&gt;Node4</title>
<g id="a_edge3_Node000002_Node000004"><a xlink:title=" ">
<path fill="none" stroke="#63b8ff" d="M239.8,-530.67C261.79,-532.75 288.91,-535.3 313.84,-537.65"/>
<polygon fill="#63b8ff" stroke="#63b8ff" points="313.71,-541.16 323.99,-538.61 314.37,-534.19 313.71,-541.16"/>
</a>
</g>
</g>
<!-- Node11 -->
<g id="Node000011" class="node">
<title>Node11</title>
<g id="a_Node000011"><a xlink:href="../../d1/df4/namespaceRayTracer.html#a9aa92d0c88c2ac9be33f27ba71e8ceaa" target="_top" xlink:title="Recursively loads a scene and any referenced sub&#45;scenes from file(s).">
<polygon fill="white" stroke="#666666" points="472,-425 303,-425 303,-406 472,-406 472,-425"/>
<text text-anchor="middle" x="387.5" y="-413" font-family="Helvetica,sans-Serif" font-size="10.00">RayTracer::loadSceneRecursive</text>
</a>
</g>
</g>
<!-- Node10&#45;&gt;Node11 -->
<g id="edge10_Node000010_Node000011" class="edge">
<title>Node10&#45;&gt;Node11</title>
<g id="a_edge10_Node000010_Node000011"><a xlink:title=" ">
<path fill="none" stroke="#63b8ff" d="M242.25,-314.06C250.71,-316.58 259.28,-319.7 267,-323.5 307.4,-343.41 347.46,-378.1 369.4,-398.72"/>
<polygon fill="#63b8ff" stroke="#63b8ff" points="367.24,-401.5 376.88,-405.88 372.07,-396.44 367.24,-401.5"/>
</a>
</g>
</g>
<!-- Node11&#45;&gt;Node11 -->
<g id="edge27_Node000011_Node000011" class="edge">
<title>Node11&#45;&gt;Node11</title>
<g id="a_edge27_Node000011_Node000011"><a xlink:title=" ">
<path fill="none" stroke="#63b8ff" d="M357.91,-425.08C343.51,-433.73 353.38,-443 387.5,-443 410.96,-443 422.95,-438.62 423.48,-433.07"/>
<polygon fill="#63b8ff" stroke="#63b8ff" points="426.07,-430.71 417.09,-425.08 420.61,-435.08 426.07,-430.71"/>
</a>
</g>
</g>
<!-- Node12 -->
<g id="Node000012" class="node">
<title>Node12</title>
<g id="a_Node000012"><a xlink:href="../../d1/df4/namespaceRayTracer.html#a4bbc9c3996d70f6a71cf4d185a4811d6" target="_top" xlink:title="Loads a single scene file (non&#45;recursive).">
<polygon fill="white" stroke="#666666" points="651.5,-678 530.5,-678 530.5,-659 651.5,-659 651.5,-678"/>
<text text-anchor="middle" x="591" y="-666" font-family="Helvetica,sans-Serif" font-size="10.00">RayTracer::loadScene</text>
</a>
</g>
</g>
<!-- Node11&#45;&gt;Node12 -->
<g id="edge11_Node000011_Node000012" class="edge">
<title>Node11&#45;&gt;Node12</title>
<g id="a_edge11_Node000011_Node000012"><a xlink:title=" ">
<path fill="none" stroke="#63b8ff" d="M401.32,-425.12C418.58,-438.42 449.67,-463.74 472,-489.5 518.4,-543.02 561.03,-615.89 579.84,-649.76"/>
<polygon fill="#63b8ff" stroke="#63b8ff" points="577.01,-651.88 584.9,-658.96 583.15,-648.51 577.01,-651.88"/>
</a>
</g>
</g>
<!-- Node13 -->
<g id="Node000013" class="node">
<title>Node13</title>
<g id="a_Node000013"><a xlink:href="../../db/d92/namespaceSkybox.html#a7be84c4dd5e95b3b8d9cd74c02eef8bd" target="_top" xlink:title="Initialise the global skybox texture.">
<polygon fill="#fff0f0" stroke="red" points="845,-826 710,-826 710,-807 845,-807 845,-826"/>
<text text-anchor="middle" x="777.5" y="-814" font-family="Helvetica,sans-Serif" font-size="10.00">Skybox::initializeSkybox</text>
</a>
</g>
</g>
<!-- Node12&#45;&gt;Node13 -->
<g id="edge12_Node000012_Node000013" class="edge">
<title>Node12&#45;&gt;Node13</title>
<g id="a_edge12_Node000012_Node000013"><a xlink:title=" ">
<path fill="none" stroke="#63b8ff" d="M597.84,-678.04C613.1,-702.14 656.7,-765.89 710,-798.5 712.81,-800.22 715.78,-801.77 718.84,-803.18"/>
<polygon fill="#63b8ff" stroke="#63b8ff" points="717.68,-806.49 728.27,-806.98 720.3,-800 717.68,-806.49"/>
</a>
</g>
</g>
<!-- Node15 -->
<g id="Node000015" class="node">
<title>Node15</title>
<g id="a_Node000015"><a xlink:href="../../d3/d79/SceneParser_8cpp.html#ad262901d3d20b2d0a15d937abb911dbd" target="_top" xlink:title=" ">
<polygon fill="#fff0f0" stroke="red" points="813.5,-789 741.5,-789 741.5,-770 813.5,-770 813.5,-789"/>
<text text-anchor="middle" x="777.5" y="-777" font-family="Helvetica,sans-Serif" font-size="10.00">ParseBoxes</text>
</a>
</g>
</g>
<!-- Node12&#45;&gt;Node15 -->
<g id="edge13_Node000012_Node000015" class="edge">
<title>Node12&#45;&gt;Node15</title>
<g id="a_edge13_Node000012_Node000015"><a xlink:title=" ">
<path fill="none" stroke="#63b8ff" d="M601.46,-678.22C620.34,-697.08 664.79,-738.77 710,-761.5 716.76,-764.9 724.24,-767.72 731.68,-770.04"/>
<polygon fill="#63b8ff" stroke="#63b8ff" points="730.78,-773.42 741.35,-772.8 732.7,-766.69 730.78,-773.42"/>
</a>
</g>
</g>
<!-- Node24 -->
<g id="Node000024" class="node">
<title>Node24</title>
<g id="a_Node000024"><a xlink:href="../../d3/d79/SceneParser_8cpp.html#a719f34dae6ee5f4594209dea344bdee0" target="_top" xlink:title=" ">
<polygon fill="#fff0f0" stroke="red" points="818,-456 737,-456 737,-437 818,-437 818,-456"/>
<text text-anchor="middle" x="777.5" y="-444" font-family="Helvetica,sans-Serif" font-size="10.00">ParseCamera</text>
</a>
</g>
</g>
<!-- Node12&#45;&gt;Node24 -->
<g id="edge14_Node000012_Node000024" class="edge">
<title>Node12&#45;&gt;Node24</title>
<g id="a_edge14_Node000012_Node000024"><a xlink:title=" ">
<path fill="none" stroke="#63b8ff" d="M594.79,-658.69C604.61,-625.92 640.83,-519.32 710,-465.5 715.1,-461.53 720.99,-458.39 727.12,-455.91"/>
<polygon fill="#63b8ff" stroke="#63b8ff" points="728.57,-459.11 736.87,-452.52 726.27,-452.5 728.57,-459.11"/>
</a>
</g>
</g>
<!-- Node30 -->
<g id="Node000030" class="node">
<title>Node30</title>
<g id="a_Node000030"><a xlink:href="../../d3/d79/SceneParser_8cpp.html#acadf69d0ff9684ba689927979b304f6a" target="_top" xlink:title=" ">
<polygon fill="#fff0f0" stroke="red" points="814,-752 741,-752 741,-733 814,-733 814,-752"/>
<text text-anchor="middle" x="777.5" y="-740" font-family="Helvetica,sans-Serif" font-size="10.00">ParseCones</text>
</a>
</g>
</g>
<!-- Node12&#45;&gt;Node30 -->
<g id="edge16_Node000012_Node000030" class="edge">
<title>Node12&#45;&gt;Node30</title>
<g id="a_edge16_Node000012_Node000030"><a xlink:title=" ">
<path fill="none" stroke="#63b8ff" d="M609.56,-678.06C632.25,-690.11 673.2,-710.91 710,-724.5 716.79,-727.01 724.08,-729.33 731.26,-731.43"/>
<polygon fill="#63b8ff" stroke="#63b8ff" points="730.36,-734.81 740.93,-734.13 732.24,-728.07 730.36,-734.81"/>
</a>
</g>
</g>
<!-- Node31 -->
<g id="Node000031" class="node">
<title>Node31</title>
<g id="a_Node000031"><a xlink:href="../../d3/d79/SceneParser_8cpp.html#a58b4651708d2a5da5625f2412bd84bd7" target="_top" xlink:title=" ">
<polygon fill="#fff0f0" stroke="red" points="822,-715 733,-715 733,-696 822,-696 822,-715"/>
<text text-anchor="middle" x="777.5" y="-703" font-family="Helvetica,sans-Serif" font-size="10.00">ParseCylinders</text>
</a>
</g>
</g>
<!-- Node12&#45;&gt;Node31 -->
<g id="edge17_Node000012_Node000031" class="edge">
<title>Node12&#45;&gt;Node31</title>
<g id="a_edge17_Node000012_Node000031"><a xlink:title=" ">
<path fill="none" stroke="#63b8ff" d="M639.51,-678.03C665.08,-683.15 696.68,-689.49 723.1,-694.79"/>
<polygon fill="#63b8ff" stroke="#63b8ff" points="722.45,-698.23 732.94,-696.76 723.82,-691.37 722.45,-698.23"/>
</a>
</g>
</g>
<!-- Node32 -->
<g id="Node000032" class="node">
<title>Node32</title>
<g id="a_Node000032"><a xlink:href="../../d3/d79/SceneParser_8cpp.html#af22a6492d8f86f926251f747c2d82318" target="_top" xlink:title=" ">
<polygon fill="#fff0f0" stroke="red" points="813.5,-678 741.5,-678 741.5,-659 813.5,-659 813.5,-678"/>
<text text-anchor="middle" x="777.5" y="-666" font-family="Helvetica,sans-Serif" font-size="10.00">ParseLights</text>
</a>
</g>
</g>
<!-- Node12&#45;&gt;Node32 -->
<g id="edge18_Node000012_Node000032" class="edge">
<title>Node12&#45;&gt;Node32</title>
<g id="a_edge18_Node000012_Node000032"><a xlink:title=" ">
<path fill="none" stroke="#63b8ff" d="M651.65,-668.5C677.42,-668.5 707.08,-668.5 731.03,-668.5"/>
<polygon fill="#63b8ff" stroke="#63b8ff" points="731.26,-672 741.26,-668.5 731.26,-665 731.26,-672"/>
</a>
</g>
</g>
<!-- Node34 -->
<g id="Node000034" class="node">
<title>Node34</title>
<g id="a_Node000034"><a xlink:href="../../d3/d79/SceneParser_8cpp.html#a17fe6719bd49ea3c89cdbe743f9fbe49" target="_top" xlink:title=" ">
<polygon fill="#fff0f0" stroke="red" points="828,-641 727,-641 727,-622 828,-622 828,-641"/>
<text text-anchor="middle" x="777.5" y="-629" font-family="Helvetica,sans-Serif" font-size="10.00">parseMaterialDef</text>
</a>
</g>
</g>
<!-- Node12&#45;&gt;Node34 -->
<g id="edge19_Node000012_Node000034" class="edge">
<title>Node12&#45;&gt;Node34</title>
<g id="a_edge19_Node000012_Node000034"><a xlink:title=" ">
<path fill="none" stroke="#63b8ff" d="M639.51,-658.97C663.74,-654.11 693.39,-648.17 718.91,-643.05"/>
<polygon fill="#63b8ff" stroke="#63b8ff" points="719.71,-646.46 728.83,-641.06 718.33,-639.6 719.71,-646.46"/>
</a>
</g>
</g>
<!-- Node35 -->
<g id="Node000035" class="node">
<title>Node35</title>
<g id="a_Node000035"><a xlink:href="../../d3/d79/SceneParser_8cpp.html#a1122aa28b0a7f73c44adaf6dca1d5750" target="_top" xlink:title=" ">
<polygon fill="#fff0f0" stroke="red" points="817.5,-604 737.5,-604 737.5,-585 817.5,-585 817.5,-604"/>
<text text-anchor="middle" x="777.5" y="-592" font-family="Helvetica,sans-Serif" font-size="10.00">ParseMenger</text>
</a>
</g>
</g>
<!-- Node12&#45;&gt;Node35 -->
<g id="edge20_Node000012_Node000035" class="edge">
<title>Node12&#45;&gt;Node35</title>
<g id="a_edge20_Node000012_Node000035"><a xlink:title=" ">
<path fill="none" stroke="#63b8ff" d="M610.41,-658.81C633.31,-647.01 673.79,-627.02 710,-613.5 716.27,-611.16 722.97,-608.94 729.61,-606.89"/>
<polygon fill="#63b8ff" stroke="#63b8ff" points="730.64,-610.23 739.23,-604.03 728.65,-603.52 730.64,-610.23"/>
</a>
</g>
</g>
<!-- Node36 -->
<g id="Node000036" class="node">
<title>Node36</title>
<g id="a_Node000036"><a xlink:href="../../d3/d79/SceneParser_8cpp.html#a26f05fcddd9c159c09c9cedc7bdf844a" target="_top" xlink:title=" ">
<polygon fill="#fff0f0" stroke="red" points="817.5,-567 737.5,-567 737.5,-548 817.5,-548 817.5,-567"/>
<text text-anchor="middle" x="777.5" y="-555" font-family="Helvetica,sans-Serif" font-size="10.00">ParseMeshes</text>
</a>
</g>
</g>
<!-- Node12&#45;&gt;Node36 -->
<g id="edge21_Node000012_Node000036" class="edge">
<title>Node12&#45;&gt;Node36</title>
<g id="a_edge21_Node000012_Node000036"><a xlink:title=" ">
<path fill="none" stroke="#63b8ff" d="M601.51,-658.94C620.47,-640.39 665.08,-599.33 710,-576.5 715.55,-573.68 721.58,-571.22 727.66,-569.1"/>
<polygon fill="#63b8ff" stroke="#63b8ff" points="728.77,-572.42 737.22,-566.02 726.63,-565.75 728.77,-572.42"/>
</a>
</g>
</g>
<!-- Node44 -->
<g id="Node000044" class="node">
<title>Node44</title>
<g id="a_Node000044"><a xlink:href="../../d3/d79/SceneParser_8cpp.html#a9d50142946b8423759ecbfa17c7edc79" target="_top" xlink:title=" ">
<polygon fill="#fff0f0" stroke="red" points="815,-530 740,-530 740,-511 815,-511 815,-530"/>
<text text-anchor="middle" x="777.5" y="-518" font-family="Helvetica,sans-Serif" font-size="10.00">ParsePlanes</text>
</a>
</g>
</g>
<!-- Node12&#45;&gt;Node44 -->
<g id="edge22_Node000012_Node000044" class="edge">
<title>Node12&#45;&gt;Node44</title>
<g id="a_edge22_Node000012_Node000044"><a xlink:title=" ">
<path fill="none" stroke="#63b8ff" d="M598.11,-658.73C613.68,-634.65 657.35,-572.08 710,-539.5 716.18,-535.68 723.15,-532.6 730.19,-530.13"/>
<polygon fill="#63b8ff" stroke="#63b8ff" points="731.29,-533.46 739.78,-527.13 729.19,-526.78 731.29,-533.46"/>
</a>
</g>
</g>
<!-- Node45 -->
<g id="Node000045" class="node">
<title>Node45</title>
<g id="a_Node000045"><a xlink:href="../../d3/d79/SceneParser_8cpp.html#a1113dafd3e97959e0e81c1d2fd42cd81" target="_top" xlink:title=" ">
<polygon fill="#fff0f0" stroke="red" points="823,-493 732,-493 732,-474 823,-474 823,-493"/>
<text text-anchor="middle" x="777.5" y="-481" font-family="Helvetica,sans-Serif" font-size="10.00">ParseSierpinski</text>
</a>
</g>
</g>
<!-- Node12&#45;&gt;Node45 -->
<g id="edge23_Node000012_Node000045" class="edge">
<title>Node12&#45;&gt;Node45</title>
<g id="a_edge23_Node000012_Node000045"><a xlink:title=" ">
<path fill="none" stroke="#63b8ff" d="M596.01,-658.91C608.42,-630.42 649.09,-545.58 710,-502.5 713.74,-499.85 717.84,-497.58 722.12,-495.61"/>
<polygon fill="#63b8ff" stroke="#63b8ff" points="723.68,-498.76 731.67,-491.8 721.09,-492.26 723.68,-498.76"/>
</a>
</g>
</g>
<!-- Node46 -->
<g id="Node000046" class="node">
<title>Node46</title>
<g id="a_Node000046"><a xlink:href="../../d3/d79/SceneParser_8cpp.html#aa379bf06dc8b31c936030d2fc900e73c" target="_top" xlink:title=" ">
<polygon fill="#fff0f0" stroke="red" points="818.5,-937 736.5,-937 736.5,-918 818.5,-918 818.5,-937"/>
<text text-anchor="middle" x="777.5" y="-925" font-family="Helvetica,sans-Serif" font-size="10.00">ParseSpheres</text>
</a>
</g>
</g>
<!-- Node12&#45;&gt;Node46 -->
<g id="edge24_Node000012_Node000046" class="edge">
<title>Node12&#45;&gt;Node46</title>
<g id="a_edge24_Node000012_Node000046"><a xlink:title=" ">
<path fill="none" stroke="#63b8ff" d="M593.75,-678.08C600.9,-714.36 631.31,-844.56 710,-909.5 714.9,-913.55 720.64,-916.69 726.65,-919.13"/>
<polygon fill="#63b8ff" stroke="#63b8ff" points="725.64,-922.48 736.24,-922.41 727.91,-915.86 725.64,-922.48"/>
</a>
</g>
</g>
<!-- Node47 -->
<g id="Node000047" class="node">
<title>Node47</title>
<g id="a_Node000047"><a xlink:href="../../d3/d79/SceneParser_8cpp.html#abe09300f6764206d0215ca7b12403972" target="_top" xlink:title=" ">
<polygon fill="#fff0f0" stroke="red" points="827,-900 728,-900 728,-881 827,-881 827,-900"/>
<text text-anchor="middle" x="777.5" y="-888" font-family="Helvetica,sans-Serif" font-size="10.00">ParseTangleCube</text>
</a>
</g>
</g>
<!-- Node12&#45;&gt;Node47 -->
<g id="edge25_Node000012_Node000047" class="edge">
<title>Node12&#45;&gt;Node47</title>
<g id="a_edge25_Node000012_Node000047"><a xlink:title=" ">
<path fill="none" stroke="#63b8ff" d="M594.74,-678.4C604.43,-711.44 640.26,-818.89 710,-872.5 712.66,-874.54 715.53,-876.35 718.53,-877.96"/>
<polygon fill="#63b8ff" stroke="#63b8ff" points="717.32,-881.25 727.88,-882.18 720.21,-874.87 717.32,-881.25"/>
</a>
</g>
</g>
<!-- Node48 -->
<g id="Node000048" class="node">
<title>Node48</title>
<g id="a_Node000048"><a xlink:href="../../d3/d79/SceneParser_8cpp.html#aa2d4ee6129dea0eeb1ad8100b5026239" target="_top" xlink:title=" ">
<polygon fill="#fff0f0" stroke="red" points="811.5,-863 743.5,-863 743.5,-844 811.5,-844 811.5,-863"/>
<text text-anchor="middle" x="777.5" y="-851" font-family="Helvetica,sans-Serif" font-size="10.00">ParseTorus</text>
</a>
</g>
</g>
<!-- Node12&#45;&gt;Node48 -->
<g id="edge26_Node000012_Node000048" class="edge">
<title>Node12&#45;&gt;Node48</title>
<g id="a_edge26_Node000012_Node000048"><a xlink:title=" ">
<path fill="none" stroke="#63b8ff" d="M595.97,-678.19C608.25,-706.96 648.6,-792.59 710,-835.5 717.05,-840.42 725.38,-844 733.72,-846.6"/>
<polygon fill="#63b8ff" stroke="#63b8ff" points="732.87,-850 743.44,-849.23 734.69,-843.24 732.87,-850"/>
</a>
</g>
</g>
<!-- Node25 -->
<g id="Node000025" class="node">
<title>Node25</title>
<g id="a_Node000025"><a xlink:href="../../d6/d30/structMath_1_1Vector3D.html#ad9bca728f96bfb94acebaf6cc63109c3" target="_top" xlink:title="Computes the cross product between this and another vector.">
<polygon fill="white" stroke="#666666" points="1004,-418 881,-418 881,-399 1004,-399 1004,-418"/>
<text text-anchor="middle" x="942.5" y="-406" font-family="Helvetica,sans-Serif" font-size="10.00">Math::Vector3D::cross</text>
</a>
</g>
</g>
<!-- Node24&#45;&gt;Node25 -->
<g id="edge15_Node000024_Node000025" class="edge">
<title>Node24&#45;&gt;Node25</title>
<g id="a_edge15_Node000024_Node000025"><a xlink:title=" ">
<path fill="none" stroke="#63b8ff" d="M818.37,-437.2C840.13,-432.13 867.3,-425.8 890.57,-420.37"/>
<polygon fill="#63b8ff" stroke="#63b8ff" points="891.68,-423.71 900.62,-418.03 890.09,-416.89 891.68,-423.71"/>
</a>
</g>
</g>
<!-- Node51&#45;&gt;Node51 -->
<g id="edge31_Node000051_Node000051" class="edge">
<title>Node51&#45;&gt;Node51</title>
<g id="a_edge31_Node000051_Node000051"><a xlink:title=" ">
<path fill="none" stroke="#63b8ff" d="M171.38,-148.08C160.13,-156.73 167.84,-166 194.5,-166 212,-166 221.33,-162.01 222.5,-156.82"/>
<polygon fill="#63b8ff" stroke="#63b8ff" points="225.55,-155.11 217.62,-148.08 219.44,-158.52 225.55,-155.11"/>
</a>
</g>
</g>
<!-- Node53 -->
<g id="Node000053" class="node">
<title>Node53</title>
<g id="a_Node000053"><a xlink:href="../../dc/d91/namespacePostFX.html#a0118f43380559f09e9e80c2f73fd116a" target="_top" xlink:title="Apply a simple filmic tone&#45;mapping curve.">
<polygon fill="white" stroke="#666666" points="437,-92 338,-92 338,-73 437,-73 437,-92"/>
<text text-anchor="middle" x="387.5" y="-80" font-family="Helvetica,sans-Serif" font-size="10.00">PostFX::toneMap</text>
</a>
</g>
</g>
<!-- Node52&#45;&gt;Node53 -->
<g id="edge33_Node000052_Node000053" class="edge">
<title>Node52&#45;&gt;Node53</title>
<g id="a_edge33_Node000052_Node000053"><a xlink:title=" ">
<path fill="none" stroke="#63b8ff" d="M252.03,-95.88C275.9,-93.5 303.69,-90.74 327.79,-88.34"/>
<polygon fill="#63b8ff" stroke="#63b8ff" points="328.27,-91.81 337.87,-87.34 327.58,-84.84 328.27,-91.81"/>
</a>
</g>
</g>
<!-- Node54 -->
<g id="Node000054" class="node">
<title>Node54</title>
<g id="a_Node000054"><a xlink:href="../../dc/d91/namespacePostFX.html#a9ac2e9d3b3df1cf6cc65ea14a349f828" target="_top" xlink:title="Radial vignette fall&#45;off factor for pixel *(i,j)*.">
<polygon fill="white" stroke="#666666" points="450.5,-129 324.5,-129 324.5,-110 450.5,-110 450.5,-129"/>
<text text-anchor="middle" x="387.5" y="-117" font-family="Helvetica,sans-Serif" font-size="10.00">PostFX::vignetteFactor</text>
</a>
</g>
</g>
<!-- Node52&#45;&gt;Node54 -->
<g id="edge34_Node000052_Node000054" class="edge">
<title>Node52&#45;&gt;Node54</title>
<g id="a_edge34_Node000052_Node000054"><a xlink:title=" ">
<path fill="none" stroke="#63b8ff" d="M252.03,-106.83C271.6,-108.67 293.8,-110.76 314.45,-112.71"/>
<polygon fill="#63b8ff" stroke="#63b8ff" points="314.15,-116.2 324.44,-113.65 314.81,-109.23 314.15,-116.2"/>
</a>
</g>
</g>
<!-- Node56 -->
<g id="Node000056" class="node">
<title>Node56</title>
<g id="a_Node000056"><a xlink:href="../../d9/d83/namespaceUtils_1_1Parallel.html#ab44c0e5cb1b952802aa37c4f94242ab6" target="_top" xlink:title="Execute a parallel for loop from start to end &#45; 1.">
<polygon fill="white" stroke="#666666" points="449.5,-240 325.5,-240 325.5,-221 449.5,-221 449.5,-240"/>
<text text-anchor="middle" x="387.5" y="-228" font-family="Helvetica,sans-Serif" font-size="10.00">Utils::Parallel::forLoop</text>
</a>
</g>
</g>
<!-- Node55&#45;&gt;Node56 -->
<g id="edge36_Node000055_Node000056" class="edge">
<title>Node55&#45;&gt;Node56</title>
<g id="a_edge36_Node000055_Node000056"><a xlink:title=" ">
<path fill="none" stroke="#63b8ff" d="M244.69,-257.97C269.88,-253.09 300.74,-247.11 327.23,-241.98"/>
<polygon fill="#63b8ff" stroke="#63b8ff" points="328,-245.4 337.15,-240.06 326.66,-238.53 328,-245.4"/>
</a>
</g>
</g>
<!-- Node57 -->
<g id="Node000057" class="node">
<title>Node57</title>
<g id="a_Node000057"><a xlink:href="../../d4/d3d/namespaceUtils.html#aaf2c4e5a59ec45284cfcdf257a9218f1" target="_top" xlink:title="Prints a terminal progress bar for rendering.">
<polygon fill="white" stroke="#666666" points="450.5,-203 324.5,-203 324.5,-184 450.5,-184 450.5,-203"/>
<text text-anchor="middle" x="387.5" y="-191" font-family="Helvetica,sans-Serif" font-size="10.00">Utils::PrintProgressBar</text>
</a>
</g>
</g>
<!-- Node55&#45;&gt;Node57 -->
<g id="edge37_Node000055_Node000057" class="edge">
<title>Node55&#45;&gt;Node57</title>
<g id="a_edge37_Node000055_Node000057"><a xlink:title=" ">
<path fill="none" stroke="#63b8ff" d="M247.99,-257.89C254.61,-255.64 261.12,-252.89 267,-249.5 286.88,-238.04 282.99,-223.73 303,-212.5 306.97,-210.27 311.19,-208.3 315.54,-206.57"/>
<polygon fill="#63b8ff" stroke="#63b8ff" points="316.97,-209.77 325.22,-203.12 314.62,-203.18 316.97,-209.77"/>
</a>
</g>
</g>
<!-- Node58 -->
<g id="Node000058" class="node">
<title>Node58</title>
<g id="a_Node000058"><a xlink:href="../../dc/dd2/classRayTracer_1_1Camera.html#a6e15aa9e80304dd752366647553f2f5f" target="_top" xlink:title="Generate a primary ray through screen coordinates *(s,t)*.">
<polygon fill="white" stroke="#666666" points="453,-332 322,-332 322,-313 453,-313 453,-332"/>
<text text-anchor="middle" x="387.5" y="-320" font-family="Helvetica,sans-Serif" font-size="10.00">RayTracer::Camera::ray</text>
</a>
</g>
</g>
<!-- Node55&#45;&gt;Node58 -->
<g id="edge38_Node000055_Node000058" class="edge">
<title>Node55&#45;&gt;Node58</title>
<g id="a_edge38_Node000055_Node000058"><a xlink:title=" ">
<path fill="none" stroke="#63b8ff" d="M237.17,-277.04C247.07,-279.73 257.51,-282.91 267,-286.5 283.73,-292.83 286.12,-298.57 303,-304.5 309.3,-306.71 315.96,-308.71 322.67,-310.48"/>
<polygon fill="#63b8ff" stroke="#63b8ff" points="321.94,-313.91 332.49,-312.94 323.64,-307.12 321.94,-313.91"/>
</a>
</g>
</g>
<!-- Node59 -->
<g id="Node000059" class="node">
<title>Node59</title>
<g id="a_Node000059"><a xlink:href="../../d1/df4/namespaceRayTracer.html#ab1ca8a59872e03b73fafc26443c5c1df" target="_top" xlink:title="Recursive path&#45;tracing integrator.">
<polygon fill="white" stroke="#666666" points="437.5,-277 337.5,-277 337.5,-258 437.5,-258 437.5,-277"/>
<text text-anchor="middle" x="387.5" y="-265" font-family="Helvetica,sans-Serif" font-size="10.00">RayTracer::shade</text>
</a>
</g>
</g>
<!-- Node55&#45;&gt;Node59 -->
<g id="edge39_Node000055_Node000059" class="edge">
<title>Node55&#45;&gt;Node59</title>
<g id="a_edge39_Node000055_Node000059"><a xlink:title=" ">
<path fill="none" stroke="#63b8ff" d="M248.2,-267.5C272.65,-267.5 301.83,-267.5 327.07,-267.5"/>
<polygon fill="#63b8ff" stroke="#63b8ff" points="327.25,-271 337.25,-267.5 327.25,-264 327.25,-271"/>
</a>
</g>
</g>
<!-- Node59&#45;&gt;Node59 -->
<g id="edge51_Node000059_Node000059" class="edge">
<title>Node59&#45;&gt;Node59</title>
<g id="a_edge51_Node000059_Node000059"><a xlink:title=" ">
<path fill="none" stroke="#63b8ff" d="M357.91,-277.08C343.51,-285.73 353.38,-295 387.5,-295 410.96,-295 422.95,-290.62 423.48,-285.07"/>
<polygon fill="#63b8ff" stroke="#63b8ff" points="426.07,-282.71 417.09,-277.08 420.61,-287.08 426.07,-282.71"/>
</a>
</g>
</g>
<!-- Node60 -->
<g id="Node000060" class="node">
<title>Node60</title>
<g id="a_Node000060"><a xlink:href="../../d0/d82/classRayTracer_1_1ILight.html#a47469714a2ccb5287845a4f059f224cf" target="_top" xlink:title="Compute the incoming light direction at a surface point.">
<polygon fill="white" stroke="#666666" points="643,-325.5 539,-325.5 539,-295.5 643,-295.5 643,-325.5"/>
<text text-anchor="start" x="547" y="-313.5" font-family="Helvetica,sans-Serif" font-size="10.00">RayTracer::ILight::</text>
<text text-anchor="middle" x="591" y="-302.5" font-family="Helvetica,sans-Serif" font-size="10.00">direction</text>
</a>
</g>
</g>
<!-- Node59&#45;&gt;Node60 -->
<g id="edge40_Node000059_Node000060" class="edge">
<title>Node59&#45;&gt;Node60</title>
<g id="a_edge40_Node000059_Node000060"><a xlink:title=" ">
<path fill="none" stroke="#63b8ff" d="M433.22,-277.04C461.24,-283.02 497.74,-290.81 528.47,-297.37"/>
<polygon fill="#63b8ff" stroke="#63b8ff" points="528.14,-300.88 538.65,-299.54 529.6,-294.03 528.14,-300.88"/>
</a>
</g>
</g>
<!-- Node61 -->
<g id="Node000061" class="node">
<title>Node61</title>
<g id="a_Node000061"><a xlink:href="../../d6/d30/structMath_1_1Vector3D.html#aa57c357f4be8837461cdd32bd3e5d7dc" target="_top" xlink:title="Computes the dot product between this and another vector.">
<polygon fill="white" stroke="#666666" points="834,-419 721,-419 721,-400 834,-400 834,-419"/>
<text text-anchor="middle" x="777.5" y="-407" font-family="Helvetica,sans-Serif" font-size="10.00">Math::Vector3D::dot</text>
</a>
</g>
</g>
<!-- Node59&#45;&gt;Node61 -->
<g id="edge41_Node000059_Node000061" class="edge">
<title>Node59&#45;&gt;Node61</title>
<g id="a_edge41_Node000059_Node000061"><a xlink:title=" ">
<path fill="none" stroke="#63b8ff" d="M426.65,-277.03C442.52,-282.69 460,-291.41 472,-304.5 505.34,-340.86 467.86,-380.83 508,-409.5 539.25,-431.82 641.53,-425.41 710.44,-418"/>
<polygon fill="#63b8ff" stroke="#63b8ff" points="711.22,-421.44 720.77,-416.86 710.45,-414.48 711.22,-421.44"/>
</a>
</g>
</g>
<!-- Node62 -->
<g id="Node000062" class="node">
<title>Node62</title>
<g id="a_Node000062"><a xlink:href="../../dc/d25/classRayTracer_1_1Scene.html#adb32144e3e23e2bb9a6e6d702f6d52e7" target="_top" xlink:title="Intersect a ray with all objects in the scene.">
<polygon fill="white" stroke="#666666" points="650.5,-277 531.5,-277 531.5,-258 650.5,-258 650.5,-277"/>
<text text-anchor="middle" x="591" y="-265" font-family="Helvetica,sans-Serif" font-size="10.00">RayTracer::Scene::hit</text>
</a>
</g>
</g>
<!-- Node59&#45;&gt;Node62 -->
<g id="edge42_Node000059_Node000062" class="edge">
<title>Node59&#45;&gt;Node62</title>
<g id="a_edge42_Node000059_Node000062"><a xlink:title=" ">
<path fill="none" stroke="#63b8ff" d="M437.53,-267.5C462.64,-267.5 493.61,-267.5 521.07,-267.5"/>
<polygon fill="#63b8ff" stroke="#63b8ff" points="521.41,-271 531.41,-267.5 521.41,-264 521.41,-271"/>
</a>
</g>
</g>
<!-- Node63 -->
<g id="Node000063" class="node">
<title>Node63</title>
<g id="a_Node000063"><a xlink:href="../../d0/d82/classRayTracer_1_1ILight.html#a38eab6f380194227f9c1085260092315" target="_top" xlink:title="Get the scalar intensity (power) of the light.">
<polygon fill="white" stroke="#666666" points="643,-239.5 539,-239.5 539,-209.5 643,-209.5 643,-239.5"/>
<text text-anchor="start" x="547" y="-227.5" font-family="Helvetica,sans-Serif" font-size="10.00">RayTracer::ILight::</text>
<text text-anchor="middle" x="591" y="-216.5" font-family="Helvetica,sans-Serif" font-size="10.00">intensity</text>
</a>
</g>
</g>
<!-- Node59&#45;&gt;Node63 -->
<g id="edge43_Node000059_Node000063" class="edge">
<title>Node59&#45;&gt;Node63</title>
<g id="a_edge43_Node000059_Node000063"><a xlink:title=" ">
<path fill="none" stroke="#63b8ff" d="M433.22,-257.96C461.24,-251.98 497.74,-244.19 528.47,-237.63"/>
<polygon fill="#63b8ff" stroke="#63b8ff" points="529.6,-240.97 538.65,-235.46 528.14,-234.12 529.6,-240.97"/>
</a>
</g>
</g>
<!-- Node64 -->
<g id="Node000064" class="node">
<title>Node64</title>
<g id="a_Node000064"><a xlink:href="../../d6/d30/structMath_1_1Vector3D.html#a598b2b7fe5b2b34c111ee68015080334" target="_top" xlink:title="Returns a normalized (unit&#45;length) copy of the vector.">
<polygon fill="white" stroke="#666666" points="667,-191 515,-191 515,-172 667,-172 667,-191"/>
<text text-anchor="middle" x="591" y="-179" font-family="Helvetica,sans-Serif" font-size="10.00">Math::Vector3D::normalized</text>
</a>
</g>
</g>
<!-- Node59&#45;&gt;Node64 -->
<g id="edge44_Node000059_Node000064" class="edge">
<title>Node59&#45;&gt;Node64</title>
<g id="a_edge44_Node000059_Node000064"><a xlink:title=" ">
<path fill="none" stroke="#63b8ff" d="M437.64,-263.02C449.56,-260.33 461.79,-256.11 472,-249.5 494.68,-234.81 485.43,-215.36 508,-200.5 511.11,-198.45 514.42,-196.62 517.85,-194.99"/>
<polygon fill="#63b8ff" stroke="#63b8ff" points="519.28,-198.18 527.17,-191.11 516.59,-191.72 519.28,-198.18"/>
</a>
</g>
</g>
<!-- Node65 -->
<g id="Node000065" class="node">
<title>Node65</title>
<g id="a_Node000065"><a xlink:href="../../d0/d82/classRayTracer_1_1ILight.html#ab7ee56a002dd2f9adbee38aaee4b1538" target="_top" xlink:title="Retrieve the light’s world&#45;space position if applicable.">
<polygon fill="white" stroke="#666666" points="643,-153.5 539,-153.5 539,-123.5 643,-123.5 643,-153.5"/>
<text text-anchor="start" x="547" y="-141.5" font-family="Helvetica,sans-Serif" font-size="10.00">RayTracer::ILight::</text>
<text text-anchor="middle" x="591" y="-130.5" font-family="Helvetica,sans-Serif" font-size="10.00">position</text>
</a>
</g>
</g>
<!-- Node59&#45;&gt;Node65 -->
<g id="edge45_Node000059_Node000065" class="edge">
<title>Node59&#45;&gt;Node65</title>
<g id="a_edge45_Node000059_Node000065"><a xlink:title=" ">
<path fill="none" stroke="#63b8ff" d="M437.52,-264.92C449.84,-262.25 462.31,-257.56 472,-249.5 503.87,-223.02 477.27,-191.29 508,-163.5 514.12,-157.96 521.44,-153.65 529.15,-150.3"/>
<polygon fill="#63b8ff" stroke="#63b8ff" points="530.59,-153.49 538.69,-146.66 528.1,-146.95 530.59,-153.49"/>
</a>
</g>
</g>
<!-- Node66 -->
<g id="Node000066" class="node">
<title>Node66</title>
<g id="a_Node000066"><a xlink:href="../../d1/df4/namespaceRayTracer.html#ae95ed0335c1ba084545f21d7f61c8942" target="_top" xlink:title="Generate a single uniform random number in [0,1).">
<polygon fill="white" stroke="#666666" points="829.5,-234 725.5,-234 725.5,-215 829.5,-215 829.5,-234"/>
<text text-anchor="middle" x="777.5" y="-222" font-family="Helvetica,sans-Serif" font-size="10.00">RayTracer::rand01</text>
</a>
</g>
</g>
<!-- Node59&#45;&gt;Node66 -->
<g id="edge46_Node000059_Node000066" class="edge">
<title>Node59&#45;&gt;Node66</title>
<g id="a_edge46_Node000059_Node000066"><a xlink:title=" ">
<path fill="none" stroke="#63b8ff" d="M437.85,-265.87C450.31,-263.22 462.77,-258.3 472,-249.5 516.96,-206.66 458.76,-152.33 508,-114.5 566.5,-69.55 606.35,-85.07 674,-114.5 716.87,-133.15 749.93,-179.55 765.92,-205.74"/>
<polygon fill="#63b8ff" stroke="#63b8ff" points="763.1,-207.85 771.2,-214.69 769.13,-204.3 763.1,-207.85"/>
</a>
</g>
</g>
<!-- Node67 -->
<g id="Node000067" class="node">
<title>Node67</title>
<g id="a_Node000067"><a xlink:href="../../d1/df4/namespaceRayTracer.html#ab7c27bbad4b80e8966900494064dbb20" target="_top" xlink:title="Cosine&#45;weighted hemisphere sampling around a shading normal.">
<polygon fill="#fff0f0" stroke="red" points="674,-400 508,-400 508,-381 674,-381 674,-400"/>
<text text-anchor="middle" x="591" y="-388" font-family="Helvetica,sans-Serif" font-size="10.00">RayTracer::sampleHemisphere</text>
</a>
</g>
</g>
<!-- Node59&#45;&gt;Node67 -->
<g id="edge47_Node000059_Node000067" class="edge">
<title>Node59&#45;&gt;Node67</title>
<g id="a_edge47_Node000059_Node000067"><a xlink:title=" ">
<path fill="none" stroke="#63b8ff" d="M423.2,-277.04C439.51,-282.88 458.32,-291.74 472,-304.5 497.01,-327.82 480.78,-351.81 508,-372.5 509.65,-373.76 511.38,-374.93 513.16,-376.02"/>
<polygon fill="#63b8ff" stroke="#63b8ff" points="511.99,-379.36 522.48,-380.86 515.21,-373.15 511.99,-379.36"/>
</a>
</g>
</g>
<!-- Node68 -->
<g id="Node000068" class="node">
<title>Node68</title>
<g id="a_Node000068"><a xlink:href="../../db/d92/namespaceSkybox.html#a4a9c986d1ee3f28f9b2e419b743f5ebf" target="_top" xlink:title="Procedural horizon&#45;to&#45;zenith gradient.">
<polygon fill="#fff0f0" stroke="red" points="649,-67 533,-67 533,-48 649,-48 649,-67"/>
<text text-anchor="middle" x="591" y="-55" font-family="Helvetica,sans-Serif" font-size="10.00">Skybox::skyGradient</text>
</a>
</g>
</g>
<!-- Node59&#45;&gt;Node68 -->
<g id="edge52_Node000059_Node000068" class="edge">
<title>Node59&#45;&gt;Node68</title>
<g id="a_edge52_Node000059_Node000068"><a xlink:title=" ">
<path fill="none" stroke="#63b8ff" d="M437.7,-266.26C450.32,-263.63 462.88,-258.63 472,-249.5 525.96,-195.47 456.03,-137.45 508,-81.5 512.44,-76.72 517.77,-72.88 523.56,-69.79"/>
<polygon fill="#63b8ff" stroke="#63b8ff" points="525.31,-72.84 532.97,-65.52 522.42,-66.46 525.31,-72.84"/>
</a>
</g>
</g>
<!-- Node70 -->
<g id="Node000070" class="node">
<title>Node70</title>
<g id="a_Node000070"><a xlink:href="../../d0/d82/classRayTracer_1_1ILight.html#a4aaa93d94da7fc685a2a98a57310b3e5" target="_top" xlink:title="Get the type of this light.">
<polygon fill="white" stroke="#666666" points="653.5,-363 528.5,-363 528.5,-344 653.5,-344 653.5,-363"/>
<text text-anchor="middle" x="591" y="-351" font-family="Helvetica,sans-Serif" font-size="10.00">RayTracer::ILight::type</text>
</a>
</g>
</g>
<!-- Node59&#45;&gt;Node70 -->
<g id="edge53_Node000059_Node000070" class="edge">
<title>Node59&#45;&gt;Node70</title>
<g id="a_edge53_Node000059_Node000070"><a xlink:title=" ">
<path fill="none" stroke="#63b8ff" d="M415.02,-277.06C431.92,-283.68 453.95,-293.29 472,-304.5 489.69,-315.49 489.35,-325.23 508,-334.5 512.83,-336.9 517.96,-339 523.22,-340.84"/>
<polygon fill="#63b8ff" stroke="#63b8ff" points="522.18,-344.18 532.78,-343.88 524.31,-337.51 522.18,-344.18"/>
</a>
</g>
</g>
<!-- Node67&#45;&gt;Node25 -->
<g id="edge48_Node000067_Node000025" class="edge">
<title>Node67&#45;&gt;Node25</title>
<g id="a_edge48_Node000067_Node000025"><a xlink:title=" ">
<path fill="none" stroke="#63b8ff" d="M674.2,-387.29C723.77,-386.24 788.13,-386.42 845,-391.5 858.5,-392.71 872.95,-394.81 886.44,-397.13"/>
<polygon fill="#63b8ff" stroke="#63b8ff" points="886.09,-400.63 896.55,-398.94 887.32,-393.74 886.09,-400.63"/>
</a>
</g>
</g>
<!-- Node67&#45;&gt;Node61 -->
<g id="edge49_Node000067_Node000061" class="edge">
<title>Node67&#45;&gt;Node61</title>
<g id="a_edge49_Node000067_Node000061"><a xlink:title=" ">
<path fill="none" stroke="#63b8ff" d="M674.27,-398.97C686.46,-400.23 698.88,-401.51 710.68,-402.72"/>
<polygon fill="#63b8ff" stroke="#63b8ff" points="710.55,-406.23 720.86,-403.77 711.27,-399.26 710.55,-406.23"/>
</a>
</g>
</g>
<!-- Node67&#45;&gt;Node66 -->
<g id="edge50_Node000067_Node000066" class="edge">
<title>Node67&#45;&gt;Node66</title>
<g id="a_edge50_Node000067_Node000066"><a xlink:title=" ">
<path fill="none" stroke="#63b8ff" d="M657.44,-380.94C663.29,-378.68 668.92,-375.91 674,-372.5 722.51,-339.98 754.82,-276.07 768.73,-243.93"/>
<polygon fill="#63b8ff" stroke="#63b8ff" points="772.11,-244.92 772.74,-234.34 765.65,-242.22 772.11,-244.92"/>
</a>
</g>
</g>
<!-- Node71&#45;&gt;Node71 -->
<g id="edge55_Node000071_Node000071" class="edge">
<title>Node71&#45;&gt;Node71</title>
<g id="a_edge55_Node000071_Node000071"><a xlink:title=" ">
<path fill="none" stroke="#63b8ff" d="M171.38,-56.08C160.13,-64.73 167.84,-74 194.5,-74 212,-74 221.33,-70.01 222.5,-64.82"/>
<polygon fill="#63b8ff" stroke="#63b8ff" points="225.55,-63.11 217.62,-56.08 219.44,-66.52 225.55,-63.11"/>
</a>
</g>
</g>
</g>
</svg>
