<?xml version="1.0" encoding="UTF-8" standalone="no"?>
<!DOCTYPE svg PUBLIC "-//W3C//DTD SVG 1.1//EN"
 "http://www.w3.org/Graphics/SVG/1.1/DTD/svg11.dtd">
<!-- Generated by graphviz version 2.43.0 (0)
 -->
<!-- Title: src/loaders/STLLoader.cpp Pages: 1 -->
<svg width="1312pt" height="577pt"
 viewBox="0.00 0.00 1311.50 577.00" xmlns="http://www.w3.org/2000/svg" xmlns:xlink="http://www.w3.org/1999/xlink">
<g id="graph0" class="graph" transform="scale(1 1) rotate(0) translate(4 573)">
<title>src/loaders/STLLoader.cpp</title>
<!-- Node1 -->
<g id="Node000001" class="node">
<title>Node1</title>
<g id="a_Node000001"><a xlink:title="Implementation of STL (Stereolithography) file loading for 3D mesh import in the raytracer.">
<polygon fill="#999999" stroke="#666666" points="994,-569 851,-569 851,-550 994,-550 994,-569"/>
<text text-anchor="middle" x="922.5" y="-557" font-family="Helvetica,sans-Serif" font-size="10.00">src/loaders/STLLoader.cpp</text>
</a>
</g>
</g>
<!-- Node2 -->
<g id="Node000002" class="node">
<title>Node2</title>
<g id="a_Node000002"><a xlink:href="../../da/db1/STLLoader_8hpp.html" target="_top" xlink:title="Declares a loader class for importing 3D models from STL files into Mesh objects.">
<polygon fill="white" stroke="#666666" points="518.5,-514 392.5,-514 392.5,-495 518.5,-495 518.5,-514"/>
<text text-anchor="middle" x="455.5" y="-502" font-family="Helvetica,sans-Serif" font-size="10.00">loaders/STLLoader.hpp</text>
</a>
</g>
</g>
<!-- Node1&#45;&gt;Node2 -->
<g id="edge1_Node000001_Node000002" class="edge">
<title>Node1&#45;&gt;Node2</title>
<g id="a_edge1_Node000001_Node000002"><a xlink:title=" ">
<path fill="none" stroke="#63b8ff" d="M850.81,-550.36C763.5,-540.45 616.81,-523.81 528.78,-513.82"/>
<polygon fill="#63b8ff" stroke="#63b8ff" points="528.94,-510.31 518.61,-512.66 528.15,-517.27 528.94,-510.31"/>
</a>
</g>
</g>
<!-- Node5 -->
<g id="Node000005" class="node">
<title>Node5</title>
<g id="a_Node000005"><a xlink:title=" ">
<polygon fill="#e0e0e0" stroke="#999999" points="47,-294 0,-294 0,-275 47,-275 47,-294"/>
<text text-anchor="middle" x="23.5" y="-282" font-family="Helvetica,sans-Serif" font-size="10.00">vector</text>
</a>
</g>
</g>
<!-- Node1&#45;&gt;Node5 -->
<g id="edge48_Node000001_Node000005" class="edge">
<title>Node1&#45;&gt;Node5</title>
<g id="a_edge48_Node000001_Node000005"><a xlink:title=" ">
<path fill="none" stroke="#63b8ff" d="M850.83,-557.39C637.85,-553.14 23.5,-533.67 23.5,-450.5 23.5,-450.5 23.5,-450.5 23.5,-393.5 23.5,-362.19 23.5,-325.77 23.5,-304.23"/>
<polygon fill="#63b8ff" stroke="#63b8ff" points="27,-304.18 23.5,-294.18 20,-304.18 27,-304.18"/>
</a>
</g>
</g>
<!-- Node7 -->
<g id="Node000007" class="node">
<title>Node7</title>
<g id="a_Node000007"><a xlink:title=" ">
<polygon fill="#e0e0e0" stroke="#999999" points="701.5,-294 637.5,-294 637.5,-275 701.5,-275 701.5,-294"/>
<text text-anchor="middle" x="669.5" y="-282" font-family="Helvetica,sans-Serif" font-size="10.00">algorithm</text>
</a>
</g>
</g>
<!-- Node1&#45;&gt;Node7 -->
<g id="edge46_Node000001_Node000007" class="edge">
<title>Node1&#45;&gt;Node7</title>
<g id="a_edge46_Node000001_Node000007"><a xlink:title=" ">
<path fill="none" stroke="#63b8ff" d="M895.67,-549.98C857.35,-535.92 791.5,-504 791.5,-450.5 791.5,-450.5 791.5,-450.5 791.5,-393.5 791.5,-345.85 738.68,-314.15 702.55,-298.04"/>
<polygon fill="#63b8ff" stroke="#63b8ff" points="703.88,-294.8 693.31,-294.09 701.13,-301.24 703.88,-294.8"/>
</a>
</g>
</g>
<!-- Node19 -->
<g id="Node000019" class="node">
<title>Node19</title>
<g id="a_Node000019"><a xlink:title=" ">
<polygon fill="#e0e0e0" stroke="#999999" points="763.5,-294 719.5,-294 719.5,-275 763.5,-275 763.5,-294"/>
<text text-anchor="middle" x="741.5" y="-282" font-family="Helvetica,sans-Serif" font-size="10.00">limits</text>
</a>
</g>
</g>
<!-- Node1&#45;&gt;Node19 -->
<g id="edge47_Node000001_Node000019" class="edge">
<title>Node1&#45;&gt;Node19</title>
<g id="a_edge47_Node000001_Node000019"><a xlink:title=" ">
<path fill="none" stroke="#63b8ff" d="M900.03,-549.91C883.83,-542.64 862.58,-530.71 849.5,-514 831.26,-490.7 829.5,-480.09 829.5,-450.5 829.5,-450.5 829.5,-450.5 829.5,-393.5 829.5,-363.33 824.05,-353.79 805.5,-330 795.59,-317.29 781.05,-306.78 768.33,-299.16"/>
<polygon fill="#63b8ff" stroke="#63b8ff" points="769.91,-296.04 759.48,-294.14 766.46,-302.12 769.91,-296.04"/>
</a>
</g>
</g>
<!-- Node20 -->
<g id="Node000020" class="node">
<title>Node20</title>
<g id="a_Node000020"><a xlink:title=" ">
<polygon fill="#e0e0e0" stroke="#999999" points="913,-514 858,-514 858,-495 913,-495 913,-514"/>
<text text-anchor="middle" x="885.5" y="-502" font-family="Helvetica,sans-Serif" font-size="10.00">fstream</text>
</a>
</g>
</g>
<!-- Node1&#45;&gt;Node20 -->
<g id="edge40_Node000001_Node000020" class="edge">
<title>Node1&#45;&gt;Node20</title>
<g id="a_edge40_Node000001_Node000020"><a xlink:title=" ">
<path fill="none" stroke="#63b8ff" d="M916.39,-549.75C911.22,-542.34 903.65,-531.5 897.31,-522.41"/>
<polygon fill="#63b8ff" stroke="#63b8ff" points="900.09,-520.29 891.5,-514.09 894.35,-524.29 900.09,-520.29"/>
</a>
</g>
</g>
<!-- Node21 -->
<g id="Node000021" class="node">
<title>Node21</title>
<g id="a_Node000021"><a xlink:title=" ">
<polygon fill="#e0e0e0" stroke="#999999" points="987.5,-514 931.5,-514 931.5,-495 987.5,-495 987.5,-514"/>
<text text-anchor="middle" x="959.5" y="-502" font-family="Helvetica,sans-Serif" font-size="10.00">sstream</text>
</a>
</g>
</g>
<!-- Node1&#45;&gt;Node21 -->
<g id="edge41_Node000001_Node000021" class="edge">
<title>Node1&#45;&gt;Node21</title>
<g id="a_edge41_Node000001_Node000021"><a xlink:title=" ">
<path fill="none" stroke="#63b8ff" d="M928.61,-549.75C933.78,-542.34 941.35,-531.5 947.69,-522.41"/>
<polygon fill="#63b8ff" stroke="#63b8ff" points="950.65,-524.29 953.5,-514.09 944.91,-520.29 950.65,-524.29"/>
</a>
</g>
</g>
<!-- Node22 -->
<g id="Node000022" class="node">
<title>Node22</title>
<g id="a_Node000022"><a xlink:title=" ">
<polygon fill="#e0e0e0" stroke="#999999" points="1071,-514 1006,-514 1006,-495 1071,-495 1071,-514"/>
<text text-anchor="middle" x="1038.5" y="-502" font-family="Helvetica,sans-Serif" font-size="10.00">stdexcept</text>
</a>
</g>
</g>
<!-- Node1&#45;&gt;Node22 -->
<g id="edge42_Node000001_Node000022" class="edge">
<title>Node1&#45;&gt;Node22</title>
<g id="a_edge42_Node000001_Node000022"><a xlink:title=" ">
<path fill="none" stroke="#63b8ff" d="M941.14,-549.98C959.8,-541.46 988.75,-528.23 1010.24,-518.41"/>
<polygon fill="#63b8ff" stroke="#63b8ff" points="1011.88,-521.51 1019.52,-514.17 1008.97,-515.14 1011.88,-521.51"/>
</a>
</g>
</g>
<!-- Node23 -->
<g id="Node000023" class="node">
<title>Node23</title>
<g id="a_Node000023"><a xlink:title=" ">
<polygon fill="#e0e0e0" stroke="#999999" points="1139.5,-514 1089.5,-514 1089.5,-495 1139.5,-495 1139.5,-514"/>
<text text-anchor="middle" x="1114.5" y="-502" font-family="Helvetica,sans-Serif" font-size="10.00">cstdint</text>
</a>
</g>
</g>
<!-- Node1&#45;&gt;Node23 -->
<g id="edge43_Node000001_Node000023" class="edge">
<title>Node1&#45;&gt;Node23</title>
<g id="a_edge43_Node000001_Node000023"><a xlink:title=" ">
<path fill="none" stroke="#63b8ff" d="M953.35,-549.98C987.7,-540.5 1043.11,-525.21 1079.17,-515.25"/>
<polygon fill="#63b8ff" stroke="#63b8ff" points="1080.54,-518.51 1089.25,-512.47 1078.67,-511.76 1080.54,-518.51"/>
</a>
</g>
</g>
<!-- Node24 -->
<g id="Node000024" class="node">
<title>Node24</title>
<g id="a_Node000024"><a xlink:title=" ">
<polygon fill="#e0e0e0" stroke="#999999" points="1225.5,-514 1157.5,-514 1157.5,-495 1225.5,-495 1225.5,-514"/>
<text text-anchor="middle" x="1191.5" y="-502" font-family="Helvetica,sans-Serif" font-size="10.00">filesystem</text>
</a>
</g>
</g>
<!-- Node1&#45;&gt;Node24 -->
<g id="edge44_Node000001_Node000024" class="edge">
<title>Node1&#45;&gt;Node24</title>
<g id="a_edge44_Node000001_Node000024"><a xlink:title=" ">
<path fill="none" stroke="#63b8ff" d="M965.83,-549.98C1009.19,-541.45 1078.1,-527.89 1147.06,-514.28"/>
<polygon fill="#63b8ff" stroke="#63b8ff" points="1148.1,-517.65 1157.23,-512.28 1146.74,-510.78 1148.1,-517.65"/>
</a>
</g>
</g>
<!-- Node25 -->
<g id="Node000025" class="node">
<title>Node25</title>
<g id="a_Node000025"><a xlink:title=" ">
<polygon fill="#e0e0e0" stroke="#999999" points="1303.5,-514 1243.5,-514 1243.5,-495 1303.5,-495 1303.5,-514"/>
<text text-anchor="middle" x="1273.5" y="-502" font-family="Helvetica,sans-Serif" font-size="10.00">iostream</text>
</a>
</g>
</g>
<!-- Node1&#45;&gt;Node25 -->
<g id="edge45_Node000001_Node000025" class="edge">
<title>Node1&#45;&gt;Node25</title>
<g id="a_edge45_Node000001_Node000025"><a xlink:title=" ">
<path fill="none" stroke="#63b8ff" d="M992.75,-549.97C1053.84,-542.21 1144.97,-529.82 1233.38,-514.09"/>
<polygon fill="#63b8ff" stroke="#63b8ff" points="1234.09,-517.52 1243.31,-512.31 1232.85,-510.63 1234.09,-517.52"/>
</a>
</g>
</g>
<!-- Node3 -->
<g id="Node000003" class="node">
<title>Node3</title>
<g id="a_Node000003"><a xlink:title=" ">
<polygon fill="#e0e0e0" stroke="#999999" points="391.5,-184 347.5,-184 347.5,-165 391.5,-165 391.5,-184"/>
<text text-anchor="middle" x="369.5" y="-172" font-family="Helvetica,sans-Serif" font-size="10.00">string</text>
</a>
</g>
</g>
<!-- Node2&#45;&gt;Node3 -->
<g id="edge2_Node000002_Node000003" class="edge">
<title>Node2&#45;&gt;Node3</title>
<g id="a_edge2_Node000002_Node000003"><a xlink:title=" ">
<path fill="none" stroke="#63b8ff" d="M437.14,-494.99C422.64,-487.41 402.84,-475.04 390.5,-459 358.88,-417.88 360.29,-400.12 351.5,-349 341.86,-292.94 356.06,-225.73 364.3,-193.92"/>
<polygon fill="#63b8ff" stroke="#63b8ff" points="367.69,-194.79 366.92,-184.22 360.93,-192.96 367.69,-194.79"/>
</a>
</g>
</g>
<!-- Node4 -->
<g id="Node000004" class="node">
<title>Node4</title>
<g id="a_Node000004"><a xlink:href="../../d1/d62/Mesh_8hpp.html" target="_top" xlink:title="Declares a simple triangle mesh wrapper used by the ray tracer.">
<polygon fill="white" stroke="#666666" points="512,-459 399,-459 399,-440 512,-440 512,-459"/>
<text text-anchor="middle" x="455.5" y="-447" font-family="Helvetica,sans-Serif" font-size="10.00">rendering/Mesh.hpp</text>
</a>
</g>
</g>
<!-- Node2&#45;&gt;Node4 -->
<g id="edge3_Node000002_Node000004" class="edge">
<title>Node2&#45;&gt;Node4</title>
<g id="a_edge3_Node000002_Node000004"><a xlink:title=" ">
<path fill="none" stroke="#63b8ff" d="M455.5,-494.75C455.5,-487.8 455.5,-477.85 455.5,-469.13"/>
<polygon fill="#63b8ff" stroke="#63b8ff" points="459,-469.09 455.5,-459.09 452,-469.09 459,-469.09"/>
</a>
</g>
</g>
<!-- Node4&#45;&gt;Node5 -->
<g id="edge4_Node000004_Node000005" class="edge">
<title>Node4&#45;&gt;Node5</title>
<g id="a_edge4_Node000004_Node000005"><a xlink:title=" ">
<path fill="none" stroke="#63b8ff" d="M414.08,-439.94C349.93,-425.85 223.52,-394.69 123.5,-349 93.65,-335.37 62.16,-314.06 42.67,-299.94"/>
<polygon fill="#63b8ff" stroke="#63b8ff" points="44.74,-297.12 34.61,-294.01 40.6,-302.76 44.74,-297.12"/>
</a>
</g>
</g>
<!-- Node6 -->
<g id="Node000006" class="node">
<title>Node6</title>
<g id="a_Node000006"><a xlink:href="../../d9/db8/Triangle_8hpp.html" target="_top" xlink:title="Declares the Triangle primitive and its ray–triangle intersection logic.">
<polygon fill="white" stroke="#666666" points="519.5,-404 391.5,-404 391.5,-385 519.5,-385 519.5,-404"/>
<text text-anchor="middle" x="455.5" y="-392" font-family="Helvetica,sans-Serif" font-size="10.00">primitives/Triangle.hpp</text>
</a>
</g>
</g>
<!-- Node4&#45;&gt;Node6 -->
<g id="edge5_Node000004_Node000006" class="edge">
<title>Node4&#45;&gt;Node6</title>
<g id="a_edge5_Node000004_Node000006"><a xlink:title=" ">
<path fill="none" stroke="#63b8ff" d="M455.5,-439.75C455.5,-432.8 455.5,-422.85 455.5,-414.13"/>
<polygon fill="#63b8ff" stroke="#63b8ff" points="459,-414.09 455.5,-404.09 452,-414.09 459,-414.09"/>
</a>
</g>
</g>
<!-- Node10 -->
<g id="Node000010" class="node">
<title>Node10</title>
<g id="a_Node000010"><a xlink:href="../../d4/db2/Ray_8hpp.html" target="_top" xlink:title="Defines the Ray structure used for ray&#45;object intersection tests in the raytracer.">
<polygon fill="white" stroke="#666666" points="722,-184 643,-184 643,-165 722,-165 722,-184"/>
<text text-anchor="middle" x="682.5" y="-172" font-family="Helvetica,sans-Serif" font-size="10.00">core/Ray.hpp</text>
</a>
</g>
</g>
<!-- Node4&#45;&gt;Node10 -->
<g id="edge39_Node000004_Node000010" class="edge">
<title>Node4&#45;&gt;Node10</title>
<g id="a_edge39_Node000004_Node000010"><a xlink:title=" ">
<path fill="none" stroke="#63b8ff" d="M512.35,-445.45C625.38,-437.84 867.5,-413.06 867.5,-340.5 867.5,-340.5 867.5,-340.5 867.5,-283.5 867.5,-220.65 786.89,-193.72 732.09,-182.67"/>
<polygon fill="#63b8ff" stroke="#63b8ff" points="732.66,-179.21 722.19,-180.78 731.36,-186.09 732.66,-179.21"/>
</a>
</g>
</g>
<!-- Node6&#45;&gt;Node7 -->
<g id="edge6_Node000006_Node000007" class="edge">
<title>Node6&#45;&gt;Node7</title>
<g id="a_edge6_Node000006_Node000007"><a xlink:title=" ">
<path fill="none" stroke="#63b8ff" d="M472.65,-384.84C510.07,-365.96 599.25,-320.96 643.57,-298.59"/>
<polygon fill="#63b8ff" stroke="#63b8ff" points="645.21,-301.68 652.56,-294.05 642.06,-295.43 645.21,-301.68"/>
</a>
</g>
</g>
<!-- Node8 -->
<g id="Node000008" class="node">
<title>Node8</title>
<g id="a_Node000008"><a xlink:title=" ">
<polygon fill="#e0e0e0" stroke="#999999" points="383,-19 336,-19 336,0 383,0 383,-19"/>
<text text-anchor="middle" x="359.5" y="-7" font-family="Helvetica,sans-Serif" font-size="10.00">cmath</text>
</a>
</g>
</g>
<!-- Node6&#45;&gt;Node8 -->
<g id="edge7_Node000006_Node000008" class="edge">
<title>Node6&#45;&gt;Node8</title>
<g id="a_edge7_Node000006_Node000008"><a xlink:title=" ">
<path fill="none" stroke="#63b8ff" d="M391.47,-393.74C283.17,-390.43 75.5,-366.35 75.5,-230.5 75.5,-230.5 75.5,-230.5 75.5,-118.5 75.5,-65.47 250.65,-29.13 325.86,-15.96"/>
<polygon fill="#63b8ff" stroke="#63b8ff" points="326.51,-19.4 335.77,-14.26 325.33,-12.5 326.51,-19.4"/>
</a>
</g>
</g>
<!-- Node9 -->
<g id="Node000009" class="node">
<title>Node9</title>
<g id="a_Node000009"><a xlink:href="../../de/d81/APrimitive_8hpp.html" target="_top" xlink:title=" ">
<polygon fill="white" stroke="#666666" points="553,-294 440,-294 440,-275 553,-275 553,-294"/>
<text text-anchor="middle" x="496.5" y="-282" font-family="Helvetica,sans-Serif" font-size="10.00">core/APrimitive.hpp</text>
</a>
</g>
</g>
<!-- Node6&#45;&gt;Node9 -->
<g id="edge8_Node000006_Node000009" class="edge">
<title>Node6&#45;&gt;Node9</title>
<g id="a_edge8_Node000006_Node000009"><a xlink:title=" ">
<path fill="none" stroke="#63b8ff" d="M460.33,-384.83C465.12,-376.01 472.45,-361.83 477.5,-349 483.3,-334.26 488.36,-317.01 491.79,-304.21"/>
<polygon fill="#63b8ff" stroke="#63b8ff" points="495.24,-304.84 494.37,-294.28 488.47,-303.08 495.24,-304.84"/>
</a>
</g>
</g>
<!-- Node6&#45;&gt;Node10 -->
<g id="edge28_Node000006_Node000010" class="edge">
<title>Node6&#45;&gt;Node10</title>
<g id="a_edge28_Node000006_Node000010"><a xlink:title=" ">
<path fill="none" stroke="#63b8ff" d="M506.52,-384.95C587.8,-370.17 740.75,-337.24 772.5,-294 800.57,-255.77 742.09,-211.43 706.76,-189.4"/>
<polygon fill="#63b8ff" stroke="#63b8ff" points="708.29,-186.24 697.93,-184.05 704.67,-192.22 708.29,-186.24"/>
</a>
</g>
</g>
<!-- Node11 -->
<g id="Node000011" class="node">
<title>Node11</title>
<g id="a_Node000011"><a xlink:href="../../df/df2/Point3D_8hpp.html" target="_top" xlink:title="Defines a 3D point structure used in geometric computations.">
<polygon fill="white" stroke="#666666" points="753.5,-129 677.5,-129 677.5,-110 753.5,-110 753.5,-129"/>
<text text-anchor="middle" x="715.5" y="-117" font-family="Helvetica,sans-Serif" font-size="10.00">Point3D.hpp</text>
</a>
</g>
</g>
<!-- Node6&#45;&gt;Node11 -->
<g id="edge26_Node000006_Node000011" class="edge">
<title>Node6&#45;&gt;Node11</title>
<g id="a_edge26_Node000006_Node000011"><a xlink:title=" ">
<path fill="none" stroke="#63b8ff" d="M519.56,-389.07C571.01,-383.87 644.34,-372.72 704.5,-349 746.36,-332.49 768,-333.53 789.5,-294 805.26,-265.03 838.59,-279.3 771.5,-165 764.16,-152.49 751.86,-142.14 740.66,-134.57"/>
<polygon fill="#63b8ff" stroke="#63b8ff" points="742.35,-131.5 732.02,-129.11 738.61,-137.42 742.35,-131.5"/>
</a>
</g>
</g>
<!-- Node12 -->
<g id="Node000012" class="node">
<title>Node12</title>
<g id="a_Node000012"><a xlink:href="../../d3/dde/Vector3D_8hpp.html" target="_top" xlink:title="Defines a 3D vector structure with basic arithmetic and transformation operations.">
<polygon fill="white" stroke="#666666" points="400.5,-74 318.5,-74 318.5,-55 400.5,-55 400.5,-74"/>
<text text-anchor="middle" x="359.5" y="-62" font-family="Helvetica,sans-Serif" font-size="10.00">Vector3D.hpp</text>
</a>
</g>
</g>
<!-- Node6&#45;&gt;Node12 -->
<g id="edge27_Node000006_Node000012" class="edge">
<title>Node6&#45;&gt;Node12</title>
<g id="a_edge27_Node000006_Node000012"><a xlink:title=" ">
<path fill="none" stroke="#63b8ff" d="M391.17,-390.92C292.1,-383.12 113.5,-352.18 113.5,-230.5 113.5,-230.5 113.5,-230.5 113.5,-173.5 113.5,-89.25 235.95,-70.13 308.07,-66.16"/>
<polygon fill="#63b8ff" stroke="#63b8ff" points="308.5,-69.65 318.33,-65.68 308.17,-62.66 308.5,-69.65"/>
</a>
</g>
</g>
<!-- Node14 -->
<g id="Node000014" class="node">
<title>Node14</title>
<g id="a_Node000014"><a xlink:href="../../d0/d70/Material_8hpp.html" target="_top" xlink:title="Declares the physically&#45;based material descriptor used by the renderer.">
<polygon fill="white" stroke="#666666" points="345.5,-239 217.5,-239 217.5,-220 345.5,-220 345.5,-239"/>
<text text-anchor="middle" x="281.5" y="-227" font-family="Helvetica,sans-Serif" font-size="10.00">rendering/Material.hpp</text>
</a>
</g>
</g>
<!-- Node6&#45;&gt;Node14 -->
<g id="edge29_Node000006_Node000014" class="edge">
<title>Node6&#45;&gt;Node14</title>
<g id="a_edge29_Node000006_Node000014"><a xlink:title=" ">
<path fill="none" stroke="#63b8ff" d="M421.6,-384.95C399.66,-378.08 371.57,-366.63 351.5,-349 319.46,-320.85 298.07,-274.34 288.05,-248.77"/>
<polygon fill="#63b8ff" stroke="#63b8ff" points="291.25,-247.33 284.46,-239.2 284.7,-249.79 291.25,-247.33"/>
</a>
</g>
</g>
<!-- Node18 -->
<g id="Node000018" class="node">
<title>Node18</title>
<g id="a_Node000018"><a xlink:href="../../d9/dad/BVH_8hpp.html" target="_top" xlink:title="Declares the axis&#45;aligned bounding box (AABB) and the BVH node used for ray&#45;tracing acceleration.">
<polygon fill="white" stroke="#666666" points="468.5,-349 360.5,-349 360.5,-330 468.5,-330 468.5,-349"/>
<text text-anchor="middle" x="414.5" y="-337" font-family="Helvetica,sans-Serif" font-size="10.00">rendering/BVH.hpp</text>
</a>
</g>
</g>
<!-- Node6&#45;&gt;Node18 -->
<g id="edge30_Node000006_Node000018" class="edge">
<title>Node6&#45;&gt;Node18</title>
<g id="a_edge30_Node000006_Node000018"><a xlink:title=" ">
<path fill="none" stroke="#63b8ff" d="M448.73,-384.75C442.94,-377.26 434.44,-366.28 427.36,-357.13"/>
<polygon fill="#63b8ff" stroke="#63b8ff" points="430.03,-354.86 421.14,-349.09 424.49,-359.14 430.03,-354.86"/>
</a>
</g>
</g>
<!-- Node9&#45;&gt;Node10 -->
<g id="edge9_Node000009_Node000010" class="edge">
<title>Node9&#45;&gt;Node10</title>
<g id="a_edge9_Node000009_Node000010"><a xlink:title=" ">
<path fill="none" stroke="#63b8ff" d="M495.14,-274.86C493.55,-261.34 492.66,-235.17 506.5,-220 523.34,-201.55 586.8,-188.89 632.69,-181.92"/>
<polygon fill="#63b8ff" stroke="#63b8ff" points="633.39,-185.35 642.78,-180.43 632.38,-178.43 633.39,-185.35"/>
</a>
</g>
</g>
<!-- Node9&#45;&gt;Node11 -->
<g id="edge15_Node000009_Node000011" class="edge">
<title>Node9&#45;&gt;Node11</title>
<g id="a_edge15_Node000009_Node000011"><a xlink:title=" ">
<path fill="none" stroke="#63b8ff" d="M553.12,-276.73C619.79,-268.17 722.97,-252.89 734.5,-239 758.47,-210.13 739.31,-163.23 725.84,-137.96"/>
<polygon fill="#63b8ff" stroke="#63b8ff" points="728.84,-136.15 720.89,-129.13 722.73,-139.57 728.84,-136.15"/>
</a>
</g>
</g>
<!-- Node9&#45;&gt;Node12 -->
<g id="edge17_Node000009_Node000012" class="edge">
<title>Node9&#45;&gt;Node12</title>
<g id="a_edge17_Node000009_Node000012"><a xlink:title=" ">
<path fill="none" stroke="#63b8ff" d="M495.23,-274.95C490.82,-247.94 474.05,-163.06 430.5,-110 419.63,-96.75 403.73,-86.27 389.73,-78.82"/>
<polygon fill="#63b8ff" stroke="#63b8ff" points="390.93,-75.51 380.42,-74.15 387.79,-81.76 390.93,-75.51"/>
</a>
</g>
</g>
<!-- Node13 -->
<g id="Node000013" class="node">
<title>Node13</title>
<g id="a_Node000013"><a xlink:href="../../d8/d1e/Vector2D_8hpp.html" target="_top" xlink:title="Defines a 2D vector structure used for texture coordinates or screen&#45;space math operations.">
<polygon fill="white" stroke="#666666" points="621.5,-239 515.5,-239 515.5,-220 621.5,-220 621.5,-239"/>
<text text-anchor="middle" x="568.5" y="-227" font-family="Helvetica,sans-Serif" font-size="10.00">core/Vector2D.hpp</text>
</a>
</g>
</g>
<!-- Node9&#45;&gt;Node13 -->
<g id="edge16_Node000009_Node000013" class="edge">
<title>Node9&#45;&gt;Node13</title>
<g id="a_edge16_Node000009_Node000013"><a xlink:title=" ">
<path fill="none" stroke="#63b8ff" d="M508.07,-274.98C518.92,-267 535.38,-254.88 548.38,-245.31"/>
<polygon fill="#63b8ff" stroke="#63b8ff" points="550.74,-247.92 556.72,-239.17 546.59,-242.28 550.74,-247.92"/>
</a>
</g>
</g>
<!-- Node9&#45;&gt;Node14 -->
<g id="edge18_Node000009_Node000014" class="edge">
<title>Node9&#45;&gt;Node14</title>
<g id="a_edge18_Node000009_Node000014"><a xlink:title=" ">
<path fill="none" stroke="#63b8ff" d="M461.96,-274.98C425.08,-265.89 366.51,-251.46 326.16,-241.51"/>
<polygon fill="#63b8ff" stroke="#63b8ff" points="326.86,-238.08 316.31,-239.08 325.19,-244.87 326.86,-238.08"/>
</a>
</g>
</g>
<!-- Node17 -->
<g id="Node000017" class="node">
<title>Node17</title>
<g id="a_Node000017"><a xlink:href="../../d0/d38/IPrimitive_8hpp.html" target="_top" xlink:title="Interface for geometric primitives in the raytracer.">
<polygon fill="white" stroke="#666666" points="725,-239 640,-239 640,-220 725,-220 725,-239"/>
<text text-anchor="middle" x="682.5" y="-227" font-family="Helvetica,sans-Serif" font-size="10.00">IPrimitive.hpp</text>
</a>
</g>
</g>
<!-- Node9&#45;&gt;Node17 -->
<g id="edge24_Node000009_Node000017" class="edge">
<title>Node9&#45;&gt;Node17</title>
<g id="a_edge24_Node000009_Node000017"><a xlink:title=" ">
<path fill="none" stroke="#63b8ff" d="M526.38,-274.98C557.88,-266.01 607.67,-251.82 642.53,-241.89"/>
<polygon fill="#63b8ff" stroke="#63b8ff" points="643.72,-245.19 652.38,-239.08 641.81,-238.46 643.72,-245.19"/>
</a>
</g>
</g>
<!-- Node10&#45;&gt;Node11 -->
<g id="edge10_Node000010_Node000011" class="edge">
<title>Node10&#45;&gt;Node11</title>
<g id="a_edge10_Node000010_Node000011"><a xlink:title=" ">
<path fill="none" stroke="#63b8ff" d="M687.95,-164.75C692.51,-157.42 699.17,-146.73 704.79,-137.7"/>
<polygon fill="#63b8ff" stroke="#63b8ff" points="707.84,-139.43 710.15,-129.09 701.9,-135.73 707.84,-139.43"/>
</a>
</g>
</g>
<!-- Node10&#45;&gt;Node12 -->
<g id="edge14_Node000010_Node000012" class="edge">
<title>Node10&#45;&gt;Node12</title>
<g id="a_edge14_Node000010_Node000012"><a xlink:title=" ">
<path fill="none" stroke="#63b8ff" d="M656.88,-164.94C599.52,-145.76 460.64,-99.32 395,-77.37"/>
<polygon fill="#63b8ff" stroke="#63b8ff" points="395.71,-73.92 385.12,-74.07 393.49,-80.56 395.71,-73.92"/>
</a>
</g>
</g>
<!-- Node11&#45;&gt;Node8 -->
<g id="edge13_Node000011_Node000008" class="edge">
<title>Node11&#45;&gt;Node8</title>
<g id="a_edge13_Node000011_Node000008"><a xlink:title=" ">
<path fill="none" stroke="#63b8ff" d="M687.27,-109.94C622.37,-90.25 462.82,-41.85 393.06,-20.68"/>
<polygon fill="#63b8ff" stroke="#63b8ff" points="394.03,-17.32 383.44,-17.76 392,-24.02 394.03,-17.32"/>
</a>
</g>
</g>
<!-- Node11&#45;&gt;Node12 -->
<g id="edge11_Node000011_Node000012" class="edge">
<title>Node11&#45;&gt;Node12</title>
<g id="a_edge11_Node000011_Node000012"><a xlink:title=" ">
<path fill="none" stroke="#63b8ff" d="M677.4,-112.83C613.12,-103.26 483.08,-83.9 410.82,-73.14"/>
<polygon fill="#63b8ff" stroke="#63b8ff" points="411,-69.63 400.6,-71.62 409.97,-76.55 411,-69.63"/>
</a>
</g>
</g>
<!-- Node12&#45;&gt;Node8 -->
<g id="edge12_Node000012_Node000008" class="edge">
<title>Node12&#45;&gt;Node8</title>
<g id="a_edge12_Node000012_Node000008"><a xlink:title=" ">
<path fill="none" stroke="#63b8ff" d="M359.5,-54.75C359.5,-47.8 359.5,-37.85 359.5,-29.13"/>
<polygon fill="#63b8ff" stroke="#63b8ff" points="363,-29.09 359.5,-19.09 356,-29.09 363,-29.09"/>
</a>
</g>
</g>
<!-- Node14&#45;&gt;Node3 -->
<g id="edge19_Node000014_Node000003" class="edge">
<title>Node14&#45;&gt;Node3</title>
<g id="a_edge19_Node000014_Node000003"><a xlink:title=" ">
<path fill="none" stroke="#63b8ff" d="M295.64,-219.98C309.29,-211.77 330.19,-199.18 346.28,-189.49"/>
<polygon fill="#63b8ff" stroke="#63b8ff" points="348.34,-192.33 355.1,-184.17 344.73,-186.33 348.34,-192.33"/>
</a>
</g>
</g>
<!-- Node14&#45;&gt;Node12 -->
<g id="edge21_Node000014_Node000012" class="edge">
<title>Node14&#45;&gt;Node12</title>
<g id="a_edge21_Node000014_Node000012"><a xlink:title=" ">
<path fill="none" stroke="#63b8ff" d="M279.64,-219.99C275.62,-199.41 268.12,-145.99 289.5,-110 297.81,-96.02 312.41,-85.71 326.13,-78.56"/>
<polygon fill="#63b8ff" stroke="#63b8ff" points="327.91,-81.59 335.41,-74.1 324.88,-75.28 327.91,-81.59"/>
</a>
</g>
</g>
<!-- Node15 -->
<g id="Node000015" class="node">
<title>Node15</title>
<g id="a_Node000015"><a xlink:title=" ">
<polygon fill="#e0e0e0" stroke="#999999" points="239.5,-184 181.5,-184 181.5,-165 239.5,-165 239.5,-184"/>
<text text-anchor="middle" x="210.5" y="-172" font-family="Helvetica,sans-Serif" font-size="10.00">memory</text>
</a>
</g>
</g>
<!-- Node14&#45;&gt;Node15 -->
<g id="edge20_Node000014_Node000015" class="edge">
<title>Node14&#45;&gt;Node15</title>
<g id="a_edge20_Node000014_Node000015"><a xlink:title=" ">
<path fill="none" stroke="#63b8ff" d="M270.09,-219.98C259.39,-212 243.16,-199.88 230.34,-190.31"/>
<polygon fill="#63b8ff" stroke="#63b8ff" points="232.22,-187.35 222.11,-184.17 228.03,-192.96 232.22,-187.35"/>
</a>
</g>
</g>
<!-- Node16 -->
<g id="Node000016" class="node">
<title>Node16</title>
<g id="a_Node000016"><a xlink:href="../../d0/ddc/Texture_8hpp.html" target="_top" xlink:title="Declares the abstract base class for all 2&#45;D textures. (Solid colour, checkerboard,...">
<polygon fill="white" stroke="#666666" points="421,-129 298,-129 298,-110 421,-110 421,-129"/>
<text text-anchor="middle" x="359.5" y="-117" font-family="Helvetica,sans-Serif" font-size="10.00">rendering/Texture.hpp</text>
</a>
</g>
</g>
<!-- Node14&#45;&gt;Node16 -->
<g id="edge22_Node000014_Node000016" class="edge">
<title>Node14&#45;&gt;Node16</title>
<g id="a_edge22_Node000014_Node000016"><a xlink:title=" ">
<path fill="none" stroke="#63b8ff" d="M287.88,-219.66C300.86,-201.69 330.51,-160.64 347.31,-137.38"/>
<polygon fill="#63b8ff" stroke="#63b8ff" points="350.23,-139.31 353.25,-129.16 344.55,-135.22 350.23,-139.31"/>
</a>
</g>
</g>
<!-- Node16&#45;&gt;Node12 -->
<g id="edge23_Node000016_Node000012" class="edge">
<title>Node16&#45;&gt;Node12</title>
<g id="a_edge23_Node000016_Node000012"><a xlink:title=" ">
<path fill="none" stroke="#63b8ff" d="M359.5,-109.75C359.5,-102.8 359.5,-92.85 359.5,-84.13"/>
<polygon fill="#63b8ff" stroke="#63b8ff" points="363,-84.09 359.5,-74.09 356,-84.09 363,-84.09"/>
</a>
</g>
</g>
<!-- Node17&#45;&gt;Node10 -->
<g id="edge25_Node000017_Node000010" class="edge">
<title>Node17&#45;&gt;Node10</title>
<g id="a_edge25_Node000017_Node000010"><a xlink:title=" ">
<path fill="none" stroke="#63b8ff" d="M682.5,-219.75C682.5,-212.8 682.5,-202.85 682.5,-194.13"/>
<polygon fill="#63b8ff" stroke="#63b8ff" points="686,-194.09 682.5,-184.09 679,-194.09 686,-194.09"/>
</a>
</g>
</g>
<!-- Node18&#45;&gt;Node5 -->
<g id="edge32_Node000018_Node000005" class="edge">
<title>Node18&#45;&gt;Node5</title>
<g id="a_edge32_Node000018_Node000005"><a xlink:title=" ">
<path fill="none" stroke="#63b8ff" d="M360.13,-331.13C278.07,-320.01 124.97,-299.25 57.23,-290.07"/>
<polygon fill="#63b8ff" stroke="#63b8ff" points="57.49,-286.58 47.11,-288.7 56.55,-293.51 57.49,-286.58"/>
</a>
</g>
</g>
<!-- Node18&#45;&gt;Node7 -->
<g id="edge33_Node000018_Node000007" class="edge">
<title>Node18&#45;&gt;Node7</title>
<g id="a_edge33_Node000018_Node000007"><a xlink:title=" ">
<path fill="none" stroke="#63b8ff" d="M455.47,-329.98C502.56,-320.2 579.46,-304.21 627.13,-294.31"/>
<polygon fill="#63b8ff" stroke="#63b8ff" points="628.05,-297.69 637.13,-292.23 626.62,-290.84 628.05,-297.69"/>
</a>
</g>
</g>
<!-- Node18&#45;&gt;Node9 -->
<g id="edge36_Node000018_Node000009" class="edge">
<title>Node18&#45;&gt;Node9</title>
<g id="a_edge36_Node000018_Node000009"><a xlink:title=" ">
<path fill="none" stroke="#63b8ff" d="M427.67,-329.98C440.27,-321.84 459.5,-309.41 474.44,-299.76"/>
<polygon fill="#63b8ff" stroke="#63b8ff" points="476.59,-302.54 483.09,-294.17 472.79,-296.66 476.59,-302.54"/>
</a>
</g>
</g>
<!-- Node18&#45;&gt;Node10 -->
<g id="edge35_Node000018_Node000010" class="edge">
<title>Node18&#45;&gt;Node10</title>
<g id="a_edge35_Node000018_Node000010"><a xlink:title=" ">
<path fill="none" stroke="#63b8ff" d="M415.27,-329.67C416.73,-316.8 420.77,-292.52 431.5,-275 450.56,-243.87 460.15,-236.92 492.5,-220 536.69,-196.89 592.87,-185.64 632.65,-180.26"/>
<polygon fill="#63b8ff" stroke="#63b8ff" points="633.17,-183.72 642.65,-178.98 632.28,-176.78 633.17,-183.72"/>
</a>
</g>
</g>
<!-- Node18&#45;&gt;Node11 -->
<g id="edge37_Node000018_Node000011" class="edge">
<title>Node18&#45;&gt;Node11</title>
<g id="a_edge37_Node000018_Node000011"><a xlink:title=" ">
<path fill="none" stroke="#63b8ff" d="M443.21,-329.92C484.27,-317.67 562.12,-294.48 628.5,-275 683.56,-258.84 717.21,-284.25 752.5,-239 772.73,-213.05 766.08,-195.79 754.5,-165 750.32,-153.89 741.98,-143.75 734.07,-135.96"/>
<polygon fill="#63b8ff" stroke="#63b8ff" points="736.22,-133.19 726.49,-129.01 731.49,-138.35 736.22,-133.19"/>
</a>
</g>
</g>
<!-- Node18&#45;&gt;Node12 -->
<g id="edge38_Node000018_Node000012" class="edge">
<title>Node18&#45;&gt;Node12</title>
<g id="a_edge38_Node000018_Node000012"><a xlink:title=" ">
<path fill="none" stroke="#63b8ff" d="M360.15,-334.18C323.5,-329.11 275.46,-318.05 239.5,-294 191.92,-262.17 185.04,-239.85 172.5,-184 157.98,-119.3 247.95,-87.99 308.18,-74.45"/>
<polygon fill="#63b8ff" stroke="#63b8ff" points="309.27,-77.79 318.31,-72.27 307.8,-70.95 309.27,-77.79"/>
</a>
</g>
</g>
<!-- Node18&#45;&gt;Node15 -->
<g id="edge31_Node000018_Node000015" class="edge">
<title>Node18&#45;&gt;Node15</title>
<g id="a_edge31_Node000018_Node000015"><a xlink:title=" ">
<path fill="none" stroke="#63b8ff" d="M364.49,-329.94C315.2,-318.55 242.49,-293.16 208.5,-239 200.16,-225.72 201.7,-207.6 204.72,-194.12"/>
<polygon fill="#63b8ff" stroke="#63b8ff" points="208.2,-194.65 207.42,-184.09 201.44,-192.84 208.2,-194.65"/>
</a>
</g>
</g>
<!-- Node18&#45;&gt;Node19 -->
<g id="edge34_Node000018_Node000019" class="edge">
<title>Node18&#45;&gt;Node19</title>
<g id="a_edge34_Node000018_Node000019"><a xlink:title=" ">
<path fill="none" stroke="#63b8ff" d="M468.59,-332.32C526.04,-325.32 619.67,-312.67 709.18,-294.06"/>
<polygon fill="#63b8ff" stroke="#63b8ff" points="710.16,-297.43 719.23,-291.95 708.72,-290.58 710.16,-297.43"/>
</a>
</g>
</g>
</g>
</svg>
