<?xml version="1.0" encoding="UTF-8" standalone="no"?>
<!DOCTYPE svg PUBLIC "-//W3C//DTD SVG 1.1//EN"
 "http://www.w3.org/Graphics/SVG/1.1/DTD/svg11.dtd">
<!-- Generated by graphviz version 2.43.0 (0)
 -->
<!-- Title: RayTracer::Mesh::addTriangle Pages: 1 -->
<svg width="1267pt" height="64pt"
 viewBox="0.00 0.00 1267.00 64.00" xmlns="http://www.w3.org/2000/svg" xmlns:xlink="http://www.w3.org/1999/xlink">
<g id="graph0" class="graph" transform="scale(1 1) rotate(0) translate(4 60)">
<title>RayTracer::Mesh::addTriangle</title>
<!-- Node1 -->
<g id="Node000001" class="node">
<title>Node1</title>
<g id="a_Node000001"><a xlink:title="Append a triangle to the mesh.">
<polygon fill="#999999" stroke="#666666" points="1259,-37 1100,-37 1100,-18 1259,-18 1259,-37"/>
<text text-anchor="middle" x="1179.5" y="-25" font-family="Helvetica,sans-Serif" font-size="10.00">RayTracer::Mesh::addTriangle</text>
</a>
</g>
</g>
<!-- Node2 -->
<g id="Node000002" class="node">
<title>Node2</title>
<g id="a_Node000002"><a xlink:href="../../d3/d4f/STLLoader_8cpp.html#aedb3ca3b691f29fb2d3a60286145b590" target="_top" xlink:title=" ">
<polygon fill="white" stroke="#666666" points="1060,-56 999,-56 999,-37 1060,-37 1060,-56"/>
<text text-anchor="middle" x="1029.5" y="-44" font-family="Helvetica,sans-Serif" font-size="10.00">loadAscii</text>
</a>
</g>
</g>
<!-- Node1&#45;&gt;Node2 -->
<g id="edge1_Node000001_Node000002" class="edge">
<title>Node1&#45;&gt;Node2</title>
<g id="a_edge1_Node000001_Node000002"><a xlink:title=" ">
<path fill="none" stroke="#63b8ff" d="M1093.9,-38.36C1081.86,-39.91 1070.21,-41.4 1060.24,-42.68"/>
<polygon fill="#63b8ff" stroke="#63b8ff" points="1094.59,-41.8 1104.07,-37.06 1093.7,-34.86 1094.59,-41.8"/>
</a>
</g>
</g>
<!-- Node10 -->
<g id="Node000010" class="node">
<title>Node10</title>
<g id="a_Node000010"><a xlink:href="../../d3/d4f/STLLoader_8cpp.html#a63d46669c1a2d0e4dfd860e64595857a" target="_top" xlink:title=" ">
<polygon fill="white" stroke="#666666" points="1064,-19 995,-19 995,0 1064,0 1064,-19"/>
<text text-anchor="middle" x="1029.5" y="-7" font-family="Helvetica,sans-Serif" font-size="10.00">loadBinary</text>
</a>
</g>
</g>
<!-- Node1&#45;&gt;Node10 -->
<g id="edge10_Node000001_Node000010" class="edge">
<title>Node1&#45;&gt;Node10</title>
<g id="a_edge10_Node000001_Node000010"><a xlink:title=" ">
<path fill="none" stroke="#63b8ff" d="M1090.17,-16.76C1081.05,-15.65 1072.23,-14.57 1064.29,-13.61"/>
<polygon fill="#63b8ff" stroke="#63b8ff" points="1089.82,-20.24 1100.17,-17.97 1090.66,-13.29 1089.82,-20.24"/>
</a>
</g>
</g>
<!-- Node3 -->
<g id="Node000003" class="node">
<title>Node3</title>
<g id="a_Node000003"><a xlink:href="../../d5/d90/classRayTracer_1_1STLLoader.html#ab7fcaf89c01814b6641ee02a0710f4b6" target="_top" xlink:title="Loads an STL file and returns its geometry as a Mesh.">
<polygon fill="white" stroke="#666666" points="959,-42.5 838,-42.5 838,-12.5 959,-12.5 959,-42.5"/>
<text text-anchor="start" x="846" y="-30.5" font-family="Helvetica,sans-Serif" font-size="10.00">RayTracer::STLLoader</text>
<text text-anchor="middle" x="898.5" y="-19.5" font-family="Helvetica,sans-Serif" font-size="10.00">::load</text>
</a>
</g>
</g>
<!-- Node2&#45;&gt;Node3 -->
<g id="edge2_Node000002_Node000003" class="edge">
<title>Node2&#45;&gt;Node3</title>
<g id="a_edge2_Node000002_Node000003"><a xlink:title=" ">
<path fill="none" stroke="#63b8ff" d="M988.75,-40.65C979.41,-39.27 969.24,-37.77 959.23,-36.3"/>
<polygon fill="#63b8ff" stroke="#63b8ff" points="988.5,-44.15 998.9,-42.14 989.52,-37.22 988.5,-44.15"/>
</a>
</g>
</g>
<!-- Node4 -->
<g id="Node000004" class="node">
<title>Node4</title>
<g id="a_Node000004"><a xlink:href="../../d3/d79/SceneParser_8cpp.html#a26f05fcddd9c159c09c9cedc7bdf844a" target="_top" xlink:title=" ">
<polygon fill="white" stroke="#666666" points="802,-37 722,-37 722,-18 802,-18 802,-37"/>
<text text-anchor="middle" x="762" y="-25" font-family="Helvetica,sans-Serif" font-size="10.00">ParseMeshes</text>
</a>
</g>
</g>
<!-- Node3&#45;&gt;Node4 -->
<g id="edge3_Node000003_Node000004" class="edge">
<title>Node3&#45;&gt;Node4</title>
<g id="a_edge3_Node000003_Node000004"><a xlink:title=" ">
<path fill="none" stroke="#63b8ff" d="M827.5,-27.5C818.78,-27.5 810.13,-27.5 802.13,-27.5"/>
<polygon fill="#63b8ff" stroke="#63b8ff" points="827.72,-31 837.72,-27.5 827.72,-24 827.72,-31"/>
</a>
</g>
</g>
<!-- Node5 -->
<g id="Node000005" class="node">
<title>Node5</title>
<g id="a_Node000005"><a xlink:href="../../d1/df4/namespaceRayTracer.html#a4bbc9c3996d70f6a71cf4d185a4811d6" target="_top" xlink:title="Loads a single scene file (non&#45;recursive).">
<polygon fill="white" stroke="#666666" points="686,-37 565,-37 565,-18 686,-18 686,-37"/>
<text text-anchor="middle" x="625.5" y="-25" font-family="Helvetica,sans-Serif" font-size="10.00">RayTracer::loadScene</text>
</a>
</g>
</g>
<!-- Node4&#45;&gt;Node5 -->
<g id="edge4_Node000004_Node000005" class="edge">
<title>Node4&#45;&gt;Node5</title>
<g id="a_edge4_Node000004_Node000005"><a xlink:title=" ">
<path fill="none" stroke="#63b8ff" d="M711.5,-27.5C703.23,-27.5 694.56,-27.5 686.07,-27.5"/>
<polygon fill="#63b8ff" stroke="#63b8ff" points="711.74,-31 721.74,-27.5 711.74,-24 711.74,-31"/>
</a>
</g>
</g>
<!-- Node6 -->
<g id="Node000006" class="node">
<title>Node6</title>
<g id="a_Node000006"><a xlink:href="../../d1/df4/namespaceRayTracer.html#a9aa92d0c88c2ac9be33f27ba71e8ceaa" target="_top" xlink:title="Recursively loads a scene and any referenced sub&#45;scenes from file(s).">
<polygon fill="white" stroke="#666666" points="529,-37 360,-37 360,-18 529,-18 529,-37"/>
<text text-anchor="middle" x="444.5" y="-25" font-family="Helvetica,sans-Serif" font-size="10.00">RayTracer::loadSceneRecursive</text>
</a>
</g>
</g>
<!-- Node5&#45;&gt;Node6 -->
<g id="edge5_Node000005_Node000006" class="edge">
<title>Node5&#45;&gt;Node6</title>
<g id="a_edge5_Node000005_Node000006"><a xlink:title=" ">
<path fill="none" stroke="#63b8ff" d="M554.76,-27.5C546.34,-27.5 537.67,-27.5 529.08,-27.5"/>
<polygon fill="#63b8ff" stroke="#63b8ff" points="554.9,-31 564.9,-27.5 554.9,-24 554.9,-31"/>
</a>
</g>
</g>
<!-- Node6&#45;&gt;Node6 -->
<g id="edge9_Node000006_Node000006" class="edge">
<title>Node6&#45;&gt;Node6</title>
<g id="a_edge9_Node000006_Node000006"><a xlink:title=" ">
<path fill="none" stroke="#63b8ff" d="M478.18,-45.45C477.22,-50.82 465.99,-55 444.5,-55 412.51,-55 403.26,-45.73 416.76,-37.08"/>
<polygon fill="#63b8ff" stroke="#63b8ff" points="480.89,-43.21 472.24,-37.08 475.18,-47.26 480.89,-43.21"/>
</a>
</g>
</g>
<!-- Node7 -->
<g id="Node000007" class="node">
<title>Node7</title>
<g id="a_Node000007"><a xlink:href="../../d4/d3d/namespaceUtils.html#a763a2a5523575e2175022d2623a77d05" target="_top" xlink:title="Loads a scene from file, or exits on failure.">
<polygon fill="white" stroke="#666666" points="324,-37 199,-37 199,-18 324,-18 324,-37"/>
<text text-anchor="middle" x="261.5" y="-25" font-family="Helvetica,sans-Serif" font-size="10.00">Utils::loadSceneOrExit</text>
</a>
</g>
</g>
<!-- Node6&#45;&gt;Node7 -->
<g id="edge6_Node000006_Node000007" class="edge">
<title>Node6&#45;&gt;Node7</title>
<g id="a_edge6_Node000006_Node000007"><a xlink:title=" ">
<path fill="none" stroke="#63b8ff" d="M349.71,-27.5C341.04,-27.5 332.4,-27.5 324.13,-27.5"/>
<polygon fill="#63b8ff" stroke="#63b8ff" points="349.89,-31 359.89,-27.5 349.89,-24 349.89,-31"/>
</a>
</g>
</g>
<!-- Node8 -->
<g id="Node000008" class="node">
<title>Node8</title>
<g id="a_Node000008"><a xlink:href="../../dd/dea/classRaytracer.html#a844a5a660abbb9d21608fc170074e0c5" target="_top" xlink:title="Launch the raytracing process.">
<polygon fill="white" stroke="#666666" points="163,-37 77,-37 77,-18 163,-18 163,-37"/>
<text text-anchor="middle" x="120" y="-25" font-family="Helvetica,sans-Serif" font-size="10.00">Raytracer::run</text>
</a>
</g>
</g>
<!-- Node7&#45;&gt;Node8 -->
<g id="edge7_Node000007_Node000008" class="edge">
<title>Node7&#45;&gt;Node8</title>
<g id="a_edge7_Node000007_Node000008"><a xlink:title=" ">
<path fill="none" stroke="#63b8ff" d="M188.64,-27.5C179.88,-27.5 171.17,-27.5 163.05,-27.5"/>
<polygon fill="#63b8ff" stroke="#63b8ff" points="188.91,-31 198.91,-27.5 188.91,-24 188.91,-31"/>
</a>
</g>
</g>
<!-- Node9 -->
<g id="Node000009" class="node">
<title>Node9</title>
<g id="a_Node000009"><a xlink:href="../../df/d0a/main_8cpp.html#a0ddf1224851353fc92bfbff6f499fa97" target="_top" xlink:title="Raimond is a good Raytracer. Logic, it&#39;s Raimond.">
<polygon fill="white" stroke="#666666" points="41,-37 0,-37 0,-18 41,-18 41,-37"/>
<text text-anchor="middle" x="20.5" y="-25" font-family="Helvetica,sans-Serif" font-size="10.00">main</text>
</a>
</g>
</g>
<!-- Node8&#45;&gt;Node9 -->
<g id="edge8_Node000008_Node000009" class="edge">
<title>Node8&#45;&gt;Node9</title>
<g id="a_edge8_Node000008_Node000009"><a xlink:title=" ">
<path fill="none" stroke="#63b8ff" d="M66.52,-27.5C57.42,-27.5 48.5,-27.5 41.03,-27.5"/>
<polygon fill="#63b8ff" stroke="#63b8ff" points="66.8,-31 76.8,-27.5 66.8,-24 66.8,-31"/>
</a>
</g>
</g>
<!-- Node10&#45;&gt;Node3 -->
<g id="edge11_Node000010_Node000003" class="edge">
<title>Node10&#45;&gt;Node3</title>
<g id="a_edge11_Node000010_Node000003"><a xlink:title=" ">
<path fill="none" stroke="#63b8ff" d="M984.8,-15.6C976.54,-16.75 967.78,-17.97 959.13,-19.18"/>
<polygon fill="#63b8ff" stroke="#63b8ff" points="985.52,-19.03 994.94,-14.18 984.56,-12.1 985.52,-19.03"/>
</a>
</g>
</g>
</g>
</svg>
