<?xml version="1.0" encoding="UTF-8" standalone="no"?>
<!DOCTYPE svg PUBLIC "-//W3C//DTD SVG 1.1//EN"
 "http://www.w3.org/Graphics/SVG/1.1/DTD/svg11.dtd">
<!-- Generated by graphviz version 2.43.0 (0)
 -->
<!-- Title: src/geoTransf/Matrix.cpp Pages: 1 -->
<svg width="740pt" height="478pt"
 viewBox="0.00 0.00 740.00 478.00" xmlns="http://www.w3.org/2000/svg" xmlns:xlink="http://www.w3.org/1999/xlink">
<g id="graph0" class="graph" transform="scale(1 1) rotate(0) translate(4 474)">
<title>src/geoTransf/Matrix.cpp</title>
<!-- Node1 -->
<g id="Node000001" class="node">
<title>Node1</title>
<g id="a_Node000001"><a xlink:title="Implements a generic 3×3 linear transformation on primitives (scaling, rotation, reflection,...">
<polygon fill="#999999" stroke="#666666" points="468,-470 332,-470 332,-451 468,-451 468,-470"/>
<text text-anchor="middle" x="400" y="-458" font-family="Helvetica,sans-Serif" font-size="10.00">src/geoTransf/Matrix.cpp</text>
</a>
</g>
</g>
<!-- Node2 -->
<g id="Node000002" class="node">
<title>Node2</title>
<g id="a_Node000002"><a xlink:href="../../d9/d1c/Matrix_8hpp.html" target="_top" xlink:title="Declares the Matrix transformation wrapper primitive for raytracing.">
<polygon fill="white" stroke="#666666" points="416,-415 296,-415 296,-385 416,-385 416,-415"/>
<text text-anchor="start" x="304" y="-403" font-family="Helvetica,sans-Serif" font-size="10.00">../../include/geoTransf</text>
<text text-anchor="middle" x="356" y="-392" font-family="Helvetica,sans-Serif" font-size="10.00">/Matrix.hpp</text>
</a>
</g>
</g>
<!-- Node1&#45;&gt;Node2 -->
<g id="edge1_Node000001_Node000002" class="edge">
<title>Node1&#45;&gt;Node2</title>
<g id="a_edge1_Node000001_Node000002"><a xlink:title=" ">
<path fill="none" stroke="#63b8ff" d="M393.51,-450.87C388.03,-443.59 379.96,-432.85 372.7,-423.2"/>
<polygon fill="#63b8ff" stroke="#63b8ff" points="375.42,-421 366.62,-415.11 369.83,-425.21 375.42,-421"/>
</a>
</g>
</g>
<!-- Node7 -->
<g id="Node000007" class="node">
<title>Node7</title>
<g id="a_Node000007"><a xlink:title=" ">
<polygon fill="#e0e0e0" stroke="#999999" points="258.5,-19 211.5,-19 211.5,0 258.5,0 258.5,-19"/>
<text text-anchor="middle" x="235" y="-7" font-family="Helvetica,sans-Serif" font-size="10.00">cmath</text>
</a>
</g>
</g>
<!-- Node1&#45;&gt;Node7 -->
<g id="edge30_Node000001_Node000007" class="edge">
<title>Node1&#45;&gt;Node7</title>
<g id="a_edge30_Node000001_Node000007"><a xlink:title=" ">
<path fill="none" stroke="#63b8ff" d="M331.69,-453.33C217.45,-441.12 0,-408.88 0,-340.5 0,-340.5 0,-340.5 0,-118.5 0,-31.09 135.88,-14.17 200.99,-11.08"/>
<polygon fill="#63b8ff" stroke="#63b8ff" points="201.32,-14.57 211.17,-10.68 201.04,-7.57 201.32,-14.57"/>
</a>
</g>
</g>
<!-- Node16 -->
<g id="Node000016" class="node">
<title>Node16</title>
<g id="a_Node000016"><a xlink:title=" ">
<polygon fill="#e0e0e0" stroke="#999999" points="732,-294 668,-294 668,-275 732,-275 732,-294"/>
<text text-anchor="middle" x="700" y="-282" font-family="Helvetica,sans-Serif" font-size="10.00">algorithm</text>
</a>
</g>
</g>
<!-- Node1&#45;&gt;Node16 -->
<g id="edge29_Node000001_Node000016" class="edge">
<title>Node1&#45;&gt;Node16</title>
<g id="a_edge29_Node000001_Node000016"><a xlink:title=" ">
<path fill="none" stroke="#63b8ff" d="M405.23,-451C414.92,-435.86 437.05,-404.04 463,-385 523.92,-340.29 607.94,-311.19 657.85,-296.62"/>
<polygon fill="#63b8ff" stroke="#63b8ff" points="659.01,-299.93 667.66,-293.81 657.08,-293.2 659.01,-299.93"/>
</a>
</g>
</g>
<!-- Node18 -->
<g id="Node000018" class="node">
<title>Node18</title>
<g id="a_Node000018"><a xlink:title=" ">
<polygon fill="#e0e0e0" stroke="#999999" points="524,-409.5 472,-409.5 472,-390.5 524,-390.5 524,-409.5"/>
<text text-anchor="middle" x="498" y="-397.5" font-family="Helvetica,sans-Serif" font-size="10.00">cassert</text>
</a>
</g>
</g>
<!-- Node1&#45;&gt;Node18 -->
<g id="edge31_Node000001_Node000018" class="edge">
<title>Node1&#45;&gt;Node18</title>
<g id="a_edge31_Node000001_Node000018"><a xlink:title=" ">
<path fill="none" stroke="#63b8ff" d="M414.46,-450.87C430.31,-441.41 455.97,-426.09 474.68,-414.92"/>
<polygon fill="#63b8ff" stroke="#63b8ff" points="476.69,-417.8 483.48,-409.67 473.1,-411.79 476.69,-417.8"/>
</a>
</g>
</g>
<!-- Node3 -->
<g id="Node000003" class="node">
<title>Node3</title>
<g id="a_Node000003"><a xlink:href="../../de/d81/APrimitive_8hpp.html" target="_top" xlink:title=" ">
<polygon fill="white" stroke="#666666" points="439.5,-294 326.5,-294 326.5,-275 439.5,-275 439.5,-294"/>
<text text-anchor="middle" x="383" y="-282" font-family="Helvetica,sans-Serif" font-size="10.00">core/APrimitive.hpp</text>
</a>
</g>
</g>
<!-- Node2&#45;&gt;Node3 -->
<g id="edge2_Node000002_Node000003" class="edge">
<title>Node2&#45;&gt;Node3</title>
<g id="a_edge2_Node000002_Node000003"><a xlink:title=" ">
<path fill="none" stroke="#63b8ff" d="M359.42,-384.63C364.28,-364.21 373.17,-326.81 378.54,-304.24"/>
<polygon fill="#63b8ff" stroke="#63b8ff" points="382.01,-304.77 380.92,-294.23 375.2,-303.15 382.01,-304.77"/>
</a>
</g>
</g>
<!-- Node14 -->
<g id="Node000014" class="node">
<title>Node14</title>
<g id="a_Node000014"><a xlink:href="../../d9/dad/BVH_8hpp.html" target="_top" xlink:title="Declares the axis&#45;aligned bounding box (AABB) and the BVH node used for ray&#45;tracing acceleration.">
<polygon fill="white" stroke="#666666" points="352,-349 244,-349 244,-330 352,-330 352,-349"/>
<text text-anchor="middle" x="298" y="-337" font-family="Helvetica,sans-Serif" font-size="10.00">rendering/BVH.hpp</text>
</a>
</g>
</g>
<!-- Node2&#45;&gt;Node14 -->
<g id="edge20_Node000002_Node000014" class="edge">
<title>Node2&#45;&gt;Node14</title>
<g id="a_edge20_Node000002_Node000014"><a xlink:title=" ">
<path fill="none" stroke="#63b8ff" d="M341.96,-384.84C333.45,-376.26 322.59,-365.3 313.78,-356.42"/>
<polygon fill="#63b8ff" stroke="#63b8ff" points="316.22,-353.9 306.69,-349.27 311.25,-358.83 316.22,-353.9"/>
</a>
</g>
</g>
<!-- Node4 -->
<g id="Node000004" class="node">
<title>Node4</title>
<g id="a_Node000004"><a xlink:href="../../d4/db2/Ray_8hpp.html" target="_top" xlink:title="Defines the Ray structure used for ray&#45;object intersection tests in the raytracer.">
<polygon fill="white" stroke="#666666" points="493.5,-184 414.5,-184 414.5,-165 493.5,-165 493.5,-184"/>
<text text-anchor="middle" x="454" y="-172" font-family="Helvetica,sans-Serif" font-size="10.00">core/Ray.hpp</text>
</a>
</g>
</g>
<!-- Node3&#45;&gt;Node4 -->
<g id="edge3_Node000003_Node000004" class="edge">
<title>Node3&#45;&gt;Node4</title>
<g id="a_edge3_Node000003_Node000004"><a xlink:title=" ">
<path fill="none" stroke="#63b8ff" d="M399.94,-274.92C413.21,-267.31 431.04,-254.92 441,-239 449.31,-225.72 452.43,-208.1 453.54,-194.8"/>
<polygon fill="#63b8ff" stroke="#63b8ff" points="457.06,-194.6 454.08,-184.43 450.07,-194.23 457.06,-194.6"/>
</a>
</g>
</g>
<!-- Node5 -->
<g id="Node000005" class="node">
<title>Node5</title>
<g id="a_Node000005"><a xlink:href="../../df/df2/Point3D_8hpp.html" target="_top" xlink:title="Defines a 3D point structure used in geometric computations.">
<polygon fill="white" stroke="#666666" points="492,-129 416,-129 416,-110 492,-110 492,-129"/>
<text text-anchor="middle" x="454" y="-117" font-family="Helvetica,sans-Serif" font-size="10.00">Point3D.hpp</text>
</a>
</g>
</g>
<!-- Node3&#45;&gt;Node5 -->
<g id="edge9_Node000003_Node000005" class="edge">
<title>Node3&#45;&gt;Node5</title>
<g id="a_edge9_Node000003_Node000005"><a xlink:title=" ">
<path fill="none" stroke="#63b8ff" d="M439.76,-278.68C492.44,-272.88 565.31,-261.06 583,-239 618.06,-195.28 535.78,-153.09 486.94,-132.89"/>
<polygon fill="#63b8ff" stroke="#63b8ff" points="487.95,-129.52 477.37,-129.03 485.34,-136.02 487.95,-129.52"/>
</a>
</g>
</g>
<!-- Node6 -->
<g id="Node000006" class="node">
<title>Node6</title>
<g id="a_Node000006"><a xlink:href="../../d3/dde/Vector3D_8hpp.html" target="_top" xlink:title="Defines a 3D vector structure with basic arithmetic and transformation operations.">
<polygon fill="white" stroke="#666666" points="276,-74 194,-74 194,-55 276,-55 276,-74"/>
<text text-anchor="middle" x="235" y="-62" font-family="Helvetica,sans-Serif" font-size="10.00">Vector3D.hpp</text>
</a>
</g>
</g>
<!-- Node3&#45;&gt;Node6 -->
<g id="edge11_Node000003_Node000006" class="edge">
<title>Node3&#45;&gt;Node6</title>
<g id="a_edge11_Node000003_Node000006"><a xlink:title=" ">
<path fill="none" stroke="#63b8ff" d="M326.3,-278.5C262.67,-272.01 164.25,-259.08 133,-239 108,-222.94 103.85,-212.36 95,-184 78.36,-130.64 150.35,-94.75 197.25,-77.45"/>
<polygon fill="#63b8ff" stroke="#63b8ff" points="198.59,-80.69 206.84,-74.04 196.25,-74.1 198.59,-80.69"/>
</a>
</g>
</g>
<!-- Node8 -->
<g id="Node000008" class="node">
<title>Node8</title>
<g id="a_Node000008"><a xlink:href="../../d8/d1e/Vector2D_8hpp.html" target="_top" xlink:title="Defines a 2D vector structure used for texture coordinates or screen&#45;space math operations.">
<polygon fill="white" stroke="#666666" points="432,-239 326,-239 326,-220 432,-220 432,-239"/>
<text text-anchor="middle" x="379" y="-227" font-family="Helvetica,sans-Serif" font-size="10.00">core/Vector2D.hpp</text>
</a>
</g>
</g>
<!-- Node3&#45;&gt;Node8 -->
<g id="edge10_Node000003_Node000008" class="edge">
<title>Node3&#45;&gt;Node8</title>
<g id="a_edge10_Node000003_Node000008"><a xlink:title=" ">
<path fill="none" stroke="#63b8ff" d="M382.34,-274.75C381.82,-267.8 381.06,-257.85 380.41,-249.13"/>
<polygon fill="#63b8ff" stroke="#63b8ff" points="383.89,-248.8 379.65,-239.09 376.91,-249.32 383.89,-248.8"/>
</a>
</g>
</g>
<!-- Node9 -->
<g id="Node000009" class="node">
<title>Node9</title>
<g id="a_Node000009"><a xlink:href="../../d0/d70/Material_8hpp.html" target="_top" xlink:title="Declares the physically&#45;based material descriptor used by the renderer.">
<polygon fill="white" stroke="#666666" points="270,-239 142,-239 142,-220 270,-220 270,-239"/>
<text text-anchor="middle" x="206" y="-227" font-family="Helvetica,sans-Serif" font-size="10.00">rendering/Material.hpp</text>
</a>
</g>
</g>
<!-- Node3&#45;&gt;Node9 -->
<g id="edge12_Node000003_Node000009" class="edge">
<title>Node3&#45;&gt;Node9</title>
<g id="a_edge12_Node000003_Node000009"><a xlink:title=" ">
<path fill="none" stroke="#63b8ff" d="M354.56,-274.98C324.72,-266.05 277.62,-251.94 244.47,-242.02"/>
<polygon fill="#63b8ff" stroke="#63b8ff" points="245.24,-238.6 234.66,-239.08 243.24,-245.3 245.24,-238.6"/>
</a>
</g>
</g>
<!-- Node13 -->
<g id="Node000013" class="node">
<title>Node13</title>
<g id="a_Node000013"><a xlink:href="../../d0/d38/IPrimitive_8hpp.html" target="_top" xlink:title="Interface for geometric primitives in the raytracer.">
<polygon fill="white" stroke="#666666" points="573.5,-239 488.5,-239 488.5,-220 573.5,-220 573.5,-239"/>
<text text-anchor="middle" x="531" y="-227" font-family="Helvetica,sans-Serif" font-size="10.00">IPrimitive.hpp</text>
</a>
</g>
</g>
<!-- Node3&#45;&gt;Node13 -->
<g id="edge18_Node000003_Node000013" class="edge">
<title>Node3&#45;&gt;Node13</title>
<g id="a_edge18_Node000003_Node000013"><a xlink:title=" ">
<path fill="none" stroke="#63b8ff" d="M406.78,-274.98C431.23,-266.23 469.53,-252.51 497.15,-242.62"/>
<polygon fill="#63b8ff" stroke="#63b8ff" points="498.55,-245.84 506.79,-239.17 496.19,-239.25 498.55,-245.84"/>
</a>
</g>
</g>
<!-- Node4&#45;&gt;Node5 -->
<g id="edge4_Node000004_Node000005" class="edge">
<title>Node4&#45;&gt;Node5</title>
<g id="a_edge4_Node000004_Node000005"><a xlink:title=" ">
<path fill="none" stroke="#63b8ff" d="M454,-164.75C454,-157.8 454,-147.85 454,-139.13"/>
<polygon fill="#63b8ff" stroke="#63b8ff" points="457.5,-139.09 454,-129.09 450.5,-139.09 457.5,-139.09"/>
</a>
</g>
</g>
<!-- Node4&#45;&gt;Node6 -->
<g id="edge8_Node000004_Node000006" class="edge">
<title>Node4&#45;&gt;Node6</title>
<g id="a_edge8_Node000004_Node000006"><a xlink:title=" ">
<path fill="none" stroke="#63b8ff" d="M441.61,-164.92C422.52,-151.95 384.52,-127.05 350,-110 324.25,-97.28 293.91,-85.68 270.86,-77.51"/>
<polygon fill="#63b8ff" stroke="#63b8ff" points="271.74,-74.11 261.14,-74.11 269.43,-80.71 271.74,-74.11"/>
</a>
</g>
</g>
<!-- Node5&#45;&gt;Node6 -->
<g id="edge5_Node000005_Node000006" class="edge">
<title>Node5&#45;&gt;Node6</title>
<g id="a_edge5_Node000005_Node000006"><a xlink:title=" ">
<path fill="none" stroke="#63b8ff" d="M418.81,-109.98C381.17,-100.87 321.34,-86.4 280.23,-76.45"/>
<polygon fill="#63b8ff" stroke="#63b8ff" points="281,-73.03 270.46,-74.08 279.36,-79.84 281,-73.03"/>
</a>
</g>
</g>
<!-- Node5&#45;&gt;Node7 -->
<g id="edge7_Node000005_Node000007" class="edge">
<title>Node5&#45;&gt;Node7</title>
<g id="a_edge7_Node000005_Node000007"><a xlink:title=" ">
<path fill="none" stroke="#63b8ff" d="M436.45,-109.84C398.15,-90.96 306.9,-45.96 261.54,-23.59"/>
<polygon fill="#63b8ff" stroke="#63b8ff" points="262.85,-20.33 252.33,-19.05 259.75,-26.61 262.85,-20.33"/>
</a>
</g>
</g>
<!-- Node6&#45;&gt;Node7 -->
<g id="edge6_Node000006_Node000007" class="edge">
<title>Node6&#45;&gt;Node7</title>
<g id="a_edge6_Node000006_Node000007"><a xlink:title=" ">
<path fill="none" stroke="#63b8ff" d="M235,-54.75C235,-47.8 235,-37.85 235,-29.13"/>
<polygon fill="#63b8ff" stroke="#63b8ff" points="238.5,-29.09 235,-19.09 231.5,-29.09 238.5,-29.09"/>
</a>
</g>
</g>
<!-- Node9&#45;&gt;Node6 -->
<g id="edge15_Node000009_Node000006" class="edge">
<title>Node9&#45;&gt;Node6</title>
<g id="a_edge15_Node000009_Node000006"><a xlink:title=" ">
<path fill="none" stroke="#63b8ff" d="M204.79,-219.95C202.29,-200.15 197.69,-149.79 209,-110 211.78,-100.23 217.21,-90.37 222.39,-82.42"/>
<polygon fill="#63b8ff" stroke="#63b8ff" points="225.35,-84.3 228.19,-74.09 219.6,-80.3 225.35,-84.3"/>
</a>
</g>
</g>
<!-- Node10 -->
<g id="Node000010" class="node">
<title>Node10</title>
<g id="a_Node000010"><a xlink:title=" ">
<polygon fill="#e0e0e0" stroke="#999999" points="300,-184 256,-184 256,-165 300,-165 300,-184"/>
<text text-anchor="middle" x="278" y="-172" font-family="Helvetica,sans-Serif" font-size="10.00">string</text>
</a>
</g>
</g>
<!-- Node9&#45;&gt;Node10 -->
<g id="edge13_Node000009_Node000010" class="edge">
<title>Node9&#45;&gt;Node10</title>
<g id="a_edge13_Node000009_Node000010"><a xlink:title=" ">
<path fill="none" stroke="#63b8ff" d="M217.57,-219.98C228.42,-212 244.88,-199.88 257.88,-190.31"/>
<polygon fill="#63b8ff" stroke="#63b8ff" points="260.24,-192.92 266.22,-184.17 256.09,-187.28 260.24,-192.92"/>
</a>
</g>
</g>
<!-- Node11 -->
<g id="Node000011" class="node">
<title>Node11</title>
<g id="a_Node000011"><a xlink:title=" ">
<polygon fill="#e0e0e0" stroke="#999999" points="162,-184 104,-184 104,-165 162,-165 162,-184"/>
<text text-anchor="middle" x="133" y="-172" font-family="Helvetica,sans-Serif" font-size="10.00">memory</text>
</a>
</g>
</g>
<!-- Node9&#45;&gt;Node11 -->
<g id="edge14_Node000009_Node000011" class="edge">
<title>Node9&#45;&gt;Node11</title>
<g id="a_edge14_Node000009_Node000011"><a xlink:title=" ">
<path fill="none" stroke="#63b8ff" d="M194.27,-219.98C183.27,-212 166.58,-199.88 153.4,-190.31"/>
<polygon fill="#63b8ff" stroke="#63b8ff" points="155.09,-187.21 144.94,-184.17 150.98,-192.88 155.09,-187.21"/>
</a>
</g>
</g>
<!-- Node12 -->
<g id="Node000012" class="node">
<title>Node12</title>
<g id="a_Node000012"><a xlink:href="../../d0/ddc/Texture_8hpp.html" target="_top" xlink:title="Declares the abstract base class for all 2&#45;D textures. (Solid colour, checkerboard,...">
<polygon fill="white" stroke="#666666" points="341.5,-129 218.5,-129 218.5,-110 341.5,-110 341.5,-129"/>
<text text-anchor="middle" x="280" y="-117" font-family="Helvetica,sans-Serif" font-size="10.00">rendering/Texture.hpp</text>
</a>
</g>
</g>
<!-- Node9&#45;&gt;Node12 -->
<g id="edge16_Node000009_Node000012" class="edge">
<title>Node9&#45;&gt;Node12</title>
<g id="a_edge16_Node000009_Node000012"><a xlink:title=" ">
<path fill="none" stroke="#63b8ff" d="M211.4,-219.76C219.07,-207.4 233.7,-184.2 247,-165 253.43,-155.71 260.91,-145.57 267.12,-137.32"/>
<polygon fill="#63b8ff" stroke="#63b8ff" points="270,-139.32 273.25,-129.24 264.42,-135.09 270,-139.32"/>
</a>
</g>
</g>
<!-- Node12&#45;&gt;Node6 -->
<g id="edge17_Node000012_Node000006" class="edge">
<title>Node12&#45;&gt;Node6</title>
<g id="a_edge17_Node000012_Node000006"><a xlink:title=" ">
<path fill="none" stroke="#63b8ff" d="M272.57,-109.75C266.15,-102.18 256.69,-91.05 248.88,-81.84"/>
<polygon fill="#63b8ff" stroke="#63b8ff" points="251.43,-79.45 242.29,-74.09 246.1,-83.98 251.43,-79.45"/>
</a>
</g>
</g>
<!-- Node13&#45;&gt;Node4 -->
<g id="edge19_Node000013_Node000004" class="edge">
<title>Node13&#45;&gt;Node4</title>
<g id="a_edge19_Node000013_Node000004"><a xlink:title=" ">
<path fill="none" stroke="#63b8ff" d="M518.63,-219.98C506.91,-211.92 489.08,-199.65 475.11,-190.03"/>
<polygon fill="#63b8ff" stroke="#63b8ff" points="476.82,-186.96 466.6,-184.17 472.85,-192.72 476.82,-186.96"/>
</a>
</g>
</g>
<!-- Node14&#45;&gt;Node3 -->
<g id="edge26_Node000014_Node000003" class="edge">
<title>Node14&#45;&gt;Node3</title>
<g id="a_edge26_Node000014_Node000003"><a xlink:title=" ">
<path fill="none" stroke="#63b8ff" d="M311.66,-329.98C324.84,-321.77 345.03,-309.18 360.57,-299.49"/>
<polygon fill="#63b8ff" stroke="#63b8ff" points="362.46,-302.43 369.09,-294.17 358.76,-296.49 362.46,-302.43"/>
</a>
</g>
</g>
<!-- Node14&#45;&gt;Node4 -->
<g id="edge25_Node000014_Node000004" class="edge">
<title>Node14&#45;&gt;Node4</title>
<g id="a_edge25_Node000014_Node000004"><a xlink:title=" ">
<path fill="none" stroke="#63b8ff" d="M296.61,-329.82C293.71,-308.37 289.36,-252.29 317,-220 338.53,-194.85 374.43,-183.81 404.08,-179.01"/>
<polygon fill="#63b8ff" stroke="#63b8ff" points="404.87,-182.44 414.27,-177.56 403.88,-175.51 404.87,-182.44"/>
</a>
</g>
</g>
<!-- Node14&#45;&gt;Node5 -->
<g id="edge27_Node000014_Node000005" class="edge">
<title>Node14&#45;&gt;Node5</title>
<g id="a_edge27_Node000014_Node000005"><a xlink:title=" ">
<path fill="none" stroke="#63b8ff" d="M352.16,-338.76C423.1,-335.8 545.03,-318.6 601,-239 616.94,-216.33 589.86,-177.83 576,-165 555.64,-146.15 526.67,-135.14 502.07,-128.79"/>
<polygon fill="#63b8ff" stroke="#63b8ff" points="502.72,-125.35 492.18,-126.42 501.09,-132.15 502.72,-125.35"/>
</a>
</g>
</g>
<!-- Node14&#45;&gt;Node6 -->
<g id="edge28_Node000014_Node000006" class="edge">
<title>Node14&#45;&gt;Node6</title>
<g id="a_edge28_Node000014_Node000006"><a xlink:title=" ">
<path fill="none" stroke="#63b8ff" d="M243.81,-338.89C167.61,-336.28 38,-318.85 38,-230.5 38,-230.5 38,-230.5 38,-173.5 38,-107.09 125.16,-81.24 183.53,-71.38"/>
<polygon fill="#63b8ff" stroke="#63b8ff" points="184.37,-74.79 193.7,-69.77 183.28,-67.87 184.37,-74.79"/>
</a>
</g>
</g>
<!-- Node14&#45;&gt;Node11 -->
<g id="edge21_Node000014_Node000011" class="edge">
<title>Node14&#45;&gt;Node11</title>
<g id="a_edge21_Node000014_Node000011"><a xlink:title=" ">
<path fill="none" stroke="#63b8ff" d="M243.88,-334.33C213.02,-329.25 175.69,-318.14 151,-294 124.43,-268.02 126.17,-220.62 129.65,-194.33"/>
<polygon fill="#63b8ff" stroke="#63b8ff" points="133.15,-194.6 131.23,-184.18 126.24,-193.53 133.15,-194.6"/>
</a>
</g>
</g>
<!-- Node15 -->
<g id="Node000015" class="node">
<title>Node15</title>
<g id="a_Node000015"><a xlink:title=" ">
<polygon fill="#e0e0e0" stroke="#999999" points="207.5,-294 160.5,-294 160.5,-275 207.5,-275 207.5,-294"/>
<text text-anchor="middle" x="184" y="-282" font-family="Helvetica,sans-Serif" font-size="10.00">vector</text>
</a>
</g>
</g>
<!-- Node14&#45;&gt;Node15 -->
<g id="edge22_Node000014_Node000015" class="edge">
<title>Node14&#45;&gt;Node15</title>
<g id="a_edge22_Node000014_Node000015"><a xlink:title=" ">
<path fill="none" stroke="#63b8ff" d="M279.68,-329.98C261.34,-321.46 232.89,-308.23 211.77,-298.41"/>
<polygon fill="#63b8ff" stroke="#63b8ff" points="213.19,-295.21 202.65,-294.17 210.24,-301.56 213.19,-295.21"/>
</a>
</g>
</g>
<!-- Node14&#45;&gt;Node16 -->
<g id="edge23_Node000014_Node000016" class="edge">
<title>Node14&#45;&gt;Node16</title>
<g id="a_edge23_Node000014_Node000016"><a xlink:title=" ">
<path fill="none" stroke="#63b8ff" d="M352.12,-332.73C422.01,-325.05 547.36,-310.5 654,-294 655.26,-293.8 656.55,-293.6 657.84,-293.39"/>
<polygon fill="#63b8ff" stroke="#63b8ff" points="658.6,-296.81 667.87,-291.68 657.42,-289.91 658.6,-296.81"/>
</a>
</g>
</g>
<!-- Node17 -->
<g id="Node000017" class="node">
<title>Node17</title>
<g id="a_Node000017"><a xlink:title=" ">
<polygon fill="#e0e0e0" stroke="#999999" points="270,-294 226,-294 226,-275 270,-275 270,-294"/>
<text text-anchor="middle" x="248" y="-282" font-family="Helvetica,sans-Serif" font-size="10.00">limits</text>
</a>
</g>
</g>
<!-- Node14&#45;&gt;Node17 -->
<g id="edge24_Node000014_Node000017" class="edge">
<title>Node14&#45;&gt;Node17</title>
<g id="a_edge24_Node000014_Node000017"><a xlink:title=" ">
<path fill="none" stroke="#63b8ff" d="M289.74,-329.75C282.54,-322.11 271.89,-310.82 263.15,-301.56"/>
<polygon fill="#63b8ff" stroke="#63b8ff" points="265.51,-298.96 256.1,-294.09 260.42,-303.76 265.51,-298.96"/>
</a>
</g>
</g>
</g>
</svg>
