<?xml version="1.0" encoding="UTF-8" standalone="no"?>
<!DOCTYPE svg PUBLIC "-//W3C//DTD SVG 1.1//EN"
 "http://www.w3.org/Graphics/SVG/1.1/DTD/svg11.dtd">
<!-- Generated by graphviz version 2.43.0 (0)
 -->
<!-- Title: include/rendering/Scene.hpp Pages: 1 -->
<svg width="910pt" height="258pt"
 viewBox="0.00 0.00 910.16 258.00" xmlns="http://www.w3.org/2000/svg" xmlns:xlink="http://www.w3.org/1999/xlink">
<g id="graph0" class="graph" transform="scale(1 1) rotate(0) translate(4 254)">
<title>include/rendering/Scene.hpp</title>
<!-- Node1 -->
<g id="Node000001" class="node">
<title>Node1</title>
<g id="a_Node000001"><a xlink:title="Declares the scene container: camera, objects, lights, and top&#45;level BVH.">
<polygon fill="#999999" stroke="#666666" points="499.16,-250 344.16,-250 344.16,-231 499.16,-231 499.16,-250"/>
<text text-anchor="middle" x="421.66" y="-238" font-family="Helvetica,sans-Serif" font-size="10.00">include/rendering/Scene.hpp</text>
</a>
</g>
</g>
<!-- Node2 -->
<g id="Node000002" class="node">
<title>Node2</title>
<g id="a_Node000002"><a xlink:href="../../d0/d3a/Raytracer_8hpp.html" target="_top" xlink:title="Declares the main Raytracer application class for program execution and argument handling.">
<polygon fill="white" stroke="#666666" points="316.66,-189.5 170.66,-189.5 170.66,-170.5 316.66,-170.5 316.66,-189.5"/>
<text text-anchor="middle" x="243.66" y="-177.5" font-family="Helvetica,sans-Serif" font-size="10.00">include/core/Raytracer.hpp</text>
</a>
</g>
</g>
<!-- Node1&#45;&gt;Node2 -->
<g id="edge1_Node000001_Node000002" class="edge">
<title>Node1&#45;&gt;Node2</title>
<g id="a_edge1_Node000001_Node000002"><a xlink:title=" ">
<path fill="none" stroke="#63b8ff" d="M386.11,-227.82C351.69,-216.5 300.3,-199.62 269.58,-189.52"/>
<polygon fill="#63b8ff" stroke="#63b8ff" points="385.19,-231.2 395.78,-230.99 387.37,-224.55 385.19,-231.2"/>
</a>
</g>
</g>
<!-- Node3 -->
<g id="Node000003" class="node">
<title>Node3</title>
<g id="a_Node000003"><a xlink:href="../../d7/d09/Utils_8hpp.html" target="_top" xlink:title="Utility functions and structures for raytracer configuration, rendering and post&#45;processing.">
<polygon fill="white" stroke="#666666" points="500.66,-129 378.66,-129 378.66,-110 500.66,-110 500.66,-129"/>
<text text-anchor="middle" x="439.66" y="-117" font-family="Helvetica,sans-Serif" font-size="10.00">include/core/Utils.hpp</text>
</a>
</g>
</g>
<!-- Node1&#45;&gt;Node3 -->
<g id="edge12_Node000001_Node000003" class="edge">
<title>Node1&#45;&gt;Node3</title>
<g id="a_edge12_Node000001_Node000003"><a xlink:title=" ">
<path fill="none" stroke="#63b8ff" d="M473.99,-227.38C490.86,-220.72 507.74,-210.53 517.66,-195 524.84,-183.76 524.36,-176.53 517.66,-165 507.25,-147.07 486.6,-135.76 469.17,-129.03"/>
<polygon fill="#63b8ff" stroke="#63b8ff" points="472.35,-224.24 464.11,-230.9 474.7,-230.84 472.35,-224.24"/>
</a>
</g>
</g>
<!-- Node4 -->
<g id="Node000004" class="node">
<title>Node4</title>
<g id="a_Node000004"><a xlink:href="../../da/d7d/Visualizer_8hpp.html" target="_top" xlink:title=" ">
<polygon fill="white" stroke="#666666" points="506.16,-74 359.16,-74 359.16,-55 506.16,-55 506.16,-74"/>
<text text-anchor="middle" x="432.66" y="-62" font-family="Helvetica,sans-Serif" font-size="10.00">include/core/Visualizer.hpp</text>
</a>
</g>
</g>
<!-- Node1&#45;&gt;Node4 -->
<g id="edge13_Node000001_Node000004" class="edge">
<title>Node1&#45;&gt;Node4</title>
<g id="a_edge13_Node000001_Node000004"><a xlink:title=" ">
<path fill="none" stroke="#63b8ff" d="M333.8,-238.7C189.53,-234.49 -72.8,-212.95 19.66,-110 41.86,-85.28 246.04,-73.09 358.75,-68.2"/>
<polygon fill="#63b8ff" stroke="#63b8ff" points="333.89,-242.2 343.98,-238.98 334.08,-235.21 333.89,-242.2"/>
</a>
</g>
</g>
<!-- Node9 -->
<g id="Node000009" class="node">
<title>Node9</title>
<g id="a_Node000009"><a xlink:href="../../d3/d79/SceneParser_8cpp.html" target="_top" xlink:title="Implements the scene loading system using libconfig for the raytracer engine.">
<polygon fill="white" stroke="#666666" points="302.66,-129 150.66,-129 150.66,-110 302.66,-110 302.66,-129"/>
<text text-anchor="middle" x="226.66" y="-117" font-family="Helvetica,sans-Serif" font-size="10.00">src/loaders/SceneParser.cpp</text>
</a>
</g>
</g>
<!-- Node1&#45;&gt;Node9 -->
<g id="edge22_Node000001_Node000009" class="edge">
<title>Node1&#45;&gt;Node9</title>
<g id="a_edge22_Node000001_Node000009"><a xlink:title=" ">
<path fill="none" stroke="#63b8ff" d="M333.74,-236.27C267.16,-231.75 183.53,-220.93 161.66,-195 153.07,-184.81 155.44,-176.79 161.66,-165 170.66,-147.94 189.46,-136.18 204.54,-129.05"/>
<polygon fill="#63b8ff" stroke="#63b8ff" points="333.65,-239.77 343.85,-236.91 334.1,-232.78 333.65,-239.77"/>
</a>
</g>
</g>
<!-- Node10 -->
<g id="Node000010" class="node">
<title>Node10</title>
<g id="a_Node000010"><a xlink:href="../../df/d7b/SceneParser_8hpp.html" target="_top" xlink:title="Declares functions to load scenes from configuration files (.cfg) into a Scene object.">
<polygon fill="white" stroke="#666666" points="508.16,-189.5 335.16,-189.5 335.16,-170.5 508.16,-170.5 508.16,-189.5"/>
<text text-anchor="middle" x="421.66" y="-177.5" font-family="Helvetica,sans-Serif" font-size="10.00">include/loaders/SceneParser.hpp</text>
</a>
</g>
</g>
<!-- Node1&#45;&gt;Node10 -->
<g id="edge14_Node000001_Node000010" class="edge">
<title>Node1&#45;&gt;Node10</title>
<g id="a_edge14_Node000001_Node000010"><a xlink:title=" ">
<path fill="none" stroke="#63b8ff" d="M421.66,-220.66C421.66,-210.24 421.66,-197.8 421.66,-189.67"/>
<polygon fill="#63b8ff" stroke="#63b8ff" points="418.16,-220.87 421.66,-230.87 425.16,-220.87 418.16,-220.87"/>
</a>
</g>
</g>
<!-- Node11 -->
<g id="Node000011" class="node">
<title>Node11</title>
<g id="a_Node000011"><a xlink:href="../../d1/d3a/ShadowShading_8hpp.html" target="_top" xlink:title=" ">
<polygon fill="white" stroke="#666666" points="708.16,-195 565.16,-195 565.16,-165 708.16,-165 708.16,-195"/>
<text text-anchor="start" x="573.16" y="-183" font-family="Helvetica,sans-Serif" font-size="10.00">include/rendering/Shadow</text>
<text text-anchor="middle" x="636.66" y="-172" font-family="Helvetica,sans-Serif" font-size="10.00">Shading.hpp</text>
</a>
</g>
</g>
<!-- Node1&#45;&gt;Node11 -->
<g id="edge17_Node000001_Node000011" class="edge">
<title>Node1&#45;&gt;Node11</title>
<g id="a_edge17_Node000001_Node000011"><a xlink:title=" ">
<path fill="none" stroke="#63b8ff" d="M462.75,-228.32C497.51,-218.86 547.5,-205.26 584.97,-195.06"/>
<polygon fill="#63b8ff" stroke="#63b8ff" points="461.65,-224.99 452.92,-230.99 463.49,-231.75 461.65,-224.99"/>
</a>
</g>
</g>
<!-- Node14 -->
<g id="Node000014" class="node">
<title>Node14</title>
<g id="a_Node000014"><a xlink:href="../../de/d15/Scene_8cpp.html" target="_top" xlink:title=" ">
<polygon fill="white" stroke="#666666" points="859.16,-189.5 726.16,-189.5 726.16,-170.5 859.16,-170.5 859.16,-189.5"/>
<text text-anchor="middle" x="792.66" y="-177.5" font-family="Helvetica,sans-Serif" font-size="10.00">src/rendering/Scene.cpp</text>
</a>
</g>
</g>
<!-- Node1&#45;&gt;Node14 -->
<g id="edge23_Node000001_Node000014" class="edge">
<title>Node1&#45;&gt;Node14</title>
<g id="a_edge23_Node000001_Node000014"><a xlink:title=" ">
<path fill="none" stroke="#63b8ff" d="M492.83,-229.52C552.86,-220.93 641,-207.91 717.66,-195 727.59,-193.33 738.23,-191.41 748.29,-189.55"/>
<polygon fill="#63b8ff" stroke="#63b8ff" points="492.11,-226.09 482.7,-230.97 493.1,-233.02 492.11,-226.09"/>
</a>
</g>
</g>
<!-- Node2&#45;&gt;Node3 -->
<g id="edge2_Node000002_Node000003" class="edge">
<title>Node2&#45;&gt;Node3</title>
<g id="a_edge2_Node000002_Node000003"><a xlink:title=" ">
<path fill="none" stroke="#63b8ff" d="M276.82,-167.46C312.89,-156.15 370,-139.16 406.2,-129.02"/>
<polygon fill="#63b8ff" stroke="#63b8ff" points="275.71,-164.14 267.23,-170.49 277.82,-170.81 275.71,-164.14"/>
</a>
</g>
</g>
<!-- Node5 -->
<g id="Node000005" class="node">
<title>Node5</title>
<g id="a_Node000005"><a xlink:href="../../df/d39/Raytracer_8cpp.html" target="_top" xlink:title="Implements the main execution flow of the Raytracer application, including argument parsing,...">
<polygon fill="white" stroke="#666666" points="424.16,-19 299.16,-19 299.16,0 424.16,0 424.16,-19"/>
<text text-anchor="middle" x="361.66" y="-7" font-family="Helvetica,sans-Serif" font-size="10.00">src/core/Raytracer.cpp</text>
</a>
</g>
</g>
<!-- Node2&#45;&gt;Node5 -->
<g id="edge9_Node000002_Node000005" class="edge">
<title>Node2&#45;&gt;Node5</title>
<g id="a_edge9_Node000002_Node000005"><a xlink:title=" ">
<path fill="none" stroke="#63b8ff" d="M268.69,-165.21C282.83,-156.38 299.97,-143.82 311.66,-129 339.74,-93.42 354.73,-39.75 359.73,-19.06"/>
<polygon fill="#63b8ff" stroke="#63b8ff" points="266.7,-162.32 259.91,-170.45 270.29,-168.33 266.7,-162.32"/>
</a>
</g>
</g>
<!-- Node8 -->
<g id="Node000008" class="node">
<title>Node8</title>
<g id="a_Node000008"><a xlink:href="../../df/d0a/main_8cpp.html" target="_top" xlink:title="Entry point of the raytracer application. Initializes and runs the Raytracer engine.">
<polygon fill="white" stroke="#666666" points="132.16,-129 29.16,-129 29.16,-110 132.16,-110 132.16,-129"/>
<text text-anchor="middle" x="80.66" y="-117" font-family="Helvetica,sans-Serif" font-size="10.00">src/core/main.cpp</text>
</a>
</g>
</g>
<!-- Node2&#45;&gt;Node8 -->
<g id="edge10_Node000002_Node000008" class="edge">
<title>Node2&#45;&gt;Node8</title>
<g id="a_edge10_Node000002_Node000008"><a xlink:title=" ">
<path fill="none" stroke="#63b8ff" d="M210.3,-167.02C178.78,-155.71 132.29,-139.03 104.39,-129.02"/>
<polygon fill="#63b8ff" stroke="#63b8ff" points="209.37,-170.41 219.96,-170.49 211.73,-163.82 209.37,-170.41"/>
</a>
</g>
</g>
<!-- Node2&#45;&gt;Node9 -->
<g id="edge11_Node000002_Node000009" class="edge">
<title>Node2&#45;&gt;Node9</title>
<g id="a_edge11_Node000002_Node000009"><a xlink:title=" ">
<path fill="none" stroke="#63b8ff" d="M238.28,-160.49C235.24,-150.01 231.57,-137.39 229.18,-129.17"/>
<polygon fill="#63b8ff" stroke="#63b8ff" points="235,-161.74 241.15,-170.37 241.72,-159.79 235,-161.74"/>
</a>
</g>
</g>
<!-- Node3&#45;&gt;Node2 -->
<g id="edge3_Node000003_Node000002" class="edge">
<title>Node3&#45;&gt;Node2</title>
<g id="a_edge3_Node000003_Node000002"><a xlink:title=" ">
<path fill="none" stroke="#63b8ff" d="M406.47,-132.05C370.38,-143.37 313.28,-160.36 277.09,-170.49"/>
<polygon fill="#63b8ff" stroke="#63b8ff" points="407.58,-135.37 416.06,-129.02 405.47,-128.7 407.58,-135.37"/>
</a>
</g>
</g>
<!-- Node3&#45;&gt;Node4 -->
<g id="edge4_Node000003_Node000004" class="edge">
<title>Node3&#45;&gt;Node4</title>
<g id="a_edge4_Node000003_Node000004"><a xlink:title=" ">
<path fill="none" stroke="#63b8ff" d="M437.17,-99.66C436.02,-90.93 434.71,-80.99 433.8,-74.09"/>
<polygon fill="#63b8ff" stroke="#63b8ff" points="433.73,-100.29 438.51,-109.75 440.67,-99.38 433.73,-100.29"/>
</a>
</g>
</g>
<!-- Node6 -->
<g id="Node000006" class="node">
<title>Node6</title>
<g id="a_Node000006"><a xlink:href="../../d7/dd9/Visualizer_8cpp.html" target="_top" xlink:title="Implements visualization modes for the raytracer using SFML.">
<polygon fill="white" stroke="#666666" points="597.16,-19 472.16,-19 472.16,0 597.16,0 597.16,-19"/>
<text text-anchor="middle" x="534.66" y="-7" font-family="Helvetica,sans-Serif" font-size="10.00">src/core/Visualizer.cpp</text>
</a>
</g>
</g>
<!-- Node3&#45;&gt;Node6 -->
<g id="edge8_Node000003_Node000006" class="edge">
<title>Node3&#45;&gt;Node6</title>
<g id="a_edge8_Node000003_Node000006"><a xlink:title=" ">
<path fill="none" stroke="#63b8ff" d="M473.29,-105.58C488.17,-98.33 504.74,-87.91 515.66,-74 528.6,-57.53 532.74,-32.38 534.06,-19.22"/>
<polygon fill="#63b8ff" stroke="#63b8ff" points="471.48,-102.56 463.83,-109.89 474.38,-108.93 471.48,-102.56"/>
</a>
</g>
</g>
<!-- Node7 -->
<g id="Node000007" class="node">
<title>Node7</title>
<g id="a_Node000007"><a xlink:href="../../df/d0c/Utils_8cpp.html" target="_top" xlink:title="Implements utility functions for argument parsing, rendering, post&#45;processing, and denoising in the r...">
<polygon fill="white" stroke="#666666" points="664.16,-74 563.16,-74 563.16,-55 664.16,-55 664.16,-74"/>
<text text-anchor="middle" x="613.66" y="-62" font-family="Helvetica,sans-Serif" font-size="10.00">src/core/Utils.cpp</text>
</a>
</g>
</g>
<!-- Node3&#45;&gt;Node7 -->
<g id="edge7_Node000003_Node000007" class="edge">
<title>Node3&#45;&gt;Node7</title>
<g id="a_edge7_Node000003_Node000007"><a xlink:title=" ">
<path fill="none" stroke="#63b8ff" d="M477.23,-107.06C509.75,-97.15 556.06,-83.04 585.49,-74.08"/>
<polygon fill="#63b8ff" stroke="#63b8ff" points="476.16,-103.72 467.62,-109.98 478.2,-110.42 476.16,-103.72"/>
</a>
</g>
</g>
<!-- Node4&#45;&gt;Node5 -->
<g id="edge5_Node000004_Node000005" class="edge">
<title>Node4&#45;&gt;Node5</title>
<g id="a_edge5_Node000004_Node000005"><a xlink:title=" ">
<path fill="none" stroke="#63b8ff" d="M413.07,-48.88C400.29,-39.34 384.05,-27.21 373.28,-19.17"/>
<polygon fill="#63b8ff" stroke="#63b8ff" points="411.15,-51.81 421.25,-54.98 415.33,-46.2 411.15,-51.81"/>
</a>
</g>
</g>
<!-- Node4&#45;&gt;Node6 -->
<g id="edge6_Node000004_Node000006" class="edge">
<title>Node4&#45;&gt;Node6</title>
<g id="a_edge6_Node000004_Node000006"><a xlink:title=" ">
<path fill="none" stroke="#63b8ff" d="M457.94,-50.37C476.67,-40.63 501.68,-27.64 517.98,-19.17"/>
<polygon fill="#63b8ff" stroke="#63b8ff" points="456.31,-47.27 449.05,-54.98 459.54,-53.48 456.31,-47.27"/>
</a>
</g>
</g>
<!-- Node10&#45;&gt;Node3 -->
<g id="edge15_Node000010_Node000003" class="edge">
<title>Node10&#45;&gt;Node3</title>
<g id="a_edge15_Node000010_Node000003"><a xlink:title=" ">
<path fill="none" stroke="#63b8ff" d="M427.36,-160.49C430.58,-150.01 434.46,-137.39 436.99,-129.17"/>
<polygon fill="#63b8ff" stroke="#63b8ff" points="423.91,-159.78 424.32,-170.37 430.6,-161.84 423.91,-159.78"/>
</a>
</g>
</g>
<!-- Node10&#45;&gt;Node9 -->
<g id="edge16_Node000010_Node000009" class="edge">
<title>Node10&#45;&gt;Node9</title>
<g id="a_edge16_Node000010_Node000009"><a xlink:title=" ">
<path fill="none" stroke="#63b8ff" d="M383.69,-167.61C345.97,-156.29 289,-139.2 255.05,-129.02"/>
<polygon fill="#63b8ff" stroke="#63b8ff" points="382.72,-170.97 393.31,-170.49 384.73,-164.27 382.72,-170.97"/>
</a>
</g>
</g>
<!-- Node11&#45;&gt;Node3 -->
<g id="edge18_Node000011_Node000003" class="edge">
<title>Node11&#45;&gt;Node3</title>
<g id="a_edge18_Node000011_Node000003"><a xlink:title=" ">
<path fill="none" stroke="#63b8ff" d="M579.47,-162.02C543.08,-151.21 497.49,-137.67 468.47,-129.05"/>
<polygon fill="#63b8ff" stroke="#63b8ff" points="578.89,-165.5 589.48,-164.99 580.89,-158.79 578.89,-165.5"/>
</a>
</g>
</g>
<!-- Node11&#45;&gt;Node6 -->
<g id="edge19_Node000011_Node000006" class="edge">
<title>Node11&#45;&gt;Node6</title>
<g id="a_edge19_Node000011_Node000006"><a xlink:title=" ">
<path fill="none" stroke="#63b8ff" d="M657.76,-156.85C664.15,-148.73 670.35,-139.05 673.66,-129 683.96,-97.77 693.05,-81.57 673.66,-55 656.11,-30.95 625.39,-19.6 597.28,-14.36"/>
<polygon fill="#63b8ff" stroke="#63b8ff" points="654.92,-154.8 651.15,-164.7 660.27,-159.31 654.92,-154.8"/>
</a>
</g>
</g>
<!-- Node12 -->
<g id="Node000012" class="node">
<title>Node12</title>
<g id="a_Node000012"><a xlink:href="../../d7/dbd/ShadowShading_8cpp.html" target="_top" xlink:title=" ">
<polygon fill="white" stroke="#666666" points="902.16,-129 721.16,-129 721.16,-110 902.16,-110 902.16,-129"/>
<text text-anchor="middle" x="811.66" y="-117" font-family="Helvetica,sans-Serif" font-size="10.00">src/rendering/ShadowShading.cpp</text>
</a>
</g>
</g>
<!-- Node11&#45;&gt;Node12 -->
<g id="edge20_Node000011_Node000012" class="edge">
<title>Node11&#45;&gt;Node12</title>
<g id="a_edge20_Node000011_Node000012"><a xlink:title=" ">
<path fill="none" stroke="#63b8ff" d="M688.29,-161.74C720.48,-150.98 760.51,-137.6 786.07,-129.05"/>
<polygon fill="#63b8ff" stroke="#63b8ff" points="686.95,-158.5 678.58,-164.99 689.17,-165.14 686.95,-158.5"/>
</a>
</g>
</g>
<!-- Node13 -->
<g id="Node000013" class="node">
<title>Node13</title>
<g id="a_Node000013"><a xlink:href="../../d6/dc9/Skybox_8cpp.html" target="_top" xlink:title=" ">
<polygon fill="white" stroke="#666666" points="664.16,-129 525.16,-129 525.16,-110 664.16,-110 664.16,-129"/>
<text text-anchor="middle" x="594.66" y="-117" font-family="Helvetica,sans-Serif" font-size="10.00">src/rendering/Skybox.cpp</text>
</a>
</g>
</g>
<!-- Node11&#45;&gt;Node13 -->
<g id="edge21_Node000011_Node000013" class="edge">
<title>Node11&#45;&gt;Node13</title>
<g id="a_edge21_Node000011_Node000013"><a xlink:title=" ">
<path fill="none" stroke="#63b8ff" d="M620.51,-156.51C613.68,-146.99 606.12,-136.47 600.95,-129.27"/>
<polygon fill="#63b8ff" stroke="#63b8ff" points="617.82,-158.76 626.49,-164.84 623.51,-154.67 617.82,-158.76"/>
</a>
</g>
</g>
</g>
</svg>
