<?xml version="1.0" encoding="UTF-8" standalone="no"?>
<!DOCTYPE svg PUBLIC "-//W3C//DTD SVG 1.1//EN"
 "http://www.w3.org/Graphics/SVG/1.1/DTD/svg11.dtd">
<!-- Generated by graphviz version 2.43.0 (0)
 -->
<!-- Title: RayTracer::shade Pages: 1 -->
<svg width="498pt" height="398pt"
 viewBox="0.00 0.00 498.00 397.50" xmlns="http://www.w3.org/2000/svg" xmlns:xlink="http://www.w3.org/1999/xlink">
<g id="graph0" class="graph" transform="scale(1 1) rotate(0) translate(4 393.5)">
<title>RayTracer::shade</title>
<!-- Node1 -->
<g id="Node000001" class="node">
<title>Node1</title>
<g id="a_Node000001"><a xlink:title="Recursive path&#45;tracing integrator.">
<polygon fill="#999999" stroke="#666666" points="100,-206 0,-206 0,-187 100,-187 100,-206"/>
<text text-anchor="middle" x="50" y="-194" font-family="Helvetica,sans-Serif" font-size="10.00">RayTracer::shade</text>
</a>
</g>
</g>
<!-- Node1&#45;&gt;Node1 -->
<g id="edge13_Node000001_Node000001" class="edge">
<title>Node1&#45;&gt;Node1</title>
<g id="a_edge13_Node000001_Node000001"><a xlink:title=" ">
<path fill="none" stroke="#63b8ff" d="M24.11,-206.08C11.51,-214.73 20.14,-224 50,-224 70.06,-224 80.54,-219.82 81.44,-214.45"/>
<polygon fill="#63b8ff" stroke="#63b8ff" points="84.34,-212.49 75.89,-206.08 78.5,-216.35 84.34,-212.49"/>
</a>
</g>
</g>
<!-- Node2 -->
<g id="Node000002" class="node">
<title>Node2</title>
<g id="a_Node000002"><a xlink:href="../../d0/d82/classRayTracer_1_1ILight.html#a47469714a2ccb5287845a4f059f224cf" target="_top" xlink:title="Compute the incoming light direction at a surface point.">
<polygon fill="white" stroke="#666666" points="271,-389.5 167,-389.5 167,-359.5 271,-359.5 271,-389.5"/>
<text text-anchor="start" x="175" y="-377.5" font-family="Helvetica,sans-Serif" font-size="10.00">RayTracer::ILight::</text>
<text text-anchor="middle" x="219" y="-366.5" font-family="Helvetica,sans-Serif" font-size="10.00">direction</text>
</a>
</g>
</g>
<!-- Node1&#45;&gt;Node2 -->
<g id="edge1_Node000001_Node000002" class="edge">
<title>Node1&#45;&gt;Node2</title>
<g id="a_edge1_Node000001_Node000002"><a xlink:title=" ">
<path fill="none" stroke="#63b8ff" d="M53.83,-206.06C62.06,-232.24 88.47,-305.78 136,-345.5 142.34,-350.8 149.72,-355.16 157.41,-358.74"/>
<polygon fill="#63b8ff" stroke="#63b8ff" points="156.3,-362.07 166.88,-362.73 159.02,-355.62 156.3,-362.07"/>
</a>
</g>
</g>
<!-- Node3 -->
<g id="Node000003" class="node">
<title>Node3</title>
<g id="a_Node000003"><a xlink:href="../../d6/d30/structMath_1_1Vector3D.html#aa57c357f4be8837461cdd32bd3e5d7dc" target="_top" xlink:title="Computes the dot product between this and another vector.">
<polygon fill="white" stroke="#666666" points="470.5,-340 357.5,-340 357.5,-321 470.5,-321 470.5,-340"/>
<text text-anchor="middle" x="414" y="-328" font-family="Helvetica,sans-Serif" font-size="10.00">Math::Vector3D::dot</text>
</a>
</g>
</g>
<!-- Node1&#45;&gt;Node3 -->
<g id="edge2_Node000001_Node000003" class="edge">
<title>Node1&#45;&gt;Node3</title>
<g id="a_edge2_Node000001_Node000003"><a xlink:title=" ">
<path fill="none" stroke="#63b8ff" d="M55.5,-206.16C66.08,-227.62 94.77,-279.12 136,-301.5 201.35,-336.97 288.13,-340.29 347.02,-337.29"/>
<polygon fill="#63b8ff" stroke="#63b8ff" points="347.54,-340.76 357.32,-336.69 347.13,-333.78 347.54,-340.76"/>
</a>
</g>
</g>
<!-- Node4 -->
<g id="Node000004" class="node">
<title>Node4</title>
<g id="a_Node000004"><a xlink:href="../../dc/d25/classRayTracer_1_1Scene.html#adb32144e3e23e2bb9a6e6d702f6d52e7" target="_top" xlink:title="Intersect a ray with all objects in the scene.">
<polygon fill="white" stroke="#666666" points="278.5,-228 159.5,-228 159.5,-209 278.5,-209 278.5,-228"/>
<text text-anchor="middle" x="219" y="-216" font-family="Helvetica,sans-Serif" font-size="10.00">RayTracer::Scene::hit</text>
</a>
</g>
</g>
<!-- Node1&#45;&gt;Node4 -->
<g id="edge3_Node000001_Node000004" class="edge">
<title>Node1&#45;&gt;Node4</title>
<g id="a_edge3_Node000001_Node000004"><a xlink:title=" ">
<path fill="none" stroke="#63b8ff" d="M100.2,-202.98C115.58,-205.01 132.84,-207.28 149.3,-209.45"/>
<polygon fill="#63b8ff" stroke="#63b8ff" points="149.05,-212.95 159.42,-210.78 149.97,-206.01 149.05,-212.95"/>
</a>
</g>
</g>
<!-- Node5 -->
<g id="Node000005" class="node">
<title>Node5</title>
<g id="a_Node000005"><a xlink:href="../../d0/d82/classRayTracer_1_1ILight.html#a38eab6f380194227f9c1085260092315" target="_top" xlink:title="Get the scalar intensity (power) of the light.">
<polygon fill="white" stroke="#666666" points="271,-190.5 167,-190.5 167,-160.5 271,-160.5 271,-190.5"/>
<text text-anchor="start" x="175" y="-178.5" font-family="Helvetica,sans-Serif" font-size="10.00">RayTracer::ILight::</text>
<text text-anchor="middle" x="219" y="-167.5" font-family="Helvetica,sans-Serif" font-size="10.00">intensity</text>
</a>
</g>
</g>
<!-- Node1&#45;&gt;Node5 -->
<g id="edge4_Node000001_Node000005" class="edge">
<title>Node1&#45;&gt;Node5</title>
<g id="a_edge4_Node000001_Node000005"><a xlink:title=" ">
<path fill="none" stroke="#63b8ff" d="M100.2,-190.31C117.9,-188.09 138.08,-185.55 156.69,-183.21"/>
<polygon fill="#63b8ff" stroke="#63b8ff" points="157.35,-186.65 166.83,-181.93 156.47,-179.71 157.35,-186.65"/>
</a>
</g>
</g>
<!-- Node6 -->
<g id="Node000006" class="node">
<title>Node6</title>
<g id="a_Node000006"><a xlink:href="../../d6/d30/structMath_1_1Vector3D.html#a598b2b7fe5b2b34c111ee68015080334" target="_top" xlink:title="Returns a normalized (unit&#45;length) copy of the vector.">
<polygon fill="white" stroke="#666666" points="295,-142 143,-142 143,-123 295,-123 295,-142"/>
<text text-anchor="middle" x="219" y="-130" font-family="Helvetica,sans-Serif" font-size="10.00">Math::Vector3D::normalized</text>
</a>
</g>
</g>
<!-- Node1&#45;&gt;Node6 -->
<g id="edge5_Node000001_Node000006" class="edge">
<title>Node1&#45;&gt;Node6</title>
<g id="a_edge5_Node000001_Node000006"><a xlink:title=" ">
<path fill="none" stroke="#63b8ff" d="M66.1,-186.95C82.68,-176.85 110.35,-161.08 136,-151.5 142.95,-148.91 150.37,-146.59 157.79,-144.55"/>
<polygon fill="#63b8ff" stroke="#63b8ff" points="158.72,-147.93 167.52,-142.03 156.96,-141.15 158.72,-147.93"/>
</a>
</g>
</g>
<!-- Node7 -->
<g id="Node000007" class="node">
<title>Node7</title>
<g id="a_Node000007"><a xlink:href="../../d0/d82/classRayTracer_1_1ILight.html#ab7ee56a002dd2f9adbee38aaee4b1538" target="_top" xlink:title="Retrieve the light’s world&#45;space position if applicable.">
<polygon fill="white" stroke="#666666" points="271,-104.5 167,-104.5 167,-74.5 271,-74.5 271,-104.5"/>
<text text-anchor="start" x="175" y="-92.5" font-family="Helvetica,sans-Serif" font-size="10.00">RayTracer::ILight::</text>
<text text-anchor="middle" x="219" y="-81.5" font-family="Helvetica,sans-Serif" font-size="10.00">position</text>
</a>
</g>
</g>
<!-- Node1&#45;&gt;Node7 -->
<g id="edge6_Node000001_Node000007" class="edge">
<title>Node1&#45;&gt;Node7</title>
<g id="a_edge6_Node000001_Node000007"><a xlink:title=" ">
<path fill="none" stroke="#63b8ff" d="M58.29,-186.74C71.74,-169.42 102.17,-133.28 136,-113.5 142.66,-109.6 150,-106.3 157.47,-103.51"/>
<polygon fill="#63b8ff" stroke="#63b8ff" points="158.65,-106.81 166.96,-100.24 156.37,-100.19 158.65,-106.81"/>
</a>
</g>
</g>
<!-- Node8 -->
<g id="Node000008" class="node">
<title>Node8</title>
<g id="a_Node000008"><a xlink:href="../../d1/df4/namespaceRayTracer.html#ae95ed0335c1ba084545f21d7f61c8942" target="_top" xlink:title="Generate a single uniform random number in [0,1).">
<polygon fill="white" stroke="#666666" points="466,-302 362,-302 362,-283 466,-283 466,-302"/>
<text text-anchor="middle" x="414" y="-290" font-family="Helvetica,sans-Serif" font-size="10.00">RayTracer::rand01</text>
</a>
</g>
</g>
<!-- Node1&#45;&gt;Node8 -->
<g id="edge7_Node000001_Node000008" class="edge">
<title>Node1&#45;&gt;Node8</title>
<g id="a_edge7_Node000001_Node000008"><a xlink:title=" ">
<path fill="none" stroke="#63b8ff" d="M57.85,-206.13C70.82,-223.45 100.82,-259.47 136,-274.5 205.51,-304.19 293.81,-304.26 351.8,-299.85"/>
<polygon fill="#63b8ff" stroke="#63b8ff" points="352.22,-303.33 361.9,-299.02 351.65,-296.35 352.22,-303.33"/>
</a>
</g>
</g>
<!-- Node9 -->
<g id="Node000009" class="node">
<title>Node9</title>
<g id="a_Node000009"><a xlink:href="../../d1/df4/namespaceRayTracer.html#ab7c27bbad4b80e8966900494064dbb20" target="_top" xlink:title="Cosine&#45;weighted hemisphere sampling around a shading normal.">
<polygon fill="white" stroke="#666666" points="302,-265 136,-265 136,-246 302,-246 302,-265"/>
<text text-anchor="middle" x="219" y="-253" font-family="Helvetica,sans-Serif" font-size="10.00">RayTracer::sampleHemisphere</text>
</a>
</g>
</g>
<!-- Node1&#45;&gt;Node9 -->
<g id="edge8_Node000001_Node000009" class="edge">
<title>Node1&#45;&gt;Node9</title>
<g id="a_edge8_Node000001_Node000009"><a xlink:title=" ">
<path fill="none" stroke="#63b8ff" d="M67.76,-206.03C84.55,-215.24 111.38,-228.99 136,-237.5 142.39,-239.71 149.15,-241.71 155.94,-243.5"/>
<polygon fill="#63b8ff" stroke="#63b8ff" points="155.33,-246.95 165.88,-245.98 157.02,-240.16 155.33,-246.95"/>
</a>
</g>
</g>
<!-- Node12 -->
<g id="Node000012" class="node">
<title>Node12</title>
<g id="a_Node000012"><a xlink:href="../../db/d92/namespaceSkybox.html#a4a9c986d1ee3f28f9b2e419b743f5ebf" target="_top" xlink:title="Procedural horizon&#45;to&#45;zenith gradient.">
<polygon fill="white" stroke="#666666" points="277,-56 161,-56 161,-37 277,-37 277,-56"/>
<text text-anchor="middle" x="219" y="-44" font-family="Helvetica,sans-Serif" font-size="10.00">Skybox::skyGradient</text>
</a>
</g>
</g>
<!-- Node1&#45;&gt;Node12 -->
<g id="edge14_Node000001_Node000012" class="edge">
<title>Node1&#45;&gt;Node12</title>
<g id="a_edge14_Node000001_Node000012"><a xlink:title=" ">
<path fill="none" stroke="#63b8ff" d="M54.36,-186.77C63.36,-162.22 90.49,-97.41 136,-65.5 140.64,-62.25 145.75,-59.55 151.09,-57.3"/>
<polygon fill="#63b8ff" stroke="#63b8ff" points="152.68,-60.45 160.88,-53.74 150.29,-53.87 152.68,-60.45"/>
</a>
</g>
</g>
<!-- Node14 -->
<g id="Node000014" class="node">
<title>Node14</title>
<g id="a_Node000014"><a xlink:href="../../d0/d82/classRayTracer_1_1ILight.html#a4aaa93d94da7fc685a2a98a57310b3e5" target="_top" xlink:title="Get the type of this light.">
<polygon fill="white" stroke="#666666" points="281.5,-19 156.5,-19 156.5,0 281.5,0 281.5,-19"/>
<text text-anchor="middle" x="219" y="-7" font-family="Helvetica,sans-Serif" font-size="10.00">RayTracer::ILight::type</text>
</a>
</g>
</g>
<!-- Node1&#45;&gt;Node14 -->
<g id="edge16_Node000001_Node000014" class="edge">
<title>Node1&#45;&gt;Node14</title>
<g id="a_edge16_Node000001_Node000014"><a xlink:title=" ">
<path fill="none" stroke="#63b8ff" d="M52.88,-186.61C59.02,-157.25 81.27,-70.01 136,-27.5 139.37,-24.88 143.03,-22.63 146.89,-20.69"/>
<polygon fill="#63b8ff" stroke="#63b8ff" points="148.36,-23.87 156.18,-16.72 145.61,-17.44 148.36,-23.87"/>
</a>
</g>
</g>
<!-- Node9&#45;&gt;Node3 -->
<g id="edge10_Node000009_Node000003" class="edge">
<title>Node9&#45;&gt;Node3</title>
<g id="a_edge10_Node000009_Node000003"><a xlink:title=" ">
<path fill="none" stroke="#63b8ff" d="M237.53,-265.15C260.18,-277.31 301.09,-298.21 338,-311.5 344.86,-313.97 352.19,-316.25 359.48,-318.3"/>
<polygon fill="#63b8ff" stroke="#63b8ff" points="358.77,-321.74 369.34,-320.97 360.59,-314.98 358.77,-321.74"/>
</a>
</g>
</g>
<!-- Node9&#45;&gt;Node8 -->
<g id="edge12_Node000009_Node000008" class="edge">
<title>Node9&#45;&gt;Node8</title>
<g id="a_edge12_Node000009_Node000008"><a xlink:title=" ">
<path fill="none" stroke="#63b8ff" d="M269.7,-265.03C295.15,-269.91 326.34,-275.89 353.11,-281.02"/>
<polygon fill="#63b8ff" stroke="#63b8ff" points="352.65,-284.49 363.13,-282.94 353.97,-277.62 352.65,-284.49"/>
</a>
</g>
</g>
<!-- Node10 -->
<g id="Node000010" class="node">
<title>Node10</title>
<g id="a_Node000010"><a xlink:href="../../d6/d30/structMath_1_1Vector3D.html#ad9bca728f96bfb94acebaf6cc63109c3" target="_top" xlink:title="Computes the cross product between this and another vector.">
<polygon fill="white" stroke="#666666" points="475.5,-228 352.5,-228 352.5,-209 475.5,-209 475.5,-228"/>
<text text-anchor="middle" x="414" y="-216" font-family="Helvetica,sans-Serif" font-size="10.00">Math::Vector3D::cross</text>
</a>
</g>
</g>
<!-- Node9&#45;&gt;Node10 -->
<g id="edge9_Node000009_Node000010" class="edge">
<title>Node9&#45;&gt;Node10</title>
<g id="a_edge9_Node000009_Node000010"><a xlink:title=" ">
<path fill="none" stroke="#63b8ff" d="M269.7,-245.97C295.15,-241.09 326.34,-235.11 353.11,-229.98"/>
<polygon fill="#63b8ff" stroke="#63b8ff" points="353.97,-233.38 363.13,-228.06 352.65,-226.51 353.97,-233.38"/>
</a>
</g>
</g>
<!-- Node11 -->
<g id="Node000011" class="node">
<title>Node11</title>
<g id="a_Node000011"><a xlink:href="../../d6/d30/structMath_1_1Vector3D.html#a4c208026b6867d4c99afa13ddc3b9278" target="_top" xlink:title="Computes the Euclidean length (norm) of the vector.">
<polygon fill="white" stroke="#666666" points="478,-265 350,-265 350,-246 478,-246 478,-265"/>
<text text-anchor="middle" x="414" y="-253" font-family="Helvetica,sans-Serif" font-size="10.00">Math::Vector3D::length</text>
</a>
</g>
</g>
<!-- Node9&#45;&gt;Node11 -->
<g id="edge11_Node000009_Node000011" class="edge">
<title>Node9&#45;&gt;Node11</title>
<g id="a_edge11_Node000009_Node000011"><a xlink:title=" ">
<path fill="none" stroke="#63b8ff" d="M302.13,-255.5C314.63,-255.5 327.47,-255.5 339.76,-255.5"/>
<polygon fill="#63b8ff" stroke="#63b8ff" points="339.95,-259 349.95,-255.5 339.95,-252 339.95,-259"/>
</a>
</g>
</g>
<!-- Node13 -->
<g id="Node000013" class="node">
<title>Node13</title>
<g id="a_Node000013"><a xlink:href="../../d7/de5/structSkybox_1_1PPMImage.html#a8413ea1e39e4485b4d3126688f0f478c" target="_top" xlink:title="Bilinear sample in normalised texture coordinates.">
<polygon fill="white" stroke="#666666" points="490,-56 338,-56 338,-37 490,-37 490,-56"/>
<text text-anchor="middle" x="414" y="-44" font-family="Helvetica,sans-Serif" font-size="10.00">Skybox::PPMImage::sample</text>
</a>
</g>
</g>
<!-- Node12&#45;&gt;Node13 -->
<g id="edge15_Node000012_Node000013" class="edge">
<title>Node12&#45;&gt;Node13</title>
<g id="a_edge15_Node000012_Node000013"><a xlink:title=" ">
<path fill="none" stroke="#63b8ff" d="M277.12,-46.5C293.01,-46.5 310.62,-46.5 327.75,-46.5"/>
<polygon fill="#63b8ff" stroke="#63b8ff" points="327.76,-50 337.76,-46.5 327.76,-43 327.76,-50"/>
</a>
</g>
</g>
</g>
</svg>
