<?xml version="1.0" encoding="UTF-8" standalone="no"?>
<!DOCTYPE svg PUBLIC "-//W3C//DTD SVG 1.1//EN"
 "http://www.w3.org/Graphics/SVG/1.1/DTD/svg11.dtd">
<!-- Generated by graphviz version 2.43.0 (0)
 -->
<!-- Title: RayTracer::surrounding_box Pages: 1 -->
<svg width="324pt" height="182pt"
 viewBox="0.00 0.00 324.00 182.00" xmlns="http://www.w3.org/2000/svg" xmlns:xlink="http://www.w3.org/1999/xlink">
<g id="graph0" class="graph" transform="scale(1 1) rotate(0) translate(4 178)">
<title>RayTracer::surrounding_box</title>
<!-- Node1 -->
<g id="Node000001" class="node">
<title>Node1</title>
<g id="a_Node000001"><a xlink:title=" ">
<polygon fill="#999999" stroke="#666666" points="316,-96.5 164,-96.5 164,-77.5 316,-77.5 316,-96.5"/>
<text text-anchor="middle" x="240" y="-84.5" font-family="Helvetica,sans-Serif" font-size="10.00">RayTracer::surrounding_box</text>
</a>
</g>
</g>
<!-- Node2 -->
<g id="Node000002" class="node">
<title>Node2</title>
<g id="a_Node000002"><a xlink:href="../../d4/da0/classRayTracer_1_1Menger.html#afee32035cc10eb4d5a48c76826a2dc88" target="_top" xlink:title="Compute the axis&#45;aligned bounding box of the sponge.">
<polygon fill="white" stroke="#666666" points="120.5,-174 7.5,-174 7.5,-144 120.5,-144 120.5,-174"/>
<text text-anchor="start" x="15.5" y="-162" font-family="Helvetica,sans-Serif" font-size="10.00">RayTracer::Menger::</text>
<text text-anchor="middle" x="64" y="-151" font-family="Helvetica,sans-Serif" font-size="10.00">bounds</text>
</a>
</g>
</g>
<!-- Node1&#45;&gt;Node2 -->
<g id="edge1_Node000001_Node000002" class="edge">
<title>Node1&#45;&gt;Node2</title>
<g id="a_edge1_Node000001_Node000002"><a xlink:title=" ">
<path fill="none" stroke="#63b8ff" d="M208.17,-100.77C185.98,-110.57 155.28,-123.91 128,-135 120.74,-137.95 112.96,-141 105.43,-143.9"/>
<polygon fill="#63b8ff" stroke="#63b8ff" points="209.7,-103.92 217.42,-96.67 206.86,-97.52 209.7,-103.92"/>
</a>
</g>
</g>
<!-- Node3 -->
<g id="Node000003" class="node">
<title>Node3</title>
<g id="a_Node000003"><a xlink:href="../../d3/d44/classRayTracer_1_1Sierpinski.html#a7349a9b45b59e9c2d04f7890d7ff77d2" target="_top" xlink:title="Returns the axis&#45;aligned bounding box of the primitive.">
<polygon fill="white" stroke="#666666" points="123.5,-126 4.5,-126 4.5,-96 123.5,-96 123.5,-126"/>
<text text-anchor="start" x="12.5" y="-114" font-family="Helvetica,sans-Serif" font-size="10.00">RayTracer::Sierpinski</text>
<text text-anchor="middle" x="64" y="-103" font-family="Helvetica,sans-Serif" font-size="10.00">::bounds</text>
</a>
</g>
</g>
<!-- Node1&#45;&gt;Node3 -->
<g id="edge2_Node000001_Node000003" class="edge">
<title>Node1&#45;&gt;Node3</title>
<g id="a_edge2_Node000001_Node000003"><a xlink:title=" ">
<path fill="none" stroke="#63b8ff" d="M159.8,-97.92C147.6,-99.61 135.2,-101.32 123.55,-102.92"/>
<polygon fill="#63b8ff" stroke="#63b8ff" points="160.55,-101.35 169.98,-96.52 159.6,-94.42 160.55,-101.35"/>
</a>
</g>
</g>
<!-- Node4 -->
<g id="Node000004" class="node">
<title>Node4</title>
<g id="a_Node000004"><a xlink:href="../../df/d3f/classRayTracer_1_1Tetrahedron.html#acfde3676d1ee17253ab8a92c8df69775" target="_top" xlink:title="Returns the axis&#45;aligned bounding box of the primitive.">
<polygon fill="white" stroke="#666666" points="128,-78 0,-78 0,-48 128,-48 128,-78"/>
<text text-anchor="start" x="8" y="-66" font-family="Helvetica,sans-Serif" font-size="10.00">RayTracer::Tetrahedron</text>
<text text-anchor="middle" x="64" y="-55" font-family="Helvetica,sans-Serif" font-size="10.00">::bounds</text>
</a>
</g>
</g>
<!-- Node1&#45;&gt;Node4 -->
<g id="edge3_Node000001_Node000004" class="edge">
<title>Node1&#45;&gt;Node4</title>
<g id="a_edge3_Node000001_Node000004"><a xlink:title=" ">
<path fill="none" stroke="#63b8ff" d="M159.82,-76.08C149.16,-74.61 138.34,-73.12 128,-71.69"/>
<polygon fill="#63b8ff" stroke="#63b8ff" points="159.6,-79.58 169.98,-77.48 160.55,-72.65 159.6,-79.58"/>
</a>
</g>
</g>
<!-- Node5 -->
<g id="Node000005" class="node">
<title>Node5</title>
<g id="a_Node000005"><a xlink:href="../../dc/d91/classRayTracer_1_1BVHNode.html#a1a45e3db8017216402e5f223224f1a87" target="_top" xlink:title=" ">
<polygon fill="white" stroke="#666666" points="122.5,-30 5.5,-30 5.5,0 122.5,0 122.5,-30"/>
<text text-anchor="start" x="13.5" y="-18" font-family="Helvetica,sans-Serif" font-size="10.00">RayTracer::BVHNode</text>
<text text-anchor="middle" x="64" y="-7" font-family="Helvetica,sans-Serif" font-size="10.00">::BVHNode</text>
</a>
</g>
</g>
<!-- Node1&#45;&gt;Node5 -->
<g id="edge4_Node000001_Node000005" class="edge">
<title>Node1&#45;&gt;Node5</title>
<g id="a_edge4_Node000001_Node000005"><a xlink:title=" ">
<path fill="none" stroke="#63b8ff" d="M208.17,-73.23C185.98,-63.43 155.28,-50.09 128,-39 120.74,-36.05 112.96,-33 105.43,-30.1"/>
<polygon fill="#63b8ff" stroke="#63b8ff" points="206.86,-76.48 217.42,-77.33 209.7,-70.08 206.86,-76.48"/>
</a>
</g>
</g>
</g>
</svg>
