<?xml version="1.0" encoding="UTF-8" standalone="no"?>
<!DOCTYPE svg PUBLIC "-//W3C//DTD SVG 1.1//EN"
 "http://www.w3.org/Graphics/SVG/1.1/DTD/svg11.dtd">
<!-- Generated by graphviz version 2.43.0 (0)
 -->
<!-- Title: RayTracer::Cylinder::hits Pages: 1 -->
<svg width="283pt" height="101pt"
 viewBox="0.00 0.00 283.00 101.00" xmlns="http://www.w3.org/2000/svg" xmlns:xlink="http://www.w3.org/1999/xlink">
<g id="graph0" class="graph" transform="scale(1 1) rotate(0) translate(4 97)">
<title>RayTracer::Cylinder::hits</title>
<!-- Node1 -->
<g id="Node000001" class="node">
<title>Node1</title>
<g id="a_Node000001"><a xlink:title="Ray–cylinder intersection test.">
<polygon fill="#999999" stroke="#666666" points="111,-61.5 0,-61.5 0,-31.5 111,-31.5 111,-61.5"/>
<text text-anchor="start" x="8" y="-49.5" font-family="Helvetica,sans-Serif" font-size="10.00">RayTracer::Cylinder</text>
<text text-anchor="middle" x="55.5" y="-38.5" font-family="Helvetica,sans-Serif" font-size="10.00">::hits</text>
</a>
</g>
</g>
<!-- Node2 -->
<g id="Node000002" class="node">
<title>Node2</title>
<g id="a_Node000002"><a xlink:href="../../d6/d30/structMath_1_1Vector3D.html#ad9bca728f96bfb94acebaf6cc63109c3" target="_top" xlink:title="Computes the cross product between this and another vector.">
<polygon fill="white" stroke="#666666" points="272.5,-93 149.5,-93 149.5,-74 272.5,-74 272.5,-93"/>
<text text-anchor="middle" x="211" y="-81" font-family="Helvetica,sans-Serif" font-size="10.00">Math::Vector3D::cross</text>
</a>
</g>
</g>
<!-- Node1&#45;&gt;Node2 -->
<g id="edge1_Node000001_Node000002" class="edge">
<title>Node1&#45;&gt;Node2</title>
<g id="a_edge1_Node000001_Node000002"><a xlink:title=" ">
<path fill="none" stroke="#63b8ff" d="M111.05,-59.65C127.17,-63.53 144.71,-67.76 160.49,-71.57"/>
<polygon fill="#63b8ff" stroke="#63b8ff" points="160.03,-75.06 170.58,-74 161.67,-68.25 160.03,-75.06"/>
</a>
</g>
</g>
<!-- Node3 -->
<g id="Node000003" class="node">
<title>Node3</title>
<g id="a_Node000003"><a xlink:href="../../d6/d30/structMath_1_1Vector3D.html#aa57c357f4be8837461cdd32bd3e5d7dc" target="_top" xlink:title="Computes the dot product between this and another vector.">
<polygon fill="white" stroke="#666666" points="267.5,-56 154.5,-56 154.5,-37 267.5,-37 267.5,-56"/>
<text text-anchor="middle" x="211" y="-44" font-family="Helvetica,sans-Serif" font-size="10.00">Math::Vector3D::dot</text>
</a>
</g>
</g>
<!-- Node1&#45;&gt;Node3 -->
<g id="edge2_Node000001_Node000003" class="edge">
<title>Node1&#45;&gt;Node3</title>
<g id="a_edge2_Node000001_Node000003"><a xlink:title=" ">
<path fill="none" stroke="#63b8ff" d="M111.05,-46.5C121.8,-46.5 133.19,-46.5 144.27,-46.5"/>
<polygon fill="#63b8ff" stroke="#63b8ff" points="144.33,-50 154.33,-46.5 144.33,-43 144.33,-50"/>
</a>
</g>
</g>
<!-- Node4 -->
<g id="Node000004" class="node">
<title>Node4</title>
<g id="a_Node000004"><a xlink:href="../../d6/d30/structMath_1_1Vector3D.html#a4c208026b6867d4c99afa13ddc3b9278" target="_top" xlink:title="Computes the Euclidean length (norm) of the vector.">
<polygon fill="white" stroke="#666666" points="275,-19 147,-19 147,0 275,0 275,-19"/>
<text text-anchor="middle" x="211" y="-7" font-family="Helvetica,sans-Serif" font-size="10.00">Math::Vector3D::length</text>
</a>
</g>
</g>
<!-- Node1&#45;&gt;Node4 -->
<g id="edge3_Node000001_Node000004" class="edge">
<title>Node1&#45;&gt;Node4</title>
<g id="a_edge3_Node000001_Node000004"><a xlink:title=" ">
<path fill="none" stroke="#63b8ff" d="M111.05,-33.35C127.17,-29.47 144.71,-25.24 160.49,-21.43"/>
<polygon fill="#63b8ff" stroke="#63b8ff" points="161.67,-24.75 170.58,-19 160.03,-17.94 161.67,-24.75"/>
</a>
</g>
</g>
</g>
</svg>
