<?xml version="1.0" encoding="UTF-8" standalone="no"?>
<!DOCTYPE svg PUBLIC "-//W3C//DTD SVG 1.1//EN"
 "http://www.w3.org/Graphics/SVG/1.1/DTD/svg11.dtd">
<!-- Generated by graphviz version 2.43.0 (0)
 -->
<!-- Title: src/rendering/AmbientLight.cpp Pages: 1 -->
<svg width="189pt" height="368pt"
 viewBox="0.00 0.00 189.00 368.00" xmlns="http://www.w3.org/2000/svg" xmlns:xlink="http://www.w3.org/1999/xlink">
<g id="graph0" class="graph" transform="scale(1 1) rotate(0) translate(4 364)">
<title>src/rendering/AmbientLight.cpp</title>
<!-- Node1 -->
<g id="Node000001" class="node">
<title>Node1</title>
<g id="a_Node000001"><a xlink:title=" ">
<polygon fill="#999999" stroke="#666666" points="169,-360 0,-360 0,-341 169,-341 169,-360"/>
<text text-anchor="middle" x="84.5" y="-348" font-family="Helvetica,sans-Serif" font-size="10.00">src/rendering/AmbientLight.cpp</text>
</a>
</g>
</g>
<!-- Node2 -->
<g id="Node000002" class="node">
<title>Node2</title>
<g id="a_Node000002"><a xlink:href="../../d0/dc0/AmbientLight_8hpp.html" target="_top" xlink:title="Declares the AmbientLight class: uniform ambient illumination.">
<polygon fill="white" stroke="#666666" points="144,-305 25,-305 25,-275 144,-275 144,-305"/>
<text text-anchor="start" x="33" y="-293" font-family="Helvetica,sans-Serif" font-size="10.00">../../include/rendering</text>
<text text-anchor="middle" x="84.5" y="-282" font-family="Helvetica,sans-Serif" font-size="10.00">/AmbientLight.hpp</text>
</a>
</g>
</g>
<!-- Node1&#45;&gt;Node2 -->
<g id="edge1_Node000001_Node000002" class="edge">
<title>Node1&#45;&gt;Node2</title>
<g id="a_edge1_Node000001_Node000002"><a xlink:title=" ">
<path fill="none" stroke="#63b8ff" d="M84.5,-340.87C84.5,-334.11 84.5,-324.35 84.5,-315.26"/>
<polygon fill="#63b8ff" stroke="#63b8ff" points="88,-315.11 84.5,-305.11 81,-315.11 88,-315.11"/>
</a>
</g>
</g>
<!-- Node3 -->
<g id="Node000003" class="node">
<title>Node3</title>
<g id="a_Node000003"><a xlink:href="../../db/d54/ALight_8hpp.html" target="_top" xlink:title="Abstract base class partially implementing the ILight interface.">
<polygon fill="white" stroke="#666666" points="118.5,-239 50.5,-239 50.5,-220 118.5,-220 118.5,-239"/>
<text text-anchor="middle" x="84.5" y="-227" font-family="Helvetica,sans-Serif" font-size="10.00">ALight.hpp</text>
</a>
</g>
</g>
<!-- Node2&#45;&gt;Node3 -->
<g id="edge2_Node000002_Node000003" class="edge">
<title>Node2&#45;&gt;Node3</title>
<g id="a_edge2_Node000002_Node000003"><a xlink:title=" ">
<path fill="none" stroke="#63b8ff" d="M84.5,-274.84C84.5,-267.21 84.5,-257.7 84.5,-249.45"/>
<polygon fill="#63b8ff" stroke="#63b8ff" points="88,-249.27 84.5,-239.27 81,-249.27 88,-249.27"/>
</a>
</g>
</g>
<!-- Node4 -->
<g id="Node000004" class="node">
<title>Node4</title>
<g id="a_Node000004"><a xlink:href="../../da/da7/ILight_8hpp.html" target="_top" xlink:title="Abstract interface for all light sources in the path tracer.">
<polygon fill="white" stroke="#666666" points="117,-184 52,-184 52,-165 117,-165 117,-184"/>
<text text-anchor="middle" x="84.5" y="-172" font-family="Helvetica,sans-Serif" font-size="10.00">ILight.hpp</text>
</a>
</g>
</g>
<!-- Node3&#45;&gt;Node4 -->
<g id="edge3_Node000003_Node000004" class="edge">
<title>Node3&#45;&gt;Node4</title>
<g id="a_edge3_Node000003_Node000004"><a xlink:title=" ">
<path fill="none" stroke="#63b8ff" d="M84.5,-219.75C84.5,-212.8 84.5,-202.85 84.5,-194.13"/>
<polygon fill="#63b8ff" stroke="#63b8ff" points="88,-194.09 84.5,-184.09 81,-194.09 88,-194.09"/>
</a>
</g>
</g>
<!-- Node5 -->
<g id="Node000005" class="node">
<title>Node5</title>
<g id="a_Node000005"><a xlink:href="../../df/df2/Point3D_8hpp.html" target="_top" xlink:title="Defines a 3D point structure used in geometric computations.">
<polygon fill="white" stroke="#666666" points="181,-129 72,-129 72,-110 181,-110 181,-129"/>
<text text-anchor="middle" x="126.5" y="-117" font-family="Helvetica,sans-Serif" font-size="10.00">../core/Point3D.hpp</text>
</a>
</g>
</g>
<!-- Node4&#45;&gt;Node5 -->
<g id="edge4_Node000004_Node000005" class="edge">
<title>Node4&#45;&gt;Node5</title>
<g id="a_edge4_Node000004_Node000005"><a xlink:title=" ">
<path fill="none" stroke="#63b8ff" d="M91.44,-164.75C97.37,-157.26 106.07,-146.28 113.32,-137.13"/>
<polygon fill="#63b8ff" stroke="#63b8ff" points="116.23,-139.1 119.69,-129.09 110.74,-134.75 116.23,-139.1"/>
</a>
</g>
</g>
<!-- Node6 -->
<g id="Node000006" class="node">
<title>Node6</title>
<g id="a_Node000006"><a xlink:href="../../d3/dde/Vector3D_8hpp.html" target="_top" xlink:title="Defines a 3D vector structure with basic arithmetic and transformation operations.">
<polygon fill="white" stroke="#666666" points="98.5,-74 16.5,-74 16.5,-55 98.5,-55 98.5,-74"/>
<text text-anchor="middle" x="57.5" y="-62" font-family="Helvetica,sans-Serif" font-size="10.00">Vector3D.hpp</text>
</a>
</g>
</g>
<!-- Node4&#45;&gt;Node6 -->
<g id="edge8_Node000004_Node000006" class="edge">
<title>Node4&#45;&gt;Node6</title>
<g id="a_edge8_Node000004_Node000006"><a xlink:title=" ">
<path fill="none" stroke="#63b8ff" d="M78.89,-164.7C73.65,-156 66.12,-142.13 62.5,-129 58.5,-114.47 57.34,-97.42 57.13,-84.64"/>
<polygon fill="#63b8ff" stroke="#63b8ff" points="60.63,-84.32 57.15,-74.31 53.63,-84.3 60.63,-84.32"/>
</a>
</g>
</g>
<!-- Node5&#45;&gt;Node6 -->
<g id="edge5_Node000005_Node000006" class="edge">
<title>Node5&#45;&gt;Node6</title>
<g id="a_edge5_Node000005_Node000006"><a xlink:title=" ">
<path fill="none" stroke="#63b8ff" d="M115.41,-109.98C105.01,-102 89.24,-89.88 76.78,-80.31"/>
<polygon fill="#63b8ff" stroke="#63b8ff" points="78.85,-77.49 68.79,-74.17 74.59,-83.04 78.85,-77.49"/>
</a>
</g>
</g>
<!-- Node7 -->
<g id="Node000007" class="node">
<title>Node7</title>
<g id="a_Node000007"><a xlink:title=" ">
<polygon fill="#e0e0e0" stroke="#999999" points="115,-19 68,-19 68,0 115,0 115,-19"/>
<text text-anchor="middle" x="91.5" y="-7" font-family="Helvetica,sans-Serif" font-size="10.00">cmath</text>
</a>
</g>
</g>
<!-- Node5&#45;&gt;Node7 -->
<g id="edge7_Node000005_Node000007" class="edge">
<title>Node5&#45;&gt;Node7</title>
<g id="a_edge7_Node000005_Node000007"><a xlink:title=" ">
<path fill="none" stroke="#63b8ff" d="M124.07,-109.83C120.59,-97.56 113.9,-74.46 107.5,-55 104.64,-46.32 101.25,-36.79 98.32,-28.77"/>
<polygon fill="#63b8ff" stroke="#63b8ff" points="101.58,-27.48 94.83,-19.32 95.01,-29.91 101.58,-27.48"/>
</a>
</g>
</g>
<!-- Node6&#45;&gt;Node7 -->
<g id="edge6_Node000006_Node000007" class="edge">
<title>Node6&#45;&gt;Node7</title>
<g id="a_edge6_Node000006_Node000007"><a xlink:title=" ">
<path fill="none" stroke="#63b8ff" d="M63.11,-54.75C67.82,-47.42 74.67,-36.73 80.47,-27.7"/>
<polygon fill="#63b8ff" stroke="#63b8ff" points="83.54,-29.4 85.99,-19.09 77.64,-25.62 83.54,-29.4"/>
</a>
</g>
</g>
</g>
</svg>
