<?xml version="1.0" encoding="UTF-8" standalone="no"?>
<!DOCTYPE svg PUBLIC "-//W3C//DTD SVG 1.1//EN"
 "http://www.w3.org/Graphics/SVG/1.1/DTD/svg11.dtd">
<!-- Generated by graphviz version 2.43.0 (0)
 -->
<!-- Title: RayTracer::NoiseTexture Pages: 1 -->
<svg width="260pt" height="93pt"
 viewBox="0.00 0.00 259.50 93.00" xmlns="http://www.w3.org/2000/svg" xmlns:xlink="http://www.w3.org/1999/xlink">
<g id="graph0" class="graph" transform="scale(1 1) rotate(0) translate(4 89)">
<title>RayTracer::NoiseTexture</title>
<!-- Node1 -->
<g id="Node000001" class="node">
<title>Node1</title>
<g id="a_Node000001"><a xlink:title=" ">
<polygon fill="#999999" stroke="#666666" points="187.5,-19 53.5,-19 53.5,0 187.5,0 187.5,-19"/>
<text text-anchor="middle" x="120.5" y="-7" font-family="Helvetica,sans-Serif" font-size="10.00">RayTracer::NoiseTexture</text>
</a>
</g>
</g>
<!-- Node2 -->
<g id="Node000002" class="node">
<title>Node2</title>
<g id="a_Node000002"><a xlink:href="../../d8/da7/structRayTracer_1_1Texture.html" target="_top" xlink:title="Abstract interface for UV&#45;mapped colour sources.">
<polygon fill="white" stroke="#666666" points="107,-85 0,-85 0,-66 107,-66 107,-85"/>
<text text-anchor="middle" x="53.5" y="-73" font-family="Helvetica,sans-Serif" font-size="10.00">RayTracer::Texture</text>
</a>
</g>
</g>
<!-- Node2&#45;&gt;Node1 -->
<g id="edge1_Node000001_Node000002" class="edge">
<title>Node2&#45;&gt;Node1</title>
<g id="a_edge1_Node000001_Node000002"><a xlink:title=" ">
<path fill="none" stroke="#63b8ff" d="M69.9,-58.83C82.88,-46.44 100.52,-29.59 111.18,-19.41"/>
<polygon fill="#63b8ff" stroke="#63b8ff" points="67.35,-56.43 62.54,-65.87 72.18,-61.49 67.35,-56.43"/>
</a>
</g>
</g>
<!-- Node3 -->
<g id="Node000003" class="node">
<title>Node3</title>
<g id="a_Node000003"><a xlink:href="../../d6/d1a/classRayTracer_1_1PerlinNoise.html" target="_top" xlink:title=" ">
<polygon fill="white" stroke="#666666" points="251.5,-85 125.5,-85 125.5,-66 251.5,-66 251.5,-85"/>
<text text-anchor="middle" x="188.5" y="-73" font-family="Helvetica,sans-Serif" font-size="10.00">RayTracer::PerlinNoise</text>
</a>
</g>
</g>
<!-- Node3&#45;&gt;Node1 -->
<g id="edge2_Node000001_Node000003" class="edge">
<title>Node3&#45;&gt;Node1</title>
<g id="a_edge2_Node000001_Node000003"><a xlink:title=" ">
<path fill="none" stroke="#9a32cd" stroke-dasharray="5,2" d="M171.85,-58.83C158.69,-46.44 140.78,-29.59 129.96,-19.41"/>
<polygon fill="#9a32cd" stroke="#9a32cd" points="169.65,-61.56 179.33,-65.87 174.45,-56.47 169.65,-61.56"/>
</a>
</g>
<text text-anchor="middle" x="176" y="-40" font-family="Helvetica,sans-Serif" font-size="10.00" fill="grey"> _noise</text>
</g>
</g>
</svg>
