<?xml version="1.0" encoding="UTF-8" standalone="no"?>
<!DOCTYPE svg PUBLIC "-//W3C//DTD SVG 1.1//EN"
 "http://www.w3.org/Graphics/SVG/1.1/DTD/svg11.dtd">
<!-- Generated by graphviz version 2.43.0 (0)
 -->
<!-- Title: RayTracer::Scene::addObject Pages: 1 -->
<svg width="1020pt" height="360pt"
 viewBox="0.00 0.00 1020.00 360.00" xmlns="http://www.w3.org/2000/svg" xmlns:xlink="http://www.w3.org/1999/xlink">
<g id="graph0" class="graph" transform="scale(1 1) rotate(0) translate(4 356)">
<title>RayTracer::Scene::addObject</title>
<!-- Node1 -->
<g id="Node000001" class="node">
<title>Node1</title>
<g id="a_Node000001"><a xlink:title="Add a geometry object to the scene.">
<polygon fill="#999999" stroke="#666666" points="1012,-185 857,-185 857,-166 1012,-166 1012,-185"/>
<text text-anchor="middle" x="934.5" y="-173" font-family="Helvetica,sans-Serif" font-size="10.00">RayTracer::Scene::addObject</text>
</a>
</g>
</g>
<!-- Node2 -->
<g id="Node000002" class="node">
<title>Node2</title>
<g id="a_Node000002"><a xlink:href="../../d3/d79/SceneParser_8cpp.html#ad262901d3d20b2d0a15d937abb911dbd" target="_top" xlink:title=" ">
<polygon fill="white" stroke="#666666" points="807.5,-352 735.5,-352 735.5,-333 807.5,-333 807.5,-352"/>
<text text-anchor="middle" x="771.5" y="-340" font-family="Helvetica,sans-Serif" font-size="10.00">ParseBoxes</text>
</a>
</g>
</g>
<!-- Node1&#45;&gt;Node2 -->
<g id="edge1_Node000001_Node000002" class="edge">
<title>Node1&#45;&gt;Node2</title>
<g id="a_edge1_Node000001_Node000002"><a xlink:title=" ">
<path fill="none" stroke="#63b8ff" d="M924.17,-193.91C907.52,-225.03 869.81,-288.18 821,-324.5 816.46,-327.88 811.22,-330.68 805.89,-332.99"/>
<polygon fill="#63b8ff" stroke="#63b8ff" points="927.29,-195.49 928.82,-185.01 921.09,-192.25 927.29,-195.49"/>
</a>
</g>
</g>
<!-- Node8 -->
<g id="Node000008" class="node">
<title>Node8</title>
<g id="a_Node000008"><a xlink:href="../../d3/d79/SceneParser_8cpp.html#acadf69d0ff9684ba689927979b304f6a" target="_top" xlink:title=" ">
<polygon fill="white" stroke="#666666" points="808,-315 735,-315 735,-296 808,-296 808,-315"/>
<text text-anchor="middle" x="771.5" y="-303" font-family="Helvetica,sans-Serif" font-size="10.00">ParseCones</text>
</a>
</g>
</g>
<!-- Node1&#45;&gt;Node8 -->
<g id="edge8_Node000001_Node000008" class="edge">
<title>Node1&#45;&gt;Node8</title>
<g id="a_edge8_Node000001_Node000008"><a xlink:title=" ">
<path fill="none" stroke="#63b8ff" d="M919.79,-193.31C900.24,-217.62 862.14,-261.17 821,-287.5 815.86,-290.79 810.02,-293.61 804.23,-295.96"/>
<polygon fill="#63b8ff" stroke="#63b8ff" points="922.67,-195.3 926.12,-185.29 917.18,-190.97 922.67,-195.3"/>
</a>
</g>
</g>
<!-- Node9 -->
<g id="Node000009" class="node">
<title>Node9</title>
<g id="a_Node000009"><a xlink:href="../../d3/d79/SceneParser_8cpp.html#a58b4651708d2a5da5625f2412bd84bd7" target="_top" xlink:title=" ">
<polygon fill="white" stroke="#666666" points="816,-278 727,-278 727,-259 816,-259 816,-278"/>
<text text-anchor="middle" x="771.5" y="-266" font-family="Helvetica,sans-Serif" font-size="10.00">ParseCylinders</text>
</a>
</g>
</g>
<!-- Node1&#45;&gt;Node9 -->
<g id="edge10_Node000001_Node000009" class="edge">
<title>Node1&#45;&gt;Node9</title>
<g id="a_edge10_Node000001_Node000009"><a xlink:title=" ">
<path fill="none" stroke="#63b8ff" d="M913.08,-191.24C891.19,-207.59 855,-233.16 821,-250.5 814.92,-253.6 808.17,-256.45 801.7,-258.92"/>
<polygon fill="#63b8ff" stroke="#63b8ff" points="915.4,-193.87 921.27,-185.05 911.18,-188.29 915.4,-193.87"/>
</a>
</g>
</g>
<!-- Node10 -->
<g id="Node000010" class="node">
<title>Node10</title>
<g id="a_Node000010"><a xlink:href="../../d3/d79/SceneParser_8cpp.html#a1122aa28b0a7f73c44adaf6dca1d5750" target="_top" xlink:title=" ">
<polygon fill="white" stroke="#666666" points="811.5,-241 731.5,-241 731.5,-222 811.5,-222 811.5,-241"/>
<text text-anchor="middle" x="771.5" y="-229" font-family="Helvetica,sans-Serif" font-size="10.00">ParseMenger</text>
</a>
</g>
</g>
<!-- Node1&#45;&gt;Node10 -->
<g id="edge12_Node000001_Node000010" class="edge">
<title>Node1&#45;&gt;Node10</title>
<g id="a_edge12_Node000001_Node000010"><a xlink:title=" ">
<path fill="none" stroke="#63b8ff" d="M896.29,-188.44C866.82,-198.69 826.35,-212.77 799.82,-222"/>
<polygon fill="#63b8ff" stroke="#63b8ff" points="897.53,-191.72 905.82,-185.13 895.23,-185.11 897.53,-191.72"/>
</a>
</g>
</g>
<!-- Node11 -->
<g id="Node000011" class="node">
<title>Node11</title>
<g id="a_Node000011"><a xlink:href="../../d3/d79/SceneParser_8cpp.html#a26f05fcddd9c159c09c9cedc7bdf844a" target="_top" xlink:title=" ">
<polygon fill="white" stroke="#666666" points="811.5,-204 731.5,-204 731.5,-185 811.5,-185 811.5,-204"/>
<text text-anchor="middle" x="771.5" y="-192" font-family="Helvetica,sans-Serif" font-size="10.00">ParseMeshes</text>
</a>
</g>
</g>
<!-- Node1&#45;&gt;Node11 -->
<g id="edge14_Node000001_Node000011" class="edge">
<title>Node1&#45;&gt;Node11</title>
<g id="a_edge14_Node000001_Node000011"><a xlink:title=" ">
<path fill="none" stroke="#63b8ff" d="M846.56,-185.76C834.44,-187.19 822.51,-188.6 811.89,-189.85"/>
<polygon fill="#63b8ff" stroke="#63b8ff" points="847.25,-189.2 856.77,-184.55 846.43,-182.25 847.25,-189.2"/>
</a>
</g>
</g>
<!-- Node12 -->
<g id="Node000012" class="node">
<title>Node12</title>
<g id="a_Node000012"><a xlink:href="../../d3/d79/SceneParser_8cpp.html#a9d50142946b8423759ecbfa17c7edc79" target="_top" xlink:title=" ">
<polygon fill="white" stroke="#666666" points="809,-167 734,-167 734,-148 809,-148 809,-167"/>
<text text-anchor="middle" x="771.5" y="-155" font-family="Helvetica,sans-Serif" font-size="10.00">ParsePlanes</text>
</a>
</g>
</g>
<!-- Node1&#45;&gt;Node12 -->
<g id="edge16_Node000001_Node000012" class="edge">
<title>Node1&#45;&gt;Node12</title>
<g id="a_edge16_Node000001_Node000012"><a xlink:title=" ">
<path fill="none" stroke="#63b8ff" d="M846.7,-165.8C833.56,-164.33 820.64,-162.88 809.36,-161.62"/>
<polygon fill="#63b8ff" stroke="#63b8ff" points="846.45,-169.29 856.77,-166.92 847.22,-162.33 846.45,-169.29"/>
</a>
</g>
</g>
<!-- Node13 -->
<g id="Node000013" class="node">
<title>Node13</title>
<g id="a_Node000013"><a xlink:href="../../d3/d79/SceneParser_8cpp.html#a1113dafd3e97959e0e81c1d2fd42cd81" target="_top" xlink:title=" ">
<polygon fill="white" stroke="#666666" points="817,-130 726,-130 726,-111 817,-111 817,-130"/>
<text text-anchor="middle" x="771.5" y="-118" font-family="Helvetica,sans-Serif" font-size="10.00">ParseSierpinski</text>
</a>
</g>
</g>
<!-- Node1&#45;&gt;Node13 -->
<g id="edge18_Node000001_Node000013" class="edge">
<title>Node1&#45;&gt;Node13</title>
<g id="a_edge18_Node000001_Node000013"><a xlink:title=" ">
<path fill="none" stroke="#63b8ff" d="M895.62,-162.56C866.46,-152.6 826.83,-139.06 800.49,-130.06"/>
<polygon fill="#63b8ff" stroke="#63b8ff" points="894.86,-166 905.46,-165.92 897.12,-159.37 894.86,-166"/>
</a>
</g>
</g>
<!-- Node14 -->
<g id="Node000014" class="node">
<title>Node14</title>
<g id="a_Node000014"><a xlink:href="../../d3/d79/SceneParser_8cpp.html#aa379bf06dc8b31c936030d2fc900e73c" target="_top" xlink:title=" ">
<polygon fill="white" stroke="#666666" points="812.5,-93 730.5,-93 730.5,-74 812.5,-74 812.5,-93"/>
<text text-anchor="middle" x="771.5" y="-81" font-family="Helvetica,sans-Serif" font-size="10.00">ParseSpheres</text>
</a>
</g>
</g>
<!-- Node1&#45;&gt;Node14 -->
<g id="edge20_Node000001_Node000014" class="edge">
<title>Node1&#45;&gt;Node14</title>
<g id="a_edge20_Node000001_Node000014"><a xlink:title=" ">
<path fill="none" stroke="#63b8ff" d="M912.23,-159.83C890.17,-144.04 854.31,-119.61 821,-102.5 814.24,-99.03 806.7,-95.79 799.61,-93.01"/>
<polygon fill="#63b8ff" stroke="#63b8ff" points="910.37,-162.8 920.52,-165.83 914.47,-157.13 910.37,-162.8"/>
</a>
</g>
</g>
<!-- Node15 -->
<g id="Node000015" class="node">
<title>Node15</title>
<g id="a_Node000015"><a xlink:href="../../d3/d79/SceneParser_8cpp.html#abe09300f6764206d0215ca7b12403972" target="_top" xlink:title=" ">
<polygon fill="white" stroke="#666666" points="821,-56 722,-56 722,-37 821,-37 821,-56"/>
<text text-anchor="middle" x="771.5" y="-44" font-family="Helvetica,sans-Serif" font-size="10.00">ParseTangleCube</text>
</a>
</g>
</g>
<!-- Node1&#45;&gt;Node15 -->
<g id="edge22_Node000001_Node000015" class="edge">
<title>Node1&#45;&gt;Node15</title>
<g id="a_edge22_Node000001_Node000015"><a xlink:title=" ">
<path fill="none" stroke="#63b8ff" d="M919.65,-158.13C899.94,-134.4 861.66,-91.78 821,-65.5 815.3,-61.82 808.78,-58.66 802.41,-56.04"/>
<polygon fill="#63b8ff" stroke="#63b8ff" points="917.01,-160.43 926.04,-165.96 922.43,-156 917.01,-160.43"/>
</a>
</g>
</g>
<!-- Node16 -->
<g id="Node000016" class="node">
<title>Node16</title>
<g id="a_Node000016"><a xlink:href="../../d3/d79/SceneParser_8cpp.html#aa2d4ee6129dea0eeb1ad8100b5026239" target="_top" xlink:title=" ">
<polygon fill="white" stroke="#666666" points="805.5,-19 737.5,-19 737.5,0 805.5,0 805.5,-19"/>
<text text-anchor="middle" x="771.5" y="-7" font-family="Helvetica,sans-Serif" font-size="10.00">ParseTorus</text>
</a>
</g>
</g>
<!-- Node1&#45;&gt;Node16 -->
<g id="edge24_Node000001_Node000016" class="edge">
<title>Node1&#45;&gt;Node16</title>
<g id="a_edge24_Node000001_Node000016"><a xlink:title=" ">
<path fill="none" stroke="#63b8ff" d="M923.79,-156.99C906.82,-126.28 868.95,-64.61 821,-28.5 816.02,-24.75 810.19,-21.64 804.35,-19.09"/>
<polygon fill="#63b8ff" stroke="#63b8ff" points="920.72,-158.67 928.55,-165.8 926.88,-155.34 920.72,-158.67"/>
</a>
</g>
</g>
<!-- Node3 -->
<g id="Node000003" class="node">
<title>Node3</title>
<g id="a_Node000003"><a xlink:href="../../d1/df4/namespaceRayTracer.html#a4bbc9c3996d70f6a71cf4d185a4811d6" target="_top" xlink:title="Loads a single scene file (non&#45;recursive).">
<polygon fill="white" stroke="#666666" points="686,-185 565,-185 565,-166 686,-166 686,-185"/>
<text text-anchor="middle" x="625.5" y="-173" font-family="Helvetica,sans-Serif" font-size="10.00">RayTracer::loadScene</text>
</a>
</g>
</g>
<!-- Node2&#45;&gt;Node3 -->
<g id="edge2_Node000002_Node000003" class="edge">
<title>Node2&#45;&gt;Node3</title>
<g id="a_edge2_Node000002_Node000003"><a xlink:title=" ">
<path fill="none" stroke="#63b8ff" d="M726.99,-328.06C725.25,-326.95 723.57,-325.77 722,-324.5 672.23,-284.41 640.29,-211.1 630.06,-185.02"/>
<polygon fill="#63b8ff" stroke="#63b8ff" points="725.66,-331.31 736.12,-332.95 728.96,-325.14 725.66,-331.31"/>
</a>
</g>
</g>
<!-- Node4 -->
<g id="Node000004" class="node">
<title>Node4</title>
<g id="a_Node000004"><a xlink:href="../../d1/df4/namespaceRayTracer.html#a9aa92d0c88c2ac9be33f27ba71e8ceaa" target="_top" xlink:title="Recursively loads a scene and any referenced sub&#45;scenes from file(s).">
<polygon fill="white" stroke="#666666" points="529,-185 360,-185 360,-166 529,-166 529,-185"/>
<text text-anchor="middle" x="444.5" y="-173" font-family="Helvetica,sans-Serif" font-size="10.00">RayTracer::loadSceneRecursive</text>
</a>
</g>
</g>
<!-- Node3&#45;&gt;Node4 -->
<g id="edge3_Node000003_Node000004" class="edge">
<title>Node3&#45;&gt;Node4</title>
<g id="a_edge3_Node000003_Node000004"><a xlink:title=" ">
<path fill="none" stroke="#63b8ff" d="M554.76,-175.5C546.34,-175.5 537.67,-175.5 529.08,-175.5"/>
<polygon fill="#63b8ff" stroke="#63b8ff" points="554.9,-179 564.9,-175.5 554.9,-172 554.9,-179"/>
</a>
</g>
</g>
<!-- Node4&#45;&gt;Node4 -->
<g id="edge7_Node000004_Node000004" class="edge">
<title>Node4&#45;&gt;Node4</title>
<g id="a_edge7_Node000004_Node000004"><a xlink:title=" ">
<path fill="none" stroke="#63b8ff" d="M478.18,-193.45C477.22,-198.82 465.99,-203 444.5,-203 412.51,-203 403.26,-193.73 416.76,-185.08"/>
<polygon fill="#63b8ff" stroke="#63b8ff" points="480.89,-191.21 472.24,-185.08 475.18,-195.26 480.89,-191.21"/>
</a>
</g>
</g>
<!-- Node5 -->
<g id="Node000005" class="node">
<title>Node5</title>
<g id="a_Node000005"><a xlink:href="../../d4/d3d/namespaceUtils.html#a763a2a5523575e2175022d2623a77d05" target="_top" xlink:title="Loads a scene from file, or exits on failure.">
<polygon fill="white" stroke="#666666" points="324,-185 199,-185 199,-166 324,-166 324,-185"/>
<text text-anchor="middle" x="261.5" y="-173" font-family="Helvetica,sans-Serif" font-size="10.00">Utils::loadSceneOrExit</text>
</a>
</g>
</g>
<!-- Node4&#45;&gt;Node5 -->
<g id="edge4_Node000004_Node000005" class="edge">
<title>Node4&#45;&gt;Node5</title>
<g id="a_edge4_Node000004_Node000005"><a xlink:title=" ">
<path fill="none" stroke="#63b8ff" d="M349.71,-175.5C341.04,-175.5 332.4,-175.5 324.13,-175.5"/>
<polygon fill="#63b8ff" stroke="#63b8ff" points="349.89,-179 359.89,-175.5 349.89,-172 349.89,-179"/>
</a>
</g>
</g>
<!-- Node6 -->
<g id="Node000006" class="node">
<title>Node6</title>
<g id="a_Node000006"><a xlink:href="../../dd/dea/classRaytracer.html#a844a5a660abbb9d21608fc170074e0c5" target="_top" xlink:title="Launch the raytracing process.">
<polygon fill="white" stroke="#666666" points="163,-185 77,-185 77,-166 163,-166 163,-185"/>
<text text-anchor="middle" x="120" y="-173" font-family="Helvetica,sans-Serif" font-size="10.00">Raytracer::run</text>
</a>
</g>
</g>
<!-- Node5&#45;&gt;Node6 -->
<g id="edge5_Node000005_Node000006" class="edge">
<title>Node5&#45;&gt;Node6</title>
<g id="a_edge5_Node000005_Node000006"><a xlink:title=" ">
<path fill="none" stroke="#63b8ff" d="M188.64,-175.5C179.88,-175.5 171.17,-175.5 163.05,-175.5"/>
<polygon fill="#63b8ff" stroke="#63b8ff" points="188.91,-179 198.91,-175.5 188.91,-172 188.91,-179"/>
</a>
</g>
</g>
<!-- Node7 -->
<g id="Node000007" class="node">
<title>Node7</title>
<g id="a_Node000007"><a xlink:href="../../df/d0a/main_8cpp.html#a0ddf1224851353fc92bfbff6f499fa97" target="_top" xlink:title="Raimond is a good Raytracer. Logic, it&#39;s Raimond.">
<polygon fill="white" stroke="#666666" points="41,-185 0,-185 0,-166 41,-166 41,-185"/>
<text text-anchor="middle" x="20.5" y="-173" font-family="Helvetica,sans-Serif" font-size="10.00">main</text>
</a>
</g>
</g>
<!-- Node6&#45;&gt;Node7 -->
<g id="edge6_Node000006_Node000007" class="edge">
<title>Node6&#45;&gt;Node7</title>
<g id="a_edge6_Node000006_Node000007"><a xlink:title=" ">
<path fill="none" stroke="#63b8ff" d="M66.52,-175.5C57.42,-175.5 48.5,-175.5 41.03,-175.5"/>
<polygon fill="#63b8ff" stroke="#63b8ff" points="66.8,-179 76.8,-175.5 66.8,-172 66.8,-179"/>
</a>
</g>
</g>
<!-- Node8&#45;&gt;Node3 -->
<g id="edge9_Node000008_Node000003" class="edge">
<title>Node8&#45;&gt;Node3</title>
<g id="a_edge9_Node000008_Node000003"><a xlink:title=" ">
<path fill="none" stroke="#63b8ff" d="M728.62,-291.59C726.32,-290.32 724.09,-288.96 722,-287.5 680.11,-258.22 645.39,-206.33 632.2,-185.03"/>
<polygon fill="#63b8ff" stroke="#63b8ff" points="727.25,-294.81 737.78,-295.98 730.28,-288.5 727.25,-294.81"/>
</a>
</g>
</g>
<!-- Node9&#45;&gt;Node3 -->
<g id="edge11_Node000009_Node000003" class="edge">
<title>Node9&#45;&gt;Node3</title>
<g id="a_edge11_Node000009_Node000003"><a xlink:title=" ">
<path fill="none" stroke="#63b8ff" d="M730.98,-255.03C727.89,-253.61 724.86,-252.1 722,-250.5 687.97,-231.44 653.25,-200.76 636.61,-185.21"/>
<polygon fill="#63b8ff" stroke="#63b8ff" points="729.78,-258.32 740.35,-258.97 732.49,-251.86 729.78,-258.32"/>
</a>
</g>
</g>
<!-- Node10&#45;&gt;Node3 -->
<g id="edge13_Node000010_Node000003" class="edge">
<title>Node10&#45;&gt;Node3</title>
<g id="a_edge13_Node000010_Node000003"><a xlink:title=" ">
<path fill="none" stroke="#63b8ff" d="M735.05,-218.45C730.65,-216.8 726.22,-215.12 722,-213.5 697.35,-204.02 669.28,-192.8 649.99,-185.02"/>
<polygon fill="#63b8ff" stroke="#63b8ff" points="733.94,-221.77 744.53,-221.99 736.39,-215.22 733.94,-221.77"/>
</a>
</g>
</g>
<!-- Node11&#45;&gt;Node3 -->
<g id="edge15_Node000011_Node000003" class="edge">
<title>Node11&#45;&gt;Node3</title>
<g id="a_edge15_Node000011_Node000003"><a xlink:title=" ">
<path fill="none" stroke="#63b8ff" d="M721.07,-187.98C709.8,-186.49 697.71,-184.9 686.07,-183.36"/>
<polygon fill="#63b8ff" stroke="#63b8ff" points="720.78,-191.47 731.15,-189.31 721.7,-184.53 720.78,-191.47"/>
</a>
</g>
</g>
<!-- Node12&#45;&gt;Node3 -->
<g id="edge17_Node000012_Node000003" class="edge">
<title>Node12&#45;&gt;Node3</title>
<g id="a_edge17_Node000012_Node000003"><a xlink:title=" ">
<path fill="none" stroke="#63b8ff" d="M723.58,-163.36C711.62,-164.86 698.59,-166.49 686.08,-168.05"/>
<polygon fill="#63b8ff" stroke="#63b8ff" points="724.3,-166.8 733.79,-162.09 723.43,-159.86 724.3,-166.8"/>
</a>
</g>
</g>
<!-- Node13&#45;&gt;Node3 -->
<g id="edge19_Node000013_Node000003" class="edge">
<title>Node13&#45;&gt;Node3</title>
<g id="a_edge19_Node000013_Node000003"><a xlink:title=" ">
<path fill="none" stroke="#63b8ff" d="M735.96,-133.69C710.04,-143.59 675.14,-156.92 651.78,-165.84"/>
<polygon fill="#63b8ff" stroke="#63b8ff" points="737.32,-136.92 745.42,-130.08 734.83,-130.38 737.32,-136.92"/>
</a>
</g>
</g>
<!-- Node14&#45;&gt;Node3 -->
<g id="edge21_Node000014_Node000003" class="edge">
<title>Node14&#45;&gt;Node3</title>
<g id="a_edge21_Node000014_Node000003"><a xlink:title=" ">
<path fill="none" stroke="#63b8ff" d="M732.87,-97.02C729.13,-98.73 725.45,-100.56 722,-102.5 688.54,-121.35 653.85,-150.81 636.97,-165.9"/>
<polygon fill="#63b8ff" stroke="#63b8ff" points="734.36,-100.19 742.19,-93.06 731.61,-93.75 734.36,-100.19"/>
</a>
</g>
</g>
<!-- Node15&#45;&gt;Node3 -->
<g id="edge23_Node000015_Node000003" class="edge">
<title>Node15&#45;&gt;Node3</title>
<g id="a_edge23_Node000015_Node000003"><a xlink:title=" ">
<path fill="none" stroke="#63b8ff" d="M730.5,-60.32C727.53,-61.9 724.66,-63.62 722,-65.5 680.88,-94.52 645.98,-144.89 632.48,-165.88"/>
<polygon fill="#63b8ff" stroke="#63b8ff" points="732.05,-63.46 739.6,-56.02 729.06,-57.13 732.05,-63.46"/>
</a>
</g>
</g>
<!-- Node16&#45;&gt;Node3 -->
<g id="edge25_Node000016_Node000003" class="edge">
<title>Node16&#45;&gt;Node3</title>
<g id="a_edge25_Node000016_Node000003"><a xlink:title=" ">
<path fill="none" stroke="#63b8ff" d="M728.59,-23.87C726.27,-25.28 724.05,-26.82 722,-28.5 673.17,-68.31 640.87,-139.85 630.29,-165.78"/>
<polygon fill="#63b8ff" stroke="#63b8ff" points="730.66,-26.74 737.91,-19.02 727.42,-20.53 730.66,-26.74"/>
</a>
</g>
</g>
</g>
</svg>
