<?xml version="1.0" encoding="UTF-8" standalone="no"?>
<!DOCTYPE svg PUBLIC "-//W3C//DTD SVG 1.1//EN"
 "http://www.w3.org/Graphics/SVG/1.1/DTD/svg11.dtd">
<!-- Generated by graphviz version 2.43.0 (0)
 -->
<!-- Title: src/geoTransf/Shear.cpp Pages: 1 -->
<svg width="817pt" height="478pt"
 viewBox="0.00 0.00 817.00 478.00" xmlns="http://www.w3.org/2000/svg" xmlns:xlink="http://www.w3.org/1999/xlink">
<g id="graph0" class="graph" transform="scale(1 1) rotate(0) translate(4 474)">
<title>src/geoTransf/Shear.cpp</title>
<!-- Node1 -->
<g id="Node000001" class="node">
<title>Node1</title>
<g id="a_Node000001"><a xlink:title="Implements a geometric shear transformation applied to primitives.">
<polygon fill="#999999" stroke="#666666" points="775.5,-470 644.5,-470 644.5,-451 775.5,-451 775.5,-470"/>
<text text-anchor="middle" x="710" y="-458" font-family="Helvetica,sans-Serif" font-size="10.00">src/geoTransf/Shear.cpp</text>
</a>
</g>
</g>
<!-- Node2 -->
<g id="Node000002" class="node">
<title>Node2</title>
<g id="a_Node000002"><a xlink:href="../../d8/d44/Shear_8hpp.html" target="_top" xlink:title="Declares the geometric shear transformation primitive for raytracing scenes.">
<polygon fill="white" stroke="#666666" points="410,-415 290,-415 290,-385 410,-385 410,-415"/>
<text text-anchor="start" x="298" y="-403" font-family="Helvetica,sans-Serif" font-size="10.00">../../include/geoTransf</text>
<text text-anchor="middle" x="350" y="-392" font-family="Helvetica,sans-Serif" font-size="10.00">/Shear.hpp</text>
</a>
</g>
</g>
<!-- Node1&#45;&gt;Node2 -->
<g id="edge1_Node000001_Node000002" class="edge">
<title>Node1&#45;&gt;Node2</title>
<g id="a_edge1_Node000001_Node000002"><a xlink:title=" ">
<path fill="none" stroke="#63b8ff" d="M657.65,-450.99C595.02,-440.81 489.89,-423.73 420.23,-412.41"/>
<polygon fill="#63b8ff" stroke="#63b8ff" points="420.65,-408.94 410.22,-410.79 419.53,-415.84 420.65,-408.94"/>
</a>
</g>
</g>
<!-- Node8 -->
<g id="Node000008" class="node">
<title>Node8</title>
<g id="a_Node000008"><a xlink:title=" ">
<polygon fill="#e0e0e0" stroke="#999999" points="496.5,-19 449.5,-19 449.5,0 496.5,0 496.5,-19"/>
<text text-anchor="middle" x="473" y="-7" font-family="Helvetica,sans-Serif" font-size="10.00">cmath</text>
</a>
</g>
</g>
<!-- Node1&#45;&gt;Node8 -->
<g id="edge31_Node000001_Node000008" class="edge">
<title>Node1&#45;&gt;Node8</title>
<g id="a_edge31_Node000001_Node000008"><a xlink:title=" ">
<path fill="none" stroke="#63b8ff" d="M712.33,-450.91C717.4,-431.44 729,-382.34 729,-340.5 729,-340.5 729,-340.5 729,-118.5 729,-23.06 576.1,-10.64 506.63,-9.91"/>
<polygon fill="#63b8ff" stroke="#63b8ff" points="506.63,-6.41 496.62,-9.88 506.62,-13.41 506.63,-6.41"/>
</a>
</g>
</g>
<!-- Node16 -->
<g id="Node000016" class="node">
<title>Node16</title>
<g id="a_Node000016"><a xlink:title=" ">
<polygon fill="#e0e0e0" stroke="#999999" points="701,-294 637,-294 637,-275 701,-275 701,-294"/>
<text text-anchor="middle" x="669" y="-282" font-family="Helvetica,sans-Serif" font-size="10.00">algorithm</text>
</a>
</g>
</g>
<!-- Node1&#45;&gt;Node16 -->
<g id="edge30_Node000001_Node000016" class="edge">
<title>Node1&#45;&gt;Node16</title>
<g id="a_edge30_Node000001_Node000016"><a xlink:title=" ">
<path fill="none" stroke="#63b8ff" d="M707.91,-450.63C701.52,-423.52 682.15,-341.32 673.39,-304.13"/>
<polygon fill="#63b8ff" stroke="#63b8ff" points="676.74,-303.07 671.04,-294.14 669.92,-304.68 676.74,-303.07"/>
</a>
</g>
</g>
<!-- Node18 -->
<g id="Node000018" class="node">
<title>Node18</title>
<g id="a_Node000018"><a xlink:title=" ">
<polygon fill="#e0e0e0" stroke="#999999" points="809,-409.5 757,-409.5 757,-390.5 809,-390.5 809,-409.5"/>
<text text-anchor="middle" x="783" y="-397.5" font-family="Helvetica,sans-Serif" font-size="10.00">cassert</text>
</a>
</g>
</g>
<!-- Node1&#45;&gt;Node18 -->
<g id="edge32_Node000001_Node000018" class="edge">
<title>Node1&#45;&gt;Node18</title>
<g id="a_edge32_Node000001_Node000018"><a xlink:title=" ">
<path fill="none" stroke="#63b8ff" d="M720.77,-450.87C732.2,-441.71 750.48,-427.06 764.28,-416.01"/>
<polygon fill="#63b8ff" stroke="#63b8ff" points="766.57,-418.65 772.18,-409.67 762.19,-413.19 766.57,-418.65"/>
</a>
</g>
</g>
<!-- Node3 -->
<g id="Node000003" class="node">
<title>Node3</title>
<g id="a_Node000003"><a xlink:title=" ">
<polygon fill="#e0e0e0" stroke="#999999" points="58,-184 0,-184 0,-165 58,-165 58,-184"/>
<text text-anchor="middle" x="29" y="-172" font-family="Helvetica,sans-Serif" font-size="10.00">memory</text>
</a>
</g>
</g>
<!-- Node2&#45;&gt;Node3 -->
<g id="edge2_Node000002_Node000003" class="edge">
<title>Node2&#45;&gt;Node3</title>
<g id="a_edge2_Node000002_Node000003"><a xlink:title=" ">
<path fill="none" stroke="#63b8ff" d="M289.92,-393.58C222.37,-384.38 113.58,-359.71 48,-294 21.72,-267.66 22.86,-220.41 25.95,-194.23"/>
<polygon fill="#63b8ff" stroke="#63b8ff" points="29.44,-194.53 27.37,-184.14 22.51,-193.55 29.44,-194.53"/>
</a>
</g>
</g>
<!-- Node4 -->
<g id="Node000004" class="node">
<title>Node4</title>
<g id="a_Node000004"><a xlink:href="../../de/d81/APrimitive_8hpp.html" target="_top" xlink:title=" ">
<polygon fill="white" stroke="#666666" points="449.5,-294 336.5,-294 336.5,-275 449.5,-275 449.5,-294"/>
<text text-anchor="middle" x="393" y="-282" font-family="Helvetica,sans-Serif" font-size="10.00">core/APrimitive.hpp</text>
</a>
</g>
</g>
<!-- Node2&#45;&gt;Node4 -->
<g id="edge3_Node000002_Node000004" class="edge">
<title>Node2&#45;&gt;Node4</title>
<g id="a_edge3_Node000002_Node000004"><a xlink:title=" ">
<path fill="none" stroke="#63b8ff" d="M356.31,-384.66C360.62,-374.72 366.36,-361.13 371,-349 376.74,-334 382.67,-316.77 386.92,-304.04"/>
<polygon fill="#63b8ff" stroke="#63b8ff" points="390.37,-304.78 390.19,-294.19 383.72,-302.59 390.37,-304.78"/>
</a>
</g>
</g>
<!-- Node14 -->
<g id="Node000014" class="node">
<title>Node14</title>
<g id="a_Node000014"><a xlink:href="../../d9/dad/BVH_8hpp.html" target="_top" xlink:title="Declares the axis&#45;aligned bounding box (AABB) and the BVH node used for ray&#45;tracing acceleration.">
<polygon fill="white" stroke="#666666" points="362,-349 254,-349 254,-330 362,-330 362,-349"/>
<text text-anchor="middle" x="308" y="-337" font-family="Helvetica,sans-Serif" font-size="10.00">rendering/BVH.hpp</text>
</a>
</g>
</g>
<!-- Node2&#45;&gt;Node14 -->
<g id="edge21_Node000002_Node000014" class="edge">
<title>Node2&#45;&gt;Node14</title>
<g id="a_edge21_Node000002_Node000014"><a xlink:title=" ">
<path fill="none" stroke="#63b8ff" d="M339.83,-384.84C333.92,-376.61 326.44,-366.18 320.21,-357.51"/>
<polygon fill="#63b8ff" stroke="#63b8ff" points="322.97,-355.35 314.29,-349.27 317.28,-359.43 322.97,-355.35"/>
</a>
</g>
</g>
<!-- Node5 -->
<g id="Node000005" class="node">
<title>Node5</title>
<g id="a_Node000005"><a xlink:href="../../d4/db2/Ray_8hpp.html" target="_top" xlink:title="Defines the Ray structure used for ray&#45;object intersection tests in the raytracer.">
<polygon fill="white" stroke="#666666" points="473.5,-184 394.5,-184 394.5,-165 473.5,-165 473.5,-184"/>
<text text-anchor="middle" x="434" y="-172" font-family="Helvetica,sans-Serif" font-size="10.00">core/Ray.hpp</text>
</a>
</g>
</g>
<!-- Node4&#45;&gt;Node5 -->
<g id="edge4_Node000004_Node000005" class="edge">
<title>Node4&#45;&gt;Node5</title>
<g id="a_edge4_Node000004_Node000005"><a xlink:title=" ">
<path fill="none" stroke="#63b8ff" d="M403.55,-274.86C412.66,-266.7 425.24,-253.55 431,-239 436.66,-224.71 437.05,-207.19 436.23,-194.17"/>
<polygon fill="#63b8ff" stroke="#63b8ff" points="439.7,-193.72 435.3,-184.08 432.73,-194.36 439.7,-193.72"/>
</a>
</g>
</g>
<!-- Node6 -->
<g id="Node000006" class="node">
<title>Node6</title>
<g id="a_Node000006"><a xlink:href="../../df/df2/Point3D_8hpp.html" target="_top" xlink:title="Defines a 3D point structure used in geometric computations.">
<polygon fill="white" stroke="#666666" points="511,-129 435,-129 435,-110 511,-110 511,-129"/>
<text text-anchor="middle" x="473" y="-117" font-family="Helvetica,sans-Serif" font-size="10.00">Point3D.hpp</text>
</a>
</g>
</g>
<!-- Node4&#45;&gt;Node6 -->
<g id="edge10_Node000004_Node000006" class="edge">
<title>Node4&#45;&gt;Node6</title>
<g id="a_edge10_Node000004_Node000006"><a xlink:title=" ">
<path fill="none" stroke="#63b8ff" d="M449.76,-278.68C502.44,-272.88 575.31,-261.06 593,-239 626.86,-196.78 549.25,-153.75 503.5,-133.09"/>
<polygon fill="#63b8ff" stroke="#63b8ff" points="504.84,-129.85 494.27,-129.03 502.02,-136.26 504.84,-129.85"/>
</a>
</g>
</g>
<!-- Node7 -->
<g id="Node000007" class="node">
<title>Node7</title>
<g id="a_Node000007"><a xlink:href="../../d3/dde/Vector3D_8hpp.html" target="_top" xlink:title="Defines a 3D vector structure with basic arithmetic and transformation operations.">
<polygon fill="white" stroke="#666666" points="345,-74 263,-74 263,-55 345,-55 345,-74"/>
<text text-anchor="middle" x="304" y="-62" font-family="Helvetica,sans-Serif" font-size="10.00">Vector3D.hpp</text>
</a>
</g>
</g>
<!-- Node4&#45;&gt;Node7 -->
<g id="edge12_Node000004_Node000007" class="edge">
<title>Node4&#45;&gt;Node7</title>
<g id="a_edge12_Node000004_Node000007"><a xlink:title=" ">
<path fill="none" stroke="#63b8ff" d="M336.33,-281.58C270.32,-278.01 167.17,-267.85 143,-239 133.44,-227.59 89.36,-181.24 144,-110 157.33,-92.62 211.22,-80.19 252.81,-72.96"/>
<polygon fill="#63b8ff" stroke="#63b8ff" points="253.54,-76.39 262.82,-71.28 252.38,-69.49 253.54,-76.39"/>
</a>
</g>
</g>
<!-- Node9 -->
<g id="Node000009" class="node">
<title>Node9</title>
<g id="a_Node000009"><a xlink:href="../../d8/d1e/Vector2D_8hpp.html" target="_top" xlink:title="Defines a 2D vector structure used for texture coordinates or screen&#45;space math operations.">
<polygon fill="white" stroke="#666666" points="584,-239 478,-239 478,-220 584,-220 584,-239"/>
<text text-anchor="middle" x="531" y="-227" font-family="Helvetica,sans-Serif" font-size="10.00">core/Vector2D.hpp</text>
</a>
</g>
</g>
<!-- Node4&#45;&gt;Node9 -->
<g id="edge11_Node000004_Node000009" class="edge">
<title>Node4&#45;&gt;Node9</title>
<g id="a_edge11_Node000004_Node000009"><a xlink:title=" ">
<path fill="none" stroke="#63b8ff" d="M415.17,-274.98C437.77,-266.3 473.06,-252.75 498.75,-242.88"/>
<polygon fill="#63b8ff" stroke="#63b8ff" points="500.34,-246.02 508.42,-239.17 497.83,-239.49 500.34,-246.02"/>
</a>
</g>
</g>
<!-- Node10 -->
<g id="Node000010" class="node">
<title>Node10</title>
<g id="a_Node000010"><a xlink:href="../../d0/d70/Material_8hpp.html" target="_top" xlink:title="Declares the physically&#45;based material descriptor used by the renderer.">
<polygon fill="white" stroke="#666666" points="280,-239 152,-239 152,-220 280,-220 280,-239"/>
<text text-anchor="middle" x="216" y="-227" font-family="Helvetica,sans-Serif" font-size="10.00">rendering/Material.hpp</text>
</a>
</g>
</g>
<!-- Node4&#45;&gt;Node10 -->
<g id="edge13_Node000004_Node000010" class="edge">
<title>Node4&#45;&gt;Node10</title>
<g id="a_edge13_Node000004_Node000010"><a xlink:title=" ">
<path fill="none" stroke="#63b8ff" d="M364.56,-274.98C334.72,-266.05 287.62,-251.94 254.47,-242.02"/>
<polygon fill="#63b8ff" stroke="#63b8ff" points="255.24,-238.6 244.66,-239.08 253.24,-245.3 255.24,-238.6"/>
</a>
</g>
</g>
<!-- Node13 -->
<g id="Node000013" class="node">
<title>Node13</title>
<g id="a_Node000013"><a xlink:href="../../d0/d38/IPrimitive_8hpp.html" target="_top" xlink:title="Interface for geometric primitives in the raytracer.">
<polygon fill="white" stroke="#666666" points="421.5,-239 336.5,-239 336.5,-220 421.5,-220 421.5,-239"/>
<text text-anchor="middle" x="379" y="-227" font-family="Helvetica,sans-Serif" font-size="10.00">IPrimitive.hpp</text>
</a>
</g>
</g>
<!-- Node4&#45;&gt;Node13 -->
<g id="edge19_Node000004_Node000013" class="edge">
<title>Node4&#45;&gt;Node13</title>
<g id="a_edge19_Node000004_Node000013"><a xlink:title=" ">
<path fill="none" stroke="#63b8ff" d="M390.69,-274.75C388.83,-267.72 386.16,-257.62 383.85,-248.84"/>
<polygon fill="#63b8ff" stroke="#63b8ff" points="387.21,-247.86 381.27,-239.09 380.44,-249.65 387.21,-247.86"/>
</a>
</g>
</g>
<!-- Node5&#45;&gt;Node6 -->
<g id="edge5_Node000005_Node000006" class="edge">
<title>Node5&#45;&gt;Node6</title>
<g id="a_edge5_Node000005_Node000006"><a xlink:title=" ">
<path fill="none" stroke="#63b8ff" d="M440.44,-164.75C445.89,-157.34 453.86,-146.5 460.56,-137.41"/>
<polygon fill="#63b8ff" stroke="#63b8ff" points="463.57,-139.22 466.68,-129.09 457.93,-135.07 463.57,-139.22"/>
</a>
</g>
</g>
<!-- Node5&#45;&gt;Node7 -->
<g id="edge9_Node000005_Node000007" class="edge">
<title>Node5&#45;&gt;Node7</title>
<g id="a_edge9_Node000005_Node000007"><a xlink:title=" ">
<path fill="none" stroke="#63b8ff" d="M423.36,-164.66C401.16,-146.22 349.67,-103.45 322.14,-80.57"/>
<polygon fill="#63b8ff" stroke="#63b8ff" points="324.35,-77.86 314.42,-74.16 319.88,-83.24 324.35,-77.86"/>
</a>
</g>
</g>
<!-- Node6&#45;&gt;Node7 -->
<g id="edge6_Node000006_Node000007" class="edge">
<title>Node6&#45;&gt;Node7</title>
<g id="a_edge6_Node000006_Node000007"><a xlink:title=" ">
<path fill="none" stroke="#63b8ff" d="M445.85,-109.98C417.47,-101.09 372.77,-87.07 341.14,-77.15"/>
<polygon fill="#63b8ff" stroke="#63b8ff" points="341.95,-73.73 331.37,-74.08 339.86,-80.41 341.95,-73.73"/>
</a>
</g>
</g>
<!-- Node6&#45;&gt;Node8 -->
<g id="edge8_Node000006_Node000008" class="edge">
<title>Node6&#45;&gt;Node8</title>
<g id="a_edge8_Node000006_Node000008"><a xlink:title=" ">
<path fill="none" stroke="#63b8ff" d="M473,-109.66C473,-92.17 473,-52.8 473,-29.27"/>
<polygon fill="#63b8ff" stroke="#63b8ff" points="476.5,-29.16 473,-19.16 469.5,-29.16 476.5,-29.16"/>
</a>
</g>
</g>
<!-- Node7&#45;&gt;Node8 -->
<g id="edge7_Node000007_Node000008" class="edge">
<title>Node7&#45;&gt;Node8</title>
<g id="a_edge7_Node000007_Node000008"><a xlink:title=" ">
<path fill="none" stroke="#63b8ff" d="M331.15,-54.98C360.7,-45.72 407.97,-30.89 439.73,-20.93"/>
<polygon fill="#63b8ff" stroke="#63b8ff" points="440.96,-24.22 449.46,-17.88 438.87,-17.54 440.96,-24.22"/>
</a>
</g>
</g>
<!-- Node10&#45;&gt;Node3 -->
<g id="edge15_Node000010_Node000003" class="edge">
<title>Node10&#45;&gt;Node3</title>
<g id="a_edge15_Node000010_Node000003"><a xlink:title=" ">
<path fill="none" stroke="#63b8ff" d="M185.96,-219.98C153.91,-210.9 103.04,-196.49 67.95,-186.54"/>
<polygon fill="#63b8ff" stroke="#63b8ff" points="68.62,-183.09 58.05,-183.73 66.71,-189.83 68.62,-183.09"/>
</a>
</g>
</g>
<!-- Node10&#45;&gt;Node7 -->
<g id="edge16_Node000010_Node000007" class="edge">
<title>Node10&#45;&gt;Node7</title>
<g id="a_edge16_Node000010_Node000007"><a xlink:title=" ">
<path fill="none" stroke="#63b8ff" d="M223.5,-219.77C237.44,-203.15 267.5,-165.37 285,-129 291.95,-114.56 296.96,-97.05 300.08,-84.07"/>
<polygon fill="#63b8ff" stroke="#63b8ff" points="303.56,-84.56 302.35,-74.03 296.73,-83.02 303.56,-84.56"/>
</a>
</g>
</g>
<!-- Node11 -->
<g id="Node000011" class="node">
<title>Node11</title>
<g id="a_Node000011"><a xlink:title=" ">
<polygon fill="#e0e0e0" stroke="#999999" points="376,-184 332,-184 332,-165 376,-165 376,-184"/>
<text text-anchor="middle" x="354" y="-172" font-family="Helvetica,sans-Serif" font-size="10.00">string</text>
</a>
</g>
</g>
<!-- Node10&#45;&gt;Node11 -->
<g id="edge14_Node000010_Node000011" class="edge">
<title>Node10&#45;&gt;Node11</title>
<g id="a_edge14_Node000010_Node000011"><a xlink:title=" ">
<path fill="none" stroke="#63b8ff" d="M238.17,-219.98C260.91,-211.25 296.48,-197.59 322.21,-187.71"/>
<polygon fill="#63b8ff" stroke="#63b8ff" points="323.8,-190.85 331.88,-183.99 321.29,-184.31 323.8,-190.85"/>
</a>
</g>
</g>
<!-- Node12 -->
<g id="Node000012" class="node">
<title>Node12</title>
<g id="a_Node000012"><a xlink:href="../../d0/ddc/Texture_8hpp.html" target="_top" xlink:title="Declares the abstract base class for all 2&#45;D textures. (Solid colour, checkerboard,...">
<polygon fill="white" stroke="#666666" points="275.5,-129 152.5,-129 152.5,-110 275.5,-110 275.5,-129"/>
<text text-anchor="middle" x="214" y="-117" font-family="Helvetica,sans-Serif" font-size="10.00">rendering/Texture.hpp</text>
</a>
</g>
</g>
<!-- Node10&#45;&gt;Node12 -->
<g id="edge17_Node000010_Node000012" class="edge">
<title>Node10&#45;&gt;Node12</title>
<g id="a_edge17_Node000010_Node000012"><a xlink:title=" ">
<path fill="none" stroke="#63b8ff" d="M215.84,-219.66C215.51,-202.17 214.78,-162.8 214.35,-139.27"/>
<polygon fill="#63b8ff" stroke="#63b8ff" points="217.84,-139.09 214.16,-129.16 210.85,-139.22 217.84,-139.09"/>
</a>
</g>
</g>
<!-- Node12&#45;&gt;Node7 -->
<g id="edge18_Node000012_Node000007" class="edge">
<title>Node12&#45;&gt;Node7</title>
<g id="a_edge18_Node000012_Node000007"><a xlink:title=" ">
<path fill="none" stroke="#63b8ff" d="M228.46,-109.98C242.42,-101.77 263.79,-89.18 280.25,-79.49"/>
<polygon fill="#63b8ff" stroke="#63b8ff" points="282.44,-82.26 289.28,-74.17 278.88,-76.23 282.44,-82.26"/>
</a>
</g>
</g>
<!-- Node13&#45;&gt;Node5 -->
<g id="edge20_Node000013_Node000005" class="edge">
<title>Node13&#45;&gt;Node5</title>
<g id="a_edge20_Node000013_Node000005"><a xlink:title=" ">
<path fill="none" stroke="#63b8ff" d="M388.08,-219.75C396.09,-212.03 407.96,-200.6 417.62,-191.28"/>
<polygon fill="#63b8ff" stroke="#63b8ff" points="420.31,-193.55 425.09,-184.09 415.46,-188.51 420.31,-193.55"/>
</a>
</g>
</g>
<!-- Node14&#45;&gt;Node3 -->
<g id="edge22_Node000014_Node000003" class="edge">
<title>Node14&#45;&gt;Node3</title>
<g id="a_edge22_Node000014_Node000003"><a xlink:title=" ">
<path fill="none" stroke="#63b8ff" d="M253.87,-334.9C191.52,-329.67 94.15,-317.89 67,-294 38.03,-268.52 30.99,-220.92 29.38,-194.47"/>
<polygon fill="#63b8ff" stroke="#63b8ff" points="32.86,-194.1 28.96,-184.25 25.87,-194.38 32.86,-194.1"/>
</a>
</g>
</g>
<!-- Node14&#45;&gt;Node4 -->
<g id="edge27_Node000014_Node000004" class="edge">
<title>Node14&#45;&gt;Node4</title>
<g id="a_edge27_Node000014_Node000004"><a xlink:title=" ">
<path fill="none" stroke="#63b8ff" d="M321.66,-329.98C334.84,-321.77 355.03,-309.18 370.57,-299.49"/>
<polygon fill="#63b8ff" stroke="#63b8ff" points="372.46,-302.43 379.09,-294.17 368.76,-296.49 372.46,-302.43"/>
</a>
</g>
</g>
<!-- Node14&#45;&gt;Node5 -->
<g id="edge26_Node000014_Node000005" class="edge">
<title>Node14&#45;&gt;Node5</title>
<g id="a_edge26_Node000014_Node000005"><a xlink:title=" ">
<path fill="none" stroke="#63b8ff" d="M306.87,-329.95C304.56,-308.8 301.56,-253.35 328,-220 341.96,-202.39 364.14,-191.66 384.61,-185.17"/>
<polygon fill="#63b8ff" stroke="#63b8ff" points="385.85,-188.46 394.48,-182.31 383.9,-181.73 385.85,-188.46"/>
</a>
</g>
</g>
<!-- Node14&#45;&gt;Node6 -->
<g id="edge28_Node000014_Node000006" class="edge">
<title>Node14&#45;&gt;Node6</title>
<g id="a_edge28_Node000014_Node000006"><a xlink:title=" ">
<path fill="none" stroke="#63b8ff" d="M362.18,-338.78C433.15,-335.84 555.11,-318.66 611,-239 626.55,-216.84 600.72,-178.19 587,-165 568.92,-147.62 543.28,-136.81 520.89,-130.2"/>
<polygon fill="#63b8ff" stroke="#63b8ff" points="521.77,-126.81 511.2,-127.53 519.92,-133.56 521.77,-126.81"/>
</a>
</g>
</g>
<!-- Node14&#45;&gt;Node7 -->
<g id="edge29_Node000014_Node000007" class="edge">
<title>Node14&#45;&gt;Node7</title>
<g id="a_edge29_Node000014_Node000007"><a xlink:title=" ">
<path fill="none" stroke="#63b8ff" d="M293.11,-329.9C271.59,-317.52 230.47,-294.08 195,-275 164.19,-258.43 146.32,-266.74 125,-239 104.7,-212.58 108.86,-198.06 113,-165 116.14,-139.97 109.14,-127.81 127,-110 144.57,-92.48 206.92,-79.74 252.66,-72.49"/>
<polygon fill="#63b8ff" stroke="#63b8ff" points="253.38,-75.92 262.73,-70.94 252.31,-69 253.38,-75.92"/>
</a>
</g>
</g>
<!-- Node15 -->
<g id="Node000015" class="node">
<title>Node15</title>
<g id="a_Node000015"><a xlink:title=" ">
<polygon fill="#e0e0e0" stroke="#999999" points="123.5,-294 76.5,-294 76.5,-275 123.5,-275 123.5,-294"/>
<text text-anchor="middle" x="100" y="-282" font-family="Helvetica,sans-Serif" font-size="10.00">vector</text>
</a>
</g>
</g>
<!-- Node14&#45;&gt;Node15 -->
<g id="edge23_Node000014_Node000015" class="edge">
<title>Node14&#45;&gt;Node15</title>
<g id="a_edge23_Node000014_Node000015"><a xlink:title=" ">
<path fill="none" stroke="#63b8ff" d="M274.44,-330C241.21,-321.57 188.59,-308.21 133.7,-294.17"/>
<polygon fill="#63b8ff" stroke="#63b8ff" points="134.35,-290.73 123.79,-291.64 132.61,-297.51 134.35,-290.73"/>
</a>
</g>
</g>
<!-- Node14&#45;&gt;Node16 -->
<g id="edge24_Node000014_Node000016" class="edge">
<title>Node14&#45;&gt;Node16</title>
<g id="a_edge24_Node000014_Node000016"><a xlink:title=" ">
<path fill="none" stroke="#63b8ff" d="M362.17,-331.56C425.02,-323.34 531.69,-308.88 623,-294 624.26,-293.79 625.54,-293.58 626.84,-293.36"/>
<polygon fill="#63b8ff" stroke="#63b8ff" points="627.61,-296.78 636.86,-291.62 626.41,-289.89 627.61,-296.78"/>
</a>
</g>
</g>
<!-- Node17 -->
<g id="Node000017" class="node">
<title>Node17</title>
<g id="a_Node000017"><a xlink:title=" ">
<polygon fill="#e0e0e0" stroke="#999999" points="186,-294 142,-294 142,-275 186,-275 186,-294"/>
<text text-anchor="middle" x="164" y="-282" font-family="Helvetica,sans-Serif" font-size="10.00">limits</text>
</a>
</g>
</g>
<!-- Node14&#45;&gt;Node17 -->
<g id="edge25_Node000014_Node000017" class="edge">
<title>Node14&#45;&gt;Node17</title>
<g id="a_edge25_Node000014_Node000017"><a xlink:title=" ">
<path fill="none" stroke="#63b8ff" d="M284.86,-329.98C260.75,-321.11 222.8,-307.14 195.87,-297.23"/>
<polygon fill="#63b8ff" stroke="#63b8ff" points="196.73,-293.82 186.13,-293.65 194.31,-300.38 196.73,-293.82"/>
</a>
</g>
</g>
</g>
</svg>
