<?xml version="1.0" encoding="UTF-8" standalone="no"?>
<!DOCTYPE svg PUBLIC "-//W3C//DTD SVG 1.1//EN"
 "http://www.w3.org/Graphics/SVG/1.1/DTD/svg11.dtd">
<!-- Generated by graphviz version 2.43.0 (0)
 -->
<!-- Title: include/primitives/TangleCube.hpp Pages: 1 -->
<svg width="865pt" height="423pt"
 viewBox="0.00 0.00 865.00 423.00" xmlns="http://www.w3.org/2000/svg" xmlns:xlink="http://www.w3.org/1999/xlink">
<g id="graph0" class="graph" transform="scale(1 1) rotate(0) translate(4 419)">
<title>include/primitives/TangleCube.hpp</title>
<!-- Node1 -->
<g id="Node000001" class="node">
<title>Node1</title>
<g id="a_Node000001"><a xlink:title="Declares the TangleCube implicit fractal surface primitive.">
<polygon fill="#999999" stroke="#666666" points="540,-415 436,-415 436,-385 540,-385 540,-415"/>
<text text-anchor="start" x="444" y="-403" font-family="Helvetica,sans-Serif" font-size="10.00">include/primitives</text>
<text text-anchor="middle" x="488" y="-392" font-family="Helvetica,sans-Serif" font-size="10.00">/TangleCube.hpp</text>
</a>
</g>
</g>
<!-- Node2 -->
<g id="Node000002" class="node">
<title>Node2</title>
<g id="a_Node000002"><a xlink:href="../../de/d81/APrimitive_8hpp.html" target="_top" xlink:title=" ">
<polygon fill="white" stroke="#666666" points="332.5,-294 219.5,-294 219.5,-275 332.5,-275 332.5,-294"/>
<text text-anchor="middle" x="276" y="-282" font-family="Helvetica,sans-Serif" font-size="10.00">core/APrimitive.hpp</text>
</a>
</g>
</g>
<!-- Node1&#45;&gt;Node2 -->
<g id="edge1_Node000001_Node000002" class="edge">
<title>Node1&#45;&gt;Node2</title>
<g id="a_edge1_Node000001_Node000002"><a xlink:title=" ">
<path fill="none" stroke="#63b8ff" d="M435.96,-385.83C408.38,-377.57 374.59,-365.36 347,-349 325.12,-336.03 303.9,-315.72 290.45,-301.57"/>
<polygon fill="#63b8ff" stroke="#63b8ff" points="292.85,-299.01 283.48,-294.06 287.71,-303.77 292.85,-299.01"/>
</a>
</g>
</g>
<!-- Node3 -->
<g id="Node000003" class="node">
<title>Node3</title>
<g id="a_Node000003"><a xlink:href="../../d4/db2/Ray_8hpp.html" target="_top" xlink:title="Defines the Ray structure used for ray&#45;object intersection tests in the raytracer.">
<polygon fill="white" stroke="#666666" points="421.5,-184 342.5,-184 342.5,-165 421.5,-165 421.5,-184"/>
<text text-anchor="middle" x="382" y="-172" font-family="Helvetica,sans-Serif" font-size="10.00">core/Ray.hpp</text>
</a>
</g>
</g>
<!-- Node1&#45;&gt;Node3 -->
<g id="edge21_Node000001_Node000003" class="edge">
<title>Node1&#45;&gt;Node3</title>
<g id="a_edge21_Node000001_Node000003"><a xlink:title=" ">
<path fill="none" stroke="#63b8ff" d="M463.16,-384.84C449.97,-376.11 434.56,-363.77 425,-349 393.21,-299.91 414.2,-276.48 399,-220 396.61,-211.12 393.09,-201.55 389.87,-193.57"/>
<polygon fill="#63b8ff" stroke="#63b8ff" points="393.03,-192.06 385.93,-184.19 386.57,-194.76 393.03,-192.06"/>
</a>
</g>
</g>
<!-- Node4 -->
<g id="Node000004" class="node">
<title>Node4</title>
<g id="a_Node000004"><a xlink:href="../../df/df2/Point3D_8hpp.html" target="_top" xlink:title="Defines a 3D point structure used in geometric computations.">
<polygon fill="white" stroke="#666666" points="162,-129 86,-129 86,-110 162,-110 162,-129"/>
<text text-anchor="middle" x="124" y="-117" font-family="Helvetica,sans-Serif" font-size="10.00">Point3D.hpp</text>
</a>
</g>
</g>
<!-- Node1&#45;&gt;Node4 -->
<g id="edge19_Node000001_Node000004" class="edge">
<title>Node1&#45;&gt;Node4</title>
<g id="a_edge19_Node000001_Node000004"><a xlink:title=" ">
<path fill="none" stroke="#63b8ff" d="M435.78,-397.84C309.88,-393.62 0,-374.22 0,-285.5 0,-285.5 0,-285.5 0,-228.5 0,-180.54 53.39,-149.02 90.11,-133.01"/>
<polygon fill="#63b8ff" stroke="#63b8ff" points="91.62,-136.17 99.5,-129.09 88.92,-129.71 91.62,-136.17"/>
</a>
</g>
</g>
<!-- Node5 -->
<g id="Node000005" class="node">
<title>Node5</title>
<g id="a_Node000005"><a xlink:href="../../d3/dde/Vector3D_8hpp.html" target="_top" xlink:title="Defines a 3D vector structure with basic arithmetic and transformation operations.">
<polygon fill="white" stroke="#666666" points="499,-74 417,-74 417,-55 499,-55 499,-74"/>
<text text-anchor="middle" x="458" y="-62" font-family="Helvetica,sans-Serif" font-size="10.00">Vector3D.hpp</text>
</a>
</g>
</g>
<!-- Node1&#45;&gt;Node5 -->
<g id="edge20_Node000001_Node000005" class="edge">
<title>Node1&#45;&gt;Node5</title>
<g id="a_edge20_Node000001_Node000005"><a xlink:title=" ">
<path fill="none" stroke="#63b8ff" d="M540.31,-399.54C619.58,-397.31 761,-380.07 761,-285.5 761,-285.5 761,-285.5 761,-173.5 761,-131.82 729.23,-128.72 692,-110 633.71,-80.69 558.39,-70.6 509.17,-67.18"/>
<polygon fill="#63b8ff" stroke="#63b8ff" points="509.27,-63.68 499.07,-66.55 508.84,-70.67 509.27,-63.68"/>
</a>
</g>
</g>
<!-- Node8 -->
<g id="Node000008" class="node">
<title>Node8</title>
<g id="a_Node000008"><a xlink:href="../../d0/d70/Material_8hpp.html" target="_top" xlink:title="Declares the physically&#45;based material descriptor used by the renderer.">
<polygon fill="white" stroke="#666666" points="655,-239 527,-239 527,-220 655,-220 655,-239"/>
<text text-anchor="middle" x="591" y="-227" font-family="Helvetica,sans-Serif" font-size="10.00">rendering/Material.hpp</text>
</a>
</g>
</g>
<!-- Node1&#45;&gt;Node8 -->
<g id="edge22_Node000001_Node000008" class="edge">
<title>Node1&#45;&gt;Node8</title>
<g id="a_edge22_Node000001_Node000008"><a xlink:title=" ">
<path fill="none" stroke="#63b8ff" d="M535.47,-384.88C576.88,-369.75 634.38,-341.3 661,-294 673.01,-272.67 647.24,-254.63 623.66,-243.3"/>
<polygon fill="#63b8ff" stroke="#63b8ff" points="625.03,-240.07 614.47,-239.14 622.14,-246.45 625.03,-240.07"/>
</a>
</g>
</g>
<!-- Node13 -->
<g id="Node000013" class="node">
<title>Node13</title>
<g id="a_Node000013"><a xlink:href="../../d9/dad/BVH_8hpp.html" target="_top" xlink:title="Declares the axis&#45;aligned bounding box (AABB) and the BVH node used for ray&#45;tracing acceleration.">
<polygon fill="white" stroke="#666666" points="542,-349 434,-349 434,-330 542,-330 542,-349"/>
<text text-anchor="middle" x="488" y="-337" font-family="Helvetica,sans-Serif" font-size="10.00">rendering/BVH.hpp</text>
</a>
</g>
</g>
<!-- Node1&#45;&gt;Node13 -->
<g id="edge23_Node000001_Node000013" class="edge">
<title>Node1&#45;&gt;Node13</title>
<g id="a_edge23_Node000001_Node000013"><a xlink:title=" ">
<path fill="none" stroke="#63b8ff" d="M488,-384.84C488,-377.21 488,-367.7 488,-359.45"/>
<polygon fill="#63b8ff" stroke="#63b8ff" points="491.5,-359.27 488,-349.27 484.5,-359.27 491.5,-359.27"/>
</a>
</g>
</g>
<!-- Node17 -->
<g id="Node000017" class="node">
<title>Node17</title>
<g id="a_Node000017"><a xlink:title=" ">
<polygon fill="#e0e0e0" stroke="#999999" points="857,-349 789,-349 789,-330 857,-330 857,-349"/>
<text text-anchor="middle" x="823" y="-337" font-family="Helvetica,sans-Serif" font-size="10.00">complex.h</text>
</a>
</g>
</g>
<!-- Node1&#45;&gt;Node17 -->
<g id="edge32_Node000001_Node000017" class="edge">
<title>Node1&#45;&gt;Node17</title>
<g id="a_edge32_Node000001_Node000017"><a xlink:title=" ">
<path fill="none" stroke="#63b8ff" d="M540.12,-389.97C597.63,-379.98 692.93,-363.42 775,-349 776.27,-348.78 777.55,-348.55 778.85,-348.32"/>
<polygon fill="#63b8ff" stroke="#63b8ff" points="779.67,-351.73 788.91,-346.55 778.46,-344.84 779.67,-351.73"/>
</a>
</g>
</g>
<!-- Node2&#45;&gt;Node3 -->
<g id="edge2_Node000002_Node000003" class="edge">
<title>Node2&#45;&gt;Node3</title>
<g id="a_edge2_Node000002_Node000003"><a xlink:title=" ">
<path fill="none" stroke="#63b8ff" d="M276.65,-274.69C278.06,-261.4 282.46,-236.1 296,-220 308.3,-205.37 326.64,-194.96 343.22,-187.91"/>
<polygon fill="#63b8ff" stroke="#63b8ff" points="344.72,-191.08 352.73,-184.13 342.14,-184.57 344.72,-191.08"/>
</a>
</g>
</g>
<!-- Node2&#45;&gt;Node4 -->
<g id="edge8_Node000002_Node000004" class="edge">
<title>Node2&#45;&gt;Node4</title>
<g id="a_edge8_Node000002_Node000004"><a xlink:title=" ">
<path fill="none" stroke="#63b8ff" d="M219.09,-277.15C171.94,-270.57 110.27,-258.48 95,-239 71.48,-209 95.37,-162.6 111.63,-137.7"/>
<polygon fill="#63b8ff" stroke="#63b8ff" points="114.63,-139.52 117.37,-129.28 108.85,-135.57 114.63,-139.52"/>
</a>
</g>
</g>
<!-- Node2&#45;&gt;Node5 -->
<g id="edge10_Node000002_Node000005" class="edge">
<title>Node2&#45;&gt;Node5</title>
<g id="a_edge10_Node000002_Node000005"><a xlink:title=" ">
<path fill="none" stroke="#63b8ff" d="M274.9,-274.83C273.68,-262.17 272.83,-238.15 281,-220 311.89,-151.32 390.28,-101.35 431.6,-78.82"/>
<polygon fill="#63b8ff" stroke="#63b8ff" points="433.35,-81.85 440.54,-74.06 430.06,-75.67 433.35,-81.85"/>
</a>
</g>
</g>
<!-- Node7 -->
<g id="Node000007" class="node">
<title>Node7</title>
<g id="a_Node000007"><a xlink:href="../../d8/d1e/Vector2D_8hpp.html" target="_top" xlink:title="Defines a 2D vector structure used for texture coordinates or screen&#45;space math operations.">
<polygon fill="white" stroke="#666666" points="210,-239 104,-239 104,-220 210,-220 210,-239"/>
<text text-anchor="middle" x="157" y="-227" font-family="Helvetica,sans-Serif" font-size="10.00">core/Vector2D.hpp</text>
</a>
</g>
</g>
<!-- Node2&#45;&gt;Node7 -->
<g id="edge9_Node000002_Node000007" class="edge">
<title>Node2&#45;&gt;Node7</title>
<g id="a_edge9_Node000002_Node000007"><a xlink:title=" ">
<path fill="none" stroke="#63b8ff" d="M256.88,-274.98C237.65,-266.42 207.77,-253.11 185.69,-243.28"/>
<polygon fill="#63b8ff" stroke="#63b8ff" points="187.03,-240.04 176.47,-239.17 184.18,-246.44 187.03,-240.04"/>
</a>
</g>
</g>
<!-- Node2&#45;&gt;Node8 -->
<g id="edge11_Node000002_Node000008" class="edge">
<title>Node2&#45;&gt;Node8</title>
<g id="a_edge11_Node000002_Node000008"><a xlink:title=" ">
<path fill="none" stroke="#63b8ff" d="M326.61,-274.98C382.1,-265.65 471.09,-250.67 530.29,-240.71"/>
<polygon fill="#63b8ff" stroke="#63b8ff" points="530.97,-244.15 540.25,-239.04 529.81,-237.25 530.97,-244.15"/>
</a>
</g>
</g>
<!-- Node12 -->
<g id="Node000012" class="node">
<title>Node12</title>
<g id="a_Node000012"><a xlink:href="../../d0/d38/IPrimitive_8hpp.html" target="_top" xlink:title="Interface for geometric primitives in the raytracer.">
<polygon fill="white" stroke="#666666" points="389.5,-239 304.5,-239 304.5,-220 389.5,-220 389.5,-239"/>
<text text-anchor="middle" x="347" y="-227" font-family="Helvetica,sans-Serif" font-size="10.00">IPrimitive.hpp</text>
</a>
</g>
</g>
<!-- Node2&#45;&gt;Node12 -->
<g id="edge17_Node000002_Node000012" class="edge">
<title>Node2&#45;&gt;Node12</title>
<g id="a_edge17_Node000002_Node000012"><a xlink:title=" ">
<path fill="none" stroke="#63b8ff" d="M287.41,-274.98C298.11,-267 314.34,-254.88 327.16,-245.31"/>
<polygon fill="#63b8ff" stroke="#63b8ff" points="329.47,-247.96 335.39,-239.17 325.28,-242.35 329.47,-247.96"/>
</a>
</g>
</g>
<!-- Node3&#45;&gt;Node4 -->
<g id="edge3_Node000003_Node000004" class="edge">
<title>Node3&#45;&gt;Node4</title>
<g id="a_edge3_Node000003_Node000004"><a xlink:title=" ">
<path fill="none" stroke="#63b8ff" d="M342.25,-165.33C296.46,-155.93 221.24,-140.48 172.16,-130.39"/>
<polygon fill="#63b8ff" stroke="#63b8ff" points="172.61,-126.91 162.11,-128.33 171.2,-133.77 172.61,-126.91"/>
</a>
</g>
</g>
<!-- Node3&#45;&gt;Node5 -->
<g id="edge7_Node000003_Node000005" class="edge">
<title>Node3&#45;&gt;Node5</title>
<g id="a_edge7_Node000003_Node000005"><a xlink:title=" ">
<path fill="none" stroke="#63b8ff" d="M388.22,-164.66C400.86,-146.69 429.75,-105.64 446.12,-82.38"/>
<polygon fill="#63b8ff" stroke="#63b8ff" points="449.01,-84.35 451.91,-74.16 443.29,-80.32 449.01,-84.35"/>
</a>
</g>
</g>
<!-- Node4&#45;&gt;Node5 -->
<g id="edge4_Node000004_Node000005" class="edge">
<title>Node4&#45;&gt;Node5</title>
<g id="a_edge4_Node000004_Node000005"><a xlink:title=" ">
<path fill="none" stroke="#63b8ff" d="M162.31,-112.42C222.54,-102.86 339.41,-84.32 406.78,-73.63"/>
<polygon fill="#63b8ff" stroke="#63b8ff" points="407.42,-77.07 416.75,-72.05 406.32,-70.16 407.42,-77.07"/>
</a>
</g>
</g>
<!-- Node6 -->
<g id="Node000006" class="node">
<title>Node6</title>
<g id="a_Node000006"><a xlink:title=" ">
<polygon fill="#e0e0e0" stroke="#999999" points="393.5,-19 346.5,-19 346.5,0 393.5,0 393.5,-19"/>
<text text-anchor="middle" x="370" y="-7" font-family="Helvetica,sans-Serif" font-size="10.00">cmath</text>
</a>
</g>
</g>
<!-- Node4&#45;&gt;Node6 -->
<g id="edge6_Node000004_Node000006" class="edge">
<title>Node4&#45;&gt;Node6</title>
<g id="a_edge6_Node000004_Node000006"><a xlink:title=" ">
<path fill="none" stroke="#63b8ff" d="M143.72,-109.84C187,-90.84 290.53,-45.39 341.15,-23.17"/>
<polygon fill="#63b8ff" stroke="#63b8ff" points="342.78,-26.27 350.53,-19.05 339.97,-19.86 342.78,-26.27"/>
</a>
</g>
</g>
<!-- Node5&#45;&gt;Node6 -->
<g id="edge5_Node000005_Node000006" class="edge">
<title>Node5&#45;&gt;Node6</title>
<g id="a_edge5_Node000005_Node000006"><a xlink:title=" ">
<path fill="none" stroke="#63b8ff" d="M443.86,-54.98C430.21,-46.77 409.31,-34.18 393.22,-24.49"/>
<polygon fill="#63b8ff" stroke="#63b8ff" points="394.77,-21.33 384.4,-19.17 391.16,-27.33 394.77,-21.33"/>
</a>
</g>
</g>
<!-- Node8&#45;&gt;Node5 -->
<g id="edge14_Node000008_Node000005" class="edge">
<title>Node8&#45;&gt;Node5</title>
<g id="a_edge14_Node000008_Node000005"><a xlink:title=" ">
<path fill="none" stroke="#63b8ff" d="M585.87,-220C573.55,-199.86 540.78,-148.13 507,-110 497.69,-99.49 486.1,-88.87 476.53,-80.65"/>
<polygon fill="#63b8ff" stroke="#63b8ff" points="478.65,-77.86 468.75,-74.1 474.15,-83.21 478.65,-77.86"/>
</a>
</g>
</g>
<!-- Node9 -->
<g id="Node000009" class="node">
<title>Node9</title>
<g id="a_Node000009"><a xlink:title=" ">
<polygon fill="#e0e0e0" stroke="#999999" points="641,-184 597,-184 597,-165 641,-165 641,-184"/>
<text text-anchor="middle" x="619" y="-172" font-family="Helvetica,sans-Serif" font-size="10.00">string</text>
</a>
</g>
</g>
<!-- Node8&#45;&gt;Node9 -->
<g id="edge12_Node000008_Node000009" class="edge">
<title>Node8&#45;&gt;Node9</title>
<g id="a_edge12_Node000008_Node000009"><a xlink:title=" ">
<path fill="none" stroke="#63b8ff" d="M595.62,-219.75C599.46,-212.49 605.02,-201.95 609.76,-192.98"/>
<polygon fill="#63b8ff" stroke="#63b8ff" points="612.89,-194.57 614.46,-184.09 606.7,-191.3 612.89,-194.57"/>
</a>
</g>
</g>
<!-- Node10 -->
<g id="Node000010" class="node">
<title>Node10</title>
<g id="a_Node000010"><a xlink:title=" ">
<polygon fill="#e0e0e0" stroke="#999999" points="717,-184 659,-184 659,-165 717,-165 717,-184"/>
<text text-anchor="middle" x="688" y="-172" font-family="Helvetica,sans-Serif" font-size="10.00">memory</text>
</a>
</g>
</g>
<!-- Node8&#45;&gt;Node10 -->
<g id="edge13_Node000008_Node000010" class="edge">
<title>Node8&#45;&gt;Node10</title>
<g id="a_edge13_Node000008_Node000010"><a xlink:title=" ">
<path fill="none" stroke="#63b8ff" d="M606.58,-219.98C621.77,-211.69 645.1,-198.94 662.9,-189.22"/>
<polygon fill="#63b8ff" stroke="#63b8ff" points="665.03,-192.04 672.13,-184.17 661.68,-185.89 665.03,-192.04"/>
</a>
</g>
</g>
<!-- Node11 -->
<g id="Node000011" class="node">
<title>Node11</title>
<g id="a_Node000011"><a xlink:href="../../d0/ddc/Texture_8hpp.html" target="_top" xlink:title="Declares the abstract base class for all 2&#45;D textures. (Solid colour, checkerboard,...">
<polygon fill="white" stroke="#666666" points="682.5,-129 559.5,-129 559.5,-110 682.5,-110 682.5,-129"/>
<text text-anchor="middle" x="621" y="-117" font-family="Helvetica,sans-Serif" font-size="10.00">rendering/Texture.hpp</text>
</a>
</g>
</g>
<!-- Node8&#45;&gt;Node11 -->
<g id="edge15_Node000008_Node000011" class="edge">
<title>Node8&#45;&gt;Node11</title>
<g id="a_edge15_Node000008_Node000011"><a xlink:title=" ">
<path fill="none" stroke="#63b8ff" d="M588.62,-219.6C585.7,-207.07 581.84,-183.65 588,-165 591.46,-154.54 598.43,-144.53 605.08,-136.66"/>
<polygon fill="#63b8ff" stroke="#63b8ff" points="607.86,-138.8 611.98,-129.04 602.67,-134.1 607.86,-138.8"/>
</a>
</g>
</g>
<!-- Node11&#45;&gt;Node5 -->
<g id="edge16_Node000011_Node000005" class="edge">
<title>Node11&#45;&gt;Node5</title>
<g id="a_edge16_Node000011_Node000005"><a xlink:title=" ">
<path fill="none" stroke="#63b8ff" d="M594.81,-109.98C567.56,-101.13 524.7,-87.19 494.22,-77.28"/>
<polygon fill="#63b8ff" stroke="#63b8ff" points="494.99,-73.85 484.39,-74.08 492.82,-80.5 494.99,-73.85"/>
</a>
</g>
</g>
<!-- Node12&#45;&gt;Node3 -->
<g id="edge18_Node000012_Node000003" class="edge">
<title>Node12&#45;&gt;Node3</title>
<g id="a_edge18_Node000012_Node000003"><a xlink:title=" ">
<path fill="none" stroke="#63b8ff" d="M352.78,-219.75C357.62,-212.42 364.68,-201.73 370.64,-192.7"/>
<polygon fill="#63b8ff" stroke="#63b8ff" points="373.74,-194.36 376.33,-184.09 367.9,-190.5 373.74,-194.36"/>
</a>
</g>
</g>
<!-- Node13&#45;&gt;Node2 -->
<g id="edge29_Node000013_Node000002" class="edge">
<title>Node13&#45;&gt;Node2</title>
<g id="a_edge29_Node000013_Node000002"><a xlink:title=" ">
<path fill="none" stroke="#63b8ff" d="M453.94,-329.98C417.58,-320.89 359.83,-306.46 320.03,-296.51"/>
<polygon fill="#63b8ff" stroke="#63b8ff" points="320.88,-293.11 310.33,-294.08 319.18,-299.9 320.88,-293.11"/>
</a>
</g>
</g>
<!-- Node13&#45;&gt;Node3 -->
<g id="edge28_Node000013_Node000003" class="edge">
<title>Node13&#45;&gt;Node3</title>
<g id="a_edge28_Node000013_Node000003"><a xlink:title=" ">
<path fill="none" stroke="#63b8ff" d="M463.53,-329.86C447.73,-322.85 428.41,-311.27 419,-294 403.02,-264.68 445.67,-250.47 432,-220 426.5,-207.74 415.77,-197.48 405.65,-189.91"/>
<polygon fill="#63b8ff" stroke="#63b8ff" points="407.64,-187.03 397.43,-184.2 403.65,-192.78 407.64,-187.03"/>
</a>
</g>
</g>
<!-- Node13&#45;&gt;Node4 -->
<g id="edge30_Node000013_Node000004" class="edge">
<title>Node13&#45;&gt;Node4</title>
<g id="a_edge30_Node000013_Node000004"><a xlink:title=" ">
<path fill="none" stroke="#63b8ff" d="M433.85,-334.04C332.61,-324.37 121.4,-297.48 83,-239 76.67,-229.36 72.11,-199.71 86,-165 90.36,-154.11 98.52,-143.98 106.16,-136.15"/>
<polygon fill="#63b8ff" stroke="#63b8ff" points="108.68,-138.59 113.48,-129.15 103.84,-133.54 108.68,-138.59"/>
</a>
</g>
</g>
<!-- Node13&#45;&gt;Node5 -->
<g id="edge31_Node000013_Node000005" class="edge">
<title>Node13&#45;&gt;Node5</title>
<g id="a_edge31_Node000013_Node000005"><a xlink:title=" ">
<path fill="none" stroke="#63b8ff" d="M542.41,-333.06C591.73,-325.84 653.14,-309.68 628,-275 597.81,-233.35 554.68,-275.07 518,-239 474.31,-196.03 462.4,-119.74 459.18,-84.42"/>
<polygon fill="#63b8ff" stroke="#63b8ff" points="462.65,-83.82 458.39,-74.12 455.67,-84.35 462.65,-83.82"/>
</a>
</g>
</g>
<!-- Node13&#45;&gt;Node10 -->
<g id="edge24_Node000013_Node000010" class="edge">
<title>Node13&#45;&gt;Node10</title>
<g id="a_edge24_Node000013_Node000010"><a xlink:title=" ">
<path fill="none" stroke="#63b8ff" d="M542.32,-330.8C586.66,-323.42 644.57,-310.9 661,-294 687.27,-266.99 690.03,-220 689.29,-194.05"/>
<polygon fill="#63b8ff" stroke="#63b8ff" points="692.79,-193.86 688.8,-184.04 685.8,-194.2 692.79,-193.86"/>
</a>
</g>
</g>
<!-- Node14 -->
<g id="Node000014" class="node">
<title>Node14</title>
<g id="a_Node000014"><a xlink:title=" ">
<polygon fill="#e0e0e0" stroke="#999999" points="474.5,-294 427.5,-294 427.5,-275 474.5,-275 474.5,-294"/>
<text text-anchor="middle" x="451" y="-282" font-family="Helvetica,sans-Serif" font-size="10.00">vector</text>
</a>
</g>
</g>
<!-- Node13&#45;&gt;Node14 -->
<g id="edge25_Node000013_Node000014" class="edge">
<title>Node13&#45;&gt;Node14</title>
<g id="a_edge25_Node000013_Node000014"><a xlink:title=" ">
<path fill="none" stroke="#63b8ff" d="M481.89,-329.75C476.72,-322.34 469.15,-311.5 462.81,-302.41"/>
<polygon fill="#63b8ff" stroke="#63b8ff" points="465.59,-300.29 457,-294.09 459.85,-304.29 465.59,-300.29"/>
</a>
</g>
</g>
<!-- Node15 -->
<g id="Node000015" class="node">
<title>Node15</title>
<g id="a_Node000015"><a xlink:title=" ">
<polygon fill="#e0e0e0" stroke="#999999" points="557,-294 493,-294 493,-275 557,-275 557,-294"/>
<text text-anchor="middle" x="525" y="-282" font-family="Helvetica,sans-Serif" font-size="10.00">algorithm</text>
</a>
</g>
</g>
<!-- Node13&#45;&gt;Node15 -->
<g id="edge26_Node000013_Node000015" class="edge">
<title>Node13&#45;&gt;Node15</title>
<g id="a_edge26_Node000013_Node000015"><a xlink:title=" ">
<path fill="none" stroke="#63b8ff" d="M494.11,-329.75C499.28,-322.34 506.85,-311.5 513.19,-302.41"/>
<polygon fill="#63b8ff" stroke="#63b8ff" points="516.15,-304.29 519,-294.09 510.41,-300.29 516.15,-304.29"/>
</a>
</g>
</g>
<!-- Node16 -->
<g id="Node000016" class="node">
<title>Node16</title>
<g id="a_Node000016"><a xlink:title=" ">
<polygon fill="#e0e0e0" stroke="#999999" points="619,-294 575,-294 575,-275 619,-275 619,-294"/>
<text text-anchor="middle" x="597" y="-282" font-family="Helvetica,sans-Serif" font-size="10.00">limits</text>
</a>
</g>
</g>
<!-- Node13&#45;&gt;Node16 -->
<g id="edge27_Node000013_Node000016" class="edge">
<title>Node13&#45;&gt;Node16</title>
<g id="a_edge27_Node000013_Node000016"><a xlink:title=" ">
<path fill="none" stroke="#63b8ff" d="M505.51,-329.98C522.97,-321.5 550.01,-308.35 570.17,-298.54"/>
<polygon fill="#63b8ff" stroke="#63b8ff" points="571.71,-301.69 579.17,-294.17 568.64,-295.4 571.71,-301.69"/>
</a>
</g>
</g>
</g>
</svg>
