<?xml version="1.0" encoding="UTF-8" standalone="no"?>
<!DOCTYPE svg PUBLIC "-//W3C//DTD SVG 1.1//EN"
 "http://www.w3.org/Graphics/SVG/1.1/DTD/svg11.dtd">
<!-- Generated by graphviz version 2.43.0 (0)
 -->
<!-- Title: include/rendering/Camera.hpp Pages: 1 -->
<svg width="872pt" height="313pt"
 viewBox="0.00 0.00 872.32 313.00" xmlns="http://www.w3.org/2000/svg" xmlns:xlink="http://www.w3.org/1999/xlink">
<g id="graph0" class="graph" transform="scale(1 1) rotate(0) translate(4 309)">
<title>include/rendering/Camera.hpp</title>
<!-- Node1 -->
<g id="Node000001" class="node">
<title>Node1</title>
<g id="a_Node000001"><a xlink:title="Declares the pin&#45;hole / thin&#45;lens camera used by the ray tracer.">
<polygon fill="#999999" stroke="#666666" points="680.32,-305 516.32,-305 516.32,-286 680.32,-286 680.32,-305"/>
<text text-anchor="middle" x="598.32" y="-293" font-family="Helvetica,sans-Serif" font-size="10.00">include/rendering/Camera.hpp</text>
</a>
</g>
</g>
<!-- Node2 -->
<g id="Node000002" class="node">
<title>Node2</title>
<g id="a_Node000002"><a xlink:href="../../d7/d09/Utils_8hpp.html" target="_top" xlink:title="Utility functions and structures for raytracer configuration, rendering and post&#45;processing.">
<polygon fill="white" stroke="#666666" points="505.32,-129 383.32,-129 383.32,-110 505.32,-110 505.32,-129"/>
<text text-anchor="middle" x="444.32" y="-117" font-family="Helvetica,sans-Serif" font-size="10.00">include/core/Utils.hpp</text>
</a>
</g>
</g>
<!-- Node1&#45;&gt;Node2 -->
<g id="edge1_Node000001_Node000002" class="edge">
<title>Node1&#45;&gt;Node2</title>
<g id="a_edge1_Node000001_Node000002"><a xlink:title=" ">
<path fill="none" stroke="#63b8ff" d="M510.58,-284.7C408.92,-271.22 251.14,-243.02 218.32,-195 210.8,-183.99 209.86,-175.3 218.32,-165 228.82,-152.24 319.93,-137.41 383.21,-128.5"/>
<polygon fill="#63b8ff" stroke="#63b8ff" points="510.17,-288.17 520.54,-285.99 511.07,-281.23 510.17,-288.17"/>
</a>
</g>
</g>
<!-- Node6 -->
<g id="Node000006" class="node">
<title>Node6</title>
<g id="a_Node000006"><a xlink:href="../../d3/d79/SceneParser_8cpp.html" target="_top" xlink:title="Implements the scene loading system using libconfig for the raytracer engine.">
<polygon fill="white" stroke="#666666" points="716.32,-19 564.32,-19 564.32,0 716.32,0 716.32,-19"/>
<text text-anchor="middle" x="640.32" y="-7" font-family="Helvetica,sans-Serif" font-size="10.00">src/loaders/SceneParser.cpp</text>
</a>
</g>
</g>
<!-- Node1&#45;&gt;Node6 -->
<g id="edge26_Node000001_Node000006" class="edge">
<title>Node1&#45;&gt;Node6</title>
<g id="a_edge26_Node000001_Node000006"><a xlink:title=" ">
<path fill="none" stroke="#63b8ff" d="M622.38,-280.31C650.81,-261.51 694.32,-225.48 694.32,-181 694.32,-181 694.32,-181 694.32,-118.5 694.32,-77.62 662.99,-36.36 648.06,-19.01"/>
<polygon fill="#63b8ff" stroke="#63b8ff" points="620.31,-277.48 613.75,-285.8 624.06,-283.39 620.31,-277.48"/>
</a>
</g>
</g>
<!-- Node10 -->
<g id="Node000010" class="node">
<title>Node10</title>
<g id="a_Node000010"><a xlink:href="../../db/de8/Scene_8hpp.html" target="_top" xlink:title="Declares the scene container: camera, objects, lights, and top&#45;level BVH.">
<polygon fill="white" stroke="#666666" points="522.82,-250 367.82,-250 367.82,-231 522.82,-231 522.82,-250"/>
<text text-anchor="middle" x="445.32" y="-238" font-family="Helvetica,sans-Serif" font-size="10.00">include/rendering/Scene.hpp</text>
</a>
</g>
</g>
<!-- Node1&#45;&gt;Node10 -->
<g id="edge12_Node000001_Node000010" class="edge">
<title>Node1&#45;&gt;Node10</title>
<g id="a_edge12_Node000001_Node000010"><a xlink:title=" ">
<path fill="none" stroke="#63b8ff" d="M564.17,-282.67C535.64,-272.79 495.64,-258.93 470.1,-250.08"/>
<polygon fill="#63b8ff" stroke="#63b8ff" points="563.15,-286.02 573.74,-285.98 565.44,-279.4 563.15,-286.02"/>
</a>
</g>
</g>
<!-- Node16 -->
<g id="Node000016" class="node">
<title>Node16</title>
<g id="a_Node000016"><a xlink:href="../../da/d8c/Camera_8cpp.html" target="_top" xlink:title=" ">
<polygon fill="white" stroke="#666666" points="864.32,-250 722.32,-250 722.32,-231 864.32,-231 864.32,-250"/>
<text text-anchor="middle" x="793.32" y="-238" font-family="Helvetica,sans-Serif" font-size="10.00">src/rendering/Camera.cpp</text>
</a>
</g>
</g>
<!-- Node1&#45;&gt;Node16 -->
<g id="edge27_Node000001_Node000016" class="edge">
<title>Node1&#45;&gt;Node16</title>
<g id="a_edge27_Node000001_Node000016"><a xlink:title=" ">
<path fill="none" stroke="#63b8ff" d="M639.49,-283.31C675.98,-273.39 728.49,-259.12 761.75,-250.08"/>
<polygon fill="#63b8ff" stroke="#63b8ff" points="638.39,-279.98 629.65,-285.98 640.22,-286.74 638.39,-279.98"/>
</a>
</g>
</g>
<!-- Node3 -->
<g id="Node000003" class="node">
<title>Node3</title>
<g id="a_Node000003"><a xlink:href="../../d0/d3a/Raytracer_8hpp.html" target="_top" xlink:title="Declares the main Raytracer application class for program execution and argument handling.">
<polygon fill="white" stroke="#666666" points="552.32,-74 406.32,-74 406.32,-55 552.32,-55 552.32,-74"/>
<text text-anchor="middle" x="479.32" y="-62" font-family="Helvetica,sans-Serif" font-size="10.00">include/core/Raytracer.hpp</text>
</a>
</g>
</g>
<!-- Node2&#45;&gt;Node3 -->
<g id="edge2_Node000002_Node000003" class="edge">
<title>Node2&#45;&gt;Node3</title>
<g id="a_edge2_Node000002_Node000003"><a xlink:title=" ">
<path fill="none" stroke="#63b8ff" d="M449.6,-100.82C454.81,-91.82 462.19,-81.29 468.52,-74.09"/>
<polygon fill="#63b8ff" stroke="#63b8ff" points="446.46,-99.26 444.94,-109.75 452.66,-102.5 446.46,-99.26"/>
</a>
</g>
</g>
<!-- Node7 -->
<g id="Node000007" class="node">
<title>Node7</title>
<g id="a_Node000007"><a xlink:href="../../da/d7d/Visualizer_8hpp.html" target="_top" xlink:title=" ">
<polygon fill="white" stroke="#666666" points="268.82,-74 121.82,-74 121.82,-55 268.82,-55 268.82,-74"/>
<text text-anchor="middle" x="195.32" y="-62" font-family="Helvetica,sans-Serif" font-size="10.00">include/core/Visualizer.hpp</text>
</a>
</g>
</g>
<!-- Node2&#45;&gt;Node7 -->
<g id="edge7_Node000002_Node000007" class="edge">
<title>Node2&#45;&gt;Node7</title>
<g id="a_edge7_Node000002_Node000007"><a xlink:title=" ">
<path fill="none" stroke="#63b8ff" d="M394.42,-107.88C347.75,-97.94 278.93,-83.3 235.64,-74.08"/>
<polygon fill="#63b8ff" stroke="#63b8ff" points="393.81,-111.33 404.32,-109.98 395.27,-104.48 393.81,-111.33"/>
</a>
</g>
</g>
<!-- Node8 -->
<g id="Node000008" class="node">
<title>Node8</title>
<g id="a_Node000008"><a xlink:href="../../d7/dd9/Visualizer_8cpp.html" target="_top" xlink:title="Implements visualization modes for the raytracer using SFML.">
<polygon fill="white" stroke="#666666" points="155.82,-19 30.82,-19 30.82,0 155.82,0 155.82,-19"/>
<text text-anchor="middle" x="93.32" y="-7" font-family="Helvetica,sans-Serif" font-size="10.00">src/core/Visualizer.cpp</text>
</a>
</g>
</g>
<!-- Node2&#45;&gt;Node8 -->
<g id="edge11_Node000002_Node000008" class="edge">
<title>Node2&#45;&gt;Node8</title>
<g id="a_edge11_Node000002_Node000008"><a xlink:title=" ">
<path fill="none" stroke="#63b8ff" d="M373.04,-109.39C276.5,-96.99 115.8,-76.09 113.32,-74 96.88,-60.16 93.77,-32.91 93.3,-19.04"/>
<polygon fill="#63b8ff" stroke="#63b8ff" points="372.68,-112.88 383.04,-110.68 373.57,-105.93 372.68,-112.88"/>
</a>
</g>
</g>
<!-- Node9 -->
<g id="Node000009" class="node">
<title>Node9</title>
<g id="a_Node000009"><a xlink:href="../../df/d0c/Utils_8cpp.html" target="_top" xlink:title="Implements utility functions for argument parsing, rendering, post&#45;processing, and denoising in the r...">
<polygon fill="white" stroke="#666666" points="387.82,-74 286.82,-74 286.82,-55 387.82,-55 387.82,-74"/>
<text text-anchor="middle" x="337.32" y="-62" font-family="Helvetica,sans-Serif" font-size="10.00">src/core/Utils.cpp</text>
</a>
</g>
</g>
<!-- Node2&#45;&gt;Node9 -->
<g id="edge10_Node000002_Node000009" class="edge">
<title>Node2&#45;&gt;Node9</title>
<g id="a_edge10_Node000002_Node000009"><a xlink:title=" ">
<path fill="none" stroke="#63b8ff" d="M418.08,-105.5C398.4,-95.75 372,-82.68 354.83,-74.17"/>
<polygon fill="#63b8ff" stroke="#63b8ff" points="416.62,-108.68 427.13,-109.98 419.72,-102.41 416.62,-108.68"/>
</a>
</g>
</g>
<!-- Node3&#45;&gt;Node2 -->
<g id="edge3_Node000003_Node000002" class="edge">
<title>Node3&#45;&gt;Node2</title>
<g id="a_edge3_Node000003_Node000002"><a xlink:title=" ">
<path fill="none" stroke="#63b8ff" d="M474.17,-82.98C468.99,-91.95 461.62,-102.49 455.27,-109.75"/>
<polygon fill="#63b8ff" stroke="#63b8ff" points="477.28,-84.58 478.78,-74.09 471.07,-81.35 477.28,-84.58"/>
</a>
</g>
</g>
<!-- Node4 -->
<g id="Node000004" class="node">
<title>Node4</title>
<g id="a_Node000004"><a xlink:href="../../df/d39/Raytracer_8cpp.html" target="_top" xlink:title="Implements the main execution flow of the Raytracer application, including argument parsing,...">
<polygon fill="white" stroke="#666666" points="354.82,-19 229.82,-19 229.82,0 354.82,0 354.82,-19"/>
<text text-anchor="middle" x="292.32" y="-7" font-family="Helvetica,sans-Serif" font-size="10.00">src/core/Raytracer.cpp</text>
</a>
</g>
</g>
<!-- Node3&#45;&gt;Node4 -->
<g id="edge4_Node000003_Node000004" class="edge">
<title>Node3&#45;&gt;Node4</title>
<g id="a_edge4_Node000003_Node000004"><a xlink:title=" ">
<path fill="none" stroke="#63b8ff" d="M439.4,-52.18C404.42,-42.27 354.36,-28.08 322.6,-19.08"/>
<polygon fill="#63b8ff" stroke="#63b8ff" points="438.7,-55.63 449.28,-54.98 440.61,-48.89 438.7,-55.63"/>
</a>
</g>
</g>
<!-- Node5 -->
<g id="Node000005" class="node">
<title>Node5</title>
<g id="a_Node000005"><a xlink:href="../../df/d0a/main_8cpp.html" target="_top" xlink:title="Entry point of the raytracer application. Initializes and runs the Raytracer engine.">
<polygon fill="white" stroke="#666666" points="530.82,-19 427.82,-19 427.82,0 530.82,0 530.82,-19"/>
<text text-anchor="middle" x="479.32" y="-7" font-family="Helvetica,sans-Serif" font-size="10.00">src/core/main.cpp</text>
</a>
</g>
</g>
<!-- Node3&#45;&gt;Node5 -->
<g id="edge5_Node000003_Node000005" class="edge">
<title>Node3&#45;&gt;Node5</title>
<g id="a_edge5_Node000003_Node000005"><a xlink:title=" ">
<path fill="none" stroke="#63b8ff" d="M479.32,-44.66C479.32,-35.93 479.32,-25.99 479.32,-19.09"/>
<polygon fill="#63b8ff" stroke="#63b8ff" points="475.82,-44.75 479.32,-54.75 482.82,-44.75 475.82,-44.75"/>
</a>
</g>
</g>
<!-- Node3&#45;&gt;Node6 -->
<g id="edge6_Node000003_Node000006" class="edge">
<title>Node3&#45;&gt;Node6</title>
<g id="a_edge6_Node000003_Node000006"><a xlink:title=" ">
<path fill="none" stroke="#63b8ff" d="M514.87,-51.8C544.92,-41.91 587.26,-27.97 614.25,-19.08"/>
<polygon fill="#63b8ff" stroke="#63b8ff" points="513.6,-48.53 505.19,-54.98 515.78,-55.18 513.6,-48.53"/>
</a>
</g>
</g>
<!-- Node7&#45;&gt;Node4 -->
<g id="edge8_Node000007_Node000004" class="edge">
<title>Node7&#45;&gt;Node4</title>
<g id="a_edge8_Node000007_Node000004"><a xlink:title=" ">
<path fill="none" stroke="#63b8ff" d="M220.09,-49.97C237.83,-40.28 261.17,-27.52 276.46,-19.17"/>
<polygon fill="#63b8ff" stroke="#63b8ff" points="218.01,-47.12 210.91,-54.98 221.36,-53.26 218.01,-47.12"/>
</a>
</g>
</g>
<!-- Node7&#45;&gt;Node8 -->
<g id="edge9_Node000007_Node000008" class="edge">
<title>Node7&#45;&gt;Node8</title>
<g id="a_edge9_Node000007_Node000008"><a xlink:title=" ">
<path fill="none" stroke="#63b8ff" d="M170.05,-50.37C151.31,-40.63 126.3,-27.64 110.01,-19.17"/>
<polygon fill="#63b8ff" stroke="#63b8ff" points="168.45,-53.48 178.94,-54.98 171.68,-47.27 168.45,-53.48"/>
</a>
</g>
</g>
<!-- Node10&#45;&gt;Node2 -->
<g id="edge14_Node000010_Node000002" class="edge">
<title>Node10&#45;&gt;Node2</title>
<g id="a_edge14_Node000010_Node000002"><a xlink:title=" ">
<path fill="none" stroke="#63b8ff" d="M427.69,-223.86C420.19,-216.04 412.27,-205.91 408.32,-195 403.79,-182.46 403.88,-177.57 408.32,-165 413.43,-150.57 425.42,-137.4 434.16,-129.19"/>
<polygon fill="#63b8ff" stroke="#63b8ff" points="425.28,-226.4 434.89,-230.87 430.16,-221.39 425.28,-226.4"/>
</a>
</g>
</g>
<!-- Node10&#45;&gt;Node3 -->
<g id="edge13_Node000010_Node000003" class="edge">
<title>Node10&#45;&gt;Node3</title>
<g id="a_edge13_Node000010_Node000003"><a xlink:title=" ">
<path fill="none" stroke="#63b8ff" d="M508.88,-229.05C546.15,-221.48 588.08,-209.96 599.32,-195 636.35,-145.76 541.26,-94.01 498.69,-74.05"/>
<polygon fill="#63b8ff" stroke="#63b8ff" points="508.16,-225.62 499.02,-230.98 509.51,-232.49 508.16,-225.62"/>
</a>
</g>
</g>
<!-- Node10&#45;&gt;Node6 -->
<g id="edge24_Node000010_Node000006" class="edge">
<title>Node10&#45;&gt;Node6</title>
<g id="a_edge24_Node000010_Node000006"><a xlink:title=" ">
<path fill="none" stroke="#63b8ff" d="M516.88,-229.23C557.87,-221.82 603.78,-210.41 617.32,-195 663.13,-142.86 648.22,-48.16 642.27,-19.17"/>
<polygon fill="#63b8ff" stroke="#63b8ff" points="516.11,-225.81 506.87,-230.98 517.32,-232.71 516.11,-225.81"/>
</a>
</g>
</g>
<!-- Node10&#45;&gt;Node7 -->
<g id="edge15_Node000010_Node000007" class="edge">
<title>Node10&#45;&gt;Node7</title>
<g id="a_edge15_Node000010_Node000007"><a xlink:title=" ">
<path fill="none" stroke="#63b8ff" d="M357.35,-236.51C238.97,-231.57 40.57,-219.68 18.32,-195 -6.97,-166.94 -4.91,-139.79 18.32,-110 31.86,-92.63 82.88,-81.01 126.69,-74.01"/>
<polygon fill="#63b8ff" stroke="#63b8ff" points="357.35,-240.01 367.49,-236.93 357.64,-233.02 357.35,-240.01"/>
</a>
</g>
</g>
<!-- Node11 -->
<g id="Node000011" class="node">
<title>Node11</title>
<g id="a_Node000011"><a xlink:href="../../df/d7b/SceneParser_8hpp.html" target="_top" xlink:title="Declares functions to load scenes from configuration files (.cfg) into a Scene object.">
<polygon fill="white" stroke="#666666" points="589.82,-189.5 416.82,-189.5 416.82,-170.5 589.82,-170.5 589.82,-189.5"/>
<text text-anchor="middle" x="503.32" y="-177.5" font-family="Helvetica,sans-Serif" font-size="10.00">include/loaders/SceneParser.hpp</text>
</a>
</g>
</g>
<!-- Node10&#45;&gt;Node11 -->
<g id="edge16_Node000010_Node000011" class="edge">
<title>Node10&#45;&gt;Node11</title>
<g id="a_edge16_Node000010_Node000011"><a xlink:title=" ">
<path fill="none" stroke="#63b8ff" d="M461.1,-223.59C471.93,-212.67 485.89,-198.58 494.73,-189.67"/>
<polygon fill="#63b8ff" stroke="#63b8ff" points="458.44,-221.3 453.88,-230.87 463.41,-226.23 458.44,-221.3"/>
</a>
</g>
</g>
<!-- Node12 -->
<g id="Node000012" class="node">
<title>Node12</title>
<g id="a_Node000012"><a xlink:href="../../d1/d3a/ShadowShading_8hpp.html" target="_top" xlink:title=" ">
<polygon fill="white" stroke="#666666" points="169.82,-195 26.82,-195 26.82,-165 169.82,-165 169.82,-195"/>
<text text-anchor="start" x="34.82" y="-183" font-family="Helvetica,sans-Serif" font-size="10.00">include/rendering/Shadow</text>
<text text-anchor="middle" x="98.32" y="-172" font-family="Helvetica,sans-Serif" font-size="10.00">Shading.hpp</text>
</a>
</g>
</g>
<!-- Node10&#45;&gt;Node12 -->
<g id="edge19_Node000010_Node000012" class="edge">
<title>Node10&#45;&gt;Node12</title>
<g id="a_edge19_Node000010_Node000012"><a xlink:title=" ">
<path fill="none" stroke="#63b8ff" d="M384.81,-229.3C324.97,-219.21 233.39,-203.77 169.95,-193.07"/>
<polygon fill="#63b8ff" stroke="#63b8ff" points="384.42,-232.78 394.87,-230.99 385.59,-225.88 384.42,-232.78"/>
</a>
</g>
</g>
<!-- Node15 -->
<g id="Node000015" class="node">
<title>Node15</title>
<g id="a_Node000015"><a xlink:href="../../de/d15/Scene_8cpp.html" target="_top" xlink:title=" ">
<polygon fill="white" stroke="#666666" points="359.82,-189.5 226.82,-189.5 226.82,-170.5 359.82,-170.5 359.82,-189.5"/>
<text text-anchor="middle" x="293.32" y="-177.5" font-family="Helvetica,sans-Serif" font-size="10.00">src/rendering/Scene.cpp</text>
</a>
</g>
</g>
<!-- Node10&#45;&gt;Node15 -->
<g id="edge25_Node000010_Node000015" class="edge">
<title>Node10&#45;&gt;Node15</title>
<g id="a_edge25_Node000010_Node000015"><a xlink:title=" ">
<path fill="none" stroke="#63b8ff" d="M413.83,-227.38C384.44,-216.07 341.36,-199.49 315.45,-189.52"/>
<polygon fill="#63b8ff" stroke="#63b8ff" points="412.63,-230.67 423.22,-230.99 415.15,-224.14 412.63,-230.67"/>
</a>
</g>
</g>
<!-- Node11&#45;&gt;Node2 -->
<g id="edge17_Node000011_Node000002" class="edge">
<title>Node11&#45;&gt;Node2</title>
<g id="a_edge17_Node000011_Node000002"><a xlink:title=" ">
<path fill="none" stroke="#63b8ff" d="M487.28,-163.09C476.26,-152.17 462.06,-138.08 453.07,-129.17"/>
<polygon fill="#63b8ff" stroke="#63b8ff" points="485.05,-165.81 494.62,-170.37 489.98,-160.84 485.05,-165.81"/>
</a>
</g>
</g>
<!-- Node11&#45;&gt;Node6 -->
<g id="edge18_Node000011_Node000006" class="edge">
<title>Node11&#45;&gt;Node6</title>
<g id="a_edge18_Node000011_Node000006"><a xlink:title=" ">
<path fill="none" stroke="#63b8ff" d="M516.71,-162.54C545.27,-127.4 611.37,-46.11 633.19,-19.27"/>
<polygon fill="#63b8ff" stroke="#63b8ff" points="513.9,-160.45 510.31,-170.41 519.33,-164.86 513.9,-160.45"/>
</a>
</g>
</g>
<!-- Node12&#45;&gt;Node2 -->
<g id="edge20_Node000012_Node000002" class="edge">
<title>Node12&#45;&gt;Node2</title>
<g id="a_edge20_Node000012_Node000002"><a xlink:title=" ">
<path fill="none" stroke="#63b8ff" d="M180.03,-165.19C246.41,-153.96 337.91,-138.49 394,-129.01"/>
<polygon fill="#63b8ff" stroke="#63b8ff" points="179.29,-161.76 170.02,-166.88 180.46,-168.66 179.29,-161.76"/>
</a>
</g>
</g>
<!-- Node12&#45;&gt;Node8 -->
<g id="edge21_Node000012_Node000008" class="edge">
<title>Node12&#45;&gt;Node8</title>
<g id="a_edge21_Node000012_Node000008"><a xlink:title=" ">
<path fill="none" stroke="#63b8ff" d="M51.15,-160.11C38.18,-152.48 25.68,-142.27 18.32,-129 -5.16,-86.62 53.18,-38.52 80.33,-19.21"/>
<polygon fill="#63b8ff" stroke="#63b8ff" points="49.68,-163.3 60.14,-164.99 53.02,-157.15 49.68,-163.3"/>
</a>
</g>
</g>
<!-- Node13 -->
<g id="Node000013" class="node">
<title>Node13</title>
<g id="a_Node000013"><a xlink:href="../../d7/dbd/ShadowShading_8cpp.html" target="_top" xlink:title=" ">
<polygon fill="white" stroke="#666666" points="364.82,-129 183.82,-129 183.82,-110 364.82,-110 364.82,-129"/>
<text text-anchor="middle" x="274.32" y="-117" font-family="Helvetica,sans-Serif" font-size="10.00">src/rendering/ShadowShading.cpp</text>
</a>
</g>
</g>
<!-- Node12&#45;&gt;Node13 -->
<g id="edge22_Node000012_Node000013" class="edge">
<title>Node12&#45;&gt;Node13</title>
<g id="a_edge22_Node000012_Node000013"><a xlink:title=" ">
<path fill="none" stroke="#63b8ff" d="M150.25,-161.74C182.63,-150.98 222.88,-137.6 248.59,-129.05"/>
<polygon fill="#63b8ff" stroke="#63b8ff" points="148.87,-158.51 140.48,-164.99 151.07,-165.15 148.87,-158.51"/>
</a>
</g>
</g>
<!-- Node14 -->
<g id="Node000014" class="node">
<title>Node14</title>
<g id="a_Node000014"><a xlink:href="../../d6/dc9/Skybox_8cpp.html" target="_top" xlink:title=" ">
<polygon fill="white" stroke="#666666" points="165.82,-129 26.82,-129 26.82,-110 165.82,-110 165.82,-129"/>
<text text-anchor="middle" x="96.32" y="-117" font-family="Helvetica,sans-Serif" font-size="10.00">src/rendering/Skybox.cpp</text>
</a>
</g>
</g>
<!-- Node12&#45;&gt;Node14 -->
<g id="edge23_Node000012_Node000014" class="edge">
<title>Node12&#45;&gt;Node14</title>
<g id="a_edge23_Node000012_Node000014"><a xlink:title=" ">
<path fill="none" stroke="#63b8ff" d="M97.49,-154.75C97.19,-145.72 96.85,-136.03 96.62,-129.27"/>
<polygon fill="#63b8ff" stroke="#63b8ff" points="94,-154.96 97.84,-164.84 101,-154.72 94,-154.96"/>
</a>
</g>
</g>
</g>
</svg>
