<?xml version="1.0" encoding="UTF-8" standalone="no"?>
<!DOCTYPE svg PUBLIC "-//W3C//DTD SVG 1.1//EN"
 "http://www.w3.org/Graphics/SVG/1.1/DTD/svg11.dtd">
<!-- Generated by graphviz version 2.43.0 (0)
 -->
<!-- Title: src/rendering/ImageTexture.cpp Pages: 1 -->
<svg width="789pt" height="258pt"
 viewBox="0.00 0.00 789.00 258.00" xmlns="http://www.w3.org/2000/svg" xmlns:xlink="http://www.w3.org/1999/xlink">
<g id="graph0" class="graph" transform="scale(1 1) rotate(0) translate(4 254)">
<title>src/rendering/ImageTexture.cpp</title>
<!-- Node1 -->
<g id="Node000001" class="node">
<title>Node1</title>
<g id="a_Node000001"><a xlink:title=" ">
<polygon fill="#999999" stroke="#666666" points="604.5,-250 434.5,-250 434.5,-231 604.5,-231 604.5,-250"/>
<text text-anchor="middle" x="519.5" y="-238" font-family="Helvetica,sans-Serif" font-size="10.00">src/rendering/ImageTexture.cpp</text>
</a>
</g>
</g>
<!-- Node2 -->
<g id="Node000002" class="node">
<title>Node2</title>
<g id="a_Node000002"><a xlink:href="../../d8/de5/ImageTexture_8hpp.html" target="_top" xlink:title="Declares a texture that samples colour data from an image file.">
<polygon fill="white" stroke="#666666" points="295,-195 176,-195 176,-165 295,-165 295,-195"/>
<text text-anchor="start" x="184" y="-183" font-family="Helvetica,sans-Serif" font-size="10.00">../../include/rendering</text>
<text text-anchor="middle" x="235.5" y="-172" font-family="Helvetica,sans-Serif" font-size="10.00">/ImageTexture.hpp</text>
</a>
</g>
</g>
<!-- Node1&#45;&gt;Node2 -->
<g id="edge1_Node000001_Node000002" class="edge">
<title>Node1&#45;&gt;Node2</title>
<g id="a_edge1_Node000001_Node000002"><a xlink:title=" ">
<path fill="none" stroke="#63b8ff" d="M478.2,-230.99C432.87,-221.66 359.33,-206.51 305.07,-195.33"/>
<polygon fill="#63b8ff" stroke="#63b8ff" points="305.67,-191.88 295.17,-193.29 304.26,-198.74 305.67,-191.88"/>
</a>
</g>
</g>
<!-- Node5 -->
<g id="Node000005" class="node">
<title>Node5</title>
<g id="a_Node000005"><a xlink:title=" ">
<polygon fill="#e0e0e0" stroke="#999999" points="294,-19 247,-19 247,0 294,0 294,-19"/>
<text text-anchor="middle" x="270.5" y="-7" font-family="Helvetica,sans-Serif" font-size="10.00">cmath</text>
</a>
</g>
</g>
<!-- Node1&#45;&gt;Node5 -->
<g id="edge14_Node000001_Node000005" class="edge">
<title>Node1&#45;&gt;Node5</title>
<g id="a_edge14_Node000001_Node000005"><a xlink:title=" ">
<path fill="none" stroke="#63b8ff" d="M479.07,-230.99C456.28,-224.43 428.64,-213.29 409.5,-195 379.44,-166.29 394.28,-144.09 370.5,-110 346.88,-76.13 310.99,-43.71 289.24,-25.53"/>
<polygon fill="#63b8ff" stroke="#63b8ff" points="291.34,-22.72 281.39,-19.07 286.89,-28.12 291.34,-22.72"/>
</a>
</g>
</g>
<!-- Node9 -->
<g id="Node000009" class="node">
<title>Node9</title>
<g id="a_Node000009"><a xlink:title=" ">
<polygon fill="#e0e0e0" stroke="#999999" points="473,-189.5 418,-189.5 418,-170.5 473,-170.5 473,-189.5"/>
<text text-anchor="middle" x="445.5" y="-177.5" font-family="Helvetica,sans-Serif" font-size="10.00">fstream</text>
</a>
</g>
</g>
<!-- Node1&#45;&gt;Node9 -->
<g id="edge9_Node000001_Node000009" class="edge">
<title>Node1&#45;&gt;Node9</title>
<g id="a_edge9_Node000001_Node000009"><a xlink:title=" ">
<path fill="none" stroke="#63b8ff" d="M508.58,-230.87C496.99,-221.71 478.47,-207.06 464.48,-196.01"/>
<polygon fill="#63b8ff" stroke="#63b8ff" points="466.48,-193.12 456.46,-189.67 462.14,-198.61 466.48,-193.12"/>
</a>
</g>
</g>
<!-- Node10 -->
<g id="Node000010" class="node">
<title>Node10</title>
<g id="a_Node000010"><a xlink:title=" ">
<polygon fill="#e0e0e0" stroke="#999999" points="547.5,-189.5 491.5,-189.5 491.5,-170.5 547.5,-170.5 547.5,-189.5"/>
<text text-anchor="middle" x="519.5" y="-177.5" font-family="Helvetica,sans-Serif" font-size="10.00">sstream</text>
</a>
</g>
</g>
<!-- Node1&#45;&gt;Node10 -->
<g id="edge10_Node000001_Node000010" class="edge">
<title>Node1&#45;&gt;Node10</title>
<g id="a_edge10_Node000001_Node000010"><a xlink:title=" ">
<path fill="none" stroke="#63b8ff" d="M519.5,-230.87C519.5,-222.75 519.5,-210.31 519.5,-199.89"/>
<polygon fill="#63b8ff" stroke="#63b8ff" points="523,-199.67 519.5,-189.67 516,-199.67 523,-199.67"/>
</a>
</g>
</g>
<!-- Node11 -->
<g id="Node000011" class="node">
<title>Node11</title>
<g id="a_Node000011"><a xlink:title=" ">
<polygon fill="#e0e0e0" stroke="#999999" points="631,-189.5 566,-189.5 566,-170.5 631,-170.5 631,-189.5"/>
<text text-anchor="middle" x="598.5" y="-177.5" font-family="Helvetica,sans-Serif" font-size="10.00">stdexcept</text>
</a>
</g>
</g>
<!-- Node1&#45;&gt;Node11 -->
<g id="edge11_Node000001_Node000011" class="edge">
<title>Node1&#45;&gt;Node11</title>
<g id="a_edge11_Node000001_Node000011"><a xlink:title=" ">
<path fill="none" stroke="#63b8ff" d="M531.16,-230.87C543.64,-221.62 563.68,-206.78 578.66,-195.69"/>
<polygon fill="#63b8ff" stroke="#63b8ff" points="580.84,-198.43 586.8,-189.67 576.68,-192.81 580.84,-198.43"/>
</a>
</g>
</g>
<!-- Node12 -->
<g id="Node000012" class="node">
<title>Node12</title>
<g id="a_Node000012"><a xlink:title=" ">
<polygon fill="#e0e0e0" stroke="#999999" points="713.5,-189.5 649.5,-189.5 649.5,-170.5 713.5,-170.5 713.5,-189.5"/>
<text text-anchor="middle" x="681.5" y="-177.5" font-family="Helvetica,sans-Serif" font-size="10.00">algorithm</text>
</a>
</g>
</g>
<!-- Node1&#45;&gt;Node12 -->
<g id="edge12_Node000001_Node000012" class="edge">
<title>Node1&#45;&gt;Node12</title>
<g id="a_edge12_Node000001_Node000012"><a xlink:title=" ">
<path fill="none" stroke="#63b8ff" d="M543.06,-230.99C570.77,-220.99 616.97,-204.3 648.31,-192.99"/>
<polygon fill="#63b8ff" stroke="#63b8ff" points="649.7,-196.21 657.92,-189.52 647.32,-189.62 649.7,-196.21"/>
</a>
</g>
</g>
<!-- Node13 -->
<g id="Node000013" class="node">
<title>Node13</title>
<g id="a_Node000013"><a xlink:title=" ">
<polygon fill="#e0e0e0" stroke="#999999" points="781,-189.5 732,-189.5 732,-170.5 781,-170.5 781,-189.5"/>
<text text-anchor="middle" x="756.5" y="-177.5" font-family="Helvetica,sans-Serif" font-size="10.00">cctype</text>
</a>
</g>
</g>
<!-- Node1&#45;&gt;Node13 -->
<g id="edge13_Node000001_Node000013" class="edge">
<title>Node1&#45;&gt;Node13</title>
<g id="a_edge13_Node000001_Node000013"><a xlink:title=" ">
<path fill="none" stroke="#63b8ff" d="M570.19,-230.94C611.65,-223.33 671.54,-210.94 722.5,-195 724.18,-194.48 725.88,-193.9 727.6,-193.3"/>
<polygon fill="#63b8ff" stroke="#63b8ff" points="729.2,-196.43 737.3,-189.59 726.71,-189.89 729.2,-196.43"/>
</a>
</g>
</g>
<!-- Node3 -->
<g id="Node000003" class="node">
<title>Node3</title>
<g id="a_Node000003"><a xlink:href="../../d0/ddc/Texture_8hpp.html" target="_top" xlink:title="Declares the abstract base class for all 2&#45;D textures. (Solid colour, checkerboard,...">
<polygon fill="white" stroke="#666666" points="123,-129 0,-129 0,-110 123,-110 123,-129"/>
<text text-anchor="middle" x="61.5" y="-117" font-family="Helvetica,sans-Serif" font-size="10.00">rendering/Texture.hpp</text>
</a>
</g>
</g>
<!-- Node2&#45;&gt;Node3 -->
<g id="edge2_Node000002_Node000003" class="edge">
<title>Node2&#45;&gt;Node3</title>
<g id="a_edge2_Node000002_Node000003"><a xlink:title=" ">
<path fill="none" stroke="#63b8ff" d="M193.82,-164.99C164.18,-155.02 124.81,-141.78 96.73,-132.35"/>
<polygon fill="#63b8ff" stroke="#63b8ff" points="97.54,-128.92 86.94,-129.05 95.3,-135.56 97.54,-128.92"/>
</a>
</g>
</g>
<!-- Node4 -->
<g id="Node000004" class="node">
<title>Node4</title>
<g id="a_Node000004"><a xlink:href="../../d3/dde/Vector3D_8hpp.html" target="_top" xlink:title="Defines a 3D vector structure with basic arithmetic and transformation operations.">
<polygon fill="white" stroke="#666666" points="204.5,-74 98.5,-74 98.5,-55 204.5,-55 204.5,-74"/>
<text text-anchor="middle" x="151.5" y="-62" font-family="Helvetica,sans-Serif" font-size="10.00">core/Vector3D.hpp</text>
</a>
</g>
</g>
<!-- Node2&#45;&gt;Node4 -->
<g id="edge5_Node000002_Node000004" class="edge">
<title>Node2&#45;&gt;Node4</title>
<g id="a_edge5_Node000002_Node000004"><a xlink:title=" ">
<path fill="none" stroke="#63b8ff" d="M210.11,-164.85C196.58,-156.12 180.67,-143.78 170.5,-129 161.22,-115.52 156.39,-97.43 153.93,-84"/>
<polygon fill="#63b8ff" stroke="#63b8ff" points="157.37,-83.37 152.37,-74.03 150.45,-84.45 157.37,-83.37"/>
</a>
</g>
</g>
<!-- Node6 -->
<g id="Node000006" class="node">
<title>Node6</title>
<g id="a_Node000006"><a xlink:title=" ">
<polygon fill="#e0e0e0" stroke="#999999" points="227,-129 180,-129 180,-110 227,-110 227,-129"/>
<text text-anchor="middle" x="203.5" y="-117" font-family="Helvetica,sans-Serif" font-size="10.00">vector</text>
</a>
</g>
</g>
<!-- Node2&#45;&gt;Node6 -->
<g id="edge6_Node000002_Node000006" class="edge">
<title>Node2&#45;&gt;Node6</title>
<g id="a_edge6_Node000002_Node000006"><a xlink:title=" ">
<path fill="none" stroke="#63b8ff" d="M227.75,-164.84C223.35,-156.78 217.79,-146.62 213.1,-138.06"/>
<polygon fill="#63b8ff" stroke="#63b8ff" points="216.16,-136.36 208.3,-129.27 210.02,-139.72 216.16,-136.36"/>
</a>
</g>
</g>
<!-- Node7 -->
<g id="Node000007" class="node">
<title>Node7</title>
<g id="a_Node000007"><a xlink:title=" ">
<polygon fill="#e0e0e0" stroke="#999999" points="289.5,-129 245.5,-129 245.5,-110 289.5,-110 289.5,-129"/>
<text text-anchor="middle" x="267.5" y="-117" font-family="Helvetica,sans-Serif" font-size="10.00">string</text>
</a>
</g>
</g>
<!-- Node2&#45;&gt;Node7 -->
<g id="edge7_Node000002_Node000007" class="edge">
<title>Node2&#45;&gt;Node7</title>
<g id="a_edge7_Node000002_Node000007"><a xlink:title=" ">
<path fill="none" stroke="#63b8ff" d="M243.25,-164.84C247.65,-156.78 253.21,-146.62 257.9,-138.06"/>
<polygon fill="#63b8ff" stroke="#63b8ff" points="260.98,-139.72 262.7,-129.27 254.84,-136.36 260.98,-139.72"/>
</a>
</g>
</g>
<!-- Node8 -->
<g id="Node000008" class="node">
<title>Node8</title>
<g id="a_Node000008"><a xlink:title=" ">
<polygon fill="#e0e0e0" stroke="#999999" points="361.5,-129 307.5,-129 307.5,-110 361.5,-110 361.5,-129"/>
<text text-anchor="middle" x="334.5" y="-117" font-family="Helvetica,sans-Serif" font-size="10.00">istream</text>
</a>
</g>
</g>
<!-- Node2&#45;&gt;Node8 -->
<g id="edge8_Node000002_Node000008" class="edge">
<title>Node2&#45;&gt;Node8</title>
<g id="a_edge8_Node000002_Node000008"><a xlink:title=" ">
<path fill="none" stroke="#63b8ff" d="M259.21,-164.99C274.85,-155.75 295.24,-143.7 310.86,-134.47"/>
<polygon fill="#63b8ff" stroke="#63b8ff" points="313.05,-137.24 319.88,-129.14 309.49,-131.21 313.05,-137.24"/>
</a>
</g>
</g>
<!-- Node3&#45;&gt;Node4 -->
<g id="edge3_Node000003_Node000004" class="edge">
<title>Node3&#45;&gt;Node4</title>
<g id="a_edge3_Node000003_Node000004"><a xlink:title=" ">
<path fill="none" stroke="#63b8ff" d="M75.96,-109.98C89.92,-101.77 111.29,-89.18 127.75,-79.49"/>
<polygon fill="#63b8ff" stroke="#63b8ff" points="129.94,-82.26 136.78,-74.17 126.38,-76.23 129.94,-82.26"/>
</a>
</g>
</g>
<!-- Node4&#45;&gt;Node5 -->
<g id="edge4_Node000004_Node000005" class="edge">
<title>Node4&#45;&gt;Node5</title>
<g id="a_edge4_Node000004_Node000005"><a xlink:title=" ">
<path fill="none" stroke="#63b8ff" d="M170.62,-54.98C189.85,-46.42 219.73,-33.11 241.81,-23.28"/>
<polygon fill="#63b8ff" stroke="#63b8ff" points="243.32,-26.44 251.03,-19.17 240.47,-20.04 243.32,-26.44"/>
</a>
</g>
</g>
</g>
</svg>
