<?xml version="1.0" encoding="UTF-8" standalone="no"?>
<!DOCTYPE svg PUBLIC "-//W3C//DTD SVG 1.1//EN"
 "http://www.w3.org/Graphics/SVG/1.1/DTD/svg11.dtd">
<!-- Generated by graphviz version 2.43.0 (0)
 -->
<!-- Title: include/primitives/Sphere.hpp Pages: 1 -->
<svg width="910pt" height="423pt"
 viewBox="0.00 0.00 910.00 423.00" xmlns="http://www.w3.org/2000/svg" xmlns:xlink="http://www.w3.org/1999/xlink">
<g id="graph0" class="graph" transform="scale(1 1) rotate(0) translate(4 419)">
<title>include/primitives/Sphere.hpp</title>
<!-- Node1 -->
<g id="Node000001" class="node">
<title>Node1</title>
<g id="a_Node000001"><a xlink:title="Declares the Sphere primitive for ray tracing.">
<polygon fill="#999999" stroke="#666666" points="350,-415 246,-415 246,-385 350,-385 350,-415"/>
<text text-anchor="start" x="254" y="-403" font-family="Helvetica,sans-Serif" font-size="10.00">include/primitives</text>
<text text-anchor="middle" x="298" y="-392" font-family="Helvetica,sans-Serif" font-size="10.00">/Sphere.hpp</text>
</a>
</g>
</g>
<!-- Node2 -->
<g id="Node000002" class="node">
<title>Node2</title>
<g id="a_Node000002"><a xlink:href="../../de/d81/APrimitive_8hpp.html" target="_top" xlink:title=" ">
<polygon fill="white" stroke="#666666" points="485.5,-294 372.5,-294 372.5,-275 485.5,-275 485.5,-294"/>
<text text-anchor="middle" x="429" y="-282" font-family="Helvetica,sans-Serif" font-size="10.00">core/APrimitive.hpp</text>
</a>
</g>
</g>
<!-- Node1&#45;&gt;Node2 -->
<g id="edge1_Node000001_Node000002" class="edge">
<title>Node1&#45;&gt;Node2</title>
<g id="a_edge1_Node000001_Node000002"><a xlink:title=" ">
<path fill="none" stroke="#63b8ff" d="M314.33,-384.85C338.98,-363.5 385.52,-323.17 411.08,-301.03"/>
<polygon fill="#63b8ff" stroke="#63b8ff" points="413.61,-303.46 418.88,-294.27 409.03,-298.17 413.61,-303.46"/>
</a>
</g>
</g>
<!-- Node3 -->
<g id="Node000003" class="node">
<title>Node3</title>
<g id="a_Node000003"><a xlink:href="../../d4/db2/Ray_8hpp.html" target="_top" xlink:title="Defines the Ray structure used for ray&#45;object intersection tests in the raytracer.">
<polygon fill="white" stroke="#666666" points="517.5,-184 438.5,-184 438.5,-165 517.5,-165 517.5,-184"/>
<text text-anchor="middle" x="478" y="-172" font-family="Helvetica,sans-Serif" font-size="10.00">core/Ray.hpp</text>
</a>
</g>
</g>
<!-- Node1&#45;&gt;Node3 -->
<g id="edge21_Node000001_Node000003" class="edge">
<title>Node1&#45;&gt;Node3</title>
<g id="a_edge21_Node000001_Node000003"><a xlink:title=" ">
<path fill="none" stroke="#63b8ff" d="M294.73,-384.89C287.94,-351.76 276.17,-268.14 317,-220 331.43,-202.99 386.64,-190.36 428.42,-182.98"/>
<polygon fill="#63b8ff" stroke="#63b8ff" points="429.18,-186.4 438.45,-181.26 428,-179.5 429.18,-186.4"/>
</a>
</g>
</g>
<!-- Node4 -->
<g id="Node000004" class="node">
<title>Node4</title>
<g id="a_Node000004"><a xlink:href="../../df/df2/Point3D_8hpp.html" target="_top" xlink:title="Defines a 3D point structure used in geometric computations.">
<polygon fill="white" stroke="#666666" points="668,-129 592,-129 592,-110 668,-110 668,-129"/>
<text text-anchor="middle" x="630" y="-117" font-family="Helvetica,sans-Serif" font-size="10.00">Point3D.hpp</text>
</a>
</g>
</g>
<!-- Node1&#45;&gt;Node4 -->
<g id="edge19_Node000001_Node000004" class="edge">
<title>Node1&#45;&gt;Node4</title>
<g id="a_edge19_Node000001_Node000004"><a xlink:title=" ">
<path fill="none" stroke="#63b8ff" d="M350.02,-394.7C496.53,-381.91 902,-341.45 902,-285.5 902,-285.5 902,-285.5 902,-228.5 902,-180.91 756.34,-145.13 678.2,-129.37"/>
<polygon fill="#63b8ff" stroke="#63b8ff" points="678.6,-125.88 668.11,-127.37 677.24,-132.75 678.6,-125.88"/>
</a>
</g>
</g>
<!-- Node5 -->
<g id="Node000005" class="node">
<title>Node5</title>
<g id="a_Node000005"><a xlink:href="../../d3/dde/Vector3D_8hpp.html" target="_top" xlink:title="Defines a 3D vector structure with basic arithmetic and transformation operations.">
<polygon fill="white" stroke="#666666" points="331,-74 249,-74 249,-55 331,-55 331,-74"/>
<text text-anchor="middle" x="290" y="-62" font-family="Helvetica,sans-Serif" font-size="10.00">Vector3D.hpp</text>
</a>
</g>
</g>
<!-- Node1&#45;&gt;Node5 -->
<g id="edge20_Node000001_Node000005" class="edge">
<title>Node1&#45;&gt;Node5</title>
<g id="a_edge20_Node000001_Node000005"><a xlink:title=" ">
<path fill="none" stroke="#63b8ff" d="M245.7,-398.52C169.77,-394.74 38,-375.26 38,-285.5 38,-285.5 38,-285.5 38,-173.5 38,-86.9 165.29,-68.84 238.93,-65.64"/>
<polygon fill="#63b8ff" stroke="#63b8ff" points="239.08,-69.14 248.95,-65.28 238.83,-62.14 239.08,-69.14"/>
</a>
</g>
</g>
<!-- Node6 -->
<g id="Node000006" class="node">
<title>Node6</title>
<g id="a_Node000006"><a xlink:title=" ">
<polygon fill="#e0e0e0" stroke="#999999" points="313.5,-19 266.5,-19 266.5,0 313.5,0 313.5,-19"/>
<text text-anchor="middle" x="290" y="-7" font-family="Helvetica,sans-Serif" font-size="10.00">cmath</text>
</a>
</g>
</g>
<!-- Node1&#45;&gt;Node6 -->
<g id="edge32_Node000001_Node000006" class="edge">
<title>Node1&#45;&gt;Node6</title>
<g id="a_edge32_Node000001_Node000006"><a xlink:title=" ">
<path fill="none" stroke="#63b8ff" d="M245.7,-399.12C192.2,-396.95 108.55,-387 48,-349 18.03,-330.19 0,-320.88 0,-285.5 0,-285.5 0,-285.5 0,-118.5 0,-64.37 179.71,-28.54 256.19,-15.74"/>
<polygon fill="#63b8ff" stroke="#63b8ff" points="256.97,-19.16 266.27,-14.08 255.83,-12.25 256.97,-19.16"/>
</a>
</g>
</g>
<!-- Node8 -->
<g id="Node000008" class="node">
<title>Node8</title>
<g id="a_Node000008"><a xlink:href="../../d0/d70/Material_8hpp.html" target="_top" xlink:title="Declares the physically&#45;based material descriptor used by the renderer.">
<polygon fill="white" stroke="#666666" points="194,-239 66,-239 66,-220 194,-220 194,-239"/>
<text text-anchor="middle" x="130" y="-227" font-family="Helvetica,sans-Serif" font-size="10.00">rendering/Material.hpp</text>
</a>
</g>
</g>
<!-- Node1&#45;&gt;Node8 -->
<g id="edge22_Node000001_Node000008" class="edge">
<title>Node1&#45;&gt;Node8</title>
<g id="a_edge22_Node000001_Node000008"><a xlink:title=" ">
<path fill="none" stroke="#63b8ff" d="M283.97,-384.92C252.99,-353.86 178.95,-279.6 146.13,-246.68"/>
<polygon fill="#63b8ff" stroke="#63b8ff" points="148.27,-243.87 138.73,-239.25 143.31,-248.81 148.27,-243.87"/>
</a>
</g>
</g>
<!-- Node13 -->
<g id="Node000013" class="node">
<title>Node13</title>
<g id="a_Node000013"><a xlink:href="../../d9/dad/BVH_8hpp.html" target="_top" xlink:title="Declares the axis&#45;aligned bounding box (AABB) and the BVH node used for ray&#45;tracing acceleration.">
<polygon fill="white" stroke="#666666" points="682,-349 574,-349 574,-330 682,-330 682,-349"/>
<text text-anchor="middle" x="628" y="-337" font-family="Helvetica,sans-Serif" font-size="10.00">rendering/BVH.hpp</text>
</a>
</g>
</g>
<!-- Node1&#45;&gt;Node13 -->
<g id="edge23_Node000001_Node000013" class="edge">
<title>Node1&#45;&gt;Node13</title>
<g id="a_edge23_Node000001_Node000013"><a xlink:title=" ">
<path fill="none" stroke="#63b8ff" d="M350.29,-389.73C410.11,-379.13 507.8,-361.81 569.94,-350.79"/>
<polygon fill="#63b8ff" stroke="#63b8ff" points="570.74,-354.2 579.98,-349.01 569.52,-347.31 570.74,-354.2"/>
</a>
</g>
</g>
<!-- Node2&#45;&gt;Node3 -->
<g id="edge2_Node000002_Node000003" class="edge">
<title>Node2&#45;&gt;Node3</title>
<g id="a_edge2_Node000002_Node000003"><a xlink:title=" ">
<path fill="none" stroke="#63b8ff" d="M433.01,-274.66C441.05,-256.93 459.3,-216.73 469.92,-193.32"/>
<polygon fill="#63b8ff" stroke="#63b8ff" points="473.13,-194.71 474.07,-184.16 466.75,-191.82 473.13,-194.71"/>
</a>
</g>
</g>
<!-- Node2&#45;&gt;Node4 -->
<g id="edge8_Node000002_Node000004" class="edge">
<title>Node2&#45;&gt;Node4</title>
<g id="a_edge8_Node000002_Node000004"><a xlink:title=" ">
<path fill="none" stroke="#63b8ff" d="M485.85,-279.27C517.83,-274.16 556.53,-263.04 583,-239 612.26,-212.43 623.57,-165.27 627.73,-139.17"/>
<polygon fill="#63b8ff" stroke="#63b8ff" points="631.22,-139.49 629.15,-129.1 624.29,-138.52 631.22,-139.49"/>
</a>
</g>
</g>
<!-- Node2&#45;&gt;Node5 -->
<g id="edge10_Node000002_Node000005" class="edge">
<title>Node2&#45;&gt;Node5</title>
<g id="a_edge10_Node000002_Node000005"><a xlink:title=" ">
<path fill="none" stroke="#63b8ff" d="M378.16,-274.99C356.13,-268.7 332.01,-257.81 317,-239 280.61,-193.4 283.54,-119.02 287.34,-84.37"/>
<polygon fill="#63b8ff" stroke="#63b8ff" points="290.83,-84.6 288.6,-74.24 283.89,-83.73 290.83,-84.6"/>
</a>
</g>
</g>
<!-- Node7 -->
<g id="Node000007" class="node">
<title>Node7</title>
<g id="a_Node000007"><a xlink:href="../../d8/d1e/Vector2D_8hpp.html" target="_top" xlink:title="Defines a 2D vector structure used for texture coordinates or screen&#45;space math operations.">
<polygon fill="white" stroke="#666666" points="432,-239 326,-239 326,-220 432,-220 432,-239"/>
<text text-anchor="middle" x="379" y="-227" font-family="Helvetica,sans-Serif" font-size="10.00">core/Vector2D.hpp</text>
</a>
</g>
</g>
<!-- Node2&#45;&gt;Node7 -->
<g id="edge9_Node000002_Node000007" class="edge">
<title>Node2&#45;&gt;Node7</title>
<g id="a_edge9_Node000002_Node000007"><a xlink:title=" ">
<path fill="none" stroke="#63b8ff" d="M420.74,-274.75C413.54,-267.11 402.89,-255.82 394.15,-246.56"/>
<polygon fill="#63b8ff" stroke="#63b8ff" points="396.51,-243.96 387.1,-239.09 391.42,-248.76 396.51,-243.96"/>
</a>
</g>
</g>
<!-- Node2&#45;&gt;Node8 -->
<g id="edge11_Node000002_Node000008" class="edge">
<title>Node2&#45;&gt;Node8</title>
<g id="a_edge11_Node000002_Node000008"><a xlink:title=" ">
<path fill="none" stroke="#63b8ff" d="M380.96,-274.98C328.59,-265.7 244.76,-250.84 188.57,-240.88"/>
<polygon fill="#63b8ff" stroke="#63b8ff" points="188.87,-237.38 178.42,-239.08 187.65,-244.27 188.87,-237.38"/>
</a>
</g>
</g>
<!-- Node12 -->
<g id="Node000012" class="node">
<title>Node12</title>
<g id="a_Node000012"><a xlink:href="../../d0/d38/IPrimitive_8hpp.html" target="_top" xlink:title="Interface for geometric primitives in the raytracer.">
<polygon fill="white" stroke="#666666" points="573.5,-239 488.5,-239 488.5,-220 573.5,-220 573.5,-239"/>
<text text-anchor="middle" x="531" y="-227" font-family="Helvetica,sans-Serif" font-size="10.00">IPrimitive.hpp</text>
</a>
</g>
</g>
<!-- Node2&#45;&gt;Node12 -->
<g id="edge17_Node000002_Node000012" class="edge">
<title>Node2&#45;&gt;Node12</title>
<g id="a_edge17_Node000002_Node000012"><a xlink:title=" ">
<path fill="none" stroke="#63b8ff" d="M445.39,-274.98C461.57,-266.57 486.57,-253.59 505.38,-243.81"/>
<polygon fill="#63b8ff" stroke="#63b8ff" points="507.05,-246.89 514.31,-239.17 503.83,-240.68 507.05,-246.89"/>
</a>
</g>
</g>
<!-- Node3&#45;&gt;Node4 -->
<g id="edge3_Node000003_Node000004" class="edge">
<title>Node3&#45;&gt;Node4</title>
<g id="a_edge3_Node000003_Node000004"><a xlink:title=" ">
<path fill="none" stroke="#63b8ff" d="M502.42,-164.98C527.72,-156.16 567.45,-142.31 595.86,-132.41"/>
<polygon fill="#63b8ff" stroke="#63b8ff" points="597.1,-135.68 605.39,-129.08 594.79,-129.07 597.1,-135.68"/>
</a>
</g>
</g>
<!-- Node3&#45;&gt;Node5 -->
<g id="edge7_Node000003_Node000005" class="edge">
<title>Node3&#45;&gt;Node5</title>
<g id="a_edge7_Node000003_Node000005"><a xlink:title=" ">
<path fill="none" stroke="#63b8ff" d="M462.93,-164.84C430.4,-146.16 353.36,-101.9 314.02,-79.3"/>
<polygon fill="#63b8ff" stroke="#63b8ff" points="315.29,-75.99 304.88,-74.05 311.81,-82.06 315.29,-75.99"/>
</a>
</g>
</g>
<!-- Node4&#45;&gt;Node5 -->
<g id="edge4_Node000004_Node000005" class="edge">
<title>Node4&#45;&gt;Node5</title>
<g id="a_edge4_Node000004_Node000005"><a xlink:title=" ">
<path fill="none" stroke="#63b8ff" d="M591.95,-112.24C587.25,-111.48 582.52,-110.72 578,-110 495.04,-96.81 398.55,-82.01 340.97,-73.24"/>
<polygon fill="#63b8ff" stroke="#63b8ff" points="341.45,-69.77 331.03,-71.73 340.39,-76.69 341.45,-69.77"/>
</a>
</g>
</g>
<!-- Node4&#45;&gt;Node6 -->
<g id="edge6_Node000004_Node000006" class="edge">
<title>Node4&#45;&gt;Node6</title>
<g id="a_edge6_Node000004_Node000006"><a xlink:title=" ">
<path fill="none" stroke="#63b8ff" d="M603.04,-109.94C541.49,-90.38 390.77,-42.51 323.44,-21.12"/>
<polygon fill="#63b8ff" stroke="#63b8ff" points="324.34,-17.74 313.75,-18.05 322.23,-24.41 324.34,-17.74"/>
</a>
</g>
</g>
<!-- Node5&#45;&gt;Node6 -->
<g id="edge5_Node000005_Node000006" class="edge">
<title>Node5&#45;&gt;Node6</title>
<g id="a_edge5_Node000005_Node000006"><a xlink:title=" ">
<path fill="none" stroke="#63b8ff" d="M290,-54.75C290,-47.8 290,-37.85 290,-29.13"/>
<polygon fill="#63b8ff" stroke="#63b8ff" points="293.5,-29.09 290,-19.09 286.5,-29.09 293.5,-29.09"/>
</a>
</g>
</g>
<!-- Node8&#45;&gt;Node5 -->
<g id="edge14_Node000008_Node000005" class="edge">
<title>Node8&#45;&gt;Node5</title>
<g id="a_edge14_Node000008_Node000005"><a xlink:title=" ">
<path fill="none" stroke="#63b8ff" d="M124.84,-219.96C112.82,-198.84 85.88,-143.46 112,-110 127.52,-90.12 191.97,-77.8 238.86,-71.3"/>
<polygon fill="#63b8ff" stroke="#63b8ff" points="239.43,-74.76 248.87,-69.97 238.5,-67.82 239.43,-74.76"/>
</a>
</g>
</g>
<!-- Node9 -->
<g id="Node000009" class="node">
<title>Node9</title>
<g id="a_Node000009"><a xlink:title=" ">
<polygon fill="#e0e0e0" stroke="#999999" points="186,-184 142,-184 142,-165 186,-165 186,-184"/>
<text text-anchor="middle" x="164" y="-172" font-family="Helvetica,sans-Serif" font-size="10.00">string</text>
</a>
</g>
</g>
<!-- Node8&#45;&gt;Node9 -->
<g id="edge12_Node000008_Node000009" class="edge">
<title>Node8&#45;&gt;Node9</title>
<g id="a_edge12_Node000008_Node000009"><a xlink:title=" ">
<path fill="none" stroke="#63b8ff" d="M135.61,-219.75C140.32,-212.42 147.17,-201.73 152.97,-192.7"/>
<polygon fill="#63b8ff" stroke="#63b8ff" points="156.04,-194.4 158.49,-184.09 150.14,-190.62 156.04,-194.4"/>
</a>
</g>
</g>
<!-- Node10 -->
<g id="Node000010" class="node">
<title>Node10</title>
<g id="a_Node000010"><a xlink:title=" ">
<polygon fill="#e0e0e0" stroke="#999999" points="262,-184 204,-184 204,-165 262,-165 262,-184"/>
<text text-anchor="middle" x="233" y="-172" font-family="Helvetica,sans-Serif" font-size="10.00">memory</text>
</a>
</g>
</g>
<!-- Node8&#45;&gt;Node10 -->
<g id="edge13_Node000008_Node000010" class="edge">
<title>Node8&#45;&gt;Node10</title>
<g id="a_edge13_Node000008_Node000010"><a xlink:title=" ">
<path fill="none" stroke="#63b8ff" d="M146.55,-219.98C162.89,-211.57 188.13,-198.59 207.13,-188.81"/>
<polygon fill="#63b8ff" stroke="#63b8ff" points="208.86,-191.86 216.15,-184.17 205.66,-185.63 208.86,-191.86"/>
</a>
</g>
</g>
<!-- Node11 -->
<g id="Node000011" class="node">
<title>Node11</title>
<g id="a_Node000011"><a xlink:href="../../d0/ddc/Texture_8hpp.html" target="_top" xlink:title="Declares the abstract base class for all 2&#45;D textures. (Solid colour, checkerboard,...">
<polygon fill="white" stroke="#666666" points="244.5,-129 121.5,-129 121.5,-110 244.5,-110 244.5,-129"/>
<text text-anchor="middle" x="183" y="-117" font-family="Helvetica,sans-Serif" font-size="10.00">rendering/Texture.hpp</text>
</a>
</g>
</g>
<!-- Node8&#45;&gt;Node11 -->
<g id="edge15_Node000008_Node000011" class="edge">
<title>Node8&#45;&gt;Node11</title>
<g id="a_edge15_Node000008_Node000011"><a xlink:title=" ">
<path fill="none" stroke="#63b8ff" d="M128.37,-219.77C126.44,-207.04 124.44,-182.93 133,-165 138.73,-153 149.33,-142.83 159.31,-135.26"/>
<polygon fill="#63b8ff" stroke="#63b8ff" points="161.61,-137.91 167.77,-129.29 157.58,-132.19 161.61,-137.91"/>
</a>
</g>
</g>
<!-- Node11&#45;&gt;Node5 -->
<g id="edge16_Node000011_Node000005" class="edge">
<title>Node11&#45;&gt;Node5</title>
<g id="a_edge16_Node000011_Node000005"><a xlink:title=" ">
<path fill="none" stroke="#63b8ff" d="M200.19,-109.98C217.25,-101.54 243.63,-88.47 263.4,-78.68"/>
<polygon fill="#63b8ff" stroke="#63b8ff" points="265.09,-81.75 272.5,-74.17 261.98,-75.47 265.09,-81.75"/>
</a>
</g>
</g>
<!-- Node12&#45;&gt;Node3 -->
<g id="edge18_Node000012_Node000003" class="edge">
<title>Node12&#45;&gt;Node3</title>
<g id="a_edge18_Node000012_Node000003"><a xlink:title=" ">
<path fill="none" stroke="#63b8ff" d="M522.25,-219.75C514.53,-212.03 503.1,-200.6 493.78,-191.28"/>
<polygon fill="#63b8ff" stroke="#63b8ff" points="496.14,-188.69 486.59,-184.09 491.19,-193.64 496.14,-188.69"/>
</a>
</g>
</g>
<!-- Node13&#45;&gt;Node2 -->
<g id="edge29_Node000013_Node000002" class="edge">
<title>Node13&#45;&gt;Node2</title>
<g id="a_edge29_Node000013_Node000002"><a xlink:title=" ">
<path fill="none" stroke="#63b8ff" d="M596.03,-329.98C562.18,-320.97 508.6,-306.7 471.29,-296.76"/>
<polygon fill="#63b8ff" stroke="#63b8ff" points="471.79,-293.27 461.22,-294.08 469.99,-300.04 471.79,-293.27"/>
</a>
</g>
</g>
<!-- Node13&#45;&gt;Node3 -->
<g id="edge28_Node000013_Node000003" class="edge">
<title>Node13&#45;&gt;Node3</title>
<g id="a_edge28_Node000013_Node000003"><a xlink:title=" ">
<path fill="none" stroke="#63b8ff" d="M620.38,-329.96C613.22,-321.45 602.76,-307.72 597,-294 584.04,-263.14 604.01,-246.06 583,-220 569.12,-202.78 547.36,-192.11 527.23,-185.56"/>
<polygon fill="#63b8ff" stroke="#63b8ff" points="528.11,-182.17 517.53,-182.67 526.11,-188.88 528.11,-182.17"/>
</a>
</g>
</g>
<!-- Node13&#45;&gt;Node4 -->
<g id="edge30_Node000013_Node000004" class="edge">
<title>Node13&#45;&gt;Node4</title>
<g id="a_edge30_Node000013_Node000004"><a xlink:title=" ">
<path fill="none" stroke="#63b8ff" d="M649.79,-329.87C664.64,-322.69 683.16,-310.91 692,-294 707.23,-264.85 701.05,-251.62 692,-220 682.72,-187.57 659.47,-155.42 644.22,-136.79"/>
<polygon fill="#63b8ff" stroke="#63b8ff" points="646.79,-134.4 637.67,-129 641.43,-138.91 646.79,-134.4"/>
</a>
</g>
</g>
<!-- Node13&#45;&gt;Node5 -->
<g id="edge31_Node000013_Node000005" class="edge">
<title>Node13&#45;&gt;Node5</title>
<g id="a_edge31_Node000013_Node000005"><a xlink:title=" ">
<path fill="none" stroke="#63b8ff" d="M637.28,-329.99C649.27,-317.92 667.62,-295.06 659,-275 644.97,-242.36 628.19,-242.86 601,-220 569.63,-193.63 562.54,-185.4 527,-165 472.95,-133.97 455.48,-134.09 398,-110 371.89,-99.05 342.13,-86.81 320.48,-77.94"/>
<polygon fill="#63b8ff" stroke="#63b8ff" points="321.72,-74.67 311.14,-74.12 319.07,-81.15 321.72,-74.67"/>
</a>
</g>
</g>
<!-- Node13&#45;&gt;Node10 -->
<g id="edge24_Node000013_Node000010" class="edge">
<title>Node13&#45;&gt;Node10</title>
<g id="a_edge24_Node000013_Node000010"><a xlink:title=" ">
<path fill="none" stroke="#63b8ff" d="M573.92,-333.68C519.85,-327.88 434.79,-316.02 364,-294 308.75,-276.81 281.85,-284.41 246,-239 236.09,-226.44 233.17,-208.24 232.54,-194.55"/>
<polygon fill="#63b8ff" stroke="#63b8ff" points="236.04,-194.29 232.45,-184.32 229.04,-194.35 236.04,-194.29"/>
</a>
</g>
</g>
<!-- Node14 -->
<g id="Node000014" class="node">
<title>Node14</title>
<g id="a_Node000014"><a xlink:title=" ">
<polygon fill="#e0e0e0" stroke="#999999" points="791.5,-294 744.5,-294 744.5,-275 791.5,-275 791.5,-294"/>
<text text-anchor="middle" x="768" y="-282" font-family="Helvetica,sans-Serif" font-size="10.00">vector</text>
</a>
</g>
</g>
<!-- Node13&#45;&gt;Node14 -->
<g id="edge25_Node000013_Node000014" class="edge">
<title>Node13&#45;&gt;Node14</title>
<g id="a_edge25_Node000013_Node000014"><a xlink:title=" ">
<path fill="none" stroke="#63b8ff" d="M650.49,-329.98C673.52,-321.27 709.54,-307.63 735.63,-297.75"/>
<polygon fill="#63b8ff" stroke="#63b8ff" points="736.98,-300.98 745.1,-294.17 734.51,-294.44 736.98,-300.98"/>
</a>
</g>
</g>
<!-- Node15 -->
<g id="Node000015" class="node">
<title>Node15</title>
<g id="a_Node000015"><a xlink:title=" ">
<polygon fill="#e0e0e0" stroke="#999999" points="874,-294 810,-294 810,-275 874,-275 874,-294"/>
<text text-anchor="middle" x="842" y="-282" font-family="Helvetica,sans-Serif" font-size="10.00">algorithm</text>
</a>
</g>
</g>
<!-- Node13&#45;&gt;Node15 -->
<g id="edge26_Node000013_Node000015" class="edge">
<title>Node13&#45;&gt;Node15</title>
<g id="a_edge26_Node000013_Node000015"><a xlink:title=" ">
<path fill="none" stroke="#63b8ff" d="M662.38,-329.98C699.85,-320.71 759.81,-305.85 800.03,-295.89"/>
<polygon fill="#63b8ff" stroke="#63b8ff" points="800.94,-299.28 809.8,-293.47 799.25,-292.48 800.94,-299.28"/>
</a>
</g>
</g>
<!-- Node16 -->
<g id="Node000016" class="node">
<title>Node16</title>
<g id="a_Node000016"><a xlink:title=" ">
<polygon fill="#e0e0e0" stroke="#999999" points="650,-294 606,-294 606,-275 650,-275 650,-294"/>
<text text-anchor="middle" x="628" y="-282" font-family="Helvetica,sans-Serif" font-size="10.00">limits</text>
</a>
</g>
</g>
<!-- Node13&#45;&gt;Node16 -->
<g id="edge27_Node000013_Node000016" class="edge">
<title>Node13&#45;&gt;Node16</title>
<g id="a_edge27_Node000013_Node000016"><a xlink:title=" ">
<path fill="none" stroke="#63b8ff" d="M628,-329.75C628,-322.8 628,-312.85 628,-304.13"/>
<polygon fill="#63b8ff" stroke="#63b8ff" points="631.5,-304.09 628,-294.09 624.5,-304.09 631.5,-304.09"/>
</a>
</g>
</g>
</g>
</svg>
