<?xml version="1.0" encoding="UTF-8" standalone="no"?>
<!DOCTYPE svg PUBLIC "-//W3C//DTD SVG 1.1//EN"
 "http://www.w3.org/Graphics/SVG/1.1/DTD/svg11.dtd">
<!-- Generated by graphviz version 2.43.0 (0)
 -->
<!-- Title: RayTracer::ILight::position Pages: 1 -->
<svg width="590pt" height="51pt"
 viewBox="0.00 0.00 590.00 50.50" xmlns="http://www.w3.org/2000/svg" xmlns:xlink="http://www.w3.org/1999/xlink">
<g id="graph0" class="graph" transform="scale(1 1) rotate(0) translate(4 46.5)">
<title>RayTracer::ILight::position</title>
<!-- Node1 -->
<g id="Node000001" class="node">
<title>Node1</title>
<g id="a_Node000001"><a xlink:title="Retrieve the light’s world&#45;space position if applicable.">
<polygon fill="#999999" stroke="#666666" points="582,-30 478,-30 478,0 582,0 582,-30"/>
<text text-anchor="start" x="486" y="-18" font-family="Helvetica,sans-Serif" font-size="10.00">RayTracer::ILight::</text>
<text text-anchor="middle" x="530" y="-7" font-family="Helvetica,sans-Serif" font-size="10.00">position</text>
</a>
</g>
</g>
<!-- Node2 -->
<g id="Node000002" class="node">
<title>Node2</title>
<g id="a_Node000002"><a xlink:href="../../d1/df4/namespaceRayTracer.html#ab1ca8a59872e03b73fafc26443c5c1df" target="_top" xlink:title="Recursive path&#45;tracing integrator.">
<polygon fill="white" stroke="#666666" points="442,-24.5 342,-24.5 342,-5.5 442,-5.5 442,-24.5"/>
<text text-anchor="middle" x="392" y="-12.5" font-family="Helvetica,sans-Serif" font-size="10.00">RayTracer::shade</text>
</a>
</g>
</g>
<!-- Node1&#45;&gt;Node2 -->
<g id="edge1_Node000001_Node000002" class="edge">
<title>Node1&#45;&gt;Node2</title>
<g id="a_edge1_Node000001_Node000002"><a xlink:title=" ">
<path fill="none" stroke="#63b8ff" d="M467.91,-15C459.26,-15 450.45,-15 442.06,-15"/>
<polygon fill="#63b8ff" stroke="#63b8ff" points="467.97,-18.5 477.97,-15 467.97,-11.5 467.97,-18.5"/>
</a>
</g>
</g>
<!-- Node2&#45;&gt;Node2 -->
<g id="edge5_Node000002_Node000002" class="edge">
<title>Node2&#45;&gt;Node2</title>
<g id="a_edge5_Node000002_Node000002"><a xlink:title=" ">
<path fill="none" stroke="#63b8ff" d="M417.67,-33.69C416.27,-38.7 407.71,-42.5 392,-42.5 367.47,-42.5 360.38,-33.23 370.73,-24.58"/>
<polygon fill="#63b8ff" stroke="#63b8ff" points="420.77,-32.06 413.27,-24.58 414.47,-35.11 420.77,-32.06"/>
</a>
</g>
</g>
<!-- Node3 -->
<g id="Node000003" class="node">
<title>Node3</title>
<g id="a_Node000003"><a xlink:href="../../d4/d3d/namespaceUtils.html#a8e063dafa9ed499eae606a8effdb5130" target="_top" xlink:title="Performs the raytracing process and produces the framebuffer.">
<polygon fill="white" stroke="#666666" points="306,-24.5 199,-24.5 199,-5.5 306,-5.5 306,-24.5"/>
<text text-anchor="middle" x="252.5" y="-12.5" font-family="Helvetica,sans-Serif" font-size="10.00">Utils::renderImage</text>
</a>
</g>
</g>
<!-- Node2&#45;&gt;Node3 -->
<g id="edge2_Node000002_Node000003" class="edge">
<title>Node2&#45;&gt;Node3</title>
<g id="a_edge2_Node000002_Node000003"><a xlink:title=" ">
<path fill="none" stroke="#63b8ff" d="M331.56,-15C323.1,-15 314.45,-15 306.13,-15"/>
<polygon fill="#63b8ff" stroke="#63b8ff" points="331.75,-18.5 341.75,-15 331.75,-11.5 331.75,-18.5"/>
</a>
</g>
</g>
<!-- Node4 -->
<g id="Node000004" class="node">
<title>Node4</title>
<g id="a_Node000004"><a xlink:href="../../dd/dea/classRaytracer.html#a844a5a660abbb9d21608fc170074e0c5" target="_top" xlink:title="Launch the raytracing process.">
<polygon fill="white" stroke="#666666" points="163,-24.5 77,-24.5 77,-5.5 163,-5.5 163,-24.5"/>
<text text-anchor="middle" x="120" y="-12.5" font-family="Helvetica,sans-Serif" font-size="10.00">Raytracer::run</text>
</a>
</g>
</g>
<!-- Node3&#45;&gt;Node4 -->
<g id="edge3_Node000003_Node000004" class="edge">
<title>Node3&#45;&gt;Node4</title>
<g id="a_edge3_Node000003_Node000004"><a xlink:title=" ">
<path fill="none" stroke="#63b8ff" d="M188.67,-15C179.99,-15 171.25,-15 163.07,-15"/>
<polygon fill="#63b8ff" stroke="#63b8ff" points="188.8,-18.5 198.8,-15 188.8,-11.5 188.8,-18.5"/>
</a>
</g>
</g>
<!-- Node5 -->
<g id="Node000005" class="node">
<title>Node5</title>
<g id="a_Node000005"><a xlink:href="../../df/d0a/main_8cpp.html#a0ddf1224851353fc92bfbff6f499fa97" target="_top" xlink:title="Raimond is a good Raytracer. Logic, it&#39;s Raimond.">
<polygon fill="white" stroke="#666666" points="41,-24.5 0,-24.5 0,-5.5 41,-5.5 41,-24.5"/>
<text text-anchor="middle" x="20.5" y="-12.5" font-family="Helvetica,sans-Serif" font-size="10.00">main</text>
</a>
</g>
</g>
<!-- Node4&#45;&gt;Node5 -->
<g id="edge4_Node000004_Node000005" class="edge">
<title>Node4&#45;&gt;Node5</title>
<g id="a_edge4_Node000004_Node000005"><a xlink:title=" ">
<path fill="none" stroke="#63b8ff" d="M66.52,-15C57.42,-15 48.5,-15 41.03,-15"/>
<polygon fill="#63b8ff" stroke="#63b8ff" points="66.8,-18.5 76.8,-15 66.8,-11.5 66.8,-18.5"/>
</a>
</g>
</g>
</g>
</svg>
