<?xml version="1.0" encoding="UTF-8" standalone="no"?>
<!DOCTYPE svg PUBLIC "-//W3C//DTD SVG 1.1//EN"
 "http://www.w3.org/Graphics/SVG/1.1/DTD/svg11.dtd">
<!-- Generated by graphviz version 2.43.0 (0)
 -->
<!-- Title: RayTracer::Matrix::hits Pages: 1 -->
<svg width="322pt" height="64pt"
 viewBox="0.00 0.00 322.00 64.00" xmlns="http://www.w3.org/2000/svg" xmlns:xlink="http://www.w3.org/1999/xlink">
<g id="graph0" class="graph" transform="scale(1 1) rotate(0) translate(4 60)">
<title>RayTracer::Matrix::hits</title>
<!-- Node1 -->
<g id="Node000001" class="node">
<title>Node1</title>
<g id="a_Node000001"><a xlink:title="Perform ray–transformed&#45;primitive intersection test.">
<polygon fill="#999999" stroke="#666666" points="126,-37 0,-37 0,-18 126,-18 126,-37"/>
<text text-anchor="middle" x="63" y="-25" font-family="Helvetica,sans-Serif" font-size="10.00">RayTracer::Matrix::hits</text>
</a>
</g>
</g>
<!-- Node2 -->
<g id="Node000002" class="node">
<title>Node2</title>
<g id="a_Node000002"><a xlink:href="../../dd/d52/Matrix_8cpp.html#a3a0f50a7a24b1a3ee5904edaea3c93f3" target="_top" xlink:title=" ">
<polygon fill="white" stroke="#666666" points="261.5,-56 214.5,-56 214.5,-37 261.5,-37 261.5,-56"/>
<text text-anchor="middle" x="238" y="-44" font-family="Helvetica,sans-Serif" font-size="10.00">mul33</text>
</a>
</g>
</g>
<!-- Node1&#45;&gt;Node2 -->
<g id="edge1_Node000001_Node000002" class="edge">
<title>Node1&#45;&gt;Node2</title>
<g id="a_edge1_Node000001_Node000002"><a xlink:title=" ">
<path fill="none" stroke="#63b8ff" d="M126.46,-34.36C152.74,-37.25 182.24,-40.49 204.15,-42.89"/>
<polygon fill="#63b8ff" stroke="#63b8ff" points="203.93,-46.39 214.25,-44 204.69,-39.43 203.93,-46.39"/>
</a>
</g>
</g>
<!-- Node3 -->
<g id="Node000003" class="node">
<title>Node3</title>
<g id="a_Node000003"><a xlink:href="../../d6/d30/structMath_1_1Vector3D.html#a598b2b7fe5b2b34c111ee68015080334" target="_top" xlink:title="Returns a normalized (unit&#45;length) copy of the vector.">
<polygon fill="white" stroke="#666666" points="314,-19 162,-19 162,0 314,0 314,-19"/>
<text text-anchor="middle" x="238" y="-7" font-family="Helvetica,sans-Serif" font-size="10.00">Math::Vector3D::normalized</text>
</a>
</g>
</g>
<!-- Node1&#45;&gt;Node3 -->
<g id="edge2_Node000001_Node000003" class="edge">
<title>Node1&#45;&gt;Node3</title>
<g id="a_edge2_Node000001_Node000003"><a xlink:title=" ">
<path fill="none" stroke="#63b8ff" d="M126.46,-21C134.74,-20.14 143.33,-19.25 151.91,-18.35"/>
<polygon fill="#63b8ff" stroke="#63b8ff" points="152.37,-21.82 161.95,-17.31 151.64,-14.86 152.37,-21.82"/>
</a>
</g>
</g>
</g>
</svg>
