<?xml version="1.0" encoding="UTF-8" standalone="no"?>
<!DOCTYPE svg PUBLIC "-//W3C//DTD SVG 1.1//EN"
 "http://www.w3.org/Graphics/SVG/1.1/DTD/svg11.dtd">
<!-- Generated by graphviz version 2.43.0 (0)
 -->
<!-- Title: Utils::buildBVH Pages: 1 -->
<svg width="261pt" height="64pt"
 viewBox="0.00 0.00 261.00 64.00" xmlns="http://www.w3.org/2000/svg" xmlns:xlink="http://www.w3.org/1999/xlink">
<g id="graph0" class="graph" transform="scale(1 1) rotate(0) translate(4 60)">
<title>Utils::buildBVH</title>
<!-- Node1 -->
<g id="Node000001" class="node">
<title>Node1</title>
<g id="a_Node000001"><a xlink:title="Builds a BVH from a list of smart pointers to primitives.">
<polygon fill="#999999" stroke="#666666" points="90,-37 0,-37 0,-18 90,-18 90,-37"/>
<text text-anchor="middle" x="45" y="-25" font-family="Helvetica,sans-Serif" font-size="10.00">Utils::buildBVH</text>
</a>
</g>
</g>
<!-- Node2 -->
<g id="Node000002" class="node">
<title>Node2</title>
<g id="a_Node000002"><a xlink:href="../../d1/df4/namespaceRayTracer.html#abe4ebec0fced68876c86cde562a43377" target="_top" xlink:title=" ">
<polygon fill="white" stroke="#666666" points="247.5,-56 131.5,-56 131.5,-37 247.5,-37 247.5,-56"/>
<text text-anchor="middle" x="189.5" y="-44" font-family="Helvetica,sans-Serif" font-size="10.00">RayTracer::buildBVH</text>
</a>
</g>
</g>
<!-- Node1&#45;&gt;Node2 -->
<g id="edge1_Node000001_Node000002" class="edge">
<title>Node1&#45;&gt;Node2</title>
<g id="a_edge1_Node000001_Node000002"><a xlink:title=" ">
<path fill="none" stroke="#63b8ff" d="M90.31,-33.41C100.15,-34.72 110.8,-36.14 121.33,-37.54"/>
<polygon fill="#63b8ff" stroke="#63b8ff" points="120.98,-41.03 131.36,-38.88 121.91,-34.09 120.98,-41.03"/>
</a>
</g>
</g>
<!-- Node3 -->
<g id="Node000003" class="node">
<title>Node3</title>
<g id="a_Node000003"><a xlink:href="../../d4/d3d/namespaceUtils.html#a4ba3286c32e42accbb64c604ca149a6d" target="_top" xlink:title="Extracts raw pointers to primitives from shared_ptr objects.">
<polygon fill="white" stroke="#666666" points="253,-19 126,-19 126,0 253,0 253,-19"/>
<text text-anchor="middle" x="189.5" y="-7" font-family="Helvetica,sans-Serif" font-size="10.00">Utils::collectPrimitives</text>
</a>
</g>
</g>
<!-- Node1&#45;&gt;Node3 -->
<g id="edge2_Node000001_Node000003" class="edge">
<title>Node1&#45;&gt;Node3</title>
<g id="a_edge2_Node000001_Node000003"><a xlink:title=" ">
<path fill="none" stroke="#63b8ff" d="M90.31,-21.9C98.41,-20.88 107.06,-19.79 115.74,-18.69"/>
<polygon fill="#63b8ff" stroke="#63b8ff" points="116.43,-22.13 125.91,-17.41 115.55,-15.19 116.43,-22.13"/>
</a>
</g>
</g>
</g>
</svg>
