<?xml version="1.0" encoding="UTF-8" standalone="no"?>
<!DOCTYPE svg PUBLIC "-//W3C//DTD SVG 1.1//EN"
 "http://www.w3.org/Graphics/SVG/1.1/DTD/svg11.dtd">
<!-- Generated by graphviz version 2.43.0 (0)
 -->
<!-- Title: Utils::renderImage Pages: 1 -->
<svg width="672pt" height="398pt"
 viewBox="0.00 0.00 672.00 397.50" xmlns="http://www.w3.org/2000/svg" xmlns:xlink="http://www.w3.org/1999/xlink">
<g id="graph0" class="graph" transform="scale(1 1) rotate(0) translate(4 393.5)">
<title>Utils::renderImage</title>
<!-- Node1 -->
<g id="Node000001" class="node">
<title>Node1</title>
<g id="a_Node000001"><a xlink:title="Performs the raytracing process and produces the framebuffer.">
<polygon fill="#999999" stroke="#666666" points="107,-279 0,-279 0,-260 107,-260 107,-279"/>
<text text-anchor="middle" x="53.5" y="-267" font-family="Helvetica,sans-Serif" font-size="10.00">Utils::renderImage</text>
</a>
</g>
</g>
<!-- Node2 -->
<g id="Node000002" class="node">
<title>Node2</title>
<g id="a_Node000002"><a xlink:href="../../d9/d83/namespaceUtils_1_1Parallel.html#ab44c0e5cb1b952802aa37c4f94242ab6" target="_top" xlink:title="Execute a parallel for loop from start to end &#45; 1.">
<polygon fill="white" stroke="#666666" points="270.5,-335 146.5,-335 146.5,-316 270.5,-316 270.5,-335"/>
<text text-anchor="middle" x="208.5" y="-323" font-family="Helvetica,sans-Serif" font-size="10.00">Utils::Parallel::forLoop</text>
</a>
</g>
</g>
<!-- Node1&#45;&gt;Node2 -->
<g id="edge1_Node000001_Node000002" class="edge">
<title>Node1&#45;&gt;Node2</title>
<g id="a_edge1_Node000001_Node000002"><a xlink:title=" ">
<path fill="none" stroke="#63b8ff" d="M74.58,-279.04C92.32,-287.24 119.03,-299.05 143,-307.5 148.55,-309.46 154.43,-311.34 160.28,-313.11"/>
<polygon fill="#63b8ff" stroke="#63b8ff" points="159.48,-316.52 170.06,-315.96 161.44,-309.8 159.48,-316.52"/>
</a>
</g>
</g>
<!-- Node3 -->
<g id="Node000003" class="node">
<title>Node3</title>
<g id="a_Node000003"><a xlink:href="../../d4/d3d/namespaceUtils.html#aaf2c4e5a59ec45284cfcdf257a9218f1" target="_top" xlink:title="Prints a terminal progress bar for rendering.">
<polygon fill="white" stroke="#666666" points="271.5,-298 145.5,-298 145.5,-279 271.5,-279 271.5,-298"/>
<text text-anchor="middle" x="208.5" y="-286" font-family="Helvetica,sans-Serif" font-size="10.00">Utils::PrintProgressBar</text>
</a>
</g>
</g>
<!-- Node1&#45;&gt;Node3 -->
<g id="edge2_Node000001_Node000003" class="edge">
<title>Node1&#45;&gt;Node3</title>
<g id="a_edge2_Node000001_Node000003"><a xlink:title=" ">
<path fill="none" stroke="#63b8ff" d="M107.15,-276.04C116.17,-277.16 125.67,-278.34 135.09,-279.51"/>
<polygon fill="#63b8ff" stroke="#63b8ff" points="134.9,-283.01 145.26,-280.77 135.77,-276.06 134.9,-283.01"/>
</a>
</g>
</g>
<!-- Node4 -->
<g id="Node000004" class="node">
<title>Node4</title>
<g id="a_Node000004"><a xlink:href="../../dc/dd2/classRayTracer_1_1Camera.html#a6e15aa9e80304dd752366647553f2f5f" target="_top" xlink:title="Generate a primary ray through screen coordinates *(s,t)*.">
<polygon fill="white" stroke="#666666" points="274,-261 143,-261 143,-242 274,-242 274,-261"/>
<text text-anchor="middle" x="208.5" y="-249" font-family="Helvetica,sans-Serif" font-size="10.00">RayTracer::Camera::ray</text>
</a>
</g>
</g>
<!-- Node1&#45;&gt;Node4 -->
<g id="edge3_Node000001_Node000004" class="edge">
<title>Node1&#45;&gt;Node4</title>
<g id="a_edge3_Node000001_Node000004"><a xlink:title=" ">
<path fill="none" stroke="#63b8ff" d="M107.15,-263.31C115.42,-262.33 124.09,-261.31 132.74,-260.3"/>
<polygon fill="#63b8ff" stroke="#63b8ff" points="133.33,-263.75 142.85,-259.11 132.51,-256.8 133.33,-263.75"/>
</a>
</g>
</g>
<!-- Node5 -->
<g id="Node000005" class="node">
<title>Node5</title>
<g id="a_Node000005"><a xlink:href="../../d1/df4/namespaceRayTracer.html#ab1ca8a59872e03b73fafc26443c5c1df" target="_top" xlink:title="Recursive path&#45;tracing integrator.">
<polygon fill="white" stroke="#666666" points="258.5,-206 158.5,-206 158.5,-187 258.5,-187 258.5,-206"/>
<text text-anchor="middle" x="208.5" y="-194" font-family="Helvetica,sans-Serif" font-size="10.00">RayTracer::shade</text>
</a>
</g>
</g>
<!-- Node1&#45;&gt;Node5 -->
<g id="edge4_Node000001_Node000005" class="edge">
<title>Node1&#45;&gt;Node5</title>
<g id="a_edge4_Node000001_Node000005"><a xlink:title=" ">
<path fill="none" stroke="#63b8ff" d="M74.5,-259.96C100.96,-247.33 147.79,-224.99 178.23,-210.46"/>
<polygon fill="#63b8ff" stroke="#63b8ff" points="179.97,-213.51 187.49,-206.05 176.96,-207.19 179.97,-213.51"/>
</a>
</g>
</g>
<!-- Node5&#45;&gt;Node5 -->
<g id="edge17_Node000005_Node000005" class="edge">
<title>Node5&#45;&gt;Node5</title>
<g id="a_edge17_Node000005_Node000005"><a xlink:title=" ">
<path fill="none" stroke="#63b8ff" d="M184.76,-206.08C173.22,-214.73 181.13,-224 208.5,-224 226.46,-224 236.04,-220.01 237.25,-214.82"/>
<polygon fill="#63b8ff" stroke="#63b8ff" points="240.25,-213.02 232.24,-206.08 234.17,-216.5 240.25,-213.02"/>
</a>
</g>
</g>
<!-- Node6 -->
<g id="Node000006" class="node">
<title>Node6</title>
<g id="a_Node000006"><a xlink:href="../../d0/d82/classRayTracer_1_1ILight.html#a47469714a2ccb5287845a4f059f224cf" target="_top" xlink:title="Compute the incoming light direction at a surface point.">
<polygon fill="white" stroke="#666666" points="445,-389.5 341,-389.5 341,-359.5 445,-359.5 445,-389.5"/>
<text text-anchor="start" x="349" y="-377.5" font-family="Helvetica,sans-Serif" font-size="10.00">RayTracer::ILight::</text>
<text text-anchor="middle" x="393" y="-366.5" font-family="Helvetica,sans-Serif" font-size="10.00">direction</text>
</a>
</g>
</g>
<!-- Node5&#45;&gt;Node6 -->
<g id="edge5_Node000005_Node000006" class="edge">
<title>Node5&#45;&gt;Node6</title>
<g id="a_edge5_Node000005_Node000006"><a xlink:title=" ">
<path fill="none" stroke="#63b8ff" d="M235.55,-206.09C248.73,-212.13 264.01,-221.16 274,-233.5 306.9,-274.14 273.57,-308 310,-345.5 316.12,-351.8 323.68,-356.73 331.72,-360.59"/>
<polygon fill="#63b8ff" stroke="#63b8ff" points="330.38,-363.82 340.95,-364.51 333.12,-357.38 330.38,-363.82"/>
</a>
</g>
</g>
<!-- Node7 -->
<g id="Node000007" class="node">
<title>Node7</title>
<g id="a_Node000007"><a xlink:href="../../d6/d30/structMath_1_1Vector3D.html#aa57c357f4be8837461cdd32bd3e5d7dc" target="_top" xlink:title="Computes the dot product between this and another vector.">
<polygon fill="white" stroke="#666666" points="644.5,-340 531.5,-340 531.5,-321 644.5,-321 644.5,-340"/>
<text text-anchor="middle" x="588" y="-328" font-family="Helvetica,sans-Serif" font-size="10.00">Math::Vector3D::dot</text>
</a>
</g>
</g>
<!-- Node5&#45;&gt;Node7 -->
<g id="edge6_Node000005_Node000007" class="edge">
<title>Node5&#45;&gt;Node7</title>
<g id="a_edge6_Node000005_Node000007"><a xlink:title=" ">
<path fill="none" stroke="#63b8ff" d="M233.16,-206.06C246.43,-212.33 262.55,-221.58 274,-233.5 297.97,-258.44 281.36,-283.1 310,-302.5 372.23,-344.65 461.07,-345.92 521.22,-340.43"/>
<polygon fill="#63b8ff" stroke="#63b8ff" points="521.76,-343.89 531.37,-339.41 521.07,-336.93 521.76,-343.89"/>
</a>
</g>
</g>
<!-- Node8 -->
<g id="Node000008" class="node">
<title>Node8</title>
<g id="a_Node000008"><a xlink:href="../../dc/d25/classRayTracer_1_1Scene.html#adb32144e3e23e2bb9a6e6d702f6d52e7" target="_top" xlink:title="Intersect a ray with all objects in the scene.">
<polygon fill="white" stroke="#666666" points="452.5,-228 333.5,-228 333.5,-209 452.5,-209 452.5,-228"/>
<text text-anchor="middle" x="393" y="-216" font-family="Helvetica,sans-Serif" font-size="10.00">RayTracer::Scene::hit</text>
</a>
</g>
</g>
<!-- Node5&#45;&gt;Node8 -->
<g id="edge7_Node000005_Node000008" class="edge">
<title>Node5&#45;&gt;Node8</title>
<g id="a_edge7_Node000005_Node000008"><a xlink:title=" ">
<path fill="none" stroke="#63b8ff" d="M258.89,-202.45C278.75,-204.85 302,-207.65 323.46,-210.24"/>
<polygon fill="#63b8ff" stroke="#63b8ff" points="323.15,-213.73 333.5,-211.45 323.99,-206.78 323.15,-213.73"/>
</a>
</g>
</g>
<!-- Node9 -->
<g id="Node000009" class="node">
<title>Node9</title>
<g id="a_Node000009"><a xlink:href="../../d0/d82/classRayTracer_1_1ILight.html#a38eab6f380194227f9c1085260092315" target="_top" xlink:title="Get the scalar intensity (power) of the light.">
<polygon fill="white" stroke="#666666" points="445,-190.5 341,-190.5 341,-160.5 445,-160.5 445,-190.5"/>
<text text-anchor="start" x="349" y="-178.5" font-family="Helvetica,sans-Serif" font-size="10.00">RayTracer::ILight::</text>
<text text-anchor="middle" x="393" y="-167.5" font-family="Helvetica,sans-Serif" font-size="10.00">intensity</text>
</a>
</g>
</g>
<!-- Node5&#45;&gt;Node9 -->
<g id="edge8_Node000005_Node000009" class="edge">
<title>Node5&#45;&gt;Node9</title>
<g id="a_edge8_Node000005_Node000009"><a xlink:title=" ">
<path fill="none" stroke="#63b8ff" d="M258.89,-190.82C281.05,-188.27 307.42,-185.23 330.81,-182.54"/>
<polygon fill="#63b8ff" stroke="#63b8ff" points="331.45,-185.99 340.98,-181.37 330.65,-179.04 331.45,-185.99"/>
</a>
</g>
</g>
<!-- Node10 -->
<g id="Node000010" class="node">
<title>Node10</title>
<g id="a_Node000010"><a xlink:href="../../d6/d30/structMath_1_1Vector3D.html#a598b2b7fe5b2b34c111ee68015080334" target="_top" xlink:title="Returns a normalized (unit&#45;length) copy of the vector.">
<polygon fill="white" stroke="#666666" points="469,-142 317,-142 317,-123 469,-123 469,-142"/>
<text text-anchor="middle" x="393" y="-130" font-family="Helvetica,sans-Serif" font-size="10.00">Math::Vector3D::normalized</text>
</a>
</g>
</g>
<!-- Node5&#45;&gt;Node10 -->
<g id="edge9_Node000005_Node000010" class="edge">
<title>Node5&#45;&gt;Node10</title>
<g id="a_edge9_Node000005_Node000010"><a xlink:title=" ">
<path fill="none" stroke="#63b8ff" d="M227.96,-186.93C247.8,-176.96 280.46,-161.43 310,-151.5 317.68,-148.92 325.88,-146.56 334.02,-144.46"/>
<polygon fill="#63b8ff" stroke="#63b8ff" points="335,-147.82 343.87,-142.01 333.32,-141.02 335,-147.82"/>
</a>
</g>
</g>
<!-- Node11 -->
<g id="Node000011" class="node">
<title>Node11</title>
<g id="a_Node000011"><a xlink:href="../../d0/d82/classRayTracer_1_1ILight.html#ab7ee56a002dd2f9adbee38aaee4b1538" target="_top" xlink:title="Retrieve the light’s world&#45;space position if applicable.">
<polygon fill="white" stroke="#666666" points="445,-104.5 341,-104.5 341,-74.5 445,-74.5 445,-104.5"/>
<text text-anchor="start" x="349" y="-92.5" font-family="Helvetica,sans-Serif" font-size="10.00">RayTracer::ILight::</text>
<text text-anchor="middle" x="393" y="-81.5" font-family="Helvetica,sans-Serif" font-size="10.00">position</text>
</a>
</g>
</g>
<!-- Node5&#45;&gt;Node11 -->
<g id="edge10_Node000005_Node000011" class="edge">
<title>Node5&#45;&gt;Node11</title>
<g id="a_edge10_Node000005_Node000011"><a xlink:title=" ">
<path fill="none" stroke="#63b8ff" d="M218.52,-186.81C235.05,-169.6 272.01,-133.64 310,-113.5 316.58,-110.01 323.73,-106.97 330.97,-104.33"/>
<polygon fill="#63b8ff" stroke="#63b8ff" points="332.52,-107.5 340.87,-100.98 330.27,-100.87 332.52,-107.5"/>
</a>
</g>
</g>
<!-- Node12 -->
<g id="Node000012" class="node">
<title>Node12</title>
<g id="a_Node000012"><a xlink:href="../../d1/df4/namespaceRayTracer.html#ae95ed0335c1ba084545f21d7f61c8942" target="_top" xlink:title="Generate a single uniform random number in [0,1).">
<polygon fill="white" stroke="#666666" points="640,-302 536,-302 536,-283 640,-283 640,-302"/>
<text text-anchor="middle" x="588" y="-290" font-family="Helvetica,sans-Serif" font-size="10.00">RayTracer::rand01</text>
</a>
</g>
</g>
<!-- Node5&#45;&gt;Node12 -->
<g id="edge11_Node000005_Node000012" class="edge">
<title>Node5&#45;&gt;Node12</title>
<g id="a_edge11_Node000005_Node000012"><a xlink:title=" ">
<path fill="none" stroke="#63b8ff" d="M230.07,-206.09C243.31,-212.78 260.51,-222.47 274,-233.5 292.77,-248.85 288.24,-263.79 310,-274.5 378.01,-307.99 467.03,-307.12 525.56,-301.47"/>
<polygon fill="#63b8ff" stroke="#63b8ff" points="526.18,-304.92 535.76,-300.41 525.45,-297.96 526.18,-304.92"/>
</a>
</g>
</g>
<!-- Node13 -->
<g id="Node000013" class="node">
<title>Node13</title>
<g id="a_Node000013"><a xlink:href="../../d1/df4/namespaceRayTracer.html#ab7c27bbad4b80e8966900494064dbb20" target="_top" xlink:title="Cosine&#45;weighted hemisphere sampling around a shading normal.">
<polygon fill="white" stroke="#666666" points="476,-265 310,-265 310,-246 476,-246 476,-265"/>
<text text-anchor="middle" x="393" y="-253" font-family="Helvetica,sans-Serif" font-size="10.00">RayTracer::sampleHemisphere</text>
</a>
</g>
</g>
<!-- Node5&#45;&gt;Node13 -->
<g id="edge12_Node000005_Node000013" class="edge">
<title>Node5&#45;&gt;Node13</title>
<g id="a_edge12_Node000005_Node000013"><a xlink:title=" ">
<path fill="none" stroke="#63b8ff" d="M229.91,-206.04C249.95,-215.11 281.57,-228.65 310,-237.5 317.06,-239.7 324.55,-241.73 332.01,-243.58"/>
<polygon fill="#63b8ff" stroke="#63b8ff" points="331.24,-246.99 341.77,-245.9 332.86,-240.18 331.24,-246.99"/>
</a>
</g>
</g>
<!-- Node16 -->
<g id="Node000016" class="node">
<title>Node16</title>
<g id="a_Node000016"><a xlink:href="../../db/d92/namespaceSkybox.html#a4a9c986d1ee3f28f9b2e419b743f5ebf" target="_top" xlink:title="Procedural horizon&#45;to&#45;zenith gradient.">
<polygon fill="white" stroke="#666666" points="451,-56 335,-56 335,-37 451,-37 451,-56"/>
<text text-anchor="middle" x="393" y="-44" font-family="Helvetica,sans-Serif" font-size="10.00">Skybox::skyGradient</text>
</a>
</g>
</g>
<!-- Node5&#45;&gt;Node16 -->
<g id="edge18_Node000005_Node000016" class="edge">
<title>Node5&#45;&gt;Node16</title>
<g id="a_edge18_Node000005_Node000016"><a xlink:title=" ">
<path fill="none" stroke="#63b8ff" d="M213.99,-186.76C225.87,-162.18 260.59,-97.31 310,-65.5 314.68,-62.48 319.79,-59.94 325.09,-57.81"/>
<polygon fill="#63b8ff" stroke="#63b8ff" points="326.53,-61.01 334.79,-54.38 324.2,-54.41 326.53,-61.01"/>
</a>
</g>
</g>
<!-- Node18 -->
<g id="Node000018" class="node">
<title>Node18</title>
<g id="a_Node000018"><a xlink:href="../../d0/d82/classRayTracer_1_1ILight.html#a4aaa93d94da7fc685a2a98a57310b3e5" target="_top" xlink:title="Get the type of this light.">
<polygon fill="white" stroke="#666666" points="455.5,-19 330.5,-19 330.5,0 455.5,0 455.5,-19"/>
<text text-anchor="middle" x="393" y="-7" font-family="Helvetica,sans-Serif" font-size="10.00">RayTracer::ILight::type</text>
</a>
</g>
</g>
<!-- Node5&#45;&gt;Node18 -->
<g id="edge20_Node000005_Node000018" class="edge">
<title>Node5&#45;&gt;Node18</title>
<g id="a_edge20_Node000005_Node000018"><a xlink:title=" ">
<path fill="none" stroke="#63b8ff" d="M212.19,-186.99C220.91,-157.96 251.32,-69.85 310,-27.5 313.46,-25 317.19,-22.85 321.1,-20.98"/>
<polygon fill="#63b8ff" stroke="#63b8ff" points="322.56,-24.16 330.48,-17.12 319.9,-17.69 322.56,-24.16"/>
</a>
</g>
</g>
<!-- Node13&#45;&gt;Node7 -->
<g id="edge14_Node000013_Node000007" class="edge">
<title>Node13&#45;&gt;Node7</title>
<g id="a_edge14_Node000013_Node000007"><a xlink:title=" ">
<path fill="none" stroke="#63b8ff" d="M411.53,-265.15C434.18,-277.31 475.09,-298.21 512,-311.5 518.86,-313.97 526.19,-316.25 533.48,-318.3"/>
<polygon fill="#63b8ff" stroke="#63b8ff" points="532.77,-321.74 543.34,-320.97 534.59,-314.98 532.77,-321.74"/>
</a>
</g>
</g>
<!-- Node13&#45;&gt;Node12 -->
<g id="edge16_Node000013_Node000012" class="edge">
<title>Node13&#45;&gt;Node12</title>
<g id="a_edge16_Node000013_Node000012"><a xlink:title=" ">
<path fill="none" stroke="#63b8ff" d="M443.7,-265.03C469.15,-269.91 500.34,-275.89 527.11,-281.02"/>
<polygon fill="#63b8ff" stroke="#63b8ff" points="526.65,-284.49 537.13,-282.94 527.97,-277.62 526.65,-284.49"/>
</a>
</g>
</g>
<!-- Node14 -->
<g id="Node000014" class="node">
<title>Node14</title>
<g id="a_Node000014"><a xlink:href="../../d6/d30/structMath_1_1Vector3D.html#ad9bca728f96bfb94acebaf6cc63109c3" target="_top" xlink:title="Computes the cross product between this and another vector.">
<polygon fill="white" stroke="#666666" points="649.5,-228 526.5,-228 526.5,-209 649.5,-209 649.5,-228"/>
<text text-anchor="middle" x="588" y="-216" font-family="Helvetica,sans-Serif" font-size="10.00">Math::Vector3D::cross</text>
</a>
</g>
</g>
<!-- Node13&#45;&gt;Node14 -->
<g id="edge13_Node000013_Node000014" class="edge">
<title>Node13&#45;&gt;Node14</title>
<g id="a_edge13_Node000013_Node000014"><a xlink:title=" ">
<path fill="none" stroke="#63b8ff" d="M443.7,-245.97C469.15,-241.09 500.34,-235.11 527.11,-229.98"/>
<polygon fill="#63b8ff" stroke="#63b8ff" points="527.97,-233.38 537.13,-228.06 526.65,-226.51 527.97,-233.38"/>
</a>
</g>
</g>
<!-- Node15 -->
<g id="Node000015" class="node">
<title>Node15</title>
<g id="a_Node000015"><a xlink:href="../../d6/d30/structMath_1_1Vector3D.html#a4c208026b6867d4c99afa13ddc3b9278" target="_top" xlink:title="Computes the Euclidean length (norm) of the vector.">
<polygon fill="white" stroke="#666666" points="652,-265 524,-265 524,-246 652,-246 652,-265"/>
<text text-anchor="middle" x="588" y="-253" font-family="Helvetica,sans-Serif" font-size="10.00">Math::Vector3D::length</text>
</a>
</g>
</g>
<!-- Node13&#45;&gt;Node15 -->
<g id="edge15_Node000013_Node000015" class="edge">
<title>Node13&#45;&gt;Node15</title>
<g id="a_edge15_Node000013_Node000015"><a xlink:title=" ">
<path fill="none" stroke="#63b8ff" d="M476.13,-255.5C488.63,-255.5 501.47,-255.5 513.76,-255.5"/>
<polygon fill="#63b8ff" stroke="#63b8ff" points="513.95,-259 523.95,-255.5 513.95,-252 513.95,-259"/>
</a>
</g>
</g>
<!-- Node17 -->
<g id="Node000017" class="node">
<title>Node17</title>
<g id="a_Node000017"><a xlink:href="../../d7/de5/structSkybox_1_1PPMImage.html#a8413ea1e39e4485b4d3126688f0f478c" target="_top" xlink:title="Bilinear sample in normalised texture coordinates.">
<polygon fill="white" stroke="#666666" points="664,-56 512,-56 512,-37 664,-37 664,-56"/>
<text text-anchor="middle" x="588" y="-44" font-family="Helvetica,sans-Serif" font-size="10.00">Skybox::PPMImage::sample</text>
</a>
</g>
</g>
<!-- Node16&#45;&gt;Node17 -->
<g id="edge19_Node000016_Node000017" class="edge">
<title>Node16&#45;&gt;Node17</title>
<g id="a_edge19_Node000016_Node000017"><a xlink:title=" ">
<path fill="none" stroke="#63b8ff" d="M451.12,-46.5C467.01,-46.5 484.62,-46.5 501.75,-46.5"/>
<polygon fill="#63b8ff" stroke="#63b8ff" points="501.76,-50 511.76,-46.5 501.76,-43 501.76,-50"/>
</a>
</g>
</g>
</g>
</svg>
