<?xml version="1.0" encoding="UTF-8" standalone="no"?>
<!DOCTYPE svg PUBLIC "-//W3C//DTD SVG 1.1//EN"
 "http://www.w3.org/Graphics/SVG/1.1/DTD/svg11.dtd">
<!-- Generated by graphviz version 2.43.0 (0)
 -->
<!-- Title: Utils::clamp01 Pages: 1 -->
<svg width="396pt" height="64pt"
 viewBox="0.00 0.00 396.00 64.00" xmlns="http://www.w3.org/2000/svg" xmlns:xlink="http://www.w3.org/1999/xlink">
<g id="graph0" class="graph" transform="scale(1 1) rotate(0) translate(4 60)">
<title>Utils::clamp01</title>
<!-- Node1 -->
<g id="Node000001" class="node">
<title>Node1</title>
<g id="a_Node000001"><a xlink:title="Clamp a float to the [0, 1] range.">
<polygon fill="#999999" stroke="#666666" points="388,-37 301,-37 301,-18 388,-18 388,-37"/>
<text text-anchor="middle" x="344.5" y="-25" font-family="Helvetica,sans-Serif" font-size="10.00">Utils::clamp01</text>
</a>
</g>
</g>
<!-- Node2 -->
<g id="Node000002" class="node">
<title>Node2</title>
<g id="a_Node000002"><a xlink:href="../../d4/d3d/namespaceUtils.html#ad8a2928a3b0246297df9d0575ed3abb0" target="_top" xlink:title="Adjusts the contrast of a color.">
<polygon fill="white" stroke="#666666" points="260.5,-56 144.5,-56 144.5,-37 260.5,-37 260.5,-56"/>
<text text-anchor="middle" x="202.5" y="-44" font-family="Helvetica,sans-Serif" font-size="10.00">Utils::adjustContrast</text>
</a>
</g>
</g>
<!-- Node1&#45;&gt;Node2 -->
<g id="edge1_Node000001_Node000002" class="edge">
<title>Node1&#45;&gt;Node2</title>
<g id="a_edge1_Node000001_Node000002"><a xlink:title=" ">
<path fill="none" stroke="#63b8ff" d="M290.73,-34.66C280.92,-35.99 270.64,-37.39 260.71,-38.74"/>
<polygon fill="#63b8ff" stroke="#63b8ff" points="291.3,-38.12 300.73,-33.3 290.35,-31.18 291.3,-38.12"/>
</a>
</g>
</g>
<!-- Node4 -->
<g id="Node000004" class="node">
<title>Node4</title>
<g id="a_Node000004"><a xlink:href="../../d4/d3d/namespaceUtils.html#a89903abd83e955f9cb2ddb628cfb9fb9" target="_top" xlink:title="Adjusts the saturation of a color.">
<polygon fill="white" stroke="#666666" points="265,-19 140,-19 140,0 265,0 265,-19"/>
<text text-anchor="middle" x="202.5" y="-7" font-family="Helvetica,sans-Serif" font-size="10.00">Utils::adjustSaturation</text>
</a>
</g>
</g>
<!-- Node1&#45;&gt;Node4 -->
<g id="edge3_Node000001_Node000004" class="edge">
<title>Node1&#45;&gt;Node4</title>
<g id="a_edge3_Node000001_Node000004"><a xlink:title=" ">
<path fill="none" stroke="#63b8ff" d="M290.73,-20.72C282.35,-19.64 273.63,-18.52 265.07,-17.42"/>
<polygon fill="#63b8ff" stroke="#63b8ff" points="290.37,-24.2 300.73,-22 291.26,-17.25 290.37,-24.2"/>
</a>
</g>
</g>
<!-- Node3 -->
<g id="Node000003" class="node">
<title>Node3</title>
<g id="a_Node000003"><a xlink:href="../../d4/d3d/namespaceUtils.html#a831fec7a972be45908e92b75ebf1db30" target="_top" xlink:title="Applies contrast and saturation post&#45;processing to the framebuffer.">
<polygon fill="white" stroke="#666666" points="104,-37 0,-37 0,-18 104,-18 104,-37"/>
<text text-anchor="middle" x="52" y="-25" font-family="Helvetica,sans-Serif" font-size="10.00">Utils::postProcess</text>
</a>
</g>
</g>
<!-- Node2&#45;&gt;Node3 -->
<g id="edge2_Node000002_Node000003" class="edge">
<title>Node2&#45;&gt;Node3</title>
<g id="a_edge2_Node000002_Node000003"><a xlink:title=" ">
<path fill="none" stroke="#63b8ff" d="M133.87,-37.85C123.98,-36.58 113.94,-35.3 104.44,-34.08"/>
<polygon fill="#63b8ff" stroke="#63b8ff" points="133.72,-41.36 144.09,-39.15 134.61,-34.41 133.72,-41.36"/>
</a>
</g>
</g>
<!-- Node4&#45;&gt;Node3 -->
<g id="edge4_Node000004_Node000003" class="edge">
<title>Node4&#45;&gt;Node3</title>
<g id="a_edge4_Node000004_Node000003"><a xlink:title=" ">
<path fill="none" stroke="#63b8ff" d="M129.79,-18.19C121.2,-19.23 112.58,-20.28 104.36,-21.27"/>
<polygon fill="#63b8ff" stroke="#63b8ff" points="130.31,-21.66 139.81,-16.98 129.46,-14.71 130.31,-21.66"/>
</a>
</g>
</g>
</g>
</svg>
