<?xml version="1.0" encoding="UTF-8" standalone="no"?>
<!DOCTYPE svg PUBLIC "-//W3C//DTD SVG 1.1//EN"
 "http://www.w3.org/Graphics/SVG/1.1/DTD/svg11.dtd">
<!-- Generated by graphviz version 2.43.0 (0)
 -->
<!-- Title: Utils::postProcess Pages: 1 -->
<svg width="396pt" height="64pt"
 viewBox="0.00 0.00 396.00 64.00" xmlns="http://www.w3.org/2000/svg" xmlns:xlink="http://www.w3.org/1999/xlink">
<g id="graph0" class="graph" transform="scale(1 1) rotate(0) translate(4 60)">
<title>Utils::postProcess</title>
<!-- Node1 -->
<g id="Node000001" class="node">
<title>Node1</title>
<g id="a_Node000001"><a xlink:title="Applies contrast and saturation post&#45;processing to the framebuffer.">
<polygon fill="#999999" stroke="#666666" points="104,-37 0,-37 0,-18 104,-18 104,-37"/>
<text text-anchor="middle" x="52" y="-25" font-family="Helvetica,sans-Serif" font-size="10.00">Utils::postProcess</text>
</a>
</g>
</g>
<!-- Node2 -->
<g id="Node000002" class="node">
<title>Node2</title>
<g id="a_Node000002"><a xlink:href="../../d4/d3d/namespaceUtils.html#ad8a2928a3b0246297df9d0575ed3abb0" target="_top" xlink:title="Adjusts the contrast of a color.">
<polygon fill="white" stroke="#666666" points="260.5,-56 144.5,-56 144.5,-37 260.5,-37 260.5,-56"/>
<text text-anchor="middle" x="202.5" y="-44" font-family="Helvetica,sans-Serif" font-size="10.00">Utils::adjustContrast</text>
</a>
</g>
</g>
<!-- Node1&#45;&gt;Node2 -->
<g id="edge1_Node000001_Node000002" class="edge">
<title>Node1&#45;&gt;Node2</title>
<g id="a_edge1_Node000001_Node000002"><a xlink:title=" ">
<path fill="none" stroke="#63b8ff" d="M104.11,-34.04C113.86,-35.29 124.2,-36.61 134.37,-37.91"/>
<polygon fill="#63b8ff" stroke="#63b8ff" points="134.08,-41.4 144.45,-39.2 134.97,-34.46 134.08,-41.4"/>
</a>
</g>
</g>
<!-- Node4 -->
<g id="Node000004" class="node">
<title>Node4</title>
<g id="a_Node000004"><a xlink:href="../../d4/d3d/namespaceUtils.html#a89903abd83e955f9cb2ddb628cfb9fb9" target="_top" xlink:title="Adjusts the saturation of a color.">
<polygon fill="white" stroke="#666666" points="265,-19 140,-19 140,0 265,0 265,-19"/>
<text text-anchor="middle" x="202.5" y="-7" font-family="Helvetica,sans-Serif" font-size="10.00">Utils::adjustSaturation</text>
</a>
</g>
</g>
<!-- Node1&#45;&gt;Node4 -->
<g id="edge3_Node000001_Node000004" class="edge">
<title>Node1&#45;&gt;Node4</title>
<g id="a_edge3_Node000001_Node000004"><a xlink:title=" ">
<path fill="none" stroke="#63b8ff" d="M104.11,-21.31C112.37,-20.3 121.05,-19.25 129.69,-18.2"/>
<polygon fill="#63b8ff" stroke="#63b8ff" points="130.28,-21.66 139.79,-16.98 129.44,-14.71 130.28,-21.66"/>
</a>
</g>
</g>
<!-- Node3 -->
<g id="Node000003" class="node">
<title>Node3</title>
<g id="a_Node000003"><a xlink:href="../../d4/d3d/namespaceUtils.html#a484f75fdabfed9dc1e79c9d10f00ecf3" target="_top" xlink:title="Clamp a float to the [0, 1] range.">
<polygon fill="white" stroke="#666666" points="388,-37 301,-37 301,-18 388,-18 388,-37"/>
<text text-anchor="middle" x="344.5" y="-25" font-family="Helvetica,sans-Serif" font-size="10.00">Utils::clamp01</text>
</a>
</g>
</g>
<!-- Node2&#45;&gt;Node3 -->
<g id="edge2_Node000002_Node000003" class="edge">
<title>Node2&#45;&gt;Node3</title>
<g id="a_edge2_Node000002_Node000003"><a xlink:title=" ">
<path fill="none" stroke="#63b8ff" d="M260.85,-38.72C270.71,-37.38 280.92,-35.99 290.66,-34.67"/>
<polygon fill="#63b8ff" stroke="#63b8ff" points="291.17,-38.13 300.6,-33.32 290.22,-31.2 291.17,-38.13"/>
</a>
</g>
</g>
<!-- Node4&#45;&gt;Node3 -->
<g id="edge4_Node000004_Node000003" class="edge">
<title>Node4&#45;&gt;Node3</title>
<g id="a_edge4_Node000004_Node000003"><a xlink:title=" ">
<path fill="none" stroke="#63b8ff" d="M265.31,-17.45C273.85,-18.55 282.56,-19.66 290.91,-20.74"/>
<polygon fill="#63b8ff" stroke="#63b8ff" points="290.52,-24.22 300.89,-22.02 291.42,-17.27 290.52,-24.22"/>
</a>
</g>
</g>
</g>
</svg>
