<?xml version="1.0" encoding="UTF-8" standalone="no"?>
<!DOCTYPE svg PUBLIC "-//W3C//DTD SVG 1.1//EN"
 "http://www.w3.org/Graphics/SVG/1.1/DTD/svg11.dtd">
<!-- Generated by graphviz version 2.43.0 (0)
 -->
<!-- Title: include/primitives/Tetrahedron.hpp Pages: 1 -->
<svg width="914pt" height="478pt"
 viewBox="0.00 0.00 914.00 478.00" xmlns="http://www.w3.org/2000/svg" xmlns:xlink="http://www.w3.org/1999/xlink">
<g id="graph0" class="graph" transform="scale(1 1) rotate(0) translate(4 474)">
<title>include/primitives/Tetrahedron.hpp</title>
<!-- Node1 -->
<g id="Node000001" class="node">
<title>Node1</title>
<g id="a_Node000001"><a xlink:title=" ">
<polygon fill="#999999" stroke="#666666" points="469,-470 365,-470 365,-440 469,-440 469,-470"/>
<text text-anchor="start" x="373" y="-458" font-family="Helvetica,sans-Serif" font-size="10.00">include/primitives</text>
<text text-anchor="middle" x="417" y="-447" font-family="Helvetica,sans-Serif" font-size="10.00">/Tetrahedron.hpp</text>
</a>
</g>
</g>
<!-- Node2 -->
<g id="Node000002" class="node">
<title>Node2</title>
<g id="a_Node000002"><a xlink:title=" ">
<polygon fill="#e0e0e0" stroke="#999999" points="151.5,-294 104.5,-294 104.5,-275 151.5,-275 151.5,-294"/>
<text text-anchor="middle" x="128" y="-282" font-family="Helvetica,sans-Serif" font-size="10.00">vector</text>
</a>
</g>
</g>
<!-- Node1&#45;&gt;Node2 -->
<g id="edge1_Node000001_Node000002" class="edge">
<title>Node1&#45;&gt;Node2</title>
<g id="a_edge1_Node000001_Node000002"><a xlink:title=" ">
<path fill="none" stroke="#63b8ff" d="M364.98,-442.52C310.3,-428.28 224.28,-399.49 166,-349 151.76,-336.67 141.37,-317.63 135.09,-303.61"/>
<polygon fill="#63b8ff" stroke="#63b8ff" points="138.18,-301.94 131.09,-294.07 131.72,-304.65 138.18,-301.94"/>
</a>
</g>
</g>
<!-- Node3 -->
<g id="Node000003" class="node">
<title>Node3</title>
<g id="a_Node000003"><a xlink:title=" ">
<polygon fill="#e0e0e0" stroke="#999999" points="726,-184 668,-184 668,-165 726,-165 726,-184"/>
<text text-anchor="middle" x="697" y="-172" font-family="Helvetica,sans-Serif" font-size="10.00">memory</text>
</a>
</g>
</g>
<!-- Node1&#45;&gt;Node3 -->
<g id="edge2_Node000001_Node000003" class="edge">
<title>Node1&#45;&gt;Node3</title>
<g id="a_edge2_Node000001_Node000003"><a xlink:title=" ">
<path fill="none" stroke="#63b8ff" d="M469.37,-447.69C565.74,-434.89 765.06,-402.45 806,-349 848.61,-293.37 761.1,-220.62 718.5,-190.04"/>
<polygon fill="#63b8ff" stroke="#63b8ff" points="720.34,-187.06 710.15,-184.17 716.32,-192.79 720.34,-187.06"/>
</a>
</g>
</g>
<!-- Node4 -->
<g id="Node000004" class="node">
<title>Node4</title>
<g id="a_Node000004"><a xlink:href="../../de/d81/APrimitive_8hpp.html" target="_top" xlink:title=" ">
<polygon fill="white" stroke="#666666" points="429.5,-294 316.5,-294 316.5,-275 429.5,-275 429.5,-294"/>
<text text-anchor="middle" x="373" y="-282" font-family="Helvetica,sans-Serif" font-size="10.00">core/APrimitive.hpp</text>
</a>
</g>
</g>
<!-- Node1&#45;&gt;Node4 -->
<g id="edge3_Node000001_Node000004" class="edge">
<title>Node1&#45;&gt;Node4</title>
<g id="a_edge3_Node000001_Node000004"><a xlink:title=" ">
<path fill="none" stroke="#63b8ff" d="M413.32,-439.92C405.42,-409.65 386.8,-338.35 377.9,-304.27"/>
<polygon fill="#63b8ff" stroke="#63b8ff" points="381.2,-303.05 375.29,-294.25 374.43,-304.81 381.2,-303.05"/>
</a>
</g>
</g>
<!-- Node5 -->
<g id="Node000005" class="node">
<title>Node5</title>
<g id="a_Node000005"><a xlink:href="../../d4/db2/Ray_8hpp.html" target="_top" xlink:title="Defines the Ray structure used for ray&#45;object intersection tests in the raytracer.">
<polygon fill="white" stroke="#666666" points="424.5,-184 345.5,-184 345.5,-165 424.5,-165 424.5,-184"/>
<text text-anchor="middle" x="385" y="-172" font-family="Helvetica,sans-Serif" font-size="10.00">core/Ray.hpp</text>
</a>
</g>
</g>
<!-- Node1&#45;&gt;Node5 -->
<g id="edge23_Node000001_Node000005" class="edge">
<title>Node1&#45;&gt;Node5</title>
<g id="a_edge23_Node000001_Node000005"><a xlink:title=" ">
<path fill="none" stroke="#63b8ff" d="M364.7,-449.35C260.73,-438.66 38,-407.9 38,-340.5 38,-340.5 38,-340.5 38,-283.5 38,-222.02 239.13,-191.55 335.13,-180.51"/>
<polygon fill="#63b8ff" stroke="#63b8ff" points="335.65,-183.98 345.19,-179.38 334.87,-177.02 335.65,-183.98"/>
</a>
</g>
</g>
<!-- Node6 -->
<g id="Node000006" class="node">
<title>Node6</title>
<g id="a_Node000006"><a xlink:href="../../df/df2/Point3D_8hpp.html" target="_top" xlink:title="Defines a 3D point structure used in geometric computations.">
<polygon fill="white" stroke="#666666" points="228,-129 152,-129 152,-110 228,-110 228,-129"/>
<text text-anchor="middle" x="190" y="-117" font-family="Helvetica,sans-Serif" font-size="10.00">Point3D.hpp</text>
</a>
</g>
</g>
<!-- Node1&#45;&gt;Node6 -->
<g id="edge21_Node000001_Node000006" class="edge">
<title>Node1&#45;&gt;Node6</title>
<g id="a_edge21_Node000001_Node000006"><a xlink:title=" ">
<path fill="none" stroke="#63b8ff" d="M364.85,-449.97C282.08,-442.98 124.8,-427.11 74,-404 34.55,-386.05 0,-383.84 0,-340.5 0,-340.5 0,-340.5 0,-228.5 0,-163.49 85.11,-137.12 141.4,-126.79"/>
<polygon fill="#63b8ff" stroke="#63b8ff" points="142.29,-130.19 151.55,-125.05 141.1,-123.29 142.29,-130.19"/>
</a>
</g>
</g>
<!-- Node7 -->
<g id="Node000007" class="node">
<title>Node7</title>
<g id="a_Node000007"><a xlink:href="../../d3/dde/Vector3D_8hpp.html" target="_top" xlink:title="Defines a 3D vector structure with basic arithmetic and transformation operations.">
<polygon fill="white" stroke="#666666" points="678,-74 596,-74 596,-55 678,-55 678,-74"/>
<text text-anchor="middle" x="637" y="-62" font-family="Helvetica,sans-Serif" font-size="10.00">Vector3D.hpp</text>
</a>
</g>
</g>
<!-- Node1&#45;&gt;Node7 -->
<g id="edge22_Node000001_Node000007" class="edge">
<title>Node1&#45;&gt;Node7</title>
<g id="a_edge22_Node000001_Node000007"><a xlink:title=" ">
<path fill="none" stroke="#63b8ff" d="M469.33,-452.86C595.48,-448.69 906,-429.4 906,-340.5 906,-340.5 906,-340.5 906,-173.5 906,-127.08 766.33,-91.48 688.27,-75.21"/>
<polygon fill="#63b8ff" stroke="#63b8ff" points="688.65,-71.72 678.15,-73.14 687.24,-78.57 688.65,-71.72"/>
</a>
</g>
</g>
<!-- Node10 -->
<g id="Node000010" class="node">
<title>Node10</title>
<g id="a_Node000010"><a xlink:href="../../d0/d70/Material_8hpp.html" target="_top" xlink:title="Declares the physically&#45;based material descriptor used by the renderer.">
<polygon fill="white" stroke="#666666" points="688,-239 560,-239 560,-220 688,-220 688,-239"/>
<text text-anchor="middle" x="624" y="-227" font-family="Helvetica,sans-Serif" font-size="10.00">rendering/Material.hpp</text>
</a>
</g>
</g>
<!-- Node1&#45;&gt;Node10 -->
<g id="edge24_Node000001_Node000010" class="edge">
<title>Node1&#45;&gt;Node10</title>
<g id="a_edge24_Node000001_Node000010"><a xlink:title=" ">
<path fill="none" stroke="#63b8ff" d="M420.91,-439.59C430.81,-405.8 460.07,-320.88 515,-275 533.28,-259.73 557.51,-249.14 578.48,-242.13"/>
<polygon fill="#63b8ff" stroke="#63b8ff" points="579.68,-245.43 588.16,-239.07 577.57,-238.75 579.68,-245.43"/>
</a>
</g>
</g>
<!-- Node14 -->
<g id="Node000014" class="node">
<title>Node14</title>
<g id="a_Node000014"><a xlink:href="../../d9/db8/Triangle_8hpp.html" target="_top" xlink:title="Declares the Triangle primitive and its ray–triangle intersection logic.">
<polygon fill="white" stroke="#666666" points="581,-404 505,-404 505,-385 581,-385 581,-404"/>
<text text-anchor="middle" x="543" y="-392" font-family="Helvetica,sans-Serif" font-size="10.00">Triangle.hpp</text>
</a>
</g>
</g>
<!-- Node1&#45;&gt;Node14 -->
<g id="edge25_Node000001_Node000014" class="edge">
<title>Node1&#45;&gt;Node14</title>
<g id="a_edge25_Node000001_Node000014"><a xlink:title=" ">
<path fill="none" stroke="#63b8ff" d="M447.18,-439.99C467.83,-430.4 495,-417.79 515.13,-408.44"/>
<polygon fill="#63b8ff" stroke="#63b8ff" points="516.8,-411.52 524.39,-404.14 513.85,-405.18 516.8,-411.52"/>
</a>
</g>
</g>
<!-- Node4&#45;&gt;Node5 -->
<g id="edge4_Node000004_Node000005" class="edge">
<title>Node4&#45;&gt;Node5</title>
<g id="a_edge4_Node000004_Node000005"><a xlink:title=" ">
<path fill="none" stroke="#63b8ff" d="M394.15,-274.93C408.83,-267.73 427.25,-255.88 436,-239 445.64,-220.4 427.03,-202.06 409.65,-189.91"/>
<polygon fill="#63b8ff" stroke="#63b8ff" points="411.12,-186.68 400.83,-184.15 407.29,-192.54 411.12,-186.68"/>
</a>
</g>
</g>
<!-- Node4&#45;&gt;Node6 -->
<g id="edge10_Node000004_Node000006" class="edge">
<title>Node4&#45;&gt;Node6</title>
<g id="a_edge10_Node000004_Node000006"><a xlink:title=" ">
<path fill="none" stroke="#63b8ff" d="M317.01,-274.94C275.42,-267.4 223.5,-255.12 209,-239 184.24,-211.47 184.7,-165.06 187.3,-139.25"/>
<polygon fill="#63b8ff" stroke="#63b8ff" points="190.78,-139.62 188.52,-129.27 183.83,-138.77 190.78,-139.62"/>
</a>
</g>
</g>
<!-- Node4&#45;&gt;Node7 -->
<g id="edge12_Node000004_Node000007" class="edge">
<title>Node4&#45;&gt;Node7</title>
<g id="a_edge12_Node000004_Node000007"><a xlink:title=" ">
<path fill="none" stroke="#63b8ff" d="M395.67,-274.86C412.81,-267.42 436.04,-255.32 452,-239 497.47,-192.53 472.25,-153.02 521,-110 539.3,-93.85 564.09,-83.28 586.06,-76.52"/>
<polygon fill="#63b8ff" stroke="#63b8ff" points="587.28,-79.81 595.92,-73.67 585.34,-73.08 587.28,-79.81"/>
</a>
</g>
</g>
<!-- Node9 -->
<g id="Node000009" class="node">
<title>Node9</title>
<g id="a_Node000009"><a xlink:href="../../d8/d1e/Vector2D_8hpp.html" target="_top" xlink:title="Defines a 2D vector structure used for texture coordinates or screen&#45;space math operations.">
<polygon fill="white" stroke="#666666" points="324,-239 218,-239 218,-220 324,-220 324,-239"/>
<text text-anchor="middle" x="271" y="-227" font-family="Helvetica,sans-Serif" font-size="10.00">core/Vector2D.hpp</text>
</a>
</g>
</g>
<!-- Node4&#45;&gt;Node9 -->
<g id="edge11_Node000004_Node000009" class="edge">
<title>Node4&#45;&gt;Node9</title>
<g id="a_edge11_Node000004_Node000009"><a xlink:title=" ">
<path fill="none" stroke="#63b8ff" d="M356.61,-274.98C340.43,-266.57 315.43,-253.59 296.62,-243.81"/>
<polygon fill="#63b8ff" stroke="#63b8ff" points="298.17,-240.68 287.69,-239.17 294.95,-246.89 298.17,-240.68"/>
</a>
</g>
</g>
<!-- Node4&#45;&gt;Node10 -->
<g id="edge13_Node000004_Node000010" class="edge">
<title>Node4&#45;&gt;Node10</title>
<g id="a_edge13_Node000004_Node000010"><a xlink:title=" ">
<path fill="none" stroke="#63b8ff" d="M413.33,-274.98C456.84,-265.8 526.2,-251.15 573.35,-241.19"/>
<polygon fill="#63b8ff" stroke="#63b8ff" points="574.3,-244.57 583.36,-239.08 572.85,-237.72 574.3,-244.57"/>
</a>
</g>
</g>
<!-- Node13 -->
<g id="Node000013" class="node">
<title>Node13</title>
<g id="a_Node000013"><a xlink:href="../../d0/d38/IPrimitive_8hpp.html" target="_top" xlink:title="Interface for geometric primitives in the raytracer.">
<polygon fill="white" stroke="#666666" points="427.5,-239 342.5,-239 342.5,-220 427.5,-220 427.5,-239"/>
<text text-anchor="middle" x="385" y="-227" font-family="Helvetica,sans-Serif" font-size="10.00">IPrimitive.hpp</text>
</a>
</g>
</g>
<!-- Node4&#45;&gt;Node13 -->
<g id="edge19_Node000004_Node000013" class="edge">
<title>Node4&#45;&gt;Node13</title>
<g id="a_edge19_Node000004_Node000013"><a xlink:title=" ">
<path fill="none" stroke="#63b8ff" d="M374.98,-274.75C376.57,-267.72 378.86,-257.62 380.85,-248.84"/>
<polygon fill="#63b8ff" stroke="#63b8ff" points="384.26,-249.62 383.06,-239.09 377.43,-248.07 384.26,-249.62"/>
</a>
</g>
</g>
<!-- Node5&#45;&gt;Node6 -->
<g id="edge5_Node000005_Node000006" class="edge">
<title>Node5&#45;&gt;Node6</title>
<g id="a_edge5_Node000005_Node000006"><a xlink:title=" ">
<path fill="none" stroke="#63b8ff" d="M353.67,-164.98C320.51,-155.97 268,-141.7 231.44,-131.76"/>
<polygon fill="#63b8ff" stroke="#63b8ff" points="232.14,-128.33 221.58,-129.08 230.31,-135.08 232.14,-128.33"/>
</a>
</g>
</g>
<!-- Node5&#45;&gt;Node7 -->
<g id="edge9_Node000005_Node000007" class="edge">
<title>Node5&#45;&gt;Node7</title>
<g id="a_edge9_Node000005_Node000007"><a xlink:title=" ">
<path fill="none" stroke="#63b8ff" d="M396.79,-164.79C415.36,-151.42 452.92,-125.72 488,-110 520.54,-95.42 559.16,-84.04 588.93,-76.44"/>
<polygon fill="#63b8ff" stroke="#63b8ff" points="589.81,-79.82 598.66,-74 588.11,-73.03 589.81,-79.82"/>
</a>
</g>
</g>
<!-- Node6&#45;&gt;Node7 -->
<g id="edge6_Node000006_Node000007" class="edge">
<title>Node6&#45;&gt;Node7</title>
<g id="a_edge6_Node000006_Node000007"><a xlink:title=" ">
<path fill="none" stroke="#63b8ff" d="M228.11,-113.98C308.41,-104.46 495.05,-82.33 585.72,-71.58"/>
<polygon fill="#63b8ff" stroke="#63b8ff" points="586.25,-75.04 595.77,-70.39 585.42,-68.09 586.25,-75.04"/>
</a>
</g>
</g>
<!-- Node8 -->
<g id="Node000008" class="node">
<title>Node8</title>
<g id="a_Node000008"><a xlink:title=" ">
<polygon fill="#e0e0e0" stroke="#999999" points="660.5,-19 613.5,-19 613.5,0 660.5,0 660.5,-19"/>
<text text-anchor="middle" x="637" y="-7" font-family="Helvetica,sans-Serif" font-size="10.00">cmath</text>
</a>
</g>
</g>
<!-- Node6&#45;&gt;Node8 -->
<g id="edge8_Node000006_Node000008" class="edge">
<title>Node6&#45;&gt;Node8</title>
<g id="a_edge8_Node000006_Node000008"><a xlink:title=" ">
<path fill="none" stroke="#63b8ff" d="M225.45,-109.94C309.71,-89.58 521.06,-38.51 603.41,-18.61"/>
<polygon fill="#63b8ff" stroke="#63b8ff" points="604.35,-21.99 613.25,-16.24 602.71,-15.18 604.35,-21.99"/>
</a>
</g>
</g>
<!-- Node7&#45;&gt;Node8 -->
<g id="edge7_Node000007_Node000008" class="edge">
<title>Node7&#45;&gt;Node8</title>
<g id="a_edge7_Node000007_Node000008"><a xlink:title=" ">
<path fill="none" stroke="#63b8ff" d="M637,-54.75C637,-47.8 637,-37.85 637,-29.13"/>
<polygon fill="#63b8ff" stroke="#63b8ff" points="640.5,-29.09 637,-19.09 633.5,-29.09 640.5,-29.09"/>
</a>
</g>
</g>
<!-- Node10&#45;&gt;Node3 -->
<g id="edge15_Node000010_Node000003" class="edge">
<title>Node10&#45;&gt;Node3</title>
<g id="a_edge15_Node000010_Node000003"><a xlink:title=" ">
<path fill="none" stroke="#63b8ff" d="M635.73,-219.98C646.73,-212 663.42,-199.88 676.6,-190.31"/>
<polygon fill="#63b8ff" stroke="#63b8ff" points="679.02,-192.88 685.06,-184.17 674.91,-187.21 679.02,-192.88"/>
</a>
</g>
</g>
<!-- Node10&#45;&gt;Node7 -->
<g id="edge16_Node000010_Node000007" class="edge">
<title>Node10&#45;&gt;Node7</title>
<g id="a_edge16_Node000010_Node000007"><a xlink:title=" ">
<path fill="none" stroke="#63b8ff" d="M628.72,-219.78C637.56,-202.87 656.35,-164.19 663,-129 664.57,-120.7 665.21,-118.15 663,-110 660.34,-100.19 654.93,-90.33 649.72,-82.39"/>
<polygon fill="#63b8ff" stroke="#63b8ff" points="652.5,-80.25 643.89,-74.07 646.77,-84.27 652.5,-80.25"/>
</a>
</g>
</g>
<!-- Node11 -->
<g id="Node000011" class="node">
<title>Node11</title>
<g id="a_Node000011"><a xlink:title=" ">
<polygon fill="#e0e0e0" stroke="#999999" points="574,-184 530,-184 530,-165 574,-165 574,-184"/>
<text text-anchor="middle" x="552" y="-172" font-family="Helvetica,sans-Serif" font-size="10.00">string</text>
</a>
</g>
</g>
<!-- Node10&#45;&gt;Node11 -->
<g id="edge14_Node000010_Node000011" class="edge">
<title>Node10&#45;&gt;Node11</title>
<g id="a_edge14_Node000010_Node000011"><a xlink:title=" ">
<path fill="none" stroke="#63b8ff" d="M612.43,-219.98C601.58,-212 585.12,-199.88 572.12,-190.31"/>
<polygon fill="#63b8ff" stroke="#63b8ff" points="573.91,-187.28 563.78,-184.17 569.76,-192.92 573.91,-187.28"/>
</a>
</g>
</g>
<!-- Node12 -->
<g id="Node000012" class="node">
<title>Node12</title>
<g id="a_Node000012"><a xlink:href="../../d0/ddc/Texture_8hpp.html" target="_top" xlink:title="Declares the abstract base class for all 2&#45;D textures. (Solid colour, checkerboard,...">
<polygon fill="white" stroke="#666666" points="653.5,-129 530.5,-129 530.5,-110 653.5,-110 653.5,-129"/>
<text text-anchor="middle" x="592" y="-117" font-family="Helvetica,sans-Serif" font-size="10.00">rendering/Texture.hpp</text>
</a>
</g>
</g>
<!-- Node10&#45;&gt;Node12 -->
<g id="edge17_Node000010_Node000012" class="edge">
<title>Node10&#45;&gt;Node12</title>
<g id="a_edge17_Node000010_Node000012"><a xlink:title=" ">
<path fill="none" stroke="#63b8ff" d="M621.38,-219.66C616.18,-202.09 604.43,-162.45 597.47,-138.95"/>
<polygon fill="#63b8ff" stroke="#63b8ff" points="600.76,-137.75 594.57,-129.16 594.05,-139.74 600.76,-137.75"/>
</a>
</g>
</g>
<!-- Node12&#45;&gt;Node7 -->
<g id="edge18_Node000012_Node000007" class="edge">
<title>Node12&#45;&gt;Node7</title>
<g id="a_edge18_Node000012_Node000007"><a xlink:title=" ">
<path fill="none" stroke="#63b8ff" d="M599.43,-109.75C605.85,-102.18 615.31,-91.05 623.12,-81.84"/>
<polygon fill="#63b8ff" stroke="#63b8ff" points="625.9,-83.98 629.71,-74.09 620.57,-79.45 625.9,-83.98"/>
</a>
</g>
</g>
<!-- Node13&#45;&gt;Node5 -->
<g id="edge20_Node000013_Node000005" class="edge">
<title>Node13&#45;&gt;Node5</title>
<g id="a_edge20_Node000013_Node000005"><a xlink:title=" ">
<path fill="none" stroke="#63b8ff" d="M385,-219.75C385,-212.8 385,-202.85 385,-194.13"/>
<polygon fill="#63b8ff" stroke="#63b8ff" points="388.5,-194.09 385,-184.09 381.5,-194.09 388.5,-194.09"/>
</a>
</g>
</g>
<!-- Node14&#45;&gt;Node4 -->
<g id="edge28_Node000014_Node000004" class="edge">
<title>Node14&#45;&gt;Node4</title>
<g id="a_edge28_Node000014_Node000004"><a xlink:title=" ">
<path fill="none" stroke="#63b8ff" d="M529.38,-384.84C500.16,-366.28 431.22,-322.49 395.44,-299.75"/>
<polygon fill="#63b8ff" stroke="#63b8ff" points="397.01,-296.6 386.69,-294.2 393.25,-302.51 397.01,-296.6"/>
</a>
</g>
</g>
<!-- Node14&#45;&gt;Node5 -->
<g id="edge31_Node000014_Node000005" class="edge">
<title>Node14&#45;&gt;Node5</title>
<g id="a_edge31_Node000014_Node000005"><a xlink:title=" ">
<path fill="none" stroke="#63b8ff" d="M504.74,-389.52C431.14,-379.54 271.63,-345.96 209,-239 180.22,-189.84 273.45,-178.24 335.04,-175.8"/>
<polygon fill="#63b8ff" stroke="#63b8ff" points="335.5,-179.29 345.38,-175.46 335.27,-172.29 335.5,-179.29"/>
</a>
</g>
</g>
<!-- Node14&#45;&gt;Node6 -->
<g id="edge29_Node000014_Node000006" class="edge">
<title>Node14&#45;&gt;Node6</title>
<g id="a_edge29_Node000014_Node000006"><a xlink:title=" ">
<path fill="none" stroke="#63b8ff" d="M504.78,-392.8C393.25,-389.73 76,-373.29 76,-285.5 76,-285.5 76,-285.5 76,-228.5 76,-182.47 125.58,-150.18 159.35,-133.53"/>
<polygon fill="#63b8ff" stroke="#63b8ff" points="161.28,-136.49 168.82,-129.05 158.29,-130.16 161.28,-136.49"/>
</a>
</g>
</g>
<!-- Node14&#45;&gt;Node7 -->
<g id="edge30_Node000014_Node000007" class="edge">
<title>Node14&#45;&gt;Node7</title>
<g id="a_edge30_Node000014_Node000007"><a xlink:title=" ">
<path fill="none" stroke="#63b8ff" d="M581.09,-393.61C650.84,-391.61 792,-376.32 792,-285.5 792,-285.5 792,-285.5 792,-173.5 792,-120.33 729.85,-91.19 684.26,-76.97"/>
<polygon fill="#63b8ff" stroke="#63b8ff" points="685.1,-73.57 674.52,-74.08 683.11,-80.28 685.1,-73.57"/>
</a>
</g>
</g>
<!-- Node14&#45;&gt;Node8 -->
<g id="edge27_Node000014_Node000008" class="edge">
<title>Node14&#45;&gt;Node8</title>
<g id="a_edge27_Node000014_Node000008"><a xlink:title=" ">
<path fill="none" stroke="#63b8ff" d="M581.29,-389.84C640.07,-383.66 749.17,-369.74 782,-349 837.01,-314.24 868,-295.57 868,-230.5 868,-230.5 868,-230.5 868,-118.5 868,-32.53 735.08,-14.84 670.9,-11.31"/>
<polygon fill="#63b8ff" stroke="#63b8ff" points="671,-7.81 660.85,-10.85 670.68,-14.81 671,-7.81"/>
</a>
</g>
</g>
<!-- Node14&#45;&gt;Node10 -->
<g id="edge32_Node000014_Node000010" class="edge">
<title>Node14&#45;&gt;Node10</title>
<g id="a_edge32_Node000014_Node000010"><a xlink:title=" ">
<path fill="none" stroke="#63b8ff" d="M581.12,-386.18C626.97,-375.11 701.89,-349.22 735,-294 750.92,-267.46 716.59,-250.99 682.01,-241.5"/>
<polygon fill="#63b8ff" stroke="#63b8ff" points="682.85,-238.1 672.3,-239.01 681.11,-244.88 682.85,-238.1"/>
</a>
</g>
</g>
<!-- Node15 -->
<g id="Node000015" class="node">
<title>Node15</title>
<g id="a_Node000015"><a xlink:title=" ">
<polygon fill="#e0e0e0" stroke="#999999" points="726,-294 662,-294 662,-275 726,-275 726,-294"/>
<text text-anchor="middle" x="694" y="-282" font-family="Helvetica,sans-Serif" font-size="10.00">algorithm</text>
</a>
</g>
</g>
<!-- Node14&#45;&gt;Node15 -->
<g id="edge26_Node000014_Node000015" class="edge">
<title>Node14&#45;&gt;Node15</title>
<g id="a_edge26_Node000014_Node000015"><a xlink:title=" ">
<path fill="none" stroke="#63b8ff" d="M555.58,-384.67C568.31,-375.72 588.56,-361.45 606,-349 629.24,-332.41 655.81,-313.2 673.62,-300.29"/>
<polygon fill="#63b8ff" stroke="#63b8ff" points="676.03,-302.87 682.07,-294.17 671.92,-297.2 676.03,-302.87"/>
</a>
</g>
</g>
<!-- Node16 -->
<g id="Node000016" class="node">
<title>Node16</title>
<g id="a_Node000016"><a xlink:href="../../d9/dad/BVH_8hpp.html" target="_top" xlink:title="Declares the axis&#45;aligned bounding box (AABB) and the BVH node used for ray&#45;tracing acceleration.">
<polygon fill="white" stroke="#666666" points="597,-349 489,-349 489,-330 597,-330 597,-349"/>
<text text-anchor="middle" x="543" y="-337" font-family="Helvetica,sans-Serif" font-size="10.00">rendering/BVH.hpp</text>
</a>
</g>
</g>
<!-- Node14&#45;&gt;Node16 -->
<g id="edge33_Node000014_Node000016" class="edge">
<title>Node14&#45;&gt;Node16</title>
<g id="a_edge33_Node000014_Node000016"><a xlink:title=" ">
<path fill="none" stroke="#63b8ff" d="M543,-384.75C543,-377.8 543,-367.85 543,-359.13"/>
<polygon fill="#63b8ff" stroke="#63b8ff" points="546.5,-359.09 543,-349.09 539.5,-359.09 546.5,-359.09"/>
</a>
</g>
</g>
<!-- Node16&#45;&gt;Node2 -->
<g id="edge35_Node000016_Node000002" class="edge">
<title>Node16&#45;&gt;Node2</title>
<g id="a_edge35_Node000016_Node000002"><a xlink:title=" ">
<path fill="none" stroke="#63b8ff" d="M488.75,-331.57C401.81,-320.47 233.79,-299.01 161.93,-289.83"/>
<polygon fill="#63b8ff" stroke="#63b8ff" points="162.01,-286.32 151.65,-288.52 161.13,-293.26 162.01,-286.32"/>
</a>
</g>
</g>
<!-- Node16&#45;&gt;Node3 -->
<g id="edge34_Node000016_Node000003" class="edge">
<title>Node16&#45;&gt;Node3</title>
<g id="a_edge34_Node000016_Node000003"><a xlink:title=" ">
<path fill="none" stroke="#63b8ff" d="M551.9,-329.87C565.67,-316.83 593.34,-291.84 620,-275 651.94,-254.82 676.72,-270.87 697,-239 705.42,-225.78 704.48,-207.65 701.99,-194.15"/>
<polygon fill="#63b8ff" stroke="#63b8ff" points="705.34,-193.08 699.7,-184.11 698.51,-194.63 705.34,-193.08"/>
</a>
</g>
</g>
<!-- Node16&#45;&gt;Node4 -->
<g id="edge39_Node000016_Node000004" class="edge">
<title>Node16&#45;&gt;Node4</title>
<g id="a_edge39_Node000016_Node000004"><a xlink:title=" ">
<path fill="none" stroke="#63b8ff" d="M515.69,-329.98C487.15,-321.09 442.17,-307.07 410.36,-297.15"/>
<polygon fill="#63b8ff" stroke="#63b8ff" points="411.12,-293.72 400.53,-294.08 409.03,-300.4 411.12,-293.72"/>
</a>
</g>
</g>
<!-- Node16&#45;&gt;Node5 -->
<g id="edge38_Node000016_Node000005" class="edge">
<title>Node16&#45;&gt;Node5</title>
<g id="a_edge38_Node000016_Node000005"><a xlink:title=" ">
<path fill="none" stroke="#63b8ff" d="M537.86,-329.99C525.16,-309.39 490.49,-255.94 452,-220 439.23,-208.08 422.94,-197.18 409.61,-189.15"/>
<polygon fill="#63b8ff" stroke="#63b8ff" points="411.35,-186.11 400.95,-184.07 407.81,-192.15 411.35,-186.11"/>
</a>
</g>
</g>
<!-- Node16&#45;&gt;Node6 -->
<g id="edge40_Node000016_Node000006" class="edge">
<title>Node16&#45;&gt;Node6</title>
<g id="a_edge40_Node000016_Node000006"><a xlink:title=" ">
<path fill="none" stroke="#63b8ff" d="M488.54,-332.42C440.03,-326.03 367.56,-314.05 307,-294 253.97,-276.45 228.14,-283.21 194,-239 171.64,-210.05 178.4,-164.19 184.62,-138.85"/>
<polygon fill="#63b8ff" stroke="#63b8ff" points="188.03,-139.63 187.25,-129.07 181.27,-137.81 188.03,-139.63"/>
</a>
</g>
</g>
<!-- Node16&#45;&gt;Node7 -->
<g id="edge41_Node000016_Node000007" class="edge">
<title>Node16&#45;&gt;Node7</title>
<g id="a_edge41_Node000016_Node000007"><a xlink:title=" ">
<path fill="none" stroke="#63b8ff" d="M557.78,-329.99C573.29,-321.05 598.38,-306.57 620,-294 621.31,-293.24 713.02,-240.15 714,-239 730.92,-219.04 730.25,-209.73 735,-184 743.55,-137.64 693.68,-98.86 661.92,-79.26"/>
<polygon fill="#63b8ff" stroke="#63b8ff" points="663.5,-76.12 653.11,-74.02 659.92,-82.14 663.5,-76.12"/>
</a>
</g>
</g>
<!-- Node16&#45;&gt;Node15 -->
<g id="edge36_Node000016_Node000015" class="edge">
<title>Node16&#45;&gt;Node15</title>
<g id="a_edge36_Node000016_Node000015"><a xlink:title=" ">
<path fill="none" stroke="#63b8ff" d="M567.26,-329.98C592.32,-321.19 631.63,-307.39 659.83,-297.49"/>
<polygon fill="#63b8ff" stroke="#63b8ff" points="661.02,-300.78 669.3,-294.17 658.7,-294.18 661.02,-300.78"/>
</a>
</g>
</g>
<!-- Node17 -->
<g id="Node000017" class="node">
<title>Node17</title>
<g id="a_Node000017"><a xlink:title=" ">
<polygon fill="#e0e0e0" stroke="#999999" points="568,-294 524,-294 524,-275 568,-275 568,-294"/>
<text text-anchor="middle" x="546" y="-282" font-family="Helvetica,sans-Serif" font-size="10.00">limits</text>
</a>
</g>
</g>
<!-- Node16&#45;&gt;Node17 -->
<g id="edge37_Node000016_Node000017" class="edge">
<title>Node16&#45;&gt;Node17</title>
<g id="a_edge37_Node000016_Node000017"><a xlink:title=" ">
<path fill="none" stroke="#63b8ff" d="M543.5,-329.75C543.89,-322.8 544.45,-312.85 544.95,-304.13"/>
<polygon fill="#63b8ff" stroke="#63b8ff" points="548.44,-304.27 545.51,-294.09 541.45,-303.88 548.44,-304.27"/>
</a>
</g>
</g>
</g>
</svg>
