<?xml version="1.0" encoding="UTF-8" standalone="no"?>
<!DOCTYPE svg PUBLIC "-//W3C//DTD SVG 1.1//EN"
 "http://www.w3.org/Graphics/SVG/1.1/DTD/svg11.dtd">
<!-- Generated by graphviz version 2.43.0 (0)
 -->
<!-- Title: include/rendering/AmbientLight.hpp Pages: 1 -->
<svg width="178pt" height="313pt"
 viewBox="0.00 0.00 177.50 313.00" xmlns="http://www.w3.org/2000/svg" xmlns:xlink="http://www.w3.org/1999/xlink">
<g id="graph0" class="graph" transform="scale(1 1) rotate(0) translate(4 309)">
<title>include/rendering/AmbientLight.hpp</title>
<!-- Node1 -->
<g id="Node000001" class="node">
<title>Node1</title>
<g id="a_Node000001"><a xlink:title="Declares the AmbientLight class: uniform ambient illumination.">
<polygon fill="#999999" stroke="#666666" points="146,-305 0,-305 0,-275 146,-275 146,-305"/>
<text text-anchor="start" x="8" y="-293" font-family="Helvetica,sans-Serif" font-size="10.00">include/rendering/Ambient</text>
<text text-anchor="middle" x="73" y="-282" font-family="Helvetica,sans-Serif" font-size="10.00">Light.hpp</text>
</a>
</g>
</g>
<!-- Node2 -->
<g id="Node000002" class="node">
<title>Node2</title>
<g id="a_Node000002"><a xlink:href="../../db/d54/ALight_8hpp.html" target="_top" xlink:title="Abstract base class partially implementing the ILight interface.">
<polygon fill="white" stroke="#666666" points="107,-239 39,-239 39,-220 107,-220 107,-239"/>
<text text-anchor="middle" x="73" y="-227" font-family="Helvetica,sans-Serif" font-size="10.00">ALight.hpp</text>
</a>
</g>
</g>
<!-- Node1&#45;&gt;Node2 -->
<g id="edge1_Node000001_Node000002" class="edge">
<title>Node1&#45;&gt;Node2</title>
<g id="a_edge1_Node000001_Node000002"><a xlink:title=" ">
<path fill="none" stroke="#63b8ff" d="M73,-274.84C73,-267.21 73,-257.7 73,-249.45"/>
<polygon fill="#63b8ff" stroke="#63b8ff" points="76.5,-249.27 73,-239.27 69.5,-249.27 76.5,-249.27"/>
</a>
</g>
</g>
<!-- Node3 -->
<g id="Node000003" class="node">
<title>Node3</title>
<g id="a_Node000003"><a xlink:href="../../da/da7/ILight_8hpp.html" target="_top" xlink:title="Abstract interface for all light sources in the path tracer.">
<polygon fill="white" stroke="#666666" points="105.5,-184 40.5,-184 40.5,-165 105.5,-165 105.5,-184"/>
<text text-anchor="middle" x="73" y="-172" font-family="Helvetica,sans-Serif" font-size="10.00">ILight.hpp</text>
</a>
</g>
</g>
<!-- Node2&#45;&gt;Node3 -->
<g id="edge2_Node000002_Node000003" class="edge">
<title>Node2&#45;&gt;Node3</title>
<g id="a_edge2_Node000002_Node000003"><a xlink:title=" ">
<path fill="none" stroke="#63b8ff" d="M73,-219.75C73,-212.8 73,-202.85 73,-194.13"/>
<polygon fill="#63b8ff" stroke="#63b8ff" points="76.5,-194.09 73,-184.09 69.5,-194.09 76.5,-194.09"/>
</a>
</g>
</g>
<!-- Node4 -->
<g id="Node000004" class="node">
<title>Node4</title>
<g id="a_Node000004"><a xlink:href="../../df/df2/Point3D_8hpp.html" target="_top" xlink:title="Defines a 3D point structure used in geometric computations.">
<polygon fill="white" stroke="#666666" points="169.5,-129 60.5,-129 60.5,-110 169.5,-110 169.5,-129"/>
<text text-anchor="middle" x="115" y="-117" font-family="Helvetica,sans-Serif" font-size="10.00">../core/Point3D.hpp</text>
</a>
</g>
</g>
<!-- Node3&#45;&gt;Node4 -->
<g id="edge3_Node000003_Node000004" class="edge">
<title>Node3&#45;&gt;Node4</title>
<g id="a_edge3_Node000003_Node000004"><a xlink:title=" ">
<path fill="none" stroke="#63b8ff" d="M79.94,-164.75C85.87,-157.26 94.57,-146.28 101.82,-137.13"/>
<polygon fill="#63b8ff" stroke="#63b8ff" points="104.73,-139.1 108.19,-129.09 99.24,-134.75 104.73,-139.1"/>
</a>
</g>
</g>
<!-- Node5 -->
<g id="Node000005" class="node">
<title>Node5</title>
<g id="a_Node000005"><a xlink:href="../../d3/dde/Vector3D_8hpp.html" target="_top" xlink:title="Defines a 3D vector structure with basic arithmetic and transformation operations.">
<polygon fill="white" stroke="#666666" points="87,-74 5,-74 5,-55 87,-55 87,-74"/>
<text text-anchor="middle" x="46" y="-62" font-family="Helvetica,sans-Serif" font-size="10.00">Vector3D.hpp</text>
</a>
</g>
</g>
<!-- Node3&#45;&gt;Node5 -->
<g id="edge7_Node000003_Node000005" class="edge">
<title>Node3&#45;&gt;Node5</title>
<g id="a_edge7_Node000003_Node000005"><a xlink:title=" ">
<path fill="none" stroke="#63b8ff" d="M67.39,-164.7C62.15,-156 54.62,-142.13 51,-129 47,-114.47 45.84,-97.42 45.63,-84.64"/>
<polygon fill="#63b8ff" stroke="#63b8ff" points="49.13,-84.32 45.65,-74.31 42.13,-84.3 49.13,-84.32"/>
</a>
</g>
</g>
<!-- Node4&#45;&gt;Node5 -->
<g id="edge4_Node000004_Node000005" class="edge">
<title>Node4&#45;&gt;Node5</title>
<g id="a_edge4_Node000004_Node000005"><a xlink:title=" ">
<path fill="none" stroke="#63b8ff" d="M103.91,-109.98C93.51,-102 77.74,-89.88 65.28,-80.31"/>
<polygon fill="#63b8ff" stroke="#63b8ff" points="67.35,-77.49 57.29,-74.17 63.09,-83.04 67.35,-77.49"/>
</a>
</g>
</g>
<!-- Node6 -->
<g id="Node000006" class="node">
<title>Node6</title>
<g id="a_Node000006"><a xlink:title=" ">
<polygon fill="#e0e0e0" stroke="#999999" points="103.5,-19 56.5,-19 56.5,0 103.5,0 103.5,-19"/>
<text text-anchor="middle" x="80" y="-7" font-family="Helvetica,sans-Serif" font-size="10.00">cmath</text>
</a>
</g>
</g>
<!-- Node4&#45;&gt;Node6 -->
<g id="edge6_Node000004_Node000006" class="edge">
<title>Node4&#45;&gt;Node6</title>
<g id="a_edge6_Node000004_Node000006"><a xlink:title=" ">
<path fill="none" stroke="#63b8ff" d="M112.57,-109.83C109.09,-97.56 102.4,-74.46 96,-55 93.14,-46.32 89.75,-36.79 86.82,-28.77"/>
<polygon fill="#63b8ff" stroke="#63b8ff" points="90.08,-27.48 83.33,-19.32 83.51,-29.91 90.08,-27.48"/>
</a>
</g>
</g>
<!-- Node5&#45;&gt;Node6 -->
<g id="edge5_Node000005_Node000006" class="edge">
<title>Node5&#45;&gt;Node6</title>
<g id="a_edge5_Node000005_Node000006"><a xlink:title=" ">
<path fill="none" stroke="#63b8ff" d="M51.61,-54.75C56.32,-47.42 63.17,-36.73 68.97,-27.7"/>
<polygon fill="#63b8ff" stroke="#63b8ff" points="72.04,-29.4 74.49,-19.09 66.14,-25.62 72.04,-29.4"/>
</a>
</g>
</g>
</g>
</svg>
