<?xml version="1.0" encoding="UTF-8" standalone="no"?>
<!DOCTYPE svg PUBLIC "-//W3C//DTD SVG 1.1//EN"
 "http://www.w3.org/Graphics/SVG/1.1/DTD/svg11.dtd">
<!-- Generated by graphviz version 2.43.0 (0)
 -->
<!-- Title: src/rendering/CheckerTexture.cpp Pages: 1 -->
<svg width="226pt" height="258pt"
 viewBox="0.00 0.00 225.50 258.00" xmlns="http://www.w3.org/2000/svg" xmlns:xlink="http://www.w3.org/1999/xlink">
<g id="graph0" class="graph" transform="scale(1 1) rotate(0) translate(4 254)">
<title>src/rendering/CheckerTexture.cpp</title>
<!-- Node1 -->
<g id="Node000001" class="node">
<title>Node1</title>
<g id="a_Node000001"><a xlink:title=" ">
<polygon fill="#999999" stroke="#666666" points="217.5,-250 38.5,-250 38.5,-231 217.5,-231 217.5,-250"/>
<text text-anchor="middle" x="128" y="-238" font-family="Helvetica,sans-Serif" font-size="10.00">src/rendering/CheckerTexture.cpp</text>
</a>
</g>
</g>
<!-- Node2 -->
<g id="Node000002" class="node">
<title>Node2</title>
<g id="a_Node000002"><a xlink:href="../../dd/dfe/CheckerTexture_8hpp.html" target="_top" xlink:title="Declares a 2&#45;D procedural checkerboard texture.">
<polygon fill="white" stroke="#666666" points="143.5,-195 24.5,-195 24.5,-165 143.5,-165 143.5,-195"/>
<text text-anchor="start" x="32.5" y="-183" font-family="Helvetica,sans-Serif" font-size="10.00">../../include/rendering</text>
<text text-anchor="middle" x="84" y="-172" font-family="Helvetica,sans-Serif" font-size="10.00">/CheckerTexture.hpp</text>
</a>
</g>
</g>
<!-- Node1&#45;&gt;Node2 -->
<g id="edge1_Node000001_Node000002" class="edge">
<title>Node1&#45;&gt;Node2</title>
<g id="a_edge1_Node000001_Node000002"><a xlink:title=" ">
<path fill="none" stroke="#63b8ff" d="M121.51,-230.87C116.03,-223.59 107.96,-212.85 100.7,-203.2"/>
<polygon fill="#63b8ff" stroke="#63b8ff" points="103.42,-201 94.62,-195.11 97.83,-205.21 103.42,-201"/>
</a>
</g>
</g>
<!-- Node5 -->
<g id="Node000005" class="node">
<title>Node5</title>
<g id="a_Node000005"><a xlink:title=" ">
<polygon fill="#e0e0e0" stroke="#999999" points="157.5,-19 110.5,-19 110.5,0 157.5,0 157.5,-19"/>
<text text-anchor="middle" x="134" y="-7" font-family="Helvetica,sans-Serif" font-size="10.00">cmath</text>
</a>
</g>
</g>
<!-- Node1&#45;&gt;Node5 -->
<g id="edge6_Node000001_Node000005" class="edge">
<title>Node1&#45;&gt;Node5</title>
<g id="a_edge6_Node000001_Node000005"><a xlink:title=" ">
<path fill="none" stroke="#63b8ff" d="M134.63,-230.88C140.76,-222.32 149.46,-208.54 153,-195 168.53,-135.67 150.43,-62.49 140.15,-28.92"/>
<polygon fill="#63b8ff" stroke="#63b8ff" points="143.4,-27.59 137.02,-19.12 136.73,-29.72 143.4,-27.59"/>
</a>
</g>
</g>
<!-- Node3 -->
<g id="Node000003" class="node">
<title>Node3</title>
<g id="a_Node000003"><a xlink:href="../../d0/ddc/Texture_8hpp.html" target="_top" xlink:title="Declares the abstract base class for all 2&#45;D textures. (Solid colour, checkerboard,...">
<polygon fill="white" stroke="#666666" points="98,-129 24,-129 24,-110 98,-110 98,-129"/>
<text text-anchor="middle" x="61" y="-117" font-family="Helvetica,sans-Serif" font-size="10.00">Texture.hpp</text>
</a>
</g>
</g>
<!-- Node2&#45;&gt;Node3 -->
<g id="edge2_Node000002_Node000003" class="edge">
<title>Node2&#45;&gt;Node3</title>
<g id="a_edge2_Node000002_Node000003"><a xlink:title=" ">
<path fill="none" stroke="#63b8ff" d="M78.43,-164.84C75.33,-156.95 71.44,-147.05 68.12,-138.61"/>
<polygon fill="#63b8ff" stroke="#63b8ff" points="71.36,-137.29 64.45,-129.27 64.85,-139.85 71.36,-137.29"/>
</a>
</g>
</g>
<!-- Node2&#45;&gt;Node5 -->
<g id="edge5_Node000002_Node000005" class="edge">
<title>Node2&#45;&gt;Node5</title>
<g id="a_edge5_Node000002_Node000005"><a xlink:title=" ">
<path fill="none" stroke="#63b8ff" d="M91.45,-164.88C96.41,-155.04 102.76,-141.48 107,-129 118.67,-94.66 126.84,-53.02 130.95,-29.36"/>
<polygon fill="#63b8ff" stroke="#63b8ff" points="134.43,-29.74 132.64,-19.29 127.53,-28.58 134.43,-29.74"/>
</a>
</g>
</g>
<!-- Node4 -->
<g id="Node000004" class="node">
<title>Node4</title>
<g id="a_Node000004"><a xlink:href="../../d3/dde/Vector3D_8hpp.html" target="_top" xlink:title="Defines a 3D vector structure with basic arithmetic and transformation operations.">
<polygon fill="white" stroke="#666666" points="106,-74 0,-74 0,-55 106,-55 106,-74"/>
<text text-anchor="middle" x="53" y="-62" font-family="Helvetica,sans-Serif" font-size="10.00">core/Vector3D.hpp</text>
</a>
</g>
</g>
<!-- Node3&#45;&gt;Node4 -->
<g id="edge3_Node000003_Node000004" class="edge">
<title>Node3&#45;&gt;Node4</title>
<g id="a_edge3_Node000003_Node000004"><a xlink:title=" ">
<path fill="none" stroke="#63b8ff" d="M59.68,-109.75C58.63,-102.8 57.13,-92.85 55.81,-84.13"/>
<polygon fill="#63b8ff" stroke="#63b8ff" points="59.25,-83.45 54.3,-74.09 52.33,-84.5 59.25,-83.45"/>
</a>
</g>
</g>
<!-- Node4&#45;&gt;Node5 -->
<g id="edge4_Node000004_Node000005" class="edge">
<title>Node4&#45;&gt;Node5</title>
<g id="a_edge4_Node000004_Node000005"><a xlink:title=" ">
<path fill="none" stroke="#63b8ff" d="M66.01,-54.98C78.46,-46.84 97.46,-34.41 112.21,-24.76"/>
<polygon fill="#63b8ff" stroke="#63b8ff" points="114.3,-27.57 120.75,-19.17 110.46,-21.72 114.3,-27.57"/>
</a>
</g>
</g>
</g>
</svg>
