<?xml version="1.0" encoding="UTF-8" standalone="no"?>
<!DOCTYPE svg PUBLIC "-//W3C//DTD SVG 1.1//EN"
 "http://www.w3.org/Graphics/SVG/1.1/DTD/svg11.dtd">
<!-- Generated by graphviz version 2.43.0 (0)
 -->
<!-- Title: include/rendering/Mesh.hpp Pages: 1 -->
<svg width="393pt" height="137pt"
 viewBox="0.00 0.00 392.50 137.00" xmlns="http://www.w3.org/2000/svg" xmlns:xlink="http://www.w3.org/1999/xlink">
<g id="graph0" class="graph" transform="scale(1 1) rotate(0) translate(4 133)">
<title>include/rendering/Mesh.hpp</title>
<!-- Node1 -->
<g id="Node000001" class="node">
<title>Node1</title>
<g id="a_Node000001"><a xlink:title="Declares a simple triangle mesh wrapper used by the ray tracer.">
<polygon fill="#999999" stroke="#666666" points="312.5,-129 160.5,-129 160.5,-110 312.5,-110 312.5,-129"/>
<text text-anchor="middle" x="236.5" y="-117" font-family="Helvetica,sans-Serif" font-size="10.00">include/rendering/Mesh.hpp</text>
</a>
</g>
</g>
<!-- Node2 -->
<g id="Node000002" class="node">
<title>Node2</title>
<g id="a_Node000002"><a xlink:href="../../da/db1/STLLoader_8hpp.html" target="_top" xlink:title="Declares a loader class for importing 3D models from STL files into Mesh objects.">
<polygon fill="white" stroke="#666666" points="236.5,-74 72.5,-74 72.5,-55 236.5,-55 236.5,-74"/>
<text text-anchor="middle" x="154.5" y="-62" font-family="Helvetica,sans-Serif" font-size="10.00">include/loaders/STLLoader.hpp</text>
</a>
</g>
</g>
<!-- Node1&#45;&gt;Node2 -->
<g id="edge1_Node000001_Node000002" class="edge">
<title>Node1&#45;&gt;Node2</title>
<g id="a_edge1_Node000001_Node000002"><a xlink:title=" ">
<path fill="none" stroke="#63b8ff" d="M214.72,-104.42C199.84,-94.81 180.59,-82.37 167.91,-74.17"/>
<polygon fill="#63b8ff" stroke="#63b8ff" points="213.03,-107.5 223.33,-109.98 216.83,-101.62 213.03,-107.5"/>
</a>
</g>
</g>
<!-- Node5 -->
<g id="Node000005" class="node">
<title>Node5</title>
<g id="a_Node000005"><a xlink:href="../../d2/dcc/Mesh_8cpp.html" target="_top" xlink:title=" ">
<polygon fill="white" stroke="#666666" points="384.5,-74 254.5,-74 254.5,-55 384.5,-55 384.5,-74"/>
<text text-anchor="middle" x="319.5" y="-62" font-family="Helvetica,sans-Serif" font-size="10.00">src/rendering/Mesh.cpp</text>
</a>
</g>
</g>
<!-- Node1&#45;&gt;Node5 -->
<g id="edge4_Node000001_Node000005" class="edge">
<title>Node1&#45;&gt;Node5</title>
<g id="a_edge4_Node000001_Node000005"><a xlink:title=" ">
<path fill="none" stroke="#63b8ff" d="M258.54,-104.42C273.61,-94.81 293.09,-82.37 305.92,-74.17"/>
<polygon fill="#63b8ff" stroke="#63b8ff" points="256.38,-101.65 249.84,-109.98 260.15,-107.55 256.38,-101.65"/>
</a>
</g>
</g>
<!-- Node3 -->
<g id="Node000003" class="node">
<title>Node3</title>
<g id="a_Node000003"><a xlink:href="../../d3/d4f/STLLoader_8cpp.html" target="_top" xlink:title="Implementation of STL (Stereolithography) file loading for 3D mesh import in the raytracer.">
<polygon fill="white" stroke="#666666" points="143,-19 0,-19 0,0 143,0 143,-19"/>
<text text-anchor="middle" x="71.5" y="-7" font-family="Helvetica,sans-Serif" font-size="10.00">src/loaders/STLLoader.cpp</text>
</a>
</g>
</g>
<!-- Node2&#45;&gt;Node3 -->
<g id="edge2_Node000002_Node000003" class="edge">
<title>Node2&#45;&gt;Node3</title>
<g id="a_edge2_Node000002_Node000003"><a xlink:title=" ">
<path fill="none" stroke="#63b8ff" d="M132.46,-49.42C117.39,-39.81 97.91,-27.37 85.08,-19.17"/>
<polygon fill="#63b8ff" stroke="#63b8ff" points="130.85,-52.55 141.16,-54.98 134.62,-46.65 130.85,-52.55"/>
</a>
</g>
</g>
<!-- Node4 -->
<g id="Node000004" class="node">
<title>Node4</title>
<g id="a_Node000004"><a xlink:href="../../d3/d79/SceneParser_8cpp.html" target="_top" xlink:title="Implements the scene loading system using libconfig for the raytracer engine.">
<polygon fill="white" stroke="#666666" points="313.5,-19 161.5,-19 161.5,0 313.5,0 313.5,-19"/>
<text text-anchor="middle" x="237.5" y="-7" font-family="Helvetica,sans-Serif" font-size="10.00">src/loaders/SceneParser.cpp</text>
</a>
</g>
</g>
<!-- Node2&#45;&gt;Node4 -->
<g id="edge3_Node000002_Node000004" class="edge">
<title>Node2&#45;&gt;Node4</title>
<g id="a_edge3_Node000002_Node000004"><a xlink:title=" ">
<path fill="none" stroke="#63b8ff" d="M176.54,-49.42C191.61,-39.81 211.09,-27.37 223.92,-19.17"/>
<polygon fill="#63b8ff" stroke="#63b8ff" points="174.38,-46.65 167.84,-54.98 178.15,-52.55 174.38,-46.65"/>
</a>
</g>
</g>
</g>
</svg>
