<?xml version="1.0" encoding="UTF-8" standalone="no"?>
<!DOCTYPE svg PUBLIC "-//W3C//DTD SVG 1.1//EN"
 "http://www.w3.org/Graphics/SVG/1.1/DTD/svg11.dtd">
<!-- Generated by graphviz version 2.43.0 (0)
 -->
<!-- Title: PostFX::postProcess Pages: 1 -->
<svg width="285pt" height="64pt"
 viewBox="0.00 0.00 285.00 64.00" xmlns="http://www.w3.org/2000/svg" xmlns:xlink="http://www.w3.org/1999/xlink">
<g id="graph0" class="graph" transform="scale(1 1) rotate(0) translate(4 60)">
<title>PostFX::postProcess</title>
<!-- Node1 -->
<g id="Node000001" class="node">
<title>Node1</title>
<g id="a_Node000001"><a xlink:title="Execute the full post&#45;processing pipeline on a frame&#45;buffer.">
<polygon fill="#999999" stroke="#666666" points="115,-37 0,-37 0,-18 115,-18 115,-37"/>
<text text-anchor="middle" x="57.5" y="-25" font-family="Helvetica,sans-Serif" font-size="10.00">PostFX::postProcess</text>
</a>
</g>
</g>
<!-- Node2 -->
<g id="Node000002" class="node">
<title>Node2</title>
<g id="a_Node000002"><a xlink:href="../../dc/d91/namespacePostFX.html#a0118f43380559f09e9e80c2f73fd116a" target="_top" xlink:title="Apply a simple filmic tone&#45;mapping curve.">
<polygon fill="white" stroke="#666666" points="263.5,-56 164.5,-56 164.5,-37 263.5,-37 263.5,-56"/>
<text text-anchor="middle" x="214" y="-44" font-family="Helvetica,sans-Serif" font-size="10.00">PostFX::toneMap</text>
</a>
</g>
</g>
<!-- Node1&#45;&gt;Node2 -->
<g id="edge1_Node000001_Node000002" class="edge">
<title>Node1&#45;&gt;Node2</title>
<g id="a_edge1_Node000001_Node000002"><a xlink:title=" ">
<path fill="none" stroke="#63b8ff" d="M115.15,-34.47C127.93,-36.04 141.51,-37.71 154.37,-39.29"/>
<polygon fill="#63b8ff" stroke="#63b8ff" points="154.14,-42.79 164.49,-40.53 154.99,-35.84 154.14,-42.79"/>
</a>
</g>
</g>
<!-- Node3 -->
<g id="Node000003" class="node">
<title>Node3</title>
<g id="a_Node000003"><a xlink:href="../../dc/d91/namespacePostFX.html#a9ac2e9d3b3df1cf6cc65ea14a349f828" target="_top" xlink:title="Radial vignette fall&#45;off factor for pixel *(i,j)*.">
<polygon fill="white" stroke="#666666" points="277,-19 151,-19 151,0 277,0 277,-19"/>
<text text-anchor="middle" x="214" y="-7" font-family="Helvetica,sans-Serif" font-size="10.00">PostFX::vignetteFactor</text>
</a>
</g>
</g>
<!-- Node1&#45;&gt;Node3 -->
<g id="edge2_Node000001_Node000003" class="edge">
<title>Node1&#45;&gt;Node3</title>
<g id="a_edge2_Node000001_Node000003"><a xlink:title=" ">
<path fill="none" stroke="#63b8ff" d="M115.15,-20.9C123.51,-19.93 132.21,-18.91 140.83,-17.91"/>
<polygon fill="#63b8ff" stroke="#63b8ff" points="141.36,-21.37 150.88,-16.74 140.55,-14.42 141.36,-21.37"/>
</a>
</g>
</g>
</g>
</svg>
