<?xml version="1.0" encoding="UTF-8" standalone="no"?>
<!DOCTYPE svg PUBLIC "-//W3C//DTD SVG 1.1//EN"
 "http://www.w3.org/Graphics/SVG/1.1/DTD/svg11.dtd">
<!-- Generated by graphviz version 2.43.0 (0)
 -->
<!-- Title: include/primitives/Rectangle.hpp Pages: 1 -->
<svg width="168pt" height="203pt"
 viewBox="0.00 0.00 168.00 203.00" xmlns="http://www.w3.org/2000/svg" xmlns:xlink="http://www.w3.org/1999/xlink">
<g id="graph0" class="graph" transform="scale(1 1) rotate(0) translate(4 199)">
<title>include/primitives/Rectangle.hpp</title>
<!-- Node1 -->
<g id="Node000001" class="node">
<title>Node1</title>
<g id="a_Node000001"><a xlink:title=" ">
<polygon fill="#999999" stroke="#666666" points="123,-195 19,-195 19,-165 123,-165 123,-195"/>
<text text-anchor="start" x="27" y="-183" font-family="Helvetica,sans-Serif" font-size="10.00">include/primitives</text>
<text text-anchor="middle" x="71" y="-172" font-family="Helvetica,sans-Serif" font-size="10.00">/Rectangle.hpp</text>
</a>
</g>
</g>
<!-- Node2 -->
<g id="Node000002" class="node">
<title>Node2</title>
<g id="a_Node000002"><a xlink:href="../../df/df2/Point3D_8hpp.html" target="_top" xlink:title="Defines a 3D point structure used in geometric computations.">
<polygon fill="white" stroke="#666666" points="160,-129 60,-129 60,-110 160,-110 160,-129"/>
<text text-anchor="middle" x="110" y="-117" font-family="Helvetica,sans-Serif" font-size="10.00">core/Point3D.hpp</text>
</a>
</g>
</g>
<!-- Node1&#45;&gt;Node2 -->
<g id="edge1_Node000001_Node000002" class="edge">
<title>Node1&#45;&gt;Node2</title>
<g id="a_edge1_Node000001_Node000002"><a xlink:title=" ">
<path fill="none" stroke="#63b8ff" d="M80.44,-164.84C85.87,-156.69 92.73,-146.4 98.48,-137.78"/>
<polygon fill="#63b8ff" stroke="#63b8ff" points="101.52,-139.53 104.16,-129.27 95.7,-135.65 101.52,-139.53"/>
</a>
</g>
</g>
<!-- Node3 -->
<g id="Node000003" class="node">
<title>Node3</title>
<g id="a_Node000003"><a xlink:href="../../d3/dde/Vector3D_8hpp.html" target="_top" xlink:title="Defines a 3D vector structure with basic arithmetic and transformation operations.">
<polygon fill="white" stroke="#666666" points="82,-74 0,-74 0,-55 82,-55 82,-74"/>
<text text-anchor="middle" x="41" y="-62" font-family="Helvetica,sans-Serif" font-size="10.00">Vector3D.hpp</text>
</a>
</g>
</g>
<!-- Node1&#45;&gt;Node3 -->
<g id="edge5_Node000001_Node000003" class="edge">
<title>Node1&#45;&gt;Node3</title>
<g id="a_edge5_Node000001_Node000003"><a xlink:title=" ">
<path fill="none" stroke="#63b8ff" d="M64.35,-164.85C59.97,-155 54.42,-141.44 51,-129 46.97,-114.34 44.39,-97.29 42.87,-84.55"/>
<polygon fill="#63b8ff" stroke="#63b8ff" points="46.31,-83.82 41.75,-74.26 39.35,-84.58 46.31,-83.82"/>
</a>
</g>
</g>
<!-- Node2&#45;&gt;Node3 -->
<g id="edge2_Node000002_Node000003" class="edge">
<title>Node2&#45;&gt;Node3</title>
<g id="a_edge2_Node000002_Node000003"><a xlink:title=" ">
<path fill="none" stroke="#63b8ff" d="M98.91,-109.98C88.51,-102 72.74,-89.88 60.28,-80.31"/>
<polygon fill="#63b8ff" stroke="#63b8ff" points="62.35,-77.49 52.29,-74.17 58.09,-83.04 62.35,-77.49"/>
</a>
</g>
</g>
<!-- Node4 -->
<g id="Node000004" class="node">
<title>Node4</title>
<g id="a_Node000004"><a xlink:title=" ">
<polygon fill="#e0e0e0" stroke="#999999" points="98.5,-19 51.5,-19 51.5,0 98.5,0 98.5,-19"/>
<text text-anchor="middle" x="75" y="-7" font-family="Helvetica,sans-Serif" font-size="10.00">cmath</text>
</a>
</g>
</g>
<!-- Node2&#45;&gt;Node4 -->
<g id="edge4_Node000002_Node000004" class="edge">
<title>Node2&#45;&gt;Node4</title>
<g id="a_edge4_Node000002_Node000004"><a xlink:title=" ">
<path fill="none" stroke="#63b8ff" d="M107.57,-109.83C104.09,-97.56 97.4,-74.46 91,-55 88.14,-46.32 84.75,-36.79 81.82,-28.77"/>
<polygon fill="#63b8ff" stroke="#63b8ff" points="85.08,-27.48 78.33,-19.32 78.51,-29.91 85.08,-27.48"/>
</a>
</g>
</g>
<!-- Node3&#45;&gt;Node4 -->
<g id="edge3_Node000003_Node000004" class="edge">
<title>Node3&#45;&gt;Node4</title>
<g id="a_edge3_Node000003_Node000004"><a xlink:title=" ">
<path fill="none" stroke="#63b8ff" d="M46.61,-54.75C51.32,-47.42 58.17,-36.73 63.97,-27.7"/>
<polygon fill="#63b8ff" stroke="#63b8ff" points="67.04,-29.4 69.49,-19.09 61.14,-25.62 67.04,-29.4"/>
</a>
</g>
</g>
</g>
</svg>
