<?xml version="1.0" encoding="UTF-8" standalone="no"?>
<!DOCTYPE svg PUBLIC "-//W3C//DTD SVG 1.1//EN"
 "http://www.w3.org/Graphics/SVG/1.1/DTD/svg11.dtd">
<!-- Generated by graphviz version 2.43.0 (0)
 -->
<!-- Title: main Pages: 1 -->
<svg width="967pt" height="757pt"
 viewBox="0.00 0.00 967.00 757.00" xmlns="http://www.w3.org/2000/svg" xmlns:xlink="http://www.w3.org/1999/xlink">
<g id="graph0" class="graph" transform="scale(1 1) rotate(0) translate(4 753)">
<title>main</title>
<!-- Node1 -->
<g id="Node000001" class="node">
<title>Node1</title>
<g id="a_Node000001"><a xlink:title="Raimond is a good Raytracer. Logic, it&#39;s Raimond.">
<polygon fill="#999999" stroke="#666666" points="41,-471 0,-471 0,-452 41,-452 41,-471"/>
<text text-anchor="middle" x="20.5" y="-459" font-family="Helvetica,sans-Serif" font-size="10.00">main</text>
</a>
</g>
</g>
<!-- Node2 -->
<g id="Node000002" class="node">
<title>Node2</title>
<g id="a_Node000002"><a xlink:href="../../dd/dea/classRaytracer.html#a844a5a660abbb9d21608fc170074e0c5" target="_top" xlink:title="Launch the raytracing process.">
<polygon fill="white" stroke="#666666" points="181.5,-490 95.5,-490 95.5,-471 181.5,-471 181.5,-490"/>
<text text-anchor="middle" x="138.5" y="-478" font-family="Helvetica,sans-Serif" font-size="10.00">Raytracer::run</text>
</a>
</g>
</g>
<!-- Node1&#45;&gt;Node2 -->
<g id="edge1_Node000001_Node000002" class="edge">
<title>Node1&#45;&gt;Node2</title>
<g id="a_edge1_Node000001_Node000002"><a xlink:title=" ">
<path fill="none" stroke="#63b8ff" d="M41.18,-464.72C53.27,-466.7 69.38,-469.34 84.96,-471.89"/>
<polygon fill="#63b8ff" stroke="#63b8ff" points="84.64,-475.39 95.07,-473.55 85.77,-468.48 84.64,-475.39"/>
</a>
</g>
</g>
<!-- Node74 -->
<g id="Node000074" class="node">
<title>Node74</title>
<g id="a_Node000074"><a xlink:href="../../dc/df4/classRaytracer_1_1Error.html#aad019dc1e5b6ef17f993848ba67985b0" target="_top" xlink:title="Retrieve the error message.">
<polygon fill="white" stroke="#666666" points="200,-453 77,-453 77,-434 200,-434 200,-453"/>
<text text-anchor="middle" x="138.5" y="-441" font-family="Helvetica,sans-Serif" font-size="10.00">Raytracer::Error::what</text>
</a>
</g>
</g>
<!-- Node1&#45;&gt;Node74 -->
<g id="edge55_Node000001_Node000074" class="edge">
<title>Node1&#45;&gt;Node74</title>
<g id="a_edge55_Node000001_Node000074"><a xlink:title=" ">
<path fill="none" stroke="#63b8ff" d="M41.18,-458.45C48.61,-457.29 57.57,-455.9 66.99,-454.44"/>
<polygon fill="#63b8ff" stroke="#63b8ff" points="67.58,-457.89 76.93,-452.9 66.51,-450.97 67.58,-457.89"/>
</a>
</g>
</g>
<!-- Node3 -->
<g id="Node000003" class="node">
<title>Node3</title>
<g id="a_Node000003"><a xlink:href="../../d4/d3d/namespaceUtils.html#a6b68818bad484580792ffda049766b6e" target="_top" xlink:title="Builds a BVH from a list of smart pointers to primitives.">
<polygon fill="white" stroke="#666666" points="353.5,-731 263.5,-731 263.5,-712 353.5,-712 353.5,-731"/>
<text text-anchor="middle" x="308.5" y="-719" font-family="Helvetica,sans-Serif" font-size="10.00">Utils::buildBVH</text>
</a>
</g>
</g>
<!-- Node2&#45;&gt;Node3 -->
<g id="edge2_Node000002_Node000003" class="edge">
<title>Node2&#45;&gt;Node3</title>
<g id="a_edge2_Node000002_Node000003"><a xlink:title=" ">
<path fill="none" stroke="#63b8ff" d="M140.68,-490.32C145.41,-525.21 166.25,-644.21 236,-703.5 241.18,-707.9 247.28,-711.25 253.7,-713.79"/>
<polygon fill="#63b8ff" stroke="#63b8ff" points="252.68,-717.14 263.27,-716.98 254.89,-710.5 252.68,-717.14"/>
</a>
</g>
</g>
<!-- Node6 -->
<g id="Node000006" class="node">
<title>Node6</title>
<g id="a_Node000006"><a xlink:href="../../d4/d3d/namespaceUtils.html#adb433477d0f08da1b223827ed05eef66" target="_top" xlink:title="Validates the command&#45;line argument count.">
<polygon fill="white" stroke="#666666" points="360.5,-694 256.5,-694 256.5,-675 360.5,-675 360.5,-694"/>
<text text-anchor="middle" x="308.5" y="-682" font-family="Helvetica,sans-Serif" font-size="10.00">Utils::checkUsage</text>
</a>
</g>
</g>
<!-- Node2&#45;&gt;Node6 -->
<g id="edge5_Node000002_Node000006" class="edge">
<title>Node2&#45;&gt;Node6</title>
<g id="a_edge5_Node000002_Node000006"><a xlink:title=" ">
<path fill="none" stroke="#63b8ff" d="M141.61,-490.41C148.78,-521.58 175.24,-618.42 236,-666.5 239.33,-669.14 243,-671.39 246.86,-673.32"/>
<polygon fill="#63b8ff" stroke="#63b8ff" points="245.59,-676.58 256.16,-677.25 248.32,-670.13 245.59,-676.58"/>
</a>
</g>
</g>
<!-- Node7 -->
<g id="Node000007" class="node">
<title>Node7</title>
<g id="a_Node000007"><a xlink:href="../../d4/d3d/namespaceUtils.html#a23409e98a4976f47f3825ff7a9d9c8dc" target="_top" xlink:title="Creates a camera from render parameters.">
<polygon fill="white" stroke="#666666" points="365.5,-657 251.5,-657 251.5,-638 365.5,-638 365.5,-657"/>
<text text-anchor="middle" x="308.5" y="-645" font-family="Helvetica,sans-Serif" font-size="10.00">Utils::createCamera</text>
</a>
</g>
</g>
<!-- Node2&#45;&gt;Node7 -->
<g id="edge6_Node000002_Node000007" class="edge">
<title>Node2&#45;&gt;Node7</title>
<g id="a_edge6_Node000002_Node000007"><a xlink:title=" ">
<path fill="none" stroke="#63b8ff" d="M142.91,-490.31C152.75,-517.14 183.88,-592.18 236,-629.5 238.09,-631 240.3,-632.37 242.59,-633.64"/>
<polygon fill="#63b8ff" stroke="#63b8ff" points="241.22,-636.86 251.76,-637.95 244.21,-630.53 241.22,-636.86"/>
</a>
</g>
</g>
<!-- Node8 -->
<g id="Node000008" class="node">
<title>Node8</title>
<g id="a_Node000008"><a xlink:href="../../d4/d3d/namespaceUtils.html#a704495a4dfb63d8716ffe636ddbb7b68" target="_top" xlink:title="Applies a basic denoising algorithm to the framebuffer.">
<polygon fill="white" stroke="#666666" points="350,-620 267,-620 267,-601 350,-601 350,-620"/>
<text text-anchor="middle" x="308.5" y="-608" font-family="Helvetica,sans-Serif" font-size="10.00">Utils::denoise</text>
</a>
</g>
</g>
<!-- Node2&#45;&gt;Node8 -->
<g id="edge7_Node000002_Node000008" class="edge">
<title>Node2&#45;&gt;Node8</title>
<g id="a_edge7_Node000002_Node000008"><a xlink:title=" ">
<path fill="none" stroke="#63b8ff" d="M144.87,-490.03C157.65,-511.81 192.1,-565.4 236,-592.5 242.36,-596.43 249.55,-599.5 256.85,-601.91"/>
<polygon fill="#63b8ff" stroke="#63b8ff" points="256.23,-605.37 266.81,-604.79 258.17,-598.65 256.23,-605.37"/>
</a>
</g>
</g>
<!-- Node9 -->
<g id="Node000009" class="node">
<title>Node9</title>
<g id="a_Node000009"><a xlink:href="../../d4/d3d/namespaceUtils.html#abdca61c5ca7a026eae7f8a2bc2b2dd2b" target="_top" xlink:title="Extracts render parameters from command&#45;line arguments.">
<polygon fill="white" stroke="#666666" points="374,-583 243,-583 243,-564 374,-564 374,-583"/>
<text text-anchor="middle" x="308.5" y="-571" font-family="Helvetica,sans-Serif" font-size="10.00">Utils::getRenderParams</text>
</a>
</g>
</g>
<!-- Node2&#45;&gt;Node9 -->
<g id="edge8_Node000002_Node000009" class="edge">
<title>Node2&#45;&gt;Node9</title>
<g id="a_edge8_Node000002_Node000009"><a xlink:title=" ">
<path fill="none" stroke="#63b8ff" d="M148.98,-490.12C165.28,-506.11 200.33,-538.11 236,-555.5 239.99,-557.45 244.21,-559.19 248.53,-560.76"/>
<polygon fill="#63b8ff" stroke="#63b8ff" points="247.49,-564.11 258.08,-563.92 249.69,-557.46 247.49,-564.11"/>
</a>
</g>
</g>
<!-- Node10 -->
<g id="Node000010" class="node">
<title>Node10</title>
<g id="a_Node000010"><a xlink:href="../../d4/d3d/namespaceUtils.html#aad53042e10cdf4f0db031913ac1f5a7f" target="_top" xlink:title="Check if debug mode is enabled through CLI args.">
<polygon fill="white" stroke="#666666" points="381,-546 236,-546 236,-527 381,-527 381,-546"/>
<text text-anchor="middle" x="308.5" y="-534" font-family="Helvetica,sans-Serif" font-size="10.00">Utils::isDebugModeEnable</text>
</a>
</g>
</g>
<!-- Node2&#45;&gt;Node10 -->
<g id="edge9_Node000002_Node000010" class="edge">
<title>Node2&#45;&gt;Node10</title>
<g id="a_edge9_Node000002_Node000010"><a xlink:title=" ">
<path fill="none" stroke="#63b8ff" d="M161.44,-490.07C180.81,-498.3 209.94,-510.13 236,-518.5 242.39,-520.55 249.15,-522.52 255.88,-524.35"/>
<polygon fill="#63b8ff" stroke="#63b8ff" points="255.09,-527.76 265.66,-526.92 256.88,-520.99 255.09,-527.76"/>
</a>
</g>
</g>
<!-- Node11 -->
<g id="Node000011" class="node">
<title>Node11</title>
<g id="a_Node000011"><a xlink:href="../../d4/d3d/namespaceUtils.html#a763a2a5523575e2175022d2623a77d05" target="_top" xlink:title="Loads a scene from file, or exits on failure.">
<polygon fill="white" stroke="#666666" points="371,-509 246,-509 246,-490 371,-490 371,-509"/>
<text text-anchor="middle" x="308.5" y="-497" font-family="Helvetica,sans-Serif" font-size="10.00">Utils::loadSceneOrExit</text>
</a>
</g>
</g>
<!-- Node2&#45;&gt;Node11 -->
<g id="edge10_Node000002_Node000011" class="edge">
<title>Node2&#45;&gt;Node11</title>
<g id="a_edge10_Node000002_Node000011"><a xlink:title=" ">
<path fill="none" stroke="#63b8ff" d="M181.89,-485.29C198.21,-487.14 217.34,-489.3 235.67,-491.38"/>
<polygon fill="#63b8ff" stroke="#63b8ff" points="235.43,-494.87 245.76,-492.52 236.21,-487.92 235.43,-494.87"/>
</a>
</g>
</g>
<!-- Node50 -->
<g id="Node000050" class="node">
<title>Node50</title>
<g id="a_Node000050"><a xlink:href="../../d4/d3d/namespaceUtils.html#a46b2b4094ba94a6a8c99e8230f6e72ab" target="_top" xlink:title="Determines whether to display a progress bar.">
<polygon fill="white" stroke="#666666" points="365.5,-472 251.5,-472 251.5,-453 365.5,-453 365.5,-472"/>
<text text-anchor="middle" x="308.5" y="-460" font-family="Helvetica,sans-Serif" font-size="10.00">Utils::parseProgress</text>
</a>
</g>
</g>
<!-- Node2&#45;&gt;Node50 -->
<g id="edge27_Node000002_Node000050" class="edge">
<title>Node2&#45;&gt;Node50</title>
<g id="a_edge27_Node000002_Node000050"><a xlink:title=" ">
<path fill="none" stroke="#63b8ff" d="M181.89,-475.96C199.94,-474.02 221.41,-471.72 241.45,-469.58"/>
<polygon fill="#63b8ff" stroke="#63b8ff" points="241.89,-473.05 251.46,-468.5 241.15,-466.09 241.89,-473.05"/>
</a>
</g>
</g>
<!-- Node51 -->
<g id="Node000051" class="node">
<title>Node51</title>
<g id="a_Node000051"><a xlink:href="../../d4/d3d/namespaceUtils.html#a90e2950a16dc3e304315292e607d461d" target="_top" xlink:title="Parses thread count from CLI arguments.">
<polygon fill="white" stroke="#666666" points="364,-435 253,-435 253,-416 364,-416 364,-435"/>
<text text-anchor="middle" x="308.5" y="-423" font-family="Helvetica,sans-Serif" font-size="10.00">Utils::parseThreads</text>
</a>
</g>
</g>
<!-- Node2&#45;&gt;Node51 -->
<g id="edge28_Node000002_Node000051" class="edge">
<title>Node2&#45;&gt;Node51</title>
<g id="a_edge28_Node000002_Node000051"><a xlink:title=" ">
<path fill="none" stroke="#63b8ff" d="M175.36,-470.96C183.55,-468.47 192.15,-465.6 200,-462.5 216.64,-455.92 219.27,-450.83 236,-444.5 242.38,-442.09 249.18,-439.86 255.97,-437.84"/>
<polygon fill="#63b8ff" stroke="#63b8ff" points="257.17,-441.14 265.83,-435.04 255.26,-434.4 257.17,-441.14"/>
</a>
</g>
</g>
<!-- Node52 -->
<g id="Node000052" class="node">
<title>Node52</title>
<g id="a_Node000052"><a xlink:href="../../df/db1/namespaceViz.html#a8d15e0c2d169bd794380b0e720faabf2" target="_top" xlink:title=" ">
<polygon fill="white" stroke="#666666" points="362,-380 255,-380 255,-361 362,-361 362,-380"/>
<text text-anchor="middle" x="308.5" y="-368" font-family="Helvetica,sans-Serif" font-size="10.00">Viz::parseVizMode</text>
</a>
</g>
</g>
<!-- Node2&#45;&gt;Node52 -->
<g id="edge29_Node000002_Node000052" class="edge">
<title>Node2&#45;&gt;Node52</title>
<g id="a_edge29_Node000002_Node000052"><a xlink:title=" ">
<path fill="none" stroke="#63b8ff" d="M181.69,-472.15C188.19,-469.71 194.55,-466.56 200,-462.5 223.43,-445.05 214.32,-427.08 236,-407.5 246.58,-397.95 260.08,-390.13 272.5,-384.19"/>
<polygon fill="#63b8ff" stroke="#63b8ff" points="274.05,-387.33 281.71,-380.01 271.16,-380.95 274.05,-387.33"/>
</a>
</g>
</g>
<!-- Node53 -->
<g id="Node000053" class="node">
<title>Node53</title>
<g id="a_Node000053"><a xlink:href="../../dc/d91/namespacePostFX.html#a97699543bec890d8d5ef02238a9e914c" target="_top" xlink:title="Execute the full post&#45;processing pipeline on a frame&#45;buffer.">
<polygon fill="white" stroke="#666666" points="366,-343 251,-343 251,-324 366,-324 366,-343"/>
<text text-anchor="middle" x="308.5" y="-331" font-family="Helvetica,sans-Serif" font-size="10.00">PostFX::postProcess</text>
</a>
</g>
</g>
<!-- Node2&#45;&gt;Node53 -->
<g id="edge31_Node000002_Node000053" class="edge">
<title>Node2&#45;&gt;Node53</title>
<g id="a_edge31_Node000002_Node000053"><a xlink:title=" ">
<path fill="none" stroke="#63b8ff" d="M181.76,-473.69C188.48,-471.07 194.9,-467.47 200,-462.5 236.86,-426.62 198.61,-387.83 236,-352.5 237.88,-350.72 239.9,-349.11 242.04,-347.64"/>
<polygon fill="#63b8ff" stroke="#63b8ff" points="243.8,-350.67 250.76,-342.69 240.34,-344.58 243.8,-350.67"/>
</a>
</g>
</g>
<!-- Node56 -->
<g id="Node000056" class="node">
<title>Node56</title>
<g id="a_Node000056"><a xlink:href="../../d4/d3d/namespaceUtils.html#a8e063dafa9ed499eae606a8effdb5130" target="_top" xlink:title="Performs the raytracing process and produces the framebuffer.">
<polygon fill="white" stroke="#666666" points="362,-306 255,-306 255,-287 362,-287 362,-306"/>
<text text-anchor="middle" x="308.5" y="-294" font-family="Helvetica,sans-Serif" font-size="10.00">Utils::renderImage</text>
</a>
</g>
</g>
<!-- Node2&#45;&gt;Node56 -->
<g id="edge34_Node000002_Node000056" class="edge">
<title>Node2&#45;&gt;Node56</title>
<g id="a_edge34_Node000002_Node000056"><a xlink:title=" ">
<path fill="none" stroke="#63b8ff" d="M181.77,-474.13C188.58,-471.47 195.01,-467.74 200,-462.5 246.38,-413.79 188.9,-363.53 236,-315.5 238.85,-312.59 242.1,-310.11 245.59,-308"/>
<polygon fill="#63b8ff" stroke="#63b8ff" points="247.31,-311.05 254.71,-303.47 244.19,-304.78 247.31,-311.05"/>
</a>
</g>
</g>
<!-- Node72 -->
<g id="Node000072" class="node">
<title>Node72</title>
<g id="a_Node000072"><a xlink:href="../../df/db1/namespaceViz.html#a888cc4fc8971d9c8c1c3c183f6163562" target="_top" xlink:title=" ">
<polygon fill="white" stroke="#666666" points="371.5,-251 245.5,-251 245.5,-232 371.5,-232 371.5,-251"/>
<text text-anchor="middle" x="308.5" y="-239" font-family="Helvetica,sans-Serif" font-size="10.00">Viz::renderImageSFML</text>
</a>
</g>
</g>
<!-- Node2&#45;&gt;Node72 -->
<g id="edge52_Node000002_Node000072" class="edge">
<title>Node2&#45;&gt;Node72</title>
<g id="a_edge52_Node000002_Node000072"><a xlink:title=" ">
<path fill="none" stroke="#63b8ff" d="M181.66,-474.44C188.57,-471.76 195.06,-467.93 200,-462.5 256.03,-400.82 186.02,-345.18 236,-278.5 243.53,-268.45 254.58,-260.9 265.76,-255.33"/>
<polygon fill="#63b8ff" stroke="#63b8ff" points="267.43,-258.41 275.1,-251.1 264.54,-252.04 267.43,-258.41"/>
</a>
</g>
</g>
<!-- Node73 -->
<g id="Node000073" class="node">
<title>Node73</title>
<g id="a_Node000073"><a xlink:href="../../d4/d3d/namespaceUtils.html#a93b03e73158568f2d6c223f2052afb14" target="_top" xlink:title="Writes the framebuffer to a .ppm image file.">
<polygon fill="white" stroke="#666666" points="354,-214 263,-214 263,-195 354,-195 354,-214"/>
<text text-anchor="middle" x="308.5" y="-202" font-family="Helvetica,sans-Serif" font-size="10.00">Utils::writePPM</text>
</a>
</g>
</g>
<!-- Node2&#45;&gt;Node73 -->
<g id="edge54_Node000002_Node000073" class="edge">
<title>Node2&#45;&gt;Node73</title>
<g id="a_edge54_Node000002_Node000073"><a xlink:title=" ">
<path fill="none" stroke="#63b8ff" d="M181.55,-474.73C188.55,-472.03 195.11,-468.12 200,-462.5 270.47,-381.43 164.34,-303.53 236,-223.5 240.66,-218.29 246.57,-214.44 252.99,-211.6"/>
<polygon fill="#63b8ff" stroke="#63b8ff" points="254.44,-214.8 262.67,-208.13 252.08,-208.21 254.44,-214.8"/>
</a>
</g>
</g>
<!-- Node4 -->
<g id="Node000004" class="node">
<title>Node4</title>
<g id="a_Node000004"><a xlink:href="../../d1/df4/namespaceRayTracer.html#abe4ebec0fced68876c86cde562a43377" target="_top" xlink:title=" ">
<polygon fill="white" stroke="#666666" points="559.5,-749 443.5,-749 443.5,-730 559.5,-730 559.5,-749"/>
<text text-anchor="middle" x="501.5" y="-737" font-family="Helvetica,sans-Serif" font-size="10.00">RayTracer::buildBVH</text>
</a>
</g>
</g>
<!-- Node3&#45;&gt;Node4 -->
<g id="edge3_Node000003_Node000004" class="edge">
<title>Node3&#45;&gt;Node4</title>
<g id="a_edge3_Node000003_Node000004"><a xlink:title=" ">
<path fill="none" stroke="#63b8ff" d="M353.8,-725.67C377.34,-727.89 406.78,-730.67 433.09,-733.15"/>
<polygon fill="#63b8ff" stroke="#63b8ff" points="433.1,-736.66 443.39,-734.12 433.76,-729.69 433.1,-736.66"/>
</a>
</g>
</g>
<!-- Node5 -->
<g id="Node000005" class="node">
<title>Node5</title>
<g id="a_Node000005"><a xlink:href="../../d4/d3d/namespaceUtils.html#a4ba3286c32e42accbb64c604ca149a6d" target="_top" xlink:title="Extracts raw pointers to primitives from shared_ptr objects.">
<polygon fill="white" stroke="#666666" points="565,-712 438,-712 438,-693 565,-693 565,-712"/>
<text text-anchor="middle" x="501.5" y="-700" font-family="Helvetica,sans-Serif" font-size="10.00">Utils::collectPrimitives</text>
</a>
</g>
</g>
<!-- Node3&#45;&gt;Node5 -->
<g id="edge4_Node000003_Node000005" class="edge">
<title>Node3&#45;&gt;Node5</title>
<g id="a_edge4_Node000003_Node000005"><a xlink:title=" ">
<path fill="none" stroke="#63b8ff" d="M353.8,-717.09C375.79,-714.91 402.91,-712.21 427.84,-709.73"/>
<polygon fill="#63b8ff" stroke="#63b8ff" points="428.39,-713.19 437.99,-708.72 427.7,-706.23 428.39,-713.19"/>
</a>
</g>
</g>
<!-- Node12 -->
<g id="Node000012" class="node">
<title>Node12</title>
<g id="a_Node000012"><a xlink:href="../../d1/df4/namespaceRayTracer.html#a9aa92d0c88c2ac9be33f27ba71e8ceaa" target="_top" xlink:title="Recursively loads a scene and any referenced sub&#45;scenes from file(s).">
<polygon fill="white" stroke="#666666" points="586,-509 417,-509 417,-490 586,-490 586,-509"/>
<text text-anchor="middle" x="501.5" y="-497" font-family="Helvetica,sans-Serif" font-size="10.00">RayTracer::loadSceneRecursive</text>
</a>
</g>
</g>
<!-- Node11&#45;&gt;Node12 -->
<g id="edge11_Node000011_Node000012" class="edge">
<title>Node11&#45;&gt;Node12</title>
<g id="a_edge11_Node000011_Node000012"><a xlink:title=" ">
<path fill="none" stroke="#63b8ff" d="M371.25,-499.5C382.57,-499.5 394.62,-499.5 406.64,-499.5"/>
<polygon fill="#63b8ff" stroke="#63b8ff" points="406.71,-503 416.71,-499.5 406.71,-496 406.71,-503"/>
</a>
</g>
</g>
<!-- Node12&#45;&gt;Node12 -->
<g id="edge26_Node000012_Node000012" class="edge">
<title>Node12&#45;&gt;Node12</title>
<g id="a_edge26_Node000012_Node000012"><a xlink:title=" ">
<path fill="none" stroke="#63b8ff" d="M471.91,-509.08C457.51,-517.73 467.38,-527 501.5,-527 524.96,-527 536.95,-522.62 537.48,-517.07"/>
<polygon fill="#63b8ff" stroke="#63b8ff" points="540.07,-514.71 531.09,-509.08 534.61,-519.08 540.07,-514.71"/>
</a>
</g>
</g>
<!-- Node13 -->
<g id="Node000013" class="node">
<title>Node13</title>
<g id="a_Node000013"><a xlink:href="../../d1/df4/namespaceRayTracer.html#a4bbc9c3996d70f6a71cf4d185a4811d6" target="_top" xlink:title="Loads a single scene file (non&#45;recursive).">
<polygon fill="#fff0f0" stroke="red" points="765.5,-509 644.5,-509 644.5,-490 765.5,-490 765.5,-509"/>
<text text-anchor="middle" x="705" y="-497" font-family="Helvetica,sans-Serif" font-size="10.00">RayTracer::loadScene</text>
</a>
</g>
</g>
<!-- Node12&#45;&gt;Node13 -->
<g id="edge12_Node000012_Node000013" class="edge">
<title>Node12&#45;&gt;Node13</title>
<g id="a_edge12_Node000012_Node000013"><a xlink:title=" ">
<path fill="none" stroke="#63b8ff" d="M586.2,-499.5C602.26,-499.5 618.91,-499.5 634.46,-499.5"/>
<polygon fill="#63b8ff" stroke="#63b8ff" points="634.5,-503 644.5,-499.5 634.5,-496 634.5,-503"/>
</a>
</g>
</g>
<!-- Node14 -->
<g id="Node000014" class="node">
<title>Node14</title>
<g id="a_Node000014"><a xlink:href="../../db/d92/namespaceSkybox.html#a7be84c4dd5e95b3b8d9cd74c02eef8bd" target="_top" xlink:title="Initialise the global skybox texture.">
<polygon fill="#fff0f0" stroke="red" points="959,-731 824,-731 824,-712 959,-712 959,-731"/>
<text text-anchor="middle" x="891.5" y="-719" font-family="Helvetica,sans-Serif" font-size="10.00">Skybox::initializeSkybox</text>
</a>
</g>
</g>
<!-- Node13&#45;&gt;Node14 -->
<g id="edge13_Node000013_Node000014" class="edge">
<title>Node13&#45;&gt;Node14</title>
<g id="a_edge13_Node000013_Node000014"><a xlink:title=" ">
<path fill="none" stroke="#63b8ff" d="M708.74,-509.4C718.43,-542.44 754.26,-649.89 824,-703.5 825.81,-704.89 827.72,-706.18 829.71,-707.36"/>
<polygon fill="#63b8ff" stroke="#63b8ff" points="828.31,-710.58 838.81,-711.95 831.46,-704.32 828.31,-710.58"/>
</a>
</g>
</g>
<!-- Node16 -->
<g id="Node000016" class="node">
<title>Node16</title>
<g id="a_Node000016"><a xlink:href="../../d3/d79/SceneParser_8cpp.html#ad262901d3d20b2d0a15d937abb911dbd" target="_top" xlink:title=" ">
<polygon fill="#fff0f0" stroke="red" points="927.5,-694 855.5,-694 855.5,-675 927.5,-675 927.5,-694"/>
<text text-anchor="middle" x="891.5" y="-682" font-family="Helvetica,sans-Serif" font-size="10.00">ParseBoxes</text>
</a>
</g>
</g>
<!-- Node13&#45;&gt;Node16 -->
<g id="edge14_Node000013_Node000016" class="edge">
<title>Node13&#45;&gt;Node16</title>
<g id="a_edge14_Node000013_Node000016"><a xlink:title=" ">
<path fill="none" stroke="#63b8ff" d="M709.97,-509.19C722.25,-537.96 762.6,-623.59 824,-666.5 830.48,-671.03 838.05,-674.42 845.71,-676.96"/>
<polygon fill="#63b8ff" stroke="#63b8ff" points="844.81,-680.34 855.38,-679.74 846.74,-673.61 844.81,-680.34"/>
</a>
</g>
</g>
<!-- Node25 -->
<g id="Node000025" class="node">
<title>Node25</title>
<g id="a_Node000025"><a xlink:href="../../d3/d79/SceneParser_8cpp.html#a719f34dae6ee5f4594209dea344bdee0" target="_top" xlink:title=" ">
<polygon fill="#fff0f0" stroke="red" points="932,-657 851,-657 851,-638 932,-638 932,-657"/>
<text text-anchor="middle" x="891.5" y="-645" font-family="Helvetica,sans-Serif" font-size="10.00">ParseCamera</text>
</a>
</g>
</g>
<!-- Node13&#45;&gt;Node25 -->
<g id="edge15_Node000013_Node000025" class="edge">
<title>Node13&#45;&gt;Node25</title>
<g id="a_edge15_Node000013_Node000025"><a xlink:title=" ">
<path fill="none" stroke="#63b8ff" d="M711.84,-509.04C727.1,-533.14 770.7,-596.89 824,-629.5 829.36,-632.78 835.31,-635.47 841.4,-637.67"/>
<polygon fill="#63b8ff" stroke="#63b8ff" points="840.41,-641.03 851,-640.76 842.55,-634.37 840.41,-641.03"/>
</a>
</g>
</g>
<!-- Node31 -->
<g id="Node000031" class="node">
<title>Node31</title>
<g id="a_Node000031"><a xlink:href="../../d3/d79/SceneParser_8cpp.html#acadf69d0ff9684ba689927979b304f6a" target="_top" xlink:title=" ">
<polygon fill="#fff0f0" stroke="red" points="928,-620 855,-620 855,-601 928,-601 928,-620"/>
<text text-anchor="middle" x="891.5" y="-608" font-family="Helvetica,sans-Serif" font-size="10.00">ParseCones</text>
</a>
</g>
</g>
<!-- Node13&#45;&gt;Node31 -->
<g id="edge16_Node000013_Node000031" class="edge">
<title>Node13&#45;&gt;Node31</title>
<g id="a_edge16_Node000013_Node000031"><a xlink:title=" ">
<path fill="none" stroke="#63b8ff" d="M715.46,-509.22C734.34,-528.08 778.79,-569.77 824,-592.5 830.54,-595.79 837.75,-598.53 844.94,-600.8"/>
<polygon fill="#63b8ff" stroke="#63b8ff" points="844.09,-604.2 854.67,-603.62 846.03,-597.48 844.09,-604.2"/>
</a>
</g>
</g>
<!-- Node32 -->
<g id="Node000032" class="node">
<title>Node32</title>
<g id="a_Node000032"><a xlink:href="../../d3/d79/SceneParser_8cpp.html#a58b4651708d2a5da5625f2412bd84bd7" target="_top" xlink:title=" ">
<polygon fill="#fff0f0" stroke="red" points="936,-583 847,-583 847,-564 936,-564 936,-583"/>
<text text-anchor="middle" x="891.5" y="-571" font-family="Helvetica,sans-Serif" font-size="10.00">ParseCylinders</text>
</a>
</g>
</g>
<!-- Node13&#45;&gt;Node32 -->
<g id="edge17_Node000013_Node000032" class="edge">
<title>Node13&#45;&gt;Node32</title>
<g id="a_edge17_Node000013_Node000032"><a xlink:title=" ">
<path fill="none" stroke="#63b8ff" d="M723.56,-509.06C746.25,-521.11 787.2,-541.91 824,-555.5 829.46,-557.52 835.25,-559.42 841.05,-561.17"/>
<polygon fill="#63b8ff" stroke="#63b8ff" points="840.17,-564.56 850.75,-563.99 842.12,-557.84 840.17,-564.56"/>
</a>
</g>
</g>
<!-- Node33 -->
<g id="Node000033" class="node">
<title>Node33</title>
<g id="a_Node000033"><a xlink:href="../../d3/d79/SceneParser_8cpp.html#af22a6492d8f86f926251f747c2d82318" target="_top" xlink:title=" ">
<polygon fill="#fff0f0" stroke="red" points="927.5,-546 855.5,-546 855.5,-527 927.5,-527 927.5,-546"/>
<text text-anchor="middle" x="891.5" y="-534" font-family="Helvetica,sans-Serif" font-size="10.00">ParseLights</text>
</a>
</g>
</g>
<!-- Node13&#45;&gt;Node33 -->
<g id="edge18_Node000013_Node000033" class="edge">
<title>Node13&#45;&gt;Node33</title>
<g id="a_edge18_Node000013_Node000033"><a xlink:title=" ">
<path fill="none" stroke="#63b8ff" d="M753.51,-509.03C781.85,-514.71 817.62,-521.88 845.5,-527.48"/>
<polygon fill="#63b8ff" stroke="#63b8ff" points="844.89,-530.92 855.39,-529.46 846.27,-524.06 844.89,-530.92"/>
</a>
</g>
</g>
<!-- Node35 -->
<g id="Node000035" class="node">
<title>Node35</title>
<g id="a_Node000035"><a xlink:href="../../d3/d79/SceneParser_8cpp.html#a17fe6719bd49ea3c89cdbe743f9fbe49" target="_top" xlink:title=" ">
<polygon fill="#fff0f0" stroke="red" points="942,-509 841,-509 841,-490 942,-490 942,-509"/>
<text text-anchor="middle" x="891.5" y="-497" font-family="Helvetica,sans-Serif" font-size="10.00">parseMaterialDef</text>
</a>
</g>
</g>
<!-- Node13&#45;&gt;Node35 -->
<g id="edge19_Node000013_Node000035" class="edge">
<title>Node13&#45;&gt;Node35</title>
<g id="a_edge19_Node000013_Node000035"><a xlink:title=" ">
<path fill="none" stroke="#63b8ff" d="M765.65,-499.5C786.55,-499.5 810.01,-499.5 830.91,-499.5"/>
<polygon fill="#63b8ff" stroke="#63b8ff" points="830.93,-503 840.93,-499.5 830.93,-496 830.93,-503"/>
</a>
</g>
</g>
<!-- Node36 -->
<g id="Node000036" class="node">
<title>Node36</title>
<g id="a_Node000036"><a xlink:href="../../d3/d79/SceneParser_8cpp.html#a1122aa28b0a7f73c44adaf6dca1d5750" target="_top" xlink:title=" ">
<polygon fill="#fff0f0" stroke="red" points="931.5,-472 851.5,-472 851.5,-453 931.5,-453 931.5,-472"/>
<text text-anchor="middle" x="891.5" y="-460" font-family="Helvetica,sans-Serif" font-size="10.00">ParseMenger</text>
</a>
</g>
</g>
<!-- Node13&#45;&gt;Node36 -->
<g id="edge20_Node000013_Node000036" class="edge">
<title>Node13&#45;&gt;Node36</title>
<g id="a_edge20_Node000013_Node000036"><a xlink:title=" ">
<path fill="none" stroke="#63b8ff" d="M753.51,-489.97C780.4,-484.58 813.98,-477.85 841.16,-472.39"/>
<polygon fill="#63b8ff" stroke="#63b8ff" points="842.12,-475.77 851.24,-470.37 840.75,-468.91 842.12,-475.77"/>
</a>
</g>
</g>
<!-- Node37 -->
<g id="Node000037" class="node">
<title>Node37</title>
<g id="a_Node000037"><a xlink:href="../../d3/d79/SceneParser_8cpp.html#a26f05fcddd9c159c09c9cedc7bdf844a" target="_top" xlink:title=" ">
<polygon fill="#fff0f0" stroke="red" points="931.5,-435 851.5,-435 851.5,-416 931.5,-416 931.5,-435"/>
<text text-anchor="middle" x="891.5" y="-423" font-family="Helvetica,sans-Serif" font-size="10.00">ParseMeshes</text>
</a>
</g>
</g>
<!-- Node13&#45;&gt;Node37 -->
<g id="edge21_Node000013_Node000037" class="edge">
<title>Node13&#45;&gt;Node37</title>
<g id="a_edge21_Node000013_Node000037"><a xlink:title=" ">
<path fill="none" stroke="#63b8ff" d="M724.41,-489.81C747.31,-478.01 787.79,-458.02 824,-444.5 830.27,-442.16 836.97,-439.94 843.61,-437.89"/>
<polygon fill="#63b8ff" stroke="#63b8ff" points="844.64,-441.23 853.23,-435.03 842.65,-434.52 844.64,-441.23"/>
</a>
</g>
</g>
<!-- Node45 -->
<g id="Node000045" class="node">
<title>Node45</title>
<g id="a_Node000045"><a xlink:href="../../d3/d79/SceneParser_8cpp.html#a9d50142946b8423759ecbfa17c7edc79" target="_top" xlink:title=" ">
<polygon fill="#fff0f0" stroke="red" points="929,-398 854,-398 854,-379 929,-379 929,-398"/>
<text text-anchor="middle" x="891.5" y="-386" font-family="Helvetica,sans-Serif" font-size="10.00">ParsePlanes</text>
</a>
</g>
</g>
<!-- Node13&#45;&gt;Node45 -->
<g id="edge22_Node000013_Node000045" class="edge">
<title>Node13&#45;&gt;Node45</title>
<g id="a_edge22_Node000013_Node000045"><a xlink:title=" ">
<path fill="none" stroke="#63b8ff" d="M715.51,-489.94C734.47,-471.39 779.08,-430.33 824,-407.5 830.26,-404.32 837.12,-401.6 843.99,-399.3"/>
<polygon fill="#63b8ff" stroke="#63b8ff" points="845.47,-402.51 854,-396.22 843.41,-395.82 845.47,-402.51"/>
</a>
</g>
</g>
<!-- Node46 -->
<g id="Node000046" class="node">
<title>Node46</title>
<g id="a_Node000046"><a xlink:href="../../d3/d79/SceneParser_8cpp.html#a1113dafd3e97959e0e81c1d2fd42cd81" target="_top" xlink:title=" ">
<polygon fill="#fff0f0" stroke="red" points="937,-361 846,-361 846,-342 937,-342 937,-361"/>
<text text-anchor="middle" x="891.5" y="-349" font-family="Helvetica,sans-Serif" font-size="10.00">ParseSierpinski</text>
</a>
</g>
</g>
<!-- Node13&#45;&gt;Node46 -->
<g id="edge23_Node000013_Node000046" class="edge">
<title>Node13&#45;&gt;Node46</title>
<g id="a_edge23_Node000013_Node000046"><a xlink:title=" ">
<path fill="none" stroke="#63b8ff" d="M713.74,-489.74C735.45,-462.61 797.03,-387.19 824,-370.5 827.84,-368.13 831.98,-366.04 836.26,-364.21"/>
<polygon fill="#63b8ff" stroke="#63b8ff" points="837.67,-367.42 845.77,-360.59 835.18,-360.87 837.67,-367.42"/>
</a>
</g>
</g>
<!-- Node47 -->
<g id="Node000047" class="node">
<title>Node47</title>
<g id="a_Node000047"><a xlink:href="../../d3/d79/SceneParser_8cpp.html#aa379bf06dc8b31c936030d2fc900e73c" target="_top" xlink:title=" ">
<polygon fill="#fff0f0" stroke="red" points="932.5,-324 850.5,-324 850.5,-305 932.5,-305 932.5,-324"/>
<text text-anchor="middle" x="891.5" y="-312" font-family="Helvetica,sans-Serif" font-size="10.00">ParseSpheres</text>
</a>
</g>
</g>
<!-- Node13&#45;&gt;Node47 -->
<g id="edge24_Node000013_Node000047" class="edge">
<title>Node13&#45;&gt;Node47</title>
<g id="a_edge24_Node000013_Node000047"><a xlink:title=" ">
<path fill="none" stroke="#63b8ff" d="M715.04,-489.77C730.89,-472.42 764.28,-434.69 788,-399.5 806.68,-371.79 797.91,-354.38 824,-333.5 828.98,-329.51 834.76,-326.36 840.8,-323.87"/>
<polygon fill="#63b8ff" stroke="#63b8ff" points="842.14,-327.11 850.41,-320.48 839.81,-320.51 842.14,-327.11"/>
</a>
</g>
</g>
<!-- Node48 -->
<g id="Node000048" class="node">
<title>Node48</title>
<g id="a_Node000048"><a xlink:href="../../d3/d79/SceneParser_8cpp.html#abe09300f6764206d0215ca7b12403972" target="_top" xlink:title=" ">
<polygon fill="#fff0f0" stroke="red" points="941,-287 842,-287 842,-268 941,-268 941,-287"/>
<text text-anchor="middle" x="891.5" y="-275" font-family="Helvetica,sans-Serif" font-size="10.00">ParseTangleCube</text>
</a>
</g>
</g>
<!-- Node13&#45;&gt;Node48 -->
<g id="edge25_Node000013_Node000048" class="edge">
<title>Node13&#45;&gt;Node48</title>
<g id="a_edge25_Node000013_Node000048"><a xlink:title=" ">
<path fill="none" stroke="#63b8ff" d="M715.91,-489.87C732.8,-472.98 767.34,-436.31 788,-399.5 811.74,-357.21 788.73,-329.78 824,-296.5 826.61,-294.04 829.52,-291.89 832.62,-290.02"/>
<polygon fill="#63b8ff" stroke="#63b8ff" points="834.4,-293.04 841.78,-285.44 831.27,-286.78 834.4,-293.04"/>
</a>
</g>
</g>
<!-- Node52&#45;&gt;Node52 -->
<g id="edge30_Node000052_Node000052" class="edge">
<title>Node52&#45;&gt;Node52</title>
<g id="a_edge30_Node000052_Node000052"><a xlink:title=" ">
<path fill="none" stroke="#63b8ff" d="M282.3,-380.08C269.55,-388.73 278.29,-398 308.5,-398 328.8,-398 339.4,-393.82 340.31,-388.45"/>
<polygon fill="#63b8ff" stroke="#63b8ff" points="343.18,-386.44 334.7,-380.08 337.36,-390.34 343.18,-386.44"/>
</a>
</g>
</g>
<!-- Node54 -->
<g id="Node000054" class="node">
<title>Node54</title>
<g id="a_Node000054"><a xlink:href="../../dc/d91/namespacePostFX.html#a0118f43380559f09e9e80c2f73fd116a" target="_top" xlink:title="Apply a simple filmic tone&#45;mapping curve.">
<polygon fill="white" stroke="#666666" points="551,-399 452,-399 452,-380 551,-380 551,-399"/>
<text text-anchor="middle" x="501.5" y="-387" font-family="Helvetica,sans-Serif" font-size="10.00">PostFX::toneMap</text>
</a>
</g>
</g>
<!-- Node53&#45;&gt;Node54 -->
<g id="edge32_Node000053_Node000054" class="edge">
<title>Node53&#45;&gt;Node54</title>
<g id="a_edge32_Node000053_Node000054"><a xlink:title=" ">
<path fill="none" stroke="#63b8ff" d="M351.98,-343.1C361.65,-345.75 371.79,-348.9 381,-352.5 397.85,-359.09 400,-365.31 417,-371.5 424.91,-374.38 433.42,-376.87 441.88,-378.99"/>
<polygon fill="#63b8ff" stroke="#63b8ff" points="441.2,-382.43 451.74,-381.33 442.81,-375.62 441.2,-382.43"/>
</a>
</g>
</g>
<!-- Node55 -->
<g id="Node000055" class="node">
<title>Node55</title>
<g id="a_Node000055"><a xlink:href="../../dc/d91/namespacePostFX.html#a9ac2e9d3b3df1cf6cc65ea14a349f828" target="_top" xlink:title="Radial vignette fall&#45;off factor for pixel *(i,j)*.">
<polygon fill="white" stroke="#666666" points="564.5,-362 438.5,-362 438.5,-343 564.5,-343 564.5,-362"/>
<text text-anchor="middle" x="501.5" y="-350" font-family="Helvetica,sans-Serif" font-size="10.00">PostFX::vignetteFactor</text>
</a>
</g>
</g>
<!-- Node53&#45;&gt;Node55 -->
<g id="edge33_Node000053_Node000055" class="edge">
<title>Node53&#45;&gt;Node55</title>
<g id="a_edge33_Node000053_Node000055"><a xlink:title=" ">
<path fill="none" stroke="#63b8ff" d="M366.03,-339.12C385.6,-341.07 407.8,-343.28 428.45,-345.33"/>
<polygon fill="#63b8ff" stroke="#63b8ff" points="428.14,-348.82 438.44,-346.33 428.83,-341.85 428.14,-348.82"/>
</a>
</g>
</g>
<!-- Node57 -->
<g id="Node000057" class="node">
<title>Node57</title>
<g id="a_Node000057"><a xlink:href="../../d9/d83/namespaceUtils_1_1Parallel.html#ab44c0e5cb1b952802aa37c4f94242ab6" target="_top" xlink:title="Execute a parallel for loop from start to end &#45; 1.">
<polygon fill="white" stroke="#666666" points="563.5,-325 439.5,-325 439.5,-306 563.5,-306 563.5,-325"/>
<text text-anchor="middle" x="501.5" y="-313" font-family="Helvetica,sans-Serif" font-size="10.00">Utils::Parallel::forLoop</text>
</a>
</g>
</g>
<!-- Node56&#45;&gt;Node57 -->
<g id="edge35_Node000056_Node000057" class="edge">
<title>Node56&#45;&gt;Node57</title>
<g id="a_edge35_Node000056_Node000057"><a xlink:title=" ">
<path fill="none" stroke="#63b8ff" d="M362.2,-301.74C382.88,-303.8 406.94,-306.19 429.14,-308.4"/>
<polygon fill="#63b8ff" stroke="#63b8ff" points="428.89,-311.89 439.19,-309.4 429.58,-304.93 428.89,-311.89"/>
</a>
</g>
</g>
<!-- Node58 -->
<g id="Node000058" class="node">
<title>Node58</title>
<g id="a_Node000058"><a xlink:href="../../d4/d3d/namespaceUtils.html#aaf2c4e5a59ec45284cfcdf257a9218f1" target="_top" xlink:title="Prints a terminal progress bar for rendering.">
<polygon fill="white" stroke="#666666" points="564.5,-288 438.5,-288 438.5,-269 564.5,-269 564.5,-288"/>
<text text-anchor="middle" x="501.5" y="-276" font-family="Helvetica,sans-Serif" font-size="10.00">Utils::PrintProgressBar</text>
</a>
</g>
</g>
<!-- Node56&#45;&gt;Node58 -->
<g id="edge36_Node000056_Node000058" class="edge">
<title>Node56&#45;&gt;Node58</title>
<g id="a_edge36_Node000056_Node000058"><a xlink:title=" ">
<path fill="none" stroke="#63b8ff" d="M362.2,-291.53C382.69,-289.6 406.5,-287.36 428.52,-285.28"/>
<polygon fill="#63b8ff" stroke="#63b8ff" points="428.87,-288.77 438.5,-284.34 428.21,-281.8 428.87,-288.77"/>
</a>
</g>
</g>
<!-- Node59 -->
<g id="Node000059" class="node">
<title>Node59</title>
<g id="a_Node000059"><a xlink:href="../../dc/dd2/classRayTracer_1_1Camera.html#a6e15aa9e80304dd752366647553f2f5f" target="_top" xlink:title="Generate a primary ray through screen coordinates *(s,t)*.">
<polygon fill="white" stroke="#666666" points="567,-251 436,-251 436,-232 567,-232 567,-251"/>
<text text-anchor="middle" x="501.5" y="-239" font-family="Helvetica,sans-Serif" font-size="10.00">RayTracer::Camera::ray</text>
</a>
</g>
</g>
<!-- Node56&#45;&gt;Node59 -->
<g id="edge37_Node000056_Node000059" class="edge">
<title>Node56&#45;&gt;Node59</title>
<g id="a_edge37_Node000056_Node000059"><a xlink:title=" ">
<path fill="none" stroke="#63b8ff" d="M353.82,-286.94C362.92,-284.53 372.36,-281.7 381,-278.5 397.77,-272.28 400.16,-266.53 417,-260.5 424.28,-257.89 432.06,-255.56 439.82,-253.5"/>
<polygon fill="#63b8ff" stroke="#63b8ff" points="440.76,-256.87 449.6,-251.03 439.05,-250.08 440.76,-256.87"/>
</a>
</g>
</g>
<!-- Node60 -->
<g id="Node000060" class="node">
<title>Node60</title>
<g id="a_Node000060"><a xlink:href="../../d1/df4/namespaceRayTracer.html#ab1ca8a59872e03b73fafc26443c5c1df" target="_top" xlink:title="Recursive path&#45;tracing integrator.">
<polygon fill="white" stroke="#666666" points="551.5,-196 451.5,-196 451.5,-177 551.5,-177 551.5,-196"/>
<text text-anchor="middle" x="501.5" y="-184" font-family="Helvetica,sans-Serif" font-size="10.00">RayTracer::shade</text>
</a>
</g>
</g>
<!-- Node56&#45;&gt;Node60 -->
<g id="edge38_Node000056_Node000060" class="edge">
<title>Node56&#45;&gt;Node60</title>
<g id="a_edge38_Node000056_Node000060"><a xlink:title=" ">
<path fill="none" stroke="#63b8ff" d="M362.28,-288.06C368.93,-285.63 375.37,-282.51 381,-278.5 404.8,-261.55 394.73,-242.41 417,-223.5 428.98,-213.32 444.2,-205.48 458.36,-199.69"/>
<polygon fill="#63b8ff" stroke="#63b8ff" points="459.86,-202.86 467.93,-196.01 457.35,-196.33 459.86,-202.86"/>
</a>
</g>
</g>
<!-- Node60&#45;&gt;Node60 -->
<g id="edge49_Node000060_Node000060" class="edge">
<title>Node60&#45;&gt;Node60</title>
<g id="a_edge49_Node000060_Node000060"><a xlink:title=" ">
<path fill="none" stroke="#63b8ff" d="M471.91,-196.08C457.51,-204.73 467.38,-214 501.5,-214 524.96,-214 536.95,-209.62 537.48,-204.07"/>
<polygon fill="#63b8ff" stroke="#63b8ff" points="540.07,-201.71 531.09,-196.08 534.61,-206.08 540.07,-201.71"/>
</a>
</g>
</g>
<!-- Node61 -->
<g id="Node000061" class="node">
<title>Node61</title>
<g id="a_Node000061"><a xlink:href="../../d0/d82/classRayTracer_1_1ILight.html#a47469714a2ccb5287845a4f059f224cf" target="_top" xlink:title="Compute the incoming light direction at a surface point.">
<polygon fill="white" stroke="#666666" points="757,-390.5 653,-390.5 653,-360.5 757,-360.5 757,-390.5"/>
<text text-anchor="start" x="661" y="-378.5" font-family="Helvetica,sans-Serif" font-size="10.00">RayTracer::ILight::</text>
<text text-anchor="middle" x="705" y="-367.5" font-family="Helvetica,sans-Serif" font-size="10.00">direction</text>
</a>
</g>
</g>
<!-- Node60&#45;&gt;Node61 -->
<g id="edge39_Node000060_Node000061" class="edge">
<title>Node60&#45;&gt;Node61</title>
<g id="a_edge39_Node000060_Node000061"><a xlink:title=" ">
<path fill="none" stroke="#63b8ff" d="M541.79,-196.07C557.48,-201.7 574.51,-210.38 586,-223.5 623.52,-266.35 582.85,-305.13 622,-346.5 628.03,-352.88 635.55,-357.85 643.57,-361.73"/>
<polygon fill="#63b8ff" stroke="#63b8ff" points="642.22,-364.96 652.79,-365.67 644.97,-358.52 642.22,-364.96"/>
</a>
</g>
</g>
<!-- Node62 -->
<g id="Node000062" class="node">
<title>Node62</title>
<g id="a_Node000062"><a xlink:href="../../d6/d30/structMath_1_1Vector3D.html#aa57c357f4be8837461cdd32bd3e5d7dc" target="_top" xlink:title="Computes the dot product between this and another vector.">
<polygon fill="white" stroke="#666666" points="948,-150 835,-150 835,-131 948,-131 948,-150"/>
<text text-anchor="middle" x="891.5" y="-138" font-family="Helvetica,sans-Serif" font-size="10.00">Math::Vector3D::dot</text>
</a>
</g>
</g>
<!-- Node60&#45;&gt;Node62 -->
<g id="edge40_Node000060_Node000062" class="edge">
<title>Node60&#45;&gt;Node62</title>
<g id="a_edge40_Node000060_Node000062"><a xlink:title=" ">
<path fill="none" stroke="#63b8ff" d="M539.49,-196.01C555.52,-201.73 573.45,-210.49 586,-223.5 615.9,-254.52 586.33,-289.35 622,-313.5 683.09,-354.86 723.9,-350.03 788,-313.5 795.7,-309.11 855.74,-202.72 880.19,-159"/>
<polygon fill="#63b8ff" stroke="#63b8ff" points="883.4,-160.44 885.22,-150 877.28,-157.03 883.4,-160.44"/>
</a>
</g>
</g>
<!-- Node63 -->
<g id="Node000063" class="node">
<title>Node63</title>
<g id="a_Node000063"><a xlink:href="../../dc/d25/classRayTracer_1_1Scene.html#adb32144e3e23e2bb9a6e6d702f6d52e7" target="_top" xlink:title="Intersect a ray with all objects in the scene.">
<polygon fill="white" stroke="#666666" points="764.5,-304 645.5,-304 645.5,-285 764.5,-285 764.5,-304"/>
<text text-anchor="middle" x="705" y="-292" font-family="Helvetica,sans-Serif" font-size="10.00">RayTracer::Scene::hit</text>
</a>
</g>
</g>
<!-- Node60&#45;&gt;Node63 -->
<g id="edge41_Node000060_Node000063" class="edge">
<title>Node60&#45;&gt;Node63</title>
<g id="a_edge41_Node000060_Node000063"><a xlink:title=" ">
<path fill="none" stroke="#63b8ff" d="M534.53,-196.02C551.11,-202.04 570.97,-211.07 586,-223.5 607.66,-241.42 598.74,-259.71 622,-275.5 626.27,-278.4 630.93,-280.86 635.78,-282.95"/>
<polygon fill="#63b8ff" stroke="#63b8ff" points="634.71,-286.29 645.3,-286.53 637.17,-279.74 634.71,-286.29"/>
</a>
</g>
</g>
<!-- Node64 -->
<g id="Node000064" class="node">
<title>Node64</title>
<g id="a_Node000064"><a xlink:href="../../d0/d82/classRayTracer_1_1ILight.html#a38eab6f380194227f9c1085260092315" target="_top" xlink:title="Get the scalar intensity (power) of the light.">
<polygon fill="white" stroke="#666666" points="757,-266.5 653,-266.5 653,-236.5 757,-236.5 757,-266.5"/>
<text text-anchor="start" x="661" y="-254.5" font-family="Helvetica,sans-Serif" font-size="10.00">RayTracer::ILight::</text>
<text text-anchor="middle" x="705" y="-243.5" font-family="Helvetica,sans-Serif" font-size="10.00">intensity</text>
</a>
</g>
</g>
<!-- Node60&#45;&gt;Node64 -->
<g id="edge42_Node000060_Node000064" class="edge">
<title>Node60&#45;&gt;Node64</title>
<g id="a_edge42_Node000060_Node000064"><a xlink:title=" ">
<path fill="none" stroke="#63b8ff" d="M529.44,-196.14C553.58,-204.68 590.02,-217.34 622,-227.5 628.8,-229.66 635.95,-231.86 643.06,-234"/>
<polygon fill="#63b8ff" stroke="#63b8ff" points="642.13,-237.38 652.71,-236.88 644.13,-230.67 642.13,-237.38"/>
</a>
</g>
</g>
<!-- Node65 -->
<g id="Node000065" class="node">
<title>Node65</title>
<g id="a_Node000065"><a xlink:href="../../d6/d30/structMath_1_1Vector3D.html#a598b2b7fe5b2b34c111ee68015080334" target="_top" xlink:title="Returns a normalized (unit&#45;length) copy of the vector.">
<polygon fill="white" stroke="#666666" points="781,-218 629,-218 629,-199 781,-199 781,-218"/>
<text text-anchor="middle" x="705" y="-206" font-family="Helvetica,sans-Serif" font-size="10.00">Math::Vector3D::normalized</text>
</a>
</g>
</g>
<!-- Node60&#45;&gt;Node65 -->
<g id="edge43_Node000060_Node000065" class="edge">
<title>Node60&#45;&gt;Node65</title>
<g id="a_edge43_Node000060_Node000065"><a xlink:title=" ">
<path fill="none" stroke="#63b8ff" d="M551.53,-191.85C571.73,-194.06 595.73,-196.68 618.64,-199.18"/>
<polygon fill="#63b8ff" stroke="#63b8ff" points="618.4,-202.67 628.72,-200.28 619.16,-195.72 618.4,-202.67"/>
</a>
</g>
</g>
<!-- Node66 -->
<g id="Node000066" class="node">
<title>Node66</title>
<g id="a_Node000066"><a xlink:href="../../d0/d82/classRayTracer_1_1ILight.html#ab7ee56a002dd2f9adbee38aaee4b1538" target="_top" xlink:title="Retrieve the light’s world&#45;space position if applicable.">
<polygon fill="white" stroke="#666666" points="757,-180.5 653,-180.5 653,-150.5 757,-150.5 757,-180.5"/>
<text text-anchor="start" x="661" y="-168.5" font-family="Helvetica,sans-Serif" font-size="10.00">RayTracer::ILight::</text>
<text text-anchor="middle" x="705" y="-157.5" font-family="Helvetica,sans-Serif" font-size="10.00">position</text>
</a>
</g>
</g>
<!-- Node60&#45;&gt;Node66 -->
<g id="edge44_Node000060_Node000066" class="edge">
<title>Node60&#45;&gt;Node66</title>
<g id="a_edge44_Node000060_Node000066"><a xlink:title=" ">
<path fill="none" stroke="#63b8ff" d="M551.53,-181.39C579.05,-178.52 613.61,-174.92 642.88,-171.87"/>
<polygon fill="#63b8ff" stroke="#63b8ff" points="643.4,-175.33 652.99,-170.82 642.68,-168.37 643.4,-175.33"/>
</a>
</g>
</g>
<!-- Node67 -->
<g id="Node000067" class="node">
<title>Node67</title>
<g id="a_Node000067"><a xlink:href="../../d1/df4/namespaceRayTracer.html#ae95ed0335c1ba084545f21d7f61c8942" target="_top" xlink:title="Generate a single uniform random number in [0,1).">
<polygon fill="white" stroke="#666666" points="943.5,-113 839.5,-113 839.5,-94 943.5,-94 943.5,-113"/>
<text text-anchor="middle" x="891.5" y="-101" font-family="Helvetica,sans-Serif" font-size="10.00">RayTracer::rand01</text>
</a>
</g>
</g>
<!-- Node60&#45;&gt;Node67 -->
<g id="edge45_Node000060_Node000067" class="edge">
<title>Node60&#45;&gt;Node67</title>
<g id="a_edge45_Node000060_Node000067"><a xlink:title=" ">
<path fill="none" stroke="#63b8ff" d="M511.9,-176.83C530.72,-158.26 575.24,-118.15 622,-103.5 690.57,-82.02 773.92,-86.41 829.39,-93.3"/>
<polygon fill="#63b8ff" stroke="#63b8ff" points="829.04,-96.79 839.41,-94.61 829.95,-89.85 829.04,-96.79"/>
</a>
</g>
</g>
<!-- Node68 -->
<g id="Node000068" class="node">
<title>Node68</title>
<g id="a_Node000068"><a xlink:href="../../d1/df4/namespaceRayTracer.html#ab7c27bbad4b80e8966900494064dbb20" target="_top" xlink:title="Cosine&#45;weighted hemisphere sampling around a shading normal.">
<polygon fill="#fff0f0" stroke="red" points="788,-132 622,-132 622,-113 788,-113 788,-132"/>
<text text-anchor="middle" x="705" y="-120" font-family="Helvetica,sans-Serif" font-size="10.00">RayTracer::sampleHemisphere</text>
</a>
</g>
</g>
<!-- Node60&#45;&gt;Node68 -->
<g id="edge46_Node000060_Node000068" class="edge">
<title>Node60&#45;&gt;Node68</title>
<g id="a_edge46_Node000060_Node000068"><a xlink:title=" ">
<path fill="none" stroke="#63b8ff" d="M525.1,-176.96C548.9,-167.16 587.63,-151.9 622,-141.5 630.33,-138.98 639.23,-136.6 647.97,-134.44"/>
<polygon fill="#63b8ff" stroke="#63b8ff" points="648.84,-137.83 657.75,-132.09 647.2,-131.02 648.84,-137.83"/>
</a>
</g>
</g>
<!-- Node69 -->
<g id="Node000069" class="node">
<title>Node69</title>
<g id="a_Node000069"><a xlink:href="../../db/d92/namespaceSkybox.html#a4a9c986d1ee3f28f9b2e419b743f5ebf" target="_top" xlink:title="Procedural horizon&#45;to&#45;zenith gradient.">
<polygon fill="#fff0f0" stroke="red" points="763,-56 647,-56 647,-37 763,-37 763,-56"/>
<text text-anchor="middle" x="705" y="-44" font-family="Helvetica,sans-Serif" font-size="10.00">Skybox::skyGradient</text>
</a>
</g>
</g>
<!-- Node60&#45;&gt;Node69 -->
<g id="edge50_Node000060_Node000069" class="edge">
<title>Node60&#45;&gt;Node69</title>
<g id="a_edge50_Node000060_Node000069"><a xlink:title=" ">
<path fill="none" stroke="#63b8ff" d="M509.72,-176.79C526.76,-154.58 571.79,-99.76 622,-70.5 629.73,-66 638.37,-62.28 647.06,-59.24"/>
<polygon fill="#63b8ff" stroke="#63b8ff" points="648.4,-62.48 656.84,-56.07 646.25,-55.82 648.4,-62.48"/>
</a>
</g>
</g>
<!-- Node71 -->
<g id="Node000071" class="node">
<title>Node71</title>
<g id="a_Node000071"><a xlink:href="../../d0/d82/classRayTracer_1_1ILight.html#a4aaa93d94da7fc685a2a98a57310b3e5" target="_top" xlink:title="Get the type of this light.">
<polygon fill="white" stroke="#666666" points="767.5,-19 642.5,-19 642.5,0 767.5,0 767.5,-19"/>
<text text-anchor="middle" x="705" y="-7" font-family="Helvetica,sans-Serif" font-size="10.00">RayTracer::ILight::type</text>
</a>
</g>
</g>
<!-- Node60&#45;&gt;Node71 -->
<g id="edge51_Node000060_Node000071" class="edge">
<title>Node60&#45;&gt;Node71</title>
<g id="a_edge51_Node000060_Node000071"><a xlink:title=" ">
<path fill="none" stroke="#63b8ff" d="M506.78,-176.74C519.66,-148.58 561,-66.7 622,-27.5 625.42,-25.3 629.07,-23.37 632.85,-21.67"/>
<polygon fill="#63b8ff" stroke="#63b8ff" points="634.45,-24.8 642.5,-17.91 631.91,-18.28 634.45,-24.8"/>
</a>
</g>
</g>
<!-- Node68&#45;&gt;Node62 -->
<g id="edge47_Node000068_Node000062" class="edge">
<title>Node68&#45;&gt;Node62</title>
<g id="a_edge47_Node000068_Node000062"><a xlink:title=" ">
<path fill="none" stroke="#63b8ff" d="M788.27,-130.53C800.46,-131.72 812.88,-132.93 824.68,-134.08"/>
<polygon fill="#63b8ff" stroke="#63b8ff" points="824.56,-137.58 834.86,-135.07 825.24,-130.62 824.56,-137.58"/>
</a>
</g>
</g>
<!-- Node68&#45;&gt;Node67 -->
<g id="edge48_Node000068_Node000067" class="edge">
<title>Node68&#45;&gt;Node67</title>
<g id="a_edge48_Node000068_Node000067"><a xlink:title=" ">
<path fill="none" stroke="#63b8ff" d="M788.27,-114.03C801.99,-112.61 816.01,-111.17 829.1,-109.82"/>
<polygon fill="#63b8ff" stroke="#63b8ff" points="829.78,-113.27 839.37,-108.77 829.07,-106.31 829.78,-113.27"/>
</a>
</g>
</g>
<!-- Node72&#45;&gt;Node72 -->
<g id="edge53_Node000072_Node000072" class="edge">
<title>Node72&#45;&gt;Node72</title>
<g id="a_edge53_Node000072_Node000072"><a xlink:title=" ">
<path fill="none" stroke="#63b8ff" d="M282.3,-251.08C269.55,-259.73 278.29,-269 308.5,-269 328.8,-269 339.4,-264.82 340.31,-259.45"/>
<polygon fill="#63b8ff" stroke="#63b8ff" points="343.18,-257.44 334.7,-251.08 337.36,-261.34 343.18,-257.44"/>
</a>
</g>
</g>
</g>
</svg>
