<?xml version="1.0" encoding="UTF-8" standalone="no"?>
<!DOCTYPE svg PUBLIC "-//W3C//DTD SVG 1.1//EN"
 "http://www.w3.org/Graphics/SVG/1.1/DTD/svg11.dtd">
<!-- Generated by graphviz version 2.43.0 (0)
 -->
<!-- Title: include/rendering/PostFX.hpp Pages: 1 -->
<svg width="645pt" height="247pt"
 viewBox="0.00 0.00 644.50 247.00" xmlns="http://www.w3.org/2000/svg" xmlns:xlink="http://www.w3.org/1999/xlink">
<g id="graph0" class="graph" transform="scale(1 1) rotate(0) translate(4 243)">
<title>include/rendering/PostFX.hpp</title>
<!-- Node1 -->
<g id="Node000001" class="node">
<title>Node1</title>
<g id="a_Node000001"><a xlink:title="Declares simple post&#45;processing helpers (contrast, saturation, tone&#45;mapping, vignette) for the ray&#45;tr...">
<polygon fill="#999999" stroke="#666666" points="494,-239 335,-239 335,-220 494,-220 494,-239"/>
<text text-anchor="middle" x="414.5" y="-227" font-family="Helvetica,sans-Serif" font-size="10.00">include/rendering/PostFX.hpp</text>
</a>
</g>
</g>
<!-- Node2 -->
<g id="Node000002" class="node">
<title>Node2</title>
<g id="a_Node000002"><a xlink:href="../../d0/d3a/Raytracer_8hpp.html" target="_top" xlink:title="Declares the main Raytracer application class for program execution and argument handling.">
<polygon fill="white" stroke="#666666" points="407.5,-184 261.5,-184 261.5,-165 407.5,-165 407.5,-184"/>
<text text-anchor="middle" x="334.5" y="-172" font-family="Helvetica,sans-Serif" font-size="10.00">include/core/Raytracer.hpp</text>
</a>
</g>
</g>
<!-- Node1&#45;&gt;Node2 -->
<g id="edge1_Node000001_Node000002" class="edge">
<title>Node1&#45;&gt;Node2</title>
<g id="a_edge1_Node000001_Node000002"><a xlink:title=" ">
<path fill="none" stroke="#63b8ff" d="M393.25,-214.42C378.74,-204.81 359.96,-192.37 347.59,-184.17"/>
<polygon fill="#63b8ff" stroke="#63b8ff" points="391.38,-217.38 401.65,-219.98 395.24,-211.54 391.38,-217.38"/>
</a>
</g>
</g>
<!-- Node10 -->
<g id="Node000010" class="node">
<title>Node10</title>
<g id="a_Node000010"><a xlink:href="../../d7/dad/PostFX_8cpp.html" target="_top" xlink:title=" ">
<polygon fill="white" stroke="#666666" points="563,-184 426,-184 426,-165 563,-165 563,-184"/>
<text text-anchor="middle" x="494.5" y="-172" font-family="Helvetica,sans-Serif" font-size="10.00">src/rendering/PostFX.cpp</text>
</a>
</g>
</g>
<!-- Node1&#45;&gt;Node10 -->
<g id="edge12_Node000001_Node000010" class="edge">
<title>Node1&#45;&gt;Node10</title>
<g id="a_edge12_Node000001_Node000010"><a xlink:title=" ">
<path fill="none" stroke="#63b8ff" d="M435.75,-214.42C450.26,-204.81 469.04,-192.37 481.41,-184.17"/>
<polygon fill="#63b8ff" stroke="#63b8ff" points="433.76,-211.54 427.35,-219.98 437.62,-217.38 433.76,-211.54"/>
</a>
</g>
</g>
<!-- Node3 -->
<g id="Node000003" class="node">
<title>Node3</title>
<g id="a_Node000003"><a xlink:href="../../d7/d09/Utils_8hpp.html" target="_top" xlink:title="Utility functions and structures for raytracer configuration, rendering and post&#45;processing.">
<polygon fill="white" stroke="#666666" points="306.5,-129 184.5,-129 184.5,-110 306.5,-110 306.5,-129"/>
<text text-anchor="middle" x="245.5" y="-117" font-family="Helvetica,sans-Serif" font-size="10.00">include/core/Utils.hpp</text>
</a>
</g>
</g>
<!-- Node2&#45;&gt;Node3 -->
<g id="edge2_Node000002_Node000003" class="edge">
<title>Node2&#45;&gt;Node3</title>
<g id="a_edge2_Node000002_Node000003"><a xlink:title=" ">
<path fill="none" stroke="#63b8ff" d="M306.28,-160.23C288.66,-150.51 267.24,-137.6 254.91,-129.17"/>
<polygon fill="#63b8ff" stroke="#63b8ff" points="304.62,-163.31 315.09,-164.98 307.95,-157.15 304.62,-163.31"/>
</a>
</g>
</g>
<!-- Node5 -->
<g id="Node000005" class="node">
<title>Node5</title>
<g id="a_Node000005"><a xlink:href="../../df/d39/Raytracer_8cpp.html" target="_top" xlink:title="Implements the main execution flow of the Raytracer application, including argument parsing,...">
<polygon fill="white" stroke="#666666" points="332,-19 207,-19 207,0 332,0 332,-19"/>
<text text-anchor="middle" x="269.5" y="-7" font-family="Helvetica,sans-Serif" font-size="10.00">src/core/Raytracer.cpp</text>
</a>
</g>
</g>
<!-- Node2&#45;&gt;Node5 -->
<g id="edge9_Node000002_Node000005" class="edge">
<title>Node2&#45;&gt;Node5</title>
<g id="a_edge9_Node000002_Node000005"><a xlink:title=" ">
<path fill="none" stroke="#63b8ff" d="M335.06,-154.87C335.02,-130.53 332.29,-87.22 315.5,-55 307.69,-40.02 292.94,-27.14 282.24,-19.15"/>
<polygon fill="#63b8ff" stroke="#63b8ff" points="331.56,-154.84 334.92,-164.89 338.56,-154.94 331.56,-154.84"/>
</a>
</g>
</g>
<!-- Node8 -->
<g id="Node000008" class="node">
<title>Node8</title>
<g id="a_Node000008"><a xlink:href="../../df/d0a/main_8cpp.html" target="_top" xlink:title="Entry point of the raytracer application. Initializes and runs the Raytracer engine.">
<polygon fill="white" stroke="#666666" points="466,-129 363,-129 363,-110 466,-110 466,-129"/>
<text text-anchor="middle" x="414.5" y="-117" font-family="Helvetica,sans-Serif" font-size="10.00">src/core/main.cpp</text>
</a>
</g>
</g>
<!-- Node2&#45;&gt;Node8 -->
<g id="edge10_Node000002_Node000008" class="edge">
<title>Node2&#45;&gt;Node8</title>
<g id="a_edge10_Node000002_Node000008"><a xlink:title=" ">
<path fill="none" stroke="#63b8ff" d="M355.75,-159.42C370.26,-149.81 389.04,-137.37 401.41,-129.17"/>
<polygon fill="#63b8ff" stroke="#63b8ff" points="353.76,-156.54 347.35,-164.98 357.62,-162.38 353.76,-156.54"/>
</a>
</g>
</g>
<!-- Node9 -->
<g id="Node000009" class="node">
<title>Node9</title>
<g id="a_Node000009"><a xlink:href="../../d3/d79/SceneParser_8cpp.html" target="_top" xlink:title="Implements the scene loading system using libconfig for the raytracer engine.">
<polygon fill="white" stroke="#666666" points="636.5,-129 484.5,-129 484.5,-110 636.5,-110 636.5,-129"/>
<text text-anchor="middle" x="560.5" y="-117" font-family="Helvetica,sans-Serif" font-size="10.00">src/loaders/SceneParser.cpp</text>
</a>
</g>
</g>
<!-- Node2&#45;&gt;Node9 -->
<g id="edge11_Node000002_Node000009" class="edge">
<title>Node2&#45;&gt;Node9</title>
<g id="a_edge11_Node000002_Node000009"><a xlink:title=" ">
<path fill="none" stroke="#63b8ff" d="M380.59,-162.69C422.94,-152.76 484.86,-138.24 523.9,-129.08"/>
<polygon fill="#63b8ff" stroke="#63b8ff" points="379.75,-159.29 370.81,-164.98 381.35,-166.11 379.75,-159.29"/>
</a>
</g>
</g>
<!-- Node3&#45;&gt;Node2 -->
<g id="edge3_Node000003_Node000002" class="edge">
<title>Node3&#45;&gt;Node2</title>
<g id="a_edge3_Node000003_Node000002"><a xlink:title=" ">
<path fill="none" stroke="#63b8ff" d="M274.04,-133.95C291.71,-143.7 313.1,-156.61 325.32,-164.98"/>
<polygon fill="#63b8ff" stroke="#63b8ff" points="275.67,-130.85 265.21,-129.17 272.34,-137.01 275.67,-130.85"/>
</a>
</g>
</g>
<!-- Node4 -->
<g id="Node000004" class="node">
<title>Node4</title>
<g id="a_Node000004"><a xlink:href="../../da/d7d/Visualizer_8hpp.html" target="_top" xlink:title=" ">
<polygon fill="white" stroke="#666666" points="187,-74 40,-74 40,-55 187,-55 187,-74"/>
<text text-anchor="middle" x="113.5" y="-62" font-family="Helvetica,sans-Serif" font-size="10.00">include/core/Visualizer.hpp</text>
</a>
</g>
</g>
<!-- Node3&#45;&gt;Node4 -->
<g id="edge4_Node000003_Node000004" class="edge">
<title>Node3&#45;&gt;Node4</title>
<g id="a_edge4_Node000003_Node000004"><a xlink:title=" ">
<path fill="none" stroke="#63b8ff" d="M214.77,-106.16C190.33,-96.35 156.76,-82.87 135.09,-74.17"/>
<polygon fill="#63b8ff" stroke="#63b8ff" points="213.71,-109.51 224.29,-109.98 216.32,-103.01 213.71,-109.51"/>
</a>
</g>
</g>
<!-- Node6 -->
<g id="Node000006" class="node">
<title>Node6</title>
<g id="a_Node000006"><a xlink:href="../../d7/dd9/Visualizer_8cpp.html" target="_top" xlink:title="Implements visualization modes for the raytracer using SFML.">
<polygon fill="white" stroke="#666666" points="125,-19 0,-19 0,0 125,0 125,-19"/>
<text text-anchor="middle" x="62.5" y="-7" font-family="Helvetica,sans-Serif" font-size="10.00">src/core/Visualizer.cpp</text>
</a>
</g>
</g>
<!-- Node3&#45;&gt;Node6 -->
<g id="edge8_Node000003_Node000006" class="edge">
<title>Node3&#45;&gt;Node6</title>
<g id="a_edge8_Node000003_Node000006"><a xlink:title=" ">
<path fill="none" stroke="#63b8ff" d="M174.11,-113.27C118.74,-107.55 48.48,-96.09 30.5,-74 16.47,-56.77 37.99,-32.38 52,-19.41"/>
<polygon fill="#63b8ff" stroke="#63b8ff" points="173.97,-116.77 184.26,-114.27 174.66,-109.81 173.97,-116.77"/>
</a>
</g>
</g>
<!-- Node7 -->
<g id="Node000007" class="node">
<title>Node7</title>
<g id="a_Node000007"><a xlink:href="../../df/d0c/Utils_8cpp.html" target="_top" xlink:title="Implements utility functions for argument parsing, rendering, post&#45;processing, and denoising in the r...">
<polygon fill="white" stroke="#666666" points="306,-74 205,-74 205,-55 306,-55 306,-74"/>
<text text-anchor="middle" x="255.5" y="-62" font-family="Helvetica,sans-Serif" font-size="10.00">src/core/Utils.cpp</text>
</a>
</g>
</g>
<!-- Node3&#45;&gt;Node7 -->
<g id="edge7_Node000003_Node000007" class="edge">
<title>Node3&#45;&gt;Node7</title>
<g id="a_edge7_Node000003_Node000007"><a xlink:title=" ">
<path fill="none" stroke="#63b8ff" d="M249.05,-99.66C250.7,-90.93 252.58,-80.99 253.88,-74.09"/>
<polygon fill="#63b8ff" stroke="#63b8ff" points="245.57,-99.27 247.15,-109.75 252.44,-100.57 245.57,-99.27"/>
</a>
</g>
</g>
<!-- Node4&#45;&gt;Node5 -->
<g id="edge5_Node000004_Node000005" class="edge">
<title>Node4&#45;&gt;Node5</title>
<g id="a_edge5_Node000004_Node000005"><a xlink:title=" ">
<path fill="none" stroke="#63b8ff" d="M148.32,-51.67C177.41,-41.79 218.2,-27.93 244.24,-19.08"/>
<polygon fill="#63b8ff" stroke="#63b8ff" points="146.91,-48.45 138.56,-54.98 149.16,-55.08 146.91,-48.45"/>
</a>
</g>
</g>
<!-- Node4&#45;&gt;Node6 -->
<g id="edge6_Node000004_Node000006" class="edge">
<title>Node4&#45;&gt;Node6</title>
<g id="a_edge6_Node000004_Node000006"><a xlink:title=" ">
<path fill="none" stroke="#63b8ff" d="M98.12,-47.52C89.13,-38.18 78.14,-26.75 70.76,-19.09"/>
<polygon fill="#63b8ff" stroke="#63b8ff" points="95.62,-49.97 105.08,-54.75 100.67,-45.12 95.62,-49.97"/>
</a>
</g>
</g>
</g>
</svg>
