<?xml version="1.0" encoding="UTF-8" standalone="no"?>
<!DOCTYPE svg PUBLIC "-//W3C//DTD SVG 1.1//EN"
 "http://www.w3.org/Graphics/SVG/1.1/DTD/svg11.dtd">
<!-- Generated by graphviz version 2.43.0 (0)
 -->
<!-- Title: RayTracer::ILight Pages: 1 -->
<svg width="448pt" height="137pt"
 viewBox="0.00 0.00 447.50 137.00" xmlns="http://www.w3.org/2000/svg" xmlns:xlink="http://www.w3.org/1999/xlink">
<g id="graph0" class="graph" transform="scale(1 1) rotate(0) translate(4 133)">
<title>RayTracer::ILight</title>
<!-- Node1 -->
<g id="Node000001" class="node">
<title>Node1</title>
<g id="a_Node000001"><a xlink:title="Pure&#45;virtual interface for scene light sources.">
<polygon fill="#999999" stroke="#666666" points="277,-129 179,-129 179,-110 277,-110 277,-129"/>
<text text-anchor="middle" x="228" y="-117" font-family="Helvetica,sans-Serif" font-size="10.00">RayTracer::ILight</text>
</a>
</g>
</g>
<!-- Node2 -->
<g id="Node000002" class="node">
<title>Node2</title>
<g id="a_Node000002"><a xlink:href="../../df/d0a/classRayTracer_1_1ALight.html" target="_top" xlink:title=" ">
<polygon fill="white" stroke="#666666" points="278.5,-74 177.5,-74 177.5,-55 278.5,-55 278.5,-74"/>
<text text-anchor="middle" x="228" y="-62" font-family="Helvetica,sans-Serif" font-size="10.00">RayTracer::ALight</text>
</a>
</g>
</g>
<!-- Node1&#45;&gt;Node2 -->
<g id="edge1_Node000001_Node000002" class="edge">
<title>Node1&#45;&gt;Node2</title>
<g id="a_edge1_Node000001_Node000002"><a xlink:title=" ">
<path fill="none" stroke="#63b8ff" d="M228,-99.66C228,-90.93 228,-80.99 228,-74.09"/>
<polygon fill="#63b8ff" stroke="#63b8ff" points="224.5,-99.75 228,-109.75 231.5,-99.75 224.5,-99.75"/>
</a>
</g>
</g>
<!-- Node3 -->
<g id="Node000003" class="node">
<title>Node3</title>
<g id="a_Node000003"><a xlink:href="../../df/dc4/classRayTracer_1_1AmbientLight.html" target="_top" xlink:title="Simple ambient light: same contribution everywhere.">
<polygon fill="white" stroke="#666666" points="136,-19 0,-19 0,0 136,0 136,-19"/>
<text text-anchor="middle" x="68" y="-7" font-family="Helvetica,sans-Serif" font-size="10.00">RayTracer::AmbientLight</text>
</a>
</g>
</g>
<!-- Node2&#45;&gt;Node3 -->
<g id="edge2_Node000002_Node000003" class="edge">
<title>Node2&#45;&gt;Node3</title>
<g id="a_edge2_Node000002_Node000003"><a xlink:title=" ">
<path fill="none" stroke="#63b8ff" d="M192.67,-51.8C162.81,-41.91 120.73,-27.97 93.91,-19.08"/>
<polygon fill="#63b8ff" stroke="#63b8ff" points="191.7,-55.16 202.29,-54.98 193.9,-48.52 191.7,-55.16"/>
</a>
</g>
</g>
<!-- Node4 -->
<g id="Node000004" class="node">
<title>Node4</title>
<g id="a_Node000004"><a xlink:href="../../df/d64/classRayTracer_1_1DirectionalLight.html" target="_top" xlink:title="Parallel rays from a given direction (e.g. sunlight).">
<polygon fill="white" stroke="#666666" points="302,-19 154,-19 154,0 302,0 302,-19"/>
<text text-anchor="middle" x="228" y="-7" font-family="Helvetica,sans-Serif" font-size="10.00">RayTracer::DirectionalLight</text>
</a>
</g>
</g>
<!-- Node2&#45;&gt;Node4 -->
<g id="edge3_Node000002_Node000004" class="edge">
<title>Node2&#45;&gt;Node4</title>
<g id="a_edge3_Node000002_Node000004"><a xlink:title=" ">
<path fill="none" stroke="#63b8ff" d="M228,-44.66C228,-35.93 228,-25.99 228,-19.09"/>
<polygon fill="#63b8ff" stroke="#63b8ff" points="224.5,-44.75 228,-54.75 231.5,-44.75 224.5,-44.75"/>
</a>
</g>
</g>
<!-- Node5 -->
<g id="Node000005" class="node">
<title>Node5</title>
<g id="a_Node000005"><a xlink:href="../../df/de3/classRayTracer_1_1PointLight.html" target="_top" xlink:title="Emits equally in all directions from a point in space.">
<polygon fill="white" stroke="#666666" points="439.5,-19 320.5,-19 320.5,0 439.5,0 439.5,-19"/>
<text text-anchor="middle" x="380" y="-7" font-family="Helvetica,sans-Serif" font-size="10.00">RayTracer::PointLight</text>
</a>
</g>
</g>
<!-- Node2&#45;&gt;Node5 -->
<g id="edge4_Node000002_Node000005" class="edge">
<title>Node2&#45;&gt;Node5</title>
<g id="a_edge4_Node000002_Node000005"><a xlink:title=" ">
<path fill="none" stroke="#63b8ff" d="M261.93,-51.67C290.27,-41.79 330.02,-27.93 355.39,-19.08"/>
<polygon fill="#63b8ff" stroke="#63b8ff" points="260.71,-48.39 252.42,-54.98 263.02,-55 260.71,-48.39"/>
</a>
</g>
</g>
</g>
</svg>
