<?xml version="1.0" encoding="UTF-8" standalone="no"?>
<!DOCTYPE svg PUBLIC "-//W3C//DTD SVG 1.1//EN"
 "http://www.w3.org/Graphics/SVG/1.1/DTD/svg11.dtd">
<!-- Generated by graphviz version 2.43.0 (0)
 -->
<!-- Title: RayTracer::IPrimitive Pages: 1 -->
<svg width="448pt" height="508pt"
 viewBox="0.00 0.00 448.00 508.00" xmlns="http://www.w3.org/2000/svg" xmlns:xlink="http://www.w3.org/1999/xlink">
<g id="graph0" class="graph" transform="scale(1 1) rotate(0) translate(4 504)">
<title>RayTracer::IPrimitive</title>
<!-- Node1 -->
<g id="Node000001" class="node">
<title>Node1</title>
<g id="a_Node000001"><a xlink:title="Pure interface that every geometric primitive must implement.">
<polygon fill="#999999" stroke="#666666" points="118,-259 0,-259 0,-240 118,-240 118,-259"/>
<text text-anchor="middle" x="59" y="-247" font-family="Helvetica,sans-Serif" font-size="10.00">RayTracer::IPrimitive</text>
</a>
</g>
</g>
<!-- Node2 -->
<g id="Node000002" class="node">
<title>Node2</title>
<g id="a_Node000002"><a xlink:href="../../d9/d3d/classRayTracer_1_1APrimitive.html" target="_top" xlink:title=" ">
<polygon fill="white" stroke="#666666" points="276,-259 154,-259 154,-240 276,-240 276,-259"/>
<text text-anchor="middle" x="215" y="-247" font-family="Helvetica,sans-Serif" font-size="10.00">RayTracer::APrimitive</text>
</a>
</g>
</g>
<!-- Node1&#45;&gt;Node2 -->
<g id="edge1_Node000001_Node000002" class="edge">
<title>Node1&#45;&gt;Node2</title>
<g id="a_edge1_Node000001_Node000002"><a xlink:title=" ">
<path fill="none" stroke="#63b8ff" d="M128.47,-249.5C136.94,-249.5 145.56,-249.5 153.9,-249.5"/>
<polygon fill="#63b8ff" stroke="#63b8ff" points="128.22,-246 118.22,-249.5 128.22,-253 128.22,-246"/>
</a>
</g>
</g>
<!-- Node3 -->
<g id="Node000003" class="node">
<title>Node3</title>
<g id="a_Node000003"><a xlink:href="../../d0/de5/classRayTracer_1_1Box.html" target="_top" xlink:title="Axis&#45;aligned box primitive with ray intersection.">
<polygon fill="white" stroke="#666666" points="420.5,-500 331.5,-500 331.5,-481 420.5,-481 420.5,-500"/>
<text text-anchor="middle" x="376" y="-488" font-family="Helvetica,sans-Serif" font-size="10.00">RayTracer::Box</text>
</a>
</g>
</g>
<!-- Node2&#45;&gt;Node3 -->
<g id="edge2_Node000002_Node000003" class="edge">
<title>Node2&#45;&gt;Node3</title>
<g id="a_edge2_Node000002_Node000003"><a xlink:title=" ">
<path fill="none" stroke="#63b8ff" d="M218.77,-269.37C225.89,-312.88 248.95,-417.05 312,-472.5 317.55,-477.38 324.35,-480.95 331.39,-483.55"/>
<polygon fill="#63b8ff" stroke="#63b8ff" points="222.19,-268.6 217.22,-259.24 215.27,-269.66 222.19,-268.6"/>
</a>
</g>
</g>
<!-- Node4 -->
<g id="Node000004" class="node">
<title>Node4</title>
<g id="a_Node000004"><a xlink:href="../../db/d22/classRayTracer_1_1Cone.html" target="_top" xlink:title="Finite (capped) right‐circular cone primitive.">
<polygon fill="white" stroke="#666666" points="423.5,-463 328.5,-463 328.5,-444 423.5,-444 423.5,-463"/>
<text text-anchor="middle" x="376" y="-451" font-family="Helvetica,sans-Serif" font-size="10.00">RayTracer::Cone</text>
</a>
</g>
</g>
<!-- Node2&#45;&gt;Node4 -->
<g id="edge3_Node000002_Node000004" class="edge">
<title>Node2&#45;&gt;Node4</title>
<g id="a_edge3_Node000002_Node000004"><a xlink:title=" ">
<path fill="none" stroke="#63b8ff" d="M220.59,-269.16C230.49,-307.16 257.5,-390.86 312,-435.5 316.84,-439.46 322.51,-442.56 328.43,-444.97"/>
<polygon fill="#63b8ff" stroke="#63b8ff" points="223.95,-268.19 218.15,-259.33 217.16,-269.88 223.95,-268.19"/>
</a>
</g>
</g>
<!-- Node5 -->
<g id="Node000005" class="node">
<title>Node5</title>
<g id="a_Node000005"><a xlink:href="../../d8/d07/classRayTracer_1_1Cylinder.html" target="_top" xlink:title="Finite right&#45;circular cylinder primitive.">
<polygon fill="white" stroke="#666666" points="431.5,-426 320.5,-426 320.5,-407 431.5,-407 431.5,-426"/>
<text text-anchor="middle" x="376" y="-414" font-family="Helvetica,sans-Serif" font-size="10.00">RayTracer::Cylinder</text>
</a>
</g>
</g>
<!-- Node2&#45;&gt;Node5 -->
<g id="edge4_Node000002_Node000005" class="edge">
<title>Node2&#45;&gt;Node5</title>
<g id="a_edge4_Node000002_Node000005"><a xlink:title=" ">
<path fill="none" stroke="#63b8ff" d="M223.12,-268.73C235.9,-300.6 265.82,-364.23 312,-398.5 316.57,-401.89 321.75,-404.64 327.14,-406.88"/>
<polygon fill="#63b8ff" stroke="#63b8ff" points="226.31,-267.29 219.44,-259.23 219.79,-269.82 226.31,-267.29"/>
</a>
</g>
</g>
<!-- Node6 -->
<g id="Node000006" class="node">
<title>Node6</title>
<g id="a_Node000006"><a xlink:href="../../d8/d74/classRayTracer_1_1Matrix.html" target="_top" xlink:title="Applies a 3×3 linear transformation to a primitive.">
<polygon fill="white" stroke="#666666" points="427,-389 325,-389 325,-370 427,-370 427,-389"/>
<text text-anchor="middle" x="376" y="-377" font-family="Helvetica,sans-Serif" font-size="10.00">RayTracer::Matrix</text>
</a>
</g>
</g>
<!-- Node2&#45;&gt;Node6 -->
<g id="edge5_Node000002_Node000006" class="edge">
<title>Node2&#45;&gt;Node6</title>
<g id="a_edge5_Node000002_Node000006"><a xlink:title=" ">
<path fill="none" stroke="#63b8ff" d="M227,-268.11C242.71,-293.07 273.94,-337.09 312,-361.5 317.27,-364.88 323.18,-367.63 329.21,-369.88"/>
<polygon fill="#63b8ff" stroke="#63b8ff" points="229.79,-265.96 221.58,-259.26 223.82,-269.62 229.79,-265.96"/>
</a>
</g>
</g>
<!-- Node7 -->
<g id="Node000007" class="node">
<title>Node7</title>
<g id="a_Node000007"><a xlink:href="../../d4/da0/classRayTracer_1_1Menger.html" target="_top" xlink:title="Fractal “Menger Sponge” built from axis&#45;aligned boxes.">
<polygon fill="white" stroke="#666666" points="429.5,-352 322.5,-352 322.5,-333 429.5,-333 429.5,-352"/>
<text text-anchor="middle" x="376" y="-340" font-family="Helvetica,sans-Serif" font-size="10.00">RayTracer::Menger</text>
</a>
</g>
</g>
<!-- Node2&#45;&gt;Node7 -->
<g id="edge6_Node000002_Node000007" class="edge">
<title>Node2&#45;&gt;Node7</title>
<g id="a_edge6_Node000002_Node000007"><a xlink:title=" ">
<path fill="none" stroke="#63b8ff" d="M233.21,-266.35C251.4,-283.28 281.6,-309.03 312,-324.5 318.59,-327.85 325.89,-330.66 333.13,-332.99"/>
<polygon fill="#63b8ff" stroke="#63b8ff" points="235.41,-263.6 225.74,-259.25 230.58,-268.68 235.41,-263.6"/>
</a>
</g>
</g>
<!-- Node8 -->
<g id="Node000008" class="node">
<title>Node8</title>
<g id="a_Node000008"><a xlink:href="../../dc/da2/classRayTracer_1_1Plane.html" target="_top" xlink:title="Infinite, single&#45;sided plane primitive.">
<polygon fill="white" stroke="#666666" points="425,-315 327,-315 327,-296 425,-296 425,-315"/>
<text text-anchor="middle" x="376" y="-303" font-family="Helvetica,sans-Serif" font-size="10.00">RayTracer::Plane</text>
</a>
</g>
</g>
<!-- Node2&#45;&gt;Node8 -->
<g id="edge7_Node000002_Node000008" class="edge">
<title>Node2&#45;&gt;Node8</title>
<g id="a_edge7_Node000002_Node000008"><a xlink:title=" ">
<path fill="none" stroke="#63b8ff" d="M247.71,-262.96C266.28,-270.62 290.28,-280.12 312,-287.5 320.72,-290.46 330.23,-293.36 339.16,-295.92"/>
<polygon fill="#63b8ff" stroke="#63b8ff" points="248.85,-259.65 238.27,-259.04 246.16,-266.11 248.85,-259.65"/>
</a>
</g>
</g>
<!-- Node9 -->
<g id="Node000009" class="node">
<title>Node9</title>
<g id="a_Node000009"><a xlink:href="../../da/dad/classRayTracer_1_1Rotation.html" target="_top" xlink:title="Applies 3D Euler rotation to a primitive using a rotation matrix.">
<polygon fill="white" stroke="#666666" points="432,-278 320,-278 320,-259 432,-259 432,-278"/>
<text text-anchor="middle" x="376" y="-266" font-family="Helvetica,sans-Serif" font-size="10.00">RayTracer::Rotation</text>
</a>
</g>
</g>
<!-- Node2&#45;&gt;Node9 -->
<g id="edge8_Node000002_Node000009" class="edge">
<title>Node2&#45;&gt;Node9</title>
<g id="a_edge8_Node000002_Node000009"><a xlink:title=" ">
<path fill="none" stroke="#63b8ff" d="M286.31,-257.9C297.52,-259.24 308.98,-260.61 319.78,-261.9"/>
<polygon fill="#63b8ff" stroke="#63b8ff" points="286.46,-254.39 276.11,-256.68 285.63,-261.34 286.46,-254.39"/>
</a>
</g>
</g>
<!-- Node10 -->
<g id="Node000010" class="node">
<title>Node10</title>
<g id="a_Node000010"><a xlink:href="../../de/d10/classRayTracer_1_1Shear.html" target="_top" xlink:title="Applies a 3D shear transformation to a wrapped primitive.">
<polygon fill="white" stroke="#666666" points="425,-241 327,-241 327,-222 425,-222 425,-241"/>
<text text-anchor="middle" x="376" y="-229" font-family="Helvetica,sans-Serif" font-size="10.00">RayTracer::Shear</text>
</a>
</g>
</g>
<!-- Node2&#45;&gt;Node10 -->
<g id="edge9_Node000002_Node000010" class="edge">
<title>Node2&#45;&gt;Node10</title>
<g id="a_edge9_Node000002_Node000010"><a xlink:title=" ">
<path fill="none" stroke="#63b8ff" d="M286.07,-241.57C299.87,-240.01 314.06,-238.4 326.94,-236.94"/>
<polygon fill="#63b8ff" stroke="#63b8ff" points="285.65,-238.09 276.11,-242.69 286.44,-245.05 285.65,-238.09"/>
</a>
</g>
</g>
<!-- Node11 -->
<g id="Node000011" class="node">
<title>Node11</title>
<g id="a_Node000011"><a xlink:href="../../d3/d44/classRayTracer_1_1Sierpinski.html" target="_top" xlink:title="Représente un tétraèdre de Sierpinski récursif.">
<polygon fill="white" stroke="#666666" points="435.5,-204 316.5,-204 316.5,-185 435.5,-185 435.5,-204"/>
<text text-anchor="middle" x="376" y="-192" font-family="Helvetica,sans-Serif" font-size="10.00">RayTracer::Sierpinski</text>
</a>
</g>
</g>
<!-- Node2&#45;&gt;Node11 -->
<g id="edge10_Node000002_Node000011" class="edge">
<title>Node2&#45;&gt;Node11</title>
<g id="a_edge10_Node000002_Node000011"><a xlink:title=" ">
<path fill="none" stroke="#63b8ff" d="M249.68,-236.25C268,-229.2 291.13,-220.55 312,-213.5 321.63,-210.25 332.18,-206.96 341.85,-204.05"/>
<polygon fill="#63b8ff" stroke="#63b8ff" points="248.37,-233.01 240.3,-239.88 250.89,-239.53 248.37,-233.01"/>
</a>
</g>
</g>
<!-- Node12 -->
<g id="Node000012" class="node">
<title>Node12</title>
<g id="a_Node000012"><a xlink:href="../../d3/d0e/classRayTracer_1_1Sphere.html" target="_top" xlink:title="Sphere primitive for ray tracing.">
<polygon fill="white" stroke="#666666" points="428,-167 324,-167 324,-148 428,-148 428,-167"/>
<text text-anchor="middle" x="376" y="-155" font-family="Helvetica,sans-Serif" font-size="10.00">RayTracer::Sphere</text>
</a>
</g>
</g>
<!-- Node2&#45;&gt;Node12 -->
<g id="edge11_Node000002_Node000012" class="edge">
<title>Node2&#45;&gt;Node12</title>
<g id="a_edge11_Node000002_Node000012"><a xlink:title=" ">
<path fill="none" stroke="#63b8ff" d="M233.64,-232.95C251.95,-216.56 282.07,-191.76 312,-176.5 319.33,-172.76 327.52,-169.63 335.5,-167.05"/>
<polygon fill="#63b8ff" stroke="#63b8ff" points="231.13,-230.51 226.09,-239.83 235.84,-235.68 231.13,-230.51"/>
</a>
</g>
</g>
<!-- Node13 -->
<g id="Node000013" class="node">
<title>Node13</title>
<g id="a_Node000013"><a xlink:href="../../d0/db2/classRayTracer_1_1TangleCube.html" target="_top" xlink:title="Implicit tangleCube fractal surface.">
<polygon fill="white" stroke="#666666" points="439.5,-130 312.5,-130 312.5,-111 439.5,-111 439.5,-130"/>
<text text-anchor="middle" x="376" y="-118" font-family="Helvetica,sans-Serif" font-size="10.00">RayTracer::TangleCube</text>
</a>
</g>
</g>
<!-- Node2&#45;&gt;Node13 -->
<g id="edge12_Node000002_Node000013" class="edge">
<title>Node2&#45;&gt;Node13</title>
<g id="a_edge12_Node000002_Node000013"><a xlink:title=" ">
<path fill="none" stroke="#63b8ff" d="M227.13,-231.31C243,-206.89 274.4,-163.77 312,-139.5 317.95,-135.66 324.72,-132.56 331.55,-130.08"/>
<polygon fill="#63b8ff" stroke="#63b8ff" points="224.05,-229.64 221.66,-239.96 229.96,-233.38 224.05,-229.64"/>
</a>
</g>
</g>
<!-- Node14 -->
<g id="Node000014" class="node">
<title>Node14</title>
<g id="a_Node000014"><a xlink:href="../../df/d3f/classRayTracer_1_1Tetrahedron.html" target="_top" xlink:title="Primitive composée de 4 triangles formant un tétraèdre.">
<polygon fill="white" stroke="#666666" points="440,-93 312,-93 312,-74 440,-74 440,-93"/>
<text text-anchor="middle" x="376" y="-81" font-family="Helvetica,sans-Serif" font-size="10.00">RayTracer::Tetrahedron</text>
</a>
</g>
</g>
<!-- Node2&#45;&gt;Node14 -->
<g id="edge13_Node000002_Node000014" class="edge">
<title>Node2&#45;&gt;Node14</title>
<g id="a_edge13_Node000002_Node000014"><a xlink:title=" ">
<path fill="none" stroke="#63b8ff" d="M223.24,-230.6C236.22,-199.27 266.4,-136.64 312,-102.5 317.21,-98.6 323.23,-95.49 329.43,-93.02"/>
<polygon fill="#63b8ff" stroke="#63b8ff" points="219.97,-229.36 219.51,-239.94 226.47,-231.96 219.97,-229.36"/>
</a>
</g>
</g>
<!-- Node15 -->
<g id="Node000015" class="node">
<title>Node15</title>
<g id="a_Node000015"><a xlink:href="../../d3/db2/classRayTracer_1_1Torus.html" target="_top" xlink:title="3D primitives representating a Torus.">
<polygon fill="white" stroke="#666666" points="424,-56 328,-56 328,-37 424,-37 424,-56"/>
<text text-anchor="middle" x="376" y="-44" font-family="Helvetica,sans-Serif" font-size="10.00">RayTracer::Torus</text>
</a>
</g>
</g>
<!-- Node2&#45;&gt;Node15 -->
<g id="edge14_Node000002_Node000015" class="edge">
<title>Node2&#45;&gt;Node15</title>
<g id="a_edge14_Node000002_Node000015"><a xlink:title=" ">
<path fill="none" stroke="#63b8ff" d="M220.71,-230.11C230.83,-192.64 258.19,-110.04 312,-65.5 316.66,-61.64 322.1,-58.56 327.78,-56.11"/>
<polygon fill="#63b8ff" stroke="#63b8ff" points="217.32,-229.25 218.21,-239.81 224.1,-231 217.32,-229.25"/>
</a>
</g>
</g>
<!-- Node16 -->
<g id="Node000016" class="node">
<title>Node16</title>
<g id="a_Node000016"><a xlink:href="../../d5/d77/classRayTracer_1_1Triangle.html" target="_top" xlink:title="Triangle primitive for ray tracing.">
<polygon fill="white" stroke="#666666" points="430.5,-19 321.5,-19 321.5,0 430.5,0 430.5,-19"/>
<text text-anchor="middle" x="376" y="-7" font-family="Helvetica,sans-Serif" font-size="10.00">RayTracer::Triangle</text>
</a>
</g>
</g>
<!-- Node2&#45;&gt;Node16 -->
<g id="edge15_Node000002_Node000016" class="edge">
<title>Node2&#45;&gt;Node16</title>
<g id="a_edge15_Node000002_Node000016"><a xlink:title=" ">
<path fill="none" stroke="#63b8ff" d="M218.89,-229.87C226.24,-186.88 249.74,-83.88 312,-28.5 316.35,-24.63 321.47,-21.54 326.88,-19.09"/>
<polygon fill="#63b8ff" stroke="#63b8ff" points="215.41,-229.45 217.28,-239.88 222.32,-230.56 215.41,-229.45"/>
</a>
</g>
</g>
</g>
</svg>
