<?xml version="1.0" encoding="UTF-8" standalone="no"?>
<!DOCTYPE svg PUBLIC "-//W3C//DTD SVG 1.1//EN"
 "http://www.w3.org/Graphics/SVG/1.1/DTD/svg11.dtd">
<!-- Generated by graphviz version 2.43.0 (0)
 -->
<!-- Title: include/rendering/Mesh.hpp Pages: 1 -->
<svg width="800pt" height="467pt"
 viewBox="0.00 0.00 800.00 467.00" xmlns="http://www.w3.org/2000/svg" xmlns:xlink="http://www.w3.org/1999/xlink">
<g id="graph0" class="graph" transform="scale(1 1) rotate(0) translate(4 463)">
<title>include/rendering/Mesh.hpp</title>
<!-- Node1 -->
<g id="Node000001" class="node">
<title>Node1</title>
<g id="a_Node000001"><a xlink:title="Declares a simple triangle mesh wrapper used by the ray tracer.">
<polygon fill="#999999" stroke="#666666" points="152,-459 0,-459 0,-440 152,-440 152,-459"/>
<text text-anchor="middle" x="76" y="-447" font-family="Helvetica,sans-Serif" font-size="10.00">include/rendering/Mesh.hpp</text>
</a>
</g>
</g>
<!-- Node2 -->
<g id="Node000002" class="node">
<title>Node2</title>
<g id="a_Node000002"><a xlink:title=" ">
<polygon fill="#e0e0e0" stroke="#999999" points="118.5,-294 71.5,-294 71.5,-275 118.5,-275 118.5,-294"/>
<text text-anchor="middle" x="95" y="-282" font-family="Helvetica,sans-Serif" font-size="10.00">vector</text>
</a>
</g>
</g>
<!-- Node1&#45;&gt;Node2 -->
<g id="edge1_Node000001_Node000002" class="edge">
<title>Node1&#45;&gt;Node2</title>
<g id="a_edge1_Node000001_Node000002"><a xlink:title=" ">
<path fill="none" stroke="#63b8ff" d="M77.02,-439.74C79.99,-414.31 88.64,-340.08 92.76,-304.69"/>
<polygon fill="#63b8ff" stroke="#63b8ff" points="96.29,-304.64 93.97,-294.31 89.34,-303.83 96.29,-304.64"/>
</a>
</g>
</g>
<!-- Node3 -->
<g id="Node000003" class="node">
<title>Node3</title>
<g id="a_Node000003"><a xlink:href="../../d9/db8/Triangle_8hpp.html" target="_top" xlink:title="Declares the Triangle primitive and its ray–triangle intersection logic.">
<polygon fill="white" stroke="#666666" points="533,-404 405,-404 405,-385 533,-385 533,-404"/>
<text text-anchor="middle" x="469" y="-392" font-family="Helvetica,sans-Serif" font-size="10.00">primitives/Triangle.hpp</text>
</a>
</g>
</g>
<!-- Node1&#45;&gt;Node3 -->
<g id="edge2_Node000001_Node000003" class="edge">
<title>Node1&#45;&gt;Node3</title>
<g id="a_edge2_Node000001_Node000003"><a xlink:title=" ">
<path fill="none" stroke="#63b8ff" d="M139.14,-439.98C209.08,-430.55 321.7,-415.36 395.54,-405.41"/>
<polygon fill="#63b8ff" stroke="#63b8ff" points="396.25,-408.84 405.69,-404.04 395.31,-401.91 396.25,-408.84"/>
</a>
</g>
</g>
<!-- Node7 -->
<g id="Node000007" class="node">
<title>Node7</title>
<g id="a_Node000007"><a xlink:href="../../d4/db2/Ray_8hpp.html" target="_top" xlink:title="Defines the Ray structure used for ray&#45;object intersection tests in the raytracer.">
<polygon fill="white" stroke="#666666" points="229.5,-184 150.5,-184 150.5,-165 229.5,-165 229.5,-184"/>
<text text-anchor="middle" x="190" y="-172" font-family="Helvetica,sans-Serif" font-size="10.00">core/Ray.hpp</text>
</a>
</g>
</g>
<!-- Node1&#45;&gt;Node7 -->
<g id="edge36_Node000001_Node000007" class="edge">
<title>Node1&#45;&gt;Node7</title>
<g id="a_edge36_Node000001_Node000007"><a xlink:title=" ">
<path fill="none" stroke="#63b8ff" d="M70.72,-439.9C60.27,-422.07 38,-379.46 38,-340.5 38,-340.5 38,-340.5 38,-283.5 38,-230.83 99.39,-201.49 144.14,-187.09"/>
<polygon fill="#63b8ff" stroke="#63b8ff" points="145.44,-190.36 153.98,-184.08 143.39,-183.66 145.44,-190.36"/>
</a>
</g>
</g>
<!-- Node4 -->
<g id="Node000004" class="node">
<title>Node4</title>
<g id="a_Node000004"><a xlink:title=" ">
<polygon fill="#e0e0e0" stroke="#999999" points="688,-294 624,-294 624,-275 688,-275 688,-294"/>
<text text-anchor="middle" x="656" y="-282" font-family="Helvetica,sans-Serif" font-size="10.00">algorithm</text>
</a>
</g>
</g>
<!-- Node3&#45;&gt;Node4 -->
<g id="edge3_Node000003_Node000004" class="edge">
<title>Node3&#45;&gt;Node4</title>
<g id="a_edge3_Node000003_Node000004"><a xlink:title=" ">
<path fill="none" stroke="#63b8ff" d="M483.99,-384.84C516.35,-366.16 592.98,-321.9 632.11,-299.3"/>
<polygon fill="#63b8ff" stroke="#63b8ff" points="634.29,-302.08 641.2,-294.05 630.79,-296.02 634.29,-302.08"/>
</a>
</g>
</g>
<!-- Node5 -->
<g id="Node000005" class="node">
<title>Node5</title>
<g id="a_Node000005"><a xlink:title=" ">
<polygon fill="#e0e0e0" stroke="#999999" points="525.5,-19 478.5,-19 478.5,0 525.5,0 525.5,-19"/>
<text text-anchor="middle" x="502" y="-7" font-family="Helvetica,sans-Serif" font-size="10.00">cmath</text>
</a>
</g>
</g>
<!-- Node3&#45;&gt;Node5 -->
<g id="edge4_Node000003_Node000005" class="edge">
<title>Node3&#45;&gt;Node5</title>
<g id="a_edge4_Node000003_Node000005"><a xlink:title=" ">
<path fill="none" stroke="#63b8ff" d="M533.2,-385.3C627.4,-371.46 792,-339.53 792,-285.5 792,-285.5 792,-285.5 792,-118.5 792,-64.37 612.29,-28.54 535.81,-15.74"/>
<polygon fill="#63b8ff" stroke="#63b8ff" points="536.17,-12.25 525.73,-14.08 535.03,-19.16 536.17,-12.25"/>
</a>
</g>
</g>
<!-- Node6 -->
<g id="Node000006" class="node">
<title>Node6</title>
<g id="a_Node000006"><a xlink:href="../../de/d81/APrimitive_8hpp.html" target="_top" xlink:title=" ">
<polygon fill="white" stroke="#666666" points="403.5,-294 290.5,-294 290.5,-275 403.5,-275 403.5,-294"/>
<text text-anchor="middle" x="347" y="-282" font-family="Helvetica,sans-Serif" font-size="10.00">core/APrimitive.hpp</text>
</a>
</g>
</g>
<!-- Node3&#45;&gt;Node6 -->
<g id="edge5_Node000003_Node000006" class="edge">
<title>Node3&#45;&gt;Node6</title>
<g id="a_edge5_Node000003_Node000006"><a xlink:title=" ">
<path fill="none" stroke="#63b8ff" d="M455.12,-384.89C441.94,-376.44 421.83,-362.84 406,-349 389.27,-334.37 372.21,-315.49 360.77,-302.13"/>
<polygon fill="#63b8ff" stroke="#63b8ff" points="363.24,-299.64 354.12,-294.25 357.89,-304.15 363.24,-299.64"/>
</a>
</g>
</g>
<!-- Node3&#45;&gt;Node7 -->
<g id="edge25_Node000003_Node000007" class="edge">
<title>Node3&#45;&gt;Node7</title>
<g id="a_edge25_Node000003_Node000007"><a xlink:title=" ">
<path fill="none" stroke="#63b8ff" d="M430.26,-384.97C367.37,-368.8 244.9,-327.13 193,-239 185.04,-225.48 184.99,-207.39 186.53,-193.97"/>
<polygon fill="#63b8ff" stroke="#63b8ff" points="190,-194.43 188.05,-184.01 183.08,-193.37 190,-194.43"/>
</a>
</g>
</g>
<!-- Node8 -->
<g id="Node000008" class="node">
<title>Node8</title>
<g id="a_Node000008"><a xlink:href="../../df/df2/Point3D_8hpp.html" target="_top" xlink:title="Defines a 3D point structure used in geometric computations.">
<polygon fill="white" stroke="#666666" points="190,-129 114,-129 114,-110 190,-110 190,-129"/>
<text text-anchor="middle" x="152" y="-117" font-family="Helvetica,sans-Serif" font-size="10.00">Point3D.hpp</text>
</a>
</g>
</g>
<!-- Node3&#45;&gt;Node8 -->
<g id="edge23_Node000003_Node000008" class="edge">
<title>Node3&#45;&gt;Node8</title>
<g id="a_edge23_Node000003_Node000008"><a xlink:title=" ">
<path fill="none" stroke="#63b8ff" d="M404.71,-387.25C301.16,-375.72 104.77,-347.24 63,-294 21.99,-241.72 96.17,-167.63 133.03,-135.89"/>
<polygon fill="#63b8ff" stroke="#63b8ff" points="135.69,-138.23 141.09,-129.11 131.18,-132.87 135.69,-138.23"/>
</a>
</g>
</g>
<!-- Node9 -->
<g id="Node000009" class="node">
<title>Node9</title>
<g id="a_Node000009"><a xlink:href="../../d3/dde/Vector3D_8hpp.html" target="_top" xlink:title="Defines a 3D vector structure with basic arithmetic and transformation operations.">
<polygon fill="white" stroke="#666666" points="543,-74 461,-74 461,-55 543,-55 543,-74"/>
<text text-anchor="middle" x="502" y="-62" font-family="Helvetica,sans-Serif" font-size="10.00">Vector3D.hpp</text>
</a>
</g>
</g>
<!-- Node3&#45;&gt;Node9 -->
<g id="edge24_Node000003_Node000009" class="edge">
<title>Node3&#45;&gt;Node9</title>
<g id="a_edge24_Node000003_Node000009"><a xlink:title=" ">
<path fill="none" stroke="#63b8ff" d="M519.95,-384.97C601.93,-369.8 754,-334.97 754,-285.5 754,-285.5 754,-285.5 754,-173.5 754,-86.9 626.71,-68.84 553.07,-65.64"/>
<polygon fill="#63b8ff" stroke="#63b8ff" points="553.17,-62.14 543.05,-65.28 552.92,-69.14 553.17,-62.14"/>
</a>
</g>
</g>
<!-- Node11 -->
<g id="Node000011" class="node">
<title>Node11</title>
<g id="a_Node000011"><a xlink:href="../../d0/d70/Material_8hpp.html" target="_top" xlink:title="Declares the physically&#45;based material descriptor used by the renderer.">
<polygon fill="white" stroke="#666666" points="650,-239 522,-239 522,-220 650,-220 650,-239"/>
<text text-anchor="middle" x="586" y="-227" font-family="Helvetica,sans-Serif" font-size="10.00">rendering/Material.hpp</text>
</a>
</g>
</g>
<!-- Node3&#45;&gt;Node11 -->
<g id="edge26_Node000003_Node000011" class="edge">
<title>Node3&#45;&gt;Node11</title>
<g id="a_edge26_Node000003_Node000011"><a xlink:title=" ">
<path fill="none" stroke="#63b8ff" d="M533.18,-385.01C587.26,-374.08 661.34,-349.38 697,-294 713.92,-267.72 678.67,-251.15 643.51,-241.54"/>
<polygon fill="#63b8ff" stroke="#63b8ff" points="644.19,-238.11 633.64,-239.02 642.46,-244.89 644.19,-238.11"/>
</a>
</g>
</g>
<!-- Node16 -->
<g id="Node000016" class="node">
<title>Node16</title>
<g id="a_Node000016"><a xlink:href="../../d9/dad/BVH_8hpp.html" target="_top" xlink:title="Declares the axis&#45;aligned bounding box (AABB) and the BVH node used for ray&#45;tracing acceleration.">
<polygon fill="white" stroke="#666666" points="523,-349 415,-349 415,-330 523,-330 523,-349"/>
<text text-anchor="middle" x="469" y="-337" font-family="Helvetica,sans-Serif" font-size="10.00">rendering/BVH.hpp</text>
</a>
</g>
</g>
<!-- Node3&#45;&gt;Node16 -->
<g id="edge27_Node000003_Node000016" class="edge">
<title>Node3&#45;&gt;Node16</title>
<g id="a_edge27_Node000003_Node000016"><a xlink:title=" ">
<path fill="none" stroke="#63b8ff" d="M469,-384.75C469,-377.8 469,-367.85 469,-359.13"/>
<polygon fill="#63b8ff" stroke="#63b8ff" points="472.5,-359.09 469,-349.09 465.5,-359.09 472.5,-359.09"/>
</a>
</g>
</g>
<!-- Node6&#45;&gt;Node7 -->
<g id="edge6_Node000006_Node000007" class="edge">
<title>Node6&#45;&gt;Node7</title>
<g id="a_edge6_Node000006_Node000007"><a xlink:title=" ">
<path fill="none" stroke="#63b8ff" d="M290.47,-277.66C262.57,-271.99 230.4,-260.86 209,-239 197.31,-227.06 192.77,-208.24 191.03,-194.18"/>
<polygon fill="#63b8ff" stroke="#63b8ff" points="194.51,-193.81 190.15,-184.15 187.54,-194.42 194.51,-193.81"/>
</a>
</g>
</g>
<!-- Node6&#45;&gt;Node8 -->
<g id="edge12_Node000006_Node000008" class="edge">
<title>Node6&#45;&gt;Node8</title>
<g id="a_edge12_Node000006_Node000008"><a xlink:title=" ">
<path fill="none" stroke="#63b8ff" d="M291.29,-274.96C260.63,-268.46 222.85,-257.39 193,-239 164.62,-221.51 154.17,-215.03 142,-184 136.27,-169.39 139.85,-151.67 144.24,-138.67"/>
<polygon fill="#63b8ff" stroke="#63b8ff" points="147.63,-139.61 147.94,-129.02 141.09,-137.11 147.63,-139.61"/>
</a>
</g>
</g>
<!-- Node6&#45;&gt;Node9 -->
<g id="edge14_Node000006_Node000009" class="edge">
<title>Node6&#45;&gt;Node9</title>
<g id="a_edge14_Node000006_Node000009"><a xlink:title=" ">
<path fill="none" stroke="#63b8ff" d="M385.01,-274.85C404.12,-268.37 425.6,-257.36 437,-239 467.27,-190.26 404.38,-160.29 432,-110 439.77,-95.85 454.17,-85.56 467.89,-78.46"/>
<polygon fill="#63b8ff" stroke="#63b8ff" points="469.66,-81.49 477.19,-74.05 466.66,-75.17 469.66,-81.49"/>
</a>
</g>
</g>
<!-- Node10 -->
<g id="Node000010" class="node">
<title>Node10</title>
<g id="a_Node000010"><a xlink:href="../../d8/d1e/Vector2D_8hpp.html" target="_top" xlink:title="Defines a 2D vector structure used for texture coordinates or screen&#45;space math operations.">
<polygon fill="white" stroke="#666666" points="324,-239 218,-239 218,-220 324,-220 324,-239"/>
<text text-anchor="middle" x="271" y="-227" font-family="Helvetica,sans-Serif" font-size="10.00">core/Vector2D.hpp</text>
</a>
</g>
</g>
<!-- Node6&#45;&gt;Node10 -->
<g id="edge13_Node000006_Node000010" class="edge">
<title>Node6&#45;&gt;Node10</title>
<g id="a_edge13_Node000006_Node000010"><a xlink:title=" ">
<path fill="none" stroke="#63b8ff" d="M334.79,-274.98C323.22,-266.92 305.62,-254.65 291.84,-245.03"/>
<polygon fill="#63b8ff" stroke="#63b8ff" points="293.64,-242.02 283.43,-239.17 289.63,-247.76 293.64,-242.02"/>
</a>
</g>
</g>
<!-- Node6&#45;&gt;Node11 -->
<g id="edge15_Node000006_Node000011" class="edge">
<title>Node6&#45;&gt;Node11</title>
<g id="a_edge15_Node000006_Node000011"><a xlink:title=" ">
<path fill="none" stroke="#63b8ff" d="M385.4,-274.98C426.74,-265.82 492.6,-251.21 537.49,-241.26"/>
<polygon fill="#63b8ff" stroke="#63b8ff" points="538.29,-244.66 547.3,-239.08 536.78,-237.83 538.29,-244.66"/>
</a>
</g>
</g>
<!-- Node15 -->
<g id="Node000015" class="node">
<title>Node15</title>
<g id="a_Node000015"><a xlink:href="../../d0/d38/IPrimitive_8hpp.html" target="_top" xlink:title="Interface for geometric primitives in the raytracer.">
<polygon fill="white" stroke="#666666" points="427.5,-239 342.5,-239 342.5,-220 427.5,-220 427.5,-239"/>
<text text-anchor="middle" x="385" y="-227" font-family="Helvetica,sans-Serif" font-size="10.00">IPrimitive.hpp</text>
</a>
</g>
</g>
<!-- Node6&#45;&gt;Node15 -->
<g id="edge21_Node000006_Node000015" class="edge">
<title>Node6&#45;&gt;Node15</title>
<g id="a_edge21_Node000006_Node000015"><a xlink:title=" ">
<path fill="none" stroke="#63b8ff" d="M353.27,-274.75C358.59,-267.34 366.36,-256.5 372.88,-247.41"/>
<polygon fill="#63b8ff" stroke="#63b8ff" points="375.86,-249.26 378.84,-239.09 370.17,-245.18 375.86,-249.26"/>
</a>
</g>
</g>
<!-- Node7&#45;&gt;Node8 -->
<g id="edge7_Node000007_Node000008" class="edge">
<title>Node7&#45;&gt;Node8</title>
<g id="a_edge7_Node000007_Node000008"><a xlink:title=" ">
<path fill="none" stroke="#63b8ff" d="M183.73,-164.75C178.41,-157.34 170.64,-146.5 164.12,-137.41"/>
<polygon fill="#63b8ff" stroke="#63b8ff" points="166.83,-135.18 158.16,-129.09 161.14,-139.26 166.83,-135.18"/>
</a>
</g>
</g>
<!-- Node7&#45;&gt;Node9 -->
<g id="edge11_Node000007_Node000009" class="edge">
<title>Node7&#45;&gt;Node9</title>
<g id="a_edge11_Node000007_Node000009"><a xlink:title=" ">
<path fill="none" stroke="#63b8ff" d="M214.74,-164.94C270.15,-145.76 404.3,-99.32 467.71,-77.37"/>
<polygon fill="#63b8ff" stroke="#63b8ff" points="468.95,-80.64 477.25,-74.07 466.66,-74.03 468.95,-80.64"/>
</a>
</g>
</g>
<!-- Node8&#45;&gt;Node5 -->
<g id="edge10_Node000008_Node000005" class="edge">
<title>Node8&#45;&gt;Node5</title>
<g id="a_edge10_Node000008_Node000005"><a xlink:title=" ">
<path fill="none" stroke="#63b8ff" d="M179.76,-109.94C243.43,-90.29 399.77,-42.04 468.58,-20.81"/>
<polygon fill="#63b8ff" stroke="#63b8ff" points="469.94,-24.06 478.46,-17.76 467.87,-17.37 469.94,-24.06"/>
</a>
</g>
</g>
<!-- Node8&#45;&gt;Node9 -->
<g id="edge8_Node000008_Node000009" class="edge">
<title>Node8&#45;&gt;Node9</title>
<g id="a_edge8_Node000008_Node000009"><a xlink:title=" ">
<path fill="none" stroke="#63b8ff" d="M190.12,-112.73C253.36,-103.15 380.01,-83.97 450.91,-73.24"/>
<polygon fill="#63b8ff" stroke="#63b8ff" points="451.59,-76.67 460.96,-71.71 450.55,-69.75 451.59,-76.67"/>
</a>
</g>
</g>
<!-- Node9&#45;&gt;Node5 -->
<g id="edge9_Node000009_Node000005" class="edge">
<title>Node9&#45;&gt;Node5</title>
<g id="a_edge9_Node000009_Node000005"><a xlink:title=" ">
<path fill="none" stroke="#63b8ff" d="M502,-54.75C502,-47.8 502,-37.85 502,-29.13"/>
<polygon fill="#63b8ff" stroke="#63b8ff" points="505.5,-29.09 502,-19.09 498.5,-29.09 505.5,-29.09"/>
</a>
</g>
</g>
<!-- Node11&#45;&gt;Node9 -->
<g id="edge18_Node000011_Node000009" class="edge">
<title>Node11&#45;&gt;Node9</title>
<g id="a_edge18_Node000011_Node000009"><a xlink:title=" ">
<path fill="none" stroke="#63b8ff" d="M578.85,-219.97C572.23,-211.48 562.85,-197.75 559,-184 549.99,-151.76 589.21,-139.29 573,-110 565.16,-95.83 550.71,-85.57 536.89,-78.5"/>
<polygon fill="#63b8ff" stroke="#63b8ff" points="538.05,-75.18 527.51,-74.1 535.08,-81.52 538.05,-75.18"/>
</a>
</g>
</g>
<!-- Node12 -->
<g id="Node000012" class="node">
<title>Node12</title>
<g id="a_Node000012"><a xlink:title=" ">
<polygon fill="#e0e0e0" stroke="#999999" points="612,-184 568,-184 568,-165 612,-165 612,-184"/>
<text text-anchor="middle" x="590" y="-172" font-family="Helvetica,sans-Serif" font-size="10.00">string</text>
</a>
</g>
</g>
<!-- Node11&#45;&gt;Node12 -->
<g id="edge16_Node000011_Node000012" class="edge">
<title>Node11&#45;&gt;Node12</title>
<g id="a_edge16_Node000011_Node000012"><a xlink:title=" ">
<path fill="none" stroke="#63b8ff" d="M586.66,-219.75C587.18,-212.8 587.94,-202.85 588.59,-194.13"/>
<polygon fill="#63b8ff" stroke="#63b8ff" points="592.09,-194.32 589.35,-184.09 585.11,-193.8 592.09,-194.32"/>
</a>
</g>
</g>
<!-- Node13 -->
<g id="Node000013" class="node">
<title>Node13</title>
<g id="a_Node000013"><a xlink:title=" ">
<polygon fill="#e0e0e0" stroke="#999999" points="688,-184 630,-184 630,-165 688,-165 688,-184"/>
<text text-anchor="middle" x="659" y="-172" font-family="Helvetica,sans-Serif" font-size="10.00">memory</text>
</a>
</g>
</g>
<!-- Node11&#45;&gt;Node13 -->
<g id="edge17_Node000011_Node000013" class="edge">
<title>Node11&#45;&gt;Node13</title>
<g id="a_edge17_Node000011_Node000013"><a xlink:title=" ">
<path fill="none" stroke="#63b8ff" d="M597.73,-219.98C608.73,-212 625.42,-199.88 638.6,-190.31"/>
<polygon fill="#63b8ff" stroke="#63b8ff" points="641.02,-192.88 647.06,-184.17 636.91,-187.21 641.02,-192.88"/>
</a>
</g>
</g>
<!-- Node14 -->
<g id="Node000014" class="node">
<title>Node14</title>
<g id="a_Node000014"><a xlink:href="../../d0/ddc/Texture_8hpp.html" target="_top" xlink:title="Declares the abstract base class for all 2&#45;D textures. (Solid colour, checkerboard,...">
<polygon fill="white" stroke="#666666" points="563.5,-129 440.5,-129 440.5,-110 563.5,-110 563.5,-129"/>
<text text-anchor="middle" x="502" y="-117" font-family="Helvetica,sans-Serif" font-size="10.00">rendering/Texture.hpp</text>
</a>
</g>
</g>
<!-- Node11&#45;&gt;Node14 -->
<g id="edge19_Node000011_Node000014" class="edge">
<title>Node11&#45;&gt;Node14</title>
<g id="a_edge19_Node000011_Node000014"><a xlink:title=" ">
<path fill="none" stroke="#63b8ff" d="M569.69,-219.91C556.31,-212.13 537.73,-199.52 526,-184 515.9,-170.63 509.61,-152.52 506.02,-139.06"/>
<polygon fill="#63b8ff" stroke="#63b8ff" points="509.36,-137.96 503.62,-129.06 502.55,-139.6 509.36,-137.96"/>
</a>
</g>
</g>
<!-- Node14&#45;&gt;Node9 -->
<g id="edge20_Node000014_Node000009" class="edge">
<title>Node14&#45;&gt;Node9</title>
<g id="a_edge20_Node000014_Node000009"><a xlink:title=" ">
<path fill="none" stroke="#63b8ff" d="M502,-109.75C502,-102.8 502,-92.85 502,-84.13"/>
<polygon fill="#63b8ff" stroke="#63b8ff" points="505.5,-84.09 502,-74.09 498.5,-84.09 505.5,-84.09"/>
</a>
</g>
</g>
<!-- Node15&#45;&gt;Node7 -->
<g id="edge22_Node000015_Node000007" class="edge">
<title>Node15&#45;&gt;Node7</title>
<g id="a_edge22_Node000015_Node000007"><a xlink:title=" ">
<path fill="none" stroke="#63b8ff" d="M353.67,-219.98C320.51,-210.97 268,-196.7 231.44,-186.76"/>
<polygon fill="#63b8ff" stroke="#63b8ff" points="232.14,-183.33 221.58,-184.08 230.31,-190.08 232.14,-183.33"/>
</a>
</g>
</g>
<!-- Node16&#45;&gt;Node2 -->
<g id="edge29_Node000016_Node000002" class="edge">
<title>Node16&#45;&gt;Node2</title>
<g id="a_edge29_Node000016_Node000002"><a xlink:title=" ">
<path fill="none" stroke="#63b8ff" d="M414.62,-330.79C336.13,-319.67 193.41,-299.45 128.61,-290.26"/>
<polygon fill="#63b8ff" stroke="#63b8ff" points="128.93,-286.77 118.54,-288.84 127.95,-293.7 128.93,-286.77"/>
</a>
</g>
</g>
<!-- Node16&#45;&gt;Node4 -->
<g id="edge30_Node000016_Node000004" class="edge">
<title>Node16&#45;&gt;Node4</title>
<g id="a_edge30_Node000016_Node000004"><a xlink:title=" ">
<path fill="none" stroke="#63b8ff" d="M499.04,-329.98C530.71,-321.01 580.77,-306.82 615.81,-296.89"/>
<polygon fill="#63b8ff" stroke="#63b8ff" points="617.05,-300.18 625.72,-294.08 615.14,-293.44 617.05,-300.18"/>
</a>
</g>
</g>
<!-- Node16&#45;&gt;Node6 -->
<g id="edge33_Node000016_Node000006" class="edge">
<title>Node16&#45;&gt;Node6</title>
<g id="a_edge33_Node000016_Node000006"><a xlink:title=" ">
<path fill="none" stroke="#63b8ff" d="M449.4,-329.98C429.68,-321.42 399.05,-308.11 376.42,-298.28"/>
<polygon fill="#63b8ff" stroke="#63b8ff" points="377.52,-294.94 366.96,-294.17 374.74,-301.37 377.52,-294.94"/>
</a>
</g>
</g>
<!-- Node16&#45;&gt;Node7 -->
<g id="edge32_Node000016_Node000007" class="edge">
<title>Node16&#45;&gt;Node7</title>
<g id="a_edge32_Node000016_Node000007"><a xlink:title=" ">
<path fill="none" stroke="#63b8ff" d="M471.97,-329.65C475.68,-317.17 480.87,-293.82 475,-275 466.15,-246.64 461.98,-236.09 437,-220 405.08,-199.44 302.13,-186.25 239.66,-179.92"/>
<polygon fill="#63b8ff" stroke="#63b8ff" points="239.92,-176.43 229.63,-178.93 239.23,-183.4 239.92,-176.43"/>
</a>
</g>
</g>
<!-- Node16&#45;&gt;Node8 -->
<g id="edge34_Node000016_Node000008" class="edge">
<title>Node16&#45;&gt;Node8</title>
<g id="a_edge34_Node000016_Node000008"><a xlink:title=" ">
<path fill="none" stroke="#63b8ff" d="M415,-335.45C346.9,-328.74 230.35,-307.32 161,-239 136.17,-214.54 128.67,-199.28 135,-165 136.67,-155.95 140.1,-146.36 143.44,-138.41"/>
<polygon fill="#63b8ff" stroke="#63b8ff" points="146.73,-139.65 147.63,-129.09 140.34,-136.78 146.73,-139.65"/>
</a>
</g>
</g>
<!-- Node16&#45;&gt;Node9 -->
<g id="edge35_Node000016_Node000009" class="edge">
<title>Node16&#45;&gt;Node9</title>
<g id="a_edge35_Node000016_Node000009"><a xlink:title=" ">
<path fill="none" stroke="#63b8ff" d="M492.56,-330C515.1,-321.62 549.88,-308.07 579,-294 584.58,-291.3 671.96,-243.7 676,-239 693.05,-219.15 692.25,-209.73 697,-184 709.49,-116.28 615.12,-85.89 553.24,-73.36"/>
<polygon fill="#63b8ff" stroke="#63b8ff" points="553.71,-69.89 543.23,-71.43 552.39,-76.76 553.71,-69.89"/>
</a>
</g>
</g>
<!-- Node16&#45;&gt;Node13 -->
<g id="edge28_Node000016_Node000013" class="edge">
<title>Node16&#45;&gt;Node13</title>
<g id="a_edge28_Node000016_Node000013"><a xlink:title=" ">
<path fill="none" stroke="#63b8ff" d="M483.44,-329.93C504.74,-317.39 545.97,-293.51 582,-275 615.6,-257.73 638.72,-270.87 659,-239 667.42,-225.78 666.48,-207.65 663.99,-194.15"/>
<polygon fill="#63b8ff" stroke="#63b8ff" points="667.34,-193.08 661.7,-184.11 660.51,-194.63 667.34,-193.08"/>
</a>
</g>
</g>
<!-- Node17 -->
<g id="Node000017" class="node">
<title>Node17</title>
<g id="a_Node000017"><a xlink:title=" ">
<polygon fill="#e0e0e0" stroke="#999999" points="466,-294 422,-294 422,-275 466,-275 466,-294"/>
<text text-anchor="middle" x="444" y="-282" font-family="Helvetica,sans-Serif" font-size="10.00">limits</text>
</a>
</g>
</g>
<!-- Node16&#45;&gt;Node17 -->
<g id="edge31_Node000016_Node000017" class="edge">
<title>Node16&#45;&gt;Node17</title>
<g id="a_edge31_Node000016_Node000017"><a xlink:title=" ">
<path fill="none" stroke="#63b8ff" d="M464.87,-329.75C461.49,-322.57 456.58,-312.18 452.38,-303.27"/>
<polygon fill="#63b8ff" stroke="#63b8ff" points="455.48,-301.64 448.05,-294.09 449.15,-304.63 455.48,-301.64"/>
</a>
</g>
</g>
</g>
</svg>
