<?xml version="1.0" encoding="UTF-8" standalone="no"?>
<!DOCTYPE svg PUBLIC "-//W3C//DTD SVG 1.1//EN"
 "http://www.w3.org/Graphics/SVG/1.1/DTD/svg11.dtd">
<!-- Generated by graphviz version 2.43.0 (0)
 -->
<!-- Title: include/core/APrimitive.hpp Pages: 1 -->
<svg width="600pt" height="302pt"
 viewBox="0.00 0.00 599.80 302.00" xmlns="http://www.w3.org/2000/svg" xmlns:xlink="http://www.w3.org/1999/xlink">
<g id="graph0" class="graph" transform="scale(1 1) rotate(0) translate(4 298)">
<title>include/core/APrimitive.hpp</title>
<!-- Node1 -->
<g id="Node000001" class="node">
<title>Node1</title>
<g id="a_Node000001"><a xlink:title=" ">
<polygon fill="#999999" stroke="#666666" points="246.3,-294 95.3,-294 95.3,-275 246.3,-275 246.3,-294"/>
<text text-anchor="middle" x="170.8" y="-282" font-family="Helvetica,sans-Serif" font-size="10.00">include/core/APrimitive.hpp</text>
</a>
</g>
</g>
<!-- Node2 -->
<g id="Node000002" class="node">
<title>Node2</title>
<g id="a_Node000002"><a xlink:href="../../d4/db2/Ray_8hpp.html" target="_top" xlink:title="Defines the Ray structure used for ray&#45;object intersection tests in the raytracer.">
<polygon fill="white" stroke="#666666" points="180.3,-184 101.3,-184 101.3,-165 180.3,-165 180.3,-184"/>
<text text-anchor="middle" x="140.8" y="-172" font-family="Helvetica,sans-Serif" font-size="10.00">core/Ray.hpp</text>
</a>
</g>
</g>
<!-- Node1&#45;&gt;Node2 -->
<g id="edge1_Node000001_Node000002" class="edge">
<title>Node1&#45;&gt;Node2</title>
<g id="a_edge1_Node000001_Node000002"><a xlink:title=" ">
<path fill="none" stroke="#63b8ff" d="M165.81,-274.94C160.95,-266.2 153.72,-252.09 149.8,-239 145.45,-224.46 143.18,-207.41 142.01,-194.64"/>
<polygon fill="#63b8ff" stroke="#63b8ff" points="145.48,-194.01 141.22,-184.3 138.5,-194.54 145.48,-194.01"/>
</a>
</g>
</g>
<!-- Node3 -->
<g id="Node000003" class="node">
<title>Node3</title>
<g id="a_Node000003"><a xlink:href="../../df/df2/Point3D_8hpp.html" target="_top" xlink:title="Defines a 3D point structure used in geometric computations.">
<polygon fill="white" stroke="#666666" points="189.8,-129 113.8,-129 113.8,-110 189.8,-110 189.8,-129"/>
<text text-anchor="middle" x="151.8" y="-117" font-family="Helvetica,sans-Serif" font-size="10.00">Point3D.hpp</text>
</a>
</g>
</g>
<!-- Node1&#45;&gt;Node3 -->
<g id="edge7_Node000001_Node000003" class="edge">
<title>Node1&#45;&gt;Node3</title>
<g id="a_edge7_Node000001_Node000003"><a xlink:title=" ">
<path fill="none" stroke="#63b8ff" d="M112.22,-274.99C71.2,-267.69 21.54,-255.7 8.8,-239 -26.99,-192.05 61.58,-151.64 114.92,-132.43"/>
<polygon fill="#63b8ff" stroke="#63b8ff" points="116.15,-135.71 124.43,-129.1 113.83,-129.1 116.15,-135.71"/>
</a>
</g>
</g>
<!-- Node4 -->
<g id="Node000004" class="node">
<title>Node4</title>
<g id="a_Node000004"><a xlink:href="../../d3/dde/Vector3D_8hpp.html" target="_top" xlink:title="Defines a 3D vector structure with basic arithmetic and transformation operations.">
<polygon fill="white" stroke="#666666" points="287.8,-74 205.8,-74 205.8,-55 287.8,-55 287.8,-74"/>
<text text-anchor="middle" x="246.8" y="-62" font-family="Helvetica,sans-Serif" font-size="10.00">Vector3D.hpp</text>
</a>
</g>
</g>
<!-- Node1&#45;&gt;Node4 -->
<g id="edge9_Node000001_Node000004" class="edge">
<title>Node1&#45;&gt;Node4</title>
<g id="a_edge9_Node000001_Node000004"><a xlink:title=" ">
<path fill="none" stroke="#63b8ff" d="M218.66,-274.99C239.27,-268.7 261.45,-257.8 273.8,-239 305.97,-190.06 274.65,-116.86 257.02,-83.37"/>
<polygon fill="#63b8ff" stroke="#63b8ff" points="259.94,-81.42 252.07,-74.33 253.8,-84.78 259.94,-81.42"/>
</a>
</g>
</g>
<!-- Node6 -->
<g id="Node000006" class="node">
<title>Node6</title>
<g id="a_Node000006"><a xlink:href="../../d8/d1e/Vector2D_8hpp.html" target="_top" xlink:title="Defines a 2D vector structure used for texture coordinates or screen&#45;space math operations.">
<polygon fill="white" stroke="#666666" points="264.8,-239 158.8,-239 158.8,-220 264.8,-220 264.8,-239"/>
<text text-anchor="middle" x="211.8" y="-227" font-family="Helvetica,sans-Serif" font-size="10.00">core/Vector2D.hpp</text>
</a>
</g>
</g>
<!-- Node1&#45;&gt;Node6 -->
<g id="edge8_Node000001_Node000006" class="edge">
<title>Node1&#45;&gt;Node6</title>
<g id="a_edge8_Node000001_Node000006"><a xlink:title=" ">
<path fill="none" stroke="#63b8ff" d="M177.57,-274.75C183.37,-267.26 191.86,-256.28 198.94,-247.13"/>
<polygon fill="#63b8ff" stroke="#63b8ff" points="201.81,-249.14 205.16,-239.09 196.27,-244.86 201.81,-249.14"/>
</a>
</g>
</g>
<!-- Node7 -->
<g id="Node000007" class="node">
<title>Node7</title>
<g id="a_Node000007"><a xlink:href="../../d0/d70/Material_8hpp.html" target="_top" xlink:title="Declares the physically&#45;based material descriptor used by the renderer.">
<polygon fill="white" stroke="#666666" points="455.8,-184 327.8,-184 327.8,-165 455.8,-165 455.8,-184"/>
<text text-anchor="middle" x="391.8" y="-172" font-family="Helvetica,sans-Serif" font-size="10.00">rendering/Material.hpp</text>
</a>
</g>
</g>
<!-- Node1&#45;&gt;Node7 -->
<g id="edge10_Node000001_Node000007" class="edge">
<title>Node1&#45;&gt;Node7</title>
<g id="a_edge10_Node000001_Node000007"><a xlink:title=" ">
<path fill="none" stroke="#63b8ff" d="M207.6,-274.94C235.72,-267.59 274.95,-255.54 306.8,-239 332.42,-225.7 358.52,-204.89 374.92,-190.75"/>
<polygon fill="#63b8ff" stroke="#63b8ff" points="377.35,-193.27 382.55,-184.04 372.73,-188.01 377.35,-193.27"/>
</a>
</g>
</g>
<!-- Node11 -->
<g id="Node000011" class="node">
<title>Node11</title>
<g id="a_Node000011"><a xlink:href="../../d0/d38/IPrimitive_8hpp.html" target="_top" xlink:title="Interface for geometric primitives in the raytracer.">
<polygon fill="white" stroke="#666666" points="102.3,-239 17.3,-239 17.3,-220 102.3,-220 102.3,-239"/>
<text text-anchor="middle" x="59.8" y="-227" font-family="Helvetica,sans-Serif" font-size="10.00">IPrimitive.hpp</text>
</a>
</g>
</g>
<!-- Node1&#45;&gt;Node11 -->
<g id="edge16_Node000001_Node000011" class="edge">
<title>Node1&#45;&gt;Node11</title>
<g id="a_edge16_Node000001_Node000011"><a xlink:title=" ">
<path fill="none" stroke="#63b8ff" d="M152.97,-274.98C135.19,-266.5 107.66,-253.35 87.12,-243.54"/>
<polygon fill="#63b8ff" stroke="#63b8ff" points="88.5,-240.32 77.96,-239.17 85.48,-246.64 88.5,-240.32"/>
</a>
</g>
</g>
<!-- Node2&#45;&gt;Node3 -->
<g id="edge2_Node000002_Node000003" class="edge">
<title>Node2&#45;&gt;Node3</title>
<g id="a_edge2_Node000002_Node000003"><a xlink:title=" ">
<path fill="none" stroke="#63b8ff" d="M142.62,-164.75C144.06,-157.8 146.13,-147.85 147.94,-139.13"/>
<polygon fill="#63b8ff" stroke="#63b8ff" points="151.42,-139.59 150.02,-129.09 144.56,-138.17 151.42,-139.59"/>
</a>
</g>
</g>
<!-- Node2&#45;&gt;Node4 -->
<g id="edge6_Node000002_Node000004" class="edge">
<title>Node2&#45;&gt;Node4</title>
<g id="a_edge6_Node000002_Node000004"><a xlink:title=" ">
<path fill="none" stroke="#63b8ff" d="M154.05,-164.87C166.37,-156.5 184.85,-143.05 198.8,-129 212.91,-114.8 226.42,-96.34 235.49,-82.98"/>
<polygon fill="#63b8ff" stroke="#63b8ff" points="238.64,-84.57 241.26,-74.3 232.81,-80.69 238.64,-84.57"/>
</a>
</g>
</g>
<!-- Node3&#45;&gt;Node4 -->
<g id="edge3_Node000003_Node000004" class="edge">
<title>Node3&#45;&gt;Node4</title>
<g id="a_edge3_Node000003_Node000004"><a xlink:title=" ">
<path fill="none" stroke="#63b8ff" d="M167.07,-109.98C181.94,-101.69 204.79,-88.94 222.22,-79.22"/>
<polygon fill="#63b8ff" stroke="#63b8ff" points="224.24,-82.1 231.26,-74.17 220.83,-75.99 224.24,-82.1"/>
</a>
</g>
</g>
<!-- Node5 -->
<g id="Node000005" class="node">
<title>Node5</title>
<g id="a_Node000005"><a xlink:title=" ">
<polygon fill="#e0e0e0" stroke="#999999" points="226.3,-19 179.3,-19 179.3,0 226.3,0 226.3,-19"/>
<text text-anchor="middle" x="202.8" y="-7" font-family="Helvetica,sans-Serif" font-size="10.00">cmath</text>
</a>
</g>
</g>
<!-- Node3&#45;&gt;Node5 -->
<g id="edge5_Node000003_Node000005" class="edge">
<title>Node3&#45;&gt;Node5</title>
<g id="a_edge5_Node000003_Node000005"><a xlink:title=" ">
<path fill="none" stroke="#63b8ff" d="M155.98,-109.66C164.35,-91.93 183.34,-51.73 194.39,-28.32"/>
<polygon fill="#63b8ff" stroke="#63b8ff" points="197.61,-29.7 198.72,-19.16 191.28,-26.71 197.61,-29.7"/>
</a>
</g>
</g>
<!-- Node4&#45;&gt;Node5 -->
<g id="edge4_Node000004_Node000005" class="edge">
<title>Node4&#45;&gt;Node5</title>
<g id="a_edge4_Node000004_Node000005"><a xlink:title=" ">
<path fill="none" stroke="#63b8ff" d="M239.54,-54.75C233.26,-47.18 224.02,-36.05 216.37,-26.84"/>
<polygon fill="#63b8ff" stroke="#63b8ff" points="219.02,-24.55 209.93,-19.09 213.63,-29.02 219.02,-24.55"/>
</a>
</g>
</g>
<!-- Node7&#45;&gt;Node4 -->
<g id="edge13_Node000007_Node000004" class="edge">
<title>Node7&#45;&gt;Node4</title>
<g id="a_edge13_Node000007_Node000004"><a xlink:title=" ">
<path fill="none" stroke="#63b8ff" d="M376.94,-164.86C362.5,-156.28 340.13,-142.49 321.8,-129 301.13,-113.78 278.85,-94.52 263.99,-81.22"/>
<polygon fill="#63b8ff" stroke="#63b8ff" points="265.94,-78.26 256.17,-74.15 261.24,-83.45 265.94,-78.26"/>
</a>
</g>
</g>
<!-- Node8 -->
<g id="Node000008" class="node">
<title>Node8</title>
<g id="a_Node000008"><a xlink:title=" ">
<polygon fill="#e0e0e0" stroke="#999999" points="515.8,-129 471.8,-129 471.8,-110 515.8,-110 515.8,-129"/>
<text text-anchor="middle" x="493.8" y="-117" font-family="Helvetica,sans-Serif" font-size="10.00">string</text>
</a>
</g>
</g>
<!-- Node7&#45;&gt;Node8 -->
<g id="edge11_Node000007_Node000008" class="edge">
<title>Node7&#45;&gt;Node8</title>
<g id="a_edge11_Node000007_Node000008"><a xlink:title=" ">
<path fill="none" stroke="#63b8ff" d="M408.19,-164.98C424.38,-156.57 449.37,-143.59 468.19,-133.81"/>
<polygon fill="#63b8ff" stroke="#63b8ff" points="469.86,-136.89 477.12,-129.17 466.63,-130.68 469.86,-136.89"/>
</a>
</g>
</g>
<!-- Node9 -->
<g id="Node000009" class="node">
<title>Node9</title>
<g id="a_Node000009"><a xlink:title=" ">
<polygon fill="#e0e0e0" stroke="#999999" points="591.8,-129 533.8,-129 533.8,-110 591.8,-110 591.8,-129"/>
<text text-anchor="middle" x="562.8" y="-117" font-family="Helvetica,sans-Serif" font-size="10.00">memory</text>
</a>
</g>
</g>
<!-- Node7&#45;&gt;Node9 -->
<g id="edge12_Node000007_Node000009" class="edge">
<title>Node7&#45;&gt;Node9</title>
<g id="a_edge12_Node000007_Node000009"><a xlink:title=" ">
<path fill="none" stroke="#63b8ff" d="M419.28,-164.98C447.99,-156.09 493.22,-142.07 525.23,-132.15"/>
<polygon fill="#63b8ff" stroke="#63b8ff" points="526.6,-135.39 535.11,-129.08 524.53,-128.7 526.6,-135.39"/>
</a>
</g>
</g>
<!-- Node10 -->
<g id="Node000010" class="node">
<title>Node10</title>
<g id="a_Node000010"><a xlink:href="../../d0/ddc/Texture_8hpp.html" target="_top" xlink:title="Declares the abstract base class for all 2&#45;D textures. (Solid colour, checkerboard,...">
<polygon fill="white" stroke="#666666" points="453.3,-129 330.3,-129 330.3,-110 453.3,-110 453.3,-129"/>
<text text-anchor="middle" x="391.8" y="-117" font-family="Helvetica,sans-Serif" font-size="10.00">rendering/Texture.hpp</text>
</a>
</g>
</g>
<!-- Node7&#45;&gt;Node10 -->
<g id="edge14_Node000007_Node000010" class="edge">
<title>Node7&#45;&gt;Node10</title>
<g id="a_edge14_Node000007_Node000010"><a xlink:title=" ">
<path fill="none" stroke="#63b8ff" d="M391.8,-164.75C391.8,-157.8 391.8,-147.85 391.8,-139.13"/>
<polygon fill="#63b8ff" stroke="#63b8ff" points="395.3,-139.09 391.8,-129.09 388.3,-139.09 395.3,-139.09"/>
</a>
</g>
</g>
<!-- Node10&#45;&gt;Node4 -->
<g id="edge15_Node000010_Node000004" class="edge">
<title>Node10&#45;&gt;Node4</title>
<g id="a_edge15_Node000010_Node000004"><a xlink:title=" ">
<path fill="none" stroke="#63b8ff" d="M368.51,-109.98C344.55,-101.23 307.02,-87.51 279.97,-77.62"/>
<polygon fill="#63b8ff" stroke="#63b8ff" points="281.12,-74.32 270.52,-74.17 278.72,-80.89 281.12,-74.32"/>
</a>
</g>
</g>
<!-- Node11&#45;&gt;Node2 -->
<g id="edge17_Node000011_Node000002" class="edge">
<title>Node11&#45;&gt;Node2</title>
<g id="a_edge17_Node000011_Node000002"><a xlink:title=" ">
<path fill="none" stroke="#63b8ff" d="M72.82,-219.98C85.26,-211.84 104.26,-199.41 119.01,-189.76"/>
<polygon fill="#63b8ff" stroke="#63b8ff" points="121.1,-192.57 127.55,-184.17 117.27,-186.72 121.1,-192.57"/>
</a>
</g>
</g>
</g>
</svg>
