<?xml version="1.0" encoding="UTF-8" standalone="no"?>
<!DOCTYPE svg PUBLIC "-//W3C//DTD SVG 1.1//EN"
 "http://www.w3.org/Graphics/SVG/1.1/DTD/svg11.dtd">
<!-- Generated by graphviz version 2.43.0 (0)
 -->
<!-- Title: mul33 Pages: 1 -->
<svg width="231pt" height="295pt"
 viewBox="0.00 0.00 231.00 295.00" xmlns="http://www.w3.org/2000/svg" xmlns:xlink="http://www.w3.org/1999/xlink">
<g id="graph0" class="graph" transform="scale(1 1) rotate(0) translate(4 291)">
<title>mul33</title>
<!-- Node1 -->
<g id="Node000001" class="node">
<title>Node1</title>
<g id="a_Node000001"><a xlink:title=" ">
<polygon fill="#999999" stroke="#666666" points="223,-153.5 176,-153.5 176,-134.5 223,-134.5 223,-153.5"/>
<text text-anchor="middle" x="199.5" y="-141.5" font-family="Helvetica,sans-Serif" font-size="10.00">mul33</text>
</a>
</g>
</g>
<!-- Node2 -->
<g id="Node000002" class="node">
<title>Node2</title>
<g id="a_Node000002"><a xlink:href="../../d8/d74/classRayTracer_1_1Matrix.html#a54839df013d4125a08d7540a1550246d" target="_top" xlink:title="Compute the axis&#45;aligned bounding box of the transformed object.">
<polygon fill="white" stroke="#666666" points="124,-287 16,-287 16,-257 124,-257 124,-287"/>
<text text-anchor="start" x="24" y="-275" font-family="Helvetica,sans-Serif" font-size="10.00">RayTracer::Matrix::</text>
<text text-anchor="middle" x="70" y="-264" font-family="Helvetica,sans-Serif" font-size="10.00">bounds</text>
</a>
</g>
</g>
<!-- Node1&#45;&gt;Node2 -->
<g id="edge1_Node000001_Node000002" class="edge">
<title>Node1&#45;&gt;Node2</title>
<g id="a_edge1_Node000001_Node000002"><a xlink:title=" ">
<path fill="none" stroke="#63b8ff" d="M192.41,-163.29C184.13,-186.54 167.16,-225.28 140,-248 135.23,-251.99 129.76,-255.33 124.03,-258.12"/>
<polygon fill="#63b8ff" stroke="#63b8ff" points="195.82,-164.14 195.7,-153.54 189.19,-161.9 195.82,-164.14"/>
</a>
</g>
</g>
<!-- Node3 -->
<g id="Node000003" class="node">
<title>Node3</title>
<g id="a_Node000003"><a xlink:href="../../da/dad/classRayTracer_1_1Rotation.html#af2fc4de1498ae82888d370d827a0b4a6" target="_top" xlink:title="Computes the AABB of the rotated primitive.">
<polygon fill="white" stroke="#666666" points="126,-239 14,-239 14,-209 126,-209 126,-239"/>
<text text-anchor="start" x="22" y="-227" font-family="Helvetica,sans-Serif" font-size="10.00">RayTracer::Rotation</text>
<text text-anchor="middle" x="70" y="-216" font-family="Helvetica,sans-Serif" font-size="10.00">::bounds</text>
</a>
</g>
</g>
<!-- Node1&#45;&gt;Node3 -->
<g id="edge2_Node000001_Node000003" class="edge">
<title>Node1&#45;&gt;Node3</title>
<g id="a_edge2_Node000001_Node000003"><a xlink:title=" ">
<path fill="none" stroke="#63b8ff" d="M184.02,-161.39C173.02,-173.63 156.95,-189.63 140,-200 134.48,-203.38 128.43,-206.36 122.26,-208.97"/>
<polygon fill="#63b8ff" stroke="#63b8ff" points="186.84,-163.47 190.76,-153.63 181.56,-158.88 186.84,-163.47"/>
</a>
</g>
</g>
<!-- Node4 -->
<g id="Node000004" class="node">
<title>Node4</title>
<g id="a_Node000004"><a xlink:href="../../de/d10/classRayTracer_1_1Shear.html#a77547bc42b3802aaf5feb77c580d7dd7" target="_top" xlink:title="Computes the axis&#45;aligned bounding box of the sheared primitive.">
<polygon fill="white" stroke="#666666" points="140,-190.5 0,-190.5 0,-171.5 140,-171.5 140,-190.5"/>
<text text-anchor="middle" x="70" y="-178.5" font-family="Helvetica,sans-Serif" font-size="10.00">RayTracer::Shear::bounds</text>
</a>
</g>
</g>
<!-- Node1&#45;&gt;Node4 -->
<g id="edge3_Node000001_Node000004" class="edge">
<title>Node1&#45;&gt;Node4</title>
<g id="a_edge3_Node000001_Node000004"><a xlink:title=" ">
<path fill="none" stroke="#63b8ff" d="M166.23,-154.86C157.73,-157.61 148.55,-160.5 140,-163 130.02,-165.92 119.16,-168.86 109.07,-171.5"/>
<polygon fill="#63b8ff" stroke="#63b8ff" points="167.41,-158.15 175.82,-151.71 165.22,-151.5 167.41,-158.15"/>
</a>
</g>
</g>
<!-- Node5 -->
<g id="Node000005" class="node">
<title>Node5</title>
<g id="a_Node000005"><a xlink:href="../../d8/d74/classRayTracer_1_1Matrix.html#a78a0a23a0003349438eec10920c145c1" target="_top" xlink:title="Perform ray–transformed&#45;primitive intersection test.">
<polygon fill="white" stroke="#666666" points="133,-153.5 7,-153.5 7,-134.5 133,-134.5 133,-153.5"/>
<text text-anchor="middle" x="70" y="-141.5" font-family="Helvetica,sans-Serif" font-size="10.00">RayTracer::Matrix::hits</text>
</a>
</g>
</g>
<!-- Node1&#45;&gt;Node5 -->
<g id="edge4_Node000001_Node000005" class="edge">
<title>Node1&#45;&gt;Node5</title>
<g id="a_edge4_Node000001_Node000005"><a xlink:title=" ">
<path fill="none" stroke="#63b8ff" d="M165.77,-144C155.8,-144 144.49,-144 133.24,-144"/>
<polygon fill="#63b8ff" stroke="#63b8ff" points="166,-147.5 176,-144 166,-140.5 166,-147.5"/>
</a>
</g>
</g>
<!-- Node6 -->
<g id="Node000006" class="node">
<title>Node6</title>
<g id="a_Node000006"><a xlink:href="../../da/dad/classRayTracer_1_1Rotation.html#a84b60a8550ead4a3cf6cf07a9eaa52ff" target="_top" xlink:title="Tests for ray–rotated&#45;primitive intersection.">
<polygon fill="white" stroke="#666666" points="126,-116 14,-116 14,-86 126,-86 126,-116"/>
<text text-anchor="start" x="22" y="-104" font-family="Helvetica,sans-Serif" font-size="10.00">RayTracer::Rotation</text>
<text text-anchor="middle" x="70" y="-93" font-family="Helvetica,sans-Serif" font-size="10.00">::hits</text>
</a>
</g>
</g>
<!-- Node1&#45;&gt;Node6 -->
<g id="edge5_Node000001_Node000006" class="edge">
<title>Node1&#45;&gt;Node6</title>
<g id="a_edge5_Node000001_Node000006"><a xlink:title=" ">
<path fill="none" stroke="#63b8ff" d="M166.44,-133.19C151.08,-128.01 132.44,-121.72 115.72,-116.08"/>
<polygon fill="#63b8ff" stroke="#63b8ff" points="165.4,-136.53 176,-136.41 167.64,-129.9 165.4,-136.53"/>
</a>
</g>
</g>
<!-- Node7 -->
<g id="Node000007" class="node">
<title>Node7</title>
<g id="a_Node000007"><a xlink:href="../../de/d10/classRayTracer_1_1Shear.html#a4a97e4d68ce15dade54c71359ff2474d" target="_top" xlink:title="Performs ray intersection test after applying the shear transformation.">
<polygon fill="white" stroke="#666666" points="131,-67.5 9,-67.5 9,-48.5 131,-48.5 131,-67.5"/>
<text text-anchor="middle" x="70" y="-55.5" font-family="Helvetica,sans-Serif" font-size="10.00">RayTracer::Shear::hits</text>
</a>
</g>
</g>
<!-- Node1&#45;&gt;Node7 -->
<g id="edge6_Node000001_Node000007" class="edge">
<title>Node1&#45;&gt;Node7</title>
<g id="a_edge6_Node000001_Node000007"><a xlink:title=" ">
<path fill="none" stroke="#63b8ff" d="M186.96,-125.61C176.49,-110.41 159.71,-89.38 140,-77 133.79,-73.1 126.78,-69.99 119.67,-67.51"/>
<polygon fill="#63b8ff" stroke="#63b8ff" points="184.19,-127.78 192.63,-134.19 190.03,-123.92 184.19,-127.78"/>
</a>
</g>
</g>
<!-- Node8 -->
<g id="Node000008" class="node">
<title>Node8</title>
<g id="a_Node000008"><a xlink:href="../../da/dad/classRayTracer_1_1Rotation.html#a39d4bce153051eaf3a15f9b9dfe71fa9" target="_top" xlink:title="Constructs a rotated version of the given primitive.">
<polygon fill="white" stroke="#666666" points="126,-30 14,-30 14,0 126,0 126,-30"/>
<text text-anchor="start" x="22" y="-18" font-family="Helvetica,sans-Serif" font-size="10.00">RayTracer::Rotation</text>
<text text-anchor="middle" x="70" y="-7" font-family="Helvetica,sans-Serif" font-size="10.00">::Rotation</text>
</a>
</g>
</g>
<!-- Node1&#45;&gt;Node8 -->
<g id="edge7_Node000001_Node000008" class="edge">
<title>Node1&#45;&gt;Node8</title>
<g id="a_edge7_Node000001_Node000008"><a xlink:title=" ">
<path fill="none" stroke="#63b8ff" d="M192.36,-124.76C184.03,-101.58 167.01,-62.89 140,-40 135.43,-36.13 130.21,-32.84 124.74,-30.04"/>
<polygon fill="#63b8ff" stroke="#63b8ff" points="189.14,-126.15 195.67,-134.49 195.76,-123.89 189.14,-126.15"/>
</a>
</g>
</g>
</g>
</svg>
