<?xml version="1.0" encoding="UTF-8" standalone="no"?>
<!DOCTYPE svg PUBLIC "-//W3C//DTD SVG 1.1//EN"
 "http://www.w3.org/Graphics/SVG/1.1/DTD/svg11.dtd">
<!-- Generated by graphviz version 2.43.0 (0)
 -->
<!-- Title: include/primitives/Tetrahedron.hpp Pages: 1 -->
<svg width="404pt" height="159pt"
 viewBox="0.00 0.00 404.00 159.00" xmlns="http://www.w3.org/2000/svg" xmlns:xlink="http://www.w3.org/1999/xlink">
<g id="graph0" class="graph" transform="scale(1 1) rotate(0) translate(4 155)">
<title>include/primitives/Tetrahedron.hpp</title>
<!-- Node1 -->
<g id="Node000001" class="node">
<title>Node1</title>
<g id="a_Node000001"><a xlink:title=" ">
<polygon fill="#999999" stroke="#666666" points="290,-151 186,-151 186,-121 290,-121 290,-151"/>
<text text-anchor="start" x="194" y="-139" font-family="Helvetica,sans-Serif" font-size="10.00">include/primitives</text>
<text text-anchor="middle" x="238" y="-128" font-family="Helvetica,sans-Serif" font-size="10.00">/Tetrahedron.hpp</text>
</a>
</g>
</g>
<!-- Node2 -->
<g id="Node000002" class="node">
<title>Node2</title>
<g id="a_Node000002"><a xlink:href="../../d2/d3d/Sierpinski_8hpp.html" target="_top" xlink:title=" ">
<polygon fill="white" stroke="#666666" points="214,-85 110,-85 110,-55 214,-55 214,-85"/>
<text text-anchor="start" x="118" y="-73" font-family="Helvetica,sans-Serif" font-size="10.00">include/primitives</text>
<text text-anchor="middle" x="162" y="-62" font-family="Helvetica,sans-Serif" font-size="10.00">/Sierpinski.hpp</text>
</a>
</g>
</g>
<!-- Node1&#45;&gt;Node2 -->
<g id="edge1_Node000001_Node000002" class="edge">
<title>Node1&#45;&gt;Node2</title>
<g id="a_edge1_Node000001_Node000002"><a xlink:title=" ">
<path fill="none" stroke="#63b8ff" d="M213.3,-114.2C202.02,-104.7 188.95,-93.69 178.82,-85.16"/>
<polygon fill="#63b8ff" stroke="#63b8ff" points="211.23,-117.03 221.13,-120.8 215.74,-111.68 211.23,-117.03"/>
</a>
</g>
</g>
<!-- Node5 -->
<g id="Node000005" class="node">
<title>Node5</title>
<g id="a_Node000005"><a xlink:href="../../de/ded/Tetrahedron_8cpp.html" target="_top" xlink:title=" ">
<polygon fill="white" stroke="#666666" points="396,-79.5 232,-79.5 232,-60.5 396,-60.5 396,-79.5"/>
<text text-anchor="middle" x="314" y="-67.5" font-family="Helvetica,sans-Serif" font-size="10.00">src/primitives/Tetrahedron.cpp</text>
</a>
</g>
</g>
<!-- Node1&#45;&gt;Node5 -->
<g id="edge4_Node000001_Node000005" class="edge">
<title>Node1&#45;&gt;Node5</title>
<g id="a_edge4_Node000001_Node000005"><a xlink:title=" ">
<path fill="none" stroke="#63b8ff" d="M262.63,-114.26C276.46,-102.61 292.99,-88.69 303.5,-79.84"/>
<polygon fill="#63b8ff" stroke="#63b8ff" points="260.26,-111.68 254.87,-120.8 264.77,-117.03 260.26,-111.68"/>
</a>
</g>
</g>
<!-- Node3 -->
<g id="Node000003" class="node">
<title>Node3</title>
<g id="a_Node000003"><a xlink:href="../../d3/d79/SceneParser_8cpp.html" target="_top" xlink:title="Implements the scene loading system using libconfig for the raytracer engine.">
<polygon fill="white" stroke="#666666" points="152,-19 0,-19 0,0 152,0 152,-19"/>
<text text-anchor="middle" x="76" y="-7" font-family="Helvetica,sans-Serif" font-size="10.00">src/loaders/SceneParser.cpp</text>
</a>
</g>
</g>
<!-- Node2&#45;&gt;Node3 -->
<g id="edge2_Node000002_Node000003" class="edge">
<title>Node2&#45;&gt;Node3</title>
<g id="a_edge2_Node000002_Node000003"><a xlink:title=" ">
<path fill="none" stroke="#63b8ff" d="M132.69,-49.06C117.68,-38.85 100.18,-26.95 88.63,-19.09"/>
<polygon fill="#63b8ff" stroke="#63b8ff" points="130.94,-52.11 141.18,-54.84 134.88,-46.32 130.94,-52.11"/>
</a>
</g>
</g>
<!-- Node4 -->
<g id="Node000004" class="node">
<title>Node4</title>
<g id="a_Node000004"><a xlink:href="../../d9/d38/Sierpinski_8cpp.html" target="_top" xlink:title=" ">
<polygon fill="white" stroke="#666666" points="325.5,-19 170.5,-19 170.5,0 325.5,0 325.5,-19"/>
<text text-anchor="middle" x="248" y="-7" font-family="Helvetica,sans-Serif" font-size="10.00">src/primitives/Sierpinski.cpp</text>
</a>
</g>
</g>
<!-- Node2&#45;&gt;Node4 -->
<g id="edge3_Node000002_Node000004" class="edge">
<title>Node2&#45;&gt;Node4</title>
<g id="a_edge3_Node000002_Node000004"><a xlink:title=" ">
<path fill="none" stroke="#63b8ff" d="M191.31,-49.06C206.32,-38.85 223.82,-26.95 235.37,-19.09"/>
<polygon fill="#63b8ff" stroke="#63b8ff" points="189.12,-46.32 182.82,-54.84 193.06,-52.11 189.12,-46.32"/>
</a>
</g>
</g>
</g>
</svg>
