<?xml version="1.0" encoding="UTF-8" standalone="no"?>
<!DOCTYPE svg PUBLIC "-//W3C//DTD SVG 1.1//EN"
 "http://www.w3.org/Graphics/SVG/1.1/DTD/svg11.dtd">
<!-- Generated by graphviz version 2.43.0 (0)
 -->
<!-- Title: src/rendering/Skybox.cpp Pages: 1 -->
<svg width="1570pt" height="522pt"
 viewBox="0.00 0.00 1569.50 522.00" xmlns="http://www.w3.org/2000/svg" xmlns:xlink="http://www.w3.org/1999/xlink">
<g id="graph0" class="graph" transform="scale(1 1) rotate(0) translate(4 518)">
<title>src/rendering/Skybox.cpp</title>
<!-- Node1 -->
<g id="Node000001" class="node">
<title>Node1</title>
<g id="a_Node000001"><a xlink:title=" ">
<polygon fill="#999999" stroke="#666666" points="1401.5,-514 1262.5,-514 1262.5,-495 1401.5,-495 1401.5,-514"/>
<text text-anchor="middle" x="1332" y="-502" font-family="Helvetica,sans-Serif" font-size="10.00">src/rendering/Skybox.cpp</text>
</a>
</g>
</g>
<!-- Node2 -->
<g id="Node000002" class="node">
<title>Node2</title>
<g id="a_Node000002"><a xlink:href="../../d1/d3a/ShadowShading_8hpp.html" target="_top" xlink:title=" ">
<polygon fill="white" stroke="#666666" points="895,-459 731,-459 731,-440 895,-440 895,-459"/>
<text text-anchor="middle" x="813" y="-447" font-family="Helvetica,sans-Serif" font-size="10.00">rendering/ShadowShading.hpp</text>
</a>
</g>
</g>
<!-- Node1&#45;&gt;Node2 -->
<g id="edge1_Node000001_Node000002" class="edge">
<title>Node1&#45;&gt;Node2</title>
<g id="a_edge1_Node000001_Node000002"><a xlink:title=" ">
<path fill="none" stroke="#63b8ff" d="M1262.27,-496.38C1170.11,-486.97 1007.47,-470.36 905.22,-459.92"/>
<polygon fill="#63b8ff" stroke="#63b8ff" points="905.52,-456.43 895.21,-458.9 904.8,-463.39 905.52,-456.43"/>
</a>
</g>
</g>
<!-- Node10 -->
<g id="Node000010" class="node">
<title>Node10</title>
<g id="a_Node000010"><a xlink:title=" ">
<polygon fill="#e0e0e0" stroke="#999999" points="315.5,-19 268.5,-19 268.5,0 315.5,0 315.5,-19"/>
<text text-anchor="middle" x="292" y="-7" font-family="Helvetica,sans-Serif" font-size="10.00">cmath</text>
</a>
</g>
</g>
<!-- Node1&#45;&gt;Node10 -->
<g id="edge63_Node000001_Node000010" class="edge">
<title>Node1&#45;&gt;Node10</title>
<g id="a_edge63_Node000001_Node000010"><a xlink:title=" ">
<path fill="none" stroke="#63b8ff" d="M1262.26,-501.53C988.19,-493.36 0,-459.45 0,-395.5 0,-395.5 0,-395.5 0,-118.5 0,-64.04 180.94,-28.4 257.96,-15.69"/>
<polygon fill="#63b8ff" stroke="#63b8ff" points="258.79,-19.1 268.1,-14.05 257.67,-12.19 258.79,-19.1"/>
</a>
</g>
</g>
<!-- Node20 -->
<g id="Node000020" class="node">
<title>Node20</title>
<g id="a_Node000020"><a xlink:title=" ">
<polygon fill="#e0e0e0" stroke="#999999" points="1420,-294 1356,-294 1356,-275 1420,-275 1420,-294"/>
<text text-anchor="middle" x="1388" y="-282" font-family="Helvetica,sans-Serif" font-size="10.00">algorithm</text>
</a>
</g>
</g>
<!-- Node1&#45;&gt;Node20 -->
<g id="edge67_Node000001_Node000020" class="edge">
<title>Node1&#45;&gt;Node20</title>
<g id="a_edge67_Node000001_Node000020"><a xlink:title=" ">
<path fill="none" stroke="#63b8ff" d="M1334.2,-494.95C1342.44,-462.88 1371.64,-349.2 1383.22,-304.12"/>
<polygon fill="#63b8ff" stroke="#63b8ff" points="1386.66,-304.78 1385.76,-294.22 1379.88,-303.04 1386.66,-304.78"/>
</a>
</g>
</g>
<!-- Node23 -->
<g id="Node000023" class="node">
<title>Node23</title>
<g id="a_Node000023"><a xlink:href="../../dc/d94/Skybox_8hpp.html" target="_top" xlink:title="Declares a minimal PPM&#45;based skybox loader and sampler.">
<polygon fill="white" stroke="#666666" points="264.5,-349 191.5,-349 191.5,-330 264.5,-330 264.5,-349"/>
<text text-anchor="middle" x="228" y="-337" font-family="Helvetica,sans-Serif" font-size="10.00">Skybox.hpp</text>
</a>
</g>
</g>
<!-- Node1&#45;&gt;Node23 -->
<g id="edge62_Node000001_Node000023" class="edge">
<title>Node1&#45;&gt;Node23</title>
<g id="a_edge62_Node000001_Node000023"><a xlink:title=" ">
<path fill="none" stroke="#63b8ff" d="M1262.4,-504.26C1055.13,-505.41 445.9,-500.32 277,-404 258.72,-393.58 244.95,-373.33 236.73,-358.49"/>
<polygon fill="#63b8ff" stroke="#63b8ff" points="239.66,-356.53 231.94,-349.27 233.44,-359.76 239.66,-356.53"/>
</a>
</g>
</g>
<!-- Node25 -->
<g id="Node000025" class="node">
<title>Node25</title>
<g id="a_Node000025"><a xlink:title=" ">
<polygon fill="#e0e0e0" stroke="#999999" points="1415.5,-459 1360.5,-459 1360.5,-440 1415.5,-440 1415.5,-459"/>
<text text-anchor="middle" x="1388" y="-447" font-family="Helvetica,sans-Serif" font-size="10.00">fstream</text>
</a>
</g>
</g>
<!-- Node1&#45;&gt;Node25 -->
<g id="edge64_Node000001_Node000025" class="edge">
<title>Node1&#45;&gt;Node25</title>
<g id="a_edge64_Node000001_Node000025"><a xlink:title=" ">
<path fill="none" stroke="#63b8ff" d="M1341,-494.98C1349.19,-487.23 1361.51,-475.58 1371.47,-466.14"/>
<polygon fill="#63b8ff" stroke="#63b8ff" points="1373.98,-468.59 1378.84,-459.17 1369.17,-463.5 1373.98,-468.59"/>
</a>
</g>
</g>
<!-- Node26 -->
<g id="Node000026" class="node">
<title>Node26</title>
<g id="a_Node000026"><a xlink:title=" ">
<polygon fill="#e0e0e0" stroke="#999999" points="1494,-459 1434,-459 1434,-440 1494,-440 1494,-459"/>
<text text-anchor="middle" x="1464" y="-447" font-family="Helvetica,sans-Serif" font-size="10.00">iostream</text>
</a>
</g>
</g>
<!-- Node1&#45;&gt;Node26 -->
<g id="edge65_Node000001_Node000026" class="edge">
<title>Node1&#45;&gt;Node26</title>
<g id="a_edge65_Node000001_Node000026"><a xlink:title=" ">
<path fill="none" stroke="#63b8ff" d="M1353.21,-494.98C1374.73,-486.34 1408.28,-472.87 1432.83,-463.02"/>
<polygon fill="#63b8ff" stroke="#63b8ff" points="1434.43,-466.14 1442.41,-459.17 1431.82,-459.65 1434.43,-466.14"/>
</a>
</g>
</g>
<!-- Node27 -->
<g id="Node000027" class="node">
<title>Node27</title>
<g id="a_Node000027"><a xlink:title=" ">
<polygon fill="#e0e0e0" stroke="#999999" points="1561.5,-459 1512.5,-459 1512.5,-440 1561.5,-440 1561.5,-459"/>
<text text-anchor="middle" x="1537" y="-447" font-family="Helvetica,sans-Serif" font-size="10.00">cctype</text>
</a>
</g>
</g>
<!-- Node1&#45;&gt;Node27 -->
<g id="edge66_Node000001_Node000027" class="edge">
<title>Node1&#45;&gt;Node27</title>
<g id="a_edge66_Node000001_Node000027"><a xlink:title=" ">
<path fill="none" stroke="#63b8ff" d="M1364.94,-494.98C1402.65,-485.23 1464.16,-469.33 1502.51,-459.42"/>
<polygon fill="#63b8ff" stroke="#63b8ff" points="1503.4,-462.8 1512.2,-456.91 1501.65,-456.03 1503.4,-462.8"/>
</a>
</g>
</g>
<!-- Node3 -->
<g id="Node000003" class="node">
<title>Node3</title>
<g id="a_Node000003"><a xlink:href="../../db/de8/Scene_8hpp.html" target="_top" xlink:title="Declares the scene container: camera, objects, lights, and top&#45;level BVH.">
<polygon fill="white" stroke="#666666" points="846.5,-404 779.5,-404 779.5,-385 846.5,-385 846.5,-404"/>
<text text-anchor="middle" x="813" y="-392" font-family="Helvetica,sans-Serif" font-size="10.00">Scene.hpp</text>
</a>
</g>
</g>
<!-- Node2&#45;&gt;Node3 -->
<g id="edge2_Node000002_Node000003" class="edge">
<title>Node2&#45;&gt;Node3</title>
<g id="a_edge2_Node000002_Node000003"><a xlink:title=" ">
<path fill="none" stroke="#63b8ff" d="M813,-439.75C813,-432.8 813,-422.85 813,-414.13"/>
<polygon fill="#63b8ff" stroke="#63b8ff" points="816.5,-414.09 813,-404.09 809.5,-414.09 816.5,-414.09"/>
</a>
</g>
</g>
<!-- Node7 -->
<g id="Node000007" class="node">
<title>Node7</title>
<g id="a_Node000007"><a xlink:href="../../d4/db2/Ray_8hpp.html" target="_top" xlink:title="Defines the Ray structure used for ray&#45;object intersection tests in the raytracer.">
<polygon fill="white" stroke="#666666" points="915.5,-184 836.5,-184 836.5,-165 915.5,-165 915.5,-184"/>
<text text-anchor="middle" x="876" y="-172" font-family="Helvetica,sans-Serif" font-size="10.00">core/Ray.hpp</text>
</a>
</g>
</g>
<!-- Node2&#45;&gt;Node7 -->
<g id="edge42_Node000002_Node000007" class="edge">
<title>Node2&#45;&gt;Node7</title>
<g id="a_edge42_Node000002_Node000007"><a xlink:title=" ">
<path fill="none" stroke="#63b8ff" d="M858.29,-439.95C908.35,-427.56 982,-399.35 982,-340.5 982,-340.5 982,-340.5 982,-283.5 982,-253.91 981.04,-242.65 962,-220 949.7,-205.37 931.36,-194.96 914.78,-187.91"/>
<polygon fill="#63b8ff" stroke="#63b8ff" points="915.86,-184.57 905.27,-184.13 913.28,-191.08 915.86,-184.57"/>
</a>
</g>
</g>
<!-- Node9 -->
<g id="Node000009" class="node">
<title>Node9</title>
<g id="a_Node000009"><a xlink:href="../../d3/dde/Vector3D_8hpp.html" target="_top" xlink:title="Defines a 3D vector structure with basic arithmetic and transformation operations.">
<polygon fill="white" stroke="#666666" points="560,-74 478,-74 478,-55 560,-55 560,-74"/>
<text text-anchor="middle" x="519" y="-62" font-family="Helvetica,sans-Serif" font-size="10.00">Vector3D.hpp</text>
</a>
</g>
</g>
<!-- Node2&#45;&gt;Node9 -->
<g id="edge43_Node000002_Node000009" class="edge">
<title>Node2&#45;&gt;Node9</title>
<g id="a_edge43_Node000002_Node000009"><a xlink:title=" ">
<path fill="none" stroke="#63b8ff" d="M730.6,-448.98C624.39,-447.93 434.62,-440.43 277,-404 201.25,-386.49 114,-418.25 114,-340.5 114,-340.5 114,-340.5 114,-283.5 114,-189.74 149.86,-151.36 234,-110 274.16,-90.26 397.14,-76.39 467.73,-69.82"/>
<polygon fill="#63b8ff" stroke="#63b8ff" points="468.11,-73.3 477.75,-68.9 467.48,-66.33 468.11,-73.3"/>
</a>
</g>
</g>
<!-- Node2&#45;&gt;Node10 -->
<g id="edge58_Node000002_Node000010" class="edge">
<title>Node2&#45;&gt;Node10</title>
<g id="a_edge58_Node000002_Node000010"><a xlink:title=" ">
<path fill="none" stroke="#63b8ff" d="M730.98,-446.68C561.38,-442.41 183.5,-430.08 131,-404 97.56,-387.39 76,-377.84 76,-340.5 76,-340.5 76,-340.5 76,-118.5 76,-38.01 197.47,-17.51 258.22,-12.28"/>
<polygon fill="#63b8ff" stroke="#63b8ff" points="258.77,-15.75 268.47,-11.5 258.23,-8.77 258.77,-15.75"/>
</a>
</g>
</g>
<!-- Node12 -->
<g id="Node000012" class="node">
<title>Node12</title>
<g id="a_Node000012"><a xlink:href="../../d0/d70/Material_8hpp.html" target="_top" xlink:title="Declares the physically&#45;based material descriptor used by the renderer.">
<polygon fill="white" stroke="#666666" points="384,-239 256,-239 256,-220 384,-220 384,-239"/>
<text text-anchor="middle" x="320" y="-227" font-family="Helvetica,sans-Serif" font-size="10.00">rendering/Material.hpp</text>
</a>
</g>
</g>
<!-- Node2&#45;&gt;Node12 -->
<g id="edge44_Node000002_Node000012" class="edge">
<title>Node2&#45;&gt;Node12</title>
<g id="a_edge44_Node000002_Node000012"><a xlink:title=" ">
<path fill="none" stroke="#63b8ff" d="M730.97,-449.14C625.41,-448.39 449.47,-441.34 398,-404 346.14,-366.38 328.08,-286.14 322.38,-249.48"/>
<polygon fill="#63b8ff" stroke="#63b8ff" points="325.8,-248.63 320.94,-239.22 318.87,-249.61 325.8,-248.63"/>
</a>
</g>
</g>
<!-- Node17 -->
<g id="Node000017" class="node">
<title>Node17</title>
<g id="a_Node000017"><a xlink:title=" ">
<polygon fill="#e0e0e0" stroke="#999999" points="650,-184 596,-184 596,-165 650,-165 650,-184"/>
<text text-anchor="middle" x="623" y="-172" font-family="Helvetica,sans-Serif" font-size="10.00">random</text>
</a>
</g>
</g>
<!-- Node2&#45;&gt;Node17 -->
<g id="edge59_Node000002_Node000017" class="edge">
<title>Node2&#45;&gt;Node17</title>
<g id="a_edge59_Node000002_Node000017"><a xlink:title=" ">
<path fill="none" stroke="#63b8ff" d="M730.74,-449.18C644.2,-447.92 516.28,-439.81 485,-404 422.17,-332.07 549.92,-227.88 602.14,-189.97"/>
<polygon fill="#63b8ff" stroke="#63b8ff" points="604.28,-192.74 610.39,-184.08 600.22,-187.04 604.28,-192.74"/>
</a>
</g>
</g>
<!-- Node18 -->
<g id="Node000018" class="node">
<title>Node18</title>
<g id="a_Node000018"><a xlink:href="../../da/da7/ILight_8hpp.html" target="_top" xlink:title="Abstract interface for all light sources in the path tracer.">
<polygon fill="white" stroke="#666666" points="1227.5,-349 1162.5,-349 1162.5,-330 1227.5,-330 1227.5,-349"/>
<text text-anchor="middle" x="1195" y="-337" font-family="Helvetica,sans-Serif" font-size="10.00">ILight.hpp</text>
</a>
</g>
</g>
<!-- Node2&#45;&gt;Node18 -->
<g id="edge41_Node000002_Node000018" class="edge">
<title>Node2&#45;&gt;Node18</title>
<g id="a_edge41_Node000002_Node000018"><a xlink:title=" ">
<path fill="none" stroke="#63b8ff" d="M857.63,-439.96C895.08,-432.25 949.71,-419.71 996,-404 1015.78,-397.28 1019.35,-392.1 1039,-385 1076.76,-371.35 1120.85,-359.1 1152.5,-350.93"/>
<polygon fill="#63b8ff" stroke="#63b8ff" points="1153.49,-354.28 1162.32,-348.42 1151.76,-347.5 1153.49,-354.28"/>
</a>
</g>
</g>
<!-- Node2&#45;&gt;Node20 -->
<g id="edge60_Node000002_Node000020" class="edge">
<title>Node2&#45;&gt;Node20</title>
<g id="a_edge60_Node000002_Node000020"><a xlink:title=" ">
<path fill="none" stroke="#63b8ff" d="M895.09,-447.34C969.75,-444.21 1082.13,-434.26 1175,-404 1214.62,-391.09 1319.33,-327.92 1365.54,-299.45"/>
<polygon fill="#63b8ff" stroke="#63b8ff" points="1367.55,-302.33 1374.22,-294.09 1363.87,-296.37 1367.55,-302.33"/>
</a>
</g>
</g>
<!-- Node21 -->
<g id="Node000021" class="node">
<title>Node21</title>
<g id="a_Node000021"><a xlink:title=" ">
<polygon fill="#e0e0e0" stroke="#999999" points="1338,-294 1294,-294 1294,-275 1338,-275 1338,-294"/>
<text text-anchor="middle" x="1316" y="-282" font-family="Helvetica,sans-Serif" font-size="10.00">limits</text>
</a>
</g>
</g>
<!-- Node2&#45;&gt;Node21 -->
<g id="edge57_Node000002_Node000021" class="edge">
<title>Node2&#45;&gt;Node21</title>
<g id="a_edge57_Node000002_Node000021"><a xlink:title=" ">
<path fill="none" stroke="#63b8ff" d="M895.29,-446.02C962.64,-441.94 1059.58,-431.34 1140,-404 1205.71,-381.66 1270.02,-328.02 1299.41,-301.25"/>
<polygon fill="#63b8ff" stroke="#63b8ff" points="1302.1,-303.53 1307.06,-294.16 1297.34,-298.39 1302.1,-303.53"/>
</a>
</g>
</g>
<!-- Node22 -->
<g id="Node000022" class="node">
<title>Node22</title>
<g id="a_Node000022"><a xlink:href="../../d6/d46/Sphere_8hpp.html" target="_top" xlink:title="Declares the Sphere primitive for ray tracing.">
<polygon fill="white" stroke="#666666" points="618,-404 494,-404 494,-385 618,-385 618,-404"/>
<text text-anchor="middle" x="556" y="-392" font-family="Helvetica,sans-Serif" font-size="10.00">primitives/Sphere.hpp</text>
</a>
</g>
</g>
<!-- Node2&#45;&gt;Node22 -->
<g id="edge45_Node000002_Node000022" class="edge">
<title>Node2&#45;&gt;Node22</title>
<g id="a_edge45_Node000002_Node000022"><a xlink:title=" ">
<path fill="none" stroke="#63b8ff" d="M771.71,-439.98C727.07,-430.78 655.84,-416.09 607.55,-406.13"/>
<polygon fill="#63b8ff" stroke="#63b8ff" points="608.12,-402.67 597.62,-404.08 606.7,-409.53 608.12,-402.67"/>
</a>
</g>
</g>
<!-- Node2&#45;&gt;Node23 -->
<g id="edge53_Node000002_Node000023" class="edge">
<title>Node2&#45;&gt;Node23</title>
<g id="a_edge53_Node000002_Node000023"><a xlink:title=" ">
<path fill="none" stroke="#63b8ff" d="M730.57,-446.53C608.99,-442.72 388,-432.07 314,-404 286.51,-393.58 260.12,-371.74 243.99,-356.61"/>
<polygon fill="#63b8ff" stroke="#63b8ff" points="246.16,-353.84 236.53,-349.4 241.29,-358.87 246.16,-353.84"/>
</a>
</g>
</g>
<!-- Node24 -->
<g id="Node000024" class="node">
<title>Node24</title>
<g id="a_Node000024"><a xlink:title=" ">
<polygon fill="#e0e0e0" stroke="#999999" points="1131.5,-404 1048.5,-404 1048.5,-385 1131.5,-385 1131.5,-404"/>
<text text-anchor="middle" x="1090" y="-392" font-family="Helvetica,sans-Serif" font-size="10.00">initializer_list</text>
</a>
</g>
</g>
<!-- Node2&#45;&gt;Node24 -->
<g id="edge61_Node000002_Node000024" class="edge">
<title>Node2&#45;&gt;Node24</title>
<g id="a_edge61_Node000002_Node000024"><a xlink:title=" ">
<path fill="none" stroke="#63b8ff" d="M857.5,-439.98C906.83,-430.55 986.26,-415.35 1038.3,-405.39"/>
<polygon fill="#63b8ff" stroke="#63b8ff" points="1039.16,-408.79 1048.32,-403.47 1037.84,-401.92 1039.16,-408.79"/>
</a>
</g>
</g>
<!-- Node4 -->
<g id="Node000004" class="node">
<title>Node4</title>
<g id="a_Node000004"><a xlink:title=" ">
<polygon fill="#e0e0e0" stroke="#999999" points="601.5,-294 554.5,-294 554.5,-275 601.5,-275 601.5,-294"/>
<text text-anchor="middle" x="578" y="-282" font-family="Helvetica,sans-Serif" font-size="10.00">vector</text>
</a>
</g>
</g>
<!-- Node3&#45;&gt;Node4 -->
<g id="edge3_Node000003_Node000004" class="edge">
<title>Node3&#45;&gt;Node4</title>
<g id="a_edge3_Node000003_Node000004"><a xlink:title=" ">
<path fill="none" stroke="#63b8ff" d="M792.16,-384.92C771.07,-376.16 737.59,-362.04 709,-349 672.34,-332.28 630.54,-311.76 604.21,-298.66"/>
<polygon fill="#63b8ff" stroke="#63b8ff" points="605.76,-295.52 595.25,-294.18 602.64,-301.78 605.76,-295.52"/>
</a>
</g>
</g>
<!-- Node5 -->
<g id="Node000005" class="node">
<title>Node5</title>
<g id="a_Node000005"><a xlink:title=" ">
<polygon fill="#e0e0e0" stroke="#999999" points="517,-184 459,-184 459,-165 517,-165 517,-184"/>
<text text-anchor="middle" x="488" y="-172" font-family="Helvetica,sans-Serif" font-size="10.00">memory</text>
</a>
</g>
</g>
<!-- Node3&#45;&gt;Node5 -->
<g id="edge4_Node000003_Node000005" class="edge">
<title>Node3&#45;&gt;Node5</title>
<g id="a_edge4_Node000003_Node000005"><a xlink:title=" ">
<path fill="none" stroke="#63b8ff" d="M779.1,-389.8C723.16,-381.96 611.16,-358.74 545,-294 516,-265.63 499.8,-219.55 492.6,-194.01"/>
<polygon fill="#63b8ff" stroke="#63b8ff" points="495.93,-192.92 489.98,-184.15 489.16,-194.71 495.93,-192.92"/>
</a>
</g>
</g>
<!-- Node6 -->
<g id="Node000006" class="node">
<title>Node6</title>
<g id="a_Node000006"><a xlink:href="../../de/d81/APrimitive_8hpp.html" target="_top" xlink:title=" ">
<polygon fill="white" stroke="#666666" points="847.5,-294 734.5,-294 734.5,-275 847.5,-275 847.5,-294"/>
<text text-anchor="middle" x="791" y="-282" font-family="Helvetica,sans-Serif" font-size="10.00">core/APrimitive.hpp</text>
</a>
</g>
</g>
<!-- Node3&#45;&gt;Node6 -->
<g id="edge5_Node000003_Node000006" class="edge">
<title>Node3&#45;&gt;Node6</title>
<g id="a_edge5_Node000003_Node000006"><a xlink:title=" ">
<path fill="none" stroke="#63b8ff" d="M811.2,-384.66C807.64,-367.17 799.62,-327.8 794.82,-304.27"/>
<polygon fill="#63b8ff" stroke="#63b8ff" points="798.19,-303.26 792.76,-294.16 791.33,-304.66 798.19,-303.26"/>
</a>
</g>
</g>
<!-- Node16 -->
<g id="Node000016" class="node">
<title>Node16</title>
<g id="a_Node000016"><a xlink:href="../../d6/d80/Camera_8hpp.html" target="_top" xlink:title="Declares the pin&#45;hole / thin&#45;lens camera used by the ray tracer.">
<polygon fill="white" stroke="#666666" points="1200,-239 1124,-239 1124,-220 1200,-220 1200,-239"/>
<text text-anchor="middle" x="1162" y="-227" font-family="Helvetica,sans-Serif" font-size="10.00">Camera.hpp</text>
</a>
</g>
</g>
<!-- Node3&#45;&gt;Node16 -->
<g id="edge23_Node000003_Node000016" class="edge">
<title>Node3&#45;&gt;Node16</title>
<g id="a_edge23_Node000003_Node000016"><a xlink:title=" ">
<path fill="none" stroke="#63b8ff" d="M846.92,-388.46C905.12,-378.5 1025.85,-352.06 1110,-294 1127.53,-281.9 1142.32,-262.28 1151.59,-248.04"/>
<polygon fill="#63b8ff" stroke="#63b8ff" points="1154.78,-249.55 1157.09,-239.21 1148.84,-245.85 1154.78,-249.55"/>
</a>
</g>
</g>
<!-- Node3&#45;&gt;Node18 -->
<g id="edge29_Node000003_Node000018" class="edge">
<title>Node3&#45;&gt;Node18</title>
<g id="a_edge29_Node000003_Node000018"><a xlink:title=" ">
<path fill="none" stroke="#63b8ff" d="M846.84,-389.54C907.37,-382.33 1038.16,-366.22 1148,-349 1149.46,-348.77 1150.94,-348.53 1152.44,-348.29"/>
<polygon fill="#63b8ff" stroke="#63b8ff" points="1153.14,-351.72 1162.42,-346.6 1151.97,-344.82 1153.14,-351.72"/>
</a>
</g>
</g>
<!-- Node19 -->
<g id="Node000019" class="node">
<title>Node19</title>
<g id="a_Node000019"><a xlink:href="../../d9/dad/BVH_8hpp.html" target="_top" xlink:title="Declares the axis&#45;aligned bounding box (AABB) and the BVH node used for ray&#45;tracing acceleration.">
<polygon fill="white" stroke="#666666" points="777.5,-349 718.5,-349 718.5,-330 777.5,-330 777.5,-349"/>
<text text-anchor="middle" x="748" y="-337" font-family="Helvetica,sans-Serif" font-size="10.00">BVH.hpp</text>
</a>
</g>
</g>
<!-- Node3&#45;&gt;Node19 -->
<g id="edge32_Node000003_Node000019" class="edge">
<title>Node3&#45;&gt;Node19</title>
<g id="a_edge32_Node000003_Node000019"><a xlink:title=" ">
<path fill="none" stroke="#63b8ff" d="M802.56,-384.98C792.85,-377.07 778.18,-365.11 766.5,-355.58"/>
<polygon fill="#63b8ff" stroke="#63b8ff" points="768.6,-352.78 758.63,-349.17 764.17,-358.2 768.6,-352.78"/>
</a>
</g>
</g>
<!-- Node6&#45;&gt;Node7 -->
<g id="edge6_Node000006_Node000007" class="edge">
<title>Node6&#45;&gt;Node7</title>
<g id="a_edge6_Node000006_Node000007"><a xlink:title=" ">
<path fill="none" stroke="#63b8ff" d="M797.96,-274.66C812.16,-256.61 844.69,-215.28 862.95,-192.08"/>
<polygon fill="#63b8ff" stroke="#63b8ff" points="865.75,-194.18 869.19,-184.16 860.25,-189.85 865.75,-194.18"/>
</a>
</g>
</g>
<!-- Node8 -->
<g id="Node000008" class="node">
<title>Node8</title>
<g id="a_Node000008"><a xlink:href="../../df/df2/Point3D_8hpp.html" target="_top" xlink:title="Defines a 3D point structure used in geometric computations.">
<polygon fill="white" stroke="#666666" points="1077,-129 1001,-129 1001,-110 1077,-110 1077,-129"/>
<text text-anchor="middle" x="1039" y="-117" font-family="Helvetica,sans-Serif" font-size="10.00">Point3D.hpp</text>
</a>
</g>
</g>
<!-- Node6&#45;&gt;Node8 -->
<g id="edge12_Node000006_Node000008" class="edge">
<title>Node6&#45;&gt;Node8</title>
<g id="a_edge12_Node000006_Node000008"><a xlink:title=" ">
<path fill="none" stroke="#63b8ff" d="M847.77,-279.19C883.37,-274.1 928.65,-263.04 962,-239 997.86,-213.15 1021.38,-164.99 1032.17,-138.73"/>
<polygon fill="#63b8ff" stroke="#63b8ff" points="1035.5,-139.82 1035.91,-129.23 1028.99,-137.26 1035.5,-139.82"/>
</a>
</g>
</g>
<!-- Node6&#45;&gt;Node9 -->
<g id="edge14_Node000006_Node000009" class="edge">
<title>Node6&#45;&gt;Node9</title>
<g id="a_edge14_Node000006_Node000009"><a xlink:title=" ">
<path fill="none" stroke="#63b8ff" d="M760.91,-274.9C740.82,-267.91 714.9,-256.33 697,-239 670.44,-213.28 683.17,-192.98 659,-165 631.51,-133.17 616.29,-134.35 582,-110 567.77,-99.89 551.69,-88.54 539.35,-79.83"/>
<polygon fill="#63b8ff" stroke="#63b8ff" points="541.28,-76.91 531.09,-74.01 537.25,-82.63 541.28,-76.91"/>
</a>
</g>
</g>
<!-- Node11 -->
<g id="Node000011" class="node">
<title>Node11</title>
<g id="a_Node000011"><a xlink:href="../../d8/d1e/Vector2D_8hpp.html" target="_top" xlink:title="Defines a 2D vector structure used for texture coordinates or screen&#45;space math operations.">
<polygon fill="white" stroke="#666666" points="812,-239 706,-239 706,-220 812,-220 812,-239"/>
<text text-anchor="middle" x="759" y="-227" font-family="Helvetica,sans-Serif" font-size="10.00">core/Vector2D.hpp</text>
</a>
</g>
</g>
<!-- Node6&#45;&gt;Node11 -->
<g id="edge13_Node000006_Node000011" class="edge">
<title>Node6&#45;&gt;Node11</title>
<g id="a_edge13_Node000006_Node000011"><a xlink:title=" ">
<path fill="none" stroke="#63b8ff" d="M785.72,-274.75C781.29,-267.42 774.84,-256.73 769.38,-247.7"/>
<polygon fill="#63b8ff" stroke="#63b8ff" points="772.35,-245.84 764.19,-239.09 766.36,-249.46 772.35,-245.84"/>
</a>
</g>
</g>
<!-- Node6&#45;&gt;Node12 -->
<g id="edge15_Node000006_Node000012" class="edge">
<title>Node6&#45;&gt;Node12</title>
<g id="a_edge15_Node000006_Node000012"><a xlink:title=" ">
<path fill="none" stroke="#63b8ff" d="M734.19,-277.11C649.08,-267.53 488.46,-249.46 394.2,-238.85"/>
<polygon fill="#63b8ff" stroke="#63b8ff" points="394.49,-235.36 384.16,-237.72 393.71,-242.32 394.49,-235.36"/>
</a>
</g>
</g>
<!-- Node15 -->
<g id="Node000015" class="node">
<title>Node15</title>
<g id="a_Node000015"><a xlink:href="../../d0/d38/IPrimitive_8hpp.html" target="_top" xlink:title="Interface for geometric primitives in the raytracer.">
<polygon fill="white" stroke="#666666" points="953.5,-239 868.5,-239 868.5,-220 953.5,-220 953.5,-239"/>
<text text-anchor="middle" x="911" y="-227" font-family="Helvetica,sans-Serif" font-size="10.00">IPrimitive.hpp</text>
</a>
</g>
</g>
<!-- Node6&#45;&gt;Node15 -->
<g id="edge21_Node000006_Node000015" class="edge">
<title>Node6&#45;&gt;Node15</title>
<g id="a_edge21_Node000006_Node000015"><a xlink:title=" ">
<path fill="none" stroke="#63b8ff" d="M810.28,-274.98C829.67,-266.42 859.81,-253.11 882.07,-243.28"/>
<polygon fill="#63b8ff" stroke="#63b8ff" points="883.64,-246.41 891.37,-239.17 880.81,-240.01 883.64,-246.41"/>
</a>
</g>
</g>
<!-- Node7&#45;&gt;Node8 -->
<g id="edge7_Node000007_Node000008" class="edge">
<title>Node7&#45;&gt;Node8</title>
<g id="a_edge7_Node000007_Node000008"><a xlink:title=" ">
<path fill="none" stroke="#63b8ff" d="M902.19,-164.98C929.44,-156.13 972.3,-142.19 1002.78,-132.28"/>
<polygon fill="#63b8ff" stroke="#63b8ff" points="1004.18,-135.5 1012.61,-129.08 1002.01,-128.85 1004.18,-135.5"/>
</a>
</g>
</g>
<!-- Node7&#45;&gt;Node9 -->
<g id="edge11_Node000007_Node000009" class="edge">
<title>Node7&#45;&gt;Node9</title>
<g id="a_edge11_Node000007_Node000009"><a xlink:title=" ">
<path fill="none" stroke="#63b8ff" d="M853.24,-164.98C818.68,-152.2 750.74,-127.66 692,-110 649.56,-97.24 600.6,-84.86 565.62,-76.41"/>
<polygon fill="#63b8ff" stroke="#63b8ff" points="566.23,-72.96 555.69,-74.03 564.59,-79.77 566.23,-72.96"/>
</a>
</g>
</g>
<!-- Node8&#45;&gt;Node9 -->
<g id="edge8_Node000008_Node000009" class="edge">
<title>Node8&#45;&gt;Node9</title>
<g id="a_edge8_Node000008_Node000009"><a xlink:title=" ">
<path fill="none" stroke="#63b8ff" d="M1000.76,-114.6C908.61,-105.21 674.17,-81.32 570.11,-70.71"/>
<polygon fill="#63b8ff" stroke="#63b8ff" points="570.46,-67.23 560.15,-69.69 569.75,-74.19 570.46,-67.23"/>
</a>
</g>
</g>
<!-- Node8&#45;&gt;Node10 -->
<g id="edge10_Node000008_Node000010" class="edge">
<title>Node8&#45;&gt;Node10</title>
<g id="a_edge10_Node000008_Node000010"><a xlink:title=" ">
<path fill="none" stroke="#63b8ff" d="M1000.93,-113C871.36,-94.26 448.75,-33.16 325.83,-15.39"/>
<polygon fill="#63b8ff" stroke="#63b8ff" points="326.25,-11.92 315.86,-13.95 325.25,-18.84 326.25,-11.92"/>
</a>
</g>
</g>
<!-- Node9&#45;&gt;Node10 -->
<g id="edge9_Node000009_Node000010" class="edge">
<title>Node9&#45;&gt;Node10</title>
<g id="a_edge9_Node000009_Node000010"><a xlink:title=" ">
<path fill="none" stroke="#63b8ff" d="M482.53,-54.98C439.2,-44.87 367.52,-28.13 325.53,-18.33"/>
<polygon fill="#63b8ff" stroke="#63b8ff" points="326.06,-14.86 315.53,-15.99 324.47,-21.68 326.06,-14.86"/>
</a>
</g>
</g>
<!-- Node12&#45;&gt;Node5 -->
<g id="edge17_Node000012_Node000005" class="edge">
<title>Node12&#45;&gt;Node5</title>
<g id="a_edge17_Node000012_Node000005"><a xlink:title=" ">
<path fill="none" stroke="#63b8ff" d="M346.99,-219.98C375.2,-211.09 419.64,-197.07 451.08,-187.15"/>
<polygon fill="#63b8ff" stroke="#63b8ff" points="452.31,-190.43 460.8,-184.08 450.21,-183.75 452.31,-190.43"/>
</a>
</g>
</g>
<!-- Node12&#45;&gt;Node9 -->
<g id="edge18_Node000012_Node000009" class="edge">
<title>Node12&#45;&gt;Node9</title>
<g id="a_edge18_Node000012_Node000009"><a xlink:title=" ">
<path fill="none" stroke="#63b8ff" d="M315.54,-219.87C305.21,-198.55 282.46,-142.75 309,-110 328.6,-85.81 412.09,-74.24 467.71,-69.12"/>
<polygon fill="#63b8ff" stroke="#63b8ff" points="468.09,-72.6 477.75,-68.24 467.48,-65.63 468.09,-72.6"/>
</a>
</g>
</g>
<!-- Node13 -->
<g id="Node000013" class="node">
<title>Node13</title>
<g id="a_Node000013"><a xlink:title=" ">
<polygon fill="#e0e0e0" stroke="#999999" points="262,-184 218,-184 218,-165 262,-165 262,-184"/>
<text text-anchor="middle" x="240" y="-172" font-family="Helvetica,sans-Serif" font-size="10.00">string</text>
</a>
</g>
</g>
<!-- Node12&#45;&gt;Node13 -->
<g id="edge16_Node000012_Node000013" class="edge">
<title>Node12&#45;&gt;Node13</title>
<g id="a_edge16_Node000012_Node000013"><a xlink:title=" ">
<path fill="none" stroke="#63b8ff" d="M307.15,-219.98C294.86,-211.84 276.09,-199.41 261.52,-189.76"/>
<polygon fill="#63b8ff" stroke="#63b8ff" points="263.36,-186.78 253.09,-184.17 259.49,-192.61 263.36,-186.78"/>
</a>
</g>
</g>
<!-- Node14 -->
<g id="Node000014" class="node">
<title>Node14</title>
<g id="a_Node000014"><a xlink:href="../../d0/ddc/Texture_8hpp.html" target="_top" xlink:title="Declares the abstract base class for all 2&#45;D textures. (Solid colour, checkerboard,...">
<polygon fill="white" stroke="#666666" points="441.5,-129 318.5,-129 318.5,-110 441.5,-110 441.5,-129"/>
<text text-anchor="middle" x="380" y="-117" font-family="Helvetica,sans-Serif" font-size="10.00">rendering/Texture.hpp</text>
</a>
</g>
</g>
<!-- Node12&#45;&gt;Node14 -->
<g id="edge19_Node000012_Node000014" class="edge">
<title>Node12&#45;&gt;Node14</title>
<g id="a_edge19_Node000012_Node000014"><a xlink:title=" ">
<path fill="none" stroke="#63b8ff" d="M324.91,-219.66C334.8,-201.85 357.3,-161.37 370.27,-138.01"/>
<polygon fill="#63b8ff" stroke="#63b8ff" points="373.39,-139.6 375.19,-129.16 367.27,-136.2 373.39,-139.6"/>
</a>
</g>
</g>
<!-- Node14&#45;&gt;Node9 -->
<g id="edge20_Node000014_Node000009" class="edge">
<title>Node14&#45;&gt;Node9</title>
<g id="a_edge20_Node000014_Node000009"><a xlink:title=" ">
<path fill="none" stroke="#63b8ff" d="M402.33,-109.98C425.2,-101.27 460.96,-87.63 486.86,-77.75"/>
<polygon fill="#63b8ff" stroke="#63b8ff" points="488.16,-81 496.26,-74.17 485.67,-74.46 488.16,-81"/>
</a>
</g>
</g>
<!-- Node15&#45;&gt;Node7 -->
<g id="edge22_Node000015_Node000007" class="edge">
<title>Node15&#45;&gt;Node7</title>
<g id="a_edge22_Node000015_Node000007"><a xlink:title=" ">
<path fill="none" stroke="#63b8ff" d="M905.22,-219.75C900.38,-212.42 893.32,-201.73 887.36,-192.7"/>
<polygon fill="#63b8ff" stroke="#63b8ff" points="890.1,-190.5 881.67,-184.09 884.26,-194.36 890.1,-190.5"/>
</a>
</g>
</g>
<!-- Node16&#45;&gt;Node7 -->
<g id="edge26_Node000016_Node000007" class="edge">
<title>Node16&#45;&gt;Node7</title>
<g id="a_edge26_Node000016_Node000007"><a xlink:title=" ">
<path fill="none" stroke="#63b8ff" d="M1123.73,-221.41C1072.71,-211.95 982.34,-195.21 926,-184.76"/>
<polygon fill="#63b8ff" stroke="#63b8ff" points="926.36,-181.27 915.89,-182.89 925.08,-188.16 926.36,-181.27"/>
</a>
</g>
</g>
<!-- Node16&#45;&gt;Node8 -->
<g id="edge24_Node000016_Node000008" class="edge">
<title>Node16&#45;&gt;Node8</title>
<g id="a_edge24_Node000016_Node000008"><a xlink:title=" ">
<path fill="none" stroke="#63b8ff" d="M1156.35,-219.95C1147.53,-207.01 1129.46,-182.14 1110,-165 1096.34,-152.97 1079.07,-142.07 1064.99,-134.06"/>
<polygon fill="#63b8ff" stroke="#63b8ff" points="1066.27,-130.78 1055.83,-129.01 1062.89,-136.91 1066.27,-130.78"/>
</a>
</g>
</g>
<!-- Node16&#45;&gt;Node9 -->
<g id="edge25_Node000016_Node000009" class="edge">
<title>Node16&#45;&gt;Node9</title>
<g id="a_edge25_Node000016_Node000009"><a xlink:title=" ">
<path fill="none" stroke="#63b8ff" d="M1159.76,-220C1153.16,-196.88 1131.3,-133.07 1086,-110 1040.7,-86.93 701.41,-72.18 570.4,-67.29"/>
<polygon fill="#63b8ff" stroke="#63b8ff" points="570.35,-63.79 560.22,-66.92 570.09,-70.79 570.35,-63.79"/>
</a>
</g>
</g>
<!-- Node16&#45;&gt;Node10 -->
<g id="edge27_Node000016_Node000010" class="edge">
<title>Node16&#45;&gt;Node10</title>
<g id="a_edge27_Node000016_Node000010"><a xlink:title=" ">
<path fill="none" stroke="#63b8ff" d="M1162.9,-219.92C1163.88,-207.36 1164.42,-183.47 1157,-165 1145.22,-135.69 1139.63,-125.3 1112,-110 973.37,-33.21 462.92,-14.85 325.99,-11.26"/>
<polygon fill="#63b8ff" stroke="#63b8ff" points="325.79,-7.76 315.7,-11.01 325.61,-14.76 325.79,-7.76"/>
</a>
</g>
</g>
<!-- Node16&#45;&gt;Node17 -->
<g id="edge28_Node000016_Node000017" class="edge">
<title>Node16&#45;&gt;Node17</title>
<g id="a_edge28_Node000016_Node000017"><a xlink:title=" ">
<path fill="none" stroke="#63b8ff" d="M1123.67,-224.73C1024.12,-214.94 758.31,-188.8 660.12,-179.15"/>
<polygon fill="#63b8ff" stroke="#63b8ff" points="660.37,-175.66 650.07,-178.16 659.68,-182.62 660.37,-175.66"/>
</a>
</g>
</g>
<!-- Node18&#45;&gt;Node8 -->
<g id="edge30_Node000018_Node000008" class="edge">
<title>Node18&#45;&gt;Node8</title>
<g id="a_edge30_Node000018_Node000008"><a xlink:title=" ">
<path fill="none" stroke="#63b8ff" d="M1199.15,-329.88C1208.31,-309.5 1228.03,-257.27 1209,-220 1184.45,-171.93 1125.54,-145.31 1083.98,-131.96"/>
<polygon fill="#63b8ff" stroke="#63b8ff" points="1084.93,-128.59 1074.35,-129.01 1082.88,-135.29 1084.93,-128.59"/>
</a>
</g>
</g>
<!-- Node18&#45;&gt;Node9 -->
<g id="edge31_Node000018_Node000009" class="edge">
<title>Node18&#45;&gt;Node9</title>
<g id="a_edge31_Node000018_Node000009"><a xlink:title=" ">
<path fill="none" stroke="#63b8ff" d="M1204.02,-329.96C1212.07,-321.66 1223.29,-308.25 1228,-294 1231.96,-282.01 1236.98,-247.64 1227,-220 1202.98,-153.47 1178.02,-135.38 1112,-110 1013.7,-72.21 695.46,-66.39 570.27,-65.59"/>
<polygon fill="#63b8ff" stroke="#63b8ff" points="570.2,-62.08 560.18,-65.53 570.16,-69.08 570.2,-62.08"/>
</a>
</g>
</g>
<!-- Node19&#45;&gt;Node4 -->
<g id="edge34_Node000019_Node000004" class="edge">
<title>Node19&#45;&gt;Node4</title>
<g id="a_edge34_Node000019_Node000004"><a xlink:title=" ">
<path fill="none" stroke="#63b8ff" d="M720.69,-329.98C690.96,-320.72 643.41,-305.89 611.46,-295.93"/>
<polygon fill="#63b8ff" stroke="#63b8ff" points="612.27,-292.52 601.68,-292.88 610.19,-299.2 612.27,-292.52"/>
</a>
</g>
</g>
<!-- Node19&#45;&gt;Node5 -->
<g id="edge33_Node000019_Node000005" class="edge">
<title>Node19&#45;&gt;Node5</title>
<g id="a_edge33_Node000019_Node000005"><a xlink:title=" ">
<path fill="none" stroke="#63b8ff" d="M727.29,-329.96C707.88,-321.67 678.29,-308.26 654,-294 597.87,-261.03 536.74,-214.3 506.75,-190.58"/>
<polygon fill="#63b8ff" stroke="#63b8ff" points="508.81,-187.75 498.81,-184.26 504.45,-193.22 508.81,-187.75"/>
</a>
</g>
</g>
<!-- Node19&#45;&gt;Node6 -->
<g id="edge38_Node000019_Node000006" class="edge">
<title>Node19&#45;&gt;Node6</title>
<g id="a_edge38_Node000019_Node000006"><a xlink:title=" ">
<path fill="none" stroke="#63b8ff" d="M755.1,-329.75C761.17,-322.26 770.09,-311.28 777.51,-302.13"/>
<polygon fill="#63b8ff" stroke="#63b8ff" points="780.45,-304.06 784.03,-294.09 775.01,-299.65 780.45,-304.06"/>
</a>
</g>
</g>
<!-- Node19&#45;&gt;Node7 -->
<g id="edge37_Node000019_Node000007" class="edge">
<title>Node19&#45;&gt;Node7</title>
<g id="a_edge37_Node000019_Node000007"><a xlink:title=" ">
<path fill="none" stroke="#63b8ff" d="M738.75,-329.97C717.47,-309.34 669,-255.82 697,-220 712.8,-199.79 778.96,-187.44 826.23,-181.04"/>
<polygon fill="#63b8ff" stroke="#63b8ff" points="826.85,-184.49 836.31,-179.72 825.94,-177.55 826.85,-184.49"/>
</a>
</g>
</g>
<!-- Node19&#45;&gt;Node8 -->
<g id="edge39_Node000019_Node000008" class="edge">
<title>Node19&#45;&gt;Node8</title>
<g id="a_edge39_Node000019_Node000008"><a xlink:title=" ">
<path fill="none" stroke="#63b8ff" d="M777.77,-331.52C825.7,-319.17 921.21,-289.85 987,-239 1011.33,-220.19 1016.9,-212.28 1029,-184 1035.11,-169.71 1037.53,-152.19 1038.47,-139.17"/>
<polygon fill="#63b8ff" stroke="#63b8ff" points="1041.97,-139.24 1038.97,-129.08 1034.98,-138.9 1041.97,-139.24"/>
</a>
</g>
</g>
<!-- Node19&#45;&gt;Node9 -->
<g id="edge40_Node000019_Node000009" class="edge">
<title>Node19&#45;&gt;Node9</title>
<g id="a_edge40_Node000019_Node000009"><a xlink:title=" ">
<path fill="none" stroke="#63b8ff" d="M736.95,-329.97C725.82,-321.26 708.3,-307.17 694,-294 643.83,-247.8 628.07,-238.45 587,-184 561.99,-150.84 539.38,-107.61 527.59,-83.59"/>
<polygon fill="#63b8ff" stroke="#63b8ff" points="530.59,-81.77 523.09,-74.29 524.29,-84.81 530.59,-81.77"/>
</a>
</g>
</g>
<!-- Node19&#45;&gt;Node20 -->
<g id="edge35_Node000019_Node000020" class="edge">
<title>Node19&#45;&gt;Node20</title>
<g id="a_edge35_Node000019_Node000020"><a xlink:title=" ">
<path fill="none" stroke="#63b8ff" d="M777.75,-337.66C864.08,-334.94 1122.16,-324.74 1345.89,-293.97"/>
<polygon fill="#63b8ff" stroke="#63b8ff" points="1346.42,-297.43 1355.84,-292.58 1345.45,-290.49 1346.42,-297.43"/>
</a>
</g>
</g>
<!-- Node19&#45;&gt;Node21 -->
<g id="edge36_Node000019_Node000021" class="edge">
<title>Node19&#45;&gt;Node21</title>
<g id="a_edge36_Node000019_Node000021"><a xlink:title=" ">
<path fill="none" stroke="#63b8ff" d="M777.74,-335.73C874.97,-326.65 1183,-297.91 1283.76,-288.51"/>
<polygon fill="#63b8ff" stroke="#63b8ff" points="1284.29,-291.97 1293.93,-287.56 1283.64,-285 1284.29,-291.97"/>
</a>
</g>
</g>
<!-- Node22&#45;&gt;Node6 -->
<g id="edge46_Node000022_Node000006" class="edge">
<title>Node22&#45;&gt;Node6</title>
<g id="a_edge46_Node000022_Node000006"><a xlink:title=" ">
<path fill="none" stroke="#63b8ff" d="M574.83,-384.84C616.1,-365.88 714.67,-320.58 763.14,-298.31"/>
<polygon fill="#63b8ff" stroke="#63b8ff" points="764.78,-301.4 772.4,-294.05 761.85,-295.04 764.78,-301.4"/>
</a>
</g>
</g>
<!-- Node22&#45;&gt;Node7 -->
<g id="edge49_Node000022_Node000007" class="edge">
<title>Node22&#45;&gt;Node7</title>
<g id="a_edge49_Node000022_Node000007"><a xlink:title=" ">
<path fill="none" stroke="#63b8ff" d="M551.74,-384.82C542.14,-363.86 521.38,-309.66 545,-275 576.91,-228.17 741.91,-196.28 826.24,-182.78"/>
<polygon fill="#63b8ff" stroke="#63b8ff" points="827.02,-186.2 836.36,-181.18 825.93,-179.28 827.02,-186.2"/>
</a>
</g>
</g>
<!-- Node22&#45;&gt;Node8 -->
<g id="edge47_Node000022_Node000008" class="edge">
<title>Node22&#45;&gt;Node8</title>
<g id="a_edge47_Node000022_Node000008"><a xlink:title=" ">
<path fill="none" stroke="#63b8ff" d="M616.79,-384.94C663.59,-377.58 729.6,-365.53 786,-349 849.36,-330.42 865.1,-323.84 924,-294 989.13,-261.01 1026.05,-254.23 1046,-184 1050.17,-169.31 1047.83,-152.06 1044.78,-139.24"/>
<polygon fill="#63b8ff" stroke="#63b8ff" points="1048.07,-138.02 1042.06,-129.3 1041.32,-139.87 1048.07,-138.02"/>
</a>
</g>
</g>
<!-- Node22&#45;&gt;Node9 -->
<g id="edge48_Node000022_Node000009" class="edge">
<title>Node22&#45;&gt;Node9</title>
<g id="a_edge48_Node000022_Node000009"><a xlink:title=" ">
<path fill="none" stroke="#63b8ff" d="M549.74,-384.9C530.15,-357.4 470.15,-268.45 450,-184 440.26,-143.19 476.63,-102.42 500.24,-80.96"/>
<polygon fill="#63b8ff" stroke="#63b8ff" points="502.73,-83.43 507.96,-74.21 498.13,-78.16 502.73,-83.43"/>
</a>
</g>
</g>
<!-- Node22&#45;&gt;Node10 -->
<g id="edge52_Node000022_Node000010" class="edge">
<title>Node22&#45;&gt;Node10</title>
<g id="a_edge52_Node000022_Node000010"><a xlink:title=" ">
<path fill="none" stroke="#63b8ff" d="M493.65,-390.44C392.72,-384.86 202.71,-371.48 182,-349 126.57,-288.82 150.11,-242.62 176,-165 195.53,-106.47 246.89,-52.27 274.26,-26.41"/>
<polygon fill="#63b8ff" stroke="#63b8ff" points="276.95,-28.68 281.91,-19.32 272.2,-23.54 276.95,-28.68"/>
</a>
</g>
</g>
<!-- Node22&#45;&gt;Node12 -->
<g id="edge50_Node000022_Node000012" class="edge">
<title>Node22&#45;&gt;Node12</title>
<g id="a_edge50_Node000022_Node000012"><a xlink:title=" ">
<path fill="none" stroke="#63b8ff" d="M521.02,-384.95C496.02,-377.82 462.28,-366.05 436,-349 392.12,-320.53 352.1,-272.78 332.56,-247.46"/>
<polygon fill="#63b8ff" stroke="#63b8ff" points="335.14,-245.08 326.32,-239.22 329.57,-249.31 335.14,-245.08"/>
</a>
</g>
</g>
<!-- Node22&#45;&gt;Node19 -->
<g id="edge51_Node000022_Node000019" class="edge">
<title>Node22&#45;&gt;Node19</title>
<g id="a_edge51_Node000022_Node000019"><a xlink:title=" ">
<path fill="none" stroke="#63b8ff" d="M586.85,-384.98C619.99,-375.84 672.73,-361.28 708.79,-351.32"/>
<polygon fill="#63b8ff" stroke="#63b8ff" points="709.78,-354.68 718.49,-348.65 707.92,-347.93 709.78,-354.68"/>
</a>
</g>
</g>
<!-- Node23&#45;&gt;Node4 -->
<g id="edge56_Node000023_Node000004" class="edge">
<title>Node23&#45;&gt;Node4</title>
<g id="a_edge56_Node000023_Node000004"><a xlink:title=" ">
<path fill="none" stroke="#63b8ff" d="M264.79,-332.93C332.96,-322.61 477.93,-300.65 543.96,-290.65"/>
<polygon fill="#63b8ff" stroke="#63b8ff" points="544.87,-294.06 554.23,-289.1 543.82,-287.14 544.87,-294.06"/>
</a>
</g>
</g>
<!-- Node23&#45;&gt;Node9 -->
<g id="edge54_Node000023_Node000009" class="edge">
<title>Node23&#45;&gt;Node9</title>
<g id="a_edge54_Node000023_Node000009"><a xlink:title=" ">
<path fill="none" stroke="#63b8ff" d="M222.72,-329.9C212.27,-312.07 190,-269.46 190,-230.5 190,-230.5 190,-230.5 190,-173.5 190,-115.7 375.62,-83.8 468.01,-71.5"/>
<polygon fill="#63b8ff" stroke="#63b8ff" points="468.53,-74.96 478,-70.2 467.63,-68.02 468.53,-74.96"/>
</a>
</g>
</g>
<!-- Node23&#45;&gt;Node13 -->
<g id="edge55_Node000023_Node000013" class="edge">
<title>Node23&#45;&gt;Node13</title>
<g id="a_edge55_Node000023_Node000013"><a xlink:title=" ">
<path fill="none" stroke="#63b8ff" d="M228.65,-329.74C230.52,-304.31 235.98,-230.08 238.59,-194.69"/>
<polygon fill="#63b8ff" stroke="#63b8ff" points="242.11,-194.54 239.35,-184.31 235.13,-194.02 242.11,-194.54"/>
</a>
</g>
</g>
</g>
</svg>
