<?xml version="1.0" encoding="UTF-8" standalone="no"?>
<!DOCTYPE svg PUBLIC "-//W3C//DTD SVG 1.1//EN"
 "http://www.w3.org/Graphics/SVG/1.1/DTD/svg11.dtd">
<!-- Generated by graphviz version 2.43.0 (0)
 -->
<!-- Title: RayTracer::Rotation Pages: 1 -->
<svg width="256pt" height="237pt"
 viewBox="0.00 0.00 255.50 237.00" xmlns="http://www.w3.org/2000/svg" xmlns:xlink="http://www.w3.org/1999/xlink">
<g id="graph0" class="graph" transform="scale(1 1) rotate(0) translate(4 233)">
<title>RayTracer::Rotation</title>
<!-- Node1 -->
<g id="Node000001" class="node">
<title>Node1</title>
<g id="a_Node000001"><a xlink:title="Applies 3D Euler rotation to a primitive using a rotation matrix.">
<polygon fill="#999999" stroke="#666666" points="131,-19 19,-19 19,0 131,0 131,-19"/>
<text text-anchor="middle" x="75" y="-7" font-family="Helvetica,sans-Serif" font-size="10.00">RayTracer::Rotation</text>
</a>
</g>
</g>
<!-- Node2 -->
<g id="Node000002" class="node">
<title>Node2</title>
<g id="a_Node000002"><a xlink:href="../../d9/d3d/classRayTracer_1_1APrimitive.html" target="_top" xlink:title=" ">
<polygon fill="white" stroke="#666666" points="136,-75 14,-75 14,-56 136,-56 136,-75"/>
<text text-anchor="middle" x="75" y="-63" font-family="Helvetica,sans-Serif" font-size="10.00">RayTracer::APrimitive</text>
</a>
</g>
</g>
<!-- Node2&#45;&gt;Node1 -->
<g id="edge1_Node000001_Node000002" class="edge">
<title>Node2&#45;&gt;Node1</title>
<g id="a_edge1_Node000001_Node000002"><a xlink:title=" ">
<path fill="none" stroke="#63b8ff" d="M75,-45.3C75,-36.41 75,-26.28 75,-19.25"/>
<polygon fill="#63b8ff" stroke="#63b8ff" points="71.5,-45.58 75,-55.58 78.5,-45.58 71.5,-45.58"/>
</a>
</g>
</g>
<!-- Node3 -->
<g id="Node000003" class="node">
<title>Node3</title>
<g id="a_Node000003"><a xlink:href="../../da/d13/classRayTracer_1_1IPrimitive.html" target="_top" xlink:title="Pure interface that every geometric primitive must implement.">
<polygon fill="white" stroke="#666666" points="118,-141 0,-141 0,-122 118,-122 118,-141"/>
<text text-anchor="middle" x="59" y="-129" font-family="Helvetica,sans-Serif" font-size="10.00">RayTracer::IPrimitive</text>
</a>
</g>
</g>
<!-- Node3&#45;&gt;Node2 -->
<g id="edge2_Node000002_Node000003" class="edge">
<title>Node3&#45;&gt;Node2</title>
<g id="a_edge2_Node000002_Node000003"><a xlink:title=" ">
<path fill="none" stroke="#63b8ff" d="M63.64,-111.95C66.64,-99.93 70.42,-84.82 72.77,-75.41"/>
<polygon fill="#63b8ff" stroke="#63b8ff" points="60.19,-111.32 61.16,-121.87 66.98,-113.02 60.19,-111.32"/>
</a>
</g>
</g>
<!-- Node4 -->
<g id="Node000004" class="node">
<title>Node4</title>
<g id="a_Node000004"><a xlink:href="../../d1/d48/structRayTracer_1_1Material.html" target="_top" xlink:title="Physically&#45;based material parameters.">
<polygon fill="white" stroke="#666666" points="247.5,-141 136.5,-141 136.5,-122 247.5,-122 247.5,-141"/>
<text text-anchor="middle" x="192" y="-129" font-family="Helvetica,sans-Serif" font-size="10.00">RayTracer::Material</text>
</a>
</g>
</g>
<!-- Node4&#45;&gt;Node2 -->
<g id="edge3_Node000002_Node000004" class="edge">
<title>Node4&#45;&gt;Node2</title>
<g id="a_edge3_Node000002_Node000004"><a xlink:title=" ">
<path fill="none" stroke="#9a32cd" stroke-dasharray="5,2" d="M167.37,-117.03C144.33,-104.42 110.59,-85.97 90.9,-75.2"/>
<polygon fill="#9a32cd" stroke="#9a32cd" points="165.77,-120.14 176.22,-121.87 169.13,-114 165.77,-120.14"/>
</a>
</g>
<text text-anchor="middle" x="162.5" y="-96" font-family="Helvetica,sans-Serif" font-size="10.00" fill="grey"> material</text>
</g>
<!-- Node5 -->
<g id="Node000005" class="node">
<title>Node5</title>
<g id="a_Node000005"><a xlink:href="../../d6/d30/structMath_1_1Vector3D.html" target="_top" xlink:title="Represents a 3D vector with real coordinates.">
<polygon fill="white" stroke="#666666" points="238,-229 146,-229 146,-210 238,-210 238,-229"/>
<text text-anchor="middle" x="192" y="-217" font-family="Helvetica,sans-Serif" font-size="10.00">Math::Vector3D</text>
</a>
</g>
</g>
<!-- Node5&#45;&gt;Node4 -->
<g id="edge4_Node000004_Node000005" class="edge">
<title>Node5&#45;&gt;Node4</title>
<g id="a_edge4_Node000004_Node000005"><a xlink:title=" ">
<path fill="none" stroke="#9a32cd" stroke-dasharray="5,2" d="M192,-199.91C192,-181.67 192,-154.65 192,-141.03"/>
<polygon fill="#9a32cd" stroke="#9a32cd" points="188.5,-199.94 192,-209.94 195.5,-199.94 188.5,-199.94"/>
</a>
</g>
<text text-anchor="middle" x="214.5" y="-184" font-family="Helvetica,sans-Serif" font-size="10.00" fill="grey"> albedo</text>
<text text-anchor="middle" x="214.5" y="-173" font-family="Helvetica,sans-Serif" font-size="10.00" fill="grey">emission</text>
<text text-anchor="middle" x="214.5" y="-162" font-family="Helvetica,sans-Serif" font-size="10.00" fill="grey">specular</text>
</g>
</g>
</svg>
