<?xml version="1.0" encoding="UTF-8" standalone="no"?>
<!DOCTYPE svg PUBLIC "-//W3C//DTD SVG 1.1//EN"
 "http://www.w3.org/Graphics/SVG/1.1/DTD/svg11.dtd">
<!-- Generated by graphviz version 2.43.0 (0)
 -->
<!-- Title: src/rendering/Scene.cpp Pages: 1 -->
<svg width="956pt" height="478pt"
 viewBox="0.00 0.00 956.47 478.00" xmlns="http://www.w3.org/2000/svg" xmlns:xlink="http://www.w3.org/1999/xlink">
<g id="graph0" class="graph" transform="scale(1 1) rotate(0) translate(4 474)">
<title>src/rendering/Scene.cpp</title>
<!-- Node1 -->
<g id="Node000001" class="node">
<title>Node1</title>
<g id="a_Node000001"><a xlink:title=" ">
<polygon fill="#999999" stroke="#666666" points="490.09,-470 357.09,-470 357.09,-451 490.09,-451 490.09,-470"/>
<text text-anchor="middle" x="423.59" y="-458" font-family="Helvetica,sans-Serif" font-size="10.00">src/rendering/Scene.cpp</text>
</a>
</g>
</g>
<!-- Node2 -->
<g id="Node000002" class="node">
<title>Node2</title>
<g id="a_Node000002"><a xlink:href="../../db/de8/Scene_8hpp.html" target="_top" xlink:title="Declares the scene container: camera, objects, lights, and top&#45;level BVH.">
<polygon fill="white" stroke="#666666" points="483.09,-415 364.09,-415 364.09,-385 483.09,-385 483.09,-415"/>
<text text-anchor="start" x="372.09" y="-403" font-family="Helvetica,sans-Serif" font-size="10.00">../../include/rendering</text>
<text text-anchor="middle" x="423.59" y="-392" font-family="Helvetica,sans-Serif" font-size="10.00">/Scene.hpp</text>
</a>
</g>
</g>
<!-- Node1&#45;&gt;Node2 -->
<g id="edge1_Node000001_Node000002" class="edge">
<title>Node1&#45;&gt;Node2</title>
<g id="a_edge1_Node000001_Node000002"><a xlink:title=" ">
<path fill="none" stroke="#63b8ff" d="M423.59,-450.87C423.59,-444.11 423.59,-434.35 423.59,-425.26"/>
<polygon fill="#63b8ff" stroke="#63b8ff" points="427.09,-425.11 423.59,-415.11 420.09,-425.11 427.09,-425.11"/>
</a>
</g>
</g>
<!-- Node3 -->
<g id="Node000003" class="node">
<title>Node3</title>
<g id="a_Node000003"><a xlink:title=" ">
<polygon fill="#e0e0e0" stroke="#999999" points="65.09,-294 18.09,-294 18.09,-275 65.09,-275 65.09,-294"/>
<text text-anchor="middle" x="41.59" y="-282" font-family="Helvetica,sans-Serif" font-size="10.00">vector</text>
</a>
</g>
</g>
<!-- Node2&#45;&gt;Node3 -->
<g id="edge2_Node000002_Node000003" class="edge">
<title>Node2&#45;&gt;Node3</title>
<g id="a_edge2_Node000002_Node000003"><a xlink:title=" ">
<path fill="none" stroke="#63b8ff" d="M376.37,-384.97C298.14,-361.73 143.54,-315.79 75.3,-295.52"/>
<polygon fill="#63b8ff" stroke="#63b8ff" points="76.08,-292.1 65.5,-292.6 74.09,-298.81 76.08,-292.1"/>
</a>
</g>
</g>
<!-- Node4 -->
<g id="Node000004" class="node">
<title>Node4</title>
<g id="a_Node000004"><a xlink:title=" ">
<polygon fill="#e0e0e0" stroke="#999999" points="179.59,-184 121.59,-184 121.59,-165 179.59,-165 179.59,-184"/>
<text text-anchor="middle" x="150.59" y="-172" font-family="Helvetica,sans-Serif" font-size="10.00">memory</text>
</a>
</g>
</g>
<!-- Node2&#45;&gt;Node4 -->
<g id="edge3_Node000002_Node000004" class="edge">
<title>Node2&#45;&gt;Node4</title>
<g id="a_edge3_Node000002_Node000004"><a xlink:title=" ">
<path fill="none" stroke="#63b8ff" d="M363.89,-392.99C259.5,-381.1 50.86,-350.67 8.59,-294 -26.49,-246.97 60.85,-206.71 113.72,-187.51"/>
<polygon fill="#63b8ff" stroke="#63b8ff" points="115.21,-190.7 123.48,-184.06 112.88,-184.1 115.21,-190.7"/>
</a>
</g>
</g>
<!-- Node5 -->
<g id="Node000005" class="node">
<title>Node5</title>
<g id="a_Node000005"><a xlink:href="../../de/d81/APrimitive_8hpp.html" target="_top" xlink:title=" ">
<polygon fill="white" stroke="#666666" points="565.09,-294 452.09,-294 452.09,-275 565.09,-275 565.09,-294"/>
<text text-anchor="middle" x="508.59" y="-282" font-family="Helvetica,sans-Serif" font-size="10.00">core/APrimitive.hpp</text>
</a>
</g>
</g>
<!-- Node2&#45;&gt;Node5 -->
<g id="edge4_Node000002_Node000005" class="edge">
<title>Node2&#45;&gt;Node5</title>
<g id="a_edge4_Node000002_Node000005"><a xlink:title=" ">
<path fill="none" stroke="#63b8ff" d="M434.35,-384.63C450.06,-363.65 479.2,-324.75 495.92,-302.42"/>
<polygon fill="#63b8ff" stroke="#63b8ff" points="498.86,-304.33 502.05,-294.23 493.26,-300.14 498.86,-304.33"/>
</a>
</g>
</g>
<!-- Node15 -->
<g id="Node000015" class="node">
<title>Node15</title>
<g id="a_Node000015"><a xlink:href="../../d6/d80/Camera_8hpp.html" target="_top" xlink:title="Declares the pin&#45;hole / thin&#45;lens camera used by the ray tracer.">
<polygon fill="white" stroke="#666666" points="881.59,-239 805.59,-239 805.59,-220 881.59,-220 881.59,-239"/>
<text text-anchor="middle" x="843.59" y="-227" font-family="Helvetica,sans-Serif" font-size="10.00">Camera.hpp</text>
</a>
</g>
</g>
<!-- Node2&#45;&gt;Node15 -->
<g id="edge22_Node000002_Node000015" class="edge">
<title>Node2&#45;&gt;Node15</title>
<g id="a_edge22_Node000002_Node000015"><a xlink:title=" ">
<path fill="none" stroke="#63b8ff" d="M483.4,-396.24C569.15,-391.29 721.74,-378.54 767.59,-349 804.79,-325.03 827.38,-275.69 837.43,-248.86"/>
<polygon fill="#63b8ff" stroke="#63b8ff" points="840.82,-249.77 840.87,-239.17 834.22,-247.43 840.82,-249.77"/>
</a>
</g>
</g>
<!-- Node17 -->
<g id="Node000017" class="node">
<title>Node17</title>
<g id="a_Node000017"><a xlink:href="../../da/da7/ILight_8hpp.html" target="_top" xlink:title="Abstract interface for all light sources in the path tracer.">
<polygon fill="white" stroke="#666666" points="825.09,-184 760.09,-184 760.09,-165 825.09,-165 825.09,-184"/>
<text text-anchor="middle" x="792.59" y="-172" font-family="Helvetica,sans-Serif" font-size="10.00">ILight.hpp</text>
</a>
</g>
</g>
<!-- Node2&#45;&gt;Node17 -->
<g id="edge28_Node000002_Node000017" class="edge">
<title>Node2&#45;&gt;Node17</title>
<g id="a_edge28_Node000002_Node000017"><a xlink:title=" ">
<path fill="none" stroke="#63b8ff" d="M449.75,-384.88C486.02,-365.17 553.44,-327.99 609.59,-294 669.08,-257.99 737.44,-212.63 771.29,-189.89"/>
<polygon fill="#63b8ff" stroke="#63b8ff" points="773.55,-192.59 779.89,-184.1 769.64,-186.78 773.55,-192.59"/>
</a>
</g>
</g>
<!-- Node18 -->
<g id="Node000018" class="node">
<title>Node18</title>
<g id="a_Node000018"><a xlink:href="../../d9/dad/BVH_8hpp.html" target="_top" xlink:title="Declares the axis&#45;aligned bounding box (AABB) and the BVH node used for ray&#45;tracing acceleration.">
<polygon fill="white" stroke="#666666" points="369.09,-349 310.09,-349 310.09,-330 369.09,-330 369.09,-349"/>
<text text-anchor="middle" x="339.59" y="-337" font-family="Helvetica,sans-Serif" font-size="10.00">BVH.hpp</text>
</a>
</g>
</g>
<!-- Node2&#45;&gt;Node18 -->
<g id="edge31_Node000002_Node000018" class="edge">
<title>Node2&#45;&gt;Node18</title>
<g id="a_edge31_Node000002_Node000018"><a xlink:title=" ">
<path fill="none" stroke="#63b8ff" d="M403.26,-384.84C390.32,-375.83 373.6,-364.18 360.54,-355.09"/>
<polygon fill="#63b8ff" stroke="#63b8ff" points="362.38,-352.11 352.18,-349.27 358.38,-357.85 362.38,-352.11"/>
</a>
</g>
</g>
<!-- Node6 -->
<g id="Node000006" class="node">
<title>Node6</title>
<g id="a_Node000006"><a xlink:href="../../d4/db2/Ray_8hpp.html" target="_top" xlink:title="Defines the Ray structure used for ray&#45;object intersection tests in the raytracer.">
<polygon fill="white" stroke="#666666" points="626.09,-184 547.09,-184 547.09,-165 626.09,-165 626.09,-184"/>
<text text-anchor="middle" x="586.59" y="-172" font-family="Helvetica,sans-Serif" font-size="10.00">core/Ray.hpp</text>
</a>
</g>
</g>
<!-- Node5&#45;&gt;Node6 -->
<g id="edge5_Node000005_Node000006" class="edge">
<title>Node5&#45;&gt;Node6</title>
<g id="a_edge5_Node000005_Node000006"><a xlink:title=" ">
<path fill="none" stroke="#63b8ff" d="M471.8,-274.96C436.13,-264.92 390.16,-246.23 410.59,-220 425.98,-200.23 490.13,-187.86 536.54,-181.31"/>
<polygon fill="#63b8ff" stroke="#63b8ff" points="537.3,-184.74 546.74,-179.93 536.36,-177.81 537.3,-184.74"/>
</a>
</g>
</g>
<!-- Node7 -->
<g id="Node000007" class="node">
<title>Node7</title>
<g id="a_Node000007"><a xlink:href="../../df/df2/Point3D_8hpp.html" target="_top" xlink:title="Defines a 3D point structure used in geometric computations.">
<polygon fill="white" stroke="#666666" points="711.59,-129 635.59,-129 635.59,-110 711.59,-110 711.59,-129"/>
<text text-anchor="middle" x="673.59" y="-117" font-family="Helvetica,sans-Serif" font-size="10.00">Point3D.hpp</text>
</a>
</g>
</g>
<!-- Node5&#45;&gt;Node7 -->
<g id="edge11_Node000005_Node000007" class="edge">
<title>Node5&#45;&gt;Node7</title>
<g id="a_edge11_Node000005_Node000007"><a xlink:title=" ">
<path fill="none" stroke="#63b8ff" d="M565.2,-276.13C590.71,-270.08 619.36,-259.07 638.59,-239 664.85,-211.6 671.53,-165.48 673.15,-139.6"/>
<polygon fill="#63b8ff" stroke="#63b8ff" points="676.66,-139.41 673.59,-129.27 669.67,-139.11 676.66,-139.41"/>
</a>
</g>
</g>
<!-- Node8 -->
<g id="Node000008" class="node">
<title>Node8</title>
<g id="a_Node000008"><a xlink:href="../../d3/dde/Vector3D_8hpp.html" target="_top" xlink:title="Defines a 3D vector structure with basic arithmetic and transformation operations.">
<polygon fill="white" stroke="#666666" points="627.59,-74 545.59,-74 545.59,-55 627.59,-55 627.59,-74"/>
<text text-anchor="middle" x="586.59" y="-62" font-family="Helvetica,sans-Serif" font-size="10.00">Vector3D.hpp</text>
</a>
</g>
</g>
<!-- Node5&#45;&gt;Node8 -->
<g id="edge13_Node000005_Node000008" class="edge">
<title>Node5&#45;&gt;Node8</title>
<g id="a_edge13_Node000005_Node000008"><a xlink:title=" ">
<path fill="none" stroke="#63b8ff" d="M460.89,-274.96C425.93,-266.15 386.77,-249.44 400.59,-220 433.42,-150.05 515.21,-100.81 558.57,-78.67"/>
<polygon fill="#63b8ff" stroke="#63b8ff" points="560.32,-81.7 567.71,-74.11 557.2,-75.44 560.32,-81.7"/>
</a>
</g>
</g>
<!-- Node10 -->
<g id="Node000010" class="node">
<title>Node10</title>
<g id="a_Node000010"><a xlink:href="../../d8/d1e/Vector2D_8hpp.html" target="_top" xlink:title="Defines a 2D vector structure used for texture coordinates or screen&#45;space math operations.">
<polygon fill="white" stroke="#666666" points="525.59,-239 419.59,-239 419.59,-220 525.59,-220 525.59,-239"/>
<text text-anchor="middle" x="472.59" y="-227" font-family="Helvetica,sans-Serif" font-size="10.00">core/Vector2D.hpp</text>
</a>
</g>
</g>
<!-- Node5&#45;&gt;Node10 -->
<g id="edge12_Node000005_Node000010" class="edge">
<title>Node5&#45;&gt;Node10</title>
<g id="a_edge12_Node000005_Node000010"><a xlink:title=" ">
<path fill="none" stroke="#63b8ff" d="M502.64,-274.75C497.61,-267.34 490.25,-256.5 484.08,-247.41"/>
<polygon fill="#63b8ff" stroke="#63b8ff" points="486.94,-245.39 478.42,-239.09 481.15,-249.33 486.94,-245.39"/>
</a>
</g>
</g>
<!-- Node11 -->
<g id="Node000011" class="node">
<title>Node11</title>
<g id="a_Node000011"><a xlink:href="../../d0/d70/Material_8hpp.html" target="_top" xlink:title="Declares the physically&#45;based material descriptor used by the renderer.">
<polygon fill="white" stroke="#666666" points="287.59,-239 159.59,-239 159.59,-220 287.59,-220 287.59,-239"/>
<text text-anchor="middle" x="223.59" y="-227" font-family="Helvetica,sans-Serif" font-size="10.00">rendering/Material.hpp</text>
</a>
</g>
</g>
<!-- Node5&#45;&gt;Node11 -->
<g id="edge14_Node000005_Node000011" class="edge">
<title>Node5&#45;&gt;Node11</title>
<g id="a_edge14_Node000005_Node000011"><a xlink:title=" ">
<path fill="none" stroke="#63b8ff" d="M462.8,-274.98C412.98,-265.72 333.31,-250.9 279.75,-240.94"/>
<polygon fill="#63b8ff" stroke="#63b8ff" points="280.21,-237.47 269.74,-239.08 278.93,-244.35 280.21,-237.47"/>
</a>
</g>
</g>
<!-- Node14 -->
<g id="Node000014" class="node">
<title>Node14</title>
<g id="a_Node000014"><a xlink:href="../../d0/d38/IPrimitive_8hpp.html" target="_top" xlink:title="Interface for geometric primitives in the raytracer.">
<polygon fill="white" stroke="#666666" points="629.09,-239 544.09,-239 544.09,-220 629.09,-220 629.09,-239"/>
<text text-anchor="middle" x="586.59" y="-227" font-family="Helvetica,sans-Serif" font-size="10.00">IPrimitive.hpp</text>
</a>
</g>
</g>
<!-- Node5&#45;&gt;Node14 -->
<g id="edge20_Node000005_Node000014" class="edge">
<title>Node5&#45;&gt;Node14</title>
<g id="a_edge20_Node000005_Node000014"><a xlink:title=" ">
<path fill="none" stroke="#63b8ff" d="M521.12,-274.98C532.99,-266.92 551.05,-254.65 565.2,-245.03"/>
<polygon fill="#63b8ff" stroke="#63b8ff" points="567.52,-247.69 573.83,-239.17 563.59,-241.9 567.52,-247.69"/>
</a>
</g>
</g>
<!-- Node6&#45;&gt;Node7 -->
<g id="edge6_Node000006_Node000007" class="edge">
<title>Node6&#45;&gt;Node7</title>
<g id="a_edge6_Node000006_Node000007"><a xlink:title=" ">
<path fill="none" stroke="#63b8ff" d="M600.57,-164.98C614.06,-156.77 634.72,-144.18 650.63,-134.49"/>
<polygon fill="#63b8ff" stroke="#63b8ff" points="652.64,-137.36 659.36,-129.17 649,-131.38 652.64,-137.36"/>
</a>
</g>
</g>
<!-- Node6&#45;&gt;Node8 -->
<g id="edge10_Node000006_Node000008" class="edge">
<title>Node6&#45;&gt;Node8</title>
<g id="a_edge10_Node000006_Node000008"><a xlink:title=" ">
<path fill="none" stroke="#63b8ff" d="M586.59,-164.66C586.59,-147.17 586.59,-107.8 586.59,-84.27"/>
<polygon fill="#63b8ff" stroke="#63b8ff" points="590.09,-84.16 586.59,-74.16 583.09,-84.16 590.09,-84.16"/>
</a>
</g>
</g>
<!-- Node7&#45;&gt;Node8 -->
<g id="edge7_Node000007_Node000008" class="edge">
<title>Node7&#45;&gt;Node8</title>
<g id="a_edge7_Node000007_Node000008"><a xlink:title=" ">
<path fill="none" stroke="#63b8ff" d="M659.61,-109.98C646.12,-101.77 625.46,-89.18 609.55,-79.49"/>
<polygon fill="#63b8ff" stroke="#63b8ff" points="611.18,-76.38 600.82,-74.17 607.54,-82.36 611.18,-76.38"/>
</a>
</g>
</g>
<!-- Node9 -->
<g id="Node000009" class="node">
<title>Node9</title>
<g id="a_Node000009"><a xlink:title=" ">
<polygon fill="#e0e0e0" stroke="#999999" points="697.09,-19 650.09,-19 650.09,0 697.09,0 697.09,-19"/>
<text text-anchor="middle" x="673.59" y="-7" font-family="Helvetica,sans-Serif" font-size="10.00">cmath</text>
</a>
</g>
</g>
<!-- Node7&#45;&gt;Node9 -->
<g id="edge9_Node000007_Node000009" class="edge">
<title>Node7&#45;&gt;Node9</title>
<g id="a_edge9_Node000007_Node000009"><a xlink:title=" ">
<path fill="none" stroke="#63b8ff" d="M673.59,-109.66C673.59,-92.17 673.59,-52.8 673.59,-29.27"/>
<polygon fill="#63b8ff" stroke="#63b8ff" points="677.09,-29.16 673.59,-19.16 670.09,-29.16 677.09,-29.16"/>
</a>
</g>
</g>
<!-- Node8&#45;&gt;Node9 -->
<g id="edge8_Node000008_Node000009" class="edge">
<title>Node8&#45;&gt;Node9</title>
<g id="a_edge8_Node000008_Node000009"><a xlink:title=" ">
<path fill="none" stroke="#63b8ff" d="M600.57,-54.98C614.06,-46.77 634.72,-34.18 650.63,-24.49"/>
<polygon fill="#63b8ff" stroke="#63b8ff" points="652.64,-27.36 659.36,-19.17 649,-21.38 652.64,-27.36"/>
</a>
</g>
</g>
<!-- Node11&#45;&gt;Node4 -->
<g id="edge16_Node000011_Node000004" class="edge">
<title>Node11&#45;&gt;Node4</title>
<g id="a_edge16_Node000011_Node000004"><a xlink:title=" ">
<path fill="none" stroke="#63b8ff" d="M211.86,-219.98C200.86,-212 184.17,-199.88 170.99,-190.31"/>
<polygon fill="#63b8ff" stroke="#63b8ff" points="172.68,-187.21 162.53,-184.17 168.57,-192.88 172.68,-187.21"/>
</a>
</g>
</g>
<!-- Node11&#45;&gt;Node8 -->
<g id="edge17_Node000011_Node000008" class="edge">
<title>Node11&#45;&gt;Node8</title>
<g id="a_edge17_Node000011_Node000008"><a xlink:title=" ">
<path fill="none" stroke="#63b8ff" d="M228.77,-219.88C243.04,-197.05 285.49,-134.99 339.59,-110 402.87,-80.76 483.52,-70.69 535.12,-67.25"/>
<polygon fill="#63b8ff" stroke="#63b8ff" points="535.58,-70.72 545.35,-66.62 535.16,-63.74 535.58,-70.72"/>
</a>
</g>
</g>
<!-- Node12 -->
<g id="Node000012" class="node">
<title>Node12</title>
<g id="a_Node000012"><a xlink:title=" ">
<polygon fill="#e0e0e0" stroke="#999999" points="325.59,-184 281.59,-184 281.59,-165 325.59,-165 325.59,-184"/>
<text text-anchor="middle" x="303.59" y="-172" font-family="Helvetica,sans-Serif" font-size="10.00">string</text>
</a>
</g>
</g>
<!-- Node11&#45;&gt;Node12 -->
<g id="edge15_Node000011_Node000012" class="edge">
<title>Node11&#45;&gt;Node12</title>
<g id="a_edge15_Node000011_Node000012"><a xlink:title=" ">
<path fill="none" stroke="#63b8ff" d="M236.44,-219.98C248.73,-211.84 267.5,-199.41 282.07,-189.76"/>
<polygon fill="#63b8ff" stroke="#63b8ff" points="284.1,-192.61 290.5,-184.17 280.23,-186.78 284.1,-192.61"/>
</a>
</g>
</g>
<!-- Node13 -->
<g id="Node000013" class="node">
<title>Node13</title>
<g id="a_Node000013"><a xlink:href="../../d0/ddc/Texture_8hpp.html" target="_top" xlink:title="Declares the abstract base class for all 2&#45;D textures. (Solid colour, checkerboard,...">
<polygon fill="white" stroke="#666666" points="245.09,-129 122.09,-129 122.09,-110 245.09,-110 245.09,-129"/>
<text text-anchor="middle" x="183.59" y="-117" font-family="Helvetica,sans-Serif" font-size="10.00">rendering/Texture.hpp</text>
</a>
</g>
</g>
<!-- Node11&#45;&gt;Node13 -->
<g id="edge18_Node000011_Node000013" class="edge">
<title>Node11&#45;&gt;Node13</title>
<g id="a_edge18_Node000011_Node000013"><a xlink:title=" ">
<path fill="none" stroke="#63b8ff" d="M220.32,-219.66C213.78,-202.01 198.99,-162.09 190.31,-138.64"/>
<polygon fill="#63b8ff" stroke="#63b8ff" points="193.55,-137.32 186.8,-129.16 186.99,-139.75 193.55,-137.32"/>
</a>
</g>
</g>
<!-- Node13&#45;&gt;Node8 -->
<g id="edge19_Node000013_Node000008" class="edge">
<title>Node13&#45;&gt;Node8</title>
<g id="a_edge19_Node000013_Node000008"><a xlink:title=" ">
<path fill="none" stroke="#63b8ff" d="M245.23,-110.39C324.73,-99.94 461.54,-81.95 535.52,-72.22"/>
<polygon fill="#63b8ff" stroke="#63b8ff" points="536.07,-75.67 545.53,-70.9 535.16,-68.73 536.07,-75.67"/>
</a>
</g>
</g>
<!-- Node14&#45;&gt;Node6 -->
<g id="edge21_Node000014_Node000006" class="edge">
<title>Node14&#45;&gt;Node6</title>
<g id="a_edge21_Node000014_Node000006"><a xlink:title=" ">
<path fill="none" stroke="#63b8ff" d="M586.59,-219.75C586.59,-212.8 586.59,-202.85 586.59,-194.13"/>
<polygon fill="#63b8ff" stroke="#63b8ff" points="590.09,-194.09 586.59,-184.09 583.09,-194.09 590.09,-194.09"/>
</a>
</g>
</g>
<!-- Node15&#45;&gt;Node6 -->
<g id="edge25_Node000015_Node000006" class="edge">
<title>Node15&#45;&gt;Node6</title>
<g id="a_edge25_Node000015_Node000006"><a xlink:title=" ">
<path fill="none" stroke="#63b8ff" d="M805.39,-220.62C760.39,-211.34 685.51,-195.9 636.1,-185.71"/>
<polygon fill="#63b8ff" stroke="#63b8ff" points="636.77,-182.27 626.27,-183.68 635.35,-189.13 636.77,-182.27"/>
</a>
</g>
</g>
<!-- Node15&#45;&gt;Node7 -->
<g id="edge23_Node000015_Node000007" class="edge">
<title>Node15&#45;&gt;Node7</title>
<g id="a_edge23_Node000015_Node000007"><a xlink:title=" ">
<path fill="none" stroke="#63b8ff" d="M822.39,-219.92C803.25,-211.8 774.64,-198.67 751.59,-184 728.97,-169.6 705.42,-149.63 690.2,-135.95"/>
<polygon fill="#63b8ff" stroke="#63b8ff" points="692.4,-133.22 682.65,-129.07 687.69,-138.4 692.4,-133.22"/>
</a>
</g>
</g>
<!-- Node15&#45;&gt;Node8 -->
<g id="edge24_Node000015_Node000008" class="edge">
<title>Node15&#45;&gt;Node8</title>
<g id="a_edge24_Node000015_Node000008"><a xlink:title=" ">
<path fill="none" stroke="#63b8ff" d="M844.54,-219.91C845.52,-206.92 845.64,-181.99 834.59,-165 791.77,-99.14 697.09,-76.87 637.89,-69.35"/>
<polygon fill="#63b8ff" stroke="#63b8ff" points="637.97,-65.83 627.63,-68.14 637.16,-72.78 637.97,-65.83"/>
</a>
</g>
</g>
<!-- Node15&#45;&gt;Node9 -->
<g id="edge26_Node000015_Node000009" class="edge">
<title>Node15&#45;&gt;Node9</title>
<g id="a_edge26_Node000015_Node000009"><a xlink:title=" ">
<path fill="none" stroke="#63b8ff" d="M881.91,-220.67C917.07,-211.52 961.34,-193.83 944.59,-165 892.64,-75.58 767.41,-33.6 707.12,-18.04"/>
<polygon fill="#63b8ff" stroke="#63b8ff" points="707.89,-14.62 697.34,-15.6 706.2,-21.41 707.89,-14.62"/>
</a>
</g>
</g>
<!-- Node16 -->
<g id="Node000016" class="node">
<title>Node16</title>
<g id="a_Node000016"><a xlink:title=" ">
<polygon fill="#e0e0e0" stroke="#999999" points="935.59,-184 881.59,-184 881.59,-165 935.59,-165 935.59,-184"/>
<text text-anchor="middle" x="908.59" y="-172" font-family="Helvetica,sans-Serif" font-size="10.00">random</text>
</a>
</g>
</g>
<!-- Node15&#45;&gt;Node16 -->
<g id="edge27_Node000015_Node000016" class="edge">
<title>Node15&#45;&gt;Node16</title>
<g id="a_edge27_Node000015_Node000016"><a xlink:title=" ">
<path fill="none" stroke="#63b8ff" d="M854.03,-219.98C863.74,-212.07 878.4,-200.11 890.09,-190.58"/>
<polygon fill="#63b8ff" stroke="#63b8ff" points="892.42,-193.2 897.96,-184.17 887.99,-187.78 892.42,-193.2"/>
</a>
</g>
</g>
<!-- Node17&#45;&gt;Node7 -->
<g id="edge29_Node000017_Node000007" class="edge">
<title>Node17&#45;&gt;Node7</title>
<g id="a_edge29_Node000017_Node000007"><a xlink:title=" ">
<path fill="none" stroke="#63b8ff" d="M773.47,-164.98C754.24,-156.42 724.36,-143.11 702.28,-133.28"/>
<polygon fill="#63b8ff" stroke="#63b8ff" points="703.62,-130.04 693.06,-129.17 700.77,-136.44 703.62,-130.04"/>
</a>
</g>
</g>
<!-- Node17&#45;&gt;Node8 -->
<g id="edge30_Node000017_Node000008" class="edge">
<title>Node17&#45;&gt;Node8</title>
<g id="a_edge30_Node000017_Node000008"><a xlink:title=" ">
<path fill="none" stroke="#63b8ff" d="M785.02,-164.88C772.74,-151.4 747.18,-125.28 720.59,-110 694.11,-94.78 661.67,-83.84 635.34,-76.61"/>
<polygon fill="#63b8ff" stroke="#63b8ff" points="636.13,-73.2 625.57,-74.02 634.34,-79.97 636.13,-73.2"/>
</a>
</g>
</g>
<!-- Node18&#45;&gt;Node3 -->
<g id="edge33_Node000018_Node000003" class="edge">
<title>Node18&#45;&gt;Node3</title>
<g id="a_edge33_Node000018_Node000003"><a xlink:title=" ">
<path fill="none" stroke="#63b8ff" d="M309.87,-333.91C261.47,-326.34 162.71,-310.4 79.59,-294 78.14,-293.71 76.66,-293.41 75.16,-293.11"/>
<polygon fill="#63b8ff" stroke="#63b8ff" points="75.78,-289.66 65.27,-290.99 74.31,-296.5 75.78,-289.66"/>
</a>
</g>
</g>
<!-- Node18&#45;&gt;Node4 -->
<g id="edge32_Node000018_Node000004" class="edge">
<title>Node18&#45;&gt;Node4</title>
<g id="a_edge32_Node000018_Node000004"><a xlink:title=" ">
<path fill="none" stroke="#63b8ff" d="M310.09,-332.85C266.28,-322.69 185.47,-296.78 150.59,-239 142.49,-225.58 143.39,-207.48 145.79,-194.04"/>
<polygon fill="#63b8ff" stroke="#63b8ff" points="149.25,-194.56 147.99,-184.04 142.42,-193.06 149.25,-194.56"/>
</a>
</g>
</g>
<!-- Node18&#45;&gt;Node5 -->
<g id="edge37_Node000018_Node000005" class="edge">
<title>Node18&#45;&gt;Node5</title>
<g id="a_edge37_Node000018_Node000005"><a xlink:title=" ">
<path fill="none" stroke="#63b8ff" d="M366.74,-329.98C395.12,-321.09 439.82,-307.07 471.45,-297.15"/>
<polygon fill="#63b8ff" stroke="#63b8ff" points="472.73,-300.41 481.22,-294.08 470.63,-293.73 472.73,-300.41"/>
</a>
</g>
</g>
<!-- Node18&#45;&gt;Node6 -->
<g id="edge36_Node000018_Node000006" class="edge">
<title>Node18&#45;&gt;Node6</title>
<g id="a_edge36_Node000018_Node000006"><a xlink:title=" ">
<path fill="none" stroke="#63b8ff" d="M327.16,-329.99C311.12,-317.92 286.62,-295.06 298.59,-275 347.01,-193.88 468.02,-177.52 536.79,-175.04"/>
<polygon fill="#63b8ff" stroke="#63b8ff" points="537.05,-178.53 546.95,-174.76 536.86,-171.54 537.05,-178.53"/>
</a>
</g>
</g>
<!-- Node18&#45;&gt;Node7 -->
<g id="edge38_Node000018_Node000007" class="edge">
<title>Node18&#45;&gt;Node7</title>
<g id="a_edge38_Node000018_Node000007"><a xlink:title=" ">
<path fill="none" stroke="#63b8ff" d="M369.2,-336.61C414.8,-332.89 504.31,-322.35 574.59,-294 615.97,-277.31 630.6,-273.76 658.59,-239 680.03,-212.37 681.88,-199.11 679.59,-165 679.02,-156.54 677.85,-147.24 676.7,-139.34"/>
<polygon fill="#63b8ff" stroke="#63b8ff" points="680.14,-138.67 675.14,-129.33 673.22,-139.75 680.14,-138.67"/>
</a>
</g>
</g>
<!-- Node18&#45;&gt;Node8 -->
<g id="edge39_Node000018_Node000008" class="edge">
<title>Node18&#45;&gt;Node8</title>
<g id="a_edge39_Node000018_Node000008"><a xlink:title=" ">
<path fill="none" stroke="#63b8ff" d="M309.91,-333.72C276.68,-327.61 221.82,-315.18 178.59,-294 136.24,-273.25 93.59,-277.66 93.59,-230.5 93.59,-230.5 93.59,-230.5 93.59,-173.5 93.59,-143.91 90.58,-128.6 113.59,-110 145.85,-83.92 419.52,-71.35 535.24,-67.16"/>
<polygon fill="#63b8ff" stroke="#63b8ff" points="535.41,-70.66 545.28,-66.8 535.16,-63.66 535.41,-70.66"/>
</a>
</g>
</g>
<!-- Node19 -->
<g id="Node000019" class="node">
<title>Node19</title>
<g id="a_Node000019"><a xlink:title=" ">
<polygon fill="#e0e0e0" stroke="#999999" points="371.59,-294 307.59,-294 307.59,-275 371.59,-275 371.59,-294"/>
<text text-anchor="middle" x="339.59" y="-282" font-family="Helvetica,sans-Serif" font-size="10.00">algorithm</text>
</a>
</g>
</g>
<!-- Node18&#45;&gt;Node19 -->
<g id="edge34_Node000018_Node000019" class="edge">
<title>Node18&#45;&gt;Node19</title>
<g id="a_edge34_Node000018_Node000019"><a xlink:title=" ">
<path fill="none" stroke="#63b8ff" d="M339.59,-329.75C339.59,-322.8 339.59,-312.85 339.59,-304.13"/>
<polygon fill="#63b8ff" stroke="#63b8ff" points="343.09,-304.09 339.59,-294.09 336.09,-304.09 343.09,-304.09"/>
</a>
</g>
</g>
<!-- Node20 -->
<g id="Node000020" class="node">
<title>Node20</title>
<g id="a_Node000020"><a xlink:title=" ">
<polygon fill="#e0e0e0" stroke="#999999" points="433.59,-294 389.59,-294 389.59,-275 433.59,-275 433.59,-294"/>
<text text-anchor="middle" x="411.59" y="-282" font-family="Helvetica,sans-Serif" font-size="10.00">limits</text>
</a>
</g>
</g>
<!-- Node18&#45;&gt;Node20 -->
<g id="edge35_Node000018_Node000020" class="edge">
<title>Node18&#45;&gt;Node20</title>
<g id="a_edge35_Node000018_Node000020"><a xlink:title=" ">
<path fill="none" stroke="#63b8ff" d="M351.16,-329.98C362.01,-322 378.47,-309.88 391.47,-300.31"/>
<polygon fill="#63b8ff" stroke="#63b8ff" points="393.83,-302.92 399.81,-294.17 389.68,-297.28 393.83,-302.92"/>
</a>
</g>
</g>
</g>
</svg>
