<?xml version="1.0" encoding="UTF-8" standalone="no"?>
<!DOCTYPE svg PUBLIC "-//W3C//DTD SVG 1.1//EN"
 "http://www.w3.org/Graphics/SVG/1.1/DTD/svg11.dtd">
<!-- Generated by graphviz version 2.43.0 (0)
 -->
<!-- Title: src/rendering/BVH.cpp Pages: 1 -->
<svg width="861pt" height="423pt"
 viewBox="0.00 0.00 861.00 423.00" xmlns="http://www.w3.org/2000/svg" xmlns:xlink="http://www.w3.org/1999/xlink">
<g id="graph0" class="graph" transform="scale(1 1) rotate(0) translate(4 419)">
<title>src/rendering/BVH.cpp</title>
<!-- Node1 -->
<g id="Node000001" class="node">
<title>Node1</title>
<g id="a_Node000001"><a xlink:title=" ">
<polygon fill="#999999" stroke="#666666" points="676.5,-415 551.5,-415 551.5,-396 676.5,-396 676.5,-415"/>
<text text-anchor="middle" x="614" y="-403" font-family="Helvetica,sans-Serif" font-size="10.00">src/rendering/BVH.cpp</text>
</a>
</g>
</g>
<!-- Node2 -->
<g id="Node000002" class="node">
<title>Node2</title>
<g id="a_Node000002"><a xlink:href="../../d9/dad/BVH_8hpp.html" target="_top" xlink:title="Declares the axis&#45;aligned bounding box (AABB) and the BVH node used for ray&#45;tracing acceleration.">
<polygon fill="white" stroke="#666666" points="673.5,-360 554.5,-360 554.5,-330 673.5,-330 673.5,-360"/>
<text text-anchor="start" x="562.5" y="-348" font-family="Helvetica,sans-Serif" font-size="10.00">../../include/rendering</text>
<text text-anchor="middle" x="614" y="-337" font-family="Helvetica,sans-Serif" font-size="10.00">/BVH.hpp</text>
</a>
</g>
</g>
<!-- Node1&#45;&gt;Node2 -->
<g id="edge1_Node000001_Node000002" class="edge">
<title>Node1&#45;&gt;Node2</title>
<g id="a_edge1_Node000001_Node000002"><a xlink:title=" ">
<path fill="none" stroke="#63b8ff" d="M614,-395.87C614,-389.11 614,-379.35 614,-370.26"/>
<polygon fill="#63b8ff" stroke="#63b8ff" points="617.5,-370.11 614,-360.11 610.5,-370.11 617.5,-370.11"/>
</a>
</g>
</g>
<!-- Node3 -->
<g id="Node000003" class="node">
<title>Node3</title>
<g id="a_Node000003"><a xlink:title=" ">
<polygon fill="#e0e0e0" stroke="#999999" points="58,-184 0,-184 0,-165 58,-165 58,-184"/>
<text text-anchor="middle" x="29" y="-172" font-family="Helvetica,sans-Serif" font-size="10.00">memory</text>
</a>
</g>
</g>
<!-- Node2&#45;&gt;Node3 -->
<g id="edge2_Node000002_Node000003" class="edge">
<title>Node2&#45;&gt;Node3</title>
<g id="a_edge2_Node000002_Node000003"><a xlink:title=" ">
<path fill="none" stroke="#63b8ff" d="M554.07,-340.53C424.54,-331.83 124.17,-304.91 50,-239 37.4,-227.8 32.34,-208.88 30.31,-194.6"/>
<polygon fill="#63b8ff" stroke="#63b8ff" points="33.77,-193.96 29.26,-184.38 26.8,-194.68 33.77,-193.96"/>
</a>
</g>
</g>
<!-- Node4 -->
<g id="Node000004" class="node">
<title>Node4</title>
<g id="a_Node000004"><a xlink:title=" ">
<polygon fill="#e0e0e0" stroke="#999999" points="708.5,-294 661.5,-294 661.5,-275 708.5,-275 708.5,-294"/>
<text text-anchor="middle" x="685" y="-282" font-family="Helvetica,sans-Serif" font-size="10.00">vector</text>
</a>
</g>
</g>
<!-- Node2&#45;&gt;Node4 -->
<g id="edge3_Node000002_Node000004" class="edge">
<title>Node2&#45;&gt;Node4</title>
<g id="a_edge3_Node000002_Node000004"><a xlink:title=" ">
<path fill="none" stroke="#63b8ff" d="M631.19,-329.84C641.81,-321.09 655.44,-309.85 666.33,-300.88"/>
<polygon fill="#63b8ff" stroke="#63b8ff" points="668.87,-303.33 674.36,-294.27 664.42,-297.92 668.87,-303.33"/>
</a>
</g>
</g>
<!-- Node5 -->
<g id="Node000005" class="node">
<title>Node5</title>
<g id="a_Node000005"><a xlink:title=" ">
<polygon fill="#e0e0e0" stroke="#999999" points="791,-294 727,-294 727,-275 791,-275 791,-294"/>
<text text-anchor="middle" x="759" y="-282" font-family="Helvetica,sans-Serif" font-size="10.00">algorithm</text>
</a>
</g>
</g>
<!-- Node2&#45;&gt;Node5 -->
<g id="edge4_Node000002_Node000005" class="edge">
<title>Node2&#45;&gt;Node5</title>
<g id="a_edge4_Node000002_Node000005"><a xlink:title=" ">
<path fill="none" stroke="#63b8ff" d="M648.73,-329.99C672.92,-320.23 704.9,-307.33 728.19,-297.93"/>
<polygon fill="#63b8ff" stroke="#63b8ff" points="729.62,-301.13 737.59,-294.14 727,-294.63 729.62,-301.13"/>
</a>
</g>
</g>
<!-- Node6 -->
<g id="Node000006" class="node">
<title>Node6</title>
<g id="a_Node000006"><a xlink:title=" ">
<polygon fill="#e0e0e0" stroke="#999999" points="853,-294 809,-294 809,-275 853,-275 853,-294"/>
<text text-anchor="middle" x="831" y="-282" font-family="Helvetica,sans-Serif" font-size="10.00">limits</text>
</a>
</g>
</g>
<!-- Node2&#45;&gt;Node6 -->
<g id="edge5_Node000002_Node000006" class="edge">
<title>Node2&#45;&gt;Node6</title>
<g id="a_edge5_Node000002_Node000006"><a xlink:title=" ">
<path fill="none" stroke="#63b8ff" d="M666.53,-329.95C701.54,-320.58 748.84,-307.87 799.21,-294.2"/>
<polygon fill="#63b8ff" stroke="#63b8ff" points="800.25,-297.55 808.99,-291.55 798.42,-290.79 800.25,-297.55"/>
</a>
</g>
</g>
<!-- Node7 -->
<g id="Node000007" class="node">
<title>Node7</title>
<g id="a_Node000007"><a xlink:href="../../d4/db2/Ray_8hpp.html" target="_top" xlink:title="Defines the Ray structure used for ray&#45;object intersection tests in the raytracer.">
<polygon fill="white" stroke="#666666" points="363.5,-184 284.5,-184 284.5,-165 363.5,-165 363.5,-184"/>
<text text-anchor="middle" x="324" y="-172" font-family="Helvetica,sans-Serif" font-size="10.00">core/Ray.hpp</text>
</a>
</g>
</g>
<!-- Node2&#45;&gt;Node7 -->
<g id="edge6_Node000002_Node000007" class="edge">
<title>Node2&#45;&gt;Node7</title>
<g id="a_edge6_Node000002_Node000007"><a xlink:title=" ">
<path fill="none" stroke="#63b8ff" d="M554.4,-335.28C464.59,-320.66 301.93,-287.92 273,-239 262.18,-220.7 281.67,-201.98 299.6,-189.66"/>
<polygon fill="#63b8ff" stroke="#63b8ff" points="301.63,-192.51 308.13,-184.15 297.83,-186.63 301.63,-192.51"/>
</a>
</g>
</g>
<!-- Node8 -->
<g id="Node000008" class="node">
<title>Node8</title>
<g id="a_Node000008"><a xlink:href="../../df/df2/Point3D_8hpp.html" target="_top" xlink:title="Defines a 3D point structure used in geometric computations.">
<polygon fill="white" stroke="#666666" points="418,-129 342,-129 342,-110 418,-110 418,-129"/>
<text text-anchor="middle" x="380" y="-117" font-family="Helvetica,sans-Serif" font-size="10.00">Point3D.hpp</text>
</a>
</g>
</g>
<!-- Node2&#45;&gt;Node8 -->
<g id="edge25_Node000002_Node000008" class="edge">
<title>Node2&#45;&gt;Node8</title>
<g id="a_edge25_Node000002_Node000008"><a xlink:title=" ">
<path fill="none" stroke="#63b8ff" d="M615.91,-329.74C617.2,-315.22 617.38,-292.42 609,-275 571.41,-196.89 472.74,-152.06 417.98,-132.45"/>
<polygon fill="#63b8ff" stroke="#63b8ff" points="418.89,-129.06 408.29,-129.08 416.59,-135.67 418.89,-129.06"/>
</a>
</g>
</g>
<!-- Node9 -->
<g id="Node000009" class="node">
<title>Node9</title>
<g id="a_Node000009"><a xlink:href="../../d3/dde/Vector3D_8hpp.html" target="_top" xlink:title="Defines a 3D vector structure with basic arithmetic and transformation operations.">
<polygon fill="white" stroke="#666666" points="352,-74 270,-74 270,-55 352,-55 352,-74"/>
<text text-anchor="middle" x="311" y="-62" font-family="Helvetica,sans-Serif" font-size="10.00">Vector3D.hpp</text>
</a>
</g>
</g>
<!-- Node2&#45;&gt;Node9 -->
<g id="edge26_Node000002_Node000009" class="edge">
<title>Node2&#45;&gt;Node9</title>
<g id="a_edge26_Node000002_Node000009"><a xlink:title=" ">
<path fill="none" stroke="#63b8ff" d="M610.06,-329.79C604.5,-308.43 595,-266.66 595,-230.5 595,-230.5 595,-230.5 595,-173.5 595,-124.25 443.93,-89.39 362.15,-74.13"/>
<polygon fill="#63b8ff" stroke="#63b8ff" points="362.76,-70.68 352.3,-72.32 361.5,-77.57 362.76,-70.68"/>
</a>
</g>
</g>
<!-- Node11 -->
<g id="Node000011" class="node">
<title>Node11</title>
<g id="a_Node000011"><a xlink:href="../../de/d81/APrimitive_8hpp.html" target="_top" xlink:title=" ">
<polygon fill="white" stroke="#666666" points="494.5,-294 381.5,-294 381.5,-275 494.5,-275 494.5,-294"/>
<text text-anchor="middle" x="438" y="-282" font-family="Helvetica,sans-Serif" font-size="10.00">core/APrimitive.hpp</text>
</a>
</g>
</g>
<!-- Node2&#45;&gt;Node11 -->
<g id="edge12_Node000002_Node000011" class="edge">
<title>Node2&#45;&gt;Node11</title>
<g id="a_edge12_Node000002_Node000011"><a xlink:title=" ">
<path fill="none" stroke="#63b8ff" d="M571.84,-329.99C541.73,-319.98 501.69,-306.67 473.27,-297.22"/>
<polygon fill="#63b8ff" stroke="#63b8ff" points="474.33,-293.89 463.73,-294.05 472.12,-300.53 474.33,-293.89"/>
</a>
</g>
</g>
<!-- Node7&#45;&gt;Node8 -->
<g id="edge7_Node000007_Node000008" class="edge">
<title>Node7&#45;&gt;Node8</title>
<g id="a_edge7_Node000007_Node000008"><a xlink:title=" ">
<path fill="none" stroke="#63b8ff" d="M333,-164.98C341.19,-157.23 353.51,-145.58 363.47,-136.14"/>
<polygon fill="#63b8ff" stroke="#63b8ff" points="365.98,-138.59 370.84,-129.17 361.17,-133.5 365.98,-138.59"/>
</a>
</g>
</g>
<!-- Node7&#45;&gt;Node9 -->
<g id="edge11_Node000007_Node000009" class="edge">
<title>Node7&#45;&gt;Node9</title>
<g id="a_edge11_Node000007_Node000009"><a xlink:title=" ">
<path fill="none" stroke="#63b8ff" d="M322.94,-164.66C320.83,-147.17 316.09,-107.8 313.26,-84.27"/>
<polygon fill="#63b8ff" stroke="#63b8ff" points="316.71,-83.67 312.04,-74.16 309.76,-84.51 316.71,-83.67"/>
</a>
</g>
</g>
<!-- Node8&#45;&gt;Node9 -->
<g id="edge8_Node000008_Node000009" class="edge">
<title>Node8&#45;&gt;Node9</title>
<g id="a_edge8_Node000008_Node000009"><a xlink:title=" ">
<path fill="none" stroke="#63b8ff" d="M368.91,-109.98C358.51,-102 342.74,-89.88 330.28,-80.31"/>
<polygon fill="#63b8ff" stroke="#63b8ff" points="332.35,-77.49 322.29,-74.17 328.09,-83.04 332.35,-77.49"/>
</a>
</g>
</g>
<!-- Node10 -->
<g id="Node000010" class="node">
<title>Node10</title>
<g id="a_Node000010"><a xlink:title=" ">
<polygon fill="#e0e0e0" stroke="#999999" points="368.5,-19 321.5,-19 321.5,0 368.5,0 368.5,-19"/>
<text text-anchor="middle" x="345" y="-7" font-family="Helvetica,sans-Serif" font-size="10.00">cmath</text>
</a>
</g>
</g>
<!-- Node8&#45;&gt;Node10 -->
<g id="edge10_Node000008_Node000010" class="edge">
<title>Node8&#45;&gt;Node10</title>
<g id="a_edge10_Node000008_Node000010"><a xlink:title=" ">
<path fill="none" stroke="#63b8ff" d="M377.57,-109.83C374.09,-97.56 367.4,-74.46 361,-55 358.14,-46.32 354.75,-36.79 351.82,-28.77"/>
<polygon fill="#63b8ff" stroke="#63b8ff" points="355.08,-27.48 348.33,-19.32 348.51,-29.91 355.08,-27.48"/>
</a>
</g>
</g>
<!-- Node9&#45;&gt;Node10 -->
<g id="edge9_Node000009_Node000010" class="edge">
<title>Node9&#45;&gt;Node10</title>
<g id="a_edge9_Node000009_Node000010"><a xlink:title=" ">
<path fill="none" stroke="#63b8ff" d="M316.61,-54.75C321.32,-47.42 328.17,-36.73 333.97,-27.7"/>
<polygon fill="#63b8ff" stroke="#63b8ff" points="337.04,-29.4 339.49,-19.09 331.14,-25.62 337.04,-29.4"/>
</a>
</g>
</g>
<!-- Node11&#45;&gt;Node7 -->
<g id="edge13_Node000011_Node000007" class="edge">
<title>Node11&#45;&gt;Node7</title>
<g id="a_edge13_Node000011_Node000007"><a xlink:title=" ">
<path fill="none" stroke="#63b8ff" d="M457.67,-274.84C481.51,-263.14 516.57,-241.27 500,-220 484.61,-200.23 420.46,-187.86 374.05,-181.31"/>
<polygon fill="#63b8ff" stroke="#63b8ff" points="374.23,-177.81 363.85,-179.93 373.29,-184.74 374.23,-177.81"/>
</a>
</g>
</g>
<!-- Node11&#45;&gt;Node8 -->
<g id="edge14_Node000011_Node000008" class="edge">
<title>Node11&#45;&gt;Node8</title>
<g id="a_edge14_Node000011_Node000008"><a xlink:title=" ">
<path fill="none" stroke="#63b8ff" d="M465.5,-274.87C492.87,-264.65 529.04,-245.69 516,-220 494.25,-177.14 444.41,-148.31 411.49,-133.16"/>
<polygon fill="#63b8ff" stroke="#63b8ff" points="412.83,-129.93 402.27,-129.07 410,-136.33 412.83,-129.93"/>
</a>
</g>
</g>
<!-- Node11&#45;&gt;Node9 -->
<g id="edge16_Node000011_Node000009" class="edge">
<title>Node11&#45;&gt;Node9</title>
<g id="a_edge16_Node000011_Node000009"><a xlink:title=" ">
<path fill="none" stroke="#63b8ff" d="M381.38,-275.66C339.05,-268.5 286.31,-256.37 273,-239 236.65,-191.54 277.14,-116.47 298.95,-82.82"/>
<polygon fill="#63b8ff" stroke="#63b8ff" points="302.11,-84.38 304.76,-74.13 296.29,-80.49 302.11,-84.38"/>
</a>
</g>
</g>
<!-- Node12 -->
<g id="Node000012" class="node">
<title>Node12</title>
<g id="a_Node000012"><a xlink:href="../../d8/d1e/Vector2D_8hpp.html" target="_top" xlink:title="Defines a 2D vector structure used for texture coordinates or screen&#45;space math operations.">
<polygon fill="white" stroke="#666666" points="491,-239 385,-239 385,-220 491,-220 491,-239"/>
<text text-anchor="middle" x="438" y="-227" font-family="Helvetica,sans-Serif" font-size="10.00">core/Vector2D.hpp</text>
</a>
</g>
</g>
<!-- Node11&#45;&gt;Node12 -->
<g id="edge15_Node000011_Node000012" class="edge">
<title>Node11&#45;&gt;Node12</title>
<g id="a_edge15_Node000011_Node000012"><a xlink:title=" ">
<path fill="none" stroke="#63b8ff" d="M438,-274.75C438,-267.8 438,-257.85 438,-249.13"/>
<polygon fill="#63b8ff" stroke="#63b8ff" points="441.5,-249.09 438,-239.09 434.5,-249.09 441.5,-249.09"/>
</a>
</g>
</g>
<!-- Node13 -->
<g id="Node000013" class="node">
<title>Node13</title>
<g id="a_Node000013"><a xlink:href="../../d0/d70/Material_8hpp.html" target="_top" xlink:title="Declares the physically&#45;based material descriptor used by the renderer.">
<polygon fill="white" stroke="#666666" points="187,-239 59,-239 59,-220 187,-220 187,-239"/>
<text text-anchor="middle" x="123" y="-227" font-family="Helvetica,sans-Serif" font-size="10.00">rendering/Material.hpp</text>
</a>
</g>
</g>
<!-- Node11&#45;&gt;Node13 -->
<g id="edge17_Node000011_Node000013" class="edge">
<title>Node11&#45;&gt;Node13</title>
<g id="a_edge17_Node000011_Node000013"><a xlink:title=" ">
<path fill="none" stroke="#63b8ff" d="M387.39,-274.98C331.9,-265.65 242.91,-250.67 183.71,-240.71"/>
<polygon fill="#63b8ff" stroke="#63b8ff" points="184.19,-237.25 173.75,-239.04 183.03,-244.15 184.19,-237.25"/>
</a>
</g>
</g>
<!-- Node16 -->
<g id="Node000016" class="node">
<title>Node16</title>
<g id="a_Node000016"><a xlink:href="../../d0/d38/IPrimitive_8hpp.html" target="_top" xlink:title="Interface for geometric primitives in the raytracer.">
<polygon fill="white" stroke="#666666" points="366.5,-239 281.5,-239 281.5,-220 366.5,-220 366.5,-239"/>
<text text-anchor="middle" x="324" y="-227" font-family="Helvetica,sans-Serif" font-size="10.00">IPrimitive.hpp</text>
</a>
</g>
</g>
<!-- Node11&#45;&gt;Node16 -->
<g id="edge23_Node000011_Node000016" class="edge">
<title>Node11&#45;&gt;Node16</title>
<g id="a_edge23_Node000011_Node000016"><a xlink:title=" ">
<path fill="none" stroke="#63b8ff" d="M419.68,-274.98C401.34,-266.46 372.89,-253.23 351.77,-243.41"/>
<polygon fill="#63b8ff" stroke="#63b8ff" points="353.19,-240.21 342.65,-239.17 350.24,-246.56 353.19,-240.21"/>
</a>
</g>
</g>
<!-- Node13&#45;&gt;Node3 -->
<g id="edge19_Node000013_Node000003" class="edge">
<title>Node13&#45;&gt;Node3</title>
<g id="a_edge19_Node000013_Node000003"><a xlink:title=" ">
<path fill="none" stroke="#63b8ff" d="M107.9,-219.98C93.18,-211.69 70.58,-198.94 53.33,-189.22"/>
<polygon fill="#63b8ff" stroke="#63b8ff" points="54.81,-186.03 44.38,-184.17 51.37,-192.13 54.81,-186.03"/>
</a>
</g>
</g>
<!-- Node13&#45;&gt;Node9 -->
<g id="edge20_Node000013_Node000009" class="edge">
<title>Node13&#45;&gt;Node9</title>
<g id="a_edge20_Node000013_Node000009"><a xlink:title=" ">
<path fill="none" stroke="#63b8ff" d="M117.89,-219.9C105.98,-198.66 79.39,-143.01 106,-110 124.95,-86.49 205.36,-74.77 259.66,-69.43"/>
<polygon fill="#63b8ff" stroke="#63b8ff" points="260.18,-72.89 269.81,-68.47 259.52,-65.92 260.18,-72.89"/>
</a>
</g>
</g>
<!-- Node14 -->
<g id="Node000014" class="node">
<title>Node14</title>
<g id="a_Node000014"><a xlink:title=" ">
<polygon fill="#e0e0e0" stroke="#999999" points="196,-184 152,-184 152,-165 196,-165 196,-184"/>
<text text-anchor="middle" x="174" y="-172" font-family="Helvetica,sans-Serif" font-size="10.00">string</text>
</a>
</g>
</g>
<!-- Node13&#45;&gt;Node14 -->
<g id="edge18_Node000013_Node000014" class="edge">
<title>Node13&#45;&gt;Node14</title>
<g id="a_edge18_Node000013_Node000014"><a xlink:title=" ">
<path fill="none" stroke="#63b8ff" d="M131.42,-219.75C138.77,-212.11 149.63,-200.82 158.54,-191.56"/>
<polygon fill="#63b8ff" stroke="#63b8ff" points="161.32,-193.72 165.74,-184.09 156.28,-188.87 161.32,-193.72"/>
</a>
</g>
</g>
<!-- Node15 -->
<g id="Node000015" class="node">
<title>Node15</title>
<g id="a_Node000015"><a xlink:href="../../d0/ddc/Texture_8hpp.html" target="_top" xlink:title="Declares the abstract base class for all 2&#45;D textures. (Solid colour, checkerboard,...">
<polygon fill="white" stroke="#666666" points="237.5,-129 114.5,-129 114.5,-110 237.5,-110 237.5,-129"/>
<text text-anchor="middle" x="176" y="-117" font-family="Helvetica,sans-Serif" font-size="10.00">rendering/Texture.hpp</text>
</a>
</g>
</g>
<!-- Node13&#45;&gt;Node15 -->
<g id="edge21_Node000013_Node000015" class="edge">
<title>Node13&#45;&gt;Node15</title>
<g id="a_edge21_Node000013_Node000015"><a xlink:title=" ">
<path fill="none" stroke="#63b8ff" d="M124.74,-219.93C127.5,-207.4 133.55,-183.53 143,-165 148.07,-155.06 155.32,-144.99 161.74,-136.95"/>
<polygon fill="#63b8ff" stroke="#63b8ff" points="164.54,-139.05 168.23,-129.12 159.15,-134.58 164.54,-139.05"/>
</a>
</g>
</g>
<!-- Node15&#45;&gt;Node9 -->
<g id="edge22_Node000015_Node000009" class="edge">
<title>Node15&#45;&gt;Node9</title>
<g id="a_edge22_Node000015_Node000009"><a xlink:title=" ">
<path fill="none" stroke="#63b8ff" d="M197.69,-109.98C219.8,-101.3 254.32,-87.75 279.45,-77.88"/>
<polygon fill="#63b8ff" stroke="#63b8ff" points="280.89,-81.08 288.92,-74.17 278.33,-74.57 280.89,-81.08"/>
</a>
</g>
</g>
<!-- Node16&#45;&gt;Node7 -->
<g id="edge24_Node000016_Node000007" class="edge">
<title>Node16&#45;&gt;Node7</title>
<g id="a_edge24_Node000016_Node000007"><a xlink:title=" ">
<path fill="none" stroke="#63b8ff" d="M324,-219.75C324,-212.8 324,-202.85 324,-194.13"/>
<polygon fill="#63b8ff" stroke="#63b8ff" points="327.5,-194.09 324,-184.09 320.5,-194.09 327.5,-194.09"/>
</a>
</g>
</g>
</g>
</svg>
