<?xml version="1.0" encoding="UTF-8" standalone="no"?>
<!DOCTYPE svg PUBLIC "-//W3C//DTD SVG 1.1//EN"
 "http://www.w3.org/Graphics/SVG/1.1/DTD/svg11.dtd">
<!-- Generated by graphviz version 2.43.0 (0)
 -->
<!-- Title: RayTracer::Sphere Pages: 1 -->
<svg width="256pt" height="247pt"
 viewBox="0.00 0.00 255.50 247.00" xmlns="http://www.w3.org/2000/svg" xmlns:xlink="http://www.w3.org/1999/xlink">
<g id="graph0" class="graph" transform="scale(1 1) rotate(0) translate(4 243)">
<title>RayTracer::Sphere</title>
<!-- Node1 -->
<g id="Node000001" class="node">
<title>Node1</title>
<g id="a_Node000001"><a xlink:title="Sphere primitive for ray tracing.">
<polygon fill="#999999" stroke="#666666" points="188,-19 84,-19 84,0 188,0 188,-19"/>
<text text-anchor="middle" x="136" y="-7" font-family="Helvetica,sans-Serif" font-size="10.00">RayTracer::Sphere</text>
</a>
</g>
</g>
<!-- Node2 -->
<g id="Node000002" class="node">
<title>Node2</title>
<g id="a_Node000002"><a xlink:href="../../d9/d3d/classRayTracer_1_1APrimitive.html" target="_top" xlink:title=" ">
<polygon fill="white" stroke="#666666" points="136,-85 14,-85 14,-66 136,-66 136,-85"/>
<text text-anchor="middle" x="75" y="-73" font-family="Helvetica,sans-Serif" font-size="10.00">RayTracer::APrimitive</text>
</a>
</g>
</g>
<!-- Node2&#45;&gt;Node1 -->
<g id="edge1_Node000001_Node000002" class="edge">
<title>Node2&#45;&gt;Node1</title>
<g id="a_edge1_Node000001_Node000002"><a xlink:title=" ">
<path fill="none" stroke="#63b8ff" d="M90.27,-58.48C102.05,-46.12 117.9,-29.49 127.51,-19.41"/>
<polygon fill="#63b8ff" stroke="#63b8ff" points="87.59,-56.22 83.23,-65.87 92.66,-61.04 87.59,-56.22"/>
</a>
</g>
</g>
<!-- Node3 -->
<g id="Node000003" class="node">
<title>Node3</title>
<g id="a_Node000003"><a xlink:href="../../da/d13/classRayTracer_1_1IPrimitive.html" target="_top" xlink:title="Pure interface that every geometric primitive must implement.">
<polygon fill="white" stroke="#666666" points="118,-151 0,-151 0,-132 118,-132 118,-151"/>
<text text-anchor="middle" x="59" y="-139" font-family="Helvetica,sans-Serif" font-size="10.00">RayTracer::IPrimitive</text>
</a>
</g>
</g>
<!-- Node3&#45;&gt;Node2 -->
<g id="edge2_Node000002_Node000003" class="edge">
<title>Node3&#45;&gt;Node2</title>
<g id="a_edge2_Node000002_Node000003"><a xlink:title=" ">
<path fill="none" stroke="#63b8ff" d="M63.64,-121.95C66.64,-109.93 70.42,-94.82 72.77,-85.41"/>
<polygon fill="#63b8ff" stroke="#63b8ff" points="60.19,-121.32 61.16,-131.87 66.98,-123.02 60.19,-121.32"/>
</a>
</g>
</g>
<!-- Node4 -->
<g id="Node000004" class="node">
<title>Node4</title>
<g id="a_Node000004"><a xlink:href="../../d1/d48/structRayTracer_1_1Material.html" target="_top" xlink:title="Physically&#45;based material parameters.">
<polygon fill="white" stroke="#666666" points="247.5,-151 136.5,-151 136.5,-132 247.5,-132 247.5,-151"/>
<text text-anchor="middle" x="192" y="-139" font-family="Helvetica,sans-Serif" font-size="10.00">RayTracer::Material</text>
</a>
</g>
</g>
<!-- Node4&#45;&gt;Node2 -->
<g id="edge3_Node000002_Node000004" class="edge">
<title>Node4&#45;&gt;Node2</title>
<g id="a_edge3_Node000002_Node000004"><a xlink:title=" ">
<path fill="none" stroke="#9a32cd" stroke-dasharray="5,2" d="M167.37,-127.03C144.33,-114.42 110.59,-95.97 90.9,-85.2"/>
<polygon fill="#9a32cd" stroke="#9a32cd" points="165.77,-130.14 176.22,-131.87 169.13,-124 165.77,-130.14"/>
</a>
</g>
<text text-anchor="middle" x="163.5" y="-106" font-family="Helvetica,sans-Serif" font-size="10.00" fill="grey"> material</text>
</g>
<!-- Node5 -->
<g id="Node000005" class="node">
<title>Node5</title>
<g id="a_Node000005"><a xlink:href="../../d6/d30/structMath_1_1Vector3D.html" target="_top" xlink:title="Represents a 3D vector with real coordinates.">
<polygon fill="white" stroke="#666666" points="238,-239 146,-239 146,-220 238,-220 238,-239"/>
<text text-anchor="middle" x="192" y="-227" font-family="Helvetica,sans-Serif" font-size="10.00">Math::Vector3D</text>
</a>
</g>
</g>
<!-- Node5&#45;&gt;Node4 -->
<g id="edge4_Node000004_Node000005" class="edge">
<title>Node5&#45;&gt;Node4</title>
<g id="a_edge4_Node000004_Node000005"><a xlink:title=" ">
<path fill="none" stroke="#9a32cd" stroke-dasharray="5,2" d="M192,-209.91C192,-191.67 192,-164.65 192,-151.03"/>
<polygon fill="#9a32cd" stroke="#9a32cd" points="188.5,-209.94 192,-219.94 195.5,-209.94 188.5,-209.94"/>
</a>
</g>
<text text-anchor="middle" x="214.5" y="-194" font-family="Helvetica,sans-Serif" font-size="10.00" fill="grey"> albedo</text>
<text text-anchor="middle" x="214.5" y="-183" font-family="Helvetica,sans-Serif" font-size="10.00" fill="grey">emission</text>
<text text-anchor="middle" x="214.5" y="-172" font-family="Helvetica,sans-Serif" font-size="10.00" fill="grey">specular</text>
</g>
<!-- Node6 -->
<g id="Node000006" class="node">
<title>Node6</title>
<g id="a_Node000006"><a xlink:href="../../db/daa/structMath_1_1Point3D.html" target="_top" xlink:title="Represents a 3D point in Cartesian coordinates.">
<polygon fill="white" stroke="#666666" points="240,-85 154,-85 154,-66 240,-66 240,-85"/>
<text text-anchor="middle" x="197" y="-73" font-family="Helvetica,sans-Serif" font-size="10.00">Math::Point3D</text>
</a>
</g>
</g>
<!-- Node6&#45;&gt;Node1 -->
<g id="edge5_Node000001_Node000006" class="edge">
<title>Node6&#45;&gt;Node1</title>
<g id="a_edge5_Node000001_Node000006"><a xlink:title=" ">
<path fill="none" stroke="#9a32cd" stroke-dasharray="5,2" d="M181.73,-58.48C169.95,-46.12 154.1,-29.49 144.49,-19.41"/>
<polygon fill="#9a32cd" stroke="#9a32cd" points="179.34,-61.04 188.77,-65.87 184.41,-56.22 179.34,-61.04"/>
</a>
</g>
<text text-anchor="middle" x="187" y="-40" font-family="Helvetica,sans-Serif" font-size="10.00" fill="grey"> center</text>
</g>
</g>
</svg>
