<?xml version="1.0" encoding="UTF-8" standalone="no"?>
<!DOCTYPE svg PUBLIC "-//W3C//DTD SVG 1.1//EN"
 "http://www.w3.org/Graphics/SVG/1.1/DTD/svg11.dtd">
<!-- Generated by graphviz version 2.43.0 (0)
 -->
<!-- Title: src/core/Vector3D.cpp Pages: 1 -->
<svg width="144pt" height="203pt"
 viewBox="0.00 0.00 144.00 203.00" xmlns="http://www.w3.org/2000/svg" xmlns:xlink="http://www.w3.org/1999/xlink">
<g id="graph0" class="graph" transform="scale(1 1) rotate(0) translate(4 199)">
<title>src/core/Vector3D.cpp</title>
<!-- Node1 -->
<g id="Node000001" class="node">
<title>Node1</title>
<g id="a_Node000001"><a xlink:title="Implements 3D vector operations for geometric calculations within the raytracer system.">
<polygon fill="#999999" stroke="#666666" points="136,-195 14,-195 14,-176 136,-176 136,-195"/>
<text text-anchor="middle" x="75" y="-183" font-family="Helvetica,sans-Serif" font-size="10.00">src/core/Vector3D.cpp</text>
</a>
</g>
</g>
<!-- Node2 -->
<g id="Node000002" class="node">
<title>Node2</title>
<g id="a_Node000002"><a xlink:href="../../df/df2/Point3D_8hpp.html" target="_top" xlink:title="Defines a 3D point structure used in geometric computations.">
<polygon fill="white" stroke="#666666" points="122,-140 28,-140 28,-110 122,-110 122,-140"/>
<text text-anchor="start" x="36" y="-128" font-family="Helvetica,sans-Serif" font-size="10.00">../../include/core</text>
<text text-anchor="middle" x="75" y="-117" font-family="Helvetica,sans-Serif" font-size="10.00">/Point3D.hpp</text>
</a>
</g>
</g>
<!-- Node1&#45;&gt;Node2 -->
<g id="edge1_Node000001_Node000002" class="edge">
<title>Node1&#45;&gt;Node2</title>
<g id="a_edge1_Node000001_Node000002"><a xlink:title=" ">
<path fill="none" stroke="#63b8ff" d="M75,-175.87C75,-169.11 75,-159.35 75,-150.26"/>
<polygon fill="#63b8ff" stroke="#63b8ff" points="78.5,-150.11 75,-140.11 71.5,-150.11 78.5,-150.11"/>
</a>
</g>
</g>
<!-- Node3 -->
<g id="Node000003" class="node">
<title>Node3</title>
<g id="a_Node000003"><a xlink:href="../../d3/dde/Vector3D_8hpp.html" target="_top" xlink:title="Defines a 3D vector structure with basic arithmetic and transformation operations.">
<polygon fill="white" stroke="#666666" points="82,-74 0,-74 0,-55 82,-55 82,-74"/>
<text text-anchor="middle" x="41" y="-62" font-family="Helvetica,sans-Serif" font-size="10.00">Vector3D.hpp</text>
</a>
</g>
</g>
<!-- Node2&#45;&gt;Node3 -->
<g id="edge2_Node000002_Node000003" class="edge">
<title>Node2&#45;&gt;Node3</title>
<g id="a_edge2_Node000002_Node000003"><a xlink:title=" ">
<path fill="none" stroke="#63b8ff" d="M66.77,-109.84C62.09,-101.78 56.18,-91.62 51.2,-83.06"/>
<polygon fill="#63b8ff" stroke="#63b8ff" points="54.15,-81.15 46.09,-74.27 48.09,-84.67 54.15,-81.15"/>
</a>
</g>
</g>
<!-- Node4 -->
<g id="Node000004" class="node">
<title>Node4</title>
<g id="a_Node000004"><a xlink:title=" ">
<polygon fill="#e0e0e0" stroke="#999999" points="98.5,-19 51.5,-19 51.5,0 98.5,0 98.5,-19"/>
<text text-anchor="middle" x="75" y="-7" font-family="Helvetica,sans-Serif" font-size="10.00">cmath</text>
</a>
</g>
</g>
<!-- Node2&#45;&gt;Node4 -->
<g id="edge4_Node000002_Node000004" class="edge">
<title>Node2&#45;&gt;Node4</title>
<g id="a_edge4_Node000002_Node000004"><a xlink:title=" ">
<path fill="none" stroke="#63b8ff" d="M81.71,-109.82C87.46,-95.94 94.34,-74.14 91,-55 89.43,-46 86.2,-36.42 83.06,-28.46"/>
<polygon fill="#63b8ff" stroke="#63b8ff" points="86.23,-26.97 79.11,-19.12 79.78,-29.69 86.23,-26.97"/>
</a>
</g>
</g>
<!-- Node3&#45;&gt;Node4 -->
<g id="edge3_Node000003_Node000004" class="edge">
<title>Node3&#45;&gt;Node4</title>
<g id="a_edge3_Node000003_Node000004"><a xlink:title=" ">
<path fill="none" stroke="#63b8ff" d="M46.61,-54.75C51.32,-47.42 58.17,-36.73 63.97,-27.7"/>
<polygon fill="#63b8ff" stroke="#63b8ff" points="67.04,-29.4 69.49,-19.09 61.14,-25.62 67.04,-29.4"/>
</a>
</g>
</g>
</g>
</svg>
