<?xml version="1.0" encoding="UTF-8" standalone="no"?>
<!DOCTYPE svg PUBLIC "-//W3C//DTD SVG 1.1//EN"
 "http://www.w3.org/Graphics/SVG/1.1/DTD/svg11.dtd">
<!-- Generated by graphviz version 2.43.0 (0)
 -->
<!-- Title: src/rendering/Mesh.cpp Pages: 1 -->
<svg width="789pt" height="533pt"
 viewBox="0.00 0.00 789.00 533.00" xmlns="http://www.w3.org/2000/svg" xmlns:xlink="http://www.w3.org/1999/xlink">
<g id="graph0" class="graph" transform="scale(1 1) rotate(0) translate(4 529)">
<title>src/rendering/Mesh.cpp</title>
<!-- Node1 -->
<g id="Node000001" class="node">
<title>Node1</title>
<g id="a_Node000001"><a xlink:title=" ">
<polygon fill="#999999" stroke="#666666" points="130,-525 0,-525 0,-506 130,-506 130,-525"/>
<text text-anchor="middle" x="65" y="-513" font-family="Helvetica,sans-Serif" font-size="10.00">src/rendering/Mesh.cpp</text>
</a>
</g>
</g>
<!-- Node2 -->
<g id="Node000002" class="node">
<title>Node2</title>
<g id="a_Node000002"><a xlink:href="../../d1/d62/Mesh_8hpp.html" target="_top" xlink:title="Declares a simple triangle mesh wrapper used by the ray tracer.">
<polygon fill="white" stroke="#666666" points="124.5,-470 5.5,-470 5.5,-440 124.5,-440 124.5,-470"/>
<text text-anchor="start" x="13.5" y="-458" font-family="Helvetica,sans-Serif" font-size="10.00">../../include/rendering</text>
<text text-anchor="middle" x="65" y="-447" font-family="Helvetica,sans-Serif" font-size="10.00">/Mesh.hpp</text>
</a>
</g>
</g>
<!-- Node1&#45;&gt;Node2 -->
<g id="edge1_Node000001_Node000002" class="edge">
<title>Node1&#45;&gt;Node2</title>
<g id="a_edge1_Node000001_Node000002"><a xlink:title=" ">
<path fill="none" stroke="#63b8ff" d="M65,-505.87C65,-499.11 65,-489.35 65,-480.26"/>
<polygon fill="#63b8ff" stroke="#63b8ff" points="68.5,-480.11 65,-470.11 61.5,-480.11 68.5,-480.11"/>
</a>
</g>
</g>
<!-- Node3 -->
<g id="Node000003" class="node">
<title>Node3</title>
<g id="a_Node000003"><a xlink:title=" ">
<polygon fill="#e0e0e0" stroke="#999999" points="107.5,-294 60.5,-294 60.5,-275 107.5,-275 107.5,-294"/>
<text text-anchor="middle" x="84" y="-282" font-family="Helvetica,sans-Serif" font-size="10.00">vector</text>
</a>
</g>
</g>
<!-- Node2&#45;&gt;Node3 -->
<g id="edge2_Node000002_Node000003" class="edge">
<title>Node2&#45;&gt;Node3</title>
<g id="a_edge2_Node000002_Node000003"><a xlink:title=" ">
<path fill="none" stroke="#63b8ff" d="M66.59,-439.92C70,-409.65 78.04,-338.35 81.88,-304.27"/>
<polygon fill="#63b8ff" stroke="#63b8ff" points="85.37,-304.58 83.01,-294.25 78.41,-303.8 85.37,-304.58"/>
</a>
</g>
</g>
<!-- Node4 -->
<g id="Node000004" class="node">
<title>Node4</title>
<g id="a_Node000004"><a xlink:href="../../d9/db8/Triangle_8hpp.html" target="_top" xlink:title="Declares the Triangle primitive and its ray–triangle intersection logic.">
<polygon fill="white" stroke="#666666" points="522,-404 394,-404 394,-385 522,-385 522,-404"/>
<text text-anchor="middle" x="458" y="-392" font-family="Helvetica,sans-Serif" font-size="10.00">primitives/Triangle.hpp</text>
</a>
</g>
</g>
<!-- Node2&#45;&gt;Node4 -->
<g id="edge3_Node000002_Node000004" class="edge">
<title>Node2&#45;&gt;Node4</title>
<g id="a_edge3_Node000002_Node000004"><a xlink:title=" ">
<path fill="none" stroke="#63b8ff" d="M124.69,-445.12C196.16,-434.48 315.57,-416.7 390.38,-405.57"/>
<polygon fill="#63b8ff" stroke="#63b8ff" points="391.26,-408.97 400.63,-404.04 390.23,-402.05 391.26,-408.97"/>
</a>
</g>
</g>
<!-- Node8 -->
<g id="Node000008" class="node">
<title>Node8</title>
<g id="a_Node000008"><a xlink:href="../../d4/db2/Ray_8hpp.html" target="_top" xlink:title="Defines the Ray structure used for ray&#45;object intersection tests in the raytracer.">
<polygon fill="white" stroke="#666666" points="218.5,-184 139.5,-184 139.5,-165 218.5,-165 218.5,-184"/>
<text text-anchor="middle" x="179" y="-172" font-family="Helvetica,sans-Serif" font-size="10.00">core/Ray.hpp</text>
</a>
</g>
</g>
<!-- Node2&#45;&gt;Node8 -->
<g id="edge37_Node000002_Node000008" class="edge">
<title>Node2&#45;&gt;Node8</title>
<g id="a_edge37_Node000002_Node000008"><a xlink:title=" ">
<path fill="none" stroke="#63b8ff" d="M56.94,-439.82C45.79,-418.82 27,-377.9 27,-340.5 27,-340.5 27,-340.5 27,-283.5 27,-230.83 88.39,-201.49 133.14,-187.09"/>
<polygon fill="#63b8ff" stroke="#63b8ff" points="134.44,-190.36 142.98,-184.08 132.39,-183.66 134.44,-190.36"/>
</a>
</g>
</g>
<!-- Node5 -->
<g id="Node000005" class="node">
<title>Node5</title>
<g id="a_Node000005"><a xlink:title=" ">
<polygon fill="#e0e0e0" stroke="#999999" points="677,-294 613,-294 613,-275 677,-275 677,-294"/>
<text text-anchor="middle" x="645" y="-282" font-family="Helvetica,sans-Serif" font-size="10.00">algorithm</text>
</a>
</g>
</g>
<!-- Node4&#45;&gt;Node5 -->
<g id="edge4_Node000004_Node000005" class="edge">
<title>Node4&#45;&gt;Node5</title>
<g id="a_edge4_Node000004_Node000005"><a xlink:title=" ">
<path fill="none" stroke="#63b8ff" d="M472.99,-384.84C505.35,-366.16 581.98,-321.9 621.11,-299.3"/>
<polygon fill="#63b8ff" stroke="#63b8ff" points="623.29,-302.08 630.2,-294.05 619.79,-296.02 623.29,-302.08"/>
</a>
</g>
</g>
<!-- Node6 -->
<g id="Node000006" class="node">
<title>Node6</title>
<g id="a_Node000006"><a xlink:title=" ">
<polygon fill="#e0e0e0" stroke="#999999" points="514.5,-19 467.5,-19 467.5,0 514.5,0 514.5,-19"/>
<text text-anchor="middle" x="491" y="-7" font-family="Helvetica,sans-Serif" font-size="10.00">cmath</text>
</a>
</g>
</g>
<!-- Node4&#45;&gt;Node6 -->
<g id="edge5_Node000004_Node000006" class="edge">
<title>Node4&#45;&gt;Node6</title>
<g id="a_edge5_Node000004_Node000006"><a xlink:title=" ">
<path fill="none" stroke="#63b8ff" d="M522.2,-385.3C616.4,-371.46 781,-339.53 781,-285.5 781,-285.5 781,-285.5 781,-118.5 781,-64.37 601.29,-28.54 524.81,-15.74"/>
<polygon fill="#63b8ff" stroke="#63b8ff" points="525.17,-12.25 514.73,-14.08 524.03,-19.16 525.17,-12.25"/>
</a>
</g>
</g>
<!-- Node7 -->
<g id="Node000007" class="node">
<title>Node7</title>
<g id="a_Node000007"><a xlink:href="../../de/d81/APrimitive_8hpp.html" target="_top" xlink:title=" ">
<polygon fill="white" stroke="#666666" points="392.5,-294 279.5,-294 279.5,-275 392.5,-275 392.5,-294"/>
<text text-anchor="middle" x="336" y="-282" font-family="Helvetica,sans-Serif" font-size="10.00">core/APrimitive.hpp</text>
</a>
</g>
</g>
<!-- Node4&#45;&gt;Node7 -->
<g id="edge6_Node000004_Node000007" class="edge">
<title>Node4&#45;&gt;Node7</title>
<g id="a_edge6_Node000004_Node000007"><a xlink:title=" ">
<path fill="none" stroke="#63b8ff" d="M444.12,-384.89C430.94,-376.44 410.83,-362.84 395,-349 378.27,-334.37 361.21,-315.49 349.77,-302.13"/>
<polygon fill="#63b8ff" stroke="#63b8ff" points="352.24,-299.64 343.12,-294.25 346.89,-304.15 352.24,-299.64"/>
</a>
</g>
</g>
<!-- Node4&#45;&gt;Node8 -->
<g id="edge26_Node000004_Node000008" class="edge">
<title>Node4&#45;&gt;Node8</title>
<g id="a_edge26_Node000004_Node000008"><a xlink:title=" ">
<path fill="none" stroke="#63b8ff" d="M419.26,-384.97C356.37,-368.8 233.9,-327.13 182,-239 174.04,-225.48 173.99,-207.39 175.53,-193.97"/>
<polygon fill="#63b8ff" stroke="#63b8ff" points="179,-194.43 177.05,-184.01 172.08,-193.37 179,-194.43"/>
</a>
</g>
</g>
<!-- Node9 -->
<g id="Node000009" class="node">
<title>Node9</title>
<g id="a_Node000009"><a xlink:href="../../df/df2/Point3D_8hpp.html" target="_top" xlink:title="Defines a 3D point structure used in geometric computations.">
<polygon fill="white" stroke="#666666" points="179,-129 103,-129 103,-110 179,-110 179,-129"/>
<text text-anchor="middle" x="141" y="-117" font-family="Helvetica,sans-Serif" font-size="10.00">Point3D.hpp</text>
</a>
</g>
</g>
<!-- Node4&#45;&gt;Node9 -->
<g id="edge24_Node000004_Node000009" class="edge">
<title>Node4&#45;&gt;Node9</title>
<g id="a_edge24_Node000004_Node000009"><a xlink:title=" ">
<path fill="none" stroke="#63b8ff" d="M393.71,-387.25C290.16,-375.72 93.77,-347.24 52,-294 10.99,-241.72 85.17,-167.63 122.03,-135.89"/>
<polygon fill="#63b8ff" stroke="#63b8ff" points="124.69,-138.23 130.09,-129.11 120.18,-132.87 124.69,-138.23"/>
</a>
</g>
</g>
<!-- Node10 -->
<g id="Node000010" class="node">
<title>Node10</title>
<g id="a_Node000010"><a xlink:href="../../d3/dde/Vector3D_8hpp.html" target="_top" xlink:title="Defines a 3D vector structure with basic arithmetic and transformation operations.">
<polygon fill="white" stroke="#666666" points="532,-74 450,-74 450,-55 532,-55 532,-74"/>
<text text-anchor="middle" x="491" y="-62" font-family="Helvetica,sans-Serif" font-size="10.00">Vector3D.hpp</text>
</a>
</g>
</g>
<!-- Node4&#45;&gt;Node10 -->
<g id="edge25_Node000004_Node000010" class="edge">
<title>Node4&#45;&gt;Node10</title>
<g id="a_edge25_Node000004_Node000010"><a xlink:title=" ">
<path fill="none" stroke="#63b8ff" d="M508.95,-384.97C590.93,-369.8 743,-334.97 743,-285.5 743,-285.5 743,-285.5 743,-173.5 743,-86.9 615.71,-68.84 542.07,-65.64"/>
<polygon fill="#63b8ff" stroke="#63b8ff" points="542.17,-62.14 532.05,-65.28 541.92,-69.14 542.17,-62.14"/>
</a>
</g>
</g>
<!-- Node12 -->
<g id="Node000012" class="node">
<title>Node12</title>
<g id="a_Node000012"><a xlink:href="../../d0/d70/Material_8hpp.html" target="_top" xlink:title="Declares the physically&#45;based material descriptor used by the renderer.">
<polygon fill="white" stroke="#666666" points="639,-239 511,-239 511,-220 639,-220 639,-239"/>
<text text-anchor="middle" x="575" y="-227" font-family="Helvetica,sans-Serif" font-size="10.00">rendering/Material.hpp</text>
</a>
</g>
</g>
<!-- Node4&#45;&gt;Node12 -->
<g id="edge27_Node000004_Node000012" class="edge">
<title>Node4&#45;&gt;Node12</title>
<g id="a_edge27_Node000004_Node000012"><a xlink:title=" ">
<path fill="none" stroke="#63b8ff" d="M522.18,-385.01C576.26,-374.08 650.34,-349.38 686,-294 702.92,-267.72 667.67,-251.15 632.51,-241.54"/>
<polygon fill="#63b8ff" stroke="#63b8ff" points="633.19,-238.11 622.64,-239.02 631.46,-244.89 633.19,-238.11"/>
</a>
</g>
</g>
<!-- Node17 -->
<g id="Node000017" class="node">
<title>Node17</title>
<g id="a_Node000017"><a xlink:href="../../d9/dad/BVH_8hpp.html" target="_top" xlink:title="Declares the axis&#45;aligned bounding box (AABB) and the BVH node used for ray&#45;tracing acceleration.">
<polygon fill="white" stroke="#666666" points="512,-349 404,-349 404,-330 512,-330 512,-349"/>
<text text-anchor="middle" x="458" y="-337" font-family="Helvetica,sans-Serif" font-size="10.00">rendering/BVH.hpp</text>
</a>
</g>
</g>
<!-- Node4&#45;&gt;Node17 -->
<g id="edge28_Node000004_Node000017" class="edge">
<title>Node4&#45;&gt;Node17</title>
<g id="a_edge28_Node000004_Node000017"><a xlink:title=" ">
<path fill="none" stroke="#63b8ff" d="M458,-384.75C458,-377.8 458,-367.85 458,-359.13"/>
<polygon fill="#63b8ff" stroke="#63b8ff" points="461.5,-359.09 458,-349.09 454.5,-359.09 461.5,-359.09"/>
</a>
</g>
</g>
<!-- Node7&#45;&gt;Node8 -->
<g id="edge7_Node000007_Node000008" class="edge">
<title>Node7&#45;&gt;Node8</title>
<g id="a_edge7_Node000007_Node000008"><a xlink:title=" ">
<path fill="none" stroke="#63b8ff" d="M279.47,-277.66C251.57,-271.99 219.4,-260.86 198,-239 186.31,-227.06 181.77,-208.24 180.03,-194.18"/>
<polygon fill="#63b8ff" stroke="#63b8ff" points="183.51,-193.81 179.15,-184.15 176.54,-194.42 183.51,-193.81"/>
</a>
</g>
</g>
<!-- Node7&#45;&gt;Node9 -->
<g id="edge13_Node000007_Node000009" class="edge">
<title>Node7&#45;&gt;Node9</title>
<g id="a_edge13_Node000007_Node000009"><a xlink:title=" ">
<path fill="none" stroke="#63b8ff" d="M280.29,-274.96C249.63,-268.46 211.85,-257.39 182,-239 153.62,-221.51 143.17,-215.03 131,-184 125.27,-169.39 128.85,-151.67 133.24,-138.67"/>
<polygon fill="#63b8ff" stroke="#63b8ff" points="136.63,-139.61 136.94,-129.02 130.09,-137.11 136.63,-139.61"/>
</a>
</g>
</g>
<!-- Node7&#45;&gt;Node10 -->
<g id="edge15_Node000007_Node000010" class="edge">
<title>Node7&#45;&gt;Node10</title>
<g id="a_edge15_Node000007_Node000010"><a xlink:title=" ">
<path fill="none" stroke="#63b8ff" d="M374.01,-274.85C393.12,-268.37 414.6,-257.36 426,-239 456.27,-190.26 393.38,-160.29 421,-110 428.77,-95.85 443.17,-85.56 456.89,-78.46"/>
<polygon fill="#63b8ff" stroke="#63b8ff" points="458.66,-81.49 466.19,-74.05 455.66,-75.17 458.66,-81.49"/>
</a>
</g>
</g>
<!-- Node11 -->
<g id="Node000011" class="node">
<title>Node11</title>
<g id="a_Node000011"><a xlink:href="../../d8/d1e/Vector2D_8hpp.html" target="_top" xlink:title="Defines a 2D vector structure used for texture coordinates or screen&#45;space math operations.">
<polygon fill="white" stroke="#666666" points="313,-239 207,-239 207,-220 313,-220 313,-239"/>
<text text-anchor="middle" x="260" y="-227" font-family="Helvetica,sans-Serif" font-size="10.00">core/Vector2D.hpp</text>
</a>
</g>
</g>
<!-- Node7&#45;&gt;Node11 -->
<g id="edge14_Node000007_Node000011" class="edge">
<title>Node7&#45;&gt;Node11</title>
<g id="a_edge14_Node000007_Node000011"><a xlink:title=" ">
<path fill="none" stroke="#63b8ff" d="M323.79,-274.98C312.22,-266.92 294.62,-254.65 280.84,-245.03"/>
<polygon fill="#63b8ff" stroke="#63b8ff" points="282.64,-242.02 272.43,-239.17 278.63,-247.76 282.64,-242.02"/>
</a>
</g>
</g>
<!-- Node7&#45;&gt;Node12 -->
<g id="edge16_Node000007_Node000012" class="edge">
<title>Node7&#45;&gt;Node12</title>
<g id="a_edge16_Node000007_Node000012"><a xlink:title=" ">
<path fill="none" stroke="#63b8ff" d="M374.4,-274.98C415.74,-265.82 481.6,-251.21 526.49,-241.26"/>
<polygon fill="#63b8ff" stroke="#63b8ff" points="527.29,-244.66 536.3,-239.08 525.78,-237.83 527.29,-244.66"/>
</a>
</g>
</g>
<!-- Node16 -->
<g id="Node000016" class="node">
<title>Node16</title>
<g id="a_Node000016"><a xlink:href="../../d0/d38/IPrimitive_8hpp.html" target="_top" xlink:title="Interface for geometric primitives in the raytracer.">
<polygon fill="white" stroke="#666666" points="416.5,-239 331.5,-239 331.5,-220 416.5,-220 416.5,-239"/>
<text text-anchor="middle" x="374" y="-227" font-family="Helvetica,sans-Serif" font-size="10.00">IPrimitive.hpp</text>
</a>
</g>
</g>
<!-- Node7&#45;&gt;Node16 -->
<g id="edge22_Node000007_Node000016" class="edge">
<title>Node7&#45;&gt;Node16</title>
<g id="a_edge22_Node000007_Node000016"><a xlink:title=" ">
<path fill="none" stroke="#63b8ff" d="M342.27,-274.75C347.59,-267.34 355.36,-256.5 361.88,-247.41"/>
<polygon fill="#63b8ff" stroke="#63b8ff" points="364.86,-249.26 367.84,-239.09 359.17,-245.18 364.86,-249.26"/>
</a>
</g>
</g>
<!-- Node8&#45;&gt;Node9 -->
<g id="edge8_Node000008_Node000009" class="edge">
<title>Node8&#45;&gt;Node9</title>
<g id="a_edge8_Node000008_Node000009"><a xlink:title=" ">
<path fill="none" stroke="#63b8ff" d="M172.73,-164.75C167.41,-157.34 159.64,-146.5 153.12,-137.41"/>
<polygon fill="#63b8ff" stroke="#63b8ff" points="155.83,-135.18 147.16,-129.09 150.14,-139.26 155.83,-135.18"/>
</a>
</g>
</g>
<!-- Node8&#45;&gt;Node10 -->
<g id="edge12_Node000008_Node000010" class="edge">
<title>Node8&#45;&gt;Node10</title>
<g id="a_edge12_Node000008_Node000010"><a xlink:title=" ">
<path fill="none" stroke="#63b8ff" d="M203.74,-164.94C259.15,-145.76 393.3,-99.32 456.71,-77.37"/>
<polygon fill="#63b8ff" stroke="#63b8ff" points="457.95,-80.64 466.25,-74.07 455.66,-74.03 457.95,-80.64"/>
</a>
</g>
</g>
<!-- Node9&#45;&gt;Node6 -->
<g id="edge11_Node000009_Node000006" class="edge">
<title>Node9&#45;&gt;Node6</title>
<g id="a_edge11_Node000009_Node000006"><a xlink:title=" ">
<path fill="none" stroke="#63b8ff" d="M168.76,-109.94C232.43,-90.29 388.77,-42.04 457.58,-20.81"/>
<polygon fill="#63b8ff" stroke="#63b8ff" points="458.94,-24.06 467.46,-17.76 456.87,-17.37 458.94,-24.06"/>
</a>
</g>
</g>
<!-- Node9&#45;&gt;Node10 -->
<g id="edge9_Node000009_Node000010" class="edge">
<title>Node9&#45;&gt;Node10</title>
<g id="a_edge9_Node000009_Node000010"><a xlink:title=" ">
<path fill="none" stroke="#63b8ff" d="M179.12,-112.73C242.36,-103.15 369.01,-83.97 439.91,-73.24"/>
<polygon fill="#63b8ff" stroke="#63b8ff" points="440.59,-76.67 449.96,-71.71 439.55,-69.75 440.59,-76.67"/>
</a>
</g>
</g>
<!-- Node10&#45;&gt;Node6 -->
<g id="edge10_Node000010_Node000006" class="edge">
<title>Node10&#45;&gt;Node6</title>
<g id="a_edge10_Node000010_Node000006"><a xlink:title=" ">
<path fill="none" stroke="#63b8ff" d="M491,-54.75C491,-47.8 491,-37.85 491,-29.13"/>
<polygon fill="#63b8ff" stroke="#63b8ff" points="494.5,-29.09 491,-19.09 487.5,-29.09 494.5,-29.09"/>
</a>
</g>
</g>
<!-- Node12&#45;&gt;Node10 -->
<g id="edge19_Node000012_Node000010" class="edge">
<title>Node12&#45;&gt;Node10</title>
<g id="a_edge19_Node000012_Node000010"><a xlink:title=" ">
<path fill="none" stroke="#63b8ff" d="M567.85,-219.97C561.23,-211.48 551.85,-197.75 548,-184 538.99,-151.76 578.21,-139.29 562,-110 554.16,-95.83 539.71,-85.57 525.89,-78.5"/>
<polygon fill="#63b8ff" stroke="#63b8ff" points="527.05,-75.18 516.51,-74.1 524.08,-81.52 527.05,-75.18"/>
</a>
</g>
</g>
<!-- Node13 -->
<g id="Node000013" class="node">
<title>Node13</title>
<g id="a_Node000013"><a xlink:title=" ">
<polygon fill="#e0e0e0" stroke="#999999" points="601,-184 557,-184 557,-165 601,-165 601,-184"/>
<text text-anchor="middle" x="579" y="-172" font-family="Helvetica,sans-Serif" font-size="10.00">string</text>
</a>
</g>
</g>
<!-- Node12&#45;&gt;Node13 -->
<g id="edge17_Node000012_Node000013" class="edge">
<title>Node12&#45;&gt;Node13</title>
<g id="a_edge17_Node000012_Node000013"><a xlink:title=" ">
<path fill="none" stroke="#63b8ff" d="M575.66,-219.75C576.18,-212.8 576.94,-202.85 577.59,-194.13"/>
<polygon fill="#63b8ff" stroke="#63b8ff" points="581.09,-194.32 578.35,-184.09 574.11,-193.8 581.09,-194.32"/>
</a>
</g>
</g>
<!-- Node14 -->
<g id="Node000014" class="node">
<title>Node14</title>
<g id="a_Node000014"><a xlink:title=" ">
<polygon fill="#e0e0e0" stroke="#999999" points="677,-184 619,-184 619,-165 677,-165 677,-184"/>
<text text-anchor="middle" x="648" y="-172" font-family="Helvetica,sans-Serif" font-size="10.00">memory</text>
</a>
</g>
</g>
<!-- Node12&#45;&gt;Node14 -->
<g id="edge18_Node000012_Node000014" class="edge">
<title>Node12&#45;&gt;Node14</title>
<g id="a_edge18_Node000012_Node000014"><a xlink:title=" ">
<path fill="none" stroke="#63b8ff" d="M586.73,-219.98C597.73,-212 614.42,-199.88 627.6,-190.31"/>
<polygon fill="#63b8ff" stroke="#63b8ff" points="630.02,-192.88 636.06,-184.17 625.91,-187.21 630.02,-192.88"/>
</a>
</g>
</g>
<!-- Node15 -->
<g id="Node000015" class="node">
<title>Node15</title>
<g id="a_Node000015"><a xlink:href="../../d0/ddc/Texture_8hpp.html" target="_top" xlink:title="Declares the abstract base class for all 2&#45;D textures. (Solid colour, checkerboard,...">
<polygon fill="white" stroke="#666666" points="552.5,-129 429.5,-129 429.5,-110 552.5,-110 552.5,-129"/>
<text text-anchor="middle" x="491" y="-117" font-family="Helvetica,sans-Serif" font-size="10.00">rendering/Texture.hpp</text>
</a>
</g>
</g>
<!-- Node12&#45;&gt;Node15 -->
<g id="edge20_Node000012_Node000015" class="edge">
<title>Node12&#45;&gt;Node15</title>
<g id="a_edge20_Node000012_Node000015"><a xlink:title=" ">
<path fill="none" stroke="#63b8ff" d="M558.69,-219.91C545.31,-212.13 526.73,-199.52 515,-184 504.9,-170.63 498.61,-152.52 495.02,-139.06"/>
<polygon fill="#63b8ff" stroke="#63b8ff" points="498.36,-137.96 492.62,-129.06 491.55,-139.6 498.36,-137.96"/>
</a>
</g>
</g>
<!-- Node15&#45;&gt;Node10 -->
<g id="edge21_Node000015_Node000010" class="edge">
<title>Node15&#45;&gt;Node10</title>
<g id="a_edge21_Node000015_Node000010"><a xlink:title=" ">
<path fill="none" stroke="#63b8ff" d="M491,-109.75C491,-102.8 491,-92.85 491,-84.13"/>
<polygon fill="#63b8ff" stroke="#63b8ff" points="494.5,-84.09 491,-74.09 487.5,-84.09 494.5,-84.09"/>
</a>
</g>
</g>
<!-- Node16&#45;&gt;Node8 -->
<g id="edge23_Node000016_Node000008" class="edge">
<title>Node16&#45;&gt;Node8</title>
<g id="a_edge23_Node000016_Node000008"><a xlink:title=" ">
<path fill="none" stroke="#63b8ff" d="M342.67,-219.98C309.51,-210.97 257,-196.7 220.44,-186.76"/>
<polygon fill="#63b8ff" stroke="#63b8ff" points="221.14,-183.33 210.58,-184.08 219.31,-190.08 221.14,-183.33"/>
</a>
</g>
</g>
<!-- Node17&#45;&gt;Node3 -->
<g id="edge30_Node000017_Node000003" class="edge">
<title>Node17&#45;&gt;Node3</title>
<g id="a_edge30_Node000017_Node000003"><a xlink:title=" ">
<path fill="none" stroke="#63b8ff" d="M403.62,-330.79C325.13,-319.67 182.41,-299.45 117.61,-290.26"/>
<polygon fill="#63b8ff" stroke="#63b8ff" points="117.93,-286.77 107.54,-288.84 116.95,-293.7 117.93,-286.77"/>
</a>
</g>
</g>
<!-- Node17&#45;&gt;Node5 -->
<g id="edge31_Node000017_Node000005" class="edge">
<title>Node17&#45;&gt;Node5</title>
<g id="a_edge31_Node000017_Node000005"><a xlink:title=" ">
<path fill="none" stroke="#63b8ff" d="M488.04,-329.98C519.71,-321.01 569.77,-306.82 604.81,-296.89"/>
<polygon fill="#63b8ff" stroke="#63b8ff" points="606.05,-300.18 614.72,-294.08 604.14,-293.44 606.05,-300.18"/>
</a>
</g>
</g>
<!-- Node17&#45;&gt;Node7 -->
<g id="edge34_Node000017_Node000007" class="edge">
<title>Node17&#45;&gt;Node7</title>
<g id="a_edge34_Node000017_Node000007"><a xlink:title=" ">
<path fill="none" stroke="#63b8ff" d="M438.4,-329.98C418.68,-321.42 388.05,-308.11 365.42,-298.28"/>
<polygon fill="#63b8ff" stroke="#63b8ff" points="366.52,-294.94 355.96,-294.17 363.74,-301.37 366.52,-294.94"/>
</a>
</g>
</g>
<!-- Node17&#45;&gt;Node8 -->
<g id="edge33_Node000017_Node000008" class="edge">
<title>Node17&#45;&gt;Node8</title>
<g id="a_edge33_Node000017_Node000008"><a xlink:title=" ">
<path fill="none" stroke="#63b8ff" d="M460.97,-329.65C464.68,-317.17 469.87,-293.82 464,-275 455.15,-246.64 450.98,-236.09 426,-220 394.08,-199.44 291.13,-186.25 228.66,-179.92"/>
<polygon fill="#63b8ff" stroke="#63b8ff" points="228.92,-176.43 218.63,-178.93 228.23,-183.4 228.92,-176.43"/>
</a>
</g>
</g>
<!-- Node17&#45;&gt;Node9 -->
<g id="edge35_Node000017_Node000009" class="edge">
<title>Node17&#45;&gt;Node9</title>
<g id="a_edge35_Node000017_Node000009"><a xlink:title=" ">
<path fill="none" stroke="#63b8ff" d="M404,-335.45C335.9,-328.74 219.35,-307.32 150,-239 125.17,-214.54 117.67,-199.28 124,-165 125.67,-155.95 129.1,-146.36 132.44,-138.41"/>
<polygon fill="#63b8ff" stroke="#63b8ff" points="135.73,-139.65 136.63,-129.09 129.34,-136.78 135.73,-139.65"/>
</a>
</g>
</g>
<!-- Node17&#45;&gt;Node10 -->
<g id="edge36_Node000017_Node000010" class="edge">
<title>Node17&#45;&gt;Node10</title>
<g id="a_edge36_Node000017_Node000010"><a xlink:title=" ">
<path fill="none" stroke="#63b8ff" d="M481.56,-330C504.1,-321.62 538.88,-308.07 568,-294 573.58,-291.3 660.96,-243.7 665,-239 682.05,-219.15 681.25,-209.73 686,-184 698.49,-116.28 604.12,-85.89 542.24,-73.36"/>
<polygon fill="#63b8ff" stroke="#63b8ff" points="542.71,-69.89 532.23,-71.43 541.39,-76.76 542.71,-69.89"/>
</a>
</g>
</g>
<!-- Node17&#45;&gt;Node14 -->
<g id="edge29_Node000017_Node000014" class="edge">
<title>Node17&#45;&gt;Node14</title>
<g id="a_edge29_Node000017_Node000014"><a xlink:title=" ">
<path fill="none" stroke="#63b8ff" d="M472.44,-329.93C493.74,-317.39 534.97,-293.51 571,-275 604.6,-257.73 627.72,-270.87 648,-239 656.42,-225.78 655.48,-207.65 652.99,-194.15"/>
<polygon fill="#63b8ff" stroke="#63b8ff" points="656.34,-193.08 650.7,-184.11 649.51,-194.63 656.34,-193.08"/>
</a>
</g>
</g>
<!-- Node18 -->
<g id="Node000018" class="node">
<title>Node18</title>
<g id="a_Node000018"><a xlink:title=" ">
<polygon fill="#e0e0e0" stroke="#999999" points="455,-294 411,-294 411,-275 455,-275 455,-294"/>
<text text-anchor="middle" x="433" y="-282" font-family="Helvetica,sans-Serif" font-size="10.00">limits</text>
</a>
</g>
</g>
<!-- Node17&#45;&gt;Node18 -->
<g id="edge32_Node000017_Node000018" class="edge">
<title>Node17&#45;&gt;Node18</title>
<g id="a_edge32_Node000017_Node000018"><a xlink:title=" ">
<path fill="none" stroke="#63b8ff" d="M453.87,-329.75C450.49,-322.57 445.58,-312.18 441.38,-303.27"/>
<polygon fill="#63b8ff" stroke="#63b8ff" points="444.48,-301.64 437.05,-294.09 438.15,-304.63 444.48,-301.64"/>
</a>
</g>
</g>
</g>
</svg>
