<?xml version="1.0" encoding="UTF-8" standalone="no"?>
<!DOCTYPE svg PUBLIC "-//W3C//DTD SVG 1.1//EN"
 "http://www.w3.org/Graphics/SVG/1.1/DTD/svg11.dtd">
<!-- Generated by graphviz version 2.43.0 (0)
 -->
<!-- Title: include/rendering/PostFX.hpp Pages: 1 -->
<svg width="222pt" height="137pt"
 viewBox="0.00 0.00 221.50 137.00" xmlns="http://www.w3.org/2000/svg" xmlns:xlink="http://www.w3.org/1999/xlink">
<g id="graph0" class="graph" transform="scale(1 1) rotate(0) translate(4 133)">
<title>include/rendering/PostFX.hpp</title>
<!-- Node1 -->
<g id="Node000001" class="node">
<title>Node1</title>
<g id="a_Node000001"><a xlink:title="Declares simple post&#45;processing helpers (contrast, saturation, tone&#45;mapping, vignette) for the ray&#45;tr...">
<polygon fill="#999999" stroke="#666666" points="159,-129 0,-129 0,-110 159,-110 159,-129"/>
<text text-anchor="middle" x="79.5" y="-117" font-family="Helvetica,sans-Serif" font-size="10.00">include/rendering/PostFX.hpp</text>
</a>
</g>
</g>
<!-- Node2 -->
<g id="Node000002" class="node">
<title>Node2</title>
<g id="a_Node000002"><a xlink:title=" ">
<polygon fill="#e0e0e0" stroke="#999999" points="51,-74 4,-74 4,-55 51,-55 51,-74"/>
<text text-anchor="middle" x="27.5" y="-62" font-family="Helvetica,sans-Serif" font-size="10.00">vector</text>
</a>
</g>
</g>
<!-- Node1&#45;&gt;Node2 -->
<g id="edge1_Node000001_Node000002" class="edge">
<title>Node1&#45;&gt;Node2</title>
<g id="a_edge1_Node000001_Node000002"><a xlink:title=" ">
<path fill="none" stroke="#63b8ff" d="M70.91,-109.75C63.34,-102.03 52.12,-90.6 42.99,-81.28"/>
<polygon fill="#63b8ff" stroke="#63b8ff" points="45.43,-78.78 35.93,-74.09 40.43,-83.68 45.43,-78.78"/>
</a>
</g>
</g>
<!-- Node3 -->
<g id="Node000003" class="node">
<title>Node3</title>
<g id="a_Node000003"><a xlink:title=" ">
<polygon fill="#e0e0e0" stroke="#999999" points="143,-19 96,-19 96,0 143,0 143,-19"/>
<text text-anchor="middle" x="119.5" y="-7" font-family="Helvetica,sans-Serif" font-size="10.00">cmath</text>
</a>
</g>
</g>
<!-- Node1&#45;&gt;Node3 -->
<g id="edge2_Node000001_Node000003" class="edge">
<title>Node1&#45;&gt;Node3</title>
<g id="a_edge2_Node000001_Node000003"><a xlink:title=" ">
<path fill="none" stroke="#63b8ff" d="M81.68,-109.73C84.85,-97.36 91.17,-74.13 98.5,-55 101.94,-46.03 106.41,-36.34 110.34,-28.31"/>
<polygon fill="#63b8ff" stroke="#63b8ff" points="113.56,-29.7 114.92,-19.2 107.3,-26.56 113.56,-29.7"/>
</a>
</g>
</g>
<!-- Node4 -->
<g id="Node000004" class="node">
<title>Node4</title>
<g id="a_Node000004"><a xlink:href="../../d3/dde/Vector3D_8hpp.html" target="_top" xlink:title="Defines a 3D vector structure with basic arithmetic and transformation operations.">
<polygon fill="white" stroke="#666666" points="213.5,-74 107.5,-74 107.5,-55 213.5,-55 213.5,-74"/>
<text text-anchor="middle" x="160.5" y="-62" font-family="Helvetica,sans-Serif" font-size="10.00">core/Vector3D.hpp</text>
</a>
</g>
</g>
<!-- Node1&#45;&gt;Node4 -->
<g id="edge3_Node000001_Node000004" class="edge">
<title>Node1&#45;&gt;Node4</title>
<g id="a_edge3_Node000001_Node000004"><a xlink:title=" ">
<path fill="none" stroke="#63b8ff" d="M92.51,-109.98C104.96,-101.84 123.96,-89.41 138.71,-79.76"/>
<polygon fill="#63b8ff" stroke="#63b8ff" points="140.8,-82.57 147.25,-74.17 136.96,-76.72 140.8,-82.57"/>
</a>
</g>
</g>
<!-- Node4&#45;&gt;Node3 -->
<g id="edge4_Node000004_Node000003" class="edge">
<title>Node4&#45;&gt;Node3</title>
<g id="a_edge4_Node000004_Node000003"><a xlink:title=" ">
<path fill="none" stroke="#63b8ff" d="M153.73,-54.75C147.94,-47.26 139.44,-36.28 132.36,-27.13"/>
<polygon fill="#63b8ff" stroke="#63b8ff" points="135.03,-24.86 126.14,-19.09 129.49,-29.14 135.03,-24.86"/>
</a>
</g>
</g>
</g>
</svg>
