<?xml version="1.0" encoding="UTF-8" standalone="no"?>
<!DOCTYPE svg PUBLIC "-//W3C//DTD SVG 1.1//EN"
 "http://www.w3.org/Graphics/SVG/1.1/DTD/svg11.dtd">
<!-- Generated by graphviz version 2.43.0 (0)
 -->
<!-- Title: include/rendering/PerlinNoise.hpp Pages: 1 -->
<svg width="284pt" height="93pt"
 viewBox="0.00 0.00 283.50 93.00" xmlns="http://www.w3.org/2000/svg" xmlns:xlink="http://www.w3.org/1999/xlink">
<g id="graph0" class="graph" transform="scale(1 1) rotate(0) translate(4 89)">
<title>include/rendering/PerlinNoise.hpp</title>
<!-- Node1 -->
<g id="Node000001" class="node">
<title>Node1</title>
<g id="a_Node000001"><a xlink:title=" ">
<polygon fill="#999999" stroke="#666666" points="195.5,-85 63.5,-85 63.5,-55 195.5,-55 195.5,-85"/>
<text text-anchor="start" x="71.5" y="-73" font-family="Helvetica,sans-Serif" font-size="10.00">include/rendering/Perlin</text>
<text text-anchor="middle" x="129.5" y="-62" font-family="Helvetica,sans-Serif" font-size="10.00">Noise.hpp</text>
</a>
</g>
</g>
<!-- Node2 -->
<g id="Node000002" class="node">
<title>Node2</title>
<g id="a_Node000002"><a xlink:title=" ">
<polygon fill="#e0e0e0" stroke="#999999" points="47,-19 0,-19 0,0 47,0 47,-19"/>
<text text-anchor="middle" x="23.5" y="-7" font-family="Helvetica,sans-Serif" font-size="10.00">vector</text>
</a>
</g>
</g>
<!-- Node1&#45;&gt;Node2 -->
<g id="edge1_Node000001_Node000002" class="edge">
<title>Node1&#45;&gt;Node2</title>
<g id="a_edge1_Node000001_Node000002"><a xlink:title=" ">
<path fill="none" stroke="#63b8ff" d="M104.11,-54.99C87.21,-45.66 65.12,-33.47 48.34,-24.21"/>
<polygon fill="#63b8ff" stroke="#63b8ff" points="49.6,-20.91 39.15,-19.14 46.22,-27.04 49.6,-20.91"/>
</a>
</g>
</g>
<!-- Node3 -->
<g id="Node000003" class="node">
<title>Node3</title>
<g id="a_Node000003"><a xlink:title=" ">
<polygon fill="#e0e0e0" stroke="#999999" points="121.5,-19 65.5,-19 65.5,0 121.5,0 121.5,-19"/>
<text text-anchor="middle" x="93.5" y="-7" font-family="Helvetica,sans-Serif" font-size="10.00">numeric</text>
</a>
</g>
</g>
<!-- Node1&#45;&gt;Node3 -->
<g id="edge2_Node000001_Node000003" class="edge">
<title>Node1&#45;&gt;Node3</title>
<g id="a_edge2_Node000001_Node000003"><a xlink:title=" ">
<path fill="none" stroke="#63b8ff" d="M120.79,-54.84C115.83,-46.78 109.57,-36.62 104.3,-28.06"/>
<polygon fill="#63b8ff" stroke="#63b8ff" points="107.12,-25.95 98.89,-19.27 101.15,-29.62 107.12,-25.95"/>
</a>
</g>
</g>
<!-- Node4 -->
<g id="Node000004" class="node">
<title>Node4</title>
<g id="a_Node000004"><a xlink:title=" ">
<polygon fill="#e0e0e0" stroke="#999999" points="193.5,-19 139.5,-19 139.5,0 193.5,0 193.5,-19"/>
<text text-anchor="middle" x="166.5" y="-7" font-family="Helvetica,sans-Serif" font-size="10.00">random</text>
</a>
</g>
</g>
<!-- Node1&#45;&gt;Node4 -->
<g id="edge3_Node000001_Node000004" class="edge">
<title>Node1&#45;&gt;Node4</title>
<g id="a_edge3_Node000001_Node000004"><a xlink:title=" ">
<path fill="none" stroke="#63b8ff" d="M138.46,-54.84C143.61,-46.69 150.12,-36.4 155.57,-27.78"/>
<polygon fill="#63b8ff" stroke="#63b8ff" points="158.57,-29.59 160.96,-19.27 152.65,-25.85 158.57,-29.59"/>
</a>
</g>
</g>
<!-- Node5 -->
<g id="Node000005" class="node">
<title>Node5</title>
<g id="a_Node000005"><a xlink:title=" ">
<polygon fill="#e0e0e0" stroke="#999999" points="275.5,-19 211.5,-19 211.5,0 275.5,0 275.5,-19"/>
<text text-anchor="middle" x="243.5" y="-7" font-family="Helvetica,sans-Serif" font-size="10.00">algorithm</text>
</a>
</g>
</g>
<!-- Node1&#45;&gt;Node5 -->
<g id="edge4_Node000001_Node000005" class="edge">
<title>Node1&#45;&gt;Node5</title>
<g id="a_edge4_Node000001_Node000005"><a xlink:title=" ">
<path fill="none" stroke="#63b8ff" d="M156.81,-54.99C175.15,-45.58 199.18,-33.24 217.29,-23.95"/>
<polygon fill="#63b8ff" stroke="#63b8ff" points="219.37,-26.82 226.66,-19.14 216.17,-20.59 219.37,-26.82"/>
</a>
</g>
</g>
</g>
</svg>
