<?xml version="1.0" encoding="UTF-8" standalone="no"?>
<!DOCTYPE svg PUBLIC "-//W3C//DTD SVG 1.1//EN"
 "http://www.w3.org/Graphics/SVG/1.1/DTD/svg11.dtd">
<!-- Generated by graphviz version 2.43.0 (0)
 -->
<!-- Title: RayTracer::Cylinder Pages: 1 -->
<svg width="314pt" height="247pt"
 viewBox="0.00 0.00 314.00 247.00" xmlns="http://www.w3.org/2000/svg" xmlns:xlink="http://www.w3.org/1999/xlink">
<g id="graph0" class="graph" transform="scale(1 1) rotate(0) translate(4 243)">
<title>RayTracer::Cylinder</title>
<!-- Node1 -->
<g id="Node000001" class="node">
<title>Node1</title>
<g id="a_Node000001"><a xlink:title="Finite right&#45;circular cylinder primitive.">
<polygon fill="#999999" stroke="#666666" points="174.5,-19 63.5,-19 63.5,0 174.5,0 174.5,-19"/>
<text text-anchor="middle" x="119" y="-7" font-family="Helvetica,sans-Serif" font-size="10.00">RayTracer::Cylinder</text>
</a>
</g>
</g>
<!-- Node2 -->
<g id="Node000002" class="node">
<title>Node2</title>
<g id="a_Node000002"><a xlink:href="../../d9/d3d/classRayTracer_1_1APrimitive.html" target="_top" xlink:title=" ">
<polygon fill="white" stroke="#666666" points="180,-85 58,-85 58,-66 180,-66 180,-85"/>
<text text-anchor="middle" x="119" y="-73" font-family="Helvetica,sans-Serif" font-size="10.00">RayTracer::APrimitive</text>
</a>
</g>
</g>
<!-- Node2&#45;&gt;Node1 -->
<g id="edge1_Node000001_Node000002" class="edge">
<title>Node2&#45;&gt;Node1</title>
<g id="a_edge1_Node000001_Node000002"><a xlink:title=" ">
<path fill="none" stroke="#63b8ff" d="M119,-55.58C119,-43.63 119,-28.72 119,-19.41"/>
<polygon fill="#63b8ff" stroke="#63b8ff" points="115.5,-55.87 119,-65.87 122.5,-55.87 115.5,-55.87"/>
</a>
</g>
</g>
<!-- Node3 -->
<g id="Node000003" class="node">
<title>Node3</title>
<g id="a_Node000003"><a xlink:href="../../da/d13/classRayTracer_1_1IPrimitive.html" target="_top" xlink:title="Pure interface that every geometric primitive must implement.">
<polygon fill="white" stroke="#666666" points="306,-151 188,-151 188,-132 306,-132 306,-151"/>
<text text-anchor="middle" x="247" y="-139" font-family="Helvetica,sans-Serif" font-size="10.00">RayTracer::IPrimitive</text>
</a>
</g>
</g>
<!-- Node3&#45;&gt;Node2 -->
<g id="edge2_Node000002_Node000003" class="edge">
<title>Node3&#45;&gt;Node2</title>
<g id="a_edge2_Node000002_Node000003"><a xlink:title=" ">
<path fill="none" stroke="#63b8ff" d="M220.72,-127.36C195.5,-114.75 158.13,-96.06 136.4,-85.2"/>
<polygon fill="#63b8ff" stroke="#63b8ff" points="219.23,-130.53 229.74,-131.87 222.36,-124.27 219.23,-130.53"/>
</a>
</g>
</g>
<!-- Node4 -->
<g id="Node000004" class="node">
<title>Node4</title>
<g id="a_Node000004"><a xlink:href="../../d1/d48/structRayTracer_1_1Material.html" target="_top" xlink:title="Physically&#45;based material parameters.">
<polygon fill="white" stroke="#666666" points="169.5,-151 58.5,-151 58.5,-132 169.5,-132 169.5,-151"/>
<text text-anchor="middle" x="114" y="-139" font-family="Helvetica,sans-Serif" font-size="10.00">RayTracer::Material</text>
</a>
</g>
</g>
<!-- Node4&#45;&gt;Node2 -->
<g id="edge3_Node000002_Node000004" class="edge">
<title>Node4&#45;&gt;Node2</title>
<g id="a_edge3_Node000002_Node000004"><a xlink:title=" ">
<path fill="none" stroke="#9a32cd" stroke-dasharray="5,2" d="M115.48,-121.58C116.41,-109.63 117.58,-94.72 118.3,-85.41"/>
<polygon fill="#9a32cd" stroke="#9a32cd" points="111.96,-121.63 114.67,-131.87 118.94,-122.17 111.96,-121.63"/>
</a>
</g>
<text text-anchor="middle" x="139.5" y="-106" font-family="Helvetica,sans-Serif" font-size="10.00" fill="grey"> material</text>
</g>
<!-- Node5 -->
<g id="Node000005" class="node">
<title>Node5</title>
<g id="a_Node000005"><a xlink:href="../../d6/d30/structMath_1_1Vector3D.html" target="_top" xlink:title="Represents a 3D vector with real coordinates.">
<polygon fill="white" stroke="#666666" points="92,-239 0,-239 0,-220 92,-220 92,-239"/>
<text text-anchor="middle" x="46" y="-227" font-family="Helvetica,sans-Serif" font-size="10.00">Math::Vector3D</text>
</a>
</g>
</g>
<!-- Node5&#45;&gt;Node1 -->
<g id="edge6_Node000001_Node000005" class="edge">
<title>Node5&#45;&gt;Node1</title>
<g id="a_edge6_Node000001_Node000005"><a xlink:title=" ">
<path fill="none" stroke="#9a32cd" stroke-dasharray="5,2" d="M41.44,-209.77C34.79,-178.22 25.6,-113.3 49,-66 59.87,-44.04 83.98,-28.04 100.86,-19.02"/>
<polygon fill="#9a32cd" stroke="#9a32cd" points="38.09,-210.81 43.71,-219.79 44.91,-209.26 38.09,-210.81"/>
</a>
</g>
<text text-anchor="middle" x="49" y="-106" font-family="Helvetica,sans-Serif" font-size="10.00" fill="grey"> axis</text>
</g>
<!-- Node5&#45;&gt;Node4 -->
<g id="edge4_Node000004_Node000005" class="edge">
<title>Node5&#45;&gt;Node4</title>
<g id="a_edge4_Node000004_Node000005"><a xlink:title=" ">
<path fill="none" stroke="#9a32cd" stroke-dasharray="5,2" d="M59.1,-211.94C73.5,-193.72 96.08,-165.17 107.26,-151.03"/>
<polygon fill="#9a32cd" stroke="#9a32cd" points="56.23,-209.92 52.77,-219.94 61.72,-214.27 56.23,-209.92"/>
</a>
</g>
<text text-anchor="middle" x="115.5" y="-194" font-family="Helvetica,sans-Serif" font-size="10.00" fill="grey"> albedo</text>
<text text-anchor="middle" x="115.5" y="-183" font-family="Helvetica,sans-Serif" font-size="10.00" fill="grey">emission</text>
<text text-anchor="middle" x="115.5" y="-172" font-family="Helvetica,sans-Serif" font-size="10.00" fill="grey">specular</text>
</g>
<!-- Node6 -->
<g id="Node000006" class="node">
<title>Node6</title>
<g id="a_Node000006"><a xlink:href="../../db/daa/structMath_1_1Point3D.html" target="_top" xlink:title="Represents a 3D point in Cartesian coordinates.">
<polygon fill="white" stroke="#666666" points="284,-85 198,-85 198,-66 284,-66 284,-85"/>
<text text-anchor="middle" x="241" y="-73" font-family="Helvetica,sans-Serif" font-size="10.00">Math::Point3D</text>
</a>
</g>
</g>
<!-- Node6&#45;&gt;Node1 -->
<g id="edge5_Node000001_Node000006" class="edge">
<title>Node6&#45;&gt;Node1</title>
<g id="a_edge5_Node000001_Node000006"><a xlink:title=" ">
<path fill="none" stroke="#9a32cd" stroke-dasharray="5,2" d="M215.64,-61.19C191.6,-48.59 156.2,-30.01 135.58,-19.2"/>
<polygon fill="#9a32cd" stroke="#9a32cd" points="214.07,-64.32 224.55,-65.87 217.32,-58.12 214.07,-64.32"/>
</a>
</g>
<text text-anchor="middle" x="200.5" y="-40" font-family="Helvetica,sans-Serif" font-size="10.00" fill="grey"> base</text>
</g>
</g>
</svg>
