<?xml version="1.0" encoding="UTF-8" standalone="no"?>
<!DOCTYPE svg PUBLIC "-//W3C//DTD SVG 1.1//EN"
 "http://www.w3.org/Graphics/SVG/1.1/DTD/svg11.dtd">
<!-- Generated by graphviz version 2.43.0 (0)
 -->
<!-- Title: src/rendering/Camera.cpp Pages: 1 -->
<svg width="288pt" height="313pt"
 viewBox="0.00 0.00 288.25 313.00" xmlns="http://www.w3.org/2000/svg" xmlns:xlink="http://www.w3.org/1999/xlink">
<g id="graph0" class="graph" transform="scale(1 1) rotate(0) translate(4 309)">
<title>src/rendering/Camera.cpp</title>
<!-- Node1 -->
<g id="Node000001" class="node">
<title>Node1</title>
<g id="a_Node000001"><a xlink:title=" ">
<polygon fill="#999999" stroke="#666666" points="280.25,-305 138.25,-305 138.25,-286 280.25,-286 280.25,-305"/>
<text text-anchor="middle" x="209.25" y="-293" font-family="Helvetica,sans-Serif" font-size="10.00">src/rendering/Camera.cpp</text>
</a>
</g>
</g>
<!-- Node2 -->
<g id="Node000002" class="node">
<title>Node2</title>
<g id="a_Node000002"><a xlink:href="../../d6/d80/Camera_8hpp.html" target="_top" xlink:title="Declares the pin&#45;hole / thin&#45;lens camera used by the ray tracer.">
<polygon fill="white" stroke="#666666" points="163.75,-250 44.75,-250 44.75,-220 163.75,-220 163.75,-250"/>
<text text-anchor="start" x="52.75" y="-238" font-family="Helvetica,sans-Serif" font-size="10.00">../../include/rendering</text>
<text text-anchor="middle" x="104.25" y="-227" font-family="Helvetica,sans-Serif" font-size="10.00">/Camera.hpp</text>
</a>
</g>
</g>
<!-- Node1&#45;&gt;Node2 -->
<g id="edge1_Node000001_Node000002" class="edge">
<title>Node1&#45;&gt;Node2</title>
<g id="a_edge1_Node000001_Node000002"><a xlink:title=" ">
<path fill="none" stroke="#63b8ff" d="M193.75,-285.87C179.24,-277.78 157.06,-265.42 138.4,-255.03"/>
<polygon fill="#63b8ff" stroke="#63b8ff" points="140.02,-251.92 129.58,-250.11 136.61,-258.04 140.02,-251.92"/>
</a>
</g>
</g>
<!-- Node5 -->
<g id="Node000005" class="node">
<title>Node5</title>
<g id="a_Node000005"><a xlink:title=" ">
<polygon fill="#e0e0e0" stroke="#999999" points="130.75,-19 83.75,-19 83.75,0 130.75,0 130.75,-19"/>
<text text-anchor="middle" x="107.25" y="-7" font-family="Helvetica,sans-Serif" font-size="10.00">cmath</text>
</a>
</g>
</g>
<!-- Node1&#45;&gt;Node5 -->
<g id="edge12_Node000001_Node000005" class="edge">
<title>Node1&#45;&gt;Node5</title>
<g id="a_edge12_Node000001_Node000005"><a xlink:title=" ">
<path fill="none" stroke="#63b8ff" d="M216.44,-285.88C231.34,-267.11 264.25,-220.56 264.25,-175.5 264.25,-175.5 264.25,-175.5 264.25,-118.5 264.25,-58.98 186.72,-29.78 140.62,-17.68"/>
<polygon fill="#63b8ff" stroke="#63b8ff" points="141.3,-14.24 130.75,-15.22 139.61,-21.03 141.3,-14.24"/>
</a>
</g>
</g>
<!-- Node7 -->
<g id="Node000007" class="node">
<title>Node7</title>
<g id="a_Node000007"><a xlink:title=" ">
<polygon fill="#e0e0e0" stroke="#999999" points="236.25,-184 182.25,-184 182.25,-165 236.25,-165 236.25,-184"/>
<text text-anchor="middle" x="209.25" y="-172" font-family="Helvetica,sans-Serif" font-size="10.00">random</text>
</a>
</g>
</g>
<!-- Node1&#45;&gt;Node7 -->
<g id="edge13_Node000001_Node000007" class="edge">
<title>Node1&#45;&gt;Node7</title>
<g id="a_edge13_Node000001_Node000007"><a xlink:title=" ">
<path fill="none" stroke="#63b8ff" d="M209.25,-285.94C209.25,-266.91 209.25,-220.69 209.25,-194.47"/>
<polygon fill="#63b8ff" stroke="#63b8ff" points="212.75,-194.3 209.25,-184.3 205.75,-194.3 212.75,-194.3"/>
</a>
</g>
</g>
<!-- Node3 -->
<g id="Node000003" class="node">
<title>Node3</title>
<g id="a_Node000003"><a xlink:href="../../df/df2/Point3D_8hpp.html" target="_top" xlink:title="Defines a 3D point structure used in geometric computations.">
<polygon fill="white" stroke="#666666" points="194.25,-129 94.25,-129 94.25,-110 194.25,-110 194.25,-129"/>
<text text-anchor="middle" x="144.25" y="-117" font-family="Helvetica,sans-Serif" font-size="10.00">core/Point3D.hpp</text>
</a>
</g>
</g>
<!-- Node2&#45;&gt;Node3 -->
<g id="edge2_Node000002_Node000003" class="edge">
<title>Node2&#45;&gt;Node3</title>
<g id="a_edge2_Node000002_Node000003"><a xlink:title=" ">
<path fill="none" stroke="#63b8ff" d="M114.74,-219.87C121.37,-210.24 129.55,-196.94 134.25,-184 139.49,-169.56 141.99,-152.28 143.17,-139.4"/>
<polygon fill="#63b8ff" stroke="#63b8ff" points="146.67,-139.62 143.91,-129.39 139.68,-139.11 146.67,-139.62"/>
</a>
</g>
</g>
<!-- Node4 -->
<g id="Node000004" class="node">
<title>Node4</title>
<g id="a_Node000004"><a xlink:href="../../d3/dde/Vector3D_8hpp.html" target="_top" xlink:title="Defines a 3D vector structure with basic arithmetic and transformation operations.">
<polygon fill="white" stroke="#666666" points="109.25,-74 27.25,-74 27.25,-55 109.25,-55 109.25,-74"/>
<text text-anchor="middle" x="68.25" y="-62" font-family="Helvetica,sans-Serif" font-size="10.00">Vector3D.hpp</text>
</a>
</g>
</g>
<!-- Node2&#45;&gt;Node4 -->
<g id="edge6_Node000002_Node000004" class="edge">
<title>Node2&#45;&gt;Node4</title>
<g id="a_edge6_Node000002_Node000004"><a xlink:title=" ">
<path fill="none" stroke="#63b8ff" d="M74.22,-219.84C60.26,-211.53 45.05,-199.57 37.25,-184 20.4,-150.42 41.57,-106.75 56.31,-82.91"/>
<polygon fill="#63b8ff" stroke="#63b8ff" points="59.41,-84.56 61.91,-74.27 53.54,-80.75 59.41,-84.56"/>
</a>
</g>
</g>
<!-- Node2&#45;&gt;Node5 -->
<g id="edge10_Node000002_Node000005" class="edge">
<title>Node2&#45;&gt;Node5</title>
<g id="a_edge10_Node000002_Node000005"><a xlink:title=" ">
<path fill="none" stroke="#63b8ff" d="M69.76,-219.81C54.43,-211.66 37.74,-199.85 28.25,-184 -1.31,-134.67 -11.99,-103.92 18.25,-55 30.37,-35.39 54.04,-24.13 73.92,-17.85"/>
<polygon fill="#63b8ff" stroke="#63b8ff" points="74.95,-21.19 83.6,-15.07 73.02,-14.46 74.95,-21.19"/>
</a>
</g>
</g>
<!-- Node6 -->
<g id="Node000006" class="node">
<title>Node6</title>
<g id="a_Node000006"><a xlink:href="../../d4/db2/Ray_8hpp.html" target="_top" xlink:title="Defines the Ray structure used for ray&#45;object intersection tests in the raytracer.">
<polygon fill="white" stroke="#666666" points="125.75,-184 46.75,-184 46.75,-165 125.75,-165 125.75,-184"/>
<text text-anchor="middle" x="86.25" y="-172" font-family="Helvetica,sans-Serif" font-size="10.00">core/Ray.hpp</text>
</a>
</g>
</g>
<!-- Node2&#45;&gt;Node6 -->
<g id="edge7_Node000002_Node000006" class="edge">
<title>Node2&#45;&gt;Node6</title>
<g id="a_edge7_Node000002_Node000006"><a xlink:title=" ">
<path fill="none" stroke="#63b8ff" d="M99.89,-219.84C97.49,-212.04 94.48,-202.27 91.9,-193.89"/>
<polygon fill="#63b8ff" stroke="#63b8ff" points="95.23,-192.79 88.94,-184.27 88.54,-194.85 95.23,-192.79"/>
</a>
</g>
</g>
<!-- Node2&#45;&gt;Node7 -->
<g id="edge11_Node000002_Node000007" class="edge">
<title>Node2&#45;&gt;Node7</title>
<g id="a_edge11_Node000002_Node000007"><a xlink:title=" ">
<path fill="none" stroke="#63b8ff" d="M129.4,-219.99C146.13,-210.66 168.01,-198.47 184.64,-189.21"/>
<polygon fill="#63b8ff" stroke="#63b8ff" points="186.71,-192.06 193.74,-184.14 183.3,-185.95 186.71,-192.06"/>
</a>
</g>
</g>
<!-- Node3&#45;&gt;Node4 -->
<g id="edge3_Node000003_Node000004" class="edge">
<title>Node3&#45;&gt;Node4</title>
<g id="a_edge3_Node000003_Node000004"><a xlink:title=" ">
<path fill="none" stroke="#63b8ff" d="M132.03,-109.98C120.47,-101.92 102.87,-89.65 89.08,-80.03"/>
<polygon fill="#63b8ff" stroke="#63b8ff" points="90.88,-77.02 80.68,-74.17 86.88,-82.76 90.88,-77.02"/>
</a>
</g>
</g>
<!-- Node3&#45;&gt;Node5 -->
<g id="edge5_Node000003_Node000005" class="edge">
<title>Node3&#45;&gt;Node5</title>
<g id="a_edge5_Node000003_Node000005"><a xlink:title=" ">
<path fill="none" stroke="#63b8ff" d="M141.22,-109.66C135.17,-92.01 121.49,-52.09 113.46,-28.64"/>
<polygon fill="#63b8ff" stroke="#63b8ff" points="116.76,-27.48 110.21,-19.16 110.14,-29.75 116.76,-27.48"/>
</a>
</g>
</g>
<!-- Node4&#45;&gt;Node5 -->
<g id="edge4_Node000004_Node000005" class="edge">
<title>Node4&#45;&gt;Node5</title>
<g id="a_edge4_Node000004_Node000005"><a xlink:title=" ">
<path fill="none" stroke="#63b8ff" d="M74.69,-54.75C80.14,-47.34 88.11,-36.5 94.8,-27.41"/>
<polygon fill="#63b8ff" stroke="#63b8ff" points="97.82,-29.22 100.93,-19.09 92.18,-25.07 97.82,-29.22"/>
</a>
</g>
</g>
<!-- Node6&#45;&gt;Node3 -->
<g id="edge8_Node000006_Node000003" class="edge">
<title>Node6&#45;&gt;Node3</title>
<g id="a_edge8_Node000006_Node000003"><a xlink:title=" ">
<path fill="none" stroke="#63b8ff" d="M95.56,-164.98C104.05,-157.23 116.8,-145.58 127.13,-136.14"/>
<polygon fill="#63b8ff" stroke="#63b8ff" points="129.74,-138.5 134.76,-129.17 125.01,-133.33 129.74,-138.5"/>
</a>
</g>
</g>
<!-- Node6&#45;&gt;Node4 -->
<g id="edge9_Node000006_Node000004" class="edge">
<title>Node6&#45;&gt;Node4</title>
<g id="a_edge9_Node000006_Node000004"><a xlink:title=" ">
<path fill="none" stroke="#63b8ff" d="M84.77,-164.66C81.86,-147.17 75.3,-107.8 71.37,-84.27"/>
<polygon fill="#63b8ff" stroke="#63b8ff" points="74.78,-83.45 69.69,-74.16 67.88,-84.6 74.78,-83.45"/>
</a>
</g>
</g>
</g>
</svg>
