<?xml version="1.0" encoding="UTF-8" standalone="no"?>
<!DOCTYPE svg PUBLIC "-//W3C//DTD SVG 1.1//EN"
 "http://www.w3.org/Graphics/SVG/1.1/DTD/svg11.dtd">
<!-- Generated by graphviz version 2.43.0 (0)
 -->
<!-- Title: include/geoTransf/Rotation.hpp Pages: 1 -->
<svg width="567pt" height="412pt"
 viewBox="0.00 0.00 567.12 412.00" xmlns="http://www.w3.org/2000/svg" xmlns:xlink="http://www.w3.org/1999/xlink">
<g id="graph0" class="graph" transform="scale(1 1) rotate(0) translate(4 408)">
<title>include/geoTransf/Rotation.hpp</title>
<!-- Node1 -->
<g id="Node000001" class="node">
<title>Node1</title>
<g id="a_Node000001"><a xlink:title="Declares a wrapper primitive that applies 3D Euler rotations to another primitive&#39;s space before ray ...">
<polygon fill="#999999" stroke="#666666" points="332.91,-404 165.91,-404 165.91,-385 332.91,-385 332.91,-404"/>
<text text-anchor="middle" x="249.41" y="-392" font-family="Helvetica,sans-Serif" font-size="10.00">include/geoTransf/Rotation.hpp</text>
</a>
</g>
</g>
<!-- Node2 -->
<g id="Node000002" class="node">
<title>Node2</title>
<g id="a_Node000002"><a xlink:href="../../de/d81/APrimitive_8hpp.html" target="_top" xlink:title=" ">
<polygon fill="white" stroke="#666666" points="243.91,-294 130.91,-294 130.91,-275 243.91,-275 243.91,-294"/>
<text text-anchor="middle" x="187.41" y="-282" font-family="Helvetica,sans-Serif" font-size="10.00">core/APrimitive.hpp</text>
</a>
</g>
</g>
<!-- Node1&#45;&gt;Node2 -->
<g id="edge1_Node000001_Node000002" class="edge">
<title>Node1&#45;&gt;Node2</title>
<g id="a_edge1_Node000001_Node000002"><a xlink:title=" ">
<path fill="none" stroke="#63b8ff" d="M244.34,-384.66C234.12,-366.85 210.87,-326.37 197.46,-303.01"/>
<polygon fill="#63b8ff" stroke="#63b8ff" points="200.4,-301.09 192.38,-294.16 194.33,-304.57 200.4,-301.09"/>
</a>
</g>
</g>
<!-- Node13 -->
<g id="Node000013" class="node">
<title>Node13</title>
<g id="a_Node000013"><a xlink:href="../../d9/dad/BVH_8hpp.html" target="_top" xlink:title="Declares the axis&#45;aligned bounding box (AABB) and the BVH node used for ray&#45;tracing acceleration.">
<polygon fill="white" stroke="#666666" points="364.41,-349 256.41,-349 256.41,-330 364.41,-330 364.41,-349"/>
<text text-anchor="middle" x="310.41" y="-337" font-family="Helvetica,sans-Serif" font-size="10.00">rendering/BVH.hpp</text>
</a>
</g>
</g>
<!-- Node1&#45;&gt;Node13 -->
<g id="edge19_Node000001_Node000013" class="edge">
<title>Node1&#45;&gt;Node13</title>
<g id="a_edge19_Node000001_Node000013"><a xlink:title=" ">
<path fill="none" stroke="#63b8ff" d="M259.21,-384.98C268.23,-377.15 281.82,-365.34 292.73,-355.86"/>
<polygon fill="#63b8ff" stroke="#63b8ff" points="295.18,-358.37 300.43,-349.17 290.59,-353.09 295.18,-358.37"/>
</a>
</g>
</g>
<!-- Node3 -->
<g id="Node000003" class="node">
<title>Node3</title>
<g id="a_Node000003"><a xlink:href="../../d4/db2/Ray_8hpp.html" target="_top" xlink:title="Defines the Ray structure used for ray&#45;object intersection tests in the raytracer.">
<polygon fill="white" stroke="#666666" points="193.91,-184 114.91,-184 114.91,-165 193.91,-165 193.91,-184"/>
<text text-anchor="middle" x="154.41" y="-172" font-family="Helvetica,sans-Serif" font-size="10.00">core/Ray.hpp</text>
</a>
</g>
</g>
<!-- Node2&#45;&gt;Node3 -->
<g id="edge2_Node000002_Node000003" class="edge">
<title>Node2&#45;&gt;Node3</title>
<g id="a_edge2_Node000002_Node000003"><a xlink:title=" ">
<path fill="none" stroke="#63b8ff" d="M130.54,-275.29C89.2,-268.03 38.32,-255.93 25.41,-239 0.95,-206.91 58.81,-190.03 104.78,-181.94"/>
<polygon fill="#63b8ff" stroke="#63b8ff" points="105.38,-185.39 114.67,-180.3 104.24,-178.49 105.38,-185.39"/>
</a>
</g>
</g>
<!-- Node4 -->
<g id="Node000004" class="node">
<title>Node4</title>
<g id="a_Node000004"><a xlink:href="../../df/df2/Point3D_8hpp.html" target="_top" xlink:title="Defines a 3D point structure used in geometric computations.">
<polygon fill="white" stroke="#666666" points="192.41,-129 116.41,-129 116.41,-110 192.41,-110 192.41,-129"/>
<text text-anchor="middle" x="154.41" y="-117" font-family="Helvetica,sans-Serif" font-size="10.00">Point3D.hpp</text>
</a>
</g>
</g>
<!-- Node2&#45;&gt;Node4 -->
<g id="edge8_Node000002_Node000004" class="edge">
<title>Node2&#45;&gt;Node4</title>
<g id="a_edge8_Node000002_Node000004"><a xlink:title=" ">
<path fill="none" stroke="#63b8ff" d="M130.53,-276.22C86.4,-269.27 30.44,-257.14 16.41,-239 -19.06,-193.11 67.4,-152.07 119.09,-132.55"/>
<polygon fill="#63b8ff" stroke="#63b8ff" points="120.43,-135.78 128.61,-129.04 118.01,-129.21 120.43,-135.78"/>
</a>
</g>
</g>
<!-- Node5 -->
<g id="Node000005" class="node">
<title>Node5</title>
<g id="a_Node000005"><a xlink:href="../../d3/dde/Vector3D_8hpp.html" target="_top" xlink:title="Defines a 3D vector structure with basic arithmetic and transformation operations.">
<polygon fill="white" stroke="#666666" points="317.41,-74 235.41,-74 235.41,-55 317.41,-55 317.41,-74"/>
<text text-anchor="middle" x="276.41" y="-62" font-family="Helvetica,sans-Serif" font-size="10.00">Vector3D.hpp</text>
</a>
</g>
</g>
<!-- Node2&#45;&gt;Node5 -->
<g id="edge10_Node000002_Node000005" class="edge">
<title>Node2&#45;&gt;Node5</title>
<g id="a_edge10_Node000002_Node000005"><a xlink:title=" ">
<path fill="none" stroke="#63b8ff" d="M244.08,-281.58C310.1,-278.01 413.24,-267.85 437.41,-239 474.23,-195.05 472.14,-155.62 437.41,-110 424.03,-92.41 369.5,-79.99 327.57,-72.82"/>
<polygon fill="#63b8ff" stroke="#63b8ff" points="327.92,-69.33 317.49,-71.15 326.78,-76.24 327.92,-69.33"/>
</a>
</g>
</g>
<!-- Node7 -->
<g id="Node000007" class="node">
<title>Node7</title>
<g id="a_Node000007"><a xlink:href="../../d8/d1e/Vector2D_8hpp.html" target="_top" xlink:title="Defines a 2D vector structure used for texture coordinates or screen&#45;space math operations.">
<polygon fill="white" stroke="#666666" points="140.41,-239 34.41,-239 34.41,-220 140.41,-220 140.41,-239"/>
<text text-anchor="middle" x="87.41" y="-227" font-family="Helvetica,sans-Serif" font-size="10.00">core/Vector2D.hpp</text>
</a>
</g>
</g>
<!-- Node2&#45;&gt;Node7 -->
<g id="edge9_Node000002_Node000007" class="edge">
<title>Node2&#45;&gt;Node7</title>
<g id="a_edge9_Node000002_Node000007"><a xlink:title=" ">
<path fill="none" stroke="#63b8ff" d="M171.35,-274.98C155.55,-266.61 131.2,-253.7 112.78,-243.95"/>
<polygon fill="#63b8ff" stroke="#63b8ff" points="114.25,-240.76 103.77,-239.17 110.97,-246.95 114.25,-240.76"/>
</a>
</g>
</g>
<!-- Node8 -->
<g id="Node000008" class="node">
<title>Node8</title>
<g id="a_Node000008"><a xlink:href="../../d0/d70/Material_8hpp.html" target="_top" xlink:title="Declares the physically&#45;based material descriptor used by the renderer.">
<polygon fill="white" stroke="#666666" points="428.41,-239 300.41,-239 300.41,-220 428.41,-220 428.41,-239"/>
<text text-anchor="middle" x="364.41" y="-227" font-family="Helvetica,sans-Serif" font-size="10.00">rendering/Material.hpp</text>
</a>
</g>
</g>
<!-- Node2&#45;&gt;Node8 -->
<g id="edge11_Node000002_Node000008" class="edge">
<title>Node2&#45;&gt;Node8</title>
<g id="a_edge11_Node000002_Node000008"><a xlink:title=" ">
<path fill="none" stroke="#63b8ff" d="M215.85,-274.98C245.7,-266.05 292.8,-251.94 325.95,-242.02"/>
<polygon fill="#63b8ff" stroke="#63b8ff" points="327.18,-245.3 335.75,-239.08 325.17,-238.6 327.18,-245.3"/>
</a>
</g>
</g>
<!-- Node12 -->
<g id="Node000012" class="node">
<title>Node12</title>
<g id="a_Node000012"><a xlink:href="../../d0/d38/IPrimitive_8hpp.html" target="_top" xlink:title="Interface for geometric primitives in the raytracer.">
<polygon fill="white" stroke="#666666" points="243.91,-239 158.91,-239 158.91,-220 243.91,-220 243.91,-239"/>
<text text-anchor="middle" x="201.41" y="-227" font-family="Helvetica,sans-Serif" font-size="10.00">IPrimitive.hpp</text>
</a>
</g>
</g>
<!-- Node2&#45;&gt;Node12 -->
<g id="edge17_Node000002_Node000012" class="edge">
<title>Node2&#45;&gt;Node12</title>
<g id="a_edge17_Node000002_Node000012"><a xlink:title=" ">
<path fill="none" stroke="#63b8ff" d="M189.72,-274.75C191.58,-267.72 194.25,-257.62 196.57,-248.84"/>
<polygon fill="#63b8ff" stroke="#63b8ff" points="199.97,-249.65 199.14,-239.09 193.21,-247.86 199.97,-249.65"/>
</a>
</g>
</g>
<!-- Node3&#45;&gt;Node4 -->
<g id="edge3_Node000003_Node000004" class="edge">
<title>Node3&#45;&gt;Node4</title>
<g id="a_edge3_Node000003_Node000004"><a xlink:title=" ">
<path fill="none" stroke="#63b8ff" d="M154.41,-164.75C154.41,-157.8 154.41,-147.85 154.41,-139.13"/>
<polygon fill="#63b8ff" stroke="#63b8ff" points="157.91,-139.09 154.41,-129.09 150.91,-139.09 157.91,-139.09"/>
</a>
</g>
</g>
<!-- Node3&#45;&gt;Node5 -->
<g id="edge7_Node000003_Node000005" class="edge">
<title>Node3&#45;&gt;Node5</title>
<g id="a_edge7_Node000003_Node000005"><a xlink:title=" ">
<path fill="none" stroke="#63b8ff" d="M164.4,-164.66C185.14,-146.3 233.13,-103.81 259.05,-80.87"/>
<polygon fill="#63b8ff" stroke="#63b8ff" points="261.46,-83.41 266.63,-74.16 256.82,-78.17 261.46,-83.41"/>
</a>
</g>
</g>
<!-- Node4&#45;&gt;Node5 -->
<g id="edge4_Node000004_Node000005" class="edge">
<title>Node4&#45;&gt;Node5</title>
<g id="a_edge4_Node000004_Node000005"><a xlink:title=" ">
<path fill="none" stroke="#63b8ff" d="M174.01,-109.98C193.73,-101.42 224.37,-88.11 247,-78.28"/>
<polygon fill="#63b8ff" stroke="#63b8ff" points="248.68,-81.37 256.45,-74.17 245.89,-74.94 248.68,-81.37"/>
</a>
</g>
</g>
<!-- Node6 -->
<g id="Node000006" class="node">
<title>Node6</title>
<g id="a_Node000006"><a xlink:title=" ">
<polygon fill="#e0e0e0" stroke="#999999" points="247.91,-19 200.91,-19 200.91,0 247.91,0 247.91,-19"/>
<text text-anchor="middle" x="224.41" y="-7" font-family="Helvetica,sans-Serif" font-size="10.00">cmath</text>
</a>
</g>
</g>
<!-- Node4&#45;&gt;Node6 -->
<g id="edge6_Node000004_Node000006" class="edge">
<title>Node4&#45;&gt;Node6</title>
<g id="a_edge6_Node000004_Node000006"><a xlink:title=" ">
<path fill="none" stroke="#63b8ff" d="M160.14,-109.66C171.73,-91.77 198.16,-51 213.27,-27.69"/>
<polygon fill="#63b8ff" stroke="#63b8ff" points="216.3,-29.45 218.8,-19.16 210.42,-25.65 216.3,-29.45"/>
</a>
</g>
</g>
<!-- Node5&#45;&gt;Node6 -->
<g id="edge5_Node000005_Node000006" class="edge">
<title>Node5&#45;&gt;Node6</title>
<g id="a_edge5_Node000005_Node000006"><a xlink:title=" ">
<path fill="none" stroke="#63b8ff" d="M267.83,-54.75C260.25,-47.03 249.03,-35.6 239.9,-26.28"/>
<polygon fill="#63b8ff" stroke="#63b8ff" points="242.34,-23.78 232.84,-19.09 237.34,-28.68 242.34,-23.78"/>
</a>
</g>
</g>
<!-- Node8&#45;&gt;Node5 -->
<g id="edge14_Node000008_Node000005" class="edge">
<title>Node8&#45;&gt;Node5</title>
<g id="a_edge14_Node000008_Node000005"><a xlink:title=" ">
<path fill="none" stroke="#63b8ff" d="M357.29,-219.99C343.75,-203.43 314.06,-165.32 296.41,-129 289.38,-114.53 284.08,-97.02 280.71,-84.05"/>
<polygon fill="#63b8ff" stroke="#63b8ff" points="284.03,-82.9 278.25,-74.02 277.23,-84.56 284.03,-82.9"/>
</a>
</g>
</g>
<!-- Node9 -->
<g id="Node000009" class="node">
<title>Node9</title>
<g id="a_Node000009"><a xlink:title=" ">
<polygon fill="#e0e0e0" stroke="#999999" points="255.41,-184 211.41,-184 211.41,-165 255.41,-165 255.41,-184"/>
<text text-anchor="middle" x="233.41" y="-172" font-family="Helvetica,sans-Serif" font-size="10.00">string</text>
</a>
</g>
</g>
<!-- Node8&#45;&gt;Node9 -->
<g id="edge12_Node000008_Node000009" class="edge">
<title>Node8&#45;&gt;Node9</title>
<g id="a_edge12_Node000008_Node000009"><a xlink:title=" ">
<path fill="none" stroke="#63b8ff" d="M343.36,-219.98C322.01,-211.34 288.71,-197.87 264.35,-188.02"/>
<polygon fill="#63b8ff" stroke="#63b8ff" points="265.43,-184.68 254.84,-184.17 262.8,-191.17 265.43,-184.68"/>
</a>
</g>
</g>
<!-- Node10 -->
<g id="Node000010" class="node">
<title>Node10</title>
<g id="a_Node000010"><a xlink:title=" ">
<polygon fill="#e0e0e0" stroke="#999999" points="428.41,-184 370.41,-184 370.41,-165 428.41,-165 428.41,-184"/>
<text text-anchor="middle" x="399.41" y="-172" font-family="Helvetica,sans-Serif" font-size="10.00">memory</text>
</a>
</g>
</g>
<!-- Node8&#45;&gt;Node10 -->
<g id="edge13_Node000008_Node000010" class="edge">
<title>Node8&#45;&gt;Node10</title>
<g id="a_edge13_Node000008_Node000010"><a xlink:title=" ">
<path fill="none" stroke="#63b8ff" d="M370.19,-219.75C375.03,-212.42 382.09,-201.73 388.06,-192.7"/>
<polygon fill="#63b8ff" stroke="#63b8ff" points="391.15,-194.36 393.74,-184.09 385.31,-190.5 391.15,-194.36"/>
</a>
</g>
</g>
<!-- Node11 -->
<g id="Node000011" class="node">
<title>Node11</title>
<g id="a_Node000011"><a xlink:href="../../d0/ddc/Texture_8hpp.html" target="_top" xlink:title="Declares the abstract base class for all 2&#45;D textures. (Solid colour, checkerboard,...">
<polygon fill="white" stroke="#666666" points="427.91,-129 304.91,-129 304.91,-110 427.91,-110 427.91,-129"/>
<text text-anchor="middle" x="366.41" y="-117" font-family="Helvetica,sans-Serif" font-size="10.00">rendering/Texture.hpp</text>
</a>
</g>
</g>
<!-- Node8&#45;&gt;Node11 -->
<g id="edge15_Node000008_Node000011" class="edge">
<title>Node8&#45;&gt;Node11</title>
<g id="a_edge15_Node000008_Node000011"><a xlink:title=" ">
<path fill="none" stroke="#63b8ff" d="M363.44,-219.87C362.19,-207.65 360.31,-184.61 361.41,-165 361.89,-156.45 362.88,-147.03 363.86,-139.06"/>
<polygon fill="#63b8ff" stroke="#63b8ff" points="367.35,-139.38 365.17,-129.01 360.4,-138.47 367.35,-139.38"/>
</a>
</g>
</g>
<!-- Node11&#45;&gt;Node5 -->
<g id="edge16_Node000011_Node000005" class="edge">
<title>Node11&#45;&gt;Node5</title>
<g id="a_edge16_Node000011_Node000005"><a xlink:title=" ">
<path fill="none" stroke="#63b8ff" d="M351.95,-109.98C338,-101.77 316.62,-89.18 300.16,-79.49"/>
<polygon fill="#63b8ff" stroke="#63b8ff" points="301.53,-76.23 291.14,-74.17 297.98,-82.26 301.53,-76.23"/>
</a>
</g>
</g>
<!-- Node12&#45;&gt;Node3 -->
<g id="edge18_Node000012_Node000003" class="edge">
<title>Node12&#45;&gt;Node3</title>
<g id="a_edge18_Node000012_Node000003"><a xlink:title=" ">
<path fill="none" stroke="#63b8ff" d="M193.65,-219.75C186.94,-212.18 177.07,-201.05 168.91,-191.84"/>
<polygon fill="#63b8ff" stroke="#63b8ff" points="171.28,-189.25 162.03,-184.09 166.05,-193.89 171.28,-189.25"/>
</a>
</g>
</g>
<!-- Node13&#45;&gt;Node2 -->
<g id="edge25_Node000013_Node000002" class="edge">
<title>Node13&#45;&gt;Node2</title>
<g id="a_edge25_Node000013_Node000002"><a xlink:title=" ">
<path fill="none" stroke="#63b8ff" d="M290.65,-329.98C270.69,-321.38 239.61,-307.99 216.76,-298.15"/>
<polygon fill="#63b8ff" stroke="#63b8ff" points="218.1,-294.91 207.53,-294.17 215.33,-301.34 218.1,-294.91"/>
</a>
</g>
</g>
<!-- Node13&#45;&gt;Node3 -->
<g id="edge24_Node000013_Node000003" class="edge">
<title>Node13&#45;&gt;Node3</title>
<g id="a_edge24_Node000013_Node000003"><a xlink:title=" ">
<path fill="none" stroke="#63b8ff" d="M308.44,-329.84C303.16,-308.45 286.77,-252.5 253.41,-220 237.9,-204.88 216.35,-194.37 197.32,-187.37"/>
<polygon fill="#63b8ff" stroke="#63b8ff" points="198.24,-183.99 187.64,-184.03 195.95,-190.6 198.24,-183.99"/>
</a>
</g>
</g>
<!-- Node13&#45;&gt;Node4 -->
<g id="edge26_Node000013_Node000004" class="edge">
<title>Node13&#45;&gt;Node4</title>
<g id="a_edge26_Node000013_Node000004"><a xlink:title=" ">
<path fill="none" stroke="#63b8ff" d="M259.91,-329.96C180.42,-315.31 32.26,-282.7 4.41,-239 -8.76,-218.33 11.17,-177.18 23.41,-165 45.55,-142.97 79,-131.84 106.55,-126.22"/>
<polygon fill="#63b8ff" stroke="#63b8ff" points="107.22,-129.66 116.41,-124.39 105.94,-122.77 107.22,-129.66"/>
</a>
</g>
</g>
<!-- Node13&#45;&gt;Node5 -->
<g id="edge27_Node000013_Node000005" class="edge">
<title>Node13&#45;&gt;Node5</title>
<g id="a_edge27_Node000013_Node000005"><a xlink:title=" ">
<path fill="none" stroke="#63b8ff" d="M364.58,-334.39C423.99,-328.79 514.27,-316.77 539.41,-294 561.25,-274.22 558.41,-259.96 558.41,-230.5 558.41,-230.5 558.41,-230.5 558.41,-173.5 558.41,-124.61 408.71,-89.63 327.45,-74.24"/>
<polygon fill="#63b8ff" stroke="#63b8ff" points="327.89,-70.76 317.42,-72.38 326.61,-77.65 327.89,-70.76"/>
</a>
</g>
</g>
<!-- Node13&#45;&gt;Node10 -->
<g id="edge20_Node000013_Node000010" class="edge">
<title>Node13&#45;&gt;Node10</title>
<g id="a_edge20_Node000013_Node000010"><a xlink:title=" ">
<path fill="none" stroke="#63b8ff" d="M310.73,-329.86C311.7,-316.34 315.52,-290.18 330.41,-275 365.55,-239.18 408.13,-279.75 437.41,-239 448.8,-223.15 433.3,-203.76 418.81,-190.61"/>
<polygon fill="#63b8ff" stroke="#63b8ff" points="420.93,-187.81 411.04,-184 416.39,-193.14 420.93,-187.81"/>
</a>
</g>
</g>
<!-- Node14 -->
<g id="Node000014" class="node">
<title>Node14</title>
<g id="a_Node000014"><a xlink:title=" ">
<polygon fill="#e0e0e0" stroke="#999999" points="385.91,-294 338.91,-294 338.91,-275 385.91,-275 385.91,-294"/>
<text text-anchor="middle" x="362.41" y="-282" font-family="Helvetica,sans-Serif" font-size="10.00">vector</text>
</a>
</g>
</g>
<!-- Node13&#45;&gt;Node14 -->
<g id="edge21_Node000013_Node000014" class="edge">
<title>Node13&#45;&gt;Node14</title>
<g id="a_edge21_Node000013_Node000014"><a xlink:title=" ">
<path fill="none" stroke="#63b8ff" d="M319,-329.75C326.57,-322.03 337.79,-310.6 346.93,-301.28"/>
<polygon fill="#63b8ff" stroke="#63b8ff" points="349.48,-303.68 353.99,-294.09 344.48,-298.78 349.48,-303.68"/>
</a>
</g>
</g>
<!-- Node15 -->
<g id="Node000015" class="node">
<title>Node15</title>
<g id="a_Node000015"><a xlink:title=" ">
<polygon fill="#e0e0e0" stroke="#999999" points="468.41,-294 404.41,-294 404.41,-275 468.41,-275 468.41,-294"/>
<text text-anchor="middle" x="436.41" y="-282" font-family="Helvetica,sans-Serif" font-size="10.00">algorithm</text>
</a>
</g>
</g>
<!-- Node13&#45;&gt;Node15 -->
<g id="edge22_Node000013_Node000015" class="edge">
<title>Node13&#45;&gt;Node15</title>
<g id="a_edge22_Node000013_Node000015"><a xlink:title=" ">
<path fill="none" stroke="#63b8ff" d="M330.66,-329.98C351.11,-321.38 382.94,-307.99 406.34,-298.15"/>
<polygon fill="#63b8ff" stroke="#63b8ff" points="407.94,-301.27 415.8,-294.17 405.23,-294.82 407.94,-301.27"/>
</a>
</g>
</g>
<!-- Node16 -->
<g id="Node000016" class="node">
<title>Node16</title>
<g id="a_Node000016"><a xlink:title=" ">
<polygon fill="#e0e0e0" stroke="#999999" points="530.41,-294 486.41,-294 486.41,-275 530.41,-275 530.41,-294"/>
<text text-anchor="middle" x="508.41" y="-282" font-family="Helvetica,sans-Serif" font-size="10.00">limits</text>
</a>
</g>
</g>
<!-- Node13&#45;&gt;Node16 -->
<g id="edge23_Node000013_Node000016" class="edge">
<title>Node13&#45;&gt;Node16</title>
<g id="a_edge23_Node000013_Node000016"><a xlink:title=" ">
<path fill="none" stroke="#63b8ff" d="M342.76,-329.95C374.44,-321.57 424.35,-308.31 476.62,-294.2"/>
<polygon fill="#63b8ff" stroke="#63b8ff" points="477.66,-297.54 486.4,-291.56 475.84,-290.79 477.66,-297.54"/>
</a>
</g>
</g>
</g>
</svg>
