<?xml version="1.0" encoding="UTF-8" standalone="no"?>
<!DOCTYPE svg PUBLIC "-//W3C//DTD SVG 1.1//EN"
 "http://www.w3.org/Graphics/SVG/1.1/DTD/svg11.dtd">
<!-- Generated by graphviz version 2.43.0 (0)
 -->
<!-- Title: src/core/Primitive.cpp Pages: 1 -->
<svg width="600pt" height="368pt"
 viewBox="0.00 0.00 599.51 368.00" xmlns="http://www.w3.org/2000/svg" xmlns:xlink="http://www.w3.org/1999/xlink">
<g id="graph0" class="graph" transform="scale(1 1) rotate(0) translate(4 364)">
<title>src/core/Primitive.cpp</title>
<!-- Node1 -->
<g id="Node000001" class="node">
<title>Node1</title>
<g id="a_Node000001"><a xlink:title=" ">
<polygon fill="#999999" stroke="#666666" points="231.51,-360 109.51,-360 109.51,-341 231.51,-341 231.51,-360"/>
<text text-anchor="middle" x="170.51" y="-348" font-family="Helvetica,sans-Serif" font-size="10.00">src/core/Primitive.cpp</text>
</a>
</g>
</g>
<!-- Node2 -->
<g id="Node000002" class="node">
<title>Node2</title>
<g id="a_Node000002"><a xlink:href="../../de/d81/APrimitive_8hpp.html" target="_top" xlink:title=" ">
<polygon fill="white" stroke="#666666" points="217.51,-305 123.51,-305 123.51,-275 217.51,-275 217.51,-305"/>
<text text-anchor="start" x="131.51" y="-293" font-family="Helvetica,sans-Serif" font-size="10.00">../../include/core</text>
<text text-anchor="middle" x="170.51" y="-282" font-family="Helvetica,sans-Serif" font-size="10.00">/APrimitive.hpp</text>
</a>
</g>
</g>
<!-- Node1&#45;&gt;Node2 -->
<g id="edge1_Node000001_Node000002" class="edge">
<title>Node1&#45;&gt;Node2</title>
<g id="a_edge1_Node000001_Node000002"><a xlink:title=" ">
<path fill="none" stroke="#63b8ff" d="M170.51,-340.87C170.51,-334.11 170.51,-324.35 170.51,-315.26"/>
<polygon fill="#63b8ff" stroke="#63b8ff" points="174.01,-315.11 170.51,-305.11 167.01,-315.11 174.01,-315.11"/>
</a>
</g>
</g>
<!-- Node3 -->
<g id="Node000003" class="node">
<title>Node3</title>
<g id="a_Node000003"><a xlink:href="../../d4/db2/Ray_8hpp.html" target="_top" xlink:title="Defines the Ray structure used for ray&#45;object intersection tests in the raytracer.">
<polygon fill="white" stroke="#666666" points="180.01,-184 101.01,-184 101.01,-165 180.01,-165 180.01,-184"/>
<text text-anchor="middle" x="140.51" y="-172" font-family="Helvetica,sans-Serif" font-size="10.00">core/Ray.hpp</text>
</a>
</g>
</g>
<!-- Node2&#45;&gt;Node3 -->
<g id="edge2_Node000002_Node000003" class="edge">
<title>Node2&#45;&gt;Node3</title>
<g id="a_edge2_Node000002_Node000003"><a xlink:title=" ">
<path fill="none" stroke="#63b8ff" d="M163.44,-274.91C158.8,-265.08 152.97,-251.52 149.51,-239 145.48,-224.37 143.19,-207.32 141.93,-194.58"/>
<polygon fill="#63b8ff" stroke="#63b8ff" points="145.39,-193.93 141.04,-184.27 138.41,-194.54 145.39,-193.93"/>
</a>
</g>
</g>
<!-- Node4 -->
<g id="Node000004" class="node">
<title>Node4</title>
<g id="a_Node000004"><a xlink:href="../../df/df2/Point3D_8hpp.html" target="_top" xlink:title="Defines a 3D point structure used in geometric computations.">
<polygon fill="white" stroke="#666666" points="189.51,-129 113.51,-129 113.51,-110 189.51,-110 189.51,-129"/>
<text text-anchor="middle" x="151.51" y="-117" font-family="Helvetica,sans-Serif" font-size="10.00">Point3D.hpp</text>
</a>
</g>
</g>
<!-- Node2&#45;&gt;Node4 -->
<g id="edge8_Node000002_Node000004" class="edge">
<title>Node2&#45;&gt;Node4</title>
<g id="a_edge8_Node000002_Node000004"><a xlink:title=" ">
<path fill="none" stroke="#63b8ff" d="M123.29,-288.62C85.5,-285.51 34.64,-274.41 8.51,-239 -26.45,-191.62 61.25,-151.53 114.39,-132.44"/>
<polygon fill="#63b8ff" stroke="#63b8ff" points="115.59,-135.73 123.88,-129.13 113.28,-129.13 115.59,-135.73"/>
</a>
</g>
</g>
<!-- Node5 -->
<g id="Node000005" class="node">
<title>Node5</title>
<g id="a_Node000005"><a xlink:href="../../d3/dde/Vector3D_8hpp.html" target="_top" xlink:title="Defines a 3D vector structure with basic arithmetic and transformation operations.">
<polygon fill="white" stroke="#666666" points="287.51,-74 205.51,-74 205.51,-55 287.51,-55 287.51,-74"/>
<text text-anchor="middle" x="246.51" y="-62" font-family="Helvetica,sans-Serif" font-size="10.00">Vector3D.hpp</text>
</a>
</g>
</g>
<!-- Node2&#45;&gt;Node5 -->
<g id="edge10_Node000002_Node000005" class="edge">
<title>Node2&#45;&gt;Node5</title>
<g id="a_edge10_Node000002_Node000005"><a xlink:title=" ">
<path fill="none" stroke="#63b8ff" d="M217.72,-278.22C238.6,-270.85 261.17,-258.71 273.51,-239 304.59,-189.36 273.82,-116.51 256.52,-83.24"/>
<polygon fill="#63b8ff" stroke="#63b8ff" points="259.5,-81.4 251.67,-74.26 253.34,-84.72 259.5,-81.4"/>
</a>
</g>
</g>
<!-- Node7 -->
<g id="Node000007" class="node">
<title>Node7</title>
<g id="a_Node000007"><a xlink:href="../../d8/d1e/Vector2D_8hpp.html" target="_top" xlink:title="Defines a 2D vector structure used for texture coordinates or screen&#45;space math operations.">
<polygon fill="white" stroke="#666666" points="264.51,-239 158.51,-239 158.51,-220 264.51,-220 264.51,-239"/>
<text text-anchor="middle" x="211.51" y="-227" font-family="Helvetica,sans-Serif" font-size="10.00">core/Vector2D.hpp</text>
</a>
</g>
</g>
<!-- Node2&#45;&gt;Node7 -->
<g id="edge9_Node000002_Node000007" class="edge">
<title>Node2&#45;&gt;Node7</title>
<g id="a_edge9_Node000002_Node000007"><a xlink:title=" ">
<path fill="none" stroke="#63b8ff" d="M180.44,-274.84C186.21,-266.61 193.52,-256.18 199.59,-247.51"/>
<polygon fill="#63b8ff" stroke="#63b8ff" points="202.5,-249.46 205.37,-239.27 196.76,-245.45 202.5,-249.46"/>
</a>
</g>
</g>
<!-- Node8 -->
<g id="Node000008" class="node">
<title>Node8</title>
<g id="a_Node000008"><a xlink:href="../../d0/d70/Material_8hpp.html" target="_top" xlink:title="Declares the physically&#45;based material descriptor used by the renderer.">
<polygon fill="white" stroke="#666666" points="455.51,-184 327.51,-184 327.51,-165 455.51,-165 455.51,-184"/>
<text text-anchor="middle" x="391.51" y="-172" font-family="Helvetica,sans-Serif" font-size="10.00">rendering/Material.hpp</text>
</a>
</g>
</g>
<!-- Node2&#45;&gt;Node8 -->
<g id="edge11_Node000002_Node000008" class="edge">
<title>Node2&#45;&gt;Node8</title>
<g id="a_edge11_Node000002_Node000008"><a xlink:title=" ">
<path fill="none" stroke="#63b8ff" d="M217.6,-275.41C244.47,-266.75 278.32,-254.29 306.51,-239 331.75,-225.31 357.76,-204.76 374.25,-190.77"/>
<polygon fill="#63b8ff" stroke="#63b8ff" points="376.66,-193.31 381.95,-184.13 372.09,-188.01 376.66,-193.31"/>
</a>
</g>
</g>
<!-- Node12 -->
<g id="Node000012" class="node">
<title>Node12</title>
<g id="a_Node000012"><a xlink:href="../../d0/d38/IPrimitive_8hpp.html" target="_top" xlink:title="Interface for geometric primitives in the raytracer.">
<polygon fill="white" stroke="#666666" points="102.01,-239 17.01,-239 17.01,-220 102.01,-220 102.01,-239"/>
<text text-anchor="middle" x="59.51" y="-227" font-family="Helvetica,sans-Serif" font-size="10.00">IPrimitive.hpp</text>
</a>
</g>
</g>
<!-- Node2&#45;&gt;Node12 -->
<g id="edge17_Node000002_Node000012" class="edge">
<title>Node2&#45;&gt;Node12</title>
<g id="a_edge17_Node000002_Node000012"><a xlink:title=" ">
<path fill="none" stroke="#63b8ff" d="M143.93,-274.99C126.07,-265.58 102.67,-253.24 85.04,-243.95"/>
<polygon fill="#63b8ff" stroke="#63b8ff" points="86.38,-240.71 75.91,-239.14 83.12,-246.9 86.38,-240.71"/>
</a>
</g>
</g>
<!-- Node3&#45;&gt;Node4 -->
<g id="edge3_Node000003_Node000004" class="edge">
<title>Node3&#45;&gt;Node4</title>
<g id="a_edge3_Node000003_Node000004"><a xlink:title=" ">
<path fill="none" stroke="#63b8ff" d="M142.33,-164.75C143.77,-157.8 145.84,-147.85 147.65,-139.13"/>
<polygon fill="#63b8ff" stroke="#63b8ff" points="151.12,-139.59 149.73,-129.09 144.27,-138.17 151.12,-139.59"/>
</a>
</g>
</g>
<!-- Node3&#45;&gt;Node5 -->
<g id="edge7_Node000003_Node000005" class="edge">
<title>Node3&#45;&gt;Node5</title>
<g id="a_edge7_Node000003_Node000005"><a xlink:title=" ">
<path fill="none" stroke="#63b8ff" d="M153.76,-164.87C166.08,-156.5 184.56,-143.05 198.51,-129 212.62,-114.8 226.13,-96.34 235.2,-82.98"/>
<polygon fill="#63b8ff" stroke="#63b8ff" points="238.35,-84.57 240.97,-74.3 232.52,-80.69 238.35,-84.57"/>
</a>
</g>
</g>
<!-- Node4&#45;&gt;Node5 -->
<g id="edge4_Node000004_Node000005" class="edge">
<title>Node4&#45;&gt;Node5</title>
<g id="a_edge4_Node000004_Node000005"><a xlink:title=" ">
<path fill="none" stroke="#63b8ff" d="M166.78,-109.98C181.65,-101.69 204.5,-88.94 221.93,-79.22"/>
<polygon fill="#63b8ff" stroke="#63b8ff" points="223.94,-82.1 230.97,-74.17 220.53,-75.99 223.94,-82.1"/>
</a>
</g>
</g>
<!-- Node6 -->
<g id="Node000006" class="node">
<title>Node6</title>
<g id="a_Node000006"><a xlink:title=" ">
<polygon fill="#e0e0e0" stroke="#999999" points="226.01,-19 179.01,-19 179.01,0 226.01,0 226.01,-19"/>
<text text-anchor="middle" x="202.51" y="-7" font-family="Helvetica,sans-Serif" font-size="10.00">cmath</text>
</a>
</g>
</g>
<!-- Node4&#45;&gt;Node6 -->
<g id="edge6_Node000004_Node000006" class="edge">
<title>Node4&#45;&gt;Node6</title>
<g id="a_edge6_Node000004_Node000006"><a xlink:title=" ">
<path fill="none" stroke="#63b8ff" d="M155.69,-109.66C164.06,-91.93 183.04,-51.73 194.1,-28.32"/>
<polygon fill="#63b8ff" stroke="#63b8ff" points="197.32,-29.7 198.42,-19.16 190.99,-26.71 197.32,-29.7"/>
</a>
</g>
</g>
<!-- Node5&#45;&gt;Node6 -->
<g id="edge5_Node000005_Node000006" class="edge">
<title>Node5&#45;&gt;Node6</title>
<g id="a_edge5_Node000005_Node000006"><a xlink:title=" ">
<path fill="none" stroke="#63b8ff" d="M239.25,-54.75C232.97,-47.18 223.72,-36.05 216.08,-26.84"/>
<polygon fill="#63b8ff" stroke="#63b8ff" points="218.72,-24.55 209.64,-19.09 213.34,-29.02 218.72,-24.55"/>
</a>
</g>
</g>
<!-- Node8&#45;&gt;Node5 -->
<g id="edge14_Node000008_Node000005" class="edge">
<title>Node8&#45;&gt;Node5</title>
<g id="a_edge14_Node000008_Node000005"><a xlink:title=" ">
<path fill="none" stroke="#63b8ff" d="M376.65,-164.86C362.21,-156.28 339.84,-142.49 321.51,-129 300.84,-113.78 278.56,-94.52 263.7,-81.22"/>
<polygon fill="#63b8ff" stroke="#63b8ff" points="265.65,-78.26 255.88,-74.15 260.95,-83.45 265.65,-78.26"/>
</a>
</g>
</g>
<!-- Node9 -->
<g id="Node000009" class="node">
<title>Node9</title>
<g id="a_Node000009"><a xlink:title=" ">
<polygon fill="#e0e0e0" stroke="#999999" points="515.51,-129 471.51,-129 471.51,-110 515.51,-110 515.51,-129"/>
<text text-anchor="middle" x="493.51" y="-117" font-family="Helvetica,sans-Serif" font-size="10.00">string</text>
</a>
</g>
</g>
<!-- Node8&#45;&gt;Node9 -->
<g id="edge12_Node000008_Node000009" class="edge">
<title>Node8&#45;&gt;Node9</title>
<g id="a_edge12_Node000008_Node000009"><a xlink:title=" ">
<path fill="none" stroke="#63b8ff" d="M407.9,-164.98C424.09,-156.57 449.08,-143.59 467.89,-133.81"/>
<polygon fill="#63b8ff" stroke="#63b8ff" points="469.57,-136.89 476.83,-129.17 466.34,-130.68 469.57,-136.89"/>
</a>
</g>
</g>
<!-- Node10 -->
<g id="Node000010" class="node">
<title>Node10</title>
<g id="a_Node000010"><a xlink:title=" ">
<polygon fill="#e0e0e0" stroke="#999999" points="591.51,-129 533.51,-129 533.51,-110 591.51,-110 591.51,-129"/>
<text text-anchor="middle" x="562.51" y="-117" font-family="Helvetica,sans-Serif" font-size="10.00">memory</text>
</a>
</g>
</g>
<!-- Node8&#45;&gt;Node10 -->
<g id="edge13_Node000008_Node000010" class="edge">
<title>Node8&#45;&gt;Node10</title>
<g id="a_edge13_Node000008_Node000010"><a xlink:title=" ">
<path fill="none" stroke="#63b8ff" d="M418.99,-164.98C447.7,-156.09 492.93,-142.07 524.93,-132.15"/>
<polygon fill="#63b8ff" stroke="#63b8ff" points="526.31,-135.39 534.82,-129.08 524.24,-128.7 526.31,-135.39"/>
</a>
</g>
</g>
<!-- Node11 -->
<g id="Node000011" class="node">
<title>Node11</title>
<g id="a_Node000011"><a xlink:href="../../d0/ddc/Texture_8hpp.html" target="_top" xlink:title="Declares the abstract base class for all 2&#45;D textures. (Solid colour, checkerboard,...">
<polygon fill="white" stroke="#666666" points="453.01,-129 330.01,-129 330.01,-110 453.01,-110 453.01,-129"/>
<text text-anchor="middle" x="391.51" y="-117" font-family="Helvetica,sans-Serif" font-size="10.00">rendering/Texture.hpp</text>
</a>
</g>
</g>
<!-- Node8&#45;&gt;Node11 -->
<g id="edge15_Node000008_Node000011" class="edge">
<title>Node8&#45;&gt;Node11</title>
<g id="a_edge15_Node000008_Node000011"><a xlink:title=" ">
<path fill="none" stroke="#63b8ff" d="M391.51,-164.75C391.51,-157.8 391.51,-147.85 391.51,-139.13"/>
<polygon fill="#63b8ff" stroke="#63b8ff" points="395.01,-139.09 391.51,-129.09 388.01,-139.09 395.01,-139.09"/>
</a>
</g>
</g>
<!-- Node11&#45;&gt;Node5 -->
<g id="edge16_Node000011_Node000005" class="edge">
<title>Node11&#45;&gt;Node5</title>
<g id="a_edge16_Node000011_Node000005"><a xlink:title=" ">
<path fill="none" stroke="#63b8ff" d="M368.22,-109.98C344.26,-101.23 306.73,-87.51 279.68,-77.62"/>
<polygon fill="#63b8ff" stroke="#63b8ff" points="280.83,-74.32 270.23,-74.17 278.42,-80.89 280.83,-74.32"/>
</a>
</g>
</g>
<!-- Node12&#45;&gt;Node3 -->
<g id="edge18_Node000012_Node000003" class="edge">
<title>Node12&#45;&gt;Node3</title>
<g id="a_edge18_Node000012_Node000003"><a xlink:title=" ">
<path fill="none" stroke="#63b8ff" d="M72.53,-219.98C84.97,-211.84 103.97,-199.41 118.72,-189.76"/>
<polygon fill="#63b8ff" stroke="#63b8ff" points="120.81,-192.57 127.26,-184.17 116.98,-186.72 120.81,-192.57"/>
</a>
</g>
</g>
</g>
</svg>
