<?xml version="1.0" encoding="UTF-8" standalone="no"?>
<!DOCTYPE svg PUBLIC "-//W3C//DTD SVG 1.1//EN"
 "http://www.w3.org/Graphics/SVG/1.1/DTD/svg11.dtd">
<!-- Generated by graphviz version 2.43.0 (0)
 -->
<!-- Title: RayTracer::Triangle::hits Pages: 1 -->
<svg width="281pt" height="101pt"
 viewBox="0.00 0.00 281.00 101.00" xmlns="http://www.w3.org/2000/svg" xmlns:xlink="http://www.w3.org/1999/xlink">
<g id="graph0" class="graph" transform="scale(1 1) rotate(0) translate(4 97)">
<title>RayTracer::Triangle::hits</title>
<!-- Node1 -->
<g id="Node000001" class="node">
<title>Node1</title>
<g id="a_Node000001"><a xlink:title="Ray–triangle intersection test with hit record.">
<polygon fill="#999999" stroke="#666666" points="109,-61.5 0,-61.5 0,-31.5 109,-31.5 109,-61.5"/>
<text text-anchor="start" x="8" y="-49.5" font-family="Helvetica,sans-Serif" font-size="10.00">RayTracer::Triangle</text>
<text text-anchor="middle" x="54.5" y="-38.5" font-family="Helvetica,sans-Serif" font-size="10.00">::hits</text>
</a>
</g>
</g>
<!-- Node2 -->
<g id="Node000002" class="node">
<title>Node2</title>
<g id="a_Node000002"><a xlink:href="../../d6/d30/structMath_1_1Vector3D.html#ad9bca728f96bfb94acebaf6cc63109c3" target="_top" xlink:title="Computes the cross product between this and another vector.">
<polygon fill="white" stroke="#666666" points="270.5,-93 147.5,-93 147.5,-74 270.5,-74 270.5,-93"/>
<text text-anchor="middle" x="209" y="-81" font-family="Helvetica,sans-Serif" font-size="10.00">Math::Vector3D::cross</text>
</a>
</g>
</g>
<!-- Node1&#45;&gt;Node2 -->
<g id="edge1_Node000001_Node000002" class="edge">
<title>Node1&#45;&gt;Node2</title>
<g id="a_edge1_Node000001_Node000002"><a xlink:title=" ">
<path fill="none" stroke="#63b8ff" d="M109.27,-59.54C125.3,-63.44 142.8,-67.68 158.55,-71.5"/>
<polygon fill="#63b8ff" stroke="#63b8ff" points="158.07,-74.99 168.61,-73.94 159.72,-68.18 158.07,-74.99"/>
</a>
</g>
</g>
<!-- Node3 -->
<g id="Node000003" class="node">
<title>Node3</title>
<g id="a_Node000003"><a xlink:href="../../d6/d30/structMath_1_1Vector3D.html#aa57c357f4be8837461cdd32bd3e5d7dc" target="_top" xlink:title="Computes the dot product between this and another vector.">
<polygon fill="white" stroke="#666666" points="265.5,-56 152.5,-56 152.5,-37 265.5,-37 265.5,-56"/>
<text text-anchor="middle" x="209" y="-44" font-family="Helvetica,sans-Serif" font-size="10.00">Math::Vector3D::dot</text>
</a>
</g>
</g>
<!-- Node1&#45;&gt;Node3 -->
<g id="edge2_Node000001_Node000003" class="edge">
<title>Node1&#45;&gt;Node3</title>
<g id="a_edge2_Node000001_Node000003"><a xlink:title=" ">
<path fill="none" stroke="#63b8ff" d="M109.27,-46.5C119.97,-46.5 131.32,-46.5 142.37,-46.5"/>
<polygon fill="#63b8ff" stroke="#63b8ff" points="142.4,-50 152.4,-46.5 142.4,-43 142.4,-50"/>
</a>
</g>
</g>
<!-- Node4 -->
<g id="Node000004" class="node">
<title>Node4</title>
<g id="a_Node000004"><a xlink:href="../../d6/d30/structMath_1_1Vector3D.html#a4c208026b6867d4c99afa13ddc3b9278" target="_top" xlink:title="Computes the Euclidean length (norm) of the vector.">
<polygon fill="white" stroke="#666666" points="273,-19 145,-19 145,0 273,0 273,-19"/>
<text text-anchor="middle" x="209" y="-7" font-family="Helvetica,sans-Serif" font-size="10.00">Math::Vector3D::length</text>
</a>
</g>
</g>
<!-- Node1&#45;&gt;Node4 -->
<g id="edge3_Node000001_Node000004" class="edge">
<title>Node1&#45;&gt;Node4</title>
<g id="a_edge3_Node000001_Node000004"><a xlink:title=" ">
<path fill="none" stroke="#63b8ff" d="M109.27,-33.46C125.3,-29.56 142.8,-25.32 158.55,-21.5"/>
<polygon fill="#63b8ff" stroke="#63b8ff" points="159.72,-24.82 168.61,-19.06 158.07,-18.01 159.72,-24.82"/>
</a>
</g>
</g>
</g>
</svg>
