<?xml version="1.0" encoding="UTF-8" standalone="no"?>
<!DOCTYPE svg PUBLIC "-//W3C//DTD SVG 1.1//EN"
 "http://www.w3.org/Graphics/SVG/1.1/DTD/svg11.dtd">
<!-- Generated by graphviz version 2.43.0 (0)
 -->
<!-- Title: include/rendering/Camera.hpp Pages: 1 -->
<svg width="294pt" height="247pt"
 viewBox="0.00 0.00 294.00 247.00" xmlns="http://www.w3.org/2000/svg" xmlns:xlink="http://www.w3.org/1999/xlink">
<g id="graph0" class="graph" transform="scale(1 1) rotate(0) translate(4 243)">
<title>include/rendering/Camera.hpp</title>
<!-- Node1 -->
<g id="Node000001" class="node">
<title>Node1</title>
<g id="a_Node000001"><a xlink:title="Declares the pin&#45;hole / thin&#45;lens camera used by the ray tracer.">
<polygon fill="#999999" stroke="#666666" points="248,-239 84,-239 84,-220 248,-220 248,-239"/>
<text text-anchor="middle" x="166" y="-227" font-family="Helvetica,sans-Serif" font-size="10.00">include/rendering/Camera.hpp</text>
</a>
</g>
</g>
<!-- Node2 -->
<g id="Node000002" class="node">
<title>Node2</title>
<g id="a_Node000002"><a xlink:href="../../df/df2/Point3D_8hpp.html" target="_top" xlink:title="Defines a 3D point structure used in geometric computations.">
<polygon fill="white" stroke="#666666" points="100,-129 0,-129 0,-110 100,-110 100,-129"/>
<text text-anchor="middle" x="50" y="-117" font-family="Helvetica,sans-Serif" font-size="10.00">core/Point3D.hpp</text>
</a>
</g>
</g>
<!-- Node1&#45;&gt;Node2 -->
<g id="edge1_Node000001_Node000002" class="edge">
<title>Node1&#45;&gt;Node2</title>
<g id="a_edge1_Node000001_Node000002"><a xlink:title=" ">
<path fill="none" stroke="#63b8ff" d="M106.53,-219.98C85.07,-213.71 62.95,-202.84 50,-184 41.12,-171.08 42.1,-152.93 44.73,-139.33"/>
<polygon fill="#63b8ff" stroke="#63b8ff" points="48.23,-139.74 47.15,-129.21 41.43,-138.12 48.23,-139.74"/>
</a>
</g>
</g>
<!-- Node3 -->
<g id="Node000003" class="node">
<title>Node3</title>
<g id="a_Node000003"><a xlink:href="../../d3/dde/Vector3D_8hpp.html" target="_top" xlink:title="Defines a 3D vector structure with basic arithmetic and transformation operations.">
<polygon fill="white" stroke="#666666" points="169,-74 87,-74 87,-55 169,-55 169,-74"/>
<text text-anchor="middle" x="128" y="-62" font-family="Helvetica,sans-Serif" font-size="10.00">Vector3D.hpp</text>
</a>
</g>
</g>
<!-- Node1&#45;&gt;Node3 -->
<g id="edge5_Node000001_Node000003" class="edge">
<title>Node1&#45;&gt;Node3</title>
<g id="a_edge5_Node000001_Node000003"><a xlink:title=" ">
<path fill="none" stroke="#63b8ff" d="M163.96,-219.74C158,-194.2 140.57,-119.43 132.37,-84.23"/>
<polygon fill="#63b8ff" stroke="#63b8ff" points="135.73,-83.25 130.05,-74.31 128.92,-84.84 135.73,-83.25"/>
</a>
</g>
</g>
<!-- Node4 -->
<g id="Node000004" class="node">
<title>Node4</title>
<g id="a_Node000004"><a xlink:title=" ">
<polygon fill="#e0e0e0" stroke="#999999" points="151.5,-19 104.5,-19 104.5,0 151.5,0 151.5,-19"/>
<text text-anchor="middle" x="128" y="-7" font-family="Helvetica,sans-Serif" font-size="10.00">cmath</text>
</a>
</g>
</g>
<!-- Node1&#45;&gt;Node4 -->
<g id="edge9_Node000001_Node000004" class="edge">
<title>Node1&#45;&gt;Node4</title>
<g id="a_edge9_Node000001_Node000004"><a xlink:title=" ">
<path fill="none" stroke="#63b8ff" d="M169.4,-219.69C179.02,-193.3 204.08,-113.13 178,-55 172.5,-42.74 161.77,-32.48 151.65,-24.91"/>
<polygon fill="#63b8ff" stroke="#63b8ff" points="153.64,-22.03 143.43,-19.2 149.65,-27.78 153.64,-22.03"/>
</a>
</g>
</g>
<!-- Node5 -->
<g id="Node000005" class="node">
<title>Node5</title>
<g id="a_Node000005"><a xlink:href="../../d4/db2/Ray_8hpp.html" target="_top" xlink:title="Defines the Ray structure used for ray&#45;object intersection tests in the raytracer.">
<polygon fill="white" stroke="#666666" points="137.5,-184 58.5,-184 58.5,-165 137.5,-165 137.5,-184"/>
<text text-anchor="middle" x="98" y="-172" font-family="Helvetica,sans-Serif" font-size="10.00">core/Ray.hpp</text>
</a>
</g>
</g>
<!-- Node1&#45;&gt;Node5 -->
<g id="edge6_Node000001_Node000005" class="edge">
<title>Node1&#45;&gt;Node5</title>
<g id="a_edge6_Node000001_Node000005"><a xlink:title=" ">
<path fill="none" stroke="#63b8ff" d="M155.07,-219.98C144.92,-212.07 129.58,-200.11 117.35,-190.58"/>
<polygon fill="#63b8ff" stroke="#63b8ff" points="119.16,-187.56 109.12,-184.17 114.86,-193.08 119.16,-187.56"/>
</a>
</g>
</g>
<!-- Node6 -->
<g id="Node000006" class="node">
<title>Node6</title>
<g id="a_Node000006"><a xlink:title=" ">
<polygon fill="#e0e0e0" stroke="#999999" points="286,-184 232,-184 232,-165 286,-165 286,-184"/>
<text text-anchor="middle" x="259" y="-172" font-family="Helvetica,sans-Serif" font-size="10.00">random</text>
</a>
</g>
</g>
<!-- Node1&#45;&gt;Node6 -->
<g id="edge10_Node000001_Node000006" class="edge">
<title>Node1&#45;&gt;Node6</title>
<g id="a_edge10_Node000001_Node000006"><a xlink:title=" ">
<path fill="none" stroke="#63b8ff" d="M180.94,-219.98C195.5,-211.69 217.87,-198.94 234.93,-189.22"/>
<polygon fill="#63b8ff" stroke="#63b8ff" points="236.83,-192.16 243.79,-184.17 233.36,-186.08 236.83,-192.16"/>
</a>
</g>
</g>
<!-- Node2&#45;&gt;Node3 -->
<g id="edge2_Node000002_Node000003" class="edge">
<title>Node2&#45;&gt;Node3</title>
<g id="a_edge2_Node000002_Node000003"><a xlink:title=" ">
<path fill="none" stroke="#63b8ff" d="M62.53,-109.98C74.4,-101.92 92.46,-89.65 106.61,-80.03"/>
<polygon fill="#63b8ff" stroke="#63b8ff" points="108.94,-82.69 115.24,-74.17 105,-76.9 108.94,-82.69"/>
</a>
</g>
</g>
<!-- Node2&#45;&gt;Node4 -->
<g id="edge4_Node000002_Node000004" class="edge">
<title>Node2&#45;&gt;Node4</title>
<g id="a_edge4_Node000002_Node000004"><a xlink:title=" ">
<path fill="none" stroke="#63b8ff" d="M52.56,-109.67C56.58,-96.8 65.23,-72.53 78,-55 86.15,-43.81 97.54,-33.4 107.39,-25.47"/>
<polygon fill="#63b8ff" stroke="#63b8ff" points="109.76,-28.06 115.53,-19.17 105.48,-22.52 109.76,-28.06"/>
</a>
</g>
</g>
<!-- Node3&#45;&gt;Node4 -->
<g id="edge3_Node000003_Node000004" class="edge">
<title>Node3&#45;&gt;Node4</title>
<g id="a_edge3_Node000003_Node000004"><a xlink:title=" ">
<path fill="none" stroke="#63b8ff" d="M128,-54.75C128,-47.8 128,-37.85 128,-29.13"/>
<polygon fill="#63b8ff" stroke="#63b8ff" points="131.5,-29.09 128,-19.09 124.5,-29.09 131.5,-29.09"/>
</a>
</g>
</g>
<!-- Node5&#45;&gt;Node2 -->
<g id="edge7_Node000005_Node000002" class="edge">
<title>Node5&#45;&gt;Node2</title>
<g id="a_edge7_Node000005_Node000002"><a xlink:title=" ">
<path fill="none" stroke="#63b8ff" d="M90.07,-164.75C83.15,-157.11 72.93,-145.82 64.55,-136.56"/>
<polygon fill="#63b8ff" stroke="#63b8ff" points="67.09,-134.15 57.78,-129.09 61.9,-138.85 67.09,-134.15"/>
</a>
</g>
</g>
<!-- Node5&#45;&gt;Node3 -->
<g id="edge8_Node000005_Node000003" class="edge">
<title>Node5&#45;&gt;Node3</title>
<g id="a_edge8_Node000005_Node000003"><a xlink:title=" ">
<path fill="none" stroke="#63b8ff" d="M100.46,-164.66C105.34,-147.09 116.35,-107.45 122.87,-83.95"/>
<polygon fill="#63b8ff" stroke="#63b8ff" points="126.29,-84.73 125.59,-74.16 119.55,-82.86 126.29,-84.73"/>
</a>
</g>
</g>
</g>
</svg>
