<?xml version="1.0" encoding="UTF-8" standalone="no"?>
<!DOCTYPE svg PUBLIC "-//W3C//DTD SVG 1.1//EN"
 "http://www.w3.org/Graphics/SVG/1.1/DTD/svg11.dtd">
<!-- Generated by graphviz version 2.43.0 (0)
 -->
<!-- Title: include/rendering/Scene.hpp Pages: 1 -->
<svg width="957pt" height="412pt"
 viewBox="0.00 0.00 956.63 412.00" xmlns="http://www.w3.org/2000/svg" xmlns:xlink="http://www.w3.org/1999/xlink">
<g id="graph0" class="graph" transform="scale(1 1) rotate(0) translate(4 408)">
<title>include/rendering/Scene.hpp</title>
<!-- Node1 -->
<g id="Node000001" class="node">
<title>Node1</title>
<g id="a_Node000001"><a xlink:title="Declares the scene container: camera, objects, lights, and top&#45;level BVH.">
<polygon fill="#999999" stroke="#666666" points="501.24,-404 346.24,-404 346.24,-385 501.24,-385 501.24,-404"/>
<text text-anchor="middle" x="423.74" y="-392" font-family="Helvetica,sans-Serif" font-size="10.00">include/rendering/Scene.hpp</text>
</a>
</g>
</g>
<!-- Node2 -->
<g id="Node000002" class="node">
<title>Node2</title>
<g id="a_Node000002"><a xlink:title=" ">
<polygon fill="#e0e0e0" stroke="#999999" points="65.24,-294 18.24,-294 18.24,-275 65.24,-275 65.24,-294"/>
<text text-anchor="middle" x="41.74" y="-282" font-family="Helvetica,sans-Serif" font-size="10.00">vector</text>
</a>
</g>
</g>
<!-- Node1&#45;&gt;Node2 -->
<g id="edge1_Node000001_Node000002" class="edge">
<title>Node1&#45;&gt;Node2</title>
<g id="a_edge1_Node000001_Node000002"><a xlink:title=" ">
<path fill="none" stroke="#63b8ff" d="M393.45,-384.94C323,-365.02 148.58,-315.71 75.17,-294.95"/>
<polygon fill="#63b8ff" stroke="#63b8ff" points="76.07,-291.57 65.5,-292.22 74.17,-298.3 76.07,-291.57"/>
</a>
</g>
</g>
<!-- Node3 -->
<g id="Node000003" class="node">
<title>Node3</title>
<g id="a_Node000003"><a xlink:title=" ">
<polygon fill="#e0e0e0" stroke="#999999" points="179.74,-184 121.74,-184 121.74,-165 179.74,-165 179.74,-184"/>
<text text-anchor="middle" x="150.74" y="-172" font-family="Helvetica,sans-Serif" font-size="10.00">memory</text>
</a>
</g>
</g>
<!-- Node1&#45;&gt;Node3 -->
<g id="edge2_Node000001_Node000003" class="edge">
<title>Node1&#45;&gt;Node3</title>
<g id="a_edge2_Node000001_Node000003"><a xlink:title=" ">
<path fill="none" stroke="#63b8ff" d="M345.94,-386.39C237.33,-374.65 49,-347.04 8.74,-294 -26.8,-247.17 61.14,-206.71 114.11,-187.46"/>
<polygon fill="#63b8ff" stroke="#63b8ff" points="115.3,-190.75 123.56,-184.12 112.96,-184.16 115.3,-190.75"/>
</a>
</g>
</g>
<!-- Node4 -->
<g id="Node000004" class="node">
<title>Node4</title>
<g id="a_Node000004"><a xlink:href="../../de/d81/APrimitive_8hpp.html" target="_top" xlink:title=" ">
<polygon fill="white" stroke="#666666" points="565.24,-294 452.24,-294 452.24,-275 565.24,-275 565.24,-294"/>
<text text-anchor="middle" x="508.74" y="-282" font-family="Helvetica,sans-Serif" font-size="10.00">core/APrimitive.hpp</text>
</a>
</g>
</g>
<!-- Node1&#45;&gt;Node4 -->
<g id="edge3_Node000001_Node000004" class="edge">
<title>Node1&#45;&gt;Node4</title>
<g id="a_edge3_Node000001_Node000004"><a xlink:title=" ">
<path fill="none" stroke="#63b8ff" d="M430.7,-384.66C444.9,-366.61 477.44,-325.28 495.7,-302.08"/>
<polygon fill="#63b8ff" stroke="#63b8ff" points="498.5,-304.18 501.93,-294.16 492.99,-299.85 498.5,-304.18"/>
</a>
</g>
</g>
<!-- Node14 -->
<g id="Node000014" class="node">
<title>Node14</title>
<g id="a_Node000014"><a xlink:href="../../d6/d80/Camera_8hpp.html" target="_top" xlink:title="Declares the pin&#45;hole / thin&#45;lens camera used by the ray tracer.">
<polygon fill="white" stroke="#666666" points="881.74,-239 805.74,-239 805.74,-220 881.74,-220 881.74,-239"/>
<text text-anchor="middle" x="843.74" y="-227" font-family="Helvetica,sans-Serif" font-size="10.00">Camera.hpp</text>
</a>
</g>
</g>
<!-- Node1&#45;&gt;Node14 -->
<g id="edge21_Node000001_Node000014" class="edge">
<title>Node1&#45;&gt;Node14</title>
<g id="a_edge21_Node000001_Node000014"><a xlink:title=" ">
<path fill="none" stroke="#63b8ff" d="M501.42,-390.99C589.01,-386.87 724.82,-376.19 767.74,-349 805.13,-325.32 827.65,-275.86 837.63,-248.93"/>
<polygon fill="#63b8ff" stroke="#63b8ff" points="841.03,-249.81 841.05,-239.21 834.43,-247.49 841.03,-249.81"/>
</a>
</g>
</g>
<!-- Node16 -->
<g id="Node000016" class="node">
<title>Node16</title>
<g id="a_Node000016"><a xlink:href="../../da/da7/ILight_8hpp.html" target="_top" xlink:title="Abstract interface for all light sources in the path tracer.">
<polygon fill="white" stroke="#666666" points="825.24,-184 760.24,-184 760.24,-165 825.24,-165 825.24,-184"/>
<text text-anchor="middle" x="792.74" y="-172" font-family="Helvetica,sans-Serif" font-size="10.00">ILight.hpp</text>
</a>
</g>
</g>
<!-- Node1&#45;&gt;Node16 -->
<g id="edge27_Node000001_Node000016" class="edge">
<title>Node1&#45;&gt;Node16</title>
<g id="a_edge27_Node000001_Node000016"><a xlink:title=" ">
<path fill="none" stroke="#63b8ff" d="M440.93,-384.91C474.06,-368.23 548.87,-329.91 609.74,-294 669.64,-258.67 737.82,-213.02 771.54,-190.05"/>
<polygon fill="#63b8ff" stroke="#63b8ff" points="773.82,-192.74 780.11,-184.21 769.88,-186.96 773.82,-192.74"/>
</a>
</g>
</g>
<!-- Node17 -->
<g id="Node000017" class="node">
<title>Node17</title>
<g id="a_Node000017"><a xlink:href="../../d9/dad/BVH_8hpp.html" target="_top" xlink:title="Declares the axis&#45;aligned bounding box (AABB) and the BVH node used for ray&#45;tracing acceleration.">
<polygon fill="white" stroke="#666666" points="369.24,-349 310.24,-349 310.24,-330 369.24,-330 369.24,-349"/>
<text text-anchor="middle" x="339.74" y="-337" font-family="Helvetica,sans-Serif" font-size="10.00">BVH.hpp</text>
</a>
</g>
</g>
<!-- Node1&#45;&gt;Node17 -->
<g id="edge30_Node000001_Node000017" class="edge">
<title>Node1&#45;&gt;Node17</title>
<g id="a_edge30_Node000001_Node000017"><a xlink:title=" ">
<path fill="none" stroke="#63b8ff" d="M410.25,-384.98C397.34,-376.84 377.64,-364.41 362.34,-354.76"/>
<polygon fill="#63b8ff" stroke="#63b8ff" points="363.81,-351.55 353.49,-349.17 360.08,-357.47 363.81,-351.55"/>
</a>
</g>
</g>
<!-- Node5 -->
<g id="Node000005" class="node">
<title>Node5</title>
<g id="a_Node000005"><a xlink:href="../../d4/db2/Ray_8hpp.html" target="_top" xlink:title="Defines the Ray structure used for ray&#45;object intersection tests in the raytracer.">
<polygon fill="white" stroke="#666666" points="626.24,-184 547.24,-184 547.24,-165 626.24,-165 626.24,-184"/>
<text text-anchor="middle" x="586.74" y="-172" font-family="Helvetica,sans-Serif" font-size="10.00">core/Ray.hpp</text>
</a>
</g>
</g>
<!-- Node4&#45;&gt;Node5 -->
<g id="edge4_Node000004_Node000005" class="edge">
<title>Node4&#45;&gt;Node5</title>
<g id="a_edge4_Node000004_Node000005"><a xlink:title=" ">
<path fill="none" stroke="#63b8ff" d="M471.96,-274.96C436.28,-264.92 390.32,-246.23 410.74,-220 426.14,-200.23 490.28,-187.86 536.7,-181.31"/>
<polygon fill="#63b8ff" stroke="#63b8ff" points="537.46,-184.74 546.9,-179.93 536.52,-177.81 537.46,-184.74"/>
</a>
</g>
</g>
<!-- Node6 -->
<g id="Node000006" class="node">
<title>Node6</title>
<g id="a_Node000006"><a xlink:href="../../df/df2/Point3D_8hpp.html" target="_top" xlink:title="Defines a 3D point structure used in geometric computations.">
<polygon fill="white" stroke="#666666" points="711.74,-129 635.74,-129 635.74,-110 711.74,-110 711.74,-129"/>
<text text-anchor="middle" x="673.74" y="-117" font-family="Helvetica,sans-Serif" font-size="10.00">Point3D.hpp</text>
</a>
</g>
</g>
<!-- Node4&#45;&gt;Node6 -->
<g id="edge10_Node000004_Node000006" class="edge">
<title>Node4&#45;&gt;Node6</title>
<g id="a_edge10_Node000004_Node000006"><a xlink:title=" ">
<path fill="none" stroke="#63b8ff" d="M565.35,-276.13C590.87,-270.08 619.52,-259.07 638.74,-239 665,-211.6 671.68,-165.48 673.3,-139.6"/>
<polygon fill="#63b8ff" stroke="#63b8ff" points="676.82,-139.41 673.75,-129.27 669.82,-139.11 676.82,-139.41"/>
</a>
</g>
</g>
<!-- Node7 -->
<g id="Node000007" class="node">
<title>Node7</title>
<g id="a_Node000007"><a xlink:href="../../d3/dde/Vector3D_8hpp.html" target="_top" xlink:title="Defines a 3D vector structure with basic arithmetic and transformation operations.">
<polygon fill="white" stroke="#666666" points="627.74,-74 545.74,-74 545.74,-55 627.74,-55 627.74,-74"/>
<text text-anchor="middle" x="586.74" y="-62" font-family="Helvetica,sans-Serif" font-size="10.00">Vector3D.hpp</text>
</a>
</g>
</g>
<!-- Node4&#45;&gt;Node7 -->
<g id="edge12_Node000004_Node000007" class="edge">
<title>Node4&#45;&gt;Node7</title>
<g id="a_edge12_Node000004_Node000007"><a xlink:title=" ">
<path fill="none" stroke="#63b8ff" d="M461.05,-274.96C426.08,-266.15 386.93,-249.44 400.74,-220 433.58,-150.05 515.36,-100.81 558.72,-78.67"/>
<polygon fill="#63b8ff" stroke="#63b8ff" points="560.48,-81.7 567.87,-74.11 557.36,-75.44 560.48,-81.7"/>
</a>
</g>
</g>
<!-- Node9 -->
<g id="Node000009" class="node">
<title>Node9</title>
<g id="a_Node000009"><a xlink:href="../../d8/d1e/Vector2D_8hpp.html" target="_top" xlink:title="Defines a 2D vector structure used for texture coordinates or screen&#45;space math operations.">
<polygon fill="white" stroke="#666666" points="525.74,-239 419.74,-239 419.74,-220 525.74,-220 525.74,-239"/>
<text text-anchor="middle" x="472.74" y="-227" font-family="Helvetica,sans-Serif" font-size="10.00">core/Vector2D.hpp</text>
</a>
</g>
</g>
<!-- Node4&#45;&gt;Node9 -->
<g id="edge11_Node000004_Node000009" class="edge">
<title>Node4&#45;&gt;Node9</title>
<g id="a_edge11_Node000004_Node000009"><a xlink:title=" ">
<path fill="none" stroke="#63b8ff" d="M502.8,-274.75C497.77,-267.34 490.41,-256.5 484.23,-247.41"/>
<polygon fill="#63b8ff" stroke="#63b8ff" points="487.09,-245.39 478.58,-239.09 481.3,-249.33 487.09,-245.39"/>
</a>
</g>
</g>
<!-- Node10 -->
<g id="Node000010" class="node">
<title>Node10</title>
<g id="a_Node000010"><a xlink:href="../../d0/d70/Material_8hpp.html" target="_top" xlink:title="Declares the physically&#45;based material descriptor used by the renderer.">
<polygon fill="white" stroke="#666666" points="287.74,-239 159.74,-239 159.74,-220 287.74,-220 287.74,-239"/>
<text text-anchor="middle" x="223.74" y="-227" font-family="Helvetica,sans-Serif" font-size="10.00">rendering/Material.hpp</text>
</a>
</g>
</g>
<!-- Node4&#45;&gt;Node10 -->
<g id="edge13_Node000004_Node000010" class="edge">
<title>Node4&#45;&gt;Node10</title>
<g id="a_edge13_Node000004_Node000010"><a xlink:title=" ">
<path fill="none" stroke="#63b8ff" d="M462.95,-274.98C413.14,-265.72 333.47,-250.9 279.91,-240.94"/>
<polygon fill="#63b8ff" stroke="#63b8ff" points="280.36,-237.47 269.89,-239.08 279.08,-244.35 280.36,-237.47"/>
</a>
</g>
</g>
<!-- Node13 -->
<g id="Node000013" class="node">
<title>Node13</title>
<g id="a_Node000013"><a xlink:href="../../d0/d38/IPrimitive_8hpp.html" target="_top" xlink:title="Interface for geometric primitives in the raytracer.">
<polygon fill="white" stroke="#666666" points="629.24,-239 544.24,-239 544.24,-220 629.24,-220 629.24,-239"/>
<text text-anchor="middle" x="586.74" y="-227" font-family="Helvetica,sans-Serif" font-size="10.00">IPrimitive.hpp</text>
</a>
</g>
</g>
<!-- Node4&#45;&gt;Node13 -->
<g id="edge19_Node000004_Node000013" class="edge">
<title>Node4&#45;&gt;Node13</title>
<g id="a_edge19_Node000004_Node000013"><a xlink:title=" ">
<path fill="none" stroke="#63b8ff" d="M521.28,-274.98C533.15,-266.92 551.21,-254.65 565.36,-245.03"/>
<polygon fill="#63b8ff" stroke="#63b8ff" points="567.68,-247.69 573.98,-239.17 563.75,-241.9 567.68,-247.69"/>
</a>
</g>
</g>
<!-- Node5&#45;&gt;Node6 -->
<g id="edge5_Node000005_Node000006" class="edge">
<title>Node5&#45;&gt;Node6</title>
<g id="a_edge5_Node000005_Node000006"><a xlink:title=" ">
<path fill="none" stroke="#63b8ff" d="M600.72,-164.98C614.21,-156.77 634.88,-144.18 650.79,-134.49"/>
<polygon fill="#63b8ff" stroke="#63b8ff" points="652.79,-137.36 659.51,-129.17 649.15,-131.38 652.79,-137.36"/>
</a>
</g>
</g>
<!-- Node5&#45;&gt;Node7 -->
<g id="edge9_Node000005_Node000007" class="edge">
<title>Node5&#45;&gt;Node7</title>
<g id="a_edge9_Node000005_Node000007"><a xlink:title=" ">
<path fill="none" stroke="#63b8ff" d="M586.74,-164.66C586.74,-147.17 586.74,-107.8 586.74,-84.27"/>
<polygon fill="#63b8ff" stroke="#63b8ff" points="590.24,-84.16 586.74,-74.16 583.24,-84.16 590.24,-84.16"/>
</a>
</g>
</g>
<!-- Node6&#45;&gt;Node7 -->
<g id="edge6_Node000006_Node000007" class="edge">
<title>Node6&#45;&gt;Node7</title>
<g id="a_edge6_Node000006_Node000007"><a xlink:title=" ">
<path fill="none" stroke="#63b8ff" d="M659.77,-109.98C646.28,-101.77 625.61,-89.18 609.7,-79.49"/>
<polygon fill="#63b8ff" stroke="#63b8ff" points="611.34,-76.38 600.98,-74.17 607.7,-82.36 611.34,-76.38"/>
</a>
</g>
</g>
<!-- Node8 -->
<g id="Node000008" class="node">
<title>Node8</title>
<g id="a_Node000008"><a xlink:title=" ">
<polygon fill="#e0e0e0" stroke="#999999" points="697.24,-19 650.24,-19 650.24,0 697.24,0 697.24,-19"/>
<text text-anchor="middle" x="673.74" y="-7" font-family="Helvetica,sans-Serif" font-size="10.00">cmath</text>
</a>
</g>
</g>
<!-- Node6&#45;&gt;Node8 -->
<g id="edge8_Node000006_Node000008" class="edge">
<title>Node6&#45;&gt;Node8</title>
<g id="a_edge8_Node000006_Node000008"><a xlink:title=" ">
<path fill="none" stroke="#63b8ff" d="M673.74,-109.66C673.74,-92.17 673.74,-52.8 673.74,-29.27"/>
<polygon fill="#63b8ff" stroke="#63b8ff" points="677.24,-29.16 673.74,-19.16 670.24,-29.16 677.24,-29.16"/>
</a>
</g>
</g>
<!-- Node7&#45;&gt;Node8 -->
<g id="edge7_Node000007_Node000008" class="edge">
<title>Node7&#45;&gt;Node8</title>
<g id="a_edge7_Node000007_Node000008"><a xlink:title=" ">
<path fill="none" stroke="#63b8ff" d="M600.72,-54.98C614.21,-46.77 634.88,-34.18 650.79,-24.49"/>
<polygon fill="#63b8ff" stroke="#63b8ff" points="652.79,-27.36 659.51,-19.17 649.15,-21.38 652.79,-27.36"/>
</a>
</g>
</g>
<!-- Node10&#45;&gt;Node3 -->
<g id="edge15_Node000010_Node000003" class="edge">
<title>Node10&#45;&gt;Node3</title>
<g id="a_edge15_Node000010_Node000003"><a xlink:title=" ">
<path fill="none" stroke="#63b8ff" d="M212.02,-219.98C201.01,-212 184.32,-199.88 171.14,-190.31"/>
<polygon fill="#63b8ff" stroke="#63b8ff" points="172.84,-187.21 162.69,-184.17 168.72,-192.88 172.84,-187.21"/>
</a>
</g>
</g>
<!-- Node10&#45;&gt;Node7 -->
<g id="edge16_Node000010_Node000007" class="edge">
<title>Node10&#45;&gt;Node7</title>
<g id="a_edge16_Node000010_Node000007"><a xlink:title=" ">
<path fill="none" stroke="#63b8ff" d="M228.92,-219.88C243.19,-197.05 285.65,-134.99 339.74,-110 403.02,-80.76 483.67,-70.69 535.27,-67.25"/>
<polygon fill="#63b8ff" stroke="#63b8ff" points="535.74,-70.72 545.51,-66.62 535.31,-63.74 535.74,-70.72"/>
</a>
</g>
</g>
<!-- Node11 -->
<g id="Node000011" class="node">
<title>Node11</title>
<g id="a_Node000011"><a xlink:title=" ">
<polygon fill="#e0e0e0" stroke="#999999" points="325.74,-184 281.74,-184 281.74,-165 325.74,-165 325.74,-184"/>
<text text-anchor="middle" x="303.74" y="-172" font-family="Helvetica,sans-Serif" font-size="10.00">string</text>
</a>
</g>
</g>
<!-- Node10&#45;&gt;Node11 -->
<g id="edge14_Node000010_Node000011" class="edge">
<title>Node10&#45;&gt;Node11</title>
<g id="a_edge14_Node000010_Node000011"><a xlink:title=" ">
<path fill="none" stroke="#63b8ff" d="M236.6,-219.98C248.89,-211.84 267.65,-199.41 282.22,-189.76"/>
<polygon fill="#63b8ff" stroke="#63b8ff" points="284.25,-192.61 290.66,-184.17 280.39,-186.78 284.25,-192.61"/>
</a>
</g>
</g>
<!-- Node12 -->
<g id="Node000012" class="node">
<title>Node12</title>
<g id="a_Node000012"><a xlink:href="../../d0/ddc/Texture_8hpp.html" target="_top" xlink:title="Declares the abstract base class for all 2&#45;D textures. (Solid colour, checkerboard,...">
<polygon fill="white" stroke="#666666" points="245.24,-129 122.24,-129 122.24,-110 245.24,-110 245.24,-129"/>
<text text-anchor="middle" x="183.74" y="-117" font-family="Helvetica,sans-Serif" font-size="10.00">rendering/Texture.hpp</text>
</a>
</g>
</g>
<!-- Node10&#45;&gt;Node12 -->
<g id="edge17_Node000010_Node000012" class="edge">
<title>Node10&#45;&gt;Node12</title>
<g id="a_edge17_Node000010_Node000012"><a xlink:title=" ">
<path fill="none" stroke="#63b8ff" d="M220.47,-219.66C213.93,-202.01 199.15,-162.09 190.46,-138.64"/>
<polygon fill="#63b8ff" stroke="#63b8ff" points="193.71,-137.32 186.95,-129.16 187.14,-139.75 193.71,-137.32"/>
</a>
</g>
</g>
<!-- Node12&#45;&gt;Node7 -->
<g id="edge18_Node000012_Node000007" class="edge">
<title>Node12&#45;&gt;Node7</title>
<g id="a_edge18_Node000012_Node000007"><a xlink:title=" ">
<path fill="none" stroke="#63b8ff" d="M245.39,-110.39C324.89,-99.94 461.69,-81.95 535.67,-72.22"/>
<polygon fill="#63b8ff" stroke="#63b8ff" points="536.23,-75.67 545.68,-70.9 535.31,-68.73 536.23,-75.67"/>
</a>
</g>
</g>
<!-- Node13&#45;&gt;Node5 -->
<g id="edge20_Node000013_Node000005" class="edge">
<title>Node13&#45;&gt;Node5</title>
<g id="a_edge20_Node000013_Node000005"><a xlink:title=" ">
<path fill="none" stroke="#63b8ff" d="M586.74,-219.75C586.74,-212.8 586.74,-202.85 586.74,-194.13"/>
<polygon fill="#63b8ff" stroke="#63b8ff" points="590.24,-194.09 586.74,-184.09 583.24,-194.09 590.24,-194.09"/>
</a>
</g>
</g>
<!-- Node14&#45;&gt;Node5 -->
<g id="edge24_Node000014_Node000005" class="edge">
<title>Node14&#45;&gt;Node5</title>
<g id="a_edge24_Node000014_Node000005"><a xlink:title=" ">
<path fill="none" stroke="#63b8ff" d="M805.55,-220.62C760.55,-211.34 685.67,-195.9 636.25,-185.71"/>
<polygon fill="#63b8ff" stroke="#63b8ff" points="636.92,-182.27 626.42,-183.68 635.51,-189.13 636.92,-182.27"/>
</a>
</g>
</g>
<!-- Node14&#45;&gt;Node6 -->
<g id="edge22_Node000014_Node000006" class="edge">
<title>Node14&#45;&gt;Node6</title>
<g id="a_edge22_Node000014_Node000006"><a xlink:title=" ">
<path fill="none" stroke="#63b8ff" d="M822.54,-219.92C803.4,-211.8 774.79,-198.67 751.74,-184 729.12,-169.6 705.58,-149.63 690.35,-135.95"/>
<polygon fill="#63b8ff" stroke="#63b8ff" points="692.56,-133.22 682.81,-129.07 687.84,-138.4 692.56,-133.22"/>
</a>
</g>
</g>
<!-- Node14&#45;&gt;Node7 -->
<g id="edge23_Node000014_Node000007" class="edge">
<title>Node14&#45;&gt;Node7</title>
<g id="a_edge23_Node000014_Node000007"><a xlink:title=" ">
<path fill="none" stroke="#63b8ff" d="M844.69,-219.91C845.68,-206.92 845.79,-181.99 834.74,-165 791.92,-99.14 697.25,-76.87 638.05,-69.35"/>
<polygon fill="#63b8ff" stroke="#63b8ff" points="638.13,-65.83 627.79,-68.14 637.31,-72.78 638.13,-65.83"/>
</a>
</g>
</g>
<!-- Node14&#45;&gt;Node8 -->
<g id="edge25_Node000014_Node000008" class="edge">
<title>Node14&#45;&gt;Node8</title>
<g id="a_edge25_Node000014_Node000008"><a xlink:title=" ">
<path fill="none" stroke="#63b8ff" d="M882.07,-220.67C917.23,-211.52 961.5,-193.83 944.74,-165 892.79,-75.58 767.56,-33.6 707.28,-18.04"/>
<polygon fill="#63b8ff" stroke="#63b8ff" points="708.05,-14.62 697.5,-15.6 706.35,-21.41 708.05,-14.62"/>
</a>
</g>
</g>
<!-- Node15 -->
<g id="Node000015" class="node">
<title>Node15</title>
<g id="a_Node000015"><a xlink:title=" ">
<polygon fill="#e0e0e0" stroke="#999999" points="935.74,-184 881.74,-184 881.74,-165 935.74,-165 935.74,-184"/>
<text text-anchor="middle" x="908.74" y="-172" font-family="Helvetica,sans-Serif" font-size="10.00">random</text>
</a>
</g>
</g>
<!-- Node14&#45;&gt;Node15 -->
<g id="edge26_Node000014_Node000015" class="edge">
<title>Node14&#45;&gt;Node15</title>
<g id="a_edge26_Node000014_Node000015"><a xlink:title=" ">
<path fill="none" stroke="#63b8ff" d="M854.19,-219.98C863.89,-212.07 878.56,-200.11 890.24,-190.58"/>
<polygon fill="#63b8ff" stroke="#63b8ff" points="892.57,-193.2 898.11,-184.17 888.15,-187.78 892.57,-193.2"/>
</a>
</g>
</g>
<!-- Node16&#45;&gt;Node6 -->
<g id="edge28_Node000016_Node000006" class="edge">
<title>Node16&#45;&gt;Node6</title>
<g id="a_edge28_Node000016_Node000006"><a xlink:title=" ">
<path fill="none" stroke="#63b8ff" d="M773.63,-164.98C754.4,-156.42 724.51,-143.11 702.44,-133.28"/>
<polygon fill="#63b8ff" stroke="#63b8ff" points="703.77,-130.04 693.21,-129.17 700.92,-136.44 703.77,-130.04"/>
</a>
</g>
</g>
<!-- Node16&#45;&gt;Node7 -->
<g id="edge29_Node000016_Node000007" class="edge">
<title>Node16&#45;&gt;Node7</title>
<g id="a_edge29_Node000016_Node000007"><a xlink:title=" ">
<path fill="none" stroke="#63b8ff" d="M785.17,-164.88C772.9,-151.4 747.33,-125.28 720.74,-110 694.27,-94.78 661.82,-83.84 635.49,-76.61"/>
<polygon fill="#63b8ff" stroke="#63b8ff" points="636.29,-73.2 625.73,-74.02 634.5,-79.97 636.29,-73.2"/>
</a>
</g>
</g>
<!-- Node17&#45;&gt;Node2 -->
<g id="edge32_Node000017_Node000002" class="edge">
<title>Node17&#45;&gt;Node2</title>
<g id="a_edge32_Node000017_Node000002"><a xlink:title=" ">
<path fill="none" stroke="#63b8ff" d="M310.02,-333.91C261.63,-326.34 162.86,-310.4 79.74,-294 78.29,-293.71 76.81,-293.41 75.32,-293.11"/>
<polygon fill="#63b8ff" stroke="#63b8ff" points="75.93,-289.66 65.42,-290.99 74.47,-296.5 75.93,-289.66"/>
</a>
</g>
</g>
<!-- Node17&#45;&gt;Node3 -->
<g id="edge31_Node000017_Node000003" class="edge">
<title>Node17&#45;&gt;Node3</title>
<g id="a_edge31_Node000017_Node000003"><a xlink:title=" ">
<path fill="none" stroke="#63b8ff" d="M310.24,-332.85C266.43,-322.69 185.62,-296.78 150.74,-239 142.64,-225.58 143.54,-207.48 145.94,-194.04"/>
<polygon fill="#63b8ff" stroke="#63b8ff" points="149.41,-194.56 148.15,-184.04 142.57,-193.06 149.41,-194.56"/>
</a>
</g>
</g>
<!-- Node17&#45;&gt;Node4 -->
<g id="edge36_Node000017_Node000004" class="edge">
<title>Node17&#45;&gt;Node4</title>
<g id="a_edge36_Node000017_Node000004"><a xlink:title=" ">
<path fill="none" stroke="#63b8ff" d="M366.9,-329.98C395.27,-321.09 439.98,-307.07 471.61,-297.15"/>
<polygon fill="#63b8ff" stroke="#63b8ff" points="472.88,-300.41 481.38,-294.08 470.79,-293.73 472.88,-300.41"/>
</a>
</g>
</g>
<!-- Node17&#45;&gt;Node5 -->
<g id="edge35_Node000017_Node000005" class="edge">
<title>Node17&#45;&gt;Node5</title>
<g id="a_edge35_Node000017_Node000005"><a xlink:title=" ">
<path fill="none" stroke="#63b8ff" d="M327.31,-329.99C311.27,-317.92 286.77,-295.06 298.74,-275 347.16,-193.88 468.18,-177.52 536.94,-175.04"/>
<polygon fill="#63b8ff" stroke="#63b8ff" points="537.2,-178.53 547.1,-174.76 537.01,-171.54 537.2,-178.53"/>
</a>
</g>
</g>
<!-- Node17&#45;&gt;Node6 -->
<g id="edge37_Node000017_Node000006" class="edge">
<title>Node17&#45;&gt;Node6</title>
<g id="a_edge37_Node000017_Node000006"><a xlink:title=" ">
<path fill="none" stroke="#63b8ff" d="M369.36,-336.61C414.96,-332.89 504.47,-322.35 574.74,-294 616.13,-277.31 630.76,-273.76 658.74,-239 680.19,-212.37 682.03,-199.11 679.74,-165 679.18,-156.54 678.01,-147.24 676.85,-139.34"/>
<polygon fill="#63b8ff" stroke="#63b8ff" points="680.29,-138.67 675.29,-129.33 673.37,-139.75 680.29,-138.67"/>
</a>
</g>
</g>
<!-- Node17&#45;&gt;Node7 -->
<g id="edge38_Node000017_Node000007" class="edge">
<title>Node17&#45;&gt;Node7</title>
<g id="a_edge38_Node000017_Node000007"><a xlink:title=" ">
<path fill="none" stroke="#63b8ff" d="M310.07,-333.72C276.83,-327.61 221.97,-315.18 178.74,-294 136.4,-273.25 93.74,-277.66 93.74,-230.5 93.74,-230.5 93.74,-230.5 93.74,-173.5 93.74,-143.91 90.73,-128.6 113.74,-110 146.01,-83.92 419.67,-71.35 535.4,-67.16"/>
<polygon fill="#63b8ff" stroke="#63b8ff" points="535.57,-70.66 545.44,-66.8 535.32,-63.66 535.57,-70.66"/>
</a>
</g>
</g>
<!-- Node18 -->
<g id="Node000018" class="node">
<title>Node18</title>
<g id="a_Node000018"><a xlink:title=" ">
<polygon fill="#e0e0e0" stroke="#999999" points="371.74,-294 307.74,-294 307.74,-275 371.74,-275 371.74,-294"/>
<text text-anchor="middle" x="339.74" y="-282" font-family="Helvetica,sans-Serif" font-size="10.00">algorithm</text>
</a>
</g>
</g>
<!-- Node17&#45;&gt;Node18 -->
<g id="edge33_Node000017_Node000018" class="edge">
<title>Node17&#45;&gt;Node18</title>
<g id="a_edge33_Node000017_Node000018"><a xlink:title=" ">
<path fill="none" stroke="#63b8ff" d="M339.74,-329.75C339.74,-322.8 339.74,-312.85 339.74,-304.13"/>
<polygon fill="#63b8ff" stroke="#63b8ff" points="343.24,-304.09 339.74,-294.09 336.24,-304.09 343.24,-304.09"/>
</a>
</g>
</g>
<!-- Node19 -->
<g id="Node000019" class="node">
<title>Node19</title>
<g id="a_Node000019"><a xlink:title=" ">
<polygon fill="#e0e0e0" stroke="#999999" points="433.74,-294 389.74,-294 389.74,-275 433.74,-275 433.74,-294"/>
<text text-anchor="middle" x="411.74" y="-282" font-family="Helvetica,sans-Serif" font-size="10.00">limits</text>
</a>
</g>
</g>
<!-- Node17&#45;&gt;Node19 -->
<g id="edge34_Node000017_Node000019" class="edge">
<title>Node17&#45;&gt;Node19</title>
<g id="a_edge34_Node000017_Node000019"><a xlink:title=" ">
<path fill="none" stroke="#63b8ff" d="M351.31,-329.98C362.16,-322 378.63,-309.88 391.63,-300.31"/>
<polygon fill="#63b8ff" stroke="#63b8ff" points="393.99,-302.92 399.97,-294.17 389.84,-297.28 393.99,-302.92"/>
</a>
</g>
</g>
</g>
</svg>
