<?xml version="1.0" encoding="UTF-8" standalone="no"?>
<!DOCTYPE svg PUBLIC "-//W3C//DTD SVG 1.1//EN"
 "http://www.w3.org/Graphics/SVG/1.1/DTD/svg11.dtd">
<!-- Generated by graphviz version 2.43.0 (0)
 -->
<!-- Title: RayTracer::Camera::Camera Pages: 1 -->
<svg width="287pt" height="64pt"
 viewBox="0.00 0.00 287.00 64.00" xmlns="http://www.w3.org/2000/svg" xmlns:xlink="http://www.w3.org/1999/xlink">
<g id="graph0" class="graph" transform="scale(1 1) rotate(0) translate(4 60)">
<title>RayTracer::Camera::Camera</title>
<!-- Node1 -->
<g id="Node000001" class="node">
<title>Node1</title>
<g id="a_Node000001"><a xlink:title="Build a camera looking from lookfrom towards lookat.">
<polygon fill="#999999" stroke="#666666" points="115,-42.5 0,-42.5 0,-12.5 115,-12.5 115,-42.5"/>
<text text-anchor="start" x="8" y="-30.5" font-family="Helvetica,sans-Serif" font-size="10.00">RayTracer::Camera::</text>
<text text-anchor="middle" x="57.5" y="-19.5" font-family="Helvetica,sans-Serif" font-size="10.00">Camera</text>
</a>
</g>
</g>
<!-- Node2 -->
<g id="Node000002" class="node">
<title>Node2</title>
<g id="a_Node000002"><a xlink:href="../../d6/d30/structMath_1_1Vector3D.html#ad9bca728f96bfb94acebaf6cc63109c3" target="_top" xlink:title="Computes the cross product between this and another vector.">
<polygon fill="white" stroke="#666666" points="276.5,-56 153.5,-56 153.5,-37 276.5,-37 276.5,-56"/>
<text text-anchor="middle" x="215" y="-44" font-family="Helvetica,sans-Serif" font-size="10.00">Math::Vector3D::cross</text>
</a>
</g>
</g>
<!-- Node1&#45;&gt;Node2 -->
<g id="edge1_Node000001_Node000002" class="edge">
<title>Node1&#45;&gt;Node2</title>
<g id="a_edge1_Node000001_Node000002"><a xlink:title=" ">
<path fill="none" stroke="#63b8ff" d="M115.08,-34.41C124.2,-35.53 133.74,-36.69 143.14,-37.84"/>
<polygon fill="#63b8ff" stroke="#63b8ff" points="142.92,-41.34 153.27,-39.08 143.77,-34.39 142.92,-41.34"/>
</a>
</g>
</g>
<!-- Node3 -->
<g id="Node000003" class="node">
<title>Node3</title>
<g id="a_Node000003"><a xlink:href="../../d6/d30/structMath_1_1Vector3D.html#a4c208026b6867d4c99afa13ddc3b9278" target="_top" xlink:title="Computes the Euclidean length (norm) of the vector.">
<polygon fill="white" stroke="#666666" points="279,-19 151,-19 151,0 279,0 279,-19"/>
<text text-anchor="middle" x="215" y="-7" font-family="Helvetica,sans-Serif" font-size="10.00">Math::Vector3D::length</text>
</a>
</g>
</g>
<!-- Node1&#45;&gt;Node3 -->
<g id="edge2_Node000001_Node000003" class="edge">
<title>Node1&#45;&gt;Node3</title>
<g id="a_edge2_Node000001_Node000003"><a xlink:title=" ">
<path fill="none" stroke="#63b8ff" d="M115.08,-20.95C123.44,-19.98 132.16,-18.97 140.8,-17.97"/>
<polygon fill="#63b8ff" stroke="#63b8ff" points="141.36,-21.43 150.89,-16.81 140.55,-14.48 141.36,-21.43"/>
</a>
</g>
</g>
</g>
</svg>
