<?xml version="1.0" encoding="UTF-8" standalone="no"?>
<!DOCTYPE svg PUBLIC "-//W3C//DTD SVG 1.1//EN"
 "http://www.w3.org/Graphics/SVG/1.1/DTD/svg11.dtd">
<!-- Generated by graphviz version 2.43.0 (0)
 -->
<!-- Title: RayTracer::Box Pages: 1 -->
<svg width="256pt" height="258pt"
 viewBox="0.00 0.00 255.50 258.00" xmlns="http://www.w3.org/2000/svg" xmlns:xlink="http://www.w3.org/1999/xlink">
<g id="graph0" class="graph" transform="scale(1 1) rotate(0) translate(4 254)">
<title>RayTracer::Box</title>
<!-- Node1 -->
<g id="Node000001" class="node">
<title>Node1</title>
<g id="a_Node000001"><a xlink:title="Axis&#45;aligned box primitive with ray intersection.">
<polygon fill="#999999" stroke="#666666" points="180.5,-19 91.5,-19 91.5,0 180.5,0 180.5,-19"/>
<text text-anchor="middle" x="136" y="-7" font-family="Helvetica,sans-Serif" font-size="10.00">RayTracer::Box</text>
</a>
</g>
</g>
<!-- Node2 -->
<g id="Node000002" class="node">
<title>Node2</title>
<g id="a_Node000002"><a xlink:href="../../d9/d3d/classRayTracer_1_1APrimitive.html" target="_top" xlink:title=" ">
<polygon fill="white" stroke="#666666" points="136,-96 14,-96 14,-77 136,-77 136,-96"/>
<text text-anchor="middle" x="75" y="-84" font-family="Helvetica,sans-Serif" font-size="10.00">RayTracer::APrimitive</text>
</a>
</g>
</g>
<!-- Node2&#45;&gt;Node1 -->
<g id="edge1_Node000001_Node000002" class="edge">
<title>Node2&#45;&gt;Node1</title>
<g id="a_edge1_Node000001_Node000002"><a xlink:title=" ">
<path fill="none" stroke="#63b8ff" d="M88.64,-68.73C101.19,-53.3 119.29,-31.04 129.08,-19"/>
<polygon fill="#63b8ff" stroke="#63b8ff" points="85.59,-66.93 82,-76.9 91.02,-71.35 85.59,-66.93"/>
</a>
</g>
</g>
<!-- Node3 -->
<g id="Node000003" class="node">
<title>Node3</title>
<g id="a_Node000003"><a xlink:href="../../da/d13/classRayTracer_1_1IPrimitive.html" target="_top" xlink:title="Pure interface that every geometric primitive must implement.">
<polygon fill="white" stroke="#666666" points="118,-162 0,-162 0,-143 118,-143 118,-162"/>
<text text-anchor="middle" x="59" y="-150" font-family="Helvetica,sans-Serif" font-size="10.00">RayTracer::IPrimitive</text>
</a>
</g>
</g>
<!-- Node3&#45;&gt;Node2 -->
<g id="edge2_Node000002_Node000003" class="edge">
<title>Node3&#45;&gt;Node2</title>
<g id="a_edge2_Node000002_Node000003"><a xlink:title=" ">
<path fill="none" stroke="#63b8ff" d="M63.64,-132.95C66.64,-120.93 70.42,-105.82 72.77,-96.41"/>
<polygon fill="#63b8ff" stroke="#63b8ff" points="60.19,-132.32 61.16,-142.87 66.98,-134.02 60.19,-132.32"/>
</a>
</g>
</g>
<!-- Node4 -->
<g id="Node000004" class="node">
<title>Node4</title>
<g id="a_Node000004"><a xlink:href="../../d1/d48/structRayTracer_1_1Material.html" target="_top" xlink:title="Physically&#45;based material parameters.">
<polygon fill="white" stroke="#666666" points="247.5,-162 136.5,-162 136.5,-143 247.5,-143 247.5,-162"/>
<text text-anchor="middle" x="192" y="-150" font-family="Helvetica,sans-Serif" font-size="10.00">RayTracer::Material</text>
</a>
</g>
</g>
<!-- Node4&#45;&gt;Node2 -->
<g id="edge3_Node000002_Node000004" class="edge">
<title>Node4&#45;&gt;Node2</title>
<g id="a_edge3_Node000002_Node000004"><a xlink:title=" ">
<path fill="none" stroke="#9a32cd" stroke-dasharray="5,2" d="M167.37,-138.03C144.33,-125.42 110.59,-106.97 90.9,-96.2"/>
<polygon fill="#9a32cd" stroke="#9a32cd" points="165.77,-141.14 176.22,-142.87 169.13,-135 165.77,-141.14"/>
</a>
</g>
<text text-anchor="middle" x="163.5" y="-117" font-family="Helvetica,sans-Serif" font-size="10.00" fill="grey"> material</text>
</g>
<!-- Node5 -->
<g id="Node000005" class="node">
<title>Node5</title>
<g id="a_Node000005"><a xlink:href="../../d6/d30/structMath_1_1Vector3D.html" target="_top" xlink:title="Represents a 3D vector with real coordinates.">
<polygon fill="white" stroke="#666666" points="238,-250 146,-250 146,-231 238,-231 238,-250"/>
<text text-anchor="middle" x="192" y="-238" font-family="Helvetica,sans-Serif" font-size="10.00">Math::Vector3D</text>
</a>
</g>
</g>
<!-- Node5&#45;&gt;Node4 -->
<g id="edge4_Node000004_Node000005" class="edge">
<title>Node5&#45;&gt;Node4</title>
<g id="a_edge4_Node000004_Node000005"><a xlink:title=" ">
<path fill="none" stroke="#9a32cd" stroke-dasharray="5,2" d="M192,-220.91C192,-202.67 192,-175.65 192,-162.03"/>
<polygon fill="#9a32cd" stroke="#9a32cd" points="188.5,-220.94 192,-230.94 195.5,-220.94 188.5,-220.94"/>
</a>
</g>
<text text-anchor="middle" x="214.5" y="-205" font-family="Helvetica,sans-Serif" font-size="10.00" fill="grey"> albedo</text>
<text text-anchor="middle" x="214.5" y="-194" font-family="Helvetica,sans-Serif" font-size="10.00" fill="grey">emission</text>
<text text-anchor="middle" x="214.5" y="-183" font-family="Helvetica,sans-Serif" font-size="10.00" fill="grey">specular</text>
</g>
<!-- Node6 -->
<g id="Node000006" class="node">
<title>Node6</title>
<g id="a_Node000006"><a xlink:href="../../db/daa/structMath_1_1Point3D.html" target="_top" xlink:title="Represents a 3D point in Cartesian coordinates.">
<polygon fill="white" stroke="#666666" points="240,-96 154,-96 154,-77 240,-77 240,-96"/>
<text text-anchor="middle" x="197" y="-84" font-family="Helvetica,sans-Serif" font-size="10.00">Math::Point3D</text>
</a>
</g>
</g>
<!-- Node6&#45;&gt;Node1 -->
<g id="edge5_Node000001_Node000006" class="edge">
<title>Node6&#45;&gt;Node1</title>
<g id="a_edge5_Node000001_Node000006"><a xlink:title=" ">
<path fill="none" stroke="#9a32cd" stroke-dasharray="5,2" d="M183.36,-68.73C170.81,-53.3 152.71,-31.04 142.92,-19"/>
<polygon fill="#9a32cd" stroke="#9a32cd" points="180.98,-71.35 190,-76.9 186.41,-66.93 180.98,-71.35"/>
</a>
</g>
<text text-anchor="middle" x="185.5" y="-51" font-family="Helvetica,sans-Serif" font-size="10.00" fill="grey"> max</text>
<text text-anchor="middle" x="185.5" y="-40" font-family="Helvetica,sans-Serif" font-size="10.00" fill="grey">min</text>
</g>
</g>
</svg>
