<?xml version="1.0" encoding="UTF-8" standalone="no"?>
<!DOCTYPE svg PUBLIC "-//W3C//DTD SVG 1.1//EN"
 "http://www.w3.org/Graphics/SVG/1.1/DTD/svg11.dtd">
<!-- Generated by graphviz version 2.43.0 (0)
 -->
<!-- Title: include/primitives/Triangle.hpp Pages: 1 -->
<svg width="694pt" height="225pt"
 viewBox="0.00 0.00 694.00 225.00" xmlns="http://www.w3.org/2000/svg" xmlns:xlink="http://www.w3.org/1999/xlink">
<g id="graph0" class="graph" transform="scale(1 1) rotate(0) translate(4 221)">
<title>include/primitives/Triangle.hpp</title>
<!-- Node1 -->
<g id="Node000001" class="node">
<title>Node1</title>
<g id="a_Node000001"><a xlink:title="Declares the Triangle primitive and its ray–triangle intersection logic.">
<polygon fill="#999999" stroke="#666666" points="443.5,-217 339.5,-217 339.5,-187 443.5,-187 443.5,-217"/>
<text text-anchor="start" x="347.5" y="-205" font-family="Helvetica,sans-Serif" font-size="10.00">include/primitives</text>
<text text-anchor="middle" x="391.5" y="-194" font-family="Helvetica,sans-Serif" font-size="10.00">/Triangle.hpp</text>
</a>
</g>
</g>
<!-- Node2 -->
<g id="Node000002" class="node">
<title>Node2</title>
<g id="a_Node000002"><a xlink:href="../../dd/d35/Tetrahedron_8hpp.html" target="_top" xlink:title=" ">
<polygon fill="white" stroke="#666666" points="281.5,-151 177.5,-151 177.5,-121 281.5,-121 281.5,-151"/>
<text text-anchor="start" x="185.5" y="-139" font-family="Helvetica,sans-Serif" font-size="10.00">include/primitives</text>
<text text-anchor="middle" x="229.5" y="-128" font-family="Helvetica,sans-Serif" font-size="10.00">/Tetrahedron.hpp</text>
</a>
</g>
</g>
<!-- Node1&#45;&gt;Node2 -->
<g id="edge1_Node000001_Node000002" class="edge">
<title>Node1&#45;&gt;Node2</title>
<g id="a_edge1_Node000001_Node000002"><a xlink:title=" ">
<path fill="none" stroke="#63b8ff" d="M346.41,-183.19C320.69,-173.02 288.9,-160.47 264.97,-151.01"/>
<polygon fill="#63b8ff" stroke="#63b8ff" points="345.36,-186.54 355.95,-186.95 347.93,-180.03 345.36,-186.54"/>
</a>
</g>
</g>
<!-- Node4 -->
<g id="Node000004" class="node">
<title>Node4</title>
<g id="a_Node000004"><a xlink:href="../../d3/d79/SceneParser_8cpp.html" target="_top" xlink:title="Implements the scene loading system using libconfig for the raytracer engine.">
<polygon fill="white" stroke="#666666" points="387.5,-19 235.5,-19 235.5,0 387.5,0 387.5,-19"/>
<text text-anchor="middle" x="311.5" y="-7" font-family="Helvetica,sans-Serif" font-size="10.00">src/loaders/SceneParser.cpp</text>
</a>
</g>
</g>
<!-- Node1&#45;&gt;Node4 -->
<g id="edge11_Node000001_Node000004" class="edge">
<title>Node1&#45;&gt;Node4</title>
<g id="a_edge11_Node000001_Node000004"><a xlink:title=" ">
<path fill="none" stroke="#63b8ff" d="M376.68,-178.46C371.49,-170.04 365.88,-160.28 361.5,-151 338.84,-103.01 320.41,-41.78 313.96,-19.29"/>
<polygon fill="#63b8ff" stroke="#63b8ff" points="373.76,-180.39 382.06,-186.98 379.68,-176.65 373.76,-180.39"/>
</a>
</g>
</g>
<!-- Node7 -->
<g id="Node000007" class="node">
<title>Node7</title>
<g id="a_Node000007"><a xlink:href="../../d1/d62/Mesh_8hpp.html" target="_top" xlink:title="Declares a simple triangle mesh wrapper used by the ray tracer.">
<polygon fill="white" stroke="#666666" points="522.5,-145.5 370.5,-145.5 370.5,-126.5 522.5,-126.5 522.5,-145.5"/>
<text text-anchor="middle" x="446.5" y="-133.5" font-family="Helvetica,sans-Serif" font-size="10.00">include/rendering/Mesh.hpp</text>
</a>
</g>
</g>
<!-- Node1&#45;&gt;Node7 -->
<g id="edge6_Node000001_Node000007" class="edge">
<title>Node1&#45;&gt;Node7</title>
<g id="a_edge6_Node000001_Node000007"><a xlink:title=" ">
<path fill="none" stroke="#63b8ff" d="M410.45,-178.94C420.22,-167.58 431.58,-154.36 438.9,-145.84"/>
<polygon fill="#63b8ff" stroke="#63b8ff" points="407.57,-176.93 403.71,-186.8 412.88,-181.49 407.57,-176.93"/>
</a>
</g>
</g>
<!-- Node11 -->
<g id="Node000011" class="node">
<title>Node11</title>
<g id="a_Node000011"><a xlink:href="../../dc/d3a/Triangle_8cpp.html" target="_top" xlink:title=" ">
<polygon fill="white" stroke="#666666" points="686,-145.5 541,-145.5 541,-126.5 686,-126.5 686,-145.5"/>
<text text-anchor="middle" x="613.5" y="-133.5" font-family="Helvetica,sans-Serif" font-size="10.00">src/primitives/Triangle.cpp</text>
</a>
</g>
</g>
<!-- Node1&#45;&gt;Node11 -->
<g id="edge12_Node000001_Node000011" class="edge">
<title>Node1&#45;&gt;Node11</title>
<g id="a_edge12_Node000001_Node000011"><a xlink:title=" ">
<path fill="none" stroke="#63b8ff" d="M450.02,-184.13C493.11,-171.71 549.91,-155.33 583.96,-145.52"/>
<polygon fill="#63b8ff" stroke="#63b8ff" points="448.86,-180.82 440.22,-186.95 450.8,-187.55 448.86,-180.82"/>
</a>
</g>
</g>
<!-- Node3 -->
<g id="Node000003" class="node">
<title>Node3</title>
<g id="a_Node000003"><a xlink:href="../../d2/d3d/Sierpinski_8hpp.html" target="_top" xlink:title=" ">
<polygon fill="white" stroke="#666666" points="129.5,-85 25.5,-85 25.5,-55 129.5,-55 129.5,-85"/>
<text text-anchor="start" x="33.5" y="-73" font-family="Helvetica,sans-Serif" font-size="10.00">include/primitives</text>
<text text-anchor="middle" x="77.5" y="-62" font-family="Helvetica,sans-Serif" font-size="10.00">/Sierpinski.hpp</text>
</a>
</g>
</g>
<!-- Node2&#45;&gt;Node3 -->
<g id="edge2_Node000002_Node000003" class="edge">
<title>Node2&#45;&gt;Node3</title>
<g id="a_edge2_Node000002_Node000003"><a xlink:title=" ">
<path fill="none" stroke="#63b8ff" d="M186.88,-117.05C162.8,-106.91 133.14,-94.43 110.78,-85.01"/>
<polygon fill="#63b8ff" stroke="#63b8ff" points="185.57,-120.3 196.14,-120.95 188.28,-113.85 185.57,-120.3"/>
</a>
</g>
</g>
<!-- Node6 -->
<g id="Node000006" class="node">
<title>Node6</title>
<g id="a_Node000006"><a xlink:href="../../de/ded/Tetrahedron_8cpp.html" target="_top" xlink:title=" ">
<polygon fill="white" stroke="#666666" points="311.5,-79.5 147.5,-79.5 147.5,-60.5 311.5,-60.5 311.5,-79.5"/>
<text text-anchor="middle" x="229.5" y="-67.5" font-family="Helvetica,sans-Serif" font-size="10.00">src/primitives/Tetrahedron.cpp</text>
</a>
</g>
</g>
<!-- Node2&#45;&gt;Node6 -->
<g id="edge5_Node000002_Node000006" class="edge">
<title>Node2&#45;&gt;Node6</title>
<g id="a_edge5_Node000002_Node000006"><a xlink:title=" ">
<path fill="none" stroke="#63b8ff" d="M229.5,-110.6C229.5,-99.8 229.5,-87.78 229.5,-79.84"/>
<polygon fill="#63b8ff" stroke="#63b8ff" points="226,-110.8 229.5,-120.8 233,-110.8 226,-110.8"/>
</a>
</g>
</g>
<!-- Node3&#45;&gt;Node4 -->
<g id="edge3_Node000003_Node000004" class="edge">
<title>Node3&#45;&gt;Node4</title>
<g id="a_edge3_Node000003_Node000004"><a xlink:title=" ">
<path fill="none" stroke="#63b8ff" d="M139.47,-53.51C183.54,-42.49 241.09,-28.1 277.18,-19.08"/>
<polygon fill="#63b8ff" stroke="#63b8ff" points="138.58,-50.12 129.72,-55.94 140.27,-56.91 138.58,-50.12"/>
</a>
</g>
</g>
<!-- Node5 -->
<g id="Node000005" class="node">
<title>Node5</title>
<g id="a_Node000005"><a xlink:href="../../d9/d38/Sierpinski_8cpp.html" target="_top" xlink:title=" ">
<polygon fill="white" stroke="#666666" points="155,-19 0,-19 0,0 155,0 155,-19"/>
<text text-anchor="middle" x="77.5" y="-7" font-family="Helvetica,sans-Serif" font-size="10.00">src/primitives/Sierpinski.cpp</text>
</a>
</g>
</g>
<!-- Node3&#45;&gt;Node5 -->
<g id="edge4_Node000003_Node000005" class="edge">
<title>Node3&#45;&gt;Node5</title>
<g id="a_edge4_Node000003_Node000005"><a xlink:title=" ">
<path fill="none" stroke="#63b8ff" d="M77.5,-44.75C77.5,-35.72 77.5,-26.03 77.5,-19.27"/>
<polygon fill="#63b8ff" stroke="#63b8ff" points="74,-44.84 77.5,-54.84 81,-44.84 74,-44.84"/>
</a>
</g>
</g>
<!-- Node8 -->
<g id="Node000008" class="node">
<title>Node8</title>
<g id="a_Node000008"><a xlink:href="../../da/db1/STLLoader_8hpp.html" target="_top" xlink:title="Declares a loader class for importing 3D models from STL files into Mesh objects.">
<polygon fill="white" stroke="#666666" points="531.5,-79.5 367.5,-79.5 367.5,-60.5 531.5,-60.5 531.5,-79.5"/>
<text text-anchor="middle" x="449.5" y="-67.5" font-family="Helvetica,sans-Serif" font-size="10.00">include/loaders/STLLoader.hpp</text>
</a>
</g>
</g>
<!-- Node7&#45;&gt;Node8 -->
<g id="edge7_Node000007_Node000008" class="edge">
<title>Node7&#45;&gt;Node8</title>
<g id="a_edge7_Node000007_Node000008"><a xlink:title=" ">
<path fill="none" stroke="#63b8ff" d="M447.39,-116.08C447.95,-104.13 448.65,-89.22 449.08,-79.91"/>
<polygon fill="#63b8ff" stroke="#63b8ff" points="443.88,-116.22 446.9,-126.37 450.87,-116.54 443.88,-116.22"/>
</a>
</g>
</g>
<!-- Node10 -->
<g id="Node000010" class="node">
<title>Node10</title>
<g id="a_Node000010"><a xlink:href="../../d2/dcc/Mesh_8cpp.html" target="_top" xlink:title=" ">
<polygon fill="white" stroke="#666666" points="679.5,-79.5 549.5,-79.5 549.5,-60.5 679.5,-60.5 679.5,-79.5"/>
<text text-anchor="middle" x="614.5" y="-67.5" font-family="Helvetica,sans-Serif" font-size="10.00">src/rendering/Mesh.cpp</text>
</a>
</g>
</g>
<!-- Node7&#45;&gt;Node10 -->
<g id="edge10_Node000007_Node000010" class="edge">
<title>Node7&#45;&gt;Node10</title>
<g id="a_edge10_Node000007_Node000010"><a xlink:title=" ">
<path fill="none" stroke="#63b8ff" d="M478.85,-122.68C512.05,-110.03 562.84,-90.68 591.93,-79.6"/>
<polygon fill="#63b8ff" stroke="#63b8ff" points="477.26,-119.54 469.16,-126.37 479.75,-126.08 477.26,-119.54"/>
</a>
</g>
</g>
<!-- Node8&#45;&gt;Node4 -->
<g id="edge9_Node000008_Node000004" class="edge">
<title>Node8&#45;&gt;Node4</title>
<g id="a_edge9_Node000008_Node000004"><a xlink:title=" ">
<path fill="none" stroke="#63b8ff" d="M420.21,-56.58C393.55,-45.28 354.9,-28.9 331.59,-19.02"/>
<polygon fill="#63b8ff" stroke="#63b8ff" points="418.86,-59.81 429.43,-60.49 421.59,-53.37 418.86,-59.81"/>
</a>
</g>
</g>
<!-- Node9 -->
<g id="Node000009" class="node">
<title>Node9</title>
<g id="a_Node000009"><a xlink:href="../../d3/d4f/STLLoader_8cpp.html" target="_top" xlink:title="Implementation of STL (Stereolithography) file loading for 3D mesh import in the raytracer.">
<polygon fill="white" stroke="#666666" points="549,-19 406,-19 406,0 549,0 549,-19"/>
<text text-anchor="middle" x="477.5" y="-7" font-family="Helvetica,sans-Serif" font-size="10.00">src/loaders/STLLoader.cpp</text>
</a>
</g>
</g>
<!-- Node8&#45;&gt;Node9 -->
<g id="edge8_Node000008_Node000009" class="edge">
<title>Node8&#45;&gt;Node9</title>
<g id="a_edge8_Node000008_Node000009"><a xlink:title=" ">
<path fill="none" stroke="#63b8ff" d="M458.04,-51.15C463.12,-40.54 469.33,-27.56 473.35,-19.17"/>
<polygon fill="#63b8ff" stroke="#63b8ff" points="454.79,-49.84 453.63,-60.37 461.11,-52.86 454.79,-49.84"/>
</a>
</g>
</g>
</g>
</svg>
