<?xml version="1.0" encoding="UTF-8" standalone="no"?>
<!DOCTYPE svg PUBLIC "-//W3C//DTD SVG 1.1//EN"
 "http://www.w3.org/Graphics/SVG/1.1/DTD/svg11.dtd">
<!-- Generated by graphviz version 2.43.0 (0)
 -->
<!-- Title: RayTracer::Plane::hits Pages: 1 -->
<svg width="294pt" height="101pt"
 viewBox="0.00 0.00 294.00 101.00" xmlns="http://www.w3.org/2000/svg" xmlns:xlink="http://www.w3.org/1999/xlink">
<g id="graph0" class="graph" transform="scale(1 1) rotate(0) translate(4 97)">
<title>RayTracer::Plane::hits</title>
<!-- Node1 -->
<g id="Node000001" class="node">
<title>Node1</title>
<g id="a_Node000001"><a xlink:title="Ray–plane intersection.">
<polygon fill="#999999" stroke="#666666" points="122,-56 0,-56 0,-37 122,-37 122,-56"/>
<text text-anchor="middle" x="61" y="-44" font-family="Helvetica,sans-Serif" font-size="10.00">RayTracer::Plane::hits</text>
</a>
</g>
</g>
<!-- Node2 -->
<g id="Node000002" class="node">
<title>Node2</title>
<g id="a_Node000002"><a xlink:href="../../d6/d30/structMath_1_1Vector3D.html#ad9bca728f96bfb94acebaf6cc63109c3" target="_top" xlink:title="Computes the cross product between this and another vector.">
<polygon fill="white" stroke="#666666" points="283.5,-93 160.5,-93 160.5,-74 283.5,-74 283.5,-93"/>
<text text-anchor="middle" x="222" y="-81" font-family="Helvetica,sans-Serif" font-size="10.00">Math::Vector3D::cross</text>
</a>
</g>
</g>
<!-- Node1&#45;&gt;Node2 -->
<g id="edge1_Node000001_Node000002" class="edge">
<title>Node1&#45;&gt;Node2</title>
<g id="a_edge1_Node000001_Node000002"><a xlink:title=" ">
<path fill="none" stroke="#63b8ff" d="M102.95,-56.03C123.36,-60.78 148.25,-66.57 169.9,-71.61"/>
<polygon fill="#63b8ff" stroke="#63b8ff" points="169.38,-75.08 179.92,-73.94 170.97,-68.26 169.38,-75.08"/>
</a>
</g>
</g>
<!-- Node3 -->
<g id="Node000003" class="node">
<title>Node3</title>
<g id="a_Node000003"><a xlink:href="../../d6/d30/structMath_1_1Vector3D.html#aa57c357f4be8837461cdd32bd3e5d7dc" target="_top" xlink:title="Computes the dot product between this and another vector.">
<polygon fill="white" stroke="#666666" points="278.5,-56 165.5,-56 165.5,-37 278.5,-37 278.5,-56"/>
<text text-anchor="middle" x="222" y="-44" font-family="Helvetica,sans-Serif" font-size="10.00">Math::Vector3D::dot</text>
</a>
</g>
</g>
<!-- Node1&#45;&gt;Node3 -->
<g id="edge2_Node000001_Node000003" class="edge">
<title>Node1&#45;&gt;Node3</title>
<g id="a_edge2_Node000001_Node000003"><a xlink:title=" ">
<path fill="none" stroke="#63b8ff" d="M122.11,-46.5C132.84,-46.5 144.07,-46.5 154.96,-46.5"/>
<polygon fill="#63b8ff" stroke="#63b8ff" points="155.26,-50 165.26,-46.5 155.26,-43 155.26,-50"/>
</a>
</g>
</g>
<!-- Node4 -->
<g id="Node000004" class="node">
<title>Node4</title>
<g id="a_Node000004"><a xlink:href="../../d6/d30/structMath_1_1Vector3D.html#a4c208026b6867d4c99afa13ddc3b9278" target="_top" xlink:title="Computes the Euclidean length (norm) of the vector.">
<polygon fill="white" stroke="#666666" points="286,-19 158,-19 158,0 286,0 286,-19"/>
<text text-anchor="middle" x="222" y="-7" font-family="Helvetica,sans-Serif" font-size="10.00">Math::Vector3D::length</text>
</a>
</g>
</g>
<!-- Node1&#45;&gt;Node4 -->
<g id="edge3_Node000001_Node000004" class="edge">
<title>Node1&#45;&gt;Node4</title>
<g id="a_edge3_Node000001_Node000004"><a xlink:title=" ">
<path fill="none" stroke="#63b8ff" d="M102.95,-36.97C123.36,-32.22 148.25,-26.43 169.9,-21.39"/>
<polygon fill="#63b8ff" stroke="#63b8ff" points="170.97,-24.74 179.92,-19.06 169.38,-17.92 170.97,-24.74"/>
</a>
</g>
</g>
</g>
</svg>
