<?xml version="1.0" encoding="UTF-8" standalone="no"?>
<!DOCTYPE svg PUBLIC "-//W3C//DTD SVG 1.1//EN"
 "http://www.w3.org/Graphics/SVG/1.1/DTD/svg11.dtd">
<!-- Generated by graphviz version 2.43.0 (0)
 -->
<!-- Title: include/geoTransf/Shear.hpp Pages: 1 -->
<svg width="690pt" height="412pt"
 viewBox="0.00 0.00 689.57 412.00" xmlns="http://www.w3.org/2000/svg" xmlns:xlink="http://www.w3.org/1999/xlink">
<g id="graph0" class="graph" transform="scale(1 1) rotate(0) translate(4 408)">
<title>include/geoTransf/Shear.hpp</title>
<!-- Node1 -->
<g id="Node000001" class="node">
<title>Node1</title>
<g id="a_Node000001"><a xlink:title="Declares the geometric shear transformation primitive for raytracing scenes.">
<polygon fill="#999999" stroke="#666666" points="424.5,-404 271.5,-404 271.5,-385 424.5,-385 424.5,-404"/>
<text text-anchor="middle" x="348" y="-392" font-family="Helvetica,sans-Serif" font-size="10.00">include/geoTransf/Shear.hpp</text>
</a>
</g>
</g>
<!-- Node2 -->
<g id="Node000002" class="node">
<title>Node2</title>
<g id="a_Node000002"><a xlink:title=" ">
<polygon fill="#e0e0e0" stroke="#999999" points="58,-184 0,-184 0,-165 58,-165 58,-184"/>
<text text-anchor="middle" x="29" y="-172" font-family="Helvetica,sans-Serif" font-size="10.00">memory</text>
</a>
</g>
</g>
<!-- Node1&#45;&gt;Node2 -->
<g id="edge1_Node000001_Node000002" class="edge">
<title>Node1&#45;&gt;Node2</title>
<g id="a_edge1_Node000001_Node000002"><a xlink:title=" ">
<path fill="none" stroke="#63b8ff" d="M309.86,-384.99C245.58,-368.56 116.19,-326.12 50,-239 40.01,-225.85 34.64,-207.72 31.84,-194.2"/>
<polygon fill="#63b8ff" stroke="#63b8ff" points="35.25,-193.36 30.05,-184.13 28.35,-194.59 35.25,-193.36"/>
</a>
</g>
</g>
<!-- Node3 -->
<g id="Node000003" class="node">
<title>Node3</title>
<g id="a_Node000003"><a xlink:href="../../de/d81/APrimitive_8hpp.html" target="_top" xlink:title=" ">
<polygon fill="white" stroke="#666666" points="404.5,-294 291.5,-294 291.5,-275 404.5,-275 404.5,-294"/>
<text text-anchor="middle" x="348" y="-282" font-family="Helvetica,sans-Serif" font-size="10.00">core/APrimitive.hpp</text>
</a>
</g>
</g>
<!-- Node1&#45;&gt;Node3 -->
<g id="edge2_Node000001_Node000003" class="edge">
<title>Node1&#45;&gt;Node3</title>
<g id="a_edge2_Node000001_Node000003"><a xlink:title=" ">
<path fill="none" stroke="#63b8ff" d="M348,-384.66C348,-367.17 348,-327.8 348,-304.27"/>
<polygon fill="#63b8ff" stroke="#63b8ff" points="351.5,-304.16 348,-294.16 344.5,-304.16 351.5,-304.16"/>
</a>
</g>
</g>
<!-- Node13 -->
<g id="Node000013" class="node">
<title>Node13</title>
<g id="a_Node000013"><a xlink:href="../../d9/dad/BVH_8hpp.html" target="_top" xlink:title="Declares the axis&#45;aligned bounding box (AABB) and the BVH node used for ray&#45;tracing acceleration.">
<polygon fill="white" stroke="#666666" points="539,-349 431,-349 431,-330 539,-330 539,-349"/>
<text text-anchor="middle" x="485" y="-337" font-family="Helvetica,sans-Serif" font-size="10.00">rendering/BVH.hpp</text>
</a>
</g>
</g>
<!-- Node1&#45;&gt;Node13 -->
<g id="edge20_Node000001_Node000013" class="edge">
<title>Node1&#45;&gt;Node13</title>
<g id="a_edge20_Node000001_Node000013"><a xlink:title=" ">
<path fill="none" stroke="#63b8ff" d="M370.01,-384.98C392.45,-376.3 427.48,-362.75 452.99,-352.88"/>
<polygon fill="#63b8ff" stroke="#63b8ff" points="454.52,-356.04 462.59,-349.17 452,-349.51 454.52,-356.04"/>
</a>
</g>
</g>
<!-- Node4 -->
<g id="Node000004" class="node">
<title>Node4</title>
<g id="a_Node000004"><a xlink:href="../../d4/db2/Ray_8hpp.html" target="_top" xlink:title="Defines the Ray structure used for ray&#45;object intersection tests in the raytracer.">
<polygon fill="white" stroke="#666666" points="505.5,-184 426.5,-184 426.5,-165 505.5,-165 505.5,-184"/>
<text text-anchor="middle" x="466" y="-172" font-family="Helvetica,sans-Serif" font-size="10.00">core/Ray.hpp</text>
</a>
</g>
</g>
<!-- Node3&#45;&gt;Node4 -->
<g id="edge3_Node000003_Node000004" class="edge">
<title>Node3&#45;&gt;Node4</title>
<g id="a_edge3_Node000003_Node000004"><a xlink:title=" ">
<path fill="none" stroke="#63b8ff" d="M356.81,-274.7C369.32,-262.29 393.04,-239.02 414,-220 425,-210.02 437.65,-199.17 447.73,-190.69"/>
<polygon fill="#63b8ff" stroke="#63b8ff" points="450.07,-193.29 455.49,-184.19 445.57,-187.93 450.07,-193.29"/>
</a>
</g>
</g>
<!-- Node5 -->
<g id="Node000005" class="node">
<title>Node5</title>
<g id="a_Node000005"><a xlink:href="../../df/df2/Point3D_8hpp.html" target="_top" xlink:title="Defines a 3D point structure used in geometric computations.">
<polygon fill="white" stroke="#666666" points="571,-129 495,-129 495,-110 571,-110 571,-129"/>
<text text-anchor="middle" x="533" y="-117" font-family="Helvetica,sans-Serif" font-size="10.00">Point3D.hpp</text>
</a>
</g>
</g>
<!-- Node3&#45;&gt;Node5 -->
<g id="edge9_Node000003_Node000005" class="edge">
<title>Node3&#45;&gt;Node5</title>
<g id="a_edge9_Node000003_Node000005"><a xlink:title=" ">
<path fill="none" stroke="#63b8ff" d="M404.92,-275.41C447.97,-268.07 502.13,-255.82 517,-239 541.43,-211.36 539.65,-164.99 536.28,-139.22"/>
<polygon fill="#63b8ff" stroke="#63b8ff" points="539.73,-138.61 534.76,-129.25 532.81,-139.67 539.73,-138.61"/>
</a>
</g>
</g>
<!-- Node6 -->
<g id="Node000006" class="node">
<title>Node6</title>
<g id="a_Node000006"><a xlink:href="../../d3/dde/Vector3D_8hpp.html" target="_top" xlink:title="Defines a 3D vector structure with basic arithmetic and transformation operations.">
<polygon fill="white" stroke="#666666" points="505,-74 423,-74 423,-55 505,-55 505,-74"/>
<text text-anchor="middle" x="464" y="-62" font-family="Helvetica,sans-Serif" font-size="10.00">Vector3D.hpp</text>
</a>
</g>
</g>
<!-- Node3&#45;&gt;Node6 -->
<g id="edge11_Node000003_Node000006" class="edge">
<title>Node3&#45;&gt;Node6</title>
<g id="a_edge11_Node000003_Node000006"><a xlink:title=" ">
<path fill="none" stroke="#63b8ff" d="M291.49,-281.25C227.26,-277.38 128.27,-266.92 105,-239 99.59,-232.51 100.81,-227.33 105,-220 167.82,-110.17 329.6,-78.37 412.84,-69.19"/>
<polygon fill="#63b8ff" stroke="#63b8ff" points="413.25,-72.67 422.84,-68.16 412.53,-65.71 413.25,-72.67"/>
</a>
</g>
</g>
<!-- Node8 -->
<g id="Node000008" class="node">
<title>Node8</title>
<g id="a_Node000008"><a xlink:href="../../d8/d1e/Vector2D_8hpp.html" target="_top" xlink:title="Defines a 2D vector structure used for texture coordinates or screen&#45;space math operations.">
<polygon fill="white" stroke="#666666" points="220,-239 114,-239 114,-220 220,-220 220,-239"/>
<text text-anchor="middle" x="167" y="-227" font-family="Helvetica,sans-Serif" font-size="10.00">core/Vector2D.hpp</text>
</a>
</g>
</g>
<!-- Node3&#45;&gt;Node8 -->
<g id="edge10_Node000003_Node000008" class="edge">
<title>Node3&#45;&gt;Node8</title>
<g id="a_edge10_Node000003_Node000008"><a xlink:title=" ">
<path fill="none" stroke="#63b8ff" d="M318.92,-274.98C288.4,-266.05 240.24,-251.94 206.34,-242.02"/>
<polygon fill="#63b8ff" stroke="#63b8ff" points="206.89,-238.53 196.31,-239.08 204.92,-245.25 206.89,-238.53"/>
</a>
</g>
</g>
<!-- Node9 -->
<g id="Node000009" class="node">
<title>Node9</title>
<g id="a_Node000009"><a xlink:href="../../d0/d70/Material_8hpp.html" target="_top" xlink:title="Declares the physically&#45;based material descriptor used by the renderer.">
<polygon fill="white" stroke="#666666" points="366,-239 238,-239 238,-220 366,-220 366,-239"/>
<text text-anchor="middle" x="302" y="-227" font-family="Helvetica,sans-Serif" font-size="10.00">rendering/Material.hpp</text>
</a>
</g>
</g>
<!-- Node3&#45;&gt;Node9 -->
<g id="edge12_Node000003_Node000009" class="edge">
<title>Node3&#45;&gt;Node9</title>
<g id="a_edge12_Node000003_Node000009"><a xlink:title=" ">
<path fill="none" stroke="#63b8ff" d="M340.4,-274.75C333.84,-267.18 324.18,-256.05 316.19,-246.84"/>
<polygon fill="#63b8ff" stroke="#63b8ff" points="318.65,-244.35 309.45,-239.09 313.37,-248.94 318.65,-244.35"/>
</a>
</g>
</g>
<!-- Node12 -->
<g id="Node000012" class="node">
<title>Node12</title>
<g id="a_Node000012"><a xlink:href="../../d0/d38/IPrimitive_8hpp.html" target="_top" xlink:title="Interface for geometric primitives in the raytracer.">
<polygon fill="white" stroke="#666666" points="507.5,-239 422.5,-239 422.5,-220 507.5,-220 507.5,-239"/>
<text text-anchor="middle" x="465" y="-227" font-family="Helvetica,sans-Serif" font-size="10.00">IPrimitive.hpp</text>
</a>
</g>
</g>
<!-- Node3&#45;&gt;Node12 -->
<g id="edge18_Node000003_Node000012" class="edge">
<title>Node3&#45;&gt;Node12</title>
<g id="a_edge18_Node000003_Node000012"><a xlink:title=" ">
<path fill="none" stroke="#63b8ff" d="M366.8,-274.98C385.62,-266.46 414.82,-253.23 436.5,-243.41"/>
<polygon fill="#63b8ff" stroke="#63b8ff" points="438.2,-246.48 445.86,-239.17 435.31,-240.11 438.2,-246.48"/>
</a>
</g>
</g>
<!-- Node4&#45;&gt;Node5 -->
<g id="edge4_Node000004_Node000005" class="edge">
<title>Node4&#45;&gt;Node5</title>
<g id="a_edge4_Node000004_Node000005"><a xlink:title=" ">
<path fill="none" stroke="#63b8ff" d="M476.76,-164.98C486.77,-157.07 501.89,-145.11 513.93,-135.58"/>
<polygon fill="#63b8ff" stroke="#63b8ff" points="516.37,-138.12 522.04,-129.17 512.03,-132.63 516.37,-138.12"/>
</a>
</g>
</g>
<!-- Node4&#45;&gt;Node6 -->
<g id="edge8_Node000004_Node000006" class="edge">
<title>Node4&#45;&gt;Node6</title>
<g id="a_edge8_Node000004_Node000006"><a xlink:title=" ">
<path fill="none" stroke="#63b8ff" d="M465.84,-164.66C465.51,-147.17 464.78,-107.8 464.35,-84.27"/>
<polygon fill="#63b8ff" stroke="#63b8ff" points="467.84,-84.09 464.16,-74.16 460.85,-84.22 467.84,-84.09"/>
</a>
</g>
</g>
<!-- Node5&#45;&gt;Node6 -->
<g id="edge5_Node000005_Node000006" class="edge">
<title>Node5&#45;&gt;Node6</title>
<g id="a_edge5_Node000005_Node000006"><a xlink:title=" ">
<path fill="none" stroke="#63b8ff" d="M521.91,-109.98C511.51,-102 495.74,-89.88 483.28,-80.31"/>
<polygon fill="#63b8ff" stroke="#63b8ff" points="485.35,-77.49 475.29,-74.17 481.09,-83.04 485.35,-77.49"/>
</a>
</g>
</g>
<!-- Node7 -->
<g id="Node000007" class="node">
<title>Node7</title>
<g id="a_Node000007"><a xlink:title=" ">
<polygon fill="#e0e0e0" stroke="#999999" points="521.5,-19 474.5,-19 474.5,0 521.5,0 521.5,-19"/>
<text text-anchor="middle" x="498" y="-7" font-family="Helvetica,sans-Serif" font-size="10.00">cmath</text>
</a>
</g>
</g>
<!-- Node5&#45;&gt;Node7 -->
<g id="edge7_Node000005_Node000007" class="edge">
<title>Node5&#45;&gt;Node7</title>
<g id="a_edge7_Node000005_Node000007"><a xlink:title=" ">
<path fill="none" stroke="#63b8ff" d="M530.57,-109.83C527.09,-97.56 520.4,-74.46 514,-55 511.14,-46.32 507.75,-36.79 504.82,-28.77"/>
<polygon fill="#63b8ff" stroke="#63b8ff" points="508.08,-27.48 501.33,-19.32 501.51,-29.91 508.08,-27.48"/>
</a>
</g>
</g>
<!-- Node6&#45;&gt;Node7 -->
<g id="edge6_Node000006_Node000007" class="edge">
<title>Node6&#45;&gt;Node7</title>
<g id="a_edge6_Node000006_Node000007"><a xlink:title=" ">
<path fill="none" stroke="#63b8ff" d="M469.61,-54.75C474.32,-47.42 481.17,-36.73 486.97,-27.7"/>
<polygon fill="#63b8ff" stroke="#63b8ff" points="490.04,-29.4 492.49,-19.09 484.14,-25.62 490.04,-29.4"/>
</a>
</g>
</g>
<!-- Node9&#45;&gt;Node2 -->
<g id="edge14_Node000009_Node000002" class="edge">
<title>Node9&#45;&gt;Node2</title>
<g id="a_edge14_Node000009_Node000002"><a xlink:title=" ">
<path fill="none" stroke="#63b8ff" d="M258.14,-219.98C205.54,-209.77 118.2,-192.82 67.91,-183.05"/>
<polygon fill="#63b8ff" stroke="#63b8ff" points="68.55,-179.61 58.06,-181.14 67.21,-186.48 68.55,-179.61"/>
</a>
</g>
</g>
<!-- Node9&#45;&gt;Node6 -->
<g id="edge15_Node000009_Node000006" class="edge">
<title>Node9&#45;&gt;Node6</title>
<g id="a_edge15_Node000009_Node000006"><a xlink:title=" ">
<path fill="none" stroke="#63b8ff" d="M299.22,-219.91C292.93,-198.67 280.09,-143.04 306,-110 319.25,-93.1 371.67,-80.67 412.54,-73.31"/>
<polygon fill="#63b8ff" stroke="#63b8ff" points="413.4,-76.72 422.65,-71.55 412.2,-69.82 413.4,-76.72"/>
</a>
</g>
</g>
<!-- Node10 -->
<g id="Node000010" class="node">
<title>Node10</title>
<g id="a_Node000010"><a xlink:title=" ">
<polygon fill="#e0e0e0" stroke="#999999" points="396,-184 352,-184 352,-165 396,-165 396,-184"/>
<text text-anchor="middle" x="374" y="-172" font-family="Helvetica,sans-Serif" font-size="10.00">string</text>
</a>
</g>
</g>
<!-- Node9&#45;&gt;Node10 -->
<g id="edge13_Node000009_Node000010" class="edge">
<title>Node9&#45;&gt;Node10</title>
<g id="a_edge13_Node000009_Node000010"><a xlink:title=" ">
<path fill="none" stroke="#63b8ff" d="M313.57,-219.98C324.42,-212 340.88,-199.88 353.88,-190.31"/>
<polygon fill="#63b8ff" stroke="#63b8ff" points="356.24,-192.92 362.22,-184.17 352.09,-187.28 356.24,-192.92"/>
</a>
</g>
</g>
<!-- Node11 -->
<g id="Node000011" class="node">
<title>Node11</title>
<g id="a_Node000011"><a xlink:href="../../d0/ddc/Texture_8hpp.html" target="_top" xlink:title="Declares the abstract base class for all 2&#45;D textures. (Solid colour, checkerboard,...">
<polygon fill="white" stroke="#666666" points="437.5,-129 314.5,-129 314.5,-110 437.5,-110 437.5,-129"/>
<text text-anchor="middle" x="376" y="-117" font-family="Helvetica,sans-Serif" font-size="10.00">rendering/Texture.hpp</text>
</a>
</g>
</g>
<!-- Node9&#45;&gt;Node11 -->
<g id="edge16_Node000009_Node000011" class="edge">
<title>Node9&#45;&gt;Node11</title>
<g id="a_edge16_Node000009_Node000011"><a xlink:title=" ">
<path fill="none" stroke="#63b8ff" d="M307.4,-219.76C315.07,-207.4 329.7,-184.2 343,-165 349.43,-155.71 356.91,-145.57 363.12,-137.32"/>
<polygon fill="#63b8ff" stroke="#63b8ff" points="366,-139.32 369.25,-129.24 360.42,-135.09 366,-139.32"/>
</a>
</g>
</g>
<!-- Node11&#45;&gt;Node6 -->
<g id="edge17_Node000011_Node000006" class="edge">
<title>Node11&#45;&gt;Node6</title>
<g id="a_edge17_Node000011_Node000006"><a xlink:title=" ">
<path fill="none" stroke="#63b8ff" d="M390.14,-109.98C403.79,-101.77 424.69,-89.18 440.78,-79.49"/>
<polygon fill="#63b8ff" stroke="#63b8ff" points="442.84,-82.33 449.6,-74.17 439.23,-76.33 442.84,-82.33"/>
</a>
</g>
</g>
<!-- Node12&#45;&gt;Node4 -->
<g id="edge19_Node000012_Node000004" class="edge">
<title>Node12&#45;&gt;Node4</title>
<g id="a_edge19_Node000012_Node000004"><a xlink:title=" ">
<path fill="none" stroke="#63b8ff" d="M465.17,-219.75C465.3,-212.8 465.48,-202.85 465.65,-194.13"/>
<polygon fill="#63b8ff" stroke="#63b8ff" points="469.15,-194.15 465.84,-184.09 462.15,-194.02 469.15,-194.15"/>
</a>
</g>
</g>
<!-- Node13&#45;&gt;Node2 -->
<g id="edge21_Node000013_Node000002" class="edge">
<title>Node13&#45;&gt;Node2</title>
<g id="a_edge21_Node000013_Node000002"><a xlink:title=" ">
<path fill="none" stroke="#63b8ff" d="M430.98,-337.87C346.8,-334.37 182.52,-317.11 72,-239 55.9,-227.62 44.04,-208.16 36.9,-193.78"/>
<polygon fill="#63b8ff" stroke="#63b8ff" points="39.93,-191.99 32.54,-184.39 33.58,-194.93 39.93,-191.99"/>
</a>
</g>
</g>
<!-- Node13&#45;&gt;Node3 -->
<g id="edge26_Node000013_Node000003" class="edge">
<title>Node13&#45;&gt;Node3</title>
<g id="a_edge26_Node000013_Node000003"><a xlink:title=" ">
<path fill="none" stroke="#63b8ff" d="M462.99,-329.98C440.55,-321.3 405.52,-307.75 380.01,-297.88"/>
<polygon fill="#63b8ff" stroke="#63b8ff" points="381,-294.51 370.41,-294.17 378.48,-301.04 381,-294.51"/>
</a>
</g>
</g>
<!-- Node13&#45;&gt;Node4 -->
<g id="edge25_Node000013_Node000004" class="edge">
<title>Node13&#45;&gt;Node4</title>
<g id="a_edge25_Node000013_Node000004"><a xlink:title=" ">
<path fill="none" stroke="#63b8ff" d="M474.81,-329.69C461.71,-317.26 441.91,-293.97 453,-275 469.48,-246.83 500.52,-267.17 517,-239 521.26,-231.71 520.49,-227.69 517,-220 511.38,-207.63 500.43,-197.36 490.11,-189.81"/>
<polygon fill="#63b8ff" stroke="#63b8ff" points="491.97,-186.84 481.73,-184.12 488.04,-192.63 491.97,-186.84"/>
</a>
</g>
</g>
<!-- Node13&#45;&gt;Node5 -->
<g id="edge27_Node000013_Node000005" class="edge">
<title>Node13&#45;&gt;Node5</title>
<g id="a_edge27_Node000013_Node000005"><a xlink:title=" ">
<path fill="none" stroke="#63b8ff" d="M539.31,-332.16C585.6,-325.51 646.95,-313.3 662,-294 707.64,-235.46 605.79,-163.83 557.08,-134.27"/>
<polygon fill="#63b8ff" stroke="#63b8ff" points="558.76,-131.19 548.38,-129.09 555.19,-137.21 558.76,-131.19"/>
</a>
</g>
</g>
<!-- Node13&#45;&gt;Node6 -->
<g id="edge28_Node000013_Node000006" class="edge">
<title>Node13&#45;&gt;Node6</title>
<g id="a_edge28_Node000013_Node000006"><a xlink:title=" ">
<path fill="none" stroke="#63b8ff" d="M539.29,-338.42C578.22,-335.46 629.37,-325.21 662,-294 683.29,-273.64 681,-259.96 681,-230.5 681,-230.5 681,-230.5 681,-173.5 681,-99.7 579.17,-76.33 515.02,-68.93"/>
<polygon fill="#63b8ff" stroke="#63b8ff" points="515.38,-65.45 505.07,-67.87 514.65,-72.41 515.38,-65.45"/>
</a>
</g>
</g>
<!-- Node14 -->
<g id="Node000014" class="node">
<title>Node14</title>
<g id="a_Node000014"><a xlink:title=" ">
<polygon fill="#e0e0e0" stroke="#999999" points="508.5,-294 461.5,-294 461.5,-275 508.5,-275 508.5,-294"/>
<text text-anchor="middle" x="485" y="-282" font-family="Helvetica,sans-Serif" font-size="10.00">vector</text>
</a>
</g>
</g>
<!-- Node13&#45;&gt;Node14 -->
<g id="edge22_Node000013_Node000014" class="edge">
<title>Node13&#45;&gt;Node14</title>
<g id="a_edge22_Node000013_Node000014"><a xlink:title=" ">
<path fill="none" stroke="#63b8ff" d="M485,-329.75C485,-322.8 485,-312.85 485,-304.13"/>
<polygon fill="#63b8ff" stroke="#63b8ff" points="488.5,-304.09 485,-294.09 481.5,-304.09 488.5,-304.09"/>
</a>
</g>
</g>
<!-- Node15 -->
<g id="Node000015" class="node">
<title>Node15</title>
<g id="a_Node000015"><a xlink:title=" ">
<polygon fill="#e0e0e0" stroke="#999999" points="591,-294 527,-294 527,-275 591,-275 591,-294"/>
<text text-anchor="middle" x="559" y="-282" font-family="Helvetica,sans-Serif" font-size="10.00">algorithm</text>
</a>
</g>
</g>
<!-- Node13&#45;&gt;Node15 -->
<g id="edge23_Node000013_Node000015" class="edge">
<title>Node13&#45;&gt;Node15</title>
<g id="a_edge23_Node000013_Node000015"><a xlink:title=" ">
<path fill="none" stroke="#63b8ff" d="M496.89,-329.98C508.15,-321.92 525.29,-309.65 538.71,-300.03"/>
<polygon fill="#63b8ff" stroke="#63b8ff" points="540.8,-302.84 546.89,-294.17 536.73,-297.15 540.8,-302.84"/>
</a>
</g>
</g>
<!-- Node16 -->
<g id="Node000016" class="node">
<title>Node16</title>
<g id="a_Node000016"><a xlink:title=" ">
<polygon fill="#e0e0e0" stroke="#999999" points="653,-294 609,-294 609,-275 653,-275 653,-294"/>
<text text-anchor="middle" x="631" y="-282" font-family="Helvetica,sans-Serif" font-size="10.00">limits</text>
</a>
</g>
</g>
<!-- Node13&#45;&gt;Node16 -->
<g id="edge24_Node000013_Node000016" class="edge">
<title>Node13&#45;&gt;Node16</title>
<g id="a_edge24_Node000013_Node000016"><a xlink:title=" ">
<path fill="none" stroke="#63b8ff" d="M508.46,-329.98C533.01,-321.07 571.72,-307.02 599.05,-297.1"/>
<polygon fill="#63b8ff" stroke="#63b8ff" points="600.35,-300.35 608.56,-293.65 597.97,-293.77 600.35,-300.35"/>
</a>
</g>
</g>
</g>
</svg>
