<?xml version="1.0" encoding="UTF-8" standalone="no"?>
<!DOCTYPE svg PUBLIC "-//W3C//DTD SVG 1.1//EN"
 "http://www.w3.org/Graphics/SVG/1.1/DTD/svg11.dtd">
<!-- Generated by graphviz version 2.43.0 (0)
 -->
<!-- Title: src/rendering/NoiseTexture.cpp Pages: 1 -->
<svg width="408pt" height="258pt"
 viewBox="0.00 0.00 408.00 258.00" xmlns="http://www.w3.org/2000/svg" xmlns:xlink="http://www.w3.org/1999/xlink">
<g id="graph0" class="graph" transform="scale(1 1) rotate(0) translate(4 254)">
<title>src/rendering/NoiseTexture.cpp</title>
<!-- Node1 -->
<g id="Node000001" class="node">
<title>Node1</title>
<g id="a_Node000001"><a xlink:title=" ">
<polygon fill="#999999" stroke="#666666" points="301.5,-250 134.5,-250 134.5,-231 301.5,-231 301.5,-250"/>
<text text-anchor="middle" x="218" y="-238" font-family="Helvetica,sans-Serif" font-size="10.00">src/rendering/NoiseTexture.cpp</text>
</a>
</g>
</g>
<!-- Node2 -->
<g id="Node000002" class="node">
<title>Node2</title>
<g id="a_Node000002"><a xlink:href="../../db/d49/NoiseTexture_8hpp.html" target="_top" xlink:title=" ">
<polygon fill="white" stroke="#666666" points="277.5,-195 158.5,-195 158.5,-165 277.5,-165 277.5,-195"/>
<text text-anchor="start" x="166.5" y="-183" font-family="Helvetica,sans-Serif" font-size="10.00">../../include/rendering</text>
<text text-anchor="middle" x="218" y="-172" font-family="Helvetica,sans-Serif" font-size="10.00">/NoiseTexture.hpp</text>
</a>
</g>
</g>
<!-- Node1&#45;&gt;Node2 -->
<g id="edge1_Node000001_Node000002" class="edge">
<title>Node1&#45;&gt;Node2</title>
<g id="a_edge1_Node000001_Node000002"><a xlink:title=" ">
<path fill="none" stroke="#63b8ff" d="M218,-230.87C218,-224.11 218,-214.35 218,-205.26"/>
<polygon fill="#63b8ff" stroke="#63b8ff" points="221.5,-205.11 218,-195.11 214.5,-205.11 221.5,-205.11"/>
</a>
</g>
</g>
<!-- Node3 -->
<g id="Node000003" class="node">
<title>Node3</title>
<g id="a_Node000003"><a xlink:href="../../d0/ddc/Texture_8hpp.html" target="_top" xlink:title="Declares the abstract base class for all 2&#45;D textures. (Solid colour, checkerboard,...">
<polygon fill="white" stroke="#666666" points="122,-129 48,-129 48,-110 122,-110 122,-129"/>
<text text-anchor="middle" x="85" y="-117" font-family="Helvetica,sans-Serif" font-size="10.00">Texture.hpp</text>
</a>
</g>
</g>
<!-- Node2&#45;&gt;Node3 -->
<g id="edge2_Node000002_Node000003" class="edge">
<title>Node2&#45;&gt;Node3</title>
<g id="a_edge2_Node000002_Node000003"><a xlink:title=" ">
<path fill="none" stroke="#63b8ff" d="M186.14,-164.99C164.15,-155.31 135.15,-142.56 113.84,-133.18"/>
<polygon fill="#63b8ff" stroke="#63b8ff" points="115.2,-129.96 104.64,-129.14 112.39,-136.37 115.2,-129.96"/>
</a>
</g>
</g>
<!-- Node6 -->
<g id="Node000006" class="node">
<title>Node6</title>
<g id="a_Node000006"><a xlink:href="../../d7/d5e/PerlinNoise_8hpp.html" target="_top" xlink:title=" ">
<polygon fill="white" stroke="#666666" points="264.5,-129 171.5,-129 171.5,-110 264.5,-110 264.5,-129"/>
<text text-anchor="middle" x="218" y="-117" font-family="Helvetica,sans-Serif" font-size="10.00">PerlinNoise.hpp</text>
</a>
</g>
</g>
<!-- Node2&#45;&gt;Node6 -->
<g id="edge5_Node000002_Node000006" class="edge">
<title>Node2&#45;&gt;Node6</title>
<g id="a_edge5_Node000002_Node000006"><a xlink:title=" ">
<path fill="none" stroke="#63b8ff" d="M218,-164.84C218,-157.21 218,-147.7 218,-139.45"/>
<polygon fill="#63b8ff" stroke="#63b8ff" points="221.5,-139.27 218,-129.27 214.5,-139.27 221.5,-139.27"/>
</a>
</g>
</g>
<!-- Node11 -->
<g id="Node000011" class="node">
<title>Node11</title>
<g id="a_Node000011"><a xlink:title=" ">
<polygon fill="#e0e0e0" stroke="#999999" points="341,-129 283,-129 283,-110 341,-110 341,-129"/>
<text text-anchor="middle" x="312" y="-117" font-family="Helvetica,sans-Serif" font-size="10.00">memory</text>
</a>
</g>
</g>
<!-- Node2&#45;&gt;Node11 -->
<g id="edge10_Node000002_Node000011" class="edge">
<title>Node2&#45;&gt;Node11</title>
<g id="a_edge10_Node000002_Node000011"><a xlink:title=" ">
<path fill="none" stroke="#63b8ff" d="M240.75,-164.84C255.6,-155.6 274.9,-143.59 289.66,-134.4"/>
<polygon fill="#63b8ff" stroke="#63b8ff" points="291.55,-137.35 298.19,-129.09 287.85,-131.41 291.55,-137.35"/>
</a>
</g>
</g>
<!-- Node4 -->
<g id="Node000004" class="node">
<title>Node4</title>
<g id="a_Node000004"><a xlink:href="../../d3/dde/Vector3D_8hpp.html" target="_top" xlink:title="Defines a 3D vector structure with basic arithmetic and transformation operations.">
<polygon fill="white" stroke="#666666" points="106,-74 0,-74 0,-55 106,-55 106,-74"/>
<text text-anchor="middle" x="53" y="-62" font-family="Helvetica,sans-Serif" font-size="10.00">core/Vector3D.hpp</text>
</a>
</g>
</g>
<!-- Node3&#45;&gt;Node4 -->
<g id="edge3_Node000003_Node000004" class="edge">
<title>Node3&#45;&gt;Node4</title>
<g id="a_edge3_Node000003_Node000004"><a xlink:title=" ">
<path fill="none" stroke="#63b8ff" d="M79.72,-109.75C75.29,-102.42 68.84,-91.73 63.38,-82.7"/>
<polygon fill="#63b8ff" stroke="#63b8ff" points="66.35,-80.84 58.19,-74.09 60.36,-84.46 66.35,-80.84"/>
</a>
</g>
</g>
<!-- Node5 -->
<g id="Node000005" class="node">
<title>Node5</title>
<g id="a_Node000005"><a xlink:title=" ">
<polygon fill="#e0e0e0" stroke="#999999" points="76.5,-19 29.5,-19 29.5,0 76.5,0 76.5,-19"/>
<text text-anchor="middle" x="53" y="-7" font-family="Helvetica,sans-Serif" font-size="10.00">cmath</text>
</a>
</g>
</g>
<!-- Node4&#45;&gt;Node5 -->
<g id="edge4_Node000004_Node000005" class="edge">
<title>Node4&#45;&gt;Node5</title>
<g id="a_edge4_Node000004_Node000005"><a xlink:title=" ">
<path fill="none" stroke="#63b8ff" d="M53,-54.75C53,-47.8 53,-37.85 53,-29.13"/>
<polygon fill="#63b8ff" stroke="#63b8ff" points="56.5,-29.09 53,-19.09 49.5,-29.09 56.5,-29.09"/>
</a>
</g>
</g>
<!-- Node7 -->
<g id="Node000007" class="node">
<title>Node7</title>
<g id="a_Node000007"><a xlink:title=" ">
<polygon fill="#e0e0e0" stroke="#999999" points="171.5,-74 124.5,-74 124.5,-55 171.5,-55 171.5,-74"/>
<text text-anchor="middle" x="148" y="-62" font-family="Helvetica,sans-Serif" font-size="10.00">vector</text>
</a>
</g>
</g>
<!-- Node6&#45;&gt;Node7 -->
<g id="edge6_Node000006_Node000007" class="edge">
<title>Node6&#45;&gt;Node7</title>
<g id="a_edge6_Node000006_Node000007"><a xlink:title=" ">
<path fill="none" stroke="#63b8ff" d="M206.75,-109.98C196.2,-102 180.2,-89.88 167.56,-80.31"/>
<polygon fill="#63b8ff" stroke="#63b8ff" points="169.54,-77.42 159.45,-74.17 165.31,-83 169.54,-77.42"/>
</a>
</g>
</g>
<!-- Node8 -->
<g id="Node000008" class="node">
<title>Node8</title>
<g id="a_Node000008"><a xlink:title=" ">
<polygon fill="#e0e0e0" stroke="#999999" points="246,-74 190,-74 190,-55 246,-55 246,-74"/>
<text text-anchor="middle" x="218" y="-62" font-family="Helvetica,sans-Serif" font-size="10.00">numeric</text>
</a>
</g>
</g>
<!-- Node6&#45;&gt;Node8 -->
<g id="edge7_Node000006_Node000008" class="edge">
<title>Node6&#45;&gt;Node8</title>
<g id="a_edge7_Node000006_Node000008"><a xlink:title=" ">
<path fill="none" stroke="#63b8ff" d="M218,-109.75C218,-102.8 218,-92.85 218,-84.13"/>
<polygon fill="#63b8ff" stroke="#63b8ff" points="221.5,-84.09 218,-74.09 214.5,-84.09 221.5,-84.09"/>
</a>
</g>
</g>
<!-- Node9 -->
<g id="Node000009" class="node">
<title>Node9</title>
<g id="a_Node000009"><a xlink:title=" ">
<polygon fill="#e0e0e0" stroke="#999999" points="318,-74 264,-74 264,-55 318,-55 318,-74"/>
<text text-anchor="middle" x="291" y="-62" font-family="Helvetica,sans-Serif" font-size="10.00">random</text>
</a>
</g>
</g>
<!-- Node6&#45;&gt;Node9 -->
<g id="edge8_Node000006_Node000009" class="edge">
<title>Node6&#45;&gt;Node9</title>
<g id="a_edge8_Node000006_Node000009"><a xlink:title=" ">
<path fill="none" stroke="#63b8ff" d="M229.73,-109.98C240.73,-102 257.42,-89.88 270.6,-80.31"/>
<polygon fill="#63b8ff" stroke="#63b8ff" points="273.02,-82.88 279.06,-74.17 268.91,-77.21 273.02,-82.88"/>
</a>
</g>
</g>
<!-- Node10 -->
<g id="Node000010" class="node">
<title>Node10</title>
<g id="a_Node000010"><a xlink:title=" ">
<polygon fill="#e0e0e0" stroke="#999999" points="400,-74 336,-74 336,-55 400,-55 400,-74"/>
<text text-anchor="middle" x="368" y="-62" font-family="Helvetica,sans-Serif" font-size="10.00">algorithm</text>
</a>
</g>
</g>
<!-- Node6&#45;&gt;Node10 -->
<g id="edge9_Node000006_Node000010" class="edge">
<title>Node6&#45;&gt;Node10</title>
<g id="a_edge9_Node000006_Node000010"><a xlink:title=" ">
<path fill="none" stroke="#63b8ff" d="M242.1,-109.98C266.88,-101.23 305.7,-87.51 333.69,-77.62"/>
<polygon fill="#63b8ff" stroke="#63b8ff" points="335.2,-80.8 343.46,-74.17 332.87,-74.2 335.2,-80.8"/>
</a>
</g>
</g>
</g>
</svg>
