<?xml version="1.0" encoding="UTF-8" standalone="no"?>
<!DOCTYPE svg PUBLIC "-//W3C//DTD SVG 1.1//EN"
 "http://www.w3.org/Graphics/SVG/1.1/DTD/svg11.dtd">
<!-- Generated by graphviz version 2.43.0 (0)
 -->
<!-- Title: include/rendering/Material.hpp Pages: 1 -->
<svg width="308pt" height="192pt"
 viewBox="0.00 0.00 307.50 192.00" xmlns="http://www.w3.org/2000/svg" xmlns:xlink="http://www.w3.org/1999/xlink">
<g id="graph0" class="graph" transform="scale(1 1) rotate(0) translate(4 188)">
<title>include/rendering/Material.hpp</title>
<!-- Node1 -->
<g id="Node000001" class="node">
<title>Node1</title>
<g id="a_Node000001"><a xlink:title="Declares the physically&#45;based material descriptor used by the renderer.">
<polygon fill="#999999" stroke="#666666" points="202,-184 36,-184 36,-165 202,-165 202,-184"/>
<text text-anchor="middle" x="119" y="-172" font-family="Helvetica,sans-Serif" font-size="10.00">include/rendering/Material.hpp</text>
</a>
</g>
</g>
<!-- Node2 -->
<g id="Node000002" class="node">
<title>Node2</title>
<g id="a_Node000002"><a xlink:title=" ">
<polygon fill="#e0e0e0" stroke="#999999" points="44,-129 0,-129 0,-110 44,-110 44,-129"/>
<text text-anchor="middle" x="22" y="-117" font-family="Helvetica,sans-Serif" font-size="10.00">string</text>
</a>
</g>
</g>
<!-- Node1&#45;&gt;Node2 -->
<g id="edge1_Node000001_Node000002" class="edge">
<title>Node1&#45;&gt;Node2</title>
<g id="a_edge1_Node000001_Node000002"><a xlink:title=" ">
<path fill="none" stroke="#63b8ff" d="M103.42,-164.98C88.23,-156.69 64.9,-143.94 47.1,-134.22"/>
<polygon fill="#63b8ff" stroke="#63b8ff" points="48.32,-130.89 37.87,-129.17 44.97,-137.04 48.32,-130.89"/>
</a>
</g>
</g>
<!-- Node3 -->
<g id="Node000003" class="node">
<title>Node3</title>
<g id="a_Node000003"><a xlink:title=" ">
<polygon fill="#e0e0e0" stroke="#999999" points="120,-129 62,-129 62,-110 120,-110 120,-129"/>
<text text-anchor="middle" x="91" y="-117" font-family="Helvetica,sans-Serif" font-size="10.00">memory</text>
</a>
</g>
</g>
<!-- Node1&#45;&gt;Node3 -->
<g id="edge2_Node000001_Node000003" class="edge">
<title>Node1&#45;&gt;Node3</title>
<g id="a_edge2_Node000001_Node000003"><a xlink:title=" ">
<path fill="none" stroke="#63b8ff" d="M114.38,-164.75C110.54,-157.49 104.98,-146.95 100.24,-137.98"/>
<polygon fill="#63b8ff" stroke="#63b8ff" points="103.3,-136.3 95.54,-129.09 97.11,-139.57 103.3,-136.3"/>
</a>
</g>
</g>
<!-- Node4 -->
<g id="Node000004" class="node">
<title>Node4</title>
<g id="a_Node000004"><a xlink:href="../../d3/dde/Vector3D_8hpp.html" target="_top" xlink:title="Defines a 3D vector structure with basic arithmetic and transformation operations.">
<polygon fill="white" stroke="#666666" points="246,-74 140,-74 140,-55 246,-55 246,-74"/>
<text text-anchor="middle" x="193" y="-62" font-family="Helvetica,sans-Serif" font-size="10.00">core/Vector3D.hpp</text>
</a>
</g>
</g>
<!-- Node1&#45;&gt;Node4 -->
<g id="edge3_Node000001_Node000004" class="edge">
<title>Node1&#45;&gt;Node4</title>
<g id="a_edge3_Node000001_Node000004"><a xlink:title=" ">
<path fill="none" stroke="#63b8ff" d="M125.06,-164.66C137.31,-146.77 165.25,-106 181.22,-82.69"/>
<polygon fill="#63b8ff" stroke="#63b8ff" points="184.3,-84.39 187.07,-74.16 178.53,-80.43 184.3,-84.39"/>
</a>
</g>
</g>
<!-- Node6 -->
<g id="Node000006" class="node">
<title>Node6</title>
<g id="a_Node000006"><a xlink:href="../../d0/ddc/Texture_8hpp.html" target="_top" xlink:title="Declares the abstract base class for all 2&#45;D textures. (Solid colour, checkerboard,...">
<polygon fill="white" stroke="#666666" points="299.5,-129 176.5,-129 176.5,-110 299.5,-110 299.5,-129"/>
<text text-anchor="middle" x="238" y="-117" font-family="Helvetica,sans-Serif" font-size="10.00">rendering/Texture.hpp</text>
</a>
</g>
</g>
<!-- Node1&#45;&gt;Node6 -->
<g id="edge5_Node000001_Node000006" class="edge">
<title>Node1&#45;&gt;Node6</title>
<g id="a_edge5_Node000001_Node000006"><a xlink:title=" ">
<path fill="none" stroke="#63b8ff" d="M138.12,-164.98C157.35,-156.42 187.23,-143.11 209.31,-133.28"/>
<polygon fill="#63b8ff" stroke="#63b8ff" points="210.82,-136.44 218.53,-129.17 207.97,-130.04 210.82,-136.44"/>
</a>
</g>
</g>
<!-- Node5 -->
<g id="Node000005" class="node">
<title>Node5</title>
<g id="a_Node000005"><a xlink:title=" ">
<polygon fill="#e0e0e0" stroke="#999999" points="216.5,-19 169.5,-19 169.5,0 216.5,0 216.5,-19"/>
<text text-anchor="middle" x="193" y="-7" font-family="Helvetica,sans-Serif" font-size="10.00">cmath</text>
</a>
</g>
</g>
<!-- Node4&#45;&gt;Node5 -->
<g id="edge4_Node000004_Node000005" class="edge">
<title>Node4&#45;&gt;Node5</title>
<g id="a_edge4_Node000004_Node000005"><a xlink:title=" ">
<path fill="none" stroke="#63b8ff" d="M193,-54.75C193,-47.8 193,-37.85 193,-29.13"/>
<polygon fill="#63b8ff" stroke="#63b8ff" points="196.5,-29.09 193,-19.09 189.5,-29.09 196.5,-29.09"/>
</a>
</g>
</g>
<!-- Node6&#45;&gt;Node4 -->
<g id="edge6_Node000006_Node000004" class="edge">
<title>Node6&#45;&gt;Node4</title>
<g id="a_edge6_Node000006_Node000004"><a xlink:title=" ">
<path fill="none" stroke="#63b8ff" d="M230.57,-109.75C224.15,-102.18 214.69,-91.05 206.88,-81.84"/>
<polygon fill="#63b8ff" stroke="#63b8ff" points="209.43,-79.45 200.29,-74.09 204.1,-83.98 209.43,-79.45"/>
</a>
</g>
</g>
</g>
</svg>
