<?xml version="1.0" encoding="UTF-8" standalone="no"?>
<!DOCTYPE svg PUBLIC "-//W3C//DTD SVG 1.1//EN"
 "http://www.w3.org/Graphics/SVG/1.1/DTD/svg11.dtd">
<!-- Generated by graphviz version 2.43.0 (0)
 -->
<!-- Title: Math::Vector3D::cross Pages: 1 -->
<svg width="1055pt" height="346pt"
 viewBox="0.00 0.00 1055.00 345.50" xmlns="http://www.w3.org/2000/svg" xmlns:xlink="http://www.w3.org/1999/xlink">
<g id="graph0" class="graph" transform="scale(1 1) rotate(0) translate(4 341.5)">
<title>Math::Vector3D::cross</title>
<!-- Node1 -->
<g id="Node000001" class="node">
<title>Node1</title>
<g id="a_Node000001"><a xlink:title="Computes the cross product between this and another vector.">
<polygon fill="#999999" stroke="#666666" points="1047,-181 924,-181 924,-162 1047,-162 1047,-181"/>
<text text-anchor="middle" x="985.5" y="-169" font-family="Helvetica,sans-Serif" font-size="10.00">Math::Vector3D::cross</text>
</a>
</g>
</g>
<!-- Node2 -->
<g id="Node000002" class="node">
<title>Node2</title>
<g id="a_Node000002"><a xlink:href="../../dc/dd2/classRayTracer_1_1Camera.html#a4caf3b5d56694b095e324a36531f9f05" target="_top" xlink:title="Build a camera looking from lookfrom towards lookat.">
<polygon fill="white" stroke="#666666" points="862.5,-337.5 747.5,-337.5 747.5,-307.5 862.5,-307.5 862.5,-337.5"/>
<text text-anchor="start" x="755.5" y="-325.5" font-family="Helvetica,sans-Serif" font-size="10.00">RayTracer::Camera::</text>
<text text-anchor="middle" x="805" y="-314.5" font-family="Helvetica,sans-Serif" font-size="10.00">Camera</text>
</a>
</g>
</g>
<!-- Node1&#45;&gt;Node2 -->
<g id="edge1_Node000001_Node000002" class="edge">
<title>Node1&#45;&gt;Node2</title>
<g id="a_edge1_Node000001_Node000002"><a xlink:title=" ">
<path fill="none" stroke="#63b8ff" d="M975.3,-190.18C960.67,-217.97 929.44,-269.97 888,-298.5 880.42,-303.71 871.71,-307.81 862.85,-311.03"/>
<polygon fill="#63b8ff" stroke="#63b8ff" points="978.5,-191.62 979.93,-181.13 972.26,-188.44 978.5,-191.62"/>
</a>
</g>
</g>
<!-- Node3 -->
<g id="Node000003" class="node">
<title>Node3</title>
<g id="a_Node000003"><a xlink:href="../../db/d22/classRayTracer_1_1Cone.html#a9619d0b7734c98c2fdca05aa694d4ad0" target="_top" xlink:title="Ray–cone intersection: side + base cap.">
<polygon fill="white" stroke="#666666" points="864.5,-289 745.5,-289 745.5,-270 864.5,-270 864.5,-289"/>
<text text-anchor="middle" x="805" y="-277" font-family="Helvetica,sans-Serif" font-size="10.00">RayTracer::Cone::hits</text>
</a>
</g>
</g>
<!-- Node1&#45;&gt;Node3 -->
<g id="edge2_Node000001_Node000003" class="edge">
<title>Node1&#45;&gt;Node3</title>
<g id="a_edge2_Node000001_Node000003"><a xlink:title=" ">
<path fill="none" stroke="#63b8ff" d="M970.4,-189.16C953.15,-209.53 922.03,-242.51 888,-260.5 880.64,-264.39 872.49,-267.49 864.27,-269.96"/>
<polygon fill="#63b8ff" stroke="#63b8ff" points="973.24,-191.22 976.91,-181.28 967.84,-186.76 973.24,-191.22"/>
</a>
</g>
</g>
<!-- Node4 -->
<g id="Node000004" class="node">
<title>Node4</title>
<g id="a_Node000004"><a xlink:href="../../d8/d07/classRayTracer_1_1Cylinder.html#acf80bd4840c66778143357fbcb4980c6" target="_top" xlink:title="Ray–cylinder intersection test.">
<polygon fill="white" stroke="#666666" points="860.5,-251.5 749.5,-251.5 749.5,-221.5 860.5,-221.5 860.5,-251.5"/>
<text text-anchor="start" x="757.5" y="-239.5" font-family="Helvetica,sans-Serif" font-size="10.00">RayTracer::Cylinder</text>
<text text-anchor="middle" x="805" y="-228.5" font-family="Helvetica,sans-Serif" font-size="10.00">::hits</text>
</a>
</g>
</g>
<!-- Node1&#45;&gt;Node4 -->
<g id="edge3_Node000001_Node000004" class="edge">
<title>Node1&#45;&gt;Node4</title>
<g id="a_edge3_Node000001_Node000004"><a xlink:title=" ">
<path fill="none" stroke="#63b8ff" d="M954.8,-185.19C935.89,-193.63 910.77,-204.36 888,-212.5 879.2,-215.65 869.77,-218.7 860.54,-221.51"/>
<polygon fill="#63b8ff" stroke="#63b8ff" points="956.39,-188.31 964.07,-181.01 953.52,-181.93 956.39,-188.31"/>
</a>
</g>
</g>
<!-- Node5 -->
<g id="Node000005" class="node">
<title>Node5</title>
<g id="a_Node000005"><a xlink:href="../../dc/da2/classRayTracer_1_1Plane.html#adf42784a24fe49eaf20f3ae92eeb7fa4" target="_top" xlink:title="Ray–plane intersection.">
<polygon fill="white" stroke="#666666" points="866,-203 744,-203 744,-184 866,-184 866,-203"/>
<text text-anchor="middle" x="805" y="-191" font-family="Helvetica,sans-Serif" font-size="10.00">RayTracer::Plane::hits</text>
</a>
</g>
</g>
<!-- Node1&#45;&gt;Node5 -->
<g id="edge4_Node000001_Node000005" class="edge">
<title>Node1&#45;&gt;Node5</title>
<g id="a_edge4_Node000001_Node000005"><a xlink:title=" ">
<path fill="none" stroke="#63b8ff" d="M913.4,-180.26C897.71,-182.2 881.25,-184.23 866.05,-186.1"/>
<polygon fill="#63b8ff" stroke="#63b8ff" points="914.07,-183.71 923.57,-179.01 913.22,-176.76 914.07,-183.71"/>
</a>
</g>
</g>
<!-- Node6 -->
<g id="Node000006" class="node">
<title>Node6</title>
<g id="a_Node000006"><a xlink:href="../../d5/d77/classRayTracer_1_1Triangle.html#ad13f001de30ab080e537d2653fc463fc" target="_top" xlink:title="Ray–triangle intersection test with hit record.">
<polygon fill="white" stroke="#666666" points="859.5,-165.5 750.5,-165.5 750.5,-135.5 859.5,-135.5 859.5,-165.5"/>
<text text-anchor="start" x="758.5" y="-153.5" font-family="Helvetica,sans-Serif" font-size="10.00">RayTracer::Triangle</text>
<text text-anchor="middle" x="805" y="-142.5" font-family="Helvetica,sans-Serif" font-size="10.00">::hits</text>
</a>
</g>
</g>
<!-- Node1&#45;&gt;Node6 -->
<g id="edge5_Node000001_Node000006" class="edge">
<title>Node1&#45;&gt;Node6</title>
<g id="a_edge5_Node000001_Node000006"><a xlink:title=" ">
<path fill="none" stroke="#63b8ff" d="M913.22,-163.11C895.4,-161.02 876.59,-158.81 859.79,-156.83"/>
<polygon fill="#63b8ff" stroke="#63b8ff" points="913.23,-166.64 923.57,-164.33 914.05,-159.69 913.23,-166.64"/>
</a>
</g>
</g>
<!-- Node7 -->
<g id="Node000007" class="node">
<title>Node7</title>
<g id="a_Node000007"><a xlink:href="../../d5/d77/classRayTracer_1_1Triangle.html#a7bee0072308947550a93118f1f1e0b7f" target="_top" xlink:title="Ray–triangle intersection without back&#45;face culling.">
<polygon fill="white" stroke="#666666" points="859.5,-117.5 750.5,-117.5 750.5,-87.5 859.5,-87.5 859.5,-117.5"/>
<text text-anchor="start" x="758.5" y="-105.5" font-family="Helvetica,sans-Serif" font-size="10.00">RayTracer::Triangle</text>
<text text-anchor="middle" x="805" y="-94.5" font-family="Helvetica,sans-Serif" font-size="10.00">::hitsNoCull</text>
</a>
</g>
</g>
<!-- Node1&#45;&gt;Node7 -->
<g id="edge6_Node000001_Node000007" class="edge">
<title>Node1&#45;&gt;Node7</title>
<g id="a_edge6_Node000001_Node000007"><a xlink:title=" ">
<path fill="none" stroke="#63b8ff" d="M957,-157.31C937.94,-147.82 911.82,-135.48 888,-126.5 878.98,-123.1 869.25,-119.88 859.76,-116.96"/>
<polygon fill="#63b8ff" stroke="#63b8ff" points="955.49,-160.47 966,-161.85 958.64,-154.22 955.49,-160.47"/>
</a>
</g>
</g>
<!-- Node8 -->
<g id="Node000008" class="node">
<title>Node8</title>
<g id="a_Node000008"><a xlink:href="../../d3/d79/SceneParser_8cpp.html#a719f34dae6ee5f4594209dea344bdee0" target="_top" xlink:title=" ">
<polygon fill="white" stroke="#666666" points="845.5,-69 764.5,-69 764.5,-50 845.5,-50 845.5,-69"/>
<text text-anchor="middle" x="805" y="-57" font-family="Helvetica,sans-Serif" font-size="10.00">ParseCamera</text>
</a>
</g>
</g>
<!-- Node1&#45;&gt;Node8 -->
<g id="edge7_Node000001_Node000008" class="edge">
<title>Node1&#45;&gt;Node8</title>
<g id="a_edge7_Node000001_Node000008"><a xlink:title=" ">
<path fill="none" stroke="#63b8ff" d="M971.1,-153.69C954.14,-132.45 922.89,-97.44 888,-78.5 875.03,-71.46 859.53,-67.02 845.51,-64.22"/>
<polygon fill="#63b8ff" stroke="#63b8ff" points="968.56,-156.12 977.47,-161.86 974.08,-151.82 968.56,-156.12"/>
</a>
</g>
</g>
<!-- Node14 -->
<g id="Node000014" class="node">
<title>Node14</title>
<g id="a_Node000014"><a xlink:href="../../d1/df4/namespaceRayTracer.html#ab7c27bbad4b80e8966900494064dbb20" target="_top" xlink:title="Cosine&#45;weighted hemisphere sampling around a shading normal.">
<polygon fill="white" stroke="#666666" points="888,-28 722,-28 722,-9 888,-9 888,-28"/>
<text text-anchor="middle" x="805" y="-16" font-family="Helvetica,sans-Serif" font-size="10.00">RayTracer::sampleHemisphere</text>
</a>
</g>
</g>
<!-- Node1&#45;&gt;Node14 -->
<g id="edge14_Node000001_Node000014" class="edge">
<title>Node1&#45;&gt;Node14</title>
<g id="a_edge14_Node000001_Node000014"><a xlink:title=" ">
<path fill="none" stroke="#63b8ff" d="M975.75,-152.53C961.52,-123.81 930.59,-69.58 888,-40.5 880.21,-35.18 871.19,-31.15 862.04,-28.09"/>
<polygon fill="#63b8ff" stroke="#63b8ff" points="972.75,-154.36 980.23,-161.86 979.06,-151.33 972.75,-154.36"/>
</a>
</g>
</g>
<!-- Node9 -->
<g id="Node000009" class="node">
<title>Node9</title>
<g id="a_Node000009"><a xlink:href="../../d1/df4/namespaceRayTracer.html#a4bbc9c3996d70f6a71cf4d185a4811d6" target="_top" xlink:title="Loads a single scene file (non&#45;recursive).">
<polygon fill="white" stroke="#666666" points="686,-74 565,-74 565,-55 686,-55 686,-74"/>
<text text-anchor="middle" x="625.5" y="-62" font-family="Helvetica,sans-Serif" font-size="10.00">RayTracer::loadScene</text>
</a>
</g>
</g>
<!-- Node8&#45;&gt;Node9 -->
<g id="edge8_Node000008_Node000009" class="edge">
<title>Node8&#45;&gt;Node9</title>
<g id="a_edge8_Node000008_Node000009"><a xlink:title=" ">
<path fill="none" stroke="#63b8ff" d="M754.11,-60.91C732.98,-61.5 708.18,-62.2 686.1,-62.82"/>
<polygon fill="#63b8ff" stroke="#63b8ff" points="754.27,-64.4 764.17,-60.62 754.07,-57.41 754.27,-64.4"/>
</a>
</g>
</g>
<!-- Node10 -->
<g id="Node000010" class="node">
<title>Node10</title>
<g id="a_Node000010"><a xlink:href="../../d1/df4/namespaceRayTracer.html#a9aa92d0c88c2ac9be33f27ba71e8ceaa" target="_top" xlink:title="Recursively loads a scene and any referenced sub&#45;scenes from file(s).">
<polygon fill="white" stroke="#666666" points="529,-69 360,-69 360,-50 529,-50 529,-69"/>
<text text-anchor="middle" x="444.5" y="-57" font-family="Helvetica,sans-Serif" font-size="10.00">RayTracer::loadSceneRecursive</text>
</a>
</g>
</g>
<!-- Node9&#45;&gt;Node10 -->
<g id="edge9_Node000009_Node000010" class="edge">
<title>Node9&#45;&gt;Node10</title>
<g id="a_edge9_Node000009_Node000010"><a xlink:title=" ">
<path fill="none" stroke="#63b8ff" d="M554.76,-62.55C546.34,-62.32 537.67,-62.07 529.08,-61.83"/>
<polygon fill="#63b8ff" stroke="#63b8ff" points="554.8,-66.05 564.9,-62.84 555,-59.06 554.8,-66.05"/>
</a>
</g>
</g>
<!-- Node10&#45;&gt;Node10 -->
<g id="edge13_Node000010_Node000010" class="edge">
<title>Node10&#45;&gt;Node10</title>
<g id="a_edge13_Node000010_Node000010"><a xlink:title=" ">
<path fill="none" stroke="#63b8ff" d="M478.18,-77.45C477.22,-82.82 465.99,-87 444.5,-87 412.51,-87 403.26,-77.73 416.76,-69.08"/>
<polygon fill="#63b8ff" stroke="#63b8ff" points="480.89,-75.21 472.24,-69.08 475.18,-79.26 480.89,-75.21"/>
</a>
</g>
</g>
<!-- Node11 -->
<g id="Node000011" class="node">
<title>Node11</title>
<g id="a_Node000011"><a xlink:href="../../d4/d3d/namespaceUtils.html#a763a2a5523575e2175022d2623a77d05" target="_top" xlink:title="Loads a scene from file, or exits on failure.">
<polygon fill="white" stroke="#666666" points="324,-64 199,-64 199,-45 324,-45 324,-64"/>
<text text-anchor="middle" x="261.5" y="-52" font-family="Helvetica,sans-Serif" font-size="10.00">Utils::loadSceneOrExit</text>
</a>
</g>
</g>
<!-- Node10&#45;&gt;Node11 -->
<g id="edge10_Node000010_Node000011" class="edge">
<title>Node10&#45;&gt;Node11</title>
<g id="a_edge10_Node000010_Node000011"><a xlink:title=" ">
<path fill="none" stroke="#63b8ff" d="M349.71,-56.91C341.04,-56.67 332.4,-56.43 324.13,-56.2"/>
<polygon fill="#63b8ff" stroke="#63b8ff" points="349.79,-60.41 359.89,-57.19 349.99,-53.42 349.79,-60.41"/>
</a>
</g>
</g>
<!-- Node12 -->
<g id="Node000012" class="node">
<title>Node12</title>
<g id="a_Node000012"><a xlink:href="../../dd/dea/classRaytracer.html#a844a5a660abbb9d21608fc170074e0c5" target="_top" xlink:title="Launch the raytracing process.">
<polygon fill="white" stroke="#666666" points="163,-45 77,-45 77,-26 163,-26 163,-45"/>
<text text-anchor="middle" x="120" y="-33" font-family="Helvetica,sans-Serif" font-size="10.00">Raytracer::run</text>
</a>
</g>
</g>
<!-- Node11&#45;&gt;Node12 -->
<g id="edge11_Node000011_Node000012" class="edge">
<title>Node11&#45;&gt;Node12</title>
<g id="a_edge11_Node000011_Node000012"><a xlink:title=" ">
<path fill="none" stroke="#63b8ff" d="M188.92,-44.75C180.07,-43.55 171.25,-42.34 163.05,-41.23"/>
<polygon fill="#63b8ff" stroke="#63b8ff" points="188.53,-48.23 198.91,-46.11 189.47,-41.29 188.53,-48.23"/>
</a>
</g>
</g>
<!-- Node13 -->
<g id="Node000013" class="node">
<title>Node13</title>
<g id="a_Node000013"><a xlink:href="../../df/d0a/main_8cpp.html#a0ddf1224851353fc92bfbff6f499fa97" target="_top" xlink:title="Raimond is a good Raytracer. Logic, it&#39;s Raimond.">
<polygon fill="white" stroke="#666666" points="41,-45 0,-45 0,-26 41,-26 41,-45"/>
<text text-anchor="middle" x="20.5" y="-33" font-family="Helvetica,sans-Serif" font-size="10.00">main</text>
</a>
</g>
</g>
<!-- Node12&#45;&gt;Node13 -->
<g id="edge12_Node000012_Node000013" class="edge">
<title>Node12&#45;&gt;Node13</title>
<g id="a_edge12_Node000012_Node000013"><a xlink:title=" ">
<path fill="none" stroke="#63b8ff" d="M66.52,-35.5C57.42,-35.5 48.5,-35.5 41.03,-35.5"/>
<polygon fill="#63b8ff" stroke="#63b8ff" points="66.8,-39 76.8,-35.5 66.8,-32 66.8,-39"/>
</a>
</g>
</g>
<!-- Node15 -->
<g id="Node000015" class="node">
<title>Node15</title>
<g id="a_Node000015"><a xlink:href="../../d1/df4/namespaceRayTracer.html#ab1ca8a59872e03b73fafc26443c5c1df" target="_top" xlink:title="Recursive path&#45;tracing integrator.">
<polygon fill="white" stroke="#666666" points="675.5,-19 575.5,-19 575.5,0 675.5,0 675.5,-19"/>
<text text-anchor="middle" x="625.5" y="-7" font-family="Helvetica,sans-Serif" font-size="10.00">RayTracer::shade</text>
</a>
</g>
</g>
<!-- Node14&#45;&gt;Node15 -->
<g id="edge15_Node000014_Node000015" class="edge">
<title>Node14&#45;&gt;Node15</title>
<g id="a_edge15_Node000014_Node000015"><a xlink:title=" ">
<path fill="none" stroke="#63b8ff" d="M711.74,-13.82C699.27,-13.19 686.89,-12.56 675.59,-11.99"/>
<polygon fill="#63b8ff" stroke="#63b8ff" points="711.58,-17.32 721.75,-14.33 711.94,-10.33 711.58,-17.32"/>
</a>
</g>
</g>
<!-- Node15&#45;&gt;Node15 -->
<g id="edge18_Node000015_Node000015" class="edge">
<title>Node15&#45;&gt;Node15</title>
<g id="a_edge18_Node000015_Node000015"><a xlink:title=" ">
<path fill="none" stroke="#63b8ff" d="M658.81,-27.45C657.86,-32.82 646.76,-37 625.5,-37 593.86,-37 584.72,-27.73 598.07,-19.08"/>
<polygon fill="#63b8ff" stroke="#63b8ff" points="661.55,-25.26 652.93,-19.08 655.82,-29.28 661.55,-25.26"/>
</a>
</g>
</g>
<!-- Node16 -->
<g id="Node000016" class="node">
<title>Node16</title>
<g id="a_Node000016"><a xlink:href="../../d4/d3d/namespaceUtils.html#a8e063dafa9ed499eae606a8effdb5130" target="_top" xlink:title="Performs the raytracing process and produces the framebuffer.">
<polygon fill="white" stroke="#666666" points="315,-27 208,-27 208,-8 315,-8 315,-27"/>
<text text-anchor="middle" x="261.5" y="-15" font-family="Helvetica,sans-Serif" font-size="10.00">Utils::renderImage</text>
</a>
</g>
</g>
<!-- Node15&#45;&gt;Node16 -->
<g id="edge16_Node000015_Node000016" class="edge">
<title>Node15&#45;&gt;Node16</title>
<g id="a_edge16_Node000015_Node000016"><a xlink:title=" ">
<path fill="none" stroke="#63b8ff" d="M564.96,-10.82C495.43,-12.35 381.52,-14.87 315.11,-16.34"/>
<polygon fill="#63b8ff" stroke="#63b8ff" points="565.38,-14.31 575.3,-10.59 565.23,-7.31 565.38,-14.31"/>
</a>
</g>
</g>
<!-- Node16&#45;&gt;Node12 -->
<g id="edge17_Node000016_Node000012" class="edge">
<title>Node16&#45;&gt;Node12</title>
<g id="a_edge17_Node000016_Node000012"><a xlink:title=" ">
<path fill="none" stroke="#63b8ff" d="M197.67,-25.61C186.06,-27.1 174.21,-28.63 163.39,-30.03"/>
<polygon fill="#63b8ff" stroke="#63b8ff" points="198.29,-29.06 207.76,-24.31 197.4,-22.11 198.29,-29.06"/>
</a>
</g>
</g>
</g>
</svg>
