<?xml version="1.0" encoding="UTF-8" standalone="no"?>
<!DOCTYPE svg PUBLIC "-//W3C//DTD SVG 1.1//EN"
 "http://www.w3.org/Graphics/SVG/1.1/DTD/svg11.dtd">
<!-- Generated by graphviz version 2.43.0 (0)
 -->
<!-- Title: Math::Vector3D::normalized Pages: 1 -->
<svg width="664pt" height="217pt"
 viewBox="0.00 0.00 664.00 216.50" xmlns="http://www.w3.org/2000/svg" xmlns:xlink="http://www.w3.org/1999/xlink">
<g id="graph0" class="graph" transform="scale(1 1) rotate(0) translate(4 212.5)">
<title>Math::Vector3D::normalized</title>
<!-- Node1 -->
<g id="Node000001" class="node">
<title>Node1</title>
<g id="a_Node000001"><a xlink:title="Returns a normalized (unit&#45;length) copy of the vector.">
<polygon fill="#999999" stroke="#666666" points="656,-117 504,-117 504,-98 656,-98 656,-117"/>
<text text-anchor="middle" x="580" y="-105" font-family="Helvetica,sans-Serif" font-size="10.00">Math::Vector3D::normalized</text>
</a>
</g>
</g>
<!-- Node2 -->
<g id="Node000002" class="node">
<title>Node2</title>
<g id="a_Node000002"><a xlink:href="../../df/de3/classRayTracer_1_1PointLight.html#adfcdf49661b0802206002cc8e2f5371b" target="_top" xlink:title="Compute the incoming light direction at a point.">
<polygon fill="white" stroke="#666666" points="464.5,-208.5 345.5,-208.5 345.5,-178.5 464.5,-178.5 464.5,-208.5"/>
<text text-anchor="start" x="353.5" y="-196.5" font-family="Helvetica,sans-Serif" font-size="10.00">RayTracer::PointLight</text>
<text text-anchor="middle" x="405" y="-185.5" font-family="Helvetica,sans-Serif" font-size="10.00">::direction</text>
</a>
</g>
</g>
<!-- Node1&#45;&gt;Node2 -->
<g id="edge1_Node000001_Node000002" class="edge">
<title>Node1&#45;&gt;Node2</title>
<g id="a_edge1_Node000001_Node000002"><a xlink:title=" ">
<path fill="none" stroke="#63b8ff" d="M554.83,-122.3C532.68,-135.54 498.76,-155.04 468,-169.5 461.42,-172.59 454.32,-175.62 447.36,-178.42"/>
<polygon fill="#63b8ff" stroke="#63b8ff" points="556.8,-125.2 563.56,-117.04 553.18,-119.2 556.8,-125.2"/>
</a>
</g>
</g>
<!-- Node3 -->
<g id="Node000003" class="node">
<title>Node3</title>
<g id="a_Node000003"><a xlink:href="../../d8/d74/classRayTracer_1_1Matrix.html#a78a0a23a0003349438eec10920c145c1" target="_top" xlink:title="Perform ray–transformed&#45;primitive intersection test.">
<polygon fill="white" stroke="#666666" points="468,-160 342,-160 342,-141 468,-141 468,-160"/>
<text text-anchor="middle" x="405" y="-148" font-family="Helvetica,sans-Serif" font-size="10.00">RayTracer::Matrix::hits</text>
</a>
</g>
</g>
<!-- Node1&#45;&gt;Node3 -->
<g id="edge2_Node000001_Node000003" class="edge">
<title>Node1&#45;&gt;Node3</title>
<g id="a_edge2_Node000001_Node000003"><a xlink:title=" ">
<path fill="none" stroke="#63b8ff" d="M530.85,-119.47C503.53,-126.26 469.8,-134.64 444.29,-140.98"/>
<polygon fill="#63b8ff" stroke="#63b8ff" points="531.75,-122.85 540.61,-117.04 530.06,-116.06 531.75,-122.85"/>
</a>
</g>
</g>
<!-- Node4 -->
<g id="Node000004" class="node">
<title>Node4</title>
<g id="a_Node000004"><a xlink:href="../../da/dad/classRayTracer_1_1Rotation.html#a84b60a8550ead4a3cf6cf07a9eaa52ff" target="_top" xlink:title="Tests for ray–rotated&#45;primitive intersection.">
<polygon fill="white" stroke="#666666" points="461,-122.5 349,-122.5 349,-92.5 461,-92.5 461,-122.5"/>
<text text-anchor="start" x="357" y="-110.5" font-family="Helvetica,sans-Serif" font-size="10.00">RayTracer::Rotation</text>
<text text-anchor="middle" x="405" y="-99.5" font-family="Helvetica,sans-Serif" font-size="10.00">::hits</text>
</a>
</g>
</g>
<!-- Node1&#45;&gt;Node4 -->
<g id="edge3_Node000001_Node000004" class="edge">
<title>Node1&#45;&gt;Node4</title>
<g id="a_edge3_Node000001_Node000004"><a xlink:title=" ">
<path fill="none" stroke="#63b8ff" d="M493.69,-107.5C482.58,-107.5 471.44,-107.5 461,-107.5"/>
<polygon fill="#63b8ff" stroke="#63b8ff" points="493.87,-111 503.87,-107.5 493.87,-104 493.87,-111"/>
</a>
</g>
</g>
<!-- Node5 -->
<g id="Node000005" class="node">
<title>Node5</title>
<g id="a_Node000005"><a xlink:href="../../de/d10/classRayTracer_1_1Shear.html#a4a97e4d68ce15dade54c71359ff2474d" target="_top" xlink:title="Performs ray intersection test after applying the shear transformation.">
<polygon fill="white" stroke="#666666" points="466,-74 344,-74 344,-55 466,-55 466,-74"/>
<text text-anchor="middle" x="405" y="-62" font-family="Helvetica,sans-Serif" font-size="10.00">RayTracer::Shear::hits</text>
</a>
</g>
</g>
<!-- Node1&#45;&gt;Node5 -->
<g id="edge4_Node000001_Node000005" class="edge">
<title>Node1&#45;&gt;Node5</title>
<g id="a_edge4_Node000001_Node000005"><a xlink:title=" ">
<path fill="none" stroke="#63b8ff" d="M530.85,-95.53C503.53,-88.74 469.8,-80.36 444.29,-74.02"/>
<polygon fill="#63b8ff" stroke="#63b8ff" points="530.06,-98.94 540.61,-97.96 531.75,-92.15 530.06,-98.94"/>
</a>
</g>
</g>
<!-- Node6 -->
<g id="Node000006" class="node">
<title>Node6</title>
<g id="a_Node000006"><a xlink:href="../../d1/df4/namespaceRayTracer.html#ab1ca8a59872e03b73fafc26443c5c1df" target="_top" xlink:title="Recursive path&#45;tracing integrator.">
<polygon fill="white" stroke="#666666" points="455,-19 355,-19 355,0 455,0 455,-19"/>
<text text-anchor="middle" x="405" y="-7" font-family="Helvetica,sans-Serif" font-size="10.00">RayTracer::shade</text>
</a>
</g>
</g>
<!-- Node1&#45;&gt;Node6 -->
<g id="edge5_Node000001_Node000006" class="edge">
<title>Node1&#45;&gt;Node6</title>
<g id="a_edge5_Node000001_Node000006"><a xlink:title=" ">
<path fill="none" stroke="#63b8ff" d="M553.2,-92.88C517.33,-72.56 453.38,-36.34 422.97,-19.11"/>
<polygon fill="#63b8ff" stroke="#63b8ff" points="551.67,-96.04 562.1,-97.92 555.12,-89.95 551.67,-96.04"/>
</a>
</g>
</g>
<!-- Node6&#45;&gt;Node6 -->
<g id="edge9_Node000006_Node000006" class="edge">
<title>Node6&#45;&gt;Node6</title>
<g id="a_edge9_Node000006_Node000006"><a xlink:title=" ">
<path fill="none" stroke="#63b8ff" d="M433.37,-27.82C432.19,-33.01 422.73,-37 405,-37 377.98,-37 370.18,-27.73 381.57,-19.08"/>
<polygon fill="#63b8ff" stroke="#63b8ff" points="436.4,-26.06 428.43,-19.08 430.31,-29.51 436.4,-26.06"/>
</a>
</g>
</g>
<!-- Node7 -->
<g id="Node000007" class="node">
<title>Node7</title>
<g id="a_Node000007"><a xlink:href="../../d4/d3d/namespaceUtils.html#a8e063dafa9ed499eae606a8effdb5130" target="_top" xlink:title="Performs the raytracing process and produces the framebuffer.">
<polygon fill="white" stroke="#666666" points="306,-19 199,-19 199,0 306,0 306,-19"/>
<text text-anchor="middle" x="252.5" y="-7" font-family="Helvetica,sans-Serif" font-size="10.00">Utils::renderImage</text>
</a>
</g>
</g>
<!-- Node6&#45;&gt;Node7 -->
<g id="edge6_Node000006_Node000007" class="edge">
<title>Node6&#45;&gt;Node7</title>
<g id="a_edge6_Node000006_Node000007"><a xlink:title=" ">
<path fill="none" stroke="#63b8ff" d="M344.71,-9.5C332.01,-9.5 318.69,-9.5 306.26,-9.5"/>
<polygon fill="#63b8ff" stroke="#63b8ff" points="344.72,-13 354.72,-9.5 344.72,-6 344.72,-13"/>
</a>
</g>
</g>
<!-- Node8 -->
<g id="Node000008" class="node">
<title>Node8</title>
<g id="a_Node000008"><a xlink:href="../../dd/dea/classRaytracer.html#a844a5a660abbb9d21608fc170074e0c5" target="_top" xlink:title="Launch the raytracing process.">
<polygon fill="white" stroke="#666666" points="163,-19 77,-19 77,0 163,0 163,-19"/>
<text text-anchor="middle" x="120" y="-7" font-family="Helvetica,sans-Serif" font-size="10.00">Raytracer::run</text>
</a>
</g>
</g>
<!-- Node7&#45;&gt;Node8 -->
<g id="edge7_Node000007_Node000008" class="edge">
<title>Node7&#45;&gt;Node8</title>
<g id="a_edge7_Node000007_Node000008"><a xlink:title=" ">
<path fill="none" stroke="#63b8ff" d="M188.67,-9.5C179.99,-9.5 171.25,-9.5 163.07,-9.5"/>
<polygon fill="#63b8ff" stroke="#63b8ff" points="188.8,-13 198.8,-9.5 188.8,-6 188.8,-13"/>
</a>
</g>
</g>
<!-- Node9 -->
<g id="Node000009" class="node">
<title>Node9</title>
<g id="a_Node000009"><a xlink:href="../../df/d0a/main_8cpp.html#a0ddf1224851353fc92bfbff6f499fa97" target="_top" xlink:title="Raimond is a good Raytracer. Logic, it&#39;s Raimond.">
<polygon fill="white" stroke="#666666" points="41,-19 0,-19 0,0 41,0 41,-19"/>
<text text-anchor="middle" x="20.5" y="-7" font-family="Helvetica,sans-Serif" font-size="10.00">main</text>
</a>
</g>
</g>
<!-- Node8&#45;&gt;Node9 -->
<g id="edge8_Node000008_Node000009" class="edge">
<title>Node8&#45;&gt;Node9</title>
<g id="a_edge8_Node000008_Node000009"><a xlink:title=" ">
<path fill="none" stroke="#63b8ff" d="M66.52,-9.5C57.42,-9.5 48.5,-9.5 41.03,-9.5"/>
<polygon fill="#63b8ff" stroke="#63b8ff" points="66.8,-13 76.8,-9.5 66.8,-6 66.8,-13"/>
</a>
</g>
</g>
</g>
</svg>
