<?xml version="1.0" encoding="UTF-8" standalone="no"?>
<!DOCTYPE svg PUBLIC "-//W3C//DTD SVG 1.1//EN"
 "http://www.w3.org/Graphics/SVG/1.1/DTD/svg11.dtd">
<!-- Generated by graphviz version 2.43.0 (0)
 -->
<!-- Title: Math::Vector3D::length Pages: 1 -->
<svg width="1060pt" height="431pt"
 viewBox="0.00 0.00 1060.00 430.50" xmlns="http://www.w3.org/2000/svg" xmlns:xlink="http://www.w3.org/1999/xlink">
<g id="graph0" class="graph" transform="scale(1 1) rotate(0) translate(4 426.5)">
<title>Math::Vector3D::length</title>
<!-- Node1 -->
<g id="Node000001" class="node">
<title>Node1</title>
<g id="a_Node000001"><a xlink:title="Computes the Euclidean length (norm) of the vector.">
<polygon fill="#999999" stroke="#666666" points="1052,-224 924,-224 924,-205 1052,-205 1052,-224"/>
<text text-anchor="middle" x="988" y="-212" font-family="Helvetica,sans-Serif" font-size="10.00">Math::Vector3D::length</text>
</a>
</g>
</g>
<!-- Node2 -->
<g id="Node000002" class="node">
<title>Node2</title>
<g id="a_Node000002"><a xlink:href="../../dc/dd2/classRayTracer_1_1Camera.html#a4caf3b5d56694b095e324a36531f9f05" target="_top" xlink:title="Build a camera looking from lookfrom towards lookat.">
<polygon fill="white" stroke="#666666" points="862.5,-422.5 747.5,-422.5 747.5,-392.5 862.5,-392.5 862.5,-422.5"/>
<text text-anchor="start" x="755.5" y="-410.5" font-family="Helvetica,sans-Serif" font-size="10.00">RayTracer::Camera::</text>
<text text-anchor="middle" x="805" y="-399.5" font-family="Helvetica,sans-Serif" font-size="10.00">Camera</text>
</a>
</g>
</g>
<!-- Node1&#45;&gt;Node2 -->
<g id="edge1_Node000001_Node000002" class="edge">
<title>Node1&#45;&gt;Node2</title>
<g id="a_edge1_Node000001_Node000002"><a xlink:title=" ">
<path fill="none" stroke="#63b8ff" d="M981.04,-233.8C969.18,-268.96 939.25,-343.49 888,-383.5 880.52,-389.34 871.65,-393.76 862.56,-397.11"/>
<polygon fill="#63b8ff" stroke="#63b8ff" points="984.38,-234.83 984.14,-224.24 977.72,-232.67 984.38,-234.83"/>
</a>
</g>
</g>
<!-- Node3 -->
<g id="Node000003" class="node">
<title>Node3</title>
<g id="a_Node000003"><a xlink:href="../../d0/db2/classRayTracer_1_1TangleCube.html#a76ae64cba7c92758a6276e2acfe01bb0" target="_top" xlink:title="Attempt ray–fractal intersection.">
<polygon fill="white" stroke="#666666" points="868.5,-374.5 741.5,-374.5 741.5,-344.5 868.5,-344.5 868.5,-374.5"/>
<text text-anchor="start" x="749.5" y="-362.5" font-family="Helvetica,sans-Serif" font-size="10.00">RayTracer::TangleCube</text>
<text text-anchor="middle" x="805" y="-351.5" font-family="Helvetica,sans-Serif" font-size="10.00">::hits</text>
</a>
</g>
</g>
<!-- Node1&#45;&gt;Node3 -->
<g id="edge2_Node000001_Node000003" class="edge">
<title>Node1&#45;&gt;Node3</title>
<g id="a_edge2_Node000001_Node000003"><a xlink:title=" ">
<path fill="none" stroke="#63b8ff" d="M976.75,-233.07C961.1,-259.71 928.71,-308.54 888,-335.5 882.06,-339.43 875.47,-342.73 868.68,-345.5"/>
<polygon fill="#63b8ff" stroke="#63b8ff" points="979.82,-234.76 981.75,-224.34 973.74,-231.28 979.82,-234.76"/>
</a>
</g>
</g>
<!-- Node4 -->
<g id="Node000004" class="node">
<title>Node4</title>
<g id="a_Node000004"><a xlink:href="../../d3/db2/classRayTracer_1_1Torus.html#a2b7f931655b3a86b70de86914f0b88fd" target="_top" xlink:title="Trys intersection between radius/torus.">
<polygon fill="white" stroke="#666666" points="865,-326 745,-326 745,-307 865,-307 865,-326"/>
<text text-anchor="middle" x="805" y="-314" font-family="Helvetica,sans-Serif" font-size="10.00">RayTracer::Torus::hits</text>
</a>
</g>
</g>
<!-- Node1&#45;&gt;Node4 -->
<g id="edge3_Node000001_Node000004" class="edge">
<title>Node1&#45;&gt;Node4</title>
<g id="a_edge3_Node000001_Node000004"><a xlink:title=" ">
<path fill="none" stroke="#63b8ff" d="M971.98,-231.5C953.97,-250.77 921.93,-281.69 888,-298.5 880.95,-301.99 873.22,-304.81 865.42,-307.09"/>
<polygon fill="#63b8ff" stroke="#63b8ff" points="974.64,-233.77 978.8,-224.02 969.47,-229.05 974.64,-233.77"/>
</a>
</g>
</g>
<!-- Node5 -->
<g id="Node000005" class="node">
<title>Node5</title>
<g id="a_Node000005"><a xlink:href="../../db/d22/classRayTracer_1_1Cone.html#a9619d0b7734c98c2fdca05aa694d4ad0" target="_top" xlink:title="Ray–cone intersection: side + base cap.">
<polygon fill="white" stroke="#666666" points="864.5,-289 745.5,-289 745.5,-270 864.5,-270 864.5,-289"/>
<text text-anchor="middle" x="805" y="-277" font-family="Helvetica,sans-Serif" font-size="10.00">RayTracer::Cone::hits</text>
</a>
</g>
</g>
<!-- Node1&#45;&gt;Node5 -->
<g id="edge4_Node000001_Node000005" class="edge">
<title>Node1&#45;&gt;Node5</title>
<g id="a_edge4_Node000001_Node000005"><a xlink:title=" ">
<path fill="none" stroke="#63b8ff" d="M960.29,-228.76C940.71,-238.75 913.26,-251.81 888,-260.5 877.36,-264.16 865.7,-267.34 854.6,-269.99"/>
<polygon fill="#63b8ff" stroke="#63b8ff" points="961.95,-231.84 969.22,-224.14 958.73,-225.62 961.95,-231.84"/>
</a>
</g>
</g>
<!-- Node6 -->
<g id="Node000006" class="node">
<title>Node6</title>
<g id="a_Node000006"><a xlink:href="../../d8/d07/classRayTracer_1_1Cylinder.html#acf80bd4840c66778143357fbcb4980c6" target="_top" xlink:title="Ray–cylinder intersection test.">
<polygon fill="white" stroke="#666666" points="860.5,-251.5 749.5,-251.5 749.5,-221.5 860.5,-221.5 860.5,-251.5"/>
<text text-anchor="start" x="757.5" y="-239.5" font-family="Helvetica,sans-Serif" font-size="10.00">RayTracer::Cylinder</text>
<text text-anchor="middle" x="805" y="-228.5" font-family="Helvetica,sans-Serif" font-size="10.00">::hits</text>
</a>
</g>
</g>
<!-- Node1&#45;&gt;Node6 -->
<g id="edge5_Node000001_Node000006" class="edge">
<title>Node1&#45;&gt;Node6</title>
<g id="a_edge5_Node000001_Node000006"><a xlink:title=" ">
<path fill="none" stroke="#63b8ff" d="M913.66,-223.41C895.96,-225.57 877.36,-227.83 860.69,-229.85"/>
<polygon fill="#63b8ff" stroke="#63b8ff" points="914.44,-226.84 923.95,-222.16 913.6,-219.9 914.44,-226.84"/>
</a>
</g>
</g>
<!-- Node7 -->
<g id="Node000007" class="node">
<title>Node7</title>
<g id="a_Node000007"><a xlink:href="../../dc/da2/classRayTracer_1_1Plane.html#adf42784a24fe49eaf20f3ae92eeb7fa4" target="_top" xlink:title="Ray–plane intersection.">
<polygon fill="white" stroke="#666666" points="866,-203 744,-203 744,-184 866,-184 866,-203"/>
<text text-anchor="middle" x="805" y="-191" font-family="Helvetica,sans-Serif" font-size="10.00">RayTracer::Plane::hits</text>
</a>
</g>
</g>
<!-- Node1&#45;&gt;Node7 -->
<g id="edge6_Node000001_Node000007" class="edge">
<title>Node1&#45;&gt;Node7</title>
<g id="a_edge6_Node000001_Node000007"><a xlink:title=" ">
<path fill="none" stroke="#63b8ff" d="M913.68,-205.99C897.87,-204.16 881.33,-202.24 866.09,-200.47"/>
<polygon fill="#63b8ff" stroke="#63b8ff" points="913.61,-209.51 923.95,-207.18 914.42,-202.56 913.61,-209.51"/>
</a>
</g>
</g>
<!-- Node8 -->
<g id="Node000008" class="node">
<title>Node8</title>
<g id="a_Node000008"><a xlink:href="../../d5/d77/classRayTracer_1_1Triangle.html#ad13f001de30ab080e537d2653fc463fc" target="_top" xlink:title="Ray–triangle intersection test with hit record.">
<polygon fill="white" stroke="#666666" points="859.5,-165.5 750.5,-165.5 750.5,-135.5 859.5,-135.5 859.5,-165.5"/>
<text text-anchor="start" x="758.5" y="-153.5" font-family="Helvetica,sans-Serif" font-size="10.00">RayTracer::Triangle</text>
<text text-anchor="middle" x="805" y="-142.5" font-family="Helvetica,sans-Serif" font-size="10.00">::hits</text>
</a>
</g>
</g>
<!-- Node1&#45;&gt;Node8 -->
<g id="edge7_Node000001_Node000008" class="edge">
<title>Node1&#45;&gt;Node8</title>
<g id="a_edge7_Node000001_Node000008"><a xlink:title=" ">
<path fill="none" stroke="#63b8ff" d="M954.89,-201.1C935.63,-193.26 910.58,-183.37 888,-175.5 878.3,-172.12 867.88,-168.74 857.82,-165.62"/>
<polygon fill="#63b8ff" stroke="#63b8ff" points="953.81,-204.44 964.39,-205 956.46,-197.97 953.81,-204.44"/>
</a>
</g>
</g>
<!-- Node9 -->
<g id="Node000009" class="node">
<title>Node9</title>
<g id="a_Node000009"><a xlink:href="../../d5/d77/classRayTracer_1_1Triangle.html#a7bee0072308947550a93118f1f1e0b7f" target="_top" xlink:title="Ray–triangle intersection without back&#45;face culling.">
<polygon fill="white" stroke="#666666" points="859.5,-117.5 750.5,-117.5 750.5,-87.5 859.5,-87.5 859.5,-117.5"/>
<text text-anchor="start" x="758.5" y="-105.5" font-family="Helvetica,sans-Serif" font-size="10.00">RayTracer::Triangle</text>
<text text-anchor="middle" x="805" y="-94.5" font-family="Helvetica,sans-Serif" font-size="10.00">::hitsNoCull</text>
</a>
</g>
</g>
<!-- Node1&#45;&gt;Node9 -->
<g id="edge8_Node000001_Node000009" class="edge">
<title>Node1&#45;&gt;Node9</title>
<g id="a_edge8_Node000001_Node000009"><a xlink:title=" ">
<path fill="none" stroke="#63b8ff" d="M971.93,-197.09C953.87,-177.26 921.8,-145.21 888,-126.5 879.31,-121.69 869.55,-117.75 859.87,-114.56"/>
<polygon fill="#63b8ff" stroke="#63b8ff" points="969.5,-199.63 978.77,-204.76 974.73,-194.97 969.5,-199.63"/>
</a>
</g>
</g>
<!-- Node10 -->
<g id="Node000010" class="node">
<title>Node10</title>
<g id="a_Node000010"><a xlink:href="../../d3/d79/SceneParser_8cpp.html#a719f34dae6ee5f4594209dea344bdee0" target="_top" xlink:title=" ">
<polygon fill="white" stroke="#666666" points="845.5,-69 764.5,-69 764.5,-50 845.5,-50 845.5,-69"/>
<text text-anchor="middle" x="805" y="-57" font-family="Helvetica,sans-Serif" font-size="10.00">ParseCamera</text>
</a>
</g>
</g>
<!-- Node1&#45;&gt;Node10 -->
<g id="edge9_Node000001_Node000010" class="edge">
<title>Node1&#45;&gt;Node10</title>
<g id="a_edge9_Node000001_Node000010"><a xlink:title=" ">
<path fill="none" stroke="#63b8ff" d="M978.61,-195.45C964.44,-165.61 932.88,-108.2 888,-78.5 875.57,-70.27 860.03,-65.59 845.83,-62.92"/>
<polygon fill="#63b8ff" stroke="#63b8ff" points="975.53,-197.14 982.89,-204.76 981.89,-194.21 975.53,-197.14"/>
</a>
</g>
</g>
<!-- Node16 -->
<g id="Node000016" class="node">
<title>Node16</title>
<g id="a_Node000016"><a xlink:href="../../d1/df4/namespaceRayTracer.html#ab7c27bbad4b80e8966900494064dbb20" target="_top" xlink:title="Cosine&#45;weighted hemisphere sampling around a shading normal.">
<polygon fill="white" stroke="#666666" points="888,-28 722,-28 722,-9 888,-9 888,-28"/>
<text text-anchor="middle" x="805" y="-16" font-family="Helvetica,sans-Serif" font-size="10.00">RayTracer::sampleHemisphere</text>
</a>
</g>
</g>
<!-- Node1&#45;&gt;Node16 -->
<g id="edge16_Node000001_Node000016" class="edge">
<title>Node1&#45;&gt;Node16</title>
<g id="a_edge16_Node000001_Node000016"><a xlink:title=" ">
<path fill="none" stroke="#63b8ff" d="M981.45,-195.03C970.13,-158.88 940.84,-81.33 888,-40.5 881.12,-35.18 873.05,-31.15 864.72,-28.09"/>
<polygon fill="#63b8ff" stroke="#63b8ff" points="978.17,-196.27 984.4,-204.84 984.88,-194.25 978.17,-196.27"/>
</a>
</g>
</g>
<!-- Node11 -->
<g id="Node000011" class="node">
<title>Node11</title>
<g id="a_Node000011"><a xlink:href="../../d1/df4/namespaceRayTracer.html#a4bbc9c3996d70f6a71cf4d185a4811d6" target="_top" xlink:title="Loads a single scene file (non&#45;recursive).">
<polygon fill="white" stroke="#666666" points="686,-74 565,-74 565,-55 686,-55 686,-74"/>
<text text-anchor="middle" x="625.5" y="-62" font-family="Helvetica,sans-Serif" font-size="10.00">RayTracer::loadScene</text>
</a>
</g>
</g>
<!-- Node10&#45;&gt;Node11 -->
<g id="edge10_Node000010_Node000011" class="edge">
<title>Node10&#45;&gt;Node11</title>
<g id="a_edge10_Node000010_Node000011"><a xlink:title=" ">
<path fill="none" stroke="#63b8ff" d="M754.11,-60.91C732.98,-61.5 708.18,-62.2 686.1,-62.82"/>
<polygon fill="#63b8ff" stroke="#63b8ff" points="754.27,-64.4 764.17,-60.62 754.07,-57.41 754.27,-64.4"/>
</a>
</g>
</g>
<!-- Node12 -->
<g id="Node000012" class="node">
<title>Node12</title>
<g id="a_Node000012"><a xlink:href="../../d1/df4/namespaceRayTracer.html#a9aa92d0c88c2ac9be33f27ba71e8ceaa" target="_top" xlink:title="Recursively loads a scene and any referenced sub&#45;scenes from file(s).">
<polygon fill="white" stroke="#666666" points="529,-69 360,-69 360,-50 529,-50 529,-69"/>
<text text-anchor="middle" x="444.5" y="-57" font-family="Helvetica,sans-Serif" font-size="10.00">RayTracer::loadSceneRecursive</text>
</a>
</g>
</g>
<!-- Node11&#45;&gt;Node12 -->
<g id="edge11_Node000011_Node000012" class="edge">
<title>Node11&#45;&gt;Node12</title>
<g id="a_edge11_Node000011_Node000012"><a xlink:title=" ">
<path fill="none" stroke="#63b8ff" d="M554.76,-62.55C546.34,-62.32 537.67,-62.07 529.08,-61.83"/>
<polygon fill="#63b8ff" stroke="#63b8ff" points="554.8,-66.05 564.9,-62.84 555,-59.06 554.8,-66.05"/>
</a>
</g>
</g>
<!-- Node12&#45;&gt;Node12 -->
<g id="edge15_Node000012_Node000012" class="edge">
<title>Node12&#45;&gt;Node12</title>
<g id="a_edge15_Node000012_Node000012"><a xlink:title=" ">
<path fill="none" stroke="#63b8ff" d="M478.18,-77.45C477.22,-82.82 465.99,-87 444.5,-87 412.51,-87 403.26,-77.73 416.76,-69.08"/>
<polygon fill="#63b8ff" stroke="#63b8ff" points="480.89,-75.21 472.24,-69.08 475.18,-79.26 480.89,-75.21"/>
</a>
</g>
</g>
<!-- Node13 -->
<g id="Node000013" class="node">
<title>Node13</title>
<g id="a_Node000013"><a xlink:href="../../d4/d3d/namespaceUtils.html#a763a2a5523575e2175022d2623a77d05" target="_top" xlink:title="Loads a scene from file, or exits on failure.">
<polygon fill="white" stroke="#666666" points="324,-64 199,-64 199,-45 324,-45 324,-64"/>
<text text-anchor="middle" x="261.5" y="-52" font-family="Helvetica,sans-Serif" font-size="10.00">Utils::loadSceneOrExit</text>
</a>
</g>
</g>
<!-- Node12&#45;&gt;Node13 -->
<g id="edge12_Node000012_Node000013" class="edge">
<title>Node12&#45;&gt;Node13</title>
<g id="a_edge12_Node000012_Node000013"><a xlink:title=" ">
<path fill="none" stroke="#63b8ff" d="M349.71,-56.91C341.04,-56.67 332.4,-56.43 324.13,-56.2"/>
<polygon fill="#63b8ff" stroke="#63b8ff" points="349.79,-60.41 359.89,-57.19 349.99,-53.42 349.79,-60.41"/>
</a>
</g>
</g>
<!-- Node14 -->
<g id="Node000014" class="node">
<title>Node14</title>
<g id="a_Node000014"><a xlink:href="../../dd/dea/classRaytracer.html#a844a5a660abbb9d21608fc170074e0c5" target="_top" xlink:title="Launch the raytracing process.">
<polygon fill="white" stroke="#666666" points="163,-45 77,-45 77,-26 163,-26 163,-45"/>
<text text-anchor="middle" x="120" y="-33" font-family="Helvetica,sans-Serif" font-size="10.00">Raytracer::run</text>
</a>
</g>
</g>
<!-- Node13&#45;&gt;Node14 -->
<g id="edge13_Node000013_Node000014" class="edge">
<title>Node13&#45;&gt;Node14</title>
<g id="a_edge13_Node000013_Node000014"><a xlink:title=" ">
<path fill="none" stroke="#63b8ff" d="M188.92,-44.75C180.07,-43.55 171.25,-42.34 163.05,-41.23"/>
<polygon fill="#63b8ff" stroke="#63b8ff" points="188.53,-48.23 198.91,-46.11 189.47,-41.29 188.53,-48.23"/>
</a>
</g>
</g>
<!-- Node15 -->
<g id="Node000015" class="node">
<title>Node15</title>
<g id="a_Node000015"><a xlink:href="../../df/d0a/main_8cpp.html#a0ddf1224851353fc92bfbff6f499fa97" target="_top" xlink:title="Raimond is a good Raytracer. Logic, it&#39;s Raimond.">
<polygon fill="white" stroke="#666666" points="41,-45 0,-45 0,-26 41,-26 41,-45"/>
<text text-anchor="middle" x="20.5" y="-33" font-family="Helvetica,sans-Serif" font-size="10.00">main</text>
</a>
</g>
</g>
<!-- Node14&#45;&gt;Node15 -->
<g id="edge14_Node000014_Node000015" class="edge">
<title>Node14&#45;&gt;Node15</title>
<g id="a_edge14_Node000014_Node000015"><a xlink:title=" ">
<path fill="none" stroke="#63b8ff" d="M66.52,-35.5C57.42,-35.5 48.5,-35.5 41.03,-35.5"/>
<polygon fill="#63b8ff" stroke="#63b8ff" points="66.8,-39 76.8,-35.5 66.8,-32 66.8,-39"/>
</a>
</g>
</g>
<!-- Node17 -->
<g id="Node000017" class="node">
<title>Node17</title>
<g id="a_Node000017"><a xlink:href="../../d1/df4/namespaceRayTracer.html#ab1ca8a59872e03b73fafc26443c5c1df" target="_top" xlink:title="Recursive path&#45;tracing integrator.">
<polygon fill="white" stroke="#666666" points="675.5,-19 575.5,-19 575.5,0 675.5,0 675.5,-19"/>
<text text-anchor="middle" x="625.5" y="-7" font-family="Helvetica,sans-Serif" font-size="10.00">RayTracer::shade</text>
</a>
</g>
</g>
<!-- Node16&#45;&gt;Node17 -->
<g id="edge17_Node000016_Node000017" class="edge">
<title>Node16&#45;&gt;Node17</title>
<g id="a_edge17_Node000016_Node000017"><a xlink:title=" ">
<path fill="none" stroke="#63b8ff" d="M711.74,-13.82C699.27,-13.19 686.89,-12.56 675.59,-11.99"/>
<polygon fill="#63b8ff" stroke="#63b8ff" points="711.58,-17.32 721.75,-14.33 711.94,-10.33 711.58,-17.32"/>
</a>
</g>
</g>
<!-- Node17&#45;&gt;Node17 -->
<g id="edge20_Node000017_Node000017" class="edge">
<title>Node17&#45;&gt;Node17</title>
<g id="a_edge20_Node000017_Node000017"><a xlink:title=" ">
<path fill="none" stroke="#63b8ff" d="M658.81,-27.45C657.86,-32.82 646.76,-37 625.5,-37 593.86,-37 584.72,-27.73 598.07,-19.08"/>
<polygon fill="#63b8ff" stroke="#63b8ff" points="661.55,-25.26 652.93,-19.08 655.82,-29.28 661.55,-25.26"/>
</a>
</g>
</g>
<!-- Node18 -->
<g id="Node000018" class="node">
<title>Node18</title>
<g id="a_Node000018"><a xlink:href="../../d4/d3d/namespaceUtils.html#a8e063dafa9ed499eae606a8effdb5130" target="_top" xlink:title="Performs the raytracing process and produces the framebuffer.">
<polygon fill="white" stroke="#666666" points="315,-27 208,-27 208,-8 315,-8 315,-27"/>
<text text-anchor="middle" x="261.5" y="-15" font-family="Helvetica,sans-Serif" font-size="10.00">Utils::renderImage</text>
</a>
</g>
</g>
<!-- Node17&#45;&gt;Node18 -->
<g id="edge18_Node000017_Node000018" class="edge">
<title>Node17&#45;&gt;Node18</title>
<g id="a_edge18_Node000017_Node000018"><a xlink:title=" ">
<path fill="none" stroke="#63b8ff" d="M564.96,-10.82C495.43,-12.35 381.52,-14.87 315.11,-16.34"/>
<polygon fill="#63b8ff" stroke="#63b8ff" points="565.38,-14.31 575.3,-10.59 565.23,-7.31 565.38,-14.31"/>
</a>
</g>
</g>
<!-- Node18&#45;&gt;Node14 -->
<g id="edge19_Node000018_Node000014" class="edge">
<title>Node18&#45;&gt;Node14</title>
<g id="a_edge19_Node000018_Node000014"><a xlink:title=" ">
<path fill="none" stroke="#63b8ff" d="M197.67,-25.61C186.06,-27.1 174.21,-28.63 163.39,-30.03"/>
<polygon fill="#63b8ff" stroke="#63b8ff" points="198.29,-29.06 207.76,-24.31 197.4,-22.11 198.29,-29.06"/>
</a>
</g>
</g>
</g>
</svg>
