<?xml version="1.0" encoding="UTF-8" standalone="no"?>
<!DOCTYPE svg PUBLIC "-//W3C//DTD SVG 1.1//EN"
 "http://www.w3.org/Graphics/SVG/1.1/DTD/svg11.dtd">
<!-- Generated by graphviz version 2.43.0 (0)
 -->
<!-- Title: Math::Vector3D::dot Pages: 1 -->
<svg width="801pt" height="404pt"
 viewBox="0.00 0.00 801.00 403.82" xmlns="http://www.w3.org/2000/svg" xmlns:xlink="http://www.w3.org/1999/xlink">
<g id="graph0" class="graph" transform="scale(1 1) rotate(0) translate(4 399.82)">
<title>Math::Vector3D::dot</title>
<!-- Node1 -->
<g id="Node000001" class="node">
<title>Node1</title>
<g id="a_Node000001"><a xlink:title="Computes the dot product between this and another vector.">
<polygon fill="#999999" stroke="#666666" points="793,-213.82 680,-213.82 680,-194.82 793,-194.82 793,-213.82"/>
<text text-anchor="middle" x="736.5" y="-201.82" font-family="Helvetica,sans-Serif" font-size="10.00">Math::Vector3D::dot</text>
</a>
</g>
</g>
<!-- Node2 -->
<g id="Node000002" class="node">
<title>Node2</title>
<g id="a_Node000002"><a xlink:href="../../d3/db2/classRayTracer_1_1Torus.html#a2b7f931655b3a86b70de86914f0b88fd" target="_top" xlink:title="Trys intersection between radius/torus.">
<polygon fill="white" stroke="#666666" points="621,-395.82 501,-395.82 501,-376.82 621,-376.82 621,-395.82"/>
<text text-anchor="middle" x="561" y="-383.82" font-family="Helvetica,sans-Serif" font-size="10.00">RayTracer::Torus::hits</text>
</a>
</g>
</g>
<!-- Node1&#45;&gt;Node2 -->
<g id="edge1_Node000001_Node000002" class="edge">
<title>Node1&#45;&gt;Node2</title>
<g id="a_edge1_Node000001_Node000002"><a xlink:title=" ">
<path fill="none" stroke="#63b8ff" d="M730.37,-223.82C720.15,-258.63 693.83,-331.3 644,-368.32 637.21,-373.36 629.29,-377.04 621.1,-379.72"/>
<polygon fill="#63b8ff" stroke="#63b8ff" points="733.81,-224.51 733.13,-213.94 727.07,-222.63 733.81,-224.51"/>
</a>
</g>
</g>
<!-- Node3 -->
<g id="Node000003" class="node">
<title>Node3</title>
<g id="a_Node000003"><a xlink:href="../../db/d22/classRayTracer_1_1Cone.html#a9619d0b7734c98c2fdca05aa694d4ad0" target="_top" xlink:title="Ray–cone intersection: side + base cap.">
<polygon fill="white" stroke="#666666" points="620.5,-358.82 501.5,-358.82 501.5,-339.82 620.5,-339.82 620.5,-358.82"/>
<text text-anchor="middle" x="561" y="-346.82" font-family="Helvetica,sans-Serif" font-size="10.00">RayTracer::Cone::hits</text>
</a>
</g>
</g>
<!-- Node1&#45;&gt;Node3 -->
<g id="edge2_Node000001_Node000003" class="edge">
<title>Node1&#45;&gt;Node3</title>
<g id="a_edge2_Node000001_Node000003"><a xlink:title=" ">
<path fill="none" stroke="#63b8ff" d="M727.2,-223.15C713.86,-251.1 684.95,-303.19 644,-330.32 636.93,-335 628.86,-338.54 620.6,-341.2"/>
<polygon fill="#63b8ff" stroke="#63b8ff" points="730.39,-224.58 731.4,-214.03 724.03,-221.65 730.39,-224.58"/>
</a>
</g>
</g>
<!-- Node4 -->
<g id="Node000004" class="node">
<title>Node4</title>
<g id="a_Node000004"><a xlink:href="../../d8/d07/classRayTracer_1_1Cylinder.html#acf80bd4840c66778143357fbcb4980c6" target="_top" xlink:title="Ray–cylinder intersection test.">
<polygon fill="white" stroke="#666666" points="616.5,-321.32 505.5,-321.32 505.5,-291.32 616.5,-291.32 616.5,-321.32"/>
<text text-anchor="start" x="513.5" y="-309.32" font-family="Helvetica,sans-Serif" font-size="10.00">RayTracer::Cylinder</text>
<text text-anchor="middle" x="561" y="-298.32" font-family="Helvetica,sans-Serif" font-size="10.00">::hits</text>
</a>
</g>
</g>
<!-- Node1&#45;&gt;Node4 -->
<g id="edge3_Node000001_Node000004" class="edge">
<title>Node1&#45;&gt;Node4</title>
<g id="a_edge3_Node000001_Node000004"><a xlink:title=" ">
<path fill="none" stroke="#63b8ff" d="M719.91,-221.31C702.86,-238.94 673.94,-266.14 644,-282.32 635.52,-286.9 626.06,-290.7 616.66,-293.83"/>
<polygon fill="#63b8ff" stroke="#63b8ff" points="722.54,-223.63 726.87,-213.96 717.45,-218.81 722.54,-223.63"/>
</a>
</g>
</g>
<!-- Node5 -->
<g id="Node000005" class="node">
<title>Node5</title>
<g id="a_Node000005"><a xlink:href="../../dc/da2/classRayTracer_1_1Plane.html#adf42784a24fe49eaf20f3ae92eeb7fa4" target="_top" xlink:title="Ray–plane intersection.">
<polygon fill="white" stroke="#666666" points="622,-272.82 500,-272.82 500,-253.82 622,-253.82 622,-272.82"/>
<text text-anchor="middle" x="561" y="-260.82" font-family="Helvetica,sans-Serif" font-size="10.00">RayTracer::Plane::hits</text>
</a>
</g>
</g>
<!-- Node1&#45;&gt;Node5 -->
<g id="edge4_Node000001_Node000005" class="edge">
<title>Node1&#45;&gt;Node5</title>
<g id="a_edge4_Node000001_Node000005"><a xlink:title=" ">
<path fill="none" stroke="#63b8ff" d="M707.78,-218.53C689.94,-227.23 666.04,-238.05 644,-245.32 634.17,-248.56 623.49,-251.39 613.18,-253.78"/>
<polygon fill="#63b8ff" stroke="#63b8ff" points="709.62,-221.53 717.02,-213.96 706.51,-215.26 709.62,-221.53"/>
</a>
</g>
</g>
<!-- Node6 -->
<g id="Node000006" class="node">
<title>Node6</title>
<g id="a_Node000006"><a xlink:href="../../d3/d0e/classRayTracer_1_1Sphere.html#a52550cc2556896d0b8e343b59ddcf9ee" target="_top" xlink:title="Ray&#45;sphere intersection test.">
<polygon fill="white" stroke="#666666" points="625,-235.82 497,-235.82 497,-216.82 625,-216.82 625,-235.82"/>
<text text-anchor="middle" x="561" y="-223.82" font-family="Helvetica,sans-Serif" font-size="10.00">RayTracer::Sphere::hits</text>
</a>
</g>
</g>
<!-- Node1&#45;&gt;Node6 -->
<g id="edge5_Node000001_Node000006" class="edge">
<title>Node1&#45;&gt;Node6</title>
<g id="a_edge5_Node000001_Node000006"><a xlink:title=" ">
<path fill="none" stroke="#63b8ff" d="M669.72,-212.66C655.15,-214.51 639.75,-216.46 625.28,-218.3"/>
<polygon fill="#63b8ff" stroke="#63b8ff" points="670.17,-216.13 679.65,-211.4 669.29,-209.19 670.17,-216.13"/>
</a>
</g>
</g>
<!-- Node7 -->
<g id="Node000007" class="node">
<title>Node7</title>
<g id="a_Node000007"><a xlink:href="../../d5/d77/classRayTracer_1_1Triangle.html#ad13f001de30ab080e537d2653fc463fc" target="_top" xlink:title="Ray–triangle intersection test with hit record.">
<polygon fill="white" stroke="#666666" points="615.5,-198.32 506.5,-198.32 506.5,-168.32 615.5,-168.32 615.5,-198.32"/>
<text text-anchor="start" x="514.5" y="-186.32" font-family="Helvetica,sans-Serif" font-size="10.00">RayTracer::Triangle</text>
<text text-anchor="middle" x="561" y="-175.32" font-family="Helvetica,sans-Serif" font-size="10.00">::hits</text>
</a>
</g>
</g>
<!-- Node1&#45;&gt;Node7 -->
<g id="edge6_Node000001_Node000007" class="edge">
<title>Node1&#45;&gt;Node7</title>
<g id="a_edge6_Node000001_Node000007"><a xlink:title=" ">
<path fill="none" stroke="#63b8ff" d="M669.37,-196.31C651.62,-194.17 632.66,-191.87 615.68,-189.82"/>
<polygon fill="#63b8ff" stroke="#63b8ff" points="669.3,-199.83 679.65,-197.56 670.14,-192.88 669.3,-199.83"/>
</a>
</g>
</g>
<!-- Node8 -->
<g id="Node000008" class="node">
<title>Node8</title>
<g id="a_Node000008"><a xlink:href="../../d5/d77/classRayTracer_1_1Triangle.html#a7bee0072308947550a93118f1f1e0b7f" target="_top" xlink:title="Ray–triangle intersection without back&#45;face culling.">
<polygon fill="white" stroke="#666666" points="615.5,-150.32 506.5,-150.32 506.5,-120.32 615.5,-120.32 615.5,-150.32"/>
<text text-anchor="start" x="514.5" y="-138.32" font-family="Helvetica,sans-Serif" font-size="10.00">RayTracer::Triangle</text>
<text text-anchor="middle" x="561" y="-127.32" font-family="Helvetica,sans-Serif" font-size="10.00">::hitsNoCull</text>
</a>
</g>
</g>
<!-- Node1&#45;&gt;Node8 -->
<g id="edge7_Node000001_Node000008" class="edge">
<title>Node1&#45;&gt;Node8</title>
<g id="a_edge7_Node000001_Node000008"><a xlink:title=" ">
<path fill="none" stroke="#63b8ff" d="M709.1,-189.82C691.11,-180.32 666.55,-168.09 644,-159.32 635.01,-155.82 625.3,-152.56 615.82,-149.63"/>
<polygon fill="#63b8ff" stroke="#63b8ff" points="707.89,-193.15 718.36,-194.78 711.19,-186.97 707.89,-193.15"/>
</a>
</g>
</g>
<!-- Node9 -->
<g id="Node000009" class="node">
<title>Node9</title>
<g id="a_Node000009"><a xlink:href="../../dc/dd2/classRayTracer_1_1Camera.html#a6ca6ca42603f0f93d47a9a8ecd1f5e77" target="_top" xlink:title="Random point inside a unit disk in the xy&#45;plane.">
<polygon fill="white" stroke="#666666" points="620,-102.32 502,-102.32 502,-72.32 620,-72.32 620,-102.32"/>
<text text-anchor="start" x="510" y="-90.32" font-family="Helvetica,sans-Serif" font-size="10.00">RayTracer::Camera::</text>
<text text-anchor="middle" x="561" y="-79.32" font-family="Helvetica,sans-Serif" font-size="10.00">random_in_unit_disk</text>
</a>
</g>
</g>
<!-- Node1&#45;&gt;Node9 -->
<g id="edge8_Node000001_Node000009" class="edge">
<title>Node1&#45;&gt;Node9</title>
<g id="a_edge8_Node000001_Node000009"><a xlink:title=" ">
<path fill="none" stroke="#63b8ff" d="M722.58,-186.48C706.46,-165.51 677,-131.06 644,-111.32 636.62,-106.9 628.37,-103.25 620.03,-100.26"/>
<polygon fill="#63b8ff" stroke="#63b8ff" points="719.84,-188.66 728.63,-194.57 725.44,-184.47 719.84,-188.66"/>
</a>
</g>
</g>
<!-- Node10 -->
<g id="Node000010" class="node">
<title>Node10</title>
<g id="a_Node000010"><a xlink:href="../../d1/df4/namespaceRayTracer.html#ab7c27bbad4b80e8966900494064dbb20" target="_top" xlink:title="Cosine&#45;weighted hemisphere sampling around a shading normal.">
<polygon fill="white" stroke="#666666" points="644,-53.82 478,-53.82 478,-34.82 644,-34.82 644,-53.82"/>
<text text-anchor="middle" x="561" y="-41.82" font-family="Helvetica,sans-Serif" font-size="10.00">RayTracer::sampleHemisphere</text>
</a>
</g>
</g>
<!-- Node1&#45;&gt;Node10 -->
<g id="edge9_Node000001_Node000010" class="edge">
<title>Node1&#45;&gt;Node10</title>
<g id="a_edge9_Node000001_Node000010"><a xlink:title=" ">
<path fill="none" stroke="#63b8ff" d="M728.52,-185.03C716.36,-154.25 688.25,-94.34 644,-63.32 638.5,-59.46 632.32,-56.38 625.9,-53.91"/>
<polygon fill="#63b8ff" stroke="#63b8ff" points="725.34,-186.51 732.16,-194.61 731.88,-184.02 725.34,-186.51"/>
</a>
</g>
</g>
<!-- Node11 -->
<g id="Node000011" class="node">
<title>Node11</title>
<g id="a_Node000011"><a xlink:href="../../d1/df4/namespaceRayTracer.html#ab1ca8a59872e03b73fafc26443c5c1df" target="_top" xlink:title="Recursive path&#45;tracing integrator.">
<polygon fill="white" stroke="#666666" points="442,-34.82 342,-34.82 342,-15.82 442,-15.82 442,-34.82"/>
<text text-anchor="middle" x="392" y="-22.82" font-family="Helvetica,sans-Serif" font-size="10.00">RayTracer::shade</text>
</a>
</g>
</g>
<!-- Node1&#45;&gt;Node11 -->
<g id="edge15_Node000001_Node000011" class="edge">
<title>Node1&#45;&gt;Node11</title>
<g id="a_edge15_Node000001_Node000011"><a xlink:title=" ">
<path fill="none" stroke="#63b8ff" d="M732.2,-184.71C724.56,-146.28 701.7,-61.69 644,-26.32 575.27,15.82 474.8,-2.42 424.35,-15.78"/>
<polygon fill="#63b8ff" stroke="#63b8ff" points="728.78,-185.46 734.04,-194.66 735.66,-184.19 728.78,-185.46"/>
</a>
</g>
</g>
<!-- Node10&#45;&gt;Node11 -->
<g id="edge10_Node000010_Node000011" class="edge">
<title>Node10&#45;&gt;Node11</title>
<g id="a_edge10_Node000010_Node000011"><a xlink:title=" ">
<path fill="none" stroke="#63b8ff" d="M467.97,-33.85C459.14,-32.84 450.43,-31.85 442.26,-30.92"/>
<polygon fill="#63b8ff" stroke="#63b8ff" points="467.64,-37.33 477.97,-34.99 468.43,-30.38 467.64,-37.33"/>
</a>
</g>
</g>
<!-- Node11&#45;&gt;Node11 -->
<g id="edge14_Node000011_Node000011" class="edge">
<title>Node11&#45;&gt;Node11</title>
<g id="a_edge14_Node000011_Node000011"><a xlink:title=" ">
<path fill="none" stroke="#63b8ff" d="M417.67,-44.01C416.27,-49.02 407.71,-52.82 392,-52.82 367.47,-52.82 360.38,-43.55 370.73,-34.9"/>
<polygon fill="#63b8ff" stroke="#63b8ff" points="420.77,-42.38 413.27,-34.9 414.47,-45.43 420.77,-42.38"/>
</a>
</g>
</g>
<!-- Node12 -->
<g id="Node000012" class="node">
<title>Node12</title>
<g id="a_Node000012"><a xlink:href="../../d4/d3d/namespaceUtils.html#a8e063dafa9ed499eae606a8effdb5130" target="_top" xlink:title="Performs the raytracing process and produces the framebuffer.">
<polygon fill="white" stroke="#666666" points="306,-34.82 199,-34.82 199,-15.82 306,-15.82 306,-34.82"/>
<text text-anchor="middle" x="252.5" y="-22.82" font-family="Helvetica,sans-Serif" font-size="10.00">Utils::renderImage</text>
</a>
</g>
</g>
<!-- Node11&#45;&gt;Node12 -->
<g id="edge11_Node000011_Node000012" class="edge">
<title>Node11&#45;&gt;Node12</title>
<g id="a_edge11_Node000011_Node000012"><a xlink:title=" ">
<path fill="none" stroke="#63b8ff" d="M331.56,-25.32C323.1,-25.32 314.45,-25.32 306.13,-25.32"/>
<polygon fill="#63b8ff" stroke="#63b8ff" points="331.75,-28.82 341.75,-25.32 331.75,-21.82 331.75,-28.82"/>
</a>
</g>
</g>
<!-- Node13 -->
<g id="Node000013" class="node">
<title>Node13</title>
<g id="a_Node000013"><a xlink:href="../../dd/dea/classRaytracer.html#a844a5a660abbb9d21608fc170074e0c5" target="_top" xlink:title="Launch the raytracing process.">
<polygon fill="white" stroke="#666666" points="163,-34.82 77,-34.82 77,-15.82 163,-15.82 163,-34.82"/>
<text text-anchor="middle" x="120" y="-22.82" font-family="Helvetica,sans-Serif" font-size="10.00">Raytracer::run</text>
</a>
</g>
</g>
<!-- Node12&#45;&gt;Node13 -->
<g id="edge12_Node000012_Node000013" class="edge">
<title>Node12&#45;&gt;Node13</title>
<g id="a_edge12_Node000012_Node000013"><a xlink:title=" ">
<path fill="none" stroke="#63b8ff" d="M188.67,-25.32C179.99,-25.32 171.25,-25.32 163.07,-25.32"/>
<polygon fill="#63b8ff" stroke="#63b8ff" points="188.8,-28.82 198.8,-25.32 188.8,-21.82 188.8,-28.82"/>
</a>
</g>
</g>
<!-- Node14 -->
<g id="Node000014" class="node">
<title>Node14</title>
<g id="a_Node000014"><a xlink:href="../../df/d0a/main_8cpp.html#a0ddf1224851353fc92bfbff6f499fa97" target="_top" xlink:title="Raimond is a good Raytracer. Logic, it&#39;s Raimond.">
<polygon fill="white" stroke="#666666" points="41,-34.82 0,-34.82 0,-15.82 41,-15.82 41,-34.82"/>
<text text-anchor="middle" x="20.5" y="-22.82" font-family="Helvetica,sans-Serif" font-size="10.00">main</text>
</a>
</g>
</g>
<!-- Node13&#45;&gt;Node14 -->
<g id="edge13_Node000013_Node000014" class="edge">
<title>Node13&#45;&gt;Node14</title>
<g id="a_edge13_Node000013_Node000014"><a xlink:title=" ">
<path fill="none" stroke="#63b8ff" d="M66.52,-25.32C57.42,-25.32 48.5,-25.32 41.03,-25.32"/>
<polygon fill="#63b8ff" stroke="#63b8ff" points="66.8,-28.82 76.8,-25.32 66.8,-21.82 66.8,-28.82"/>
</a>
</g>
</g>
</g>
</svg>
