<?xml version="1.0" encoding="UTF-8" standalone="no"?>
<!DOCTYPE svg PUBLIC "-//W3C//DTD SVG 1.1//EN"
 "http://www.w3.org/Graphics/SVG/1.1/DTD/svg11.dtd">
<!-- Generated by graphviz version 2.43.0 (0)
 -->
<!-- Title: RayTracer::DirectionalLight Pages: 1 -->
<svg width="220pt" height="149pt"
 viewBox="0.00 0.00 219.50 149.00" xmlns="http://www.w3.org/2000/svg" xmlns:xlink="http://www.w3.org/1999/xlink">
<g id="graph0" class="graph" transform="scale(1 1) rotate(0) translate(4 145)">
<title>RayTracer::DirectionalLight</title>
<!-- Node1 -->
<g id="Node000001" class="node">
<title>Node1</title>
<g id="a_Node000001"><a xlink:title="Parallel rays from a given direction (e.g. sunlight).">
<polygon fill="#999999" stroke="#666666" points="181.5,-19 33.5,-19 33.5,0 181.5,0 181.5,-19"/>
<text text-anchor="middle" x="107.5" y="-7" font-family="Helvetica,sans-Serif" font-size="10.00">RayTracer::DirectionalLight</text>
</a>
</g>
</g>
<!-- Node2 -->
<g id="Node000002" class="node">
<title>Node2</title>
<g id="a_Node000002"><a xlink:href="../../df/d0a/classRayTracer_1_1ALight.html" target="_top" xlink:title=" ">
<polygon fill="white" stroke="#666666" points="101,-85 0,-85 0,-66 101,-66 101,-85"/>
<text text-anchor="middle" x="50.5" y="-73" font-family="Helvetica,sans-Serif" font-size="10.00">RayTracer::ALight</text>
</a>
</g>
</g>
<!-- Node2&#45;&gt;Node1 -->
<g id="edge1_Node000001_Node000002" class="edge">
<title>Node2&#45;&gt;Node1</title>
<g id="a_edge1_Node000001_Node000002"><a xlink:title=" ">
<path fill="none" stroke="#63b8ff" d="M65.09,-58.12C76.06,-45.81 90.67,-29.39 99.57,-19.41"/>
<polygon fill="#63b8ff" stroke="#63b8ff" points="62.22,-56.07 58.19,-65.87 67.45,-60.73 62.22,-56.07"/>
</a>
</g>
</g>
<!-- Node3 -->
<g id="Node000003" class="node">
<title>Node3</title>
<g id="a_Node000003"><a xlink:href="../../d0/d82/classRayTracer_1_1ILight.html" target="_top" xlink:title="Pure&#45;virtual interface for scene light sources.">
<polygon fill="white" stroke="#666666" points="99.5,-141 1.5,-141 1.5,-122 99.5,-122 99.5,-141"/>
<text text-anchor="middle" x="50.5" y="-129" font-family="Helvetica,sans-Serif" font-size="10.00">RayTracer::ILight</text>
</a>
</g>
</g>
<!-- Node3&#45;&gt;Node2 -->
<g id="edge2_Node000002_Node000003" class="edge">
<title>Node3&#45;&gt;Node2</title>
<g id="a_edge2_Node000002_Node000003"><a xlink:title=" ">
<path fill="none" stroke="#63b8ff" d="M50.5,-111.3C50.5,-102.41 50.5,-92.28 50.5,-85.25"/>
<polygon fill="#63b8ff" stroke="#63b8ff" points="47,-111.58 50.5,-121.58 54,-111.58 47,-111.58"/>
</a>
</g>
</g>
<!-- Node4 -->
<g id="Node000004" class="node">
<title>Node4</title>
<g id="a_Node000004"><a xlink:href="../../d6/d30/structMath_1_1Vector3D.html" target="_top" xlink:title="Represents a 3D vector with real coordinates.">
<polygon fill="white" stroke="#666666" points="211.5,-85 119.5,-85 119.5,-66 211.5,-66 211.5,-85"/>
<text text-anchor="middle" x="165.5" y="-73" font-family="Helvetica,sans-Serif" font-size="10.00">Math::Vector3D</text>
</a>
</g>
</g>
<!-- Node4&#45;&gt;Node1 -->
<g id="edge3_Node000001_Node000004" class="edge">
<title>Node4&#45;&gt;Node1</title>
<g id="a_edge3_Node000001_Node000004"><a xlink:title=" ">
<path fill="none" stroke="#9a32cd" stroke-dasharray="5,2" d="M150.66,-58.12C139.5,-45.81 124.62,-29.39 115.57,-19.41"/>
<polygon fill="#9a32cd" stroke="#9a32cd" points="148.37,-60.81 157.68,-65.87 153.56,-56.11 148.37,-60.81"/>
</a>
</g>
<text text-anchor="middle" x="150.5" y="-40" font-family="Helvetica,sans-Serif" font-size="10.00" fill="grey"> _dir</text>
</g>
</g>
</svg>
