<?xml version="1.0" encoding="UTF-8" standalone="no"?>
<!DOCTYPE svg PUBLIC "-//W3C//DTD SVG 1.1//EN"
 "http://www.w3.org/Graphics/SVG/1.1/DTD/svg11.dtd">
<!-- Generated by graphviz version 2.43.0 (0)
 -->
<!-- Title: include/primitives/Sierpinski.hpp Pages: 1 -->
<svg width="1104pt" height="533pt"
 viewBox="0.00 0.00 1104.00 533.00" xmlns="http://www.w3.org/2000/svg" xmlns:xlink="http://www.w3.org/1999/xlink">
<g id="graph0" class="graph" transform="scale(1 1) rotate(0) translate(4 529)">
<title>include/primitives/Sierpinski.hpp</title>
<!-- Node1 -->
<g id="Node000001" class="node">
<title>Node1</title>
<g id="a_Node000001"><a xlink:title=" ">
<polygon fill="#999999" stroke="#666666" points="406,-525 302,-525 302,-495 406,-495 406,-525"/>
<text text-anchor="start" x="310" y="-513" font-family="Helvetica,sans-Serif" font-size="10.00">include/primitives</text>
<text text-anchor="middle" x="354" y="-502" font-family="Helvetica,sans-Serif" font-size="10.00">/Sierpinski.hpp</text>
</a>
</g>
</g>
<!-- Node2 -->
<g id="Node000002" class="node">
<title>Node2</title>
<g id="a_Node000002"><a xlink:title=" ">
<polygon fill="#e0e0e0" stroke="#999999" points="991.5,-294 944.5,-294 944.5,-275 991.5,-275 991.5,-294"/>
<text text-anchor="middle" x="968" y="-282" font-family="Helvetica,sans-Serif" font-size="10.00">vector</text>
</a>
</g>
</g>
<!-- Node1&#45;&gt;Node2 -->
<g id="edge1_Node000001_Node000002" class="edge">
<title>Node1&#45;&gt;Node2</title>
<g id="a_edge1_Node000001_Node000002"><a xlink:title=" ">
<path fill="none" stroke="#63b8ff" d="M406.23,-497.01C447.97,-487.26 507.91,-472.89 560,-459 729.06,-413.91 804.89,-462.56 938,-349 951.6,-337.4 959.46,-318.25 963.7,-304.02"/>
<polygon fill="#63b8ff" stroke="#63b8ff" points="967.1,-304.85 966.27,-294.29 960.33,-303.06 967.1,-304.85"/>
</a>
</g>
</g>
<!-- Node3 -->
<g id="Node000003" class="node">
<title>Node3</title>
<g id="a_Node000003"><a xlink:title=" ">
<polygon fill="#e0e0e0" stroke="#999999" points="229,-184 171,-184 171,-165 229,-165 229,-184"/>
<text text-anchor="middle" x="200" y="-172" font-family="Helvetica,sans-Serif" font-size="10.00">memory</text>
</a>
</g>
</g>
<!-- Node1&#45;&gt;Node3 -->
<g id="edge2_Node000001_Node000003" class="edge">
<title>Node1&#45;&gt;Node3</title>
<g id="a_edge2_Node000001_Node000003"><a xlink:title=" ">
<path fill="none" stroke="#63b8ff" d="M347.47,-494.96C328.88,-454.98 274.1,-337.09 229,-239 221.96,-223.69 214.01,-206.27 208.22,-193.56"/>
<polygon fill="#63b8ff" stroke="#63b8ff" points="211.26,-191.78 203.93,-184.13 204.88,-194.69 211.26,-191.78"/>
</a>
</g>
</g>
<!-- Node4 -->
<g id="Node000004" class="node">
<title>Node4</title>
<g id="a_Node000004"><a xlink:title=" ">
<polygon fill="#e0e0e0" stroke="#999999" points="414,-294 370,-294 370,-275 414,-275 414,-294"/>
<text text-anchor="middle" x="392" y="-282" font-family="Helvetica,sans-Serif" font-size="10.00">limits</text>
</a>
</g>
</g>
<!-- Node1&#45;&gt;Node4 -->
<g id="edge3_Node000001_Node000004" class="edge">
<title>Node1&#45;&gt;Node4</title>
<g id="a_edge3_Node000001_Node000004"><a xlink:title=" ">
<path fill="none" stroke="#63b8ff" d="M356.43,-494.68C363.05,-455.76 381.36,-348.07 388.8,-304.33"/>
<polygon fill="#63b8ff" stroke="#63b8ff" points="392.29,-304.68 390.52,-294.23 385.39,-303.5 392.29,-304.68"/>
</a>
</g>
</g>
<!-- Node5 -->
<g id="Node000005" class="node">
<title>Node5</title>
<g id="a_Node000005"><a xlink:title=" ">
<polygon fill="#e0e0e0" stroke="#999999" points="208.5,-19 161.5,-19 161.5,0 208.5,0 208.5,-19"/>
<text text-anchor="middle" x="185" y="-7" font-family="Helvetica,sans-Serif" font-size="10.00">cmath</text>
</a>
</g>
</g>
<!-- Node1&#45;&gt;Node5 -->
<g id="edge4_Node000001_Node000005" class="edge">
<title>Node1&#45;&gt;Node5</title>
<g id="a_edge4_Node000001_Node000005"><a xlink:title=" ">
<path fill="none" stroke="#63b8ff" d="M301.78,-506.99C244.92,-503.13 152.44,-491.85 80,-459 38.66,-440.25 0,-440.89 0,-395.5 0,-395.5 0,-395.5 0,-118.5 0,-49.29 97.76,-23.63 151.15,-14.78"/>
<polygon fill="#63b8ff" stroke="#63b8ff" points="151.85,-18.21 161.19,-13.23 150.78,-11.3 151.85,-18.21"/>
</a>
</g>
</g>
<!-- Node6 -->
<g id="Node000006" class="node">
<title>Node6</title>
<g id="a_Node000006"><a xlink:href="../../de/d81/APrimitive_8hpp.html" target="_top" xlink:title=" ">
<polygon fill="white" stroke="#666666" points="779.5,-294 666.5,-294 666.5,-275 779.5,-275 779.5,-294"/>
<text text-anchor="middle" x="723" y="-282" font-family="Helvetica,sans-Serif" font-size="10.00">core/APrimitive.hpp</text>
</a>
</g>
</g>
<!-- Node1&#45;&gt;Node6 -->
<g id="edge5_Node000001_Node000006" class="edge">
<title>Node1&#45;&gt;Node6</title>
<g id="a_edge5_Node000001_Node000006"><a xlink:title=" ">
<path fill="none" stroke="#63b8ff" d="M406.14,-495.97C439.93,-486.94 484.64,-473.89 523,-459 575.07,-438.79 588.27,-433.01 636,-404 671.02,-382.72 688,-383.57 710,-349 718.5,-335.64 721.59,-317.77 722.64,-304.39"/>
<polygon fill="#63b8ff" stroke="#63b8ff" points="726.15,-304.17 723.13,-294.02 719.16,-303.84 726.15,-304.17"/>
</a>
</g>
</g>
<!-- Node7 -->
<g id="Node000007" class="node">
<title>Node7</title>
<g id="a_Node000007"><a xlink:href="../../d4/db2/Ray_8hpp.html" target="_top" xlink:title="Defines the Ray structure used for ray&#45;object intersection tests in the raytracer.">
<polygon fill="white" stroke="#666666" points="711.5,-184 632.5,-184 632.5,-165 711.5,-165 711.5,-184"/>
<text text-anchor="middle" x="672" y="-172" font-family="Helvetica,sans-Serif" font-size="10.00">core/Ray.hpp</text>
</a>
</g>
</g>
<!-- Node1&#45;&gt;Node7 -->
<g id="edge25_Node000001_Node000007" class="edge">
<title>Node1&#45;&gt;Node7</title>
<g id="a_edge25_Node000001_Node000007"><a xlink:title=" ">
<path fill="none" stroke="#63b8ff" d="M406.09,-499.75C460.51,-489.98 548.36,-473.97 624,-459 803.42,-423.49 942.41,-467.26 1001,-294 1003.71,-286 1005.73,-282 1001,-275 969.48,-228.38 805.78,-196.44 721.81,-182.86"/>
<polygon fill="#63b8ff" stroke="#63b8ff" points="722.16,-179.37 711.73,-181.26 721.06,-186.28 722.16,-179.37"/>
</a>
</g>
</g>
<!-- Node8 -->
<g id="Node000008" class="node">
<title>Node8</title>
<g id="a_Node000008"><a xlink:href="../../df/df2/Point3D_8hpp.html" target="_top" xlink:title="Defines a 3D point structure used in geometric computations.">
<polygon fill="white" stroke="#666666" points="369,-129 293,-129 293,-110 369,-110 369,-129"/>
<text text-anchor="middle" x="331" y="-117" font-family="Helvetica,sans-Serif" font-size="10.00">Point3D.hpp</text>
</a>
</g>
</g>
<!-- Node1&#45;&gt;Node8 -->
<g id="edge23_Node000001_Node000008" class="edge">
<title>Node1&#45;&gt;Node8</title>
<g id="a_edge23_Node000001_Node000008"><a xlink:title=" ">
<path fill="none" stroke="#63b8ff" d="M301.82,-501.3C212.07,-486.57 38,-450.88 38,-395.5 38,-395.5 38,-395.5 38,-283.5 38,-172.72 199.93,-136.57 283.03,-125.31"/>
<polygon fill="#63b8ff" stroke="#63b8ff" points="283.52,-128.77 293,-124.02 282.63,-121.83 283.52,-128.77"/>
</a>
</g>
</g>
<!-- Node9 -->
<g id="Node000009" class="node">
<title>Node9</title>
<g id="a_Node000009"><a xlink:href="../../d3/dde/Vector3D_8hpp.html" target="_top" xlink:title="Defines a 3D vector structure with basic arithmetic and transformation operations.">
<polygon fill="white" stroke="#666666" points="879,-74 797,-74 797,-55 879,-55 879,-74"/>
<text text-anchor="middle" x="838" y="-62" font-family="Helvetica,sans-Serif" font-size="10.00">Vector3D.hpp</text>
</a>
</g>
</g>
<!-- Node1&#45;&gt;Node9 -->
<g id="edge24_Node000001_Node000009" class="edge">
<title>Node1&#45;&gt;Node9</title>
<g id="a_edge24_Node000001_Node000009"><a xlink:title=" ">
<path fill="none" stroke="#63b8ff" d="M406.18,-506.53C575.07,-497.84 1096,-465.38 1096,-395.5 1096,-395.5 1096,-395.5 1096,-173.5 1096,-84.81 964.65,-67.7 889.39,-65.17"/>
<polygon fill="#63b8ff" stroke="#63b8ff" points="889.25,-61.67 879.17,-64.91 889.07,-68.67 889.25,-61.67"/>
</a>
</g>
</g>
<!-- Node11 -->
<g id="Node000011" class="node">
<title>Node11</title>
<g id="a_Node000011"><a xlink:href="../../d0/d70/Material_8hpp.html" target="_top" xlink:title="Declares the physically&#45;based material descriptor used by the renderer.">
<polygon fill="white" stroke="#666666" points="422,-239 294,-239 294,-220 422,-220 422,-239"/>
<text text-anchor="middle" x="358" y="-227" font-family="Helvetica,sans-Serif" font-size="10.00">rendering/Material.hpp</text>
</a>
</g>
</g>
<!-- Node1&#45;&gt;Node11 -->
<g id="edge26_Node000001_Node000011" class="edge">
<title>Node1&#45;&gt;Node11</title>
<g id="a_edge26_Node000001_Node000011"><a xlink:title=" ">
<path fill="none" stroke="#63b8ff" d="M353.21,-494.92C351.32,-460.59 346.59,-369.82 345,-294 344.82,-285.56 343.8,-283.36 345,-275 346.25,-266.24 348.83,-256.79 351.36,-248.86"/>
<polygon fill="#63b8ff" stroke="#63b8ff" points="354.74,-249.8 354.66,-239.2 348.12,-247.54 354.74,-249.8"/>
</a>
</g>
</g>
<!-- Node15 -->
<g id="Node000015" class="node">
<title>Node15</title>
<g id="a_Node000015"><a xlink:href="../../dd/d35/Tetrahedron_8hpp.html" target="_top" xlink:title=" ">
<polygon fill="white" stroke="#666666" points="513.5,-459 418.5,-459 418.5,-440 513.5,-440 513.5,-459"/>
<text text-anchor="middle" x="466" y="-447" font-family="Helvetica,sans-Serif" font-size="10.00">Tetrahedron.hpp</text>
</a>
</g>
</g>
<!-- Node1&#45;&gt;Node15 -->
<g id="edge27_Node000001_Node000015" class="edge">
<title>Node1&#45;&gt;Node15</title>
<g id="a_edge27_Node000001_Node000015"><a xlink:title=" ">
<path fill="none" stroke="#63b8ff" d="M380.83,-494.99C398.85,-485.58 422.46,-473.24 440.25,-463.95"/>
<polygon fill="#63b8ff" stroke="#63b8ff" points="442.22,-466.87 449.46,-459.14 438.98,-460.67 442.22,-466.87"/>
</a>
</g>
</g>
<!-- Node6&#45;&gt;Node7 -->
<g id="edge6_Node000006_Node000007" class="edge">
<title>Node6&#45;&gt;Node7</title>
<g id="a_edge6_Node000006_Node000007"><a xlink:title=" ">
<path fill="none" stroke="#63b8ff" d="M676.84,-275C656.4,-268.69 634.25,-257.78 622,-239 610.41,-221.22 629.97,-202.29 647.91,-189.77"/>
<polygon fill="#63b8ff" stroke="#63b8ff" points="650.01,-192.58 656.45,-184.17 646.17,-186.72 650.01,-192.58"/>
</a>
</g>
</g>
<!-- Node6&#45;&gt;Node8 -->
<g id="edge12_Node000006_Node000008" class="edge">
<title>Node6&#45;&gt;Node8</title>
<g id="a_edge12_Node000006_Node000008"><a xlink:title=" ">
<path fill="none" stroke="#63b8ff" d="M698.13,-274.93C675.63,-266.81 641.84,-253.7 614,-239 561.24,-211.15 556.5,-189.29 502,-165 462.34,-147.33 414.27,-135.59 379.21,-128.63"/>
<polygon fill="#63b8ff" stroke="#63b8ff" points="379.71,-125.17 369.23,-126.71 378.38,-132.04 379.71,-125.17"/>
</a>
</g>
</g>
<!-- Node6&#45;&gt;Node9 -->
<g id="edge14_Node000006_Node000009" class="edge">
<title>Node6&#45;&gt;Node9</title>
<g id="a_edge14_Node000006_Node000009"><a xlink:title=" ">
<path fill="none" stroke="#63b8ff" d="M779.59,-278.13C805.19,-272.55 833.19,-261.35 849,-239 882.5,-191.64 859.5,-117.6 845.95,-83.63"/>
<polygon fill="#63b8ff" stroke="#63b8ff" points="849.05,-81.98 841.97,-74.1 842.59,-84.67 849.05,-81.98"/>
</a>
</g>
</g>
<!-- Node10 -->
<g id="Node000010" class="node">
<title>Node10</title>
<g id="a_Node000010"><a xlink:href="../../d8/d1e/Vector2D_8hpp.html" target="_top" xlink:title="Defines a 2D vector structure used for texture coordinates or screen&#45;space math operations.">
<polygon fill="white" stroke="#666666" points="840,-239 734,-239 734,-220 840,-220 840,-239"/>
<text text-anchor="middle" x="787" y="-227" font-family="Helvetica,sans-Serif" font-size="10.00">core/Vector2D.hpp</text>
</a>
</g>
</g>
<!-- Node6&#45;&gt;Node10 -->
<g id="edge13_Node000006_Node000010" class="edge">
<title>Node6&#45;&gt;Node10</title>
<g id="a_edge13_Node000006_Node000010"><a xlink:title=" ">
<path fill="none" stroke="#63b8ff" d="M733.28,-274.98C742.84,-267.07 757.28,-255.11 768.78,-245.58"/>
<polygon fill="#63b8ff" stroke="#63b8ff" points="771.06,-248.24 776.53,-239.17 766.6,-242.85 771.06,-248.24"/>
</a>
</g>
</g>
<!-- Node6&#45;&gt;Node11 -->
<g id="edge15_Node000006_Node000011" class="edge">
<title>Node6&#45;&gt;Node11</title>
<g id="a_edge15_Node000006_Node000011"><a xlink:title=" ">
<path fill="none" stroke="#63b8ff" d="M666.37,-275.28C601.67,-265.88 495.82,-250.51 426.53,-240.45"/>
<polygon fill="#63b8ff" stroke="#63b8ff" points="426.98,-236.98 416.58,-239.01 425.97,-243.91 426.98,-236.98"/>
</a>
</g>
</g>
<!-- Node14 -->
<g id="Node000014" class="node">
<title>Node14</title>
<g id="a_Node000014"><a xlink:href="../../d0/d38/IPrimitive_8hpp.html" target="_top" xlink:title="Interface for geometric primitives in the raytracer.">
<polygon fill="white" stroke="#666666" points="715.5,-239 630.5,-239 630.5,-220 715.5,-220 715.5,-239"/>
<text text-anchor="middle" x="673" y="-227" font-family="Helvetica,sans-Serif" font-size="10.00">IPrimitive.hpp</text>
</a>
</g>
</g>
<!-- Node6&#45;&gt;Node14 -->
<g id="edge21_Node000006_Node000014" class="edge">
<title>Node6&#45;&gt;Node14</title>
<g id="a_edge21_Node000006_Node000014"><a xlink:title=" ">
<path fill="none" stroke="#63b8ff" d="M714.74,-274.75C707.54,-267.11 696.89,-255.82 688.15,-246.56"/>
<polygon fill="#63b8ff" stroke="#63b8ff" points="690.51,-243.96 681.1,-239.09 685.42,-248.76 690.51,-243.96"/>
</a>
</g>
</g>
<!-- Node7&#45;&gt;Node8 -->
<g id="edge7_Node000007_Node000008" class="edge">
<title>Node7&#45;&gt;Node8</title>
<g id="a_edge7_Node000007_Node000008"><a xlink:title=" ">
<path fill="none" stroke="#63b8ff" d="M632.22,-167.32C569.3,-157.54 447.03,-138.53 379.22,-128"/>
<polygon fill="#63b8ff" stroke="#63b8ff" points="379.64,-124.52 369.23,-126.44 378.57,-131.44 379.64,-124.52"/>
</a>
</g>
</g>
<!-- Node7&#45;&gt;Node9 -->
<g id="edge11_Node000007_Node000009" class="edge">
<title>Node7&#45;&gt;Node9</title>
<g id="a_edge11_Node000007_Node000009"><a xlink:title=" ">
<path fill="none" stroke="#63b8ff" d="M685.3,-164.84C713.84,-146.28 781.15,-102.49 816.09,-79.75"/>
<polygon fill="#63b8ff" stroke="#63b8ff" points="818.16,-82.58 824.63,-74.2 814.34,-76.72 818.16,-82.58"/>
</a>
</g>
</g>
<!-- Node8&#45;&gt;Node5 -->
<g id="edge10_Node000008_Node000005" class="edge">
<title>Node8&#45;&gt;Node5</title>
<g id="a_edge10_Node000008_Node000005"><a xlink:title=" ">
<path fill="none" stroke="#63b8ff" d="M319.3,-109.84C294.42,-91.44 236.01,-48.23 205.06,-25.34"/>
<polygon fill="#63b8ff" stroke="#63b8ff" points="206.88,-22.33 196.76,-19.2 202.71,-27.96 206.88,-22.33"/>
</a>
</g>
</g>
<!-- Node8&#45;&gt;Node9 -->
<g id="edge8_Node000008_Node000009" class="edge">
<title>Node8&#45;&gt;Node9</title>
<g id="a_edge8_Node000008_Node000009"><a xlink:title=" ">
<path fill="none" stroke="#63b8ff" d="M369.13,-113.73C379.47,-112.48 390.66,-111.15 401,-110 540.37,-94.44 704.99,-78.28 786.68,-70.4"/>
<polygon fill="#63b8ff" stroke="#63b8ff" points="787.08,-73.88 796.7,-69.44 786.41,-66.91 787.08,-73.88"/>
</a>
</g>
</g>
<!-- Node9&#45;&gt;Node5 -->
<g id="edge9_Node000009_Node000005" class="edge">
<title>Node9&#45;&gt;Node5</title>
<g id="a_edge9_Node000009_Node000005"><a xlink:title=" ">
<path fill="none" stroke="#63b8ff" d="M796.66,-60.14C676.46,-50.39 328.69,-22.16 218.74,-13.24"/>
<polygon fill="#63b8ff" stroke="#63b8ff" points="218.82,-9.73 208.57,-12.41 218.25,-16.71 218.82,-9.73"/>
</a>
</g>
</g>
<!-- Node11&#45;&gt;Node3 -->
<g id="edge17_Node000011_Node000003" class="edge">
<title>Node11&#45;&gt;Node3</title>
<g id="a_edge17_Node000011_Node000003"><a xlink:title=" ">
<path fill="none" stroke="#63b8ff" d="M332.61,-219.98C306.2,-211.13 264.65,-197.19 235.11,-187.28"/>
<polygon fill="#63b8ff" stroke="#63b8ff" points="236.18,-183.94 225.58,-184.08 233.95,-190.58 236.18,-183.94"/>
</a>
</g>
</g>
<!-- Node11&#45;&gt;Node9 -->
<g id="edge18_Node000011_Node000009" class="edge">
<title>Node11&#45;&gt;Node9</title>
<g id="a_edge18_Node000011_Node000009"><a xlink:title=" ">
<path fill="none" stroke="#63b8ff" d="M383.13,-219.97C462.99,-192.85 711.08,-108.6 803.15,-77.33"/>
<polygon fill="#63b8ff" stroke="#63b8ff" points="804.49,-80.58 812.83,-74.05 802.23,-73.95 804.49,-80.58"/>
</a>
</g>
</g>
<!-- Node12 -->
<g id="Node000012" class="node">
<title>Node12</title>
<g id="a_Node000012"><a xlink:title=" ">
<polygon fill="#e0e0e0" stroke="#999999" points="380,-184 336,-184 336,-165 380,-165 380,-184"/>
<text text-anchor="middle" x="358" y="-172" font-family="Helvetica,sans-Serif" font-size="10.00">string</text>
</a>
</g>
</g>
<!-- Node11&#45;&gt;Node12 -->
<g id="edge16_Node000011_Node000012" class="edge">
<title>Node11&#45;&gt;Node12</title>
<g id="a_edge16_Node000011_Node000012"><a xlink:title=" ">
<path fill="none" stroke="#63b8ff" d="M358,-219.75C358,-212.8 358,-202.85 358,-194.13"/>
<polygon fill="#63b8ff" stroke="#63b8ff" points="361.5,-194.09 358,-184.09 354.5,-194.09 361.5,-194.09"/>
</a>
</g>
</g>
<!-- Node13 -->
<g id="Node000013" class="node">
<title>Node13</title>
<g id="a_Node000013"><a xlink:href="../../d0/ddc/Texture_8hpp.html" target="_top" xlink:title="Declares the abstract base class for all 2&#45;D textures. (Solid colour, checkerboard,...">
<polygon fill="white" stroke="#666666" points="532.5,-129 409.5,-129 409.5,-110 532.5,-110 532.5,-129"/>
<text text-anchor="middle" x="471" y="-117" font-family="Helvetica,sans-Serif" font-size="10.00">rendering/Texture.hpp</text>
</a>
</g>
</g>
<!-- Node11&#45;&gt;Node13 -->
<g id="edge19_Node000011_Node000013" class="edge">
<title>Node11&#45;&gt;Node13</title>
<g id="a_edge19_Node000011_Node000013"><a xlink:title=" ">
<path fill="none" stroke="#63b8ff" d="M367.25,-219.66C386.38,-201.38 430.53,-159.18 454.61,-136.17"/>
<polygon fill="#63b8ff" stroke="#63b8ff" points="457.13,-138.6 461.94,-129.16 452.29,-133.54 457.13,-138.6"/>
</a>
</g>
</g>
<!-- Node13&#45;&gt;Node9 -->
<g id="edge20_Node000013_Node000009" class="edge">
<title>Node13&#45;&gt;Node9</title>
<g id="a_edge20_Node000013_Node000009"><a xlink:title=" ">
<path fill="none" stroke="#63b8ff" d="M529.96,-109.98C601.08,-99.71 719.45,-82.62 786.87,-72.88"/>
<polygon fill="#63b8ff" stroke="#63b8ff" points="787.44,-76.34 796.83,-71.45 786.44,-69.41 787.44,-76.34"/>
</a>
</g>
</g>
<!-- Node14&#45;&gt;Node7 -->
<g id="edge22_Node000014_Node000007" class="edge">
<title>Node14&#45;&gt;Node7</title>
<g id="a_edge22_Node000014_Node000007"><a xlink:title=" ">
<path fill="none" stroke="#63b8ff" d="M672.83,-219.75C672.7,-212.8 672.52,-202.85 672.35,-194.13"/>
<polygon fill="#63b8ff" stroke="#63b8ff" points="675.85,-194.02 672.16,-184.09 668.85,-194.15 675.85,-194.02"/>
</a>
</g>
</g>
<!-- Node15&#45;&gt;Node2 -->
<g id="edge28_Node000015_Node000002" class="edge">
<title>Node15&#45;&gt;Node2</title>
<g id="a_edge28_Node000015_Node000002"><a xlink:title=" ">
<path fill="none" stroke="#63b8ff" d="M513.77,-445.76C600.25,-440.3 779.15,-426.63 837,-404 890.11,-383.22 935.19,-330.09 955.88,-302.58"/>
<polygon fill="#63b8ff" stroke="#63b8ff" points="958.85,-304.45 961.94,-294.32 953.2,-300.32 958.85,-304.45"/>
</a>
</g>
</g>
<!-- Node15&#45;&gt;Node3 -->
<g id="edge29_Node000015_Node000003" class="edge">
<title>Node15&#45;&gt;Node3</title>
<g id="a_edge29_Node000015_Node000003"><a xlink:title=" ">
<path fill="none" stroke="#63b8ff" d="M450.63,-439.99C436.31,-431.71 414.72,-418.31 398,-404 317.34,-334.97 240.55,-232.4 211.86,-192.36"/>
<polygon fill="#63b8ff" stroke="#63b8ff" points="214.69,-190.31 206.05,-184.19 208.99,-194.37 214.69,-190.31"/>
</a>
</g>
</g>
<!-- Node15&#45;&gt;Node6 -->
<g id="edge30_Node000015_Node000006" class="edge">
<title>Node15&#45;&gt;Node6</title>
<g id="a_edge30_Node000015_Node000006"><a xlink:title=" ">
<path fill="none" stroke="#63b8ff" d="M502.95,-439.99C550.9,-427.32 634.84,-399.4 689,-349 702.42,-336.51 711.62,-317.5 717.03,-303.53"/>
<polygon fill="#63b8ff" stroke="#63b8ff" points="720.36,-304.62 720.44,-294.02 713.77,-302.26 720.36,-304.62"/>
</a>
</g>
</g>
<!-- Node15&#45;&gt;Node7 -->
<g id="edge33_Node000015_Node000007" class="edge">
<title>Node15&#45;&gt;Node7</title>
<g id="a_edge33_Node000015_Node000007"><a xlink:title=" ">
<path fill="none" stroke="#63b8ff" d="M513.81,-440.94C602.81,-423.84 790.18,-372.72 849,-239 871.87,-187.02 781.95,-176.36 721.95,-174.87"/>
<polygon fill="#63b8ff" stroke="#63b8ff" points="721.93,-171.37 711.87,-174.7 721.81,-178.37 721.93,-171.37"/>
</a>
</g>
</g>
<!-- Node15&#45;&gt;Node8 -->
<g id="edge31_Node000015_Node000008" class="edge">
<title>Node15&#45;&gt;Node8</title>
<g id="a_edge31_Node000015_Node000008"><a xlink:title=" ">
<path fill="none" stroke="#63b8ff" d="M434.48,-439.94C365.1,-419.15 200.36,-358.7 138,-239 125.06,-214.16 156.5,-169.71 162,-165 195.59,-136.22 245.73,-125.79 282.68,-122.14"/>
<polygon fill="#63b8ff" stroke="#63b8ff" points="283.06,-125.62 292.73,-121.28 282.47,-118.65 283.06,-125.62"/>
</a>
</g>
</g>
<!-- Node15&#45;&gt;Node9 -->
<g id="edge32_Node000015_Node000009" class="edge">
<title>Node15&#45;&gt;Node9</title>
<g id="a_edge32_Node000015_Node000009"><a xlink:title=" ">
<path fill="none" stroke="#63b8ff" d="M513.85,-444.66C613.12,-436.47 834.9,-417 867,-404 973.3,-360.95 1058,-345.18 1058,-230.5 1058,-230.5 1058,-230.5 1058,-173.5 1058,-98.68 954.2,-75.69 889.2,-68.63"/>
<polygon fill="#63b8ff" stroke="#63b8ff" points="889.42,-65.13 879.12,-67.63 888.73,-72.1 889.42,-65.13"/>
</a>
</g>
</g>
<!-- Node15&#45;&gt;Node11 -->
<g id="edge34_Node000015_Node000011" class="edge">
<title>Node15&#45;&gt;Node11</title>
<g id="a_edge34_Node000015_Node000011"><a xlink:title=" ">
<path fill="none" stroke="#63b8ff" d="M455.41,-439.83C430.26,-418.38 367.77,-359.77 351,-294 347.23,-279.2 349.54,-261.96 352.48,-249.17"/>
<polygon fill="#63b8ff" stroke="#63b8ff" points="355.93,-249.83 355.09,-239.26 349.16,-248.04 355.93,-249.83"/>
</a>
</g>
</g>
<!-- Node16 -->
<g id="Node000016" class="node">
<title>Node16</title>
<g id="a_Node000016"><a xlink:href="../../d9/db8/Triangle_8hpp.html" target="_top" xlink:title="Declares the Triangle primitive and its ray–triangle intersection logic.">
<polygon fill="white" stroke="#666666" points="504,-404 428,-404 428,-385 504,-385 504,-404"/>
<text text-anchor="middle" x="466" y="-392" font-family="Helvetica,sans-Serif" font-size="10.00">Triangle.hpp</text>
</a>
</g>
</g>
<!-- Node15&#45;&gt;Node16 -->
<g id="edge35_Node000015_Node000016" class="edge">
<title>Node15&#45;&gt;Node16</title>
<g id="a_edge35_Node000015_Node000016"><a xlink:title=" ">
<path fill="none" stroke="#63b8ff" d="M466,-439.75C466,-432.8 466,-422.85 466,-414.13"/>
<polygon fill="#63b8ff" stroke="#63b8ff" points="469.5,-414.09 466,-404.09 462.5,-414.09 469.5,-414.09"/>
</a>
</g>
</g>
<!-- Node16&#45;&gt;Node5 -->
<g id="edge37_Node000016_Node000005" class="edge">
<title>Node16&#45;&gt;Node5</title>
<g id="a_edge37_Node000016_Node000005"><a xlink:title=" ">
<path fill="none" stroke="#63b8ff" d="M437.36,-384.87C372.44,-363.49 215.61,-301.15 162,-184 137.93,-131.39 162.38,-61.07 176.5,-28.48"/>
<polygon fill="#63b8ff" stroke="#63b8ff" points="179.72,-29.85 180.64,-19.29 173.34,-26.97 179.72,-29.85"/>
</a>
</g>
</g>
<!-- Node16&#45;&gt;Node6 -->
<g id="edge38_Node000016_Node000006" class="edge">
<title>Node16&#45;&gt;Node6</title>
<g id="a_edge38_Node000016_Node000006"><a xlink:title=" ">
<path fill="none" stroke="#63b8ff" d="M504.3,-391.45C545.83,-387.79 612.89,-377.56 663,-349 683.3,-337.43 700.89,-316.8 711.69,-302.19"/>
<polygon fill="#63b8ff" stroke="#63b8ff" points="714.56,-304.19 717.49,-294.01 708.85,-300.14 714.56,-304.19"/>
</a>
</g>
</g>
<!-- Node16&#45;&gt;Node7 -->
<g id="edge41_Node000016_Node000007" class="edge">
<title>Node16&#45;&gt;Node7</title>
<g id="a_edge41_Node000016_Node000007"><a xlink:title=" ">
<path fill="none" stroke="#63b8ff" d="M462.57,-384.91C454.88,-364.13 438.62,-310.3 461,-275 496.2,-219.48 571.59,-194.36 622.05,-183.42"/>
<polygon fill="#63b8ff" stroke="#63b8ff" points="623.02,-186.79 632.11,-181.35 621.61,-179.94 623.02,-186.79"/>
</a>
</g>
</g>
<!-- Node16&#45;&gt;Node8 -->
<g id="edge39_Node000016_Node000008" class="edge">
<title>Node16&#45;&gt;Node8</title>
<g id="a_edge39_Node000016_Node000008"><a xlink:title=" ">
<path fill="none" stroke="#63b8ff" d="M444.44,-384.89C426.43,-377.09 400.62,-364.47 381,-349 330.05,-308.82 307.78,-299.76 285,-239 271.26,-202.35 298.63,-159.61 316.75,-136.81"/>
<polygon fill="#63b8ff" stroke="#63b8ff" points="319.45,-139.03 323.13,-129.1 314.06,-134.57 319.45,-139.03"/>
</a>
</g>
</g>
<!-- Node16&#45;&gt;Node9 -->
<g id="edge40_Node000016_Node000009" class="edge">
<title>Node16&#45;&gt;Node9</title>
<g id="a_edge40_Node000016_Node000009"><a xlink:title=" ">
<path fill="none" stroke="#63b8ff" d="M504.19,-390.89C574.47,-384.49 726.72,-363.11 832,-294 886.71,-258.09 911.69,-229.86 903,-165 899.64,-139.89 901.35,-131.54 888,-110 880.8,-98.39 869.67,-88.06 859.74,-80.28"/>
<polygon fill="#63b8ff" stroke="#63b8ff" points="861.56,-77.27 851.44,-74.13 857.39,-82.9 861.56,-77.27"/>
</a>
</g>
</g>
<!-- Node16&#45;&gt;Node11 -->
<g id="edge42_Node000016_Node000011" class="edge">
<title>Node16&#45;&gt;Node11</title>
<g id="a_edge42_Node000016_Node000011"><a xlink:title=" ">
<path fill="none" stroke="#63b8ff" d="M451.11,-384.78C427.07,-369.75 380.46,-336.46 361,-294 354.6,-280.03 354.27,-262.48 355.31,-249.37"/>
<polygon fill="#63b8ff" stroke="#63b8ff" points="358.81,-249.52 356.45,-239.19 351.86,-248.74 358.81,-249.52"/>
</a>
</g>
</g>
<!-- Node17 -->
<g id="Node000017" class="node">
<title>Node17</title>
<g id="a_Node000017"><a xlink:title=" ">
<polygon fill="#e0e0e0" stroke="#999999" points="534,-294 470,-294 470,-275 534,-275 534,-294"/>
<text text-anchor="middle" x="502" y="-282" font-family="Helvetica,sans-Serif" font-size="10.00">algorithm</text>
</a>
</g>
</g>
<!-- Node16&#45;&gt;Node17 -->
<g id="edge36_Node000016_Node000017" class="edge">
<title>Node16&#45;&gt;Node17</title>
<g id="a_edge36_Node000016_Node000017"><a xlink:title=" ">
<path fill="none" stroke="#63b8ff" d="M468.95,-384.66C474.8,-367.09 488.02,-327.45 495.85,-303.95"/>
<polygon fill="#63b8ff" stroke="#63b8ff" points="499.27,-304.75 499.11,-294.16 492.63,-302.54 499.27,-304.75"/>
</a>
</g>
</g>
<!-- Node18 -->
<g id="Node000018" class="node">
<title>Node18</title>
<g id="a_Node000018"><a xlink:href="../../d9/dad/BVH_8hpp.html" target="_top" xlink:title="Declares the axis&#45;aligned bounding box (AABB) and the BVH node used for ray&#45;tracing acceleration.">
<polygon fill="white" stroke="#666666" points="654,-349 546,-349 546,-330 654,-330 654,-349"/>
<text text-anchor="middle" x="600" y="-337" font-family="Helvetica,sans-Serif" font-size="10.00">rendering/BVH.hpp</text>
</a>
</g>
</g>
<!-- Node16&#45;&gt;Node18 -->
<g id="edge43_Node000016_Node000018" class="edge">
<title>Node16&#45;&gt;Node18</title>
<g id="a_edge43_Node000016_Node000018"><a xlink:title=" ">
<path fill="none" stroke="#63b8ff" d="M487.53,-384.98C509.47,-376.3 543.74,-362.75 568.69,-352.88"/>
<polygon fill="#63b8ff" stroke="#63b8ff" points="570.07,-356.1 578.08,-349.17 567.49,-349.59 570.07,-356.1"/>
</a>
</g>
</g>
<!-- Node18&#45;&gt;Node2 -->
<g id="edge45_Node000018_Node000002" class="edge">
<title>Node18&#45;&gt;Node2</title>
<g id="a_edge45_Node000018_Node000002"><a xlink:title=" ">
<path fill="none" stroke="#63b8ff" d="M654.3,-330.68C731.38,-319.58 870.25,-299.58 934.15,-290.38"/>
<polygon fill="#63b8ff" stroke="#63b8ff" points="934.7,-293.83 944.1,-288.94 933.7,-286.9 934.7,-293.83"/>
</a>
</g>
</g>
<!-- Node18&#45;&gt;Node3 -->
<g id="edge44_Node000018_Node000003" class="edge">
<title>Node18&#45;&gt;Node3</title>
<g id="a_edge44_Node000018_Node000003"><a xlink:title=" ">
<path fill="none" stroke="#63b8ff" d="M595,-329.76C586.39,-315.6 567.33,-287.94 543,-275 440.79,-220.62 392.08,-283.03 285,-239 258.02,-227.9 231.88,-206.23 215.88,-191.32"/>
<polygon fill="#63b8ff" stroke="#63b8ff" points="218.12,-188.62 208.48,-184.22 213.28,-193.67 218.12,-188.62"/>
</a>
</g>
</g>
<!-- Node18&#45;&gt;Node4 -->
<g id="edge47_Node000018_Node000004" class="edge">
<title>Node18&#45;&gt;Node4</title>
<g id="a_edge47_Node000018_Node000004"><a xlink:title=" ">
<path fill="none" stroke="#63b8ff" d="M566.58,-329.98C527.43,-320.01 463,-303.59 424.33,-293.74"/>
<polygon fill="#63b8ff" stroke="#63b8ff" points="424.7,-290.22 414.14,-291.14 422.97,-297 424.7,-290.22"/>
</a>
</g>
</g>
<!-- Node18&#45;&gt;Node6 -->
<g id="edge49_Node000018_Node000006" class="edge">
<title>Node18&#45;&gt;Node6</title>
<g id="a_edge49_Node000018_Node000006"><a xlink:title=" ">
<path fill="none" stroke="#63b8ff" d="M619.76,-329.98C639.73,-321.38 670.8,-307.99 693.65,-298.15"/>
<polygon fill="#63b8ff" stroke="#63b8ff" points="695.08,-301.34 702.88,-294.17 692.31,-294.91 695.08,-301.34"/>
</a>
</g>
</g>
<!-- Node18&#45;&gt;Node7 -->
<g id="edge48_Node000018_Node000007" class="edge">
<title>Node18&#45;&gt;Node7</title>
<g id="a_edge48_Node000018_Node000007"><a xlink:title=" ">
<path fill="none" stroke="#63b8ff" d="M603.6,-329.82C607.06,-320.99 612.03,-306.81 614,-294 618.99,-261.49 599.45,-249.5 614,-220 620.49,-206.85 632.93,-196.5 644.64,-189.11"/>
<polygon fill="#63b8ff" stroke="#63b8ff" points="646.46,-192.1 653.33,-184.03 642.93,-186.05 646.46,-192.1"/>
</a>
</g>
</g>
<!-- Node18&#45;&gt;Node8 -->
<g id="edge50_Node000018_Node000008" class="edge">
<title>Node18&#45;&gt;Node8</title>
<g id="a_edge50_Node000018_Node000008"><a xlink:title=" ">
<path fill="none" stroke="#63b8ff" d="M597.28,-329.85C592.84,-316.77 582.98,-291.74 568,-275 506.87,-206.68 408.9,-155.86 360.3,-133.33"/>
<polygon fill="#63b8ff" stroke="#63b8ff" points="361.54,-130.05 350.99,-129.08 358.63,-136.42 361.54,-130.05"/>
</a>
</g>
</g>
<!-- Node18&#45;&gt;Node9 -->
<g id="edge51_Node000018_Node000009" class="edge">
<title>Node18&#45;&gt;Node9</title>
<g id="a_edge51_Node000018_Node000009"><a xlink:title=" ">
<path fill="none" stroke="#63b8ff" d="M654.21,-335.95C717.62,-329.69 819.91,-308.67 867,-239 899.12,-191.48 893.34,-162.83 871,-110 866.71,-99.85 859.65,-89.87 853.16,-81.95"/>
<polygon fill="#63b8ff" stroke="#63b8ff" points="855.68,-79.52 846.5,-74.24 850.39,-84.09 855.68,-79.52"/>
</a>
</g>
</g>
<!-- Node18&#45;&gt;Node17 -->
<g id="edge46_Node000018_Node000017" class="edge">
<title>Node18&#45;&gt;Node17</title>
<g id="a_edge46_Node000018_Node000017"><a xlink:title=" ">
<path fill="none" stroke="#63b8ff" d="M584.25,-329.98C568.77,-321.61 544.91,-308.7 526.86,-298.95"/>
<polygon fill="#63b8ff" stroke="#63b8ff" points="528.49,-295.85 518.03,-294.17 525.16,-302.01 528.49,-295.85"/>
</a>
</g>
</g>
</g>
</svg>
