<?xml version="1.0" encoding="UTF-8" standalone="no"?>
<!DOCTYPE svg PUBLIC "-//W3C//DTD SVG 1.1//EN"
 "http://www.w3.org/Graphics/SVG/1.1/DTD/svg11.dtd">
<!-- Generated by graphviz version 2.43.0 (0)
 -->
<!-- Title: include/loaders/STLLoader.hpp Pages: 1 -->
<svg width="959pt" height="522pt"
 viewBox="0.00 0.00 959.00 522.00" xmlns="http://www.w3.org/2000/svg" xmlns:xlink="http://www.w3.org/1999/xlink">
<g id="graph0" class="graph" transform="scale(1 1) rotate(0) translate(4 518)">
<title>include/loaders/STLLoader.hpp</title>
<!-- Node1 -->
<g id="Node000001" class="node">
<title>Node1</title>
<g id="a_Node000001"><a xlink:title="Declares a loader class for importing 3D models from STL files into Mesh objects.">
<polygon fill="#999999" stroke="#666666" points="394,-514 230,-514 230,-495 394,-495 394,-514"/>
<text text-anchor="middle" x="312" y="-502" font-family="Helvetica,sans-Serif" font-size="10.00">include/loaders/STLLoader.hpp</text>
</a>
</g>
</g>
<!-- Node2 -->
<g id="Node000002" class="node">
<title>Node2</title>
<g id="a_Node000002"><a xlink:title=" ">
<polygon fill="#e0e0e0" stroke="#999999" points="44,-184 0,-184 0,-165 44,-165 44,-184"/>
<text text-anchor="middle" x="22" y="-172" font-family="Helvetica,sans-Serif" font-size="10.00">string</text>
</a>
</g>
</g>
<!-- Node1&#45;&gt;Node2 -->
<g id="edge1_Node000001_Node000002" class="edge">
<title>Node1&#45;&gt;Node2</title>
<g id="a_edge1_Node000001_Node000002"><a xlink:title=" ">
<path fill="none" stroke="#63b8ff" d="M255.03,-494.98C167.77,-480.3 11,-446.79 11,-395.5 11,-395.5 11,-395.5 11,-283.5 11,-252.03 15.68,-215.66 18.94,-194.18"/>
<polygon fill="#63b8ff" stroke="#63b8ff" points="22.42,-194.57 20.52,-184.15 15.5,-193.48 22.42,-194.57"/>
</a>
</g>
</g>
<!-- Node3 -->
<g id="Node000003" class="node">
<title>Node3</title>
<g id="a_Node000003"><a xlink:href="../../d1/d62/Mesh_8hpp.html" target="_top" xlink:title="Declares a simple triangle mesh wrapper used by the ray tracer.">
<polygon fill="white" stroke="#666666" points="784.5,-459 671.5,-459 671.5,-440 784.5,-440 784.5,-459"/>
<text text-anchor="middle" x="728" y="-447" font-family="Helvetica,sans-Serif" font-size="10.00">rendering/Mesh.hpp</text>
</a>
</g>
</g>
<!-- Node1&#45;&gt;Node3 -->
<g id="edge2_Node000001_Node000003" class="edge">
<title>Node1&#45;&gt;Node3</title>
<g id="a_edge2_Node000001_Node000003"><a xlink:title=" ">
<path fill="none" stroke="#63b8ff" d="M378.84,-494.98C456.43,-485.1 583.64,-468.89 661.21,-459.01"/>
<polygon fill="#63b8ff" stroke="#63b8ff" points="661.87,-462.45 671.35,-457.72 660.99,-455.51 661.87,-462.45"/>
</a>
</g>
</g>
<!-- Node4 -->
<g id="Node000004" class="node">
<title>Node4</title>
<g id="a_Node000004"><a xlink:title=" ">
<polygon fill="#e0e0e0" stroke="#999999" points="846.5,-294 799.5,-294 799.5,-275 846.5,-275 846.5,-294"/>
<text text-anchor="middle" x="823" y="-282" font-family="Helvetica,sans-Serif" font-size="10.00">vector</text>
</a>
</g>
</g>
<!-- Node3&#45;&gt;Node4 -->
<g id="edge3_Node000003_Node000004" class="edge">
<title>Node3&#45;&gt;Node4</title>
<g id="a_edge3_Node000003_Node000004"><a xlink:title=" ">
<path fill="none" stroke="#63b8ff" d="M733.11,-439.74C748.12,-413.98 792.32,-338.13 812.61,-303.33"/>
<polygon fill="#63b8ff" stroke="#63b8ff" points="815.86,-304.71 817.87,-294.31 809.81,-301.18 815.86,-304.71"/>
</a>
</g>
</g>
<!-- Node5 -->
<g id="Node000005" class="node">
<title>Node5</title>
<g id="a_Node000005"><a xlink:href="../../d9/db8/Triangle_8hpp.html" target="_top" xlink:title="Declares the Triangle primitive and its ray–triangle intersection logic.">
<polygon fill="white" stroke="#666666" points="684,-404 556,-404 556,-385 684,-385 684,-404"/>
<text text-anchor="middle" x="620" y="-392" font-family="Helvetica,sans-Serif" font-size="10.00">primitives/Triangle.hpp</text>
</a>
</g>
</g>
<!-- Node3&#45;&gt;Node5 -->
<g id="edge4_Node000003_Node000005" class="edge">
<title>Node3&#45;&gt;Node5</title>
<g id="a_edge4_Node000003_Node000005"><a xlink:title=" ">
<path fill="none" stroke="#63b8ff" d="M710.65,-439.98C693.43,-431.54 666.8,-418.47 646.85,-408.68"/>
<polygon fill="#63b8ff" stroke="#63b8ff" points="648.19,-405.43 637.67,-404.17 645.1,-411.72 648.19,-405.43"/>
</a>
</g>
</g>
<!-- Node9 -->
<g id="Node000009" class="node">
<title>Node9</title>
<g id="a_Node000009"><a xlink:href="../../d4/db2/Ray_8hpp.html" target="_top" xlink:title="Defines the Ray structure used for ray&#45;object intersection tests in the raytracer.">
<polygon fill="white" stroke="#666666" points="652.5,-184 573.5,-184 573.5,-165 652.5,-165 652.5,-184"/>
<text text-anchor="middle" x="613" y="-172" font-family="Helvetica,sans-Serif" font-size="10.00">core/Ray.hpp</text>
</a>
</g>
</g>
<!-- Node3&#45;&gt;Node9 -->
<g id="edge38_Node000003_Node000009" class="edge">
<title>Node3&#45;&gt;Node9</title>
<g id="a_edge38_Node000003_Node000009"><a xlink:title=" ">
<path fill="none" stroke="#63b8ff" d="M743.46,-439.85C786.15,-414.85 899.7,-340.11 856,-275 812.98,-210.9 720.56,-188.07 662.9,-179.95"/>
<polygon fill="#63b8ff" stroke="#63b8ff" points="663.28,-176.47 652.91,-178.64 662.37,-183.41 663.28,-176.47"/>
</a>
</g>
</g>
<!-- Node6 -->
<g id="Node000006" class="node">
<title>Node6</title>
<g id="a_Node000006"><a xlink:title=" ">
<polygon fill="#e0e0e0" stroke="#999999" points="781,-294 717,-294 717,-275 781,-275 781,-294"/>
<text text-anchor="middle" x="749" y="-282" font-family="Helvetica,sans-Serif" font-size="10.00">algorithm</text>
</a>
</g>
</g>
<!-- Node5&#45;&gt;Node6 -->
<g id="edge5_Node000005_Node000006" class="edge">
<title>Node5&#45;&gt;Node6</title>
<g id="a_edge5_Node000005_Node000006"><a xlink:title=" ">
<path fill="none" stroke="#63b8ff" d="M633.46,-384.85C646.51,-376.27 666.69,-362.48 683,-349 701.27,-333.9 720.64,-314.86 733.64,-301.58"/>
<polygon fill="#63b8ff" stroke="#63b8ff" points="736.39,-303.76 740.84,-294.15 731.37,-298.89 736.39,-303.76"/>
</a>
</g>
</g>
<!-- Node7 -->
<g id="Node000007" class="node">
<title>Node7</title>
<g id="a_Node000007"><a xlink:title=" ">
<polygon fill="#e0e0e0" stroke="#999999" points="778.5,-19 731.5,-19 731.5,0 778.5,0 778.5,-19"/>
<text text-anchor="middle" x="755" y="-7" font-family="Helvetica,sans-Serif" font-size="10.00">cmath</text>
</a>
</g>
</g>
<!-- Node5&#45;&gt;Node7 -->
<g id="edge6_Node000005_Node000007" class="edge">
<title>Node5&#45;&gt;Node7</title>
<g id="a_edge6_Node000005_Node000007"><a xlink:title=" ">
<path fill="none" stroke="#63b8ff" d="M684.21,-390C780.47,-380.91 951,-348.2 951,-230.5 951,-230.5 951,-230.5 951,-118.5 951,-45.32 844.89,-21.36 788.82,-13.81"/>
<polygon fill="#63b8ff" stroke="#63b8ff" points="789,-10.3 778.64,-12.54 788.13,-17.25 789,-10.3"/>
</a>
</g>
</g>
<!-- Node8 -->
<g id="Node000008" class="node">
<title>Node8</title>
<g id="a_Node000008"><a xlink:href="../../de/d81/APrimitive_8hpp.html" target="_top" xlink:title=" ">
<polygon fill="white" stroke="#666666" points="446.5,-294 333.5,-294 333.5,-275 446.5,-275 446.5,-294"/>
<text text-anchor="middle" x="390" y="-282" font-family="Helvetica,sans-Serif" font-size="10.00">core/APrimitive.hpp</text>
</a>
</g>
</g>
<!-- Node5&#45;&gt;Node8 -->
<g id="edge7_Node000005_Node000008" class="edge">
<title>Node5&#45;&gt;Node8</title>
<g id="a_edge7_Node000005_Node000008"><a xlink:title=" ">
<path fill="none" stroke="#63b8ff" d="M566.85,-384.94C534.79,-378.28 493.93,-367.05 461,-349 438.69,-336.78 417.56,-316.32 404.24,-301.93"/>
<polygon fill="#63b8ff" stroke="#63b8ff" points="406.65,-299.37 397.36,-294.27 401.44,-304.05 406.65,-299.37"/>
</a>
</g>
</g>
<!-- Node5&#45;&gt;Node9 -->
<g id="edge27_Node000005_Node000009" class="edge">
<title>Node5&#45;&gt;Node9</title>
<g id="a_edge27_Node000005_Node000009"><a xlink:title=" ">
<path fill="none" stroke="#63b8ff" d="M600.89,-385C572.04,-370.92 518.66,-339.73 499,-294 495.67,-286.24 495.19,-282.53 499,-275 511.2,-250.89 527.4,-256.48 548,-239 565.93,-223.78 585.02,-204.76 597.84,-191.52"/>
<polygon fill="#63b8ff" stroke="#63b8ff" points="600.55,-193.75 604.94,-184.11 595.49,-188.91 600.55,-193.75"/>
</a>
</g>
</g>
<!-- Node10 -->
<g id="Node000010" class="node">
<title>Node10</title>
<g id="a_Node000010"><a xlink:href="../../df/df2/Point3D_8hpp.html" target="_top" xlink:title="Defines a 3D point structure used in geometric computations.">
<polygon fill="white" stroke="#666666" points="793,-129 717,-129 717,-110 793,-110 793,-129"/>
<text text-anchor="middle" x="755" y="-117" font-family="Helvetica,sans-Serif" font-size="10.00">Point3D.hpp</text>
</a>
</g>
</g>
<!-- Node5&#45;&gt;Node10 -->
<g id="edge25_Node000005_Node000010" class="edge">
<title>Node5&#45;&gt;Node10</title>
<g id="a_edge25_Node000005_Node000010"><a xlink:title=" ">
<path fill="none" stroke="#63b8ff" d="M642.35,-384.85C699.99,-362.44 849.65,-303.56 856,-294 893.81,-237.03 814.37,-165.5 775.17,-135.17"/>
<polygon fill="#63b8ff" stroke="#63b8ff" points="777.12,-132.26 767.03,-129.02 772.9,-137.84 777.12,-132.26"/>
</a>
</g>
</g>
<!-- Node11 -->
<g id="Node000011" class="node">
<title>Node11</title>
<g id="a_Node000011"><a xlink:href="../../d3/dde/Vector3D_8hpp.html" target="_top" xlink:title="Defines a 3D vector structure with basic arithmetic and transformation operations.">
<polygon fill="white" stroke="#666666" points="462,-74 380,-74 380,-55 462,-55 462,-74"/>
<text text-anchor="middle" x="421" y="-62" font-family="Helvetica,sans-Serif" font-size="10.00">Vector3D.hpp</text>
</a>
</g>
</g>
<!-- Node5&#45;&gt;Node11 -->
<g id="edge26_Node000005_Node000011" class="edge">
<title>Node5&#45;&gt;Node11</title>
<g id="a_edge26_Node000005_Node000011"><a xlink:title=" ">
<path fill="none" stroke="#63b8ff" d="M555.91,-390.47C437.19,-383.11 195,-359.06 195,-285.5 195,-285.5 195,-285.5 195,-173.5 195,-96.62 302.78,-74.42 369.48,-68.04"/>
<polygon fill="#63b8ff" stroke="#63b8ff" points="370.15,-71.5 379.81,-67.15 369.55,-64.52 370.15,-71.5"/>
</a>
</g>
</g>
<!-- Node13 -->
<g id="Node000013" class="node">
<title>Node13</title>
<g id="a_Node000013"><a xlink:href="../../d0/d70/Material_8hpp.html" target="_top" xlink:title="Declares the physically&#45;based material descriptor used by the renderer.">
<polygon fill="white" stroke="#666666" points="167,-239 39,-239 39,-220 167,-220 167,-239"/>
<text text-anchor="middle" x="103" y="-227" font-family="Helvetica,sans-Serif" font-size="10.00">rendering/Material.hpp</text>
</a>
</g>
</g>
<!-- Node5&#45;&gt;Node13 -->
<g id="edge28_Node000005_Node000013" class="edge">
<title>Node5&#45;&gt;Node13</title>
<g id="a_edge28_Node000005_Node000013"><a xlink:title=" ">
<path fill="none" stroke="#63b8ff" d="M555.72,-393.64C449.37,-392.79 242.42,-386.22 181,-349 142.69,-325.79 119.45,-275.75 109.2,-248.72"/>
<polygon fill="#63b8ff" stroke="#63b8ff" points="112.48,-247.51 105.8,-239.29 105.9,-249.88 112.48,-247.51"/>
</a>
</g>
</g>
<!-- Node17 -->
<g id="Node000017" class="node">
<title>Node17</title>
<g id="a_Node000017"><a xlink:href="../../d9/dad/BVH_8hpp.html" target="_top" xlink:title="Declares the axis&#45;aligned bounding box (AABB) and the BVH node used for ray&#45;tracing acceleration.">
<polygon fill="white" stroke="#666666" points="674,-349 566,-349 566,-330 674,-330 674,-349"/>
<text text-anchor="middle" x="620" y="-337" font-family="Helvetica,sans-Serif" font-size="10.00">rendering/BVH.hpp</text>
</a>
</g>
</g>
<!-- Node5&#45;&gt;Node17 -->
<g id="edge29_Node000005_Node000017" class="edge">
<title>Node5&#45;&gt;Node17</title>
<g id="a_edge29_Node000005_Node000017"><a xlink:title=" ">
<path fill="none" stroke="#63b8ff" d="M620,-384.75C620,-377.8 620,-367.85 620,-359.13"/>
<polygon fill="#63b8ff" stroke="#63b8ff" points="623.5,-359.09 620,-349.09 616.5,-359.09 623.5,-359.09"/>
</a>
</g>
</g>
<!-- Node8&#45;&gt;Node9 -->
<g id="edge8_Node000008_Node000009" class="edge">
<title>Node8&#45;&gt;Node9</title>
<g id="a_edge8_Node000008_Node000009"><a xlink:title=" ">
<path fill="none" stroke="#63b8ff" d="M421.68,-274.94C448.15,-267.22 486.51,-254.67 518,-239 545.93,-225.1 575.4,-204.31 593.97,-190.35"/>
<polygon fill="#63b8ff" stroke="#63b8ff" points="596.33,-192.95 602.16,-184.1 592.09,-187.38 596.33,-192.95"/>
</a>
</g>
</g>
<!-- Node8&#45;&gt;Node10 -->
<g id="edge14_Node000008_Node000010" class="edge">
<title>Node8&#45;&gt;Node10</title>
<g id="a_edge14_Node000008_Node000010"><a xlink:title=" ">
<path fill="none" stroke="#63b8ff" d="M391.41,-274.97C395.66,-252.35 410.63,-190.78 451,-165 492.49,-138.51 632.17,-127.08 706.89,-122.77"/>
<polygon fill="#63b8ff" stroke="#63b8ff" points="707.2,-126.26 716.99,-122.21 706.81,-119.27 707.2,-126.26"/>
</a>
</g>
</g>
<!-- Node8&#45;&gt;Node11 -->
<g id="edge16_Node000008_Node000011" class="edge">
<title>Node8&#45;&gt;Node11</title>
<g id="a_edge16_Node000008_Node000011"><a xlink:title=" ">
<path fill="none" stroke="#63b8ff" d="M390.83,-274.86C392.03,-262.63 394.4,-239.57 397,-220 403.53,-170.83 412.96,-113.13 417.83,-84.13"/>
<polygon fill="#63b8ff" stroke="#63b8ff" points="421.3,-84.64 419.51,-74.19 414.39,-83.47 421.3,-84.64"/>
</a>
</g>
</g>
<!-- Node12 -->
<g id="Node000012" class="node">
<title>Node12</title>
<g id="a_Node000012"><a xlink:href="../../d8/d1e/Vector2D_8hpp.html" target="_top" xlink:title="Defines a 2D vector structure used for texture coordinates or screen&#45;space math operations.">
<polygon fill="white" stroke="#666666" points="329,-239 223,-239 223,-220 329,-220 329,-239"/>
<text text-anchor="middle" x="276" y="-227" font-family="Helvetica,sans-Serif" font-size="10.00">core/Vector2D.hpp</text>
</a>
</g>
</g>
<!-- Node8&#45;&gt;Node12 -->
<g id="edge15_Node000008_Node000012" class="edge">
<title>Node8&#45;&gt;Node12</title>
<g id="a_edge15_Node000008_Node000012"><a xlink:title=" ">
<path fill="none" stroke="#63b8ff" d="M371.68,-274.98C353.34,-266.46 324.89,-253.23 303.77,-243.41"/>
<polygon fill="#63b8ff" stroke="#63b8ff" points="305.19,-240.21 294.65,-239.17 302.24,-246.56 305.19,-240.21"/>
</a>
</g>
</g>
<!-- Node8&#45;&gt;Node13 -->
<g id="edge17_Node000008_Node000013" class="edge">
<title>Node8&#45;&gt;Node13</title>
<g id="a_edge17_Node000008_Node000013"><a xlink:title=" ">
<path fill="none" stroke="#63b8ff" d="M343.89,-274.98C293.72,-265.72 213.49,-250.9 159.56,-240.94"/>
<polygon fill="#63b8ff" stroke="#63b8ff" points="159.94,-237.46 149.47,-239.08 158.67,-244.34 159.94,-237.46"/>
</a>
</g>
</g>
<!-- Node16 -->
<g id="Node000016" class="node">
<title>Node16</title>
<g id="a_Node000016"><a xlink:href="../../d0/d38/IPrimitive_8hpp.html" target="_top" xlink:title="Interface for geometric primitives in the raytracer.">
<polygon fill="white" stroke="#666666" points="508.5,-239 423.5,-239 423.5,-220 508.5,-220 508.5,-239"/>
<text text-anchor="middle" x="466" y="-227" font-family="Helvetica,sans-Serif" font-size="10.00">IPrimitive.hpp</text>
</a>
</g>
</g>
<!-- Node8&#45;&gt;Node16 -->
<g id="edge23_Node000008_Node000016" class="edge">
<title>Node8&#45;&gt;Node16</title>
<g id="a_edge23_Node000008_Node000016"><a xlink:title=" ">
<path fill="none" stroke="#63b8ff" d="M402.21,-274.98C413.78,-266.92 431.38,-254.65 445.16,-245.03"/>
<polygon fill="#63b8ff" stroke="#63b8ff" points="447.37,-247.76 453.57,-239.17 443.36,-242.02 447.37,-247.76"/>
</a>
</g>
</g>
<!-- Node9&#45;&gt;Node10 -->
<g id="edge9_Node000009_Node000010" class="edge">
<title>Node9&#45;&gt;Node10</title>
<g id="a_edge9_Node000009_Node000010"><a xlink:title=" ">
<path fill="none" stroke="#63b8ff" d="M635.81,-164.98C659.17,-156.27 695.7,-142.63 722.17,-132.75"/>
<polygon fill="#63b8ff" stroke="#63b8ff" points="723.63,-135.95 731.77,-129.17 721.18,-129.39 723.63,-135.95"/>
</a>
</g>
</g>
<!-- Node9&#45;&gt;Node11 -->
<g id="edge13_Node000009_Node000011" class="edge">
<title>Node9&#45;&gt;Node11</title>
<g id="a_edge13_Node000009_Node000011"><a xlink:title=" ">
<path fill="none" stroke="#63b8ff" d="M597.61,-164.84C564.25,-146.08 485.04,-101.52 445.02,-79.01"/>
<polygon fill="#63b8ff" stroke="#63b8ff" points="446.63,-75.9 436.19,-74.05 443.19,-82 446.63,-75.9"/>
</a>
</g>
</g>
<!-- Node10&#45;&gt;Node7 -->
<g id="edge12_Node000010_Node000007" class="edge">
<title>Node10&#45;&gt;Node7</title>
<g id="a_edge12_Node000010_Node000007"><a xlink:title=" ">
<path fill="none" stroke="#63b8ff" d="M755,-109.66C755,-92.17 755,-52.8 755,-29.27"/>
<polygon fill="#63b8ff" stroke="#63b8ff" points="758.5,-29.16 755,-19.16 751.5,-29.16 758.5,-29.16"/>
</a>
</g>
</g>
<!-- Node10&#45;&gt;Node11 -->
<g id="edge10_Node000010_Node000011" class="edge">
<title>Node10&#45;&gt;Node11</title>
<g id="a_edge10_Node000010_Node000011"><a xlink:title=" ">
<path fill="none" stroke="#63b8ff" d="M716.95,-112.26C712.25,-111.49 707.52,-110.73 703,-110 622.38,-97.05 528.73,-82.34 472.22,-73.5"/>
<polygon fill="#63b8ff" stroke="#63b8ff" points="472.53,-70 462.11,-71.91 471.45,-76.92 472.53,-70"/>
</a>
</g>
</g>
<!-- Node11&#45;&gt;Node7 -->
<g id="edge11_Node000011_Node000007" class="edge">
<title>Node11&#45;&gt;Node7</title>
<g id="a_edge11_Node000011_Node000007"><a xlink:title=" ">
<path fill="none" stroke="#63b8ff" d="M462.29,-56.95C529.11,-46.34 659.67,-25.63 721.28,-15.85"/>
<polygon fill="#63b8ff" stroke="#63b8ff" points="721.93,-19.29 731.25,-14.27 720.83,-12.38 721.93,-19.29"/>
</a>
</g>
</g>
<!-- Node13&#45;&gt;Node2 -->
<g id="edge18_Node000013_Node000002" class="edge">
<title>Node13&#45;&gt;Node2</title>
<g id="a_edge18_Node000013_Node000002"><a xlink:title=" ">
<path fill="none" stroke="#63b8ff" d="M89.99,-219.98C77.54,-211.84 58.54,-199.41 43.79,-189.76"/>
<polygon fill="#63b8ff" stroke="#63b8ff" points="45.54,-186.72 35.25,-184.17 41.7,-192.57 45.54,-186.72"/>
</a>
</g>
</g>
<!-- Node13&#45;&gt;Node11 -->
<g id="edge20_Node000013_Node000011" class="edge">
<title>Node13&#45;&gt;Node11</title>
<g id="a_edge20_Node000013_Node000011"><a xlink:title=" ">
<path fill="none" stroke="#63b8ff" d="M105.93,-219.92C113.98,-197.69 138.73,-138.06 181,-110 211.29,-89.9 308.78,-76.75 369.79,-70.27"/>
<polygon fill="#63b8ff" stroke="#63b8ff" points="370.41,-73.72 379.99,-69.21 369.69,-66.76 370.41,-73.72"/>
</a>
</g>
</g>
<!-- Node14 -->
<g id="Node000014" class="node">
<title>Node14</title>
<g id="a_Node000014"><a xlink:title=" ">
<polygon fill="#e0e0e0" stroke="#999999" points="518,-184 460,-184 460,-165 518,-165 518,-184"/>
<text text-anchor="middle" x="489" y="-172" font-family="Helvetica,sans-Serif" font-size="10.00">memory</text>
</a>
</g>
</g>
<!-- Node13&#45;&gt;Node14 -->
<g id="edge19_Node000013_Node000014" class="edge">
<title>Node13&#45;&gt;Node14</title>
<g id="a_edge19_Node000013_Node000014"><a xlink:title=" ">
<path fill="none" stroke="#63b8ff" d="M165.02,-219.98C245.12,-208.99 382.23,-190.16 449.47,-180.93"/>
<polygon fill="#63b8ff" stroke="#63b8ff" points="450.21,-184.36 459.64,-179.53 449.26,-177.42 450.21,-184.36"/>
</a>
</g>
</g>
<!-- Node15 -->
<g id="Node000015" class="node">
<title>Node15</title>
<g id="a_Node000015"><a xlink:href="../../d0/ddc/Texture_8hpp.html" target="_top" xlink:title="Declares the abstract base class for all 2&#45;D textures. (Solid colour, checkerboard,...">
<polygon fill="white" stroke="#666666" points="128.5,-129 5.5,-129 5.5,-110 128.5,-110 128.5,-129"/>
<text text-anchor="middle" x="67" y="-117" font-family="Helvetica,sans-Serif" font-size="10.00">rendering/Texture.hpp</text>
</a>
</g>
</g>
<!-- Node13&#45;&gt;Node15 -->
<g id="edge21_Node000013_Node000015" class="edge">
<title>Node13&#45;&gt;Node15</title>
<g id="a_edge21_Node000013_Node000015"><a xlink:title=" ">
<path fill="none" stroke="#63b8ff" d="M100.05,-219.66C94.2,-202.09 80.98,-162.45 73.15,-138.95"/>
<polygon fill="#63b8ff" stroke="#63b8ff" points="76.37,-137.54 69.89,-129.16 69.73,-139.75 76.37,-137.54"/>
</a>
</g>
</g>
<!-- Node15&#45;&gt;Node11 -->
<g id="edge22_Node000015_Node000011" class="edge">
<title>Node15&#45;&gt;Node11</title>
<g id="a_edge22_Node000015_Node000011"><a xlink:title=" ">
<path fill="none" stroke="#63b8ff" d="M123.88,-109.98C191.78,-99.82 304.33,-82.97 369.68,-73.18"/>
<polygon fill="#63b8ff" stroke="#63b8ff" points="370.38,-76.62 379.75,-71.68 369.34,-69.7 370.38,-76.62"/>
</a>
</g>
</g>
<!-- Node16&#45;&gt;Node9 -->
<g id="edge24_Node000016_Node000009" class="edge">
<title>Node16&#45;&gt;Node9</title>
<g id="a_edge24_Node000016_Node000009"><a xlink:title=" ">
<path fill="none" stroke="#63b8ff" d="M489.62,-219.98C513.9,-211.23 551.95,-197.51 579.37,-187.62"/>
<polygon fill="#63b8ff" stroke="#63b8ff" points="580.73,-190.85 588.95,-184.17 578.36,-184.27 580.73,-190.85"/>
</a>
</g>
</g>
<!-- Node17&#45;&gt;Node4 -->
<g id="edge31_Node000017_Node000004" class="edge">
<title>Node17&#45;&gt;Node4</title>
<g id="a_edge31_Node000017_Node000004"><a xlink:title=" ">
<path fill="none" stroke="#63b8ff" d="M652.62,-329.98C690.11,-320.2 751.35,-304.21 789.3,-294.3"/>
<polygon fill="#63b8ff" stroke="#63b8ff" points="790.55,-297.59 799.34,-291.68 788.78,-290.82 790.55,-297.59"/>
</a>
</g>
</g>
<!-- Node17&#45;&gt;Node6 -->
<g id="edge32_Node000017_Node000006" class="edge">
<title>Node17&#45;&gt;Node6</title>
<g id="a_edge32_Node000017_Node000006"><a xlink:title=" ">
<path fill="none" stroke="#63b8ff" d="M640.73,-329.98C661.76,-321.34 694.55,-307.87 718.54,-298.02"/>
<polygon fill="#63b8ff" stroke="#63b8ff" points="719.98,-301.21 727.9,-294.17 717.32,-294.73 719.98,-301.21"/>
</a>
</g>
</g>
<!-- Node17&#45;&gt;Node8 -->
<g id="edge35_Node000017_Node000008" class="edge">
<title>Node17&#45;&gt;Node8</title>
<g id="a_edge35_Node000017_Node000008"><a xlink:title=" ">
<path fill="none" stroke="#63b8ff" d="M583.05,-329.98C543.43,-320.86 480.41,-306.33 437.23,-296.38"/>
<polygon fill="#63b8ff" stroke="#63b8ff" points="437.77,-292.92 427.24,-294.08 436.2,-299.74 437.77,-292.92"/>
</a>
</g>
</g>
<!-- Node17&#45;&gt;Node9 -->
<g id="edge34_Node000017_Node000009" class="edge">
<title>Node17&#45;&gt;Node9</title>
<g id="a_edge34_Node000017_Node000009"><a xlink:title=" ">
<path fill="none" stroke="#63b8ff" d="M621.76,-329.82C625.47,-310.15 633.26,-260.74 627,-220 625.65,-211.19 622.87,-201.74 620.15,-193.82"/>
<polygon fill="#63b8ff" stroke="#63b8ff" points="623.34,-192.35 616.6,-184.18 616.77,-194.77 623.34,-192.35"/>
</a>
</g>
</g>
<!-- Node17&#45;&gt;Node10 -->
<g id="edge36_Node000017_Node000010" class="edge">
<title>Node17&#45;&gt;Node10</title>
<g id="a_edge36_Node000017_Node000010"><a xlink:title=" ">
<path fill="none" stroke="#63b8ff" d="M628.71,-329.84C644.94,-313.33 680.26,-275.72 703,-239 723.61,-205.7 740.26,-162.81 748.79,-138.83"/>
<polygon fill="#63b8ff" stroke="#63b8ff" points="752.15,-139.84 752.12,-129.24 745.53,-137.54 752.15,-139.84"/>
</a>
</g>
</g>
<!-- Node17&#45;&gt;Node11 -->
<g id="edge37_Node000017_Node000011" class="edge">
<title>Node17&#45;&gt;Node11</title>
<g id="a_edge37_Node000017_Node000011"><a xlink:title=" ">
<path fill="none" stroke="#63b8ff" d="M587.13,-329.96C556.65,-320.2 517.95,-301.99 532,-275 548.28,-243.72 645.72,-215.28 662,-184 665.9,-176.51 666.67,-172.03 662,-165 619.92,-101.7 529.36,-78.63 472.02,-70.25"/>
<polygon fill="#63b8ff" stroke="#63b8ff" points="472.44,-66.78 462.06,-68.89 471.5,-73.71 472.44,-66.78"/>
</a>
</g>
</g>
<!-- Node17&#45;&gt;Node14 -->
<g id="edge30_Node000017_Node000014" class="edge">
<title>Node17&#45;&gt;Node14</title>
<g id="a_edge30_Node000017_Node000014"><a xlink:title=" ">
<path fill="none" stroke="#63b8ff" d="M617.69,-329.71C614.05,-316.9 606.12,-292.69 594,-275 570.09,-240.09 532.18,-208.03 509.04,-190.2"/>
<polygon fill="#63b8ff" stroke="#63b8ff" points="511.05,-187.32 500.96,-184.08 506.82,-192.91 511.05,-187.32"/>
</a>
</g>
</g>
<!-- Node18 -->
<g id="Node000018" class="node">
<title>Node18</title>
<g id="a_Node000018"><a xlink:title=" ">
<polygon fill="#e0e0e0" stroke="#999999" points="585,-294 541,-294 541,-275 585,-275 585,-294"/>
<text text-anchor="middle" x="563" y="-282" font-family="Helvetica,sans-Serif" font-size="10.00">limits</text>
</a>
</g>
</g>
<!-- Node17&#45;&gt;Node18 -->
<g id="edge33_Node000017_Node000018" class="edge">
<title>Node17&#45;&gt;Node18</title>
<g id="a_edge33_Node000017_Node000018"><a xlink:title=" ">
<path fill="none" stroke="#63b8ff" d="M610.84,-329.98C602.5,-322.23 589.97,-310.58 579.82,-301.14"/>
<polygon fill="#63b8ff" stroke="#63b8ff" points="582.03,-298.42 572.32,-294.17 577.26,-303.54 582.03,-298.42"/>
</a>
</g>
</g>
</g>
</svg>
