<?xml version="1.0" encoding="UTF-8" standalone="no"?>
<!DOCTYPE svg PUBLIC "-//W3C//DTD SVG 1.1//EN"
 "http://www.w3.org/Graphics/SVG/1.1/DTD/svg11.dtd">
<!-- Generated by graphviz version 2.43.0 (0)
 -->
<!-- Title: src/primitives/Rectangle.cpp Pages: 1 -->
<svg width="175pt" height="258pt"
 viewBox="0.00 0.00 174.50 258.00" xmlns="http://www.w3.org/2000/svg" xmlns:xlink="http://www.w3.org/1999/xlink">
<g id="graph0" class="graph" transform="scale(1 1) rotate(0) translate(4 254)">
<title>src/primitives/Rectangle.cpp</title>
<!-- Node1 -->
<g id="Node000001" class="node">
<title>Node1</title>
<g id="a_Node000001"><a xlink:title=" ">
<polygon fill="#999999" stroke="#666666" points="155,-250 0,-250 0,-231 155,-231 155,-250"/>
<text text-anchor="middle" x="77.5" y="-238" font-family="Helvetica,sans-Serif" font-size="10.00">src/primitives/Rectangle.cpp</text>
</a>
</g>
</g>
<!-- Node2 -->
<g id="Node000002" class="node">
<title>Node2</title>
<g id="a_Node000002"><a xlink:href="../../d7/dc8/Rectangle_8hpp.html" target="_top" xlink:title=" ">
<polygon fill="white" stroke="#666666" points="138.5,-195 16.5,-195 16.5,-165 138.5,-165 138.5,-195"/>
<text text-anchor="start" x="24.5" y="-183" font-family="Helvetica,sans-Serif" font-size="10.00">../../include/primitives</text>
<text text-anchor="middle" x="77.5" y="-172" font-family="Helvetica,sans-Serif" font-size="10.00">/Rectangle.hpp</text>
</a>
</g>
</g>
<!-- Node1&#45;&gt;Node2 -->
<g id="edge1_Node000001_Node000002" class="edge">
<title>Node1&#45;&gt;Node2</title>
<g id="a_edge1_Node000001_Node000002"><a xlink:title=" ">
<path fill="none" stroke="#63b8ff" d="M77.5,-230.87C77.5,-224.11 77.5,-214.35 77.5,-205.26"/>
<polygon fill="#63b8ff" stroke="#63b8ff" points="81,-205.11 77.5,-195.11 74,-205.11 81,-205.11"/>
</a>
</g>
</g>
<!-- Node3 -->
<g id="Node000003" class="node">
<title>Node3</title>
<g id="a_Node000003"><a xlink:href="../../df/df2/Point3D_8hpp.html" target="_top" xlink:title="Defines a 3D point structure used in geometric computations.">
<polygon fill="white" stroke="#666666" points="166.5,-129 66.5,-129 66.5,-110 166.5,-110 166.5,-129"/>
<text text-anchor="middle" x="116.5" y="-117" font-family="Helvetica,sans-Serif" font-size="10.00">core/Point3D.hpp</text>
</a>
</g>
</g>
<!-- Node2&#45;&gt;Node3 -->
<g id="edge2_Node000002_Node000003" class="edge">
<title>Node2&#45;&gt;Node3</title>
<g id="a_edge2_Node000002_Node000003"><a xlink:title=" ">
<path fill="none" stroke="#63b8ff" d="M86.94,-164.84C92.37,-156.69 99.23,-146.4 104.98,-137.78"/>
<polygon fill="#63b8ff" stroke="#63b8ff" points="108.02,-139.53 110.66,-129.27 102.2,-135.65 108.02,-139.53"/>
</a>
</g>
</g>
<!-- Node4 -->
<g id="Node000004" class="node">
<title>Node4</title>
<g id="a_Node000004"><a xlink:href="../../d3/dde/Vector3D_8hpp.html" target="_top" xlink:title="Defines a 3D vector structure with basic arithmetic and transformation operations.">
<polygon fill="white" stroke="#666666" points="88.5,-74 6.5,-74 6.5,-55 88.5,-55 88.5,-74"/>
<text text-anchor="middle" x="47.5" y="-62" font-family="Helvetica,sans-Serif" font-size="10.00">Vector3D.hpp</text>
</a>
</g>
</g>
<!-- Node2&#45;&gt;Node4 -->
<g id="edge6_Node000002_Node000004" class="edge">
<title>Node2&#45;&gt;Node4</title>
<g id="a_edge6_Node000002_Node000004"><a xlink:title=" ">
<path fill="none" stroke="#63b8ff" d="M70.85,-164.85C66.47,-155 60.92,-141.44 57.5,-129 53.47,-114.34 50.89,-97.29 49.37,-84.55"/>
<polygon fill="#63b8ff" stroke="#63b8ff" points="52.81,-83.82 48.25,-74.26 45.85,-84.58 52.81,-83.82"/>
</a>
</g>
</g>
<!-- Node3&#45;&gt;Node4 -->
<g id="edge3_Node000003_Node000004" class="edge">
<title>Node3&#45;&gt;Node4</title>
<g id="a_edge3_Node000003_Node000004"><a xlink:title=" ">
<path fill="none" stroke="#63b8ff" d="M105.41,-109.98C95.01,-102 79.24,-89.88 66.78,-80.31"/>
<polygon fill="#63b8ff" stroke="#63b8ff" points="68.85,-77.49 58.79,-74.17 64.59,-83.04 68.85,-77.49"/>
</a>
</g>
</g>
<!-- Node5 -->
<g id="Node000005" class="node">
<title>Node5</title>
<g id="a_Node000005"><a xlink:title=" ">
<polygon fill="#e0e0e0" stroke="#999999" points="105,-19 58,-19 58,0 105,0 105,-19"/>
<text text-anchor="middle" x="81.5" y="-7" font-family="Helvetica,sans-Serif" font-size="10.00">cmath</text>
</a>
</g>
</g>
<!-- Node3&#45;&gt;Node5 -->
<g id="edge5_Node000003_Node000005" class="edge">
<title>Node3&#45;&gt;Node5</title>
<g id="a_edge5_Node000003_Node000005"><a xlink:title=" ">
<path fill="none" stroke="#63b8ff" d="M114.07,-109.83C110.59,-97.56 103.9,-74.46 97.5,-55 94.64,-46.32 91.25,-36.79 88.32,-28.77"/>
<polygon fill="#63b8ff" stroke="#63b8ff" points="91.58,-27.48 84.83,-19.32 85.01,-29.91 91.58,-27.48"/>
</a>
</g>
</g>
<!-- Node4&#45;&gt;Node5 -->
<g id="edge4_Node000004_Node000005" class="edge">
<title>Node4&#45;&gt;Node5</title>
<g id="a_edge4_Node000004_Node000005"><a xlink:title=" ">
<path fill="none" stroke="#63b8ff" d="M53.11,-54.75C57.82,-47.42 64.67,-36.73 70.47,-27.7"/>
<polygon fill="#63b8ff" stroke="#63b8ff" points="73.54,-29.4 75.99,-19.09 67.64,-25.62 73.54,-29.4"/>
</a>
</g>
</g>
</g>
</svg>
