<?xml version="1.0" encoding="UTF-8" standalone="no"?>
<!DOCTYPE svg PUBLIC "-//W3C//DTD SVG 1.1//EN"
 "http://www.w3.org/Graphics/SVG/1.1/DTD/svg11.dtd">
<!-- Generated by graphviz version 2.43.0 (0)
 -->
<!-- Title: ParsePlanes Pages: 1 -->
<svg width="497pt" height="140pt"
 viewBox="0.00 0.00 497.00 140.00" xmlns="http://www.w3.org/2000/svg" xmlns:xlink="http://www.w3.org/1999/xlink">
<g id="graph0" class="graph" transform="scale(1 1) rotate(0) translate(4 136)">
<title>ParsePlanes</title>
<!-- Node1 -->
<g id="Node000001" class="node">
<title>Node1</title>
<g id="a_Node000001"><a xlink:title=" ">
<polygon fill="#999999" stroke="#666666" points="75,-76 0,-76 0,-57 75,-57 75,-76"/>
<text text-anchor="middle" x="37.5" y="-64" font-family="Helvetica,sans-Serif" font-size="10.00">ParsePlanes</text>
</a>
</g>
</g>
<!-- Node2 -->
<g id="Node000002" class="node">
<title>Node2</title>
<g id="a_Node000002"><a xlink:href="../../dc/d25/classRayTracer_1_1Scene.html#a596cfa5f2e69ddd8a341f3b10fdcf1b2" target="_top" xlink:title="Add a geometry object to the scene.">
<polygon fill="white" stroke="#666666" points="266,-132 111,-132 111,-113 266,-113 266,-132"/>
<text text-anchor="middle" x="188.5" y="-120" font-family="Helvetica,sans-Serif" font-size="10.00">RayTracer::Scene::addObject</text>
</a>
</g>
</g>
<!-- Node1&#45;&gt;Node2 -->
<g id="edge1_Node000001_Node000002" class="edge">
<title>Node1&#45;&gt;Node2</title>
<g id="a_edge1_Node000001_Node000002"><a xlink:title=" ">
<path fill="none" stroke="#63b8ff" d="M54.09,-76.15C68.42,-84.66 90.49,-96.85 111,-104.5 116.79,-106.66 122.92,-108.62 129.1,-110.38"/>
<polygon fill="#63b8ff" stroke="#63b8ff" points="128.23,-113.77 138.8,-112.98 130.05,-107.01 128.23,-113.77"/>
</a>
</g>
</g>
<!-- Node3 -->
<g id="Node000003" class="node">
<title>Node3</title>
<g id="a_Node000003"><a xlink:href="../../d3/d79/SceneParser_8cpp.html#aa782e54e3eee3a001fb792cc4026fb20" target="_top" xlink:title=" ">
<polygon fill="white" stroke="#666666" points="237.5,-95 139.5,-95 139.5,-76 237.5,-76 237.5,-95"/>
<text text-anchor="middle" x="188.5" y="-83" font-family="Helvetica,sans-Serif" font-size="10.00">ApplyTransforms</text>
</a>
</g>
</g>
<!-- Node1&#45;&gt;Node3 -->
<g id="edge2_Node000001_Node000003" class="edge">
<title>Node1&#45;&gt;Node3</title>
<g id="a_edge2_Node000001_Node000003"><a xlink:title=" ">
<path fill="none" stroke="#63b8ff" d="M75.33,-71.2C91.62,-73.27 111.17,-75.77 129.35,-78.08"/>
<polygon fill="#63b8ff" stroke="#63b8ff" points="128.92,-81.56 139.28,-79.35 129.8,-74.61 128.92,-81.56"/>
</a>
</g>
</g>
<!-- Node7 -->
<g id="Node000007" class="node">
<title>Node7</title>
<g id="a_Node000007"><a xlink:href="../../d3/d79/SceneParser_8cpp.html#a2f2fded85eeec23ebae4e1c2e9fe96aa" target="_top" xlink:title=" ">
<polygon fill="white" stroke="#666666" points="378.5,-20 309.5,-20 309.5,-1 378.5,-1 378.5,-20"/>
<text text-anchor="middle" x="344" y="-8" font-family="Helvetica,sans-Serif" font-size="10.00">parseColor</text>
</a>
</g>
</g>
<!-- Node1&#45;&gt;Node7 -->
<g id="edge6_Node000001_Node000007" class="edge">
<title>Node1&#45;&gt;Node7</title>
<g id="a_edge6_Node000001_Node000007"><a xlink:title=" ">
<path fill="none" stroke="#63b8ff" d="M75.24,-60.75C120.3,-53.58 198.95,-40.64 266,-27.5 276.9,-25.36 288.63,-22.87 299.57,-20.47"/>
<polygon fill="#63b8ff" stroke="#63b8ff" points="300.34,-23.88 309.34,-18.3 298.82,-17.05 300.34,-23.88"/>
</a>
</g>
</g>
<!-- Node9 -->
<g id="Node000009" class="node">
<title>Node9</title>
<g id="a_Node000009"><a xlink:href="../../d3/d79/SceneParser_8cpp.html#a8b7e43054abc89463b4746c81fe05f73" target="_top" xlink:title=" ">
<polygon fill="white" stroke="#666666" points="235,-19 142,-19 142,0 235,0 235,-19"/>
<text text-anchor="middle" x="188.5" y="-7" font-family="Helvetica,sans-Serif" font-size="10.00">resolveMaterial</text>
</a>
</g>
</g>
<!-- Node1&#45;&gt;Node9 -->
<g id="edge8_Node000001_Node000009" class="edge">
<title>Node1&#45;&gt;Node9</title>
<g id="a_edge8_Node000001_Node000009"><a xlink:title=" ">
<path fill="none" stroke="#63b8ff" d="M57.92,-56.87C72.36,-49.91 92.66,-40.52 111,-33.5 121.65,-29.42 133.32,-25.5 144.26,-22.05"/>
<polygon fill="#63b8ff" stroke="#63b8ff" points="145.54,-25.31 154.06,-19.02 143.47,-18.63 145.54,-25.31"/>
</a>
</g>
</g>
<!-- Node4 -->
<g id="Node000004" class="node">
<title>Node4</title>
<g id="a_Node000004"><a xlink:href="../../d3/d79/SceneParser_8cpp.html#ae3517631b63ce9e4328bc51373bf45a3" target="_top" xlink:title=" ">
<polygon fill="white" stroke="#666666" points="381,-132 307,-132 307,-113 381,-113 381,-132"/>
<text text-anchor="middle" x="344" y="-120" font-family="Helvetica,sans-Serif" font-size="10.00">ParseMatrix</text>
</a>
</g>
</g>
<!-- Node3&#45;&gt;Node4 -->
<g id="edge3_Node000003_Node000004" class="edge">
<title>Node3&#45;&gt;Node4</title>
<g id="a_edge3_Node000003_Node000004"><a xlink:title=" ">
<path fill="none" stroke="#63b8ff" d="M229.03,-95.03C249.74,-100.02 275.21,-106.16 296.82,-111.37"/>
<polygon fill="#63b8ff" stroke="#63b8ff" points="296.22,-114.82 306.76,-113.76 297.86,-108.02 296.22,-114.82"/>
</a>
</g>
</g>
<!-- Node5 -->
<g id="Node000005" class="node">
<title>Node5</title>
<g id="a_Node000005"><a xlink:href="../../d3/d79/SceneParser_8cpp.html#ab610c3a763bad5cb0f39e0d2f61a0c84" target="_top" xlink:title=" ">
<polygon fill="white" stroke="#666666" points="386,-95 302,-95 302,-76 386,-76 386,-95"/>
<text text-anchor="middle" x="344" y="-83" font-family="Helvetica,sans-Serif" font-size="10.00">ParseRotation</text>
</a>
</g>
</g>
<!-- Node3&#45;&gt;Node5 -->
<g id="edge4_Node000003_Node000005" class="edge">
<title>Node3&#45;&gt;Node5</title>
<g id="a_edge4_Node000003_Node000005"><a xlink:title=" ">
<path fill="none" stroke="#63b8ff" d="M237.65,-85.5C254.92,-85.5 274.45,-85.5 291.96,-85.5"/>
<polygon fill="#63b8ff" stroke="#63b8ff" points="292,-89 302,-85.5 292,-82 292,-89"/>
</a>
</g>
</g>
<!-- Node6 -->
<g id="Node000006" class="node">
<title>Node6</title>
<g id="a_Node000006"><a xlink:href="../../d3/d79/SceneParser_8cpp.html#a16ef5180e27cc191fa8b0948fef6446f" target="_top" xlink:title=" ">
<polygon fill="white" stroke="#666666" points="379.5,-58 308.5,-58 308.5,-39 379.5,-39 379.5,-58"/>
<text text-anchor="middle" x="344" y="-46" font-family="Helvetica,sans-Serif" font-size="10.00">ParseShear</text>
</a>
</g>
</g>
<!-- Node3&#45;&gt;Node6 -->
<g id="edge5_Node000003_Node000006" class="edge">
<title>Node3&#45;&gt;Node6</title>
<g id="a_edge5_Node000003_Node000006"><a xlink:title=" ">
<path fill="none" stroke="#63b8ff" d="M229.03,-75.97C250.29,-70.85 276.58,-64.51 298.55,-59.21"/>
<polygon fill="#63b8ff" stroke="#63b8ff" points="299.4,-62.61 308.31,-56.86 297.76,-55.8 299.4,-62.61"/>
</a>
</g>
</g>
<!-- Node8 -->
<g id="Node000008" class="node">
<title>Node8</title>
<g id="a_Node000008"><a xlink:href="../../d3/d79/SceneParser_8cpp.html#ab07eea3323845932b0e5c43bec9396d5" target="_top" xlink:title=" ">
<polygon fill="white" stroke="#666666" points="489,-20 422,-20 422,-1 489,-1 489,-20"/>
<text text-anchor="middle" x="455.5" y="-8" font-family="Helvetica,sans-Serif" font-size="10.00">parseVec3</text>
</a>
</g>
</g>
<!-- Node7&#45;&gt;Node8 -->
<g id="edge7_Node000007_Node000008" class="edge">
<title>Node7&#45;&gt;Node8</title>
<g id="a_edge7_Node000007_Node000008"><a xlink:title=" ">
<path fill="none" stroke="#63b8ff" d="M378.75,-10.5C389.13,-10.5 400.7,-10.5 411.61,-10.5"/>
<polygon fill="#63b8ff" stroke="#63b8ff" points="411.8,-14 421.8,-10.5 411.8,-7 411.8,-14"/>
</a>
</g>
</g>
<!-- Node9&#45;&gt;Node7 -->
<g id="edge9_Node000009_Node000007" class="edge">
<title>Node9&#45;&gt;Node7</title>
<g id="a_edge9_Node000009_Node000007"><a xlink:title=" ">
<path fill="none" stroke="#63b8ff" d="M235.14,-9.8C255.46,-9.93 279.28,-10.08 299.36,-10.22"/>
<polygon fill="#63b8ff" stroke="#63b8ff" points="299.46,-13.72 309.48,-10.28 299.5,-6.72 299.46,-13.72"/>
</a>
</g>
</g>
</g>
</svg>
