<?xml version="1.0" encoding="UTF-8" standalone="no"?>
<!DOCTYPE svg PUBLIC "-//W3C//DTD SVG 1.1//EN"
 "http://www.w3.org/Graphics/SVG/1.1/DTD/svg11.dtd">
<!-- Generated by graphviz version 2.43.0 (0)
 -->
<!-- Title: ParseBoxes Pages: 1 -->
<svg width="494pt" height="171pt"
 viewBox="0.00 0.00 494.00 171.20" xmlns="http://www.w3.org/2000/svg" xmlns:xlink="http://www.w3.org/1999/xlink">
<g id="graph0" class="graph" transform="scale(1 1) rotate(0) translate(4 167.2)">
<title>ParseBoxes</title>
<!-- Node1 -->
<g id="Node000001" class="node">
<title>Node1</title>
<g id="a_Node000001"><a xlink:title=" ">
<polygon fill="#999999" stroke="#666666" points="72,-88.2 0,-88.2 0,-69.2 72,-69.2 72,-88.2"/>
<text text-anchor="middle" x="36" y="-76.2" font-family="Helvetica,sans-Serif" font-size="10.00">ParseBoxes</text>
</a>
</g>
</g>
<!-- Node2 -->
<g id="Node000002" class="node">
<title>Node2</title>
<g id="a_Node000002"><a xlink:href="../../dc/d25/classRayTracer_1_1Scene.html#a596cfa5f2e69ddd8a341f3b10fdcf1b2" target="_top" xlink:title="Add a geometry object to the scene.">
<polygon fill="white" stroke="#666666" points="263,-163.2 108,-163.2 108,-144.2 263,-144.2 263,-163.2"/>
<text text-anchor="middle" x="185.5" y="-151.2" font-family="Helvetica,sans-Serif" font-size="10.00">RayTracer::Scene::addObject</text>
</a>
</g>
</g>
<!-- Node1&#45;&gt;Node2 -->
<g id="edge1_Node000001_Node000002" class="edge">
<title>Node1&#45;&gt;Node2</title>
<g id="a_edge1_Node000001_Node000002"><a xlink:title=" ">
<path fill="none" stroke="#63b8ff" d="M46.14,-88.35C58.81,-101.14 82.99,-123.51 108,-135.7 112.04,-137.67 116.31,-139.44 120.68,-141.01"/>
<polygon fill="#63b8ff" stroke="#63b8ff" points="119.77,-144.39 130.36,-144.16 121.94,-137.74 119.77,-144.39"/>
</a>
</g>
</g>
<!-- Node3 -->
<g id="Node000003" class="node">
<title>Node3</title>
<g id="a_Node000003"><a xlink:href="../../d3/d79/SceneParser_8cpp.html#aa782e54e3eee3a001fb792cc4026fb20" target="_top" xlink:title=" ">
<polygon fill="white" stroke="#666666" points="234.5,-126.2 136.5,-126.2 136.5,-107.2 234.5,-107.2 234.5,-126.2"/>
<text text-anchor="middle" x="185.5" y="-114.2" font-family="Helvetica,sans-Serif" font-size="10.00">ApplyTransforms</text>
</a>
</g>
</g>
<!-- Node1&#45;&gt;Node3 -->
<g id="edge2_Node000001_Node000003" class="edge">
<title>Node1&#45;&gt;Node3</title>
<g id="a_edge2_Node000001_Node000003"><a xlink:title=" ">
<path fill="none" stroke="#63b8ff" d="M72.33,-87.81C91.9,-92.85 116.48,-99.18 137.64,-104.63"/>
<polygon fill="#63b8ff" stroke="#63b8ff" points="136.84,-108.04 147.4,-107.15 138.59,-101.26 136.84,-108.04"/>
</a>
</g>
</g>
<!-- Node7 -->
<g id="Node000007" class="node">
<title>Node7</title>
<g id="a_Node000007"><a xlink:href="../../d3/d79/SceneParser_8cpp.html#a2f2fded85eeec23ebae4e1c2e9fe96aa" target="_top" xlink:title=" ">
<polygon fill="white" stroke="#666666" points="375.5,-50.2 306.5,-50.2 306.5,-31.2 375.5,-31.2 375.5,-50.2"/>
<text text-anchor="middle" x="341" y="-38.2" font-family="Helvetica,sans-Serif" font-size="10.00">parseColor</text>
</a>
</g>
</g>
<!-- Node1&#45;&gt;Node7 -->
<g id="edge6_Node000001_Node000007" class="edge">
<title>Node1&#45;&gt;Node7</title>
<g id="a_edge6_Node000001_Node000007"><a xlink:title=" ">
<path fill="none" stroke="#63b8ff" d="M72.06,-77.47C116.66,-75.52 195.98,-70.72 263,-59.7 273.81,-57.93 285.34,-55.42 296.1,-52.81"/>
<polygon fill="#63b8ff" stroke="#63b8ff" points="297.28,-56.12 306.12,-50.29 295.57,-49.33 297.28,-56.12"/>
</a>
</g>
</g>
<!-- Node8 -->
<g id="Node000008" class="node">
<title>Node8</title>
<g id="a_Node000008"><a xlink:href="../../d3/d79/SceneParser_8cpp.html#ab07eea3323845932b0e5c43bec9396d5" target="_top" xlink:title=" ">
<polygon fill="white" stroke="#666666" points="486,-31.2 419,-31.2 419,-12.2 486,-12.2 486,-31.2"/>
<text text-anchor="middle" x="452.5" y="-19.2" font-family="Helvetica,sans-Serif" font-size="10.00">parseVec3</text>
</a>
</g>
</g>
<!-- Node1&#45;&gt;Node8 -->
<g id="edge8_Node000001_Node000008" class="edge">
<title>Node1&#45;&gt;Node8</title>
<g id="a_edge8_Node000001_Node000008"><a xlink:title=" ">
<path fill="none" stroke="#63b8ff" d="M45.41,-68.84C57.59,-55.38 81.61,-31.9 108,-22.7 210.9,13.16 341.91,-1.66 408.47,-13.09"/>
<polygon fill="#63b8ff" stroke="#63b8ff" points="408.13,-16.58 418.59,-14.88 409.36,-9.69 408.13,-16.58"/>
</a>
</g>
</g>
<!-- Node9 -->
<g id="Node000009" class="node">
<title>Node9</title>
<g id="a_Node000009"><a xlink:href="../../d3/d79/SceneParser_8cpp.html#a8b7e43054abc89463b4746c81fe05f73" target="_top" xlink:title=" ">
<polygon fill="white" stroke="#666666" points="232,-50.2 139,-50.2 139,-31.2 232,-31.2 232,-50.2"/>
<text text-anchor="middle" x="185.5" y="-38.2" font-family="Helvetica,sans-Serif" font-size="10.00">resolveMaterial</text>
</a>
</g>
</g>
<!-- Node1&#45;&gt;Node9 -->
<g id="edge9_Node000001_Node000009" class="edge">
<title>Node1&#45;&gt;Node9</title>
<g id="a_edge9_Node000001_Node000009"><a xlink:title=" ">
<path fill="none" stroke="#63b8ff" d="M72.33,-69.6C91.9,-64.56 116.48,-58.23 137.64,-52.78"/>
<polygon fill="#63b8ff" stroke="#63b8ff" points="138.59,-56.15 147.4,-50.26 136.84,-49.37 138.59,-56.15"/>
</a>
</g>
</g>
<!-- Node4 -->
<g id="Node000004" class="node">
<title>Node4</title>
<g id="a_Node000004"><a xlink:href="../../d3/d79/SceneParser_8cpp.html#ae3517631b63ce9e4328bc51373bf45a3" target="_top" xlink:title=" ">
<polygon fill="white" stroke="#666666" points="378,-163.2 304,-163.2 304,-144.2 378,-144.2 378,-163.2"/>
<text text-anchor="middle" x="341" y="-151.2" font-family="Helvetica,sans-Serif" font-size="10.00">ParseMatrix</text>
</a>
</g>
</g>
<!-- Node3&#45;&gt;Node4 -->
<g id="edge3_Node000003_Node000004" class="edge">
<title>Node3&#45;&gt;Node4</title>
<g id="a_edge3_Node000003_Node000004"><a xlink:title=" ">
<path fill="none" stroke="#63b8ff" d="M226.03,-126.23C246.74,-131.22 272.21,-137.36 293.82,-142.57"/>
<polygon fill="#63b8ff" stroke="#63b8ff" points="293.22,-146.03 303.76,-144.97 294.86,-139.22 293.22,-146.03"/>
</a>
</g>
</g>
<!-- Node5 -->
<g id="Node000005" class="node">
<title>Node5</title>
<g id="a_Node000005"><a xlink:href="../../d3/d79/SceneParser_8cpp.html#ab610c3a763bad5cb0f39e0d2f61a0c84" target="_top" xlink:title=" ">
<polygon fill="white" stroke="#666666" points="383,-126.2 299,-126.2 299,-107.2 383,-107.2 383,-126.2"/>
<text text-anchor="middle" x="341" y="-114.2" font-family="Helvetica,sans-Serif" font-size="10.00">ParseRotation</text>
</a>
</g>
</g>
<!-- Node3&#45;&gt;Node5 -->
<g id="edge4_Node000003_Node000005" class="edge">
<title>Node3&#45;&gt;Node5</title>
<g id="a_edge4_Node000003_Node000005"><a xlink:title=" ">
<path fill="none" stroke="#63b8ff" d="M234.65,-116.7C251.92,-116.7 271.45,-116.7 288.96,-116.7"/>
<polygon fill="#63b8ff" stroke="#63b8ff" points="289,-120.2 299,-116.7 289,-113.2 289,-120.2"/>
</a>
</g>
</g>
<!-- Node6 -->
<g id="Node000006" class="node">
<title>Node6</title>
<g id="a_Node000006"><a xlink:href="../../d3/d79/SceneParser_8cpp.html#a16ef5180e27cc191fa8b0948fef6446f" target="_top" xlink:title=" ">
<polygon fill="white" stroke="#666666" points="376.5,-89.2 305.5,-89.2 305.5,-70.2 376.5,-70.2 376.5,-89.2"/>
<text text-anchor="middle" x="341" y="-77.2" font-family="Helvetica,sans-Serif" font-size="10.00">ParseShear</text>
</a>
</g>
</g>
<!-- Node3&#45;&gt;Node6 -->
<g id="edge5_Node000003_Node000006" class="edge">
<title>Node3&#45;&gt;Node6</title>
<g id="a_edge5_Node000003_Node000006"><a xlink:title=" ">
<path fill="none" stroke="#63b8ff" d="M226.03,-107.18C247.29,-102.05 273.58,-95.71 295.55,-90.42"/>
<polygon fill="#63b8ff" stroke="#63b8ff" points="296.4,-93.81 305.31,-88.07 294.76,-87.01 296.4,-93.81"/>
</a>
</g>
</g>
<!-- Node7&#45;&gt;Node8 -->
<g id="edge7_Node000007_Node000008" class="edge">
<title>Node7&#45;&gt;Node8</title>
<g id="a_edge7_Node000007_Node000008"><a xlink:title=" ">
<path fill="none" stroke="#63b8ff" d="M375.75,-34.85C386.24,-33.03 397.94,-31 408.94,-29.09"/>
<polygon fill="#63b8ff" stroke="#63b8ff" points="409.55,-32.54 418.8,-27.38 408.35,-25.64 409.55,-32.54"/>
</a>
</g>
</g>
<!-- Node9&#45;&gt;Node7 -->
<g id="edge10_Node000009_Node000007" class="edge">
<title>Node9&#45;&gt;Node7</title>
<g id="a_edge10_Node000009_Node000007"><a xlink:title=" ">
<path fill="none" stroke="#63b8ff" d="M232.14,-40.7C252.46,-40.7 276.28,-40.7 296.36,-40.7"/>
<polygon fill="#63b8ff" stroke="#63b8ff" points="296.48,-44.2 306.48,-40.7 296.48,-37.2 296.48,-44.2"/>
</a>
</g>
</g>
</g>
</svg>
