<?xml version="1.0" encoding="UTF-8" standalone="no"?>
<!DOCTYPE svg PUBLIC "-//W3C//DTD SVG 1.1//EN"
 "http://www.w3.org/Graphics/SVG/1.1/DTD/svg11.dtd">
<!-- Generated by graphviz version 2.43.0 (0)
 -->
<!-- Title: ParseSierpinski Pages: 1 -->
<svg width="513pt" height="169pt"
 viewBox="0.00 0.00 513.00 169.41" xmlns="http://www.w3.org/2000/svg" xmlns:xlink="http://www.w3.org/1999/xlink">
<g id="graph0" class="graph" transform="scale(1 1) rotate(0) translate(4 165.41)">
<title>ParseSierpinski</title>
<!-- Node1 -->
<g id="Node000001" class="node">
<title>Node1</title>
<g id="a_Node000001"><a xlink:title=" ">
<polygon fill="#999999" stroke="#666666" points="91,-86.41 0,-86.41 0,-67.41 91,-67.41 91,-86.41"/>
<text text-anchor="middle" x="45.5" y="-74.41" font-family="Helvetica,sans-Serif" font-size="10.00">ParseSierpinski</text>
</a>
</g>
</g>
<!-- Node2 -->
<g id="Node000002" class="node">
<title>Node2</title>
<g id="a_Node000002"><a xlink:href="../../dc/d25/classRayTracer_1_1Scene.html#a596cfa5f2e69ddd8a341f3b10fdcf1b2" target="_top" xlink:title="Add a geometry object to the scene.">
<polygon fill="white" stroke="#666666" points="282,-161.41 127,-161.41 127,-142.41 282,-142.41 282,-161.41"/>
<text text-anchor="middle" x="204.5" y="-149.41" font-family="Helvetica,sans-Serif" font-size="10.00">RayTracer::Scene::addObject</text>
</a>
</g>
</g>
<!-- Node1&#45;&gt;Node2 -->
<g id="edge1_Node000001_Node000002" class="edge">
<title>Node1&#45;&gt;Node2</title>
<g id="a_edge1_Node000001_Node000002"><a xlink:title=" ">
<path fill="none" stroke="#63b8ff" d="M57.12,-86.5C71.78,-99.22 99.52,-121.52 127,-133.91 131.43,-135.9 136.11,-137.69 140.88,-139.3"/>
<polygon fill="#63b8ff" stroke="#63b8ff" points="140.17,-142.74 150.76,-142.33 142.23,-136.05 140.17,-142.74"/>
</a>
</g>
</g>
<!-- Node3 -->
<g id="Node000003" class="node">
<title>Node3</title>
<g id="a_Node000003"><a xlink:href="../../d3/d79/SceneParser_8cpp.html#aa782e54e3eee3a001fb792cc4026fb20" target="_top" xlink:title=" ">
<polygon fill="white" stroke="#666666" points="253.5,-124.41 155.5,-124.41 155.5,-105.41 253.5,-105.41 253.5,-124.41"/>
<text text-anchor="middle" x="204.5" y="-112.41" font-family="Helvetica,sans-Serif" font-size="10.00">ApplyTransforms</text>
</a>
</g>
</g>
<!-- Node1&#45;&gt;Node3 -->
<g id="edge2_Node000001_Node000003" class="edge">
<title>Node1&#45;&gt;Node3</title>
<g id="a_edge2_Node000001_Node000003"><a xlink:title=" ">
<path fill="none" stroke="#63b8ff" d="M86.12,-86.49C106.84,-91.51 132.39,-97.69 154.36,-103.01"/>
<polygon fill="#63b8ff" stroke="#63b8ff" points="153.62,-106.43 164.17,-105.39 155.27,-99.63 153.62,-106.43"/>
</a>
</g>
</g>
<!-- Node7 -->
<g id="Node000007" class="node">
<title>Node7</title>
<g id="a_Node000007"><a xlink:href="../../d3/d79/SceneParser_8cpp.html#a2f2fded85eeec23ebae4e1c2e9fe96aa" target="_top" xlink:title=" ">
<polygon fill="white" stroke="#666666" points="394.5,-48.41 325.5,-48.41 325.5,-29.41 394.5,-29.41 394.5,-48.41"/>
<text text-anchor="middle" x="360" y="-36.41" font-family="Helvetica,sans-Serif" font-size="10.00">parseColor</text>
</a>
</g>
</g>
<!-- Node1&#45;&gt;Node7 -->
<g id="edge6_Node000001_Node000007" class="edge">
<title>Node1&#45;&gt;Node7</title>
<g id="a_edge6_Node000001_Node000007"><a xlink:title=" ">
<path fill="none" stroke="#63b8ff" d="M91.03,-75.45C138.58,-73.41 216.01,-68.64 282,-57.91 293.03,-56.11 304.8,-53.55 315.74,-50.88"/>
<polygon fill="#63b8ff" stroke="#63b8ff" points="316.67,-54.25 325.51,-48.42 314.96,-47.47 316.67,-54.25"/>
</a>
</g>
</g>
<!-- Node8 -->
<g id="Node000008" class="node">
<title>Node8</title>
<g id="a_Node000008"><a xlink:href="../../d3/d79/SceneParser_8cpp.html#ab07eea3323845932b0e5c43bec9396d5" target="_top" xlink:title=" ">
<polygon fill="white" stroke="#666666" points="505,-29.41 438,-29.41 438,-10.41 505,-10.41 505,-29.41"/>
<text text-anchor="middle" x="471.5" y="-17.41" font-family="Helvetica,sans-Serif" font-size="10.00">parseVec3</text>
</a>
</g>
</g>
<!-- Node1&#45;&gt;Node8 -->
<g id="edge8_Node000001_Node000008" class="edge">
<title>Node1&#45;&gt;Node8</title>
<g id="a_edge8_Node000001_Node000008"><a xlink:title=" ">
<path fill="none" stroke="#63b8ff" d="M56.32,-67.01C70.47,-53.53 98.1,-30.02 127,-20.91 230.93,11.85 361.5,-1.64 427.73,-12.05"/>
<polygon fill="#63b8ff" stroke="#63b8ff" points="427.36,-15.54 437.79,-13.69 428.48,-8.63 427.36,-15.54"/>
</a>
</g>
</g>
<!-- Node9 -->
<g id="Node000009" class="node">
<title>Node9</title>
<g id="a_Node000009"><a xlink:href="../../d3/d79/SceneParser_8cpp.html#a8b7e43054abc89463b4746c81fe05f73" target="_top" xlink:title=" ">
<polygon fill="white" stroke="#666666" points="251,-48.41 158,-48.41 158,-29.41 251,-29.41 251,-48.41"/>
<text text-anchor="middle" x="204.5" y="-36.41" font-family="Helvetica,sans-Serif" font-size="10.00">resolveMaterial</text>
</a>
</g>
</g>
<!-- Node1&#45;&gt;Node9 -->
<g id="edge9_Node000001_Node000009" class="edge">
<title>Node1&#45;&gt;Node9</title>
<g id="a_edge9_Node000001_Node000009"><a xlink:title=" ">
<path fill="none" stroke="#63b8ff" d="M86.12,-67.32C106.84,-62.3 132.39,-56.12 154.36,-50.8"/>
<polygon fill="#63b8ff" stroke="#63b8ff" points="155.27,-54.18 164.17,-48.43 153.62,-47.38 155.27,-54.18"/>
</a>
</g>
</g>
<!-- Node4 -->
<g id="Node000004" class="node">
<title>Node4</title>
<g id="a_Node000004"><a xlink:href="../../d3/d79/SceneParser_8cpp.html#ae3517631b63ce9e4328bc51373bf45a3" target="_top" xlink:title=" ">
<polygon fill="white" stroke="#666666" points="397,-161.41 323,-161.41 323,-142.41 397,-142.41 397,-161.41"/>
<text text-anchor="middle" x="360" y="-149.41" font-family="Helvetica,sans-Serif" font-size="10.00">ParseMatrix</text>
</a>
</g>
</g>
<!-- Node3&#45;&gt;Node4 -->
<g id="edge3_Node000003_Node000004" class="edge">
<title>Node3&#45;&gt;Node4</title>
<g id="a_edge3_Node000003_Node000004"><a xlink:title=" ">
<path fill="none" stroke="#63b8ff" d="M245.03,-124.43C265.74,-129.42 291.21,-135.56 312.82,-140.77"/>
<polygon fill="#63b8ff" stroke="#63b8ff" points="312.22,-144.23 322.76,-143.17 313.86,-137.42 312.22,-144.23"/>
</a>
</g>
</g>
<!-- Node5 -->
<g id="Node000005" class="node">
<title>Node5</title>
<g id="a_Node000005"><a xlink:href="../../d3/d79/SceneParser_8cpp.html#ab610c3a763bad5cb0f39e0d2f61a0c84" target="_top" xlink:title=" ">
<polygon fill="white" stroke="#666666" points="402,-124.41 318,-124.41 318,-105.41 402,-105.41 402,-124.41"/>
<text text-anchor="middle" x="360" y="-112.41" font-family="Helvetica,sans-Serif" font-size="10.00">ParseRotation</text>
</a>
</g>
</g>
<!-- Node3&#45;&gt;Node5 -->
<g id="edge4_Node000003_Node000005" class="edge">
<title>Node3&#45;&gt;Node5</title>
<g id="a_edge4_Node000003_Node000005"><a xlink:title=" ">
<path fill="none" stroke="#63b8ff" d="M253.65,-114.91C270.92,-114.91 290.45,-114.91 307.96,-114.91"/>
<polygon fill="#63b8ff" stroke="#63b8ff" points="308,-118.41 318,-114.91 308,-111.41 308,-118.41"/>
</a>
</g>
</g>
<!-- Node6 -->
<g id="Node000006" class="node">
<title>Node6</title>
<g id="a_Node000006"><a xlink:href="../../d3/d79/SceneParser_8cpp.html#a16ef5180e27cc191fa8b0948fef6446f" target="_top" xlink:title=" ">
<polygon fill="white" stroke="#666666" points="395.5,-87.41 324.5,-87.41 324.5,-68.41 395.5,-68.41 395.5,-87.41"/>
<text text-anchor="middle" x="360" y="-75.41" font-family="Helvetica,sans-Serif" font-size="10.00">ParseShear</text>
</a>
</g>
</g>
<!-- Node3&#45;&gt;Node6 -->
<g id="edge5_Node000003_Node000006" class="edge">
<title>Node3&#45;&gt;Node6</title>
<g id="a_edge5_Node000003_Node000006"><a xlink:title=" ">
<path fill="none" stroke="#63b8ff" d="M245.03,-105.38C266.29,-100.25 292.58,-93.92 314.55,-88.62"/>
<polygon fill="#63b8ff" stroke="#63b8ff" points="315.4,-92.01 324.31,-86.27 313.76,-85.21 315.4,-92.01"/>
</a>
</g>
</g>
<!-- Node7&#45;&gt;Node8 -->
<g id="edge7_Node000007_Node000008" class="edge">
<title>Node7&#45;&gt;Node8</title>
<g id="a_edge7_Node000007_Node000008"><a xlink:title=" ">
<path fill="none" stroke="#63b8ff" d="M394.75,-33.05C405.24,-31.23 416.94,-29.2 427.94,-27.29"/>
<polygon fill="#63b8ff" stroke="#63b8ff" points="428.55,-30.74 437.8,-25.58 427.35,-23.84 428.55,-30.74"/>
</a>
</g>
</g>
<!-- Node9&#45;&gt;Node7 -->
<g id="edge10_Node000009_Node000007" class="edge">
<title>Node9&#45;&gt;Node7</title>
<g id="a_edge10_Node000009_Node000007"><a xlink:title=" ">
<path fill="none" stroke="#63b8ff" d="M251.14,-38.91C271.46,-38.91 295.28,-38.91 315.36,-38.91"/>
<polygon fill="#63b8ff" stroke="#63b8ff" points="315.48,-42.41 325.48,-38.91 315.48,-35.41 315.48,-42.41"/>
</a>
</g>
</g>
</g>
</svg>
