<?xml version="1.0" encoding="UTF-8" standalone="no"?>
<!DOCTYPE svg PUBLIC "-//W3C//DTD SVG 1.1//EN"
 "http://www.w3.org/Graphics/SVG/1.1/DTD/svg11.dtd">
<!-- Generated by graphviz version 2.43.0 (0)
 -->
<!-- Title: parseColor Pages: 1 -->
<svg width="1071pt" height="403pt"
 viewBox="0.00 0.00 1071.00 403.00" xmlns="http://www.w3.org/2000/svg" xmlns:xlink="http://www.w3.org/1999/xlink">
<g id="graph0" class="graph" transform="scale(1 1) rotate(0) translate(4 399)">
<title>parseColor</title>
<!-- Node1 -->
<g id="Node000001" class="node">
<title>Node1</title>
<g id="a_Node000001"><a xlink:title=" ">
<polygon fill="#999999" stroke="#666666" points="1063,-186 994,-186 994,-167 1063,-167 1063,-186"/>
<text text-anchor="middle" x="1028.5" y="-174" font-family="Helvetica,sans-Serif" font-size="10.00">parseColor</text>
</a>
</g>
</g>
<!-- Node2 -->
<g id="Node000002" class="node">
<title>Node2</title>
<g id="a_Node000002"><a xlink:href="../../d3/d79/SceneParser_8cpp.html#ad262901d3d20b2d0a15d937abb911dbd" target="_top" xlink:title=" ">
<polygon fill="white" stroke="#666666" points="807.5,-352 735.5,-352 735.5,-333 807.5,-333 807.5,-352"/>
<text text-anchor="middle" x="771.5" y="-340" font-family="Helvetica,sans-Serif" font-size="10.00">ParseBoxes</text>
</a>
</g>
</g>
<!-- Node1&#45;&gt;Node2 -->
<g id="edge1_Node000001_Node000002" class="edge">
<title>Node1&#45;&gt;Node2</title>
<g id="a_edge1_Node000001_Node000002"><a xlink:title=" ">
<path fill="none" stroke="#63b8ff" d="M1020.06,-195.68C1009.72,-219.86 988.75,-261.08 958,-284.5 913.04,-318.75 847.5,-333.01 807.56,-338.78"/>
<polygon fill="#63b8ff" stroke="#63b8ff" points="1023.4,-196.76 1023.95,-186.18 1016.92,-194.11 1023.4,-196.76"/>
</a>
</g>
</g>
<!-- Node8 -->
<g id="Node000008" class="node">
<title>Node8</title>
<g id="a_Node000008"><a xlink:href="../../d3/d79/SceneParser_8cpp.html#acadf69d0ff9684ba689927979b304f6a" target="_top" xlink:title=" ">
<polygon fill="white" stroke="#666666" points="808,-315 735,-315 735,-296 808,-296 808,-315"/>
<text text-anchor="middle" x="771.5" y="-303" font-family="Helvetica,sans-Serif" font-size="10.00">ParseCones</text>
</a>
</g>
</g>
<!-- Node1&#45;&gt;Node8 -->
<g id="edge8_Node000001_Node000008" class="edge">
<title>Node1&#45;&gt;Node8</title>
<g id="a_edge8_Node000001_Node000008"><a xlink:title=" ">
<path fill="none" stroke="#63b8ff" d="M1015.18,-194.65C1002.69,-211.71 981.83,-236.78 958,-251.5 910.92,-280.59 847.47,-294.61 808.31,-300.91"/>
<polygon fill="#63b8ff" stroke="#63b8ff" points="1018.31,-196.29 1021.23,-186.11 1012.59,-192.25 1018.31,-196.29"/>
</a>
</g>
</g>
<!-- Node9 -->
<g id="Node000009" class="node">
<title>Node9</title>
<g id="a_Node000009"><a xlink:href="../../d3/d79/SceneParser_8cpp.html#a58b4651708d2a5da5625f2412bd84bd7" target="_top" xlink:title=" ">
<polygon fill="white" stroke="#666666" points="816,-278 727,-278 727,-259 816,-259 816,-278"/>
<text text-anchor="middle" x="771.5" y="-266" font-family="Helvetica,sans-Serif" font-size="10.00">ParseCylinders</text>
</a>
</g>
</g>
<!-- Node1&#45;&gt;Node9 -->
<g id="edge10_Node000001_Node000009" class="edge">
<title>Node1&#45;&gt;Node9</title>
<g id="a_edge10_Node000001_Node000009"><a xlink:title=" ">
<path fill="none" stroke="#63b8ff" d="M1007.44,-192.45C994.11,-202.37 975.82,-214.67 958,-222.5 911.67,-242.85 854.71,-255.28 816.23,-262"/>
<polygon fill="#63b8ff" stroke="#63b8ff" points="1009.61,-195.2 1015.44,-186.36 1005.37,-189.64 1009.61,-195.2"/>
</a>
</g>
</g>
<!-- Node10 -->
<g id="Node000010" class="node">
<title>Node10</title>
<g id="a_Node000010"><a xlink:href="../../d3/d79/SceneParser_8cpp.html#a17fe6719bd49ea3c89cdbe743f9fbe49" target="_top" xlink:title=" ">
<polygon fill="white" stroke="#666666" points="958,-395 857,-395 857,-376 958,-376 958,-395"/>
<text text-anchor="middle" x="907.5" y="-383" font-family="Helvetica,sans-Serif" font-size="10.00">parseMaterialDef</text>
</a>
</g>
</g>
<!-- Node1&#45;&gt;Node10 -->
<g id="edge12_Node000001_Node000010" class="edge">
<title>Node1&#45;&gt;Node10</title>
<g id="a_edge12_Node000001_Node000010"><a xlink:title=" ">
<path fill="none" stroke="#63b8ff" d="M1024.97,-196.21C1019.31,-233 1002.42,-312.79 958,-361.5 952.4,-367.64 944.89,-372.38 937.42,-375.96"/>
<polygon fill="#63b8ff" stroke="#63b8ff" points="1028.45,-196.65 1026.39,-186.25 1021.52,-195.66 1028.45,-196.65"/>
</a>
</g>
</g>
<!-- Node11 -->
<g id="Node000011" class="node">
<title>Node11</title>
<g id="a_Node000011"><a xlink:href="../../d3/d79/SceneParser_8cpp.html#a1122aa28b0a7f73c44adaf6dca1d5750" target="_top" xlink:title=" ">
<polygon fill="white" stroke="#666666" points="811.5,-241 731.5,-241 731.5,-222 811.5,-222 811.5,-241"/>
<text text-anchor="middle" x="771.5" y="-229" font-family="Helvetica,sans-Serif" font-size="10.00">ParseMenger</text>
</a>
</g>
</g>
<!-- Node1&#45;&gt;Node11 -->
<g id="edge14_Node000001_Node000011" class="edge">
<title>Node1&#45;&gt;Node11</title>
<g id="a_edge14_Node000001_Node000011"><a xlink:title=" ">
<path fill="none" stroke="#63b8ff" d="M990.66,-189.15C980.18,-192.47 968.71,-195.86 958,-198.5 907.97,-210.81 849.29,-220.47 811.54,-226.07"/>
<polygon fill="#63b8ff" stroke="#63b8ff" points="991.91,-192.42 1000.34,-186 989.74,-185.76 991.91,-192.42"/>
</a>
</g>
</g>
<!-- Node12 -->
<g id="Node000012" class="node">
<title>Node12</title>
<g id="a_Node000012"><a xlink:href="../../d3/d79/SceneParser_8cpp.html#a26f05fcddd9c159c09c9cedc7bdf844a" target="_top" xlink:title=" ">
<polygon fill="white" stroke="#666666" points="811.5,-204 731.5,-204 731.5,-185 811.5,-185 811.5,-204"/>
<text text-anchor="middle" x="771.5" y="-192" font-family="Helvetica,sans-Serif" font-size="10.00">ParseMeshes</text>
</a>
</g>
</g>
<!-- Node1&#45;&gt;Node12 -->
<g id="edge16_Node000001_Node000012" class="edge">
<title>Node1&#45;&gt;Node12</title>
<g id="a_edge16_Node000001_Node000012"><a xlink:title=" ">
<path fill="none" stroke="#63b8ff" d="M983.74,-179.59C935.33,-183.01 858.06,-188.46 811.61,-191.74"/>
<polygon fill="#63b8ff" stroke="#63b8ff" points="984.17,-183.07 993.9,-178.87 983.68,-176.08 984.17,-183.07"/>
</a>
</g>
</g>
<!-- Node13 -->
<g id="Node000013" class="node">
<title>Node13</title>
<g id="a_Node000013"><a xlink:href="../../d3/d79/SceneParser_8cpp.html#a9d50142946b8423759ecbfa17c7edc79" target="_top" xlink:title=" ">
<polygon fill="white" stroke="#666666" points="809,-167 734,-167 734,-148 809,-148 809,-167"/>
<text text-anchor="middle" x="771.5" y="-155" font-family="Helvetica,sans-Serif" font-size="10.00">ParsePlanes</text>
</a>
</g>
</g>
<!-- Node1&#45;&gt;Node13 -->
<g id="edge18_Node000001_Node000013" class="edge">
<title>Node1&#45;&gt;Node13</title>
<g id="a_edge18_Node000001_Node000013"><a xlink:title=" ">
<path fill="none" stroke="#63b8ff" d="M1005.47,-161.17C992.34,-152.98 974.97,-143.74 958,-139.5 905.26,-126.34 841.85,-138.2 804.49,-147.91"/>
<polygon fill="#63b8ff" stroke="#63b8ff" points="1003.92,-164.34 1014.21,-166.86 1007.74,-158.47 1003.92,-164.34"/>
</a>
</g>
</g>
<!-- Node14 -->
<g id="Node000014" class="node">
<title>Node14</title>
<g id="a_Node000014"><a xlink:href="../../d3/d79/SceneParser_8cpp.html#a1113dafd3e97959e0e81c1d2fd42cd81" target="_top" xlink:title=" ">
<polygon fill="white" stroke="#666666" points="817,-130 726,-130 726,-111 817,-111 817,-130"/>
<text text-anchor="middle" x="771.5" y="-118" font-family="Helvetica,sans-Serif" font-size="10.00">ParseSierpinski</text>
</a>
</g>
</g>
<!-- Node1&#45;&gt;Node14 -->
<g id="edge20_Node000001_Node000014" class="edge">
<title>Node1&#45;&gt;Node14</title>
<g id="a_edge20_Node000001_Node000014"><a xlink:title=" ">
<path fill="none" stroke="#63b8ff" d="M1009.38,-160.14C996.17,-149.29 977.27,-135.92 958,-129.5 911.81,-114.11 855.57,-113.75 817.21,-116.03"/>
<polygon fill="#63b8ff" stroke="#63b8ff" points="1007.31,-162.97 1017.19,-166.8 1011.86,-157.65 1007.31,-162.97"/>
</a>
</g>
</g>
<!-- Node15 -->
<g id="Node000015" class="node">
<title>Node15</title>
<g id="a_Node000015"><a xlink:href="../../d3/d79/SceneParser_8cpp.html#aa379bf06dc8b31c936030d2fc900e73c" target="_top" xlink:title=" ">
<polygon fill="white" stroke="#666666" points="812.5,-93 730.5,-93 730.5,-74 812.5,-74 812.5,-93"/>
<text text-anchor="middle" x="771.5" y="-81" font-family="Helvetica,sans-Serif" font-size="10.00">ParseSpheres</text>
</a>
</g>
</g>
<!-- Node1&#45;&gt;Node15 -->
<g id="edge22_Node000001_Node000015" class="edge">
<title>Node1&#45;&gt;Node15</title>
<g id="a_edge22_Node000001_Node000015"><a xlink:title=" ">
<path fill="none" stroke="#63b8ff" d="M1014.12,-158.69C1001.47,-143.25 981.02,-121.68 958,-110.5 911.6,-87.97 851.55,-82.99 812.53,-82.46"/>
<polygon fill="#63b8ff" stroke="#63b8ff" points="1011.7,-161.26 1020.64,-166.95 1017.19,-156.93 1011.7,-161.26"/>
</a>
</g>
</g>
<!-- Node16 -->
<g id="Node000016" class="node">
<title>Node16</title>
<g id="a_Node000016"><a xlink:href="../../d3/d79/SceneParser_8cpp.html#abe09300f6764206d0215ca7b12403972" target="_top" xlink:title=" ">
<polygon fill="white" stroke="#666666" points="821,-56 722,-56 722,-37 821,-37 821,-56"/>
<text text-anchor="middle" x="771.5" y="-44" font-family="Helvetica,sans-Serif" font-size="10.00">ParseTangleCube</text>
</a>
</g>
</g>
<!-- Node1&#45;&gt;Node16 -->
<g id="edge24_Node000001_Node000016" class="edge">
<title>Node1&#45;&gt;Node16</title>
<g id="a_edge24_Node000001_Node000016"><a xlink:title=" ">
<path fill="none" stroke="#63b8ff" d="M1019.27,-157.62C1008.54,-135.4 987.6,-99.17 958,-80.5 916.74,-54.47 860.67,-47.23 821,-45.71"/>
<polygon fill="#63b8ff" stroke="#63b8ff" points="1016.23,-159.38 1023.59,-167 1022.58,-156.45 1016.23,-159.38"/>
</a>
</g>
</g>
<!-- Node17 -->
<g id="Node000017" class="node">
<title>Node17</title>
<g id="a_Node000017"><a xlink:href="../../d3/d79/SceneParser_8cpp.html#aa2d4ee6129dea0eeb1ad8100b5026239" target="_top" xlink:title=" ">
<polygon fill="white" stroke="#666666" points="805.5,-19 737.5,-19 737.5,0 805.5,0 805.5,-19"/>
<text text-anchor="middle" x="771.5" y="-7" font-family="Helvetica,sans-Serif" font-size="10.00">ParseTorus</text>
</a>
</g>
</g>
<!-- Node1&#45;&gt;Node17 -->
<g id="edge26_Node000001_Node000017" class="edge">
<title>Node1&#45;&gt;Node17</title>
<g id="a_edge26_Node000001_Node000017"><a xlink:title=" ">
<path fill="none" stroke="#63b8ff" d="M1023.02,-157.13C1015.18,-127.81 996.05,-72.61 958,-44.5 913.06,-11.29 845.7,-6.79 805.71,-7.49"/>
<polygon fill="#63b8ff" stroke="#63b8ff" points="1019.67,-158.14 1025.49,-166.99 1026.46,-156.44 1019.67,-158.14"/>
</a>
</g>
</g>
<!-- Node18 -->
<g id="Node000018" class="node">
<title>Node18</title>
<g id="a_Node000018"><a xlink:href="../../d3/d79/SceneParser_8cpp.html#a8b7e43054abc89463b4746c81fe05f73" target="_top" xlink:title=" ">
<polygon fill="white" stroke="#666666" points="954,-167 861,-167 861,-148 954,-148 954,-167"/>
<text text-anchor="middle" x="907.5" y="-155" font-family="Helvetica,sans-Serif" font-size="10.00">resolveMaterial</text>
</a>
</g>
</g>
<!-- Node1&#45;&gt;Node18 -->
<g id="edge28_Node000001_Node000018" class="edge">
<title>Node1&#45;&gt;Node18</title>
<g id="a_edge28_Node000001_Node000018"><a xlink:title=" ">
<path fill="none" stroke="#63b8ff" d="M983.64,-169.5C974.1,-167.97 963.98,-166.36 954.36,-164.82"/>
<polygon fill="#63b8ff" stroke="#63b8ff" points="983.29,-172.99 993.72,-171.11 984.39,-166.07 983.29,-172.99"/>
</a>
</g>
</g>
<!-- Node3 -->
<g id="Node000003" class="node">
<title>Node3</title>
<g id="a_Node000003"><a xlink:href="../../d1/df4/namespaceRayTracer.html#a4bbc9c3996d70f6a71cf4d185a4811d6" target="_top" xlink:title="Loads a single scene file (non&#45;recursive).">
<polygon fill="white" stroke="#666666" points="686,-204 565,-204 565,-185 686,-185 686,-204"/>
<text text-anchor="middle" x="625.5" y="-192" font-family="Helvetica,sans-Serif" font-size="10.00">RayTracer::loadScene</text>
</a>
</g>
</g>
<!-- Node2&#45;&gt;Node3 -->
<g id="edge2_Node000002_Node000003" class="edge">
<title>Node2&#45;&gt;Node3</title>
<g id="a_edge2_Node000002_Node000003"><a xlink:title=" ">
<path fill="none" stroke="#63b8ff" d="M727.72,-328.31C725.73,-327.13 723.81,-325.86 722,-324.5 676.39,-290.09 642.83,-227.97 631.07,-204.15"/>
<polygon fill="#63b8ff" stroke="#63b8ff" points="726.31,-331.52 736.82,-332.93 729.49,-325.28 726.31,-331.52"/>
</a>
</g>
</g>
<!-- Node4 -->
<g id="Node000004" class="node">
<title>Node4</title>
<g id="a_Node000004"><a xlink:href="../../d1/df4/namespaceRayTracer.html#a9aa92d0c88c2ac9be33f27ba71e8ceaa" target="_top" xlink:title="Recursively loads a scene and any referenced sub&#45;scenes from file(s).">
<polygon fill="white" stroke="#666666" points="529,-204 360,-204 360,-185 529,-185 529,-204"/>
<text text-anchor="middle" x="444.5" y="-192" font-family="Helvetica,sans-Serif" font-size="10.00">RayTracer::loadSceneRecursive</text>
</a>
</g>
</g>
<!-- Node3&#45;&gt;Node4 -->
<g id="edge3_Node000003_Node000004" class="edge">
<title>Node3&#45;&gt;Node4</title>
<g id="a_edge3_Node000003_Node000004"><a xlink:title=" ">
<path fill="none" stroke="#63b8ff" d="M554.76,-194.5C546.34,-194.5 537.67,-194.5 529.08,-194.5"/>
<polygon fill="#63b8ff" stroke="#63b8ff" points="554.9,-198 564.9,-194.5 554.9,-191 554.9,-198"/>
</a>
</g>
</g>
<!-- Node4&#45;&gt;Node4 -->
<g id="edge7_Node000004_Node000004" class="edge">
<title>Node4&#45;&gt;Node4</title>
<g id="a_edge7_Node000004_Node000004"><a xlink:title=" ">
<path fill="none" stroke="#63b8ff" d="M478.18,-212.45C477.22,-217.82 465.99,-222 444.5,-222 412.51,-222 403.26,-212.73 416.76,-204.08"/>
<polygon fill="#63b8ff" stroke="#63b8ff" points="480.89,-210.21 472.24,-204.08 475.18,-214.26 480.89,-210.21"/>
</a>
</g>
</g>
<!-- Node5 -->
<g id="Node000005" class="node">
<title>Node5</title>
<g id="a_Node000005"><a xlink:href="../../d4/d3d/namespaceUtils.html#a763a2a5523575e2175022d2623a77d05" target="_top" xlink:title="Loads a scene from file, or exits on failure.">
<polygon fill="white" stroke="#666666" points="324,-204 199,-204 199,-185 324,-185 324,-204"/>
<text text-anchor="middle" x="261.5" y="-192" font-family="Helvetica,sans-Serif" font-size="10.00">Utils::loadSceneOrExit</text>
</a>
</g>
</g>
<!-- Node4&#45;&gt;Node5 -->
<g id="edge4_Node000004_Node000005" class="edge">
<title>Node4&#45;&gt;Node5</title>
<g id="a_edge4_Node000004_Node000005"><a xlink:title=" ">
<path fill="none" stroke="#63b8ff" d="M349.71,-194.5C341.04,-194.5 332.4,-194.5 324.13,-194.5"/>
<polygon fill="#63b8ff" stroke="#63b8ff" points="349.89,-198 359.89,-194.5 349.89,-191 349.89,-198"/>
</a>
</g>
</g>
<!-- Node6 -->
<g id="Node000006" class="node">
<title>Node6</title>
<g id="a_Node000006"><a xlink:href="../../dd/dea/classRaytracer.html#a844a5a660abbb9d21608fc170074e0c5" target="_top" xlink:title="Launch the raytracing process.">
<polygon fill="white" stroke="#666666" points="163,-204 77,-204 77,-185 163,-185 163,-204"/>
<text text-anchor="middle" x="120" y="-192" font-family="Helvetica,sans-Serif" font-size="10.00">Raytracer::run</text>
</a>
</g>
</g>
<!-- Node5&#45;&gt;Node6 -->
<g id="edge5_Node000005_Node000006" class="edge">
<title>Node5&#45;&gt;Node6</title>
<g id="a_edge5_Node000005_Node000006"><a xlink:title=" ">
<path fill="none" stroke="#63b8ff" d="M188.64,-194.5C179.88,-194.5 171.17,-194.5 163.05,-194.5"/>
<polygon fill="#63b8ff" stroke="#63b8ff" points="188.91,-198 198.91,-194.5 188.91,-191 188.91,-198"/>
</a>
</g>
</g>
<!-- Node7 -->
<g id="Node000007" class="node">
<title>Node7</title>
<g id="a_Node000007"><a xlink:href="../../df/d0a/main_8cpp.html#a0ddf1224851353fc92bfbff6f499fa97" target="_top" xlink:title="Raimond is a good Raytracer. Logic, it&#39;s Raimond.">
<polygon fill="white" stroke="#666666" points="41,-204 0,-204 0,-185 41,-185 41,-204"/>
<text text-anchor="middle" x="20.5" y="-192" font-family="Helvetica,sans-Serif" font-size="10.00">main</text>
</a>
</g>
</g>
<!-- Node6&#45;&gt;Node7 -->
<g id="edge6_Node000006_Node000007" class="edge">
<title>Node6&#45;&gt;Node7</title>
<g id="a_edge6_Node000006_Node000007"><a xlink:title=" ">
<path fill="none" stroke="#63b8ff" d="M66.52,-194.5C57.42,-194.5 48.5,-194.5 41.03,-194.5"/>
<polygon fill="#63b8ff" stroke="#63b8ff" points="66.8,-198 76.8,-194.5 66.8,-191 66.8,-198"/>
</a>
</g>
</g>
<!-- Node8&#45;&gt;Node3 -->
<g id="edge9_Node000008_Node000003" class="edge">
<title>Node8&#45;&gt;Node3</title>
<g id="a_edge9_Node000008_Node000003"><a xlink:title=" ">
<path fill="none" stroke="#63b8ff" d="M729.63,-291.79C726.99,-290.46 724.42,-289.03 722,-287.5 684.05,-263.51 648.77,-222.47 633.91,-204"/>
<polygon fill="#63b8ff" stroke="#63b8ff" points="728.24,-295 738.8,-295.92 731.12,-288.62 728.24,-295"/>
</a>
</g>
</g>
<!-- Node9&#45;&gt;Node3 -->
<g id="edge11_Node000009_Node000003" class="edge">
<title>Node9&#45;&gt;Node3</title>
<g id="a_edge11_Node000009_Node000003"><a xlink:title=" ">
<path fill="none" stroke="#63b8ff" d="M732.62,-255.18C729,-253.68 725.41,-252.12 722,-250.5 692.13,-236.33 659.29,-215.92 640.95,-204.06"/>
<polygon fill="#63b8ff" stroke="#63b8ff" points="731.61,-258.54 742.2,-258.94 734.17,-252.03 731.61,-258.54"/>
</a>
</g>
</g>
<!-- Node10&#45;&gt;Node3 -->
<g id="edge13_Node000010_Node000003" class="edge">
<title>Node10&#45;&gt;Node3</title>
<g id="a_edge13_Node000010_Node000003"><a xlink:title=" ">
<path fill="none" stroke="#63b8ff" d="M846.82,-390.74C808.18,-391.19 758.46,-385.93 722,-361.5 663.18,-322.09 636.29,-233.42 628.78,-204.11"/>
<polygon fill="#63b8ff" stroke="#63b8ff" points="846.99,-394.24 856.9,-390.5 846.82,-387.24 846.99,-394.24"/>
</a>
</g>
</g>
<!-- Node11&#45;&gt;Node3 -->
<g id="edge15_Node000011_Node000003" class="edge">
<title>Node11&#45;&gt;Node3</title>
<g id="a_edge15_Node000011_Node000003"><a xlink:title=" ">
<path fill="none" stroke="#63b8ff" d="M723.59,-219.45C704.27,-214.48 682.18,-208.81 663.96,-204.12"/>
<polygon fill="#63b8ff" stroke="#63b8ff" points="722.86,-222.87 733.42,-221.97 724.6,-216.09 722.86,-222.87"/>
</a>
</g>
</g>
<!-- Node12&#45;&gt;Node3 -->
<g id="edge17_Node000012_Node000003" class="edge">
<title>Node12&#45;&gt;Node3</title>
<g id="a_edge17_Node000012_Node000003"><a xlink:title=" ">
<path fill="none" stroke="#63b8ff" d="M721.07,-194.5C709.8,-194.5 697.71,-194.5 686.07,-194.5"/>
<polygon fill="#63b8ff" stroke="#63b8ff" points="721.15,-198 731.15,-194.5 721.15,-191 721.15,-198"/>
</a>
</g>
</g>
<!-- Node13&#45;&gt;Node3 -->
<g id="edge19_Node000013_Node000003" class="edge">
<title>Node13&#45;&gt;Node3</title>
<g id="a_edge19_Node000013_Node000003"><a xlink:title=" ">
<path fill="none" stroke="#63b8ff" d="M723.88,-169.48C704.37,-174.49 682.01,-180.24 663.64,-184.96"/>
<polygon fill="#63b8ff" stroke="#63b8ff" points="724.98,-172.81 733.79,-166.93 723.23,-166.03 724.98,-172.81"/>
</a>
</g>
</g>
<!-- Node14&#45;&gt;Node3 -->
<g id="edge21_Node000014_Node000003" class="edge">
<title>Node14&#45;&gt;Node3</title>
<g id="a_edge21_Node000014_Node000003"><a xlink:title=" ">
<path fill="none" stroke="#63b8ff" d="M734.67,-133.84C730.36,-135.65 726.05,-137.55 722,-139.5 692.68,-153.59 660.19,-173.22 641.67,-184.82"/>
<polygon fill="#63b8ff" stroke="#63b8ff" points="736.06,-137.05 744.02,-130.05 733.43,-130.56 736.06,-137.05"/>
</a>
</g>
</g>
<!-- Node15&#45;&gt;Node3 -->
<g id="edge23_Node000015_Node000003" class="edge">
<title>Node15&#45;&gt;Node3</title>
<g id="a_edge23_Node000015_Node000003"><a xlink:title=" ">
<path fill="none" stroke="#63b8ff" d="M731.35,-97.25C728.11,-98.86 724.94,-100.61 722,-102.5 684.59,-126.48 649.31,-166.59 634.21,-184.88"/>
<polygon fill="#63b8ff" stroke="#63b8ff" points="732.93,-100.38 740.61,-93.07 730.06,-93.99 732.93,-100.38"/>
</a>
</g>
</g>
<!-- Node16&#45;&gt;Node3 -->
<g id="edge25_Node000016_Node000003" class="edge">
<title>Node16&#45;&gt;Node3</title>
<g id="a_edge25_Node000016_Node000003"><a xlink:title=" ">
<path fill="none" stroke="#63b8ff" d="M729.44,-60.6C726.83,-62.09 724.32,-63.72 722,-65.5 676.87,-100.06 643.02,-161.46 631.13,-184.97"/>
<polygon fill="#63b8ff" stroke="#63b8ff" points="731.21,-63.62 738.6,-56.03 728.09,-57.36 731.21,-63.62"/>
</a>
</g>
</g>
<!-- Node17&#45;&gt;Node3 -->
<g id="edge27_Node000017_Node000003" class="edge">
<title>Node17&#45;&gt;Node3</title>
<g id="a_edge27_Node000017_Node000003"><a xlink:title=" ">
<path fill="none" stroke="#63b8ff" d="M728.38,-23.81C726.13,-25.23 723.98,-26.8 722,-28.5 669.1,-74.07 638.73,-156.58 629.52,-184.76"/>
<polygon fill="#63b8ff" stroke="#63b8ff" points="730.32,-26.74 737.48,-18.93 727.02,-20.57 730.32,-26.74"/>
</a>
</g>
</g>
<!-- Node18&#45;&gt;Node2 -->
<g id="edge29_Node000018_Node000002" class="edge">
<title>Node18&#45;&gt;Node2</title>
<g id="a_edge29_Node000018_Node000002"><a xlink:title=" ">
<path fill="none" stroke="#63b8ff" d="M901.53,-177.16C891.82,-211.7 867.14,-283.5 821,-324.5 817.11,-327.96 812.49,-330.78 807.67,-333.06"/>
<polygon fill="#63b8ff" stroke="#63b8ff" points="904.95,-177.9 904.16,-167.34 898.19,-176.09 904.95,-177.9"/>
</a>
</g>
</g>
<!-- Node18&#45;&gt;Node8 -->
<g id="edge30_Node000018_Node000008" class="edge">
<title>Node18&#45;&gt;Node8</title>
<g id="a_edge30_Node000018_Node000008"><a xlink:title=" ">
<path fill="none" stroke="#63b8ff" d="M898.61,-176.65C886.12,-204.74 859.23,-257.07 821,-287.5 816.78,-290.86 811.88,-293.63 806.84,-295.9"/>
<polygon fill="#63b8ff" stroke="#63b8ff" points="901.95,-177.73 902.69,-167.16 895.52,-174.97 901.95,-177.73"/>
</a>
</g>
</g>
<!-- Node18&#45;&gt;Node9 -->
<g id="edge31_Node000018_Node000009" class="edge">
<title>Node18&#45;&gt;Node9</title>
<g id="a_edge31_Node000018_Node000009"><a xlink:title=" ">
<path fill="none" stroke="#63b8ff" d="M894.25,-175.27C879.17,-195.93 851.77,-229.84 821,-250.5 816.08,-253.8 810.47,-256.6 804.86,-258.93"/>
<polygon fill="#63b8ff" stroke="#63b8ff" points="897.15,-177.22 900.1,-167.05 891.45,-173.16 897.15,-177.22"/>
</a>
</g>
</g>
<!-- Node18&#45;&gt;Node11 -->
<g id="edge32_Node000018_Node000011" class="edge">
<title>Node18&#45;&gt;Node11</title>
<g id="a_edge32_Node000018_Node000011"><a xlink:title=" ">
<path fill="none" stroke="#63b8ff" d="M885.21,-173.38C868.39,-185.45 843.99,-201.89 821,-213.5 814.83,-216.62 807.98,-219.49 801.42,-221.98"/>
<polygon fill="#63b8ff" stroke="#63b8ff" points="887.7,-175.9 893.72,-167.19 883.58,-170.24 887.7,-175.9"/>
</a>
</g>
</g>
<!-- Node18&#45;&gt;Node12 -->
<g id="edge33_Node000018_Node000012" class="edge">
<title>Node18&#45;&gt;Node12</title>
<g id="a_edge33_Node000018_Node000012"><a xlink:title=" ">
<path fill="none" stroke="#63b8ff" d="M861.86,-169.83C844.11,-174.73 824,-180.28 807.36,-184.88"/>
<polygon fill="#63b8ff" stroke="#63b8ff" points="863.28,-173.06 871.99,-167.03 861.42,-166.32 863.28,-173.06"/>
</a>
</g>
</g>
<!-- Node18&#45;&gt;Node13 -->
<g id="edge34_Node000018_Node000013" class="edge">
<title>Node18&#45;&gt;Node13</title>
<g id="a_edge34_Node000018_Node000013"><a xlink:title=" ">
<path fill="none" stroke="#63b8ff" d="M850.71,-157.5C836.68,-157.5 821.99,-157.5 809.17,-157.5"/>
<polygon fill="#63b8ff" stroke="#63b8ff" points="850.76,-161 860.76,-157.5 850.76,-154 850.76,-161"/>
</a>
</g>
</g>
<!-- Node18&#45;&gt;Node14 -->
<g id="edge35_Node000018_Node000014" class="edge">
<title>Node18&#45;&gt;Node14</title>
<g id="a_edge35_Node000018_Node000014"><a xlink:title=" ">
<path fill="none" stroke="#63b8ff" d="M861.86,-145.17C844.11,-140.27 824,-134.72 807.36,-130.12"/>
<polygon fill="#63b8ff" stroke="#63b8ff" points="861.42,-148.68 871.99,-147.97 863.28,-141.94 861.42,-148.68"/>
</a>
</g>
</g>
<!-- Node18&#45;&gt;Node15 -->
<g id="edge36_Node000018_Node000015" class="edge">
<title>Node18&#45;&gt;Node15</title>
<g id="a_edge36_Node000018_Node000015"><a xlink:title=" ">
<path fill="none" stroke="#63b8ff" d="M884.82,-141.84C867.95,-130.09 843.68,-114.09 821,-102.5 814.24,-99.04 806.69,-95.81 799.6,-93.02"/>
<polygon fill="#63b8ff" stroke="#63b8ff" points="883.18,-144.97 893.37,-147.88 887.22,-139.25 883.18,-144.97"/>
</a>
</g>
</g>
<!-- Node18&#45;&gt;Node16 -->
<g id="edge37_Node000018_Node000016" class="edge">
<title>Node18&#45;&gt;Node16</title>
<g id="a_edge37_Node000018_Node000016"><a xlink:title=" ">
<path fill="none" stroke="#63b8ff" d="M893.9,-139.71C878.68,-119.34 851.3,-86.13 821,-65.5 815.54,-61.79 809.25,-58.64 803.05,-56.05"/>
<polygon fill="#63b8ff" stroke="#63b8ff" points="891.11,-141.82 899.83,-147.83 896.76,-137.69 891.11,-141.82"/>
</a>
</g>
</g>
<!-- Node18&#45;&gt;Node17 -->
<g id="edge38_Node000018_Node000017" class="edge">
<title>Node18&#45;&gt;Node17</title>
<g id="a_edge38_Node000018_Node000017"><a xlink:title=" ">
<path fill="none" stroke="#63b8ff" d="M898.5,-138.59C885.88,-110.83 858.81,-59.04 821,-28.5 816.29,-24.69 810.72,-21.58 805.07,-19.05"/>
<polygon fill="#63b8ff" stroke="#63b8ff" points="895.39,-140.22 902.63,-147.96 901.8,-137.4 895.39,-140.22"/>
</a>
</g>
</g>
</g>
</svg>
