<?xml version="1.0" encoding="UTF-8" standalone="no"?>
<!DOCTYPE svg PUBLIC "-//W3C//DTD SVG 1.1//EN"
 "http://www.w3.org/Graphics/SVG/1.1/DTD/svg11.dtd">
<!-- Generated by graphviz version 2.43.0 (0)
 -->
<!-- Title: ParseTorus Pages: 1 -->
<svg width="490pt" height="172pt"
 viewBox="0.00 0.00 490.00 171.65" xmlns="http://www.w3.org/2000/svg" xmlns:xlink="http://www.w3.org/1999/xlink">
<g id="graph0" class="graph" transform="scale(1 1) rotate(0) translate(4 167.65)">
<title>ParseTorus</title>
<!-- Node1 -->
<g id="Node000001" class="node">
<title>Node1</title>
<g id="a_Node000001"><a xlink:title=" ">
<polygon fill="#999999" stroke="#666666" points="68,-88.65 0,-88.65 0,-69.65 68,-69.65 68,-88.65"/>
<text text-anchor="middle" x="34" y="-76.65" font-family="Helvetica,sans-Serif" font-size="10.00">ParseTorus</text>
</a>
</g>
</g>
<!-- Node2 -->
<g id="Node000002" class="node">
<title>Node2</title>
<g id="a_Node000002"><a xlink:href="../../dc/d25/classRayTracer_1_1Scene.html#a596cfa5f2e69ddd8a341f3b10fdcf1b2" target="_top" xlink:title="Add a geometry object to the scene.">
<polygon fill="white" stroke="#666666" points="259,-163.65 104,-163.65 104,-144.65 259,-144.65 259,-163.65"/>
<text text-anchor="middle" x="181.5" y="-151.65" font-family="Helvetica,sans-Serif" font-size="10.00">RayTracer::Scene::addObject</text>
</a>
</g>
</g>
<!-- Node1&#45;&gt;Node2 -->
<g id="edge1_Node000001_Node000002" class="edge">
<title>Node1&#45;&gt;Node2</title>
<g id="a_edge1_Node000001_Node000002"><a xlink:title=" ">
<path fill="none" stroke="#63b8ff" d="M43.83,-88.81C56.08,-101.61 79.51,-123.99 104,-136.15 107.85,-138.06 111.91,-139.78 116.07,-141.31"/>
<polygon fill="#63b8ff" stroke="#63b8ff" points="115.32,-144.75 125.91,-144.58 117.52,-138.11 115.32,-144.75"/>
</a>
</g>
</g>
<!-- Node3 -->
<g id="Node000003" class="node">
<title>Node3</title>
<g id="a_Node000003"><a xlink:href="../../d3/d79/SceneParser_8cpp.html#aa782e54e3eee3a001fb792cc4026fb20" target="_top" xlink:title=" ">
<polygon fill="white" stroke="#666666" points="230.5,-126.65 132.5,-126.65 132.5,-107.65 230.5,-107.65 230.5,-126.65"/>
<text text-anchor="middle" x="181.5" y="-114.65" font-family="Helvetica,sans-Serif" font-size="10.00">ApplyTransforms</text>
</a>
</g>
</g>
<!-- Node1&#45;&gt;Node3 -->
<g id="edge2_Node000001_Node000003" class="edge">
<title>Node1&#45;&gt;Node3</title>
<g id="a_edge2_Node000001_Node000003"><a xlink:title=" ">
<path fill="none" stroke="#63b8ff" d="M68.02,-87.78C87.56,-92.88 112.62,-99.42 134.13,-105.04"/>
<polygon fill="#63b8ff" stroke="#63b8ff" points="133.48,-108.49 144.04,-107.63 135.25,-101.72 133.48,-108.49"/>
</a>
</g>
</g>
<!-- Node7 -->
<g id="Node000007" class="node">
<title>Node7</title>
<g id="a_Node000007"><a xlink:href="../../d3/d79/SceneParser_8cpp.html#a2f2fded85eeec23ebae4e1c2e9fe96aa" target="_top" xlink:title=" ">
<polygon fill="white" stroke="#666666" points="371.5,-50.65 302.5,-50.65 302.5,-31.65 371.5,-31.65 371.5,-50.65"/>
<text text-anchor="middle" x="337" y="-38.65" font-family="Helvetica,sans-Serif" font-size="10.00">parseColor</text>
</a>
</g>
</g>
<!-- Node1&#45;&gt;Node7 -->
<g id="edge6_Node000001_Node000007" class="edge">
<title>Node1&#45;&gt;Node7</title>
<g id="a_edge6_Node000001_Node000007"><a xlink:title=" ">
<path fill="none" stroke="#63b8ff" d="M68.22,-77.97C112.14,-76.03 191.8,-71.22 259,-60.15 269.81,-58.37 281.34,-55.86 292.1,-53.25"/>
<polygon fill="#63b8ff" stroke="#63b8ff" points="293.28,-56.56 302.12,-50.73 291.57,-49.77 293.28,-56.56"/>
</a>
</g>
</g>
<!-- Node8 -->
<g id="Node000008" class="node">
<title>Node8</title>
<g id="a_Node000008"><a xlink:href="../../d3/d79/SceneParser_8cpp.html#ab07eea3323845932b0e5c43bec9396d5" target="_top" xlink:title=" ">
<polygon fill="white" stroke="#666666" points="482,-31.65 415,-31.65 415,-12.65 482,-12.65 482,-31.65"/>
<text text-anchor="middle" x="448.5" y="-19.65" font-family="Helvetica,sans-Serif" font-size="10.00">parseVec3</text>
</a>
</g>
</g>
<!-- Node1&#45;&gt;Node8 -->
<g id="edge8_Node000001_Node000008" class="edge">
<title>Node1&#45;&gt;Node8</title>
<g id="a_edge8_Node000001_Node000008"><a xlink:title=" ">
<path fill="none" stroke="#63b8ff" d="M43.11,-69.29C54.88,-55.84 78.13,-32.37 104,-23.15 206.65,13.43 337.76,-1.7 404.41,-13.36"/>
<polygon fill="#63b8ff" stroke="#63b8ff" points="404.08,-16.86 414.54,-15.19 405.32,-9.97 404.08,-16.86"/>
</a>
</g>
</g>
<!-- Node9 -->
<g id="Node000009" class="node">
<title>Node9</title>
<g id="a_Node000009"><a xlink:href="../../d3/d79/SceneParser_8cpp.html#a8b7e43054abc89463b4746c81fe05f73" target="_top" xlink:title=" ">
<polygon fill="white" stroke="#666666" points="228,-50.65 135,-50.65 135,-31.65 228,-31.65 228,-50.65"/>
<text text-anchor="middle" x="181.5" y="-38.65" font-family="Helvetica,sans-Serif" font-size="10.00">resolveMaterial</text>
</a>
</g>
</g>
<!-- Node1&#45;&gt;Node9 -->
<g id="edge9_Node000001_Node000009" class="edge">
<title>Node1&#45;&gt;Node9</title>
<g id="a_edge9_Node000001_Node000009"><a xlink:title=" ">
<path fill="none" stroke="#63b8ff" d="M68.02,-70.53C87.56,-65.43 112.62,-58.88 134.13,-53.26"/>
<polygon fill="#63b8ff" stroke="#63b8ff" points="135.25,-56.59 144.04,-50.67 133.48,-49.82 135.25,-56.59"/>
</a>
</g>
</g>
<!-- Node4 -->
<g id="Node000004" class="node">
<title>Node4</title>
<g id="a_Node000004"><a xlink:href="../../d3/d79/SceneParser_8cpp.html#ae3517631b63ce9e4328bc51373bf45a3" target="_top" xlink:title=" ">
<polygon fill="white" stroke="#666666" points="374,-163.65 300,-163.65 300,-144.65 374,-144.65 374,-163.65"/>
<text text-anchor="middle" x="337" y="-151.65" font-family="Helvetica,sans-Serif" font-size="10.00">ParseMatrix</text>
</a>
</g>
</g>
<!-- Node3&#45;&gt;Node4 -->
<g id="edge3_Node000003_Node000004" class="edge">
<title>Node3&#45;&gt;Node4</title>
<g id="a_edge3_Node000003_Node000004"><a xlink:title=" ">
<path fill="none" stroke="#63b8ff" d="M222.03,-126.68C242.74,-131.67 268.21,-137.81 289.82,-143.02"/>
<polygon fill="#63b8ff" stroke="#63b8ff" points="289.22,-146.48 299.76,-145.42 290.86,-139.67 289.22,-146.48"/>
</a>
</g>
</g>
<!-- Node5 -->
<g id="Node000005" class="node">
<title>Node5</title>
<g id="a_Node000005"><a xlink:href="../../d3/d79/SceneParser_8cpp.html#ab610c3a763bad5cb0f39e0d2f61a0c84" target="_top" xlink:title=" ">
<polygon fill="white" stroke="#666666" points="379,-126.65 295,-126.65 295,-107.65 379,-107.65 379,-126.65"/>
<text text-anchor="middle" x="337" y="-114.65" font-family="Helvetica,sans-Serif" font-size="10.00">ParseRotation</text>
</a>
</g>
</g>
<!-- Node3&#45;&gt;Node5 -->
<g id="edge4_Node000003_Node000005" class="edge">
<title>Node3&#45;&gt;Node5</title>
<g id="a_edge4_Node000003_Node000005"><a xlink:title=" ">
<path fill="none" stroke="#63b8ff" d="M230.65,-117.15C247.92,-117.15 267.45,-117.15 284.96,-117.15"/>
<polygon fill="#63b8ff" stroke="#63b8ff" points="285,-120.65 295,-117.15 285,-113.65 285,-120.65"/>
</a>
</g>
</g>
<!-- Node6 -->
<g id="Node000006" class="node">
<title>Node6</title>
<g id="a_Node000006"><a xlink:href="../../d3/d79/SceneParser_8cpp.html#a16ef5180e27cc191fa8b0948fef6446f" target="_top" xlink:title=" ">
<polygon fill="white" stroke="#666666" points="372.5,-89.65 301.5,-89.65 301.5,-70.65 372.5,-70.65 372.5,-89.65"/>
<text text-anchor="middle" x="337" y="-77.65" font-family="Helvetica,sans-Serif" font-size="10.00">ParseShear</text>
</a>
</g>
</g>
<!-- Node3&#45;&gt;Node6 -->
<g id="edge5_Node000003_Node000006" class="edge">
<title>Node3&#45;&gt;Node6</title>
<g id="a_edge5_Node000003_Node000006"><a xlink:title=" ">
<path fill="none" stroke="#63b8ff" d="M222.03,-107.62C243.29,-102.5 269.58,-96.16 291.55,-90.87"/>
<polygon fill="#63b8ff" stroke="#63b8ff" points="292.4,-94.26 301.31,-88.51 290.76,-87.46 292.4,-94.26"/>
</a>
</g>
</g>
<!-- Node7&#45;&gt;Node8 -->
<g id="edge7_Node000007_Node000008" class="edge">
<title>Node7&#45;&gt;Node8</title>
<g id="a_edge7_Node000007_Node000008"><a xlink:title=" ">
<path fill="none" stroke="#63b8ff" d="M371.75,-35.3C382.24,-33.48 393.94,-31.45 404.94,-29.54"/>
<polygon fill="#63b8ff" stroke="#63b8ff" points="405.55,-32.98 414.8,-27.83 404.35,-26.09 405.55,-32.98"/>
</a>
</g>
</g>
<!-- Node9&#45;&gt;Node7 -->
<g id="edge10_Node000009_Node000007" class="edge">
<title>Node9&#45;&gt;Node7</title>
<g id="a_edge10_Node000009_Node000007"><a xlink:title=" ">
<path fill="none" stroke="#63b8ff" d="M228.14,-41.15C248.46,-41.15 272.28,-41.15 292.36,-41.15"/>
<polygon fill="#63b8ff" stroke="#63b8ff" points="292.48,-44.65 302.48,-41.15 292.48,-37.65 292.48,-44.65"/>
</a>
</g>
</g>
</g>
</svg>
