<?xml version="1.0" encoding="UTF-8" standalone="no"?>
<!DOCTYPE svg PUBLIC "-//W3C//DTD SVG 1.1//EN"
 "http://www.w3.org/Graphics/SVG/1.1/DTD/svg11.dtd">
<!-- Generated by graphviz version 2.43.0 (0)
 -->
<!-- Title: parseVec3 Pages: 1 -->
<svg width="1177pt" height="863pt"
 viewBox="0.00 0.00 1177.00 863.00" xmlns="http://www.w3.org/2000/svg" xmlns:xlink="http://www.w3.org/1999/xlink">
<g id="graph0" class="graph" transform="scale(1 1) rotate(0) translate(4 859)">
<title>parseVec3</title>
<!-- Node1 -->
<g id="Node000001" class="node">
<title>Node1</title>
<g id="a_Node000001"><a xlink:title=" ">
<polygon fill="#999999" stroke="#666666" points="1169,-456 1102,-456 1102,-437 1169,-437 1169,-456"/>
<text text-anchor="middle" x="1135.5" y="-444" font-family="Helvetica,sans-Serif" font-size="10.00">parseVec3</text>
</a>
</g>
</g>
<!-- Node2 -->
<g id="Node000002" class="node">
<title>Node2</title>
<g id="a_Node000002"><a xlink:href="../../d3/d79/SceneParser_8cpp.html#ad262901d3d20b2d0a15d937abb911dbd" target="_top" xlink:title=" ">
<polygon fill="white" stroke="#666666" points="807.5,-545 735.5,-545 735.5,-526 807.5,-526 807.5,-545"/>
<text text-anchor="middle" x="771.5" y="-533" font-family="Helvetica,sans-Serif" font-size="10.00">ParseBoxes</text>
</a>
</g>
</g>
<!-- Node1&#45;&gt;Node2 -->
<g id="edge1_Node000001_Node000002" class="edge">
<title>Node1&#45;&gt;Node2</title>
<g id="a_edge1_Node000001_Node000002"><a xlink:title=" ">
<path fill="none" stroke="#63b8ff" d="M1112.36,-461.75C1099.39,-469.99 1082.38,-479.65 1066,-485.5 976.44,-517.5 864,-529.33 807.84,-533.45"/>
<polygon fill="#63b8ff" stroke="#63b8ff" points="1114.57,-464.48 1121.02,-456.07 1110.74,-458.62 1114.57,-464.48"/>
</a>
</g>
</g>
<!-- Node8 -->
<g id="Node000008" class="node">
<title>Node8</title>
<g id="a_Node000008"><a xlink:href="../../d3/d79/SceneParser_8cpp.html#a719f34dae6ee5f4594209dea344bdee0" target="_top" xlink:title=" ">
<polygon fill="white" stroke="#666666" points="948,-855 867,-855 867,-836 948,-836 948,-855"/>
<text text-anchor="middle" x="907.5" y="-843" font-family="Helvetica,sans-Serif" font-size="10.00">ParseCamera</text>
</a>
</g>
</g>
<!-- Node1&#45;&gt;Node8 -->
<g id="edge8_Node000001_Node000008" class="edge">
<title>Node1&#45;&gt;Node8</title>
<g id="a_edge8_Node000001_Node000008"><a xlink:title=" ">
<path fill="none" stroke="#63b8ff" d="M1133.59,-466.34C1130.01,-535.06 1114.67,-761.49 1066,-811.5 1035.66,-842.67 984.07,-848.52 948.23,-848.31"/>
<polygon fill="#63b8ff" stroke="#63b8ff" points="1137.1,-466.22 1134.09,-456.06 1130.1,-465.87 1137.1,-466.22"/>
</a>
</g>
</g>
<!-- Node9 -->
<g id="Node000009" class="node">
<title>Node9</title>
<g id="a_Node000009"><a xlink:href="../../d3/d79/SceneParser_8cpp.html#a2f2fded85eeec23ebae4e1c2e9fe96aa" target="_top" xlink:title=" ">
<polygon fill="white" stroke="#666666" points="1064.5,-456 995.5,-456 995.5,-437 1064.5,-437 1064.5,-456"/>
<text text-anchor="middle" x="1030" y="-444" font-family="Helvetica,sans-Serif" font-size="10.00">parseColor</text>
</a>
</g>
</g>
<!-- Node1&#45;&gt;Node9 -->
<g id="edge10_Node000001_Node000009" class="edge">
<title>Node1&#45;&gt;Node9</title>
<g id="a_edge10_Node000001_Node000009"><a xlink:title=" ">
<path fill="none" stroke="#63b8ff" d="M1091.75,-446.5C1082.7,-446.5 1073.26,-446.5 1064.6,-446.5"/>
<polygon fill="#63b8ff" stroke="#63b8ff" points="1091.75,-450 1101.75,-446.5 1091.75,-443 1091.75,-450"/>
</a>
</g>
</g>
<!-- Node10 -->
<g id="Node000010" class="node">
<title>Node10</title>
<g id="a_Node000010"><a xlink:href="../../d3/d79/SceneParser_8cpp.html#acadf69d0ff9684ba689927979b304f6a" target="_top" xlink:title=" ">
<polygon fill="white" stroke="#666666" points="808,-498 735,-498 735,-479 808,-479 808,-498"/>
<text text-anchor="middle" x="771.5" y="-486" font-family="Helvetica,sans-Serif" font-size="10.00">ParseCones</text>
</a>
</g>
</g>
<!-- Node1&#45;&gt;Node10 -->
<g id="edge43_Node000001_Node000010" class="edge">
<title>Node1&#45;&gt;Node10</title>
<g id="a_edge43_Node000001_Node000010"><a xlink:title=" ">
<path fill="none" stroke="#63b8ff" d="M1093.17,-458.78C1084.26,-461.2 1074.85,-463.58 1066,-465.5 1018.51,-475.79 1006.38,-477.93 958,-482.5 906.03,-487.41 845.55,-488.51 808.14,-488.65"/>
<polygon fill="#63b8ff" stroke="#63b8ff" points="1094.27,-462.11 1102.97,-456.06 1092.4,-455.37 1094.27,-462.11"/>
</a>
</g>
</g>
<!-- Node11 -->
<g id="Node000011" class="node">
<title>Node11</title>
<g id="a_Node000011"><a xlink:href="../../d3/d79/SceneParser_8cpp.html#a58b4651708d2a5da5625f2412bd84bd7" target="_top" xlink:title=" ">
<polygon fill="white" stroke="#666666" points="816,-676 727,-676 727,-657 816,-657 816,-676"/>
<text text-anchor="middle" x="771.5" y="-664" font-family="Helvetica,sans-Serif" font-size="10.00">ParseCylinders</text>
</a>
</g>
</g>
<!-- Node1&#45;&gt;Node11 -->
<g id="edge44_Node000001_Node000011" class="edge">
<title>Node1&#45;&gt;Node11</title>
<g id="a_edge44_Node000001_Node000011"><a xlink:title=" ">
<path fill="none" stroke="#63b8ff" d="M1124.62,-465.05C1112.97,-485.42 1091.87,-517.96 1066,-538.5 985.89,-602.1 869.32,-640.4 810.08,-656.91"/>
<polygon fill="#63b8ff" stroke="#63b8ff" points="1127.78,-466.57 1129.57,-456.13 1121.66,-463.18 1127.78,-466.57"/>
</a>
</g>
</g>
<!-- Node12 -->
<g id="Node000012" class="node">
<title>Node12</title>
<g id="a_Node000012"><a xlink:href="../../d3/d79/SceneParser_8cpp.html#a17fe6719bd49ea3c89cdbe743f9fbe49" target="_top" xlink:title=" ">
<polygon fill="white" stroke="#666666" points="958,-817 857,-817 857,-798 958,-798 958,-817"/>
<text text-anchor="middle" x="907.5" y="-805" font-family="Helvetica,sans-Serif" font-size="10.00">parseMaterialDef</text>
</a>
</g>
</g>
<!-- Node1&#45;&gt;Node12 -->
<g id="edge47_Node000001_Node000012" class="edge">
<title>Node1&#45;&gt;Node12</title>
<g id="a_edge47_Node000001_Node000012"><a xlink:title=" ">
<path fill="none" stroke="#63b8ff" d="M1133.37,-466.18C1129.22,-531.46 1112.51,-739.23 1066,-783.5 1037.75,-810.39 992.84,-814.94 958.19,-813.6"/>
<polygon fill="#63b8ff" stroke="#63b8ff" points="1136.88,-466.22 1133.99,-456.03 1129.89,-465.8 1136.88,-466.22"/>
</a>
</g>
</g>
<!-- Node13 -->
<g id="Node000013" class="node">
<title>Node13</title>
<g id="a_Node000013"><a xlink:href="../../d3/d79/SceneParser_8cpp.html#a1122aa28b0a7f73c44adaf6dca1d5750" target="_top" xlink:title=" ">
<polygon fill="white" stroke="#666666" points="811.5,-607 731.5,-607 731.5,-588 811.5,-588 811.5,-607"/>
<text text-anchor="middle" x="771.5" y="-595" font-family="Helvetica,sans-Serif" font-size="10.00">ParseMenger</text>
</a>
</g>
</g>
<!-- Node1&#45;&gt;Node13 -->
<g id="edge48_Node000001_Node000013" class="edge">
<title>Node1&#45;&gt;Node13</title>
<g id="a_edge48_Node000001_Node000013"><a xlink:title=" ">
<path fill="none" stroke="#63b8ff" d="M1119.45,-463.83C1106.54,-477.71 1086.77,-496.74 1066,-508.5 982.13,-555.97 870.14,-580.81 811.72,-591.28"/>
<polygon fill="#63b8ff" stroke="#63b8ff" points="1122.11,-466.11 1126.22,-456.34 1116.91,-461.41 1122.11,-466.11"/>
</a>
</g>
</g>
<!-- Node14 -->
<g id="Node000014" class="node">
<title>Node14</title>
<g id="a_Node000014"><a xlink:href="../../d3/d79/SceneParser_8cpp.html#a26f05fcddd9c159c09c9cedc7bdf844a" target="_top" xlink:title=" ">
<polygon fill="white" stroke="#666666" points="811.5,-175 731.5,-175 731.5,-156 811.5,-156 811.5,-175"/>
<text text-anchor="middle" x="771.5" y="-163" font-family="Helvetica,sans-Serif" font-size="10.00">ParseMeshes</text>
</a>
</g>
</g>
<!-- Node1&#45;&gt;Node14 -->
<g id="edge49_Node000001_Node000014" class="edge">
<title>Node1&#45;&gt;Node14</title>
<g id="a_edge49_Node000001_Node000014"><a xlink:title=" ">
<path fill="none" stroke="#63b8ff" d="M1130.92,-426.79C1123.98,-393.96 1105.77,-327.78 1066,-288.5 993.68,-217.06 873.7,-184.77 811.93,-172.26"/>
<polygon fill="#63b8ff" stroke="#63b8ff" points="1127.55,-427.79 1132.92,-436.92 1134.41,-426.43 1127.55,-427.79"/>
</a>
</g>
</g>
<!-- Node16 -->
<g id="Node000016" class="node">
<title>Node16</title>
<g id="a_Node000016"><a xlink:href="../../d3/d79/SceneParser_8cpp.html#a1113dafd3e97959e0e81c1d2fd42cd81" target="_top" xlink:title=" ">
<polygon fill="white" stroke="#666666" points="817,-405 726,-405 726,-386 817,-386 817,-405"/>
<text text-anchor="middle" x="771.5" y="-393" font-family="Helvetica,sans-Serif" font-size="10.00">ParseSierpinski</text>
</a>
</g>
</g>
<!-- Node1&#45;&gt;Node16 -->
<g id="edge50_Node000001_Node000016" class="edge">
<title>Node1&#45;&gt;Node16</title>
<g id="a_edge50_Node000001_Node000016"><a xlink:title=" ">
<path fill="none" stroke="#63b8ff" d="M1102.58,-433.08C1067.76,-419.24 1010.05,-398.56 958,-390.5 913.64,-383.63 901.87,-389.17 857,-390.5 844.07,-390.88 830.05,-391.59 817.21,-392.36"/>
<polygon fill="#63b8ff" stroke="#63b8ff" points="1101.61,-436.47 1112.19,-436.96 1104.23,-429.98 1101.61,-436.47"/>
</a>
</g>
</g>
<!-- Node17 -->
<g id="Node000017" class="node">
<title>Node17</title>
<g id="a_Node000017"><a xlink:href="../../d3/d79/SceneParser_8cpp.html#aa379bf06dc8b31c936030d2fc900e73c" target="_top" xlink:title=" ">
<polygon fill="white" stroke="#666666" points="812.5,-367 730.5,-367 730.5,-348 812.5,-348 812.5,-367"/>
<text text-anchor="middle" x="771.5" y="-355" font-family="Helvetica,sans-Serif" font-size="10.00">ParseSpheres</text>
</a>
</g>
</g>
<!-- Node1&#45;&gt;Node17 -->
<g id="edge51_Node000001_Node000017" class="edge">
<title>Node1&#45;&gt;Node17</title>
<g id="a_edge51_Node000001_Node000017"><a xlink:title=" ">
<path fill="none" stroke="#63b8ff" d="M1117.73,-429.7C1104.76,-417.79 1085.73,-402.55 1066,-394.5 980.64,-359.68 870.69,-355.5 812.6,-356.11"/>
<polygon fill="#63b8ff" stroke="#63b8ff" points="1115.67,-432.57 1125.32,-436.93 1120.5,-427.5 1115.67,-432.57"/>
</a>
</g>
</g>
<!-- Node18 -->
<g id="Node000018" class="node">
<title>Node18</title>
<g id="a_Node000018"><a xlink:href="../../d3/d79/SceneParser_8cpp.html#abe09300f6764206d0215ca7b12403972" target="_top" xlink:title=" ">
<polygon fill="white" stroke="#666666" points="821,-307 722,-307 722,-288 821,-288 821,-307"/>
<text text-anchor="middle" x="771.5" y="-295" font-family="Helvetica,sans-Serif" font-size="10.00">ParseTangleCube</text>
</a>
</g>
</g>
<!-- Node1&#45;&gt;Node18 -->
<g id="edge52_Node000001_Node000018" class="edge">
<title>Node1&#45;&gt;Node18</title>
<g id="a_edge52_Node000001_Node000018"><a xlink:title=" ">
<path fill="none" stroke="#63b8ff" d="M1122.86,-427.91C1110.79,-410.2 1090.31,-384.14 1066,-369.5 988.48,-322.8 882.17,-306.35 821.06,-300.58"/>
<polygon fill="#63b8ff" stroke="#63b8ff" points="1120.26,-430.32 1128.67,-436.76 1126.11,-426.48 1120.26,-430.32"/>
</a>
</g>
</g>
<!-- Node19 -->
<g id="Node000019" class="node">
<title>Node19</title>
<g id="a_Node000019"><a xlink:href="../../d3/d79/SceneParser_8cpp.html#aa2d4ee6129dea0eeb1ad8100b5026239" target="_top" xlink:title=" ">
<polygon fill="white" stroke="#666666" points="805.5,-251 737.5,-251 737.5,-232 805.5,-232 805.5,-251"/>
<text text-anchor="middle" x="771.5" y="-239" font-family="Helvetica,sans-Serif" font-size="10.00">ParseTorus</text>
</a>
</g>
</g>
<!-- Node1&#45;&gt;Node19 -->
<g id="edge53_Node000001_Node000019" class="edge">
<title>Node1&#45;&gt;Node19</title>
<g id="a_edge53_Node000001_Node000019"><a xlink:title=" ">
<path fill="none" stroke="#63b8ff" d="M1127.76,-427.16C1118.01,-401.98 1097.6,-358.27 1066,-333.5 986.36,-271.07 863.8,-250.66 805.5,-244.26"/>
<polygon fill="#63b8ff" stroke="#63b8ff" points="1124.54,-428.54 1131.28,-436.71 1131.1,-426.11 1124.54,-428.54"/>
</a>
</g>
</g>
<!-- Node21 -->
<g id="Node000021" class="node">
<title>Node21</title>
<g id="a_Node000021"><a xlink:href="../../d3/d79/SceneParser_8cpp.html#af22a6492d8f86f926251f747c2d82318" target="_top" xlink:title=" ">
<polygon fill="white" stroke="#666666" points="1066,-19 994,-19 994,0 1066,0 1066,-19"/>
<text text-anchor="middle" x="1030" y="-7" font-family="Helvetica,sans-Serif" font-size="10.00">ParseLights</text>
</a>
</g>
</g>
<!-- Node1&#45;&gt;Node21 -->
<g id="edge45_Node000001_Node000021" class="edge">
<title>Node1&#45;&gt;Node21</title>
<g id="a_edge45_Node000001_Node000021"><a xlink:title=" ">
<path fill="none" stroke="#63b8ff" d="M1133.25,-426.64C1128.36,-353.57 1108.62,-100.42 1066,-33.5 1062.28,-27.66 1056.57,-22.87 1050.84,-19.15"/>
<polygon fill="#63b8ff" stroke="#63b8ff" points="1129.77,-427.02 1133.91,-436.77 1136.76,-426.56 1129.77,-427.02"/>
</a>
</g>
</g>
<!-- Node3 -->
<g id="Node000003" class="node">
<title>Node3</title>
<g id="a_Node000003"><a xlink:href="../../d1/df4/namespaceRayTracer.html#a4bbc9c3996d70f6a71cf4d185a4811d6" target="_top" xlink:title="Loads a single scene file (non&#45;recursive).">
<polygon fill="white" stroke="#666666" points="686,-442 565,-442 565,-423 686,-423 686,-442"/>
<text text-anchor="middle" x="625.5" y="-430" font-family="Helvetica,sans-Serif" font-size="10.00">RayTracer::loadScene</text>
</a>
</g>
</g>
<!-- Node2&#45;&gt;Node3 -->
<g id="edge2_Node000002_Node000003" class="edge">
<title>Node2&#45;&gt;Node3</title>
<g id="a_edge2_Node000002_Node000003"><a xlink:title=" ">
<path fill="none" stroke="#63b8ff" d="M743.85,-521.02C736.63,-516.86 728.91,-512.17 722,-507.5 690.04,-485.89 654.97,-456.85 637.57,-442.05"/>
<polygon fill="#63b8ff" stroke="#63b8ff" points="742.19,-524.11 752.62,-525.98 745.64,-518.01 742.19,-524.11"/>
</a>
</g>
</g>
<!-- Node4 -->
<g id="Node000004" class="node">
<title>Node4</title>
<g id="a_Node000004"><a xlink:href="../../d1/df4/namespaceRayTracer.html#a9aa92d0c88c2ac9be33f27ba71e8ceaa" target="_top" xlink:title="Recursively loads a scene and any referenced sub&#45;scenes from file(s).">
<polygon fill="white" stroke="#666666" points="529,-442 360,-442 360,-423 529,-423 529,-442"/>
<text text-anchor="middle" x="444.5" y="-430" font-family="Helvetica,sans-Serif" font-size="10.00">RayTracer::loadSceneRecursive</text>
</a>
</g>
</g>
<!-- Node3&#45;&gt;Node4 -->
<g id="edge3_Node000003_Node000004" class="edge">
<title>Node3&#45;&gt;Node4</title>
<g id="a_edge3_Node000003_Node000004"><a xlink:title=" ">
<path fill="none" stroke="#63b8ff" d="M554.76,-432.5C546.34,-432.5 537.67,-432.5 529.08,-432.5"/>
<polygon fill="#63b8ff" stroke="#63b8ff" points="554.9,-436 564.9,-432.5 554.9,-429 554.9,-436"/>
</a>
</g>
</g>
<!-- Node4&#45;&gt;Node4 -->
<g id="edge7_Node000004_Node000004" class="edge">
<title>Node4&#45;&gt;Node4</title>
<g id="a_edge7_Node000004_Node000004"><a xlink:title=" ">
<path fill="none" stroke="#63b8ff" d="M478.18,-450.45C477.22,-455.82 465.99,-460 444.5,-460 412.51,-460 403.26,-450.73 416.76,-442.08"/>
<polygon fill="#63b8ff" stroke="#63b8ff" points="480.89,-448.21 472.24,-442.08 475.18,-452.26 480.89,-448.21"/>
</a>
</g>
</g>
<!-- Node5 -->
<g id="Node000005" class="node">
<title>Node5</title>
<g id="a_Node000005"><a xlink:href="../../d4/d3d/namespaceUtils.html#a763a2a5523575e2175022d2623a77d05" target="_top" xlink:title="Loads a scene from file, or exits on failure.">
<polygon fill="white" stroke="#666666" points="324,-442 199,-442 199,-423 324,-423 324,-442"/>
<text text-anchor="middle" x="261.5" y="-430" font-family="Helvetica,sans-Serif" font-size="10.00">Utils::loadSceneOrExit</text>
</a>
</g>
</g>
<!-- Node4&#45;&gt;Node5 -->
<g id="edge4_Node000004_Node000005" class="edge">
<title>Node4&#45;&gt;Node5</title>
<g id="a_edge4_Node000004_Node000005"><a xlink:title=" ">
<path fill="none" stroke="#63b8ff" d="M349.71,-432.5C341.04,-432.5 332.4,-432.5 324.13,-432.5"/>
<polygon fill="#63b8ff" stroke="#63b8ff" points="349.89,-436 359.89,-432.5 349.89,-429 349.89,-436"/>
</a>
</g>
</g>
<!-- Node6 -->
<g id="Node000006" class="node">
<title>Node6</title>
<g id="a_Node000006"><a xlink:href="../../dd/dea/classRaytracer.html#a844a5a660abbb9d21608fc170074e0c5" target="_top" xlink:title="Launch the raytracing process.">
<polygon fill="white" stroke="#666666" points="163,-442 77,-442 77,-423 163,-423 163,-442"/>
<text text-anchor="middle" x="120" y="-430" font-family="Helvetica,sans-Serif" font-size="10.00">Raytracer::run</text>
</a>
</g>
</g>
<!-- Node5&#45;&gt;Node6 -->
<g id="edge5_Node000005_Node000006" class="edge">
<title>Node5&#45;&gt;Node6</title>
<g id="a_edge5_Node000005_Node000006"><a xlink:title=" ">
<path fill="none" stroke="#63b8ff" d="M188.64,-432.5C179.88,-432.5 171.17,-432.5 163.05,-432.5"/>
<polygon fill="#63b8ff" stroke="#63b8ff" points="188.91,-436 198.91,-432.5 188.91,-429 188.91,-436"/>
</a>
</g>
</g>
<!-- Node7 -->
<g id="Node000007" class="node">
<title>Node7</title>
<g id="a_Node000007"><a xlink:href="../../df/d0a/main_8cpp.html#a0ddf1224851353fc92bfbff6f499fa97" target="_top" xlink:title="Raimond is a good Raytracer. Logic, it&#39;s Raimond.">
<polygon fill="white" stroke="#666666" points="41,-442 0,-442 0,-423 41,-423 41,-442"/>
<text text-anchor="middle" x="20.5" y="-430" font-family="Helvetica,sans-Serif" font-size="10.00">main</text>
</a>
</g>
</g>
<!-- Node6&#45;&gt;Node7 -->
<g id="edge6_Node000006_Node000007" class="edge">
<title>Node6&#45;&gt;Node7</title>
<g id="a_edge6_Node000006_Node000007"><a xlink:title=" ">
<path fill="none" stroke="#63b8ff" d="M66.52,-432.5C57.42,-432.5 48.5,-432.5 41.03,-432.5"/>
<polygon fill="#63b8ff" stroke="#63b8ff" points="66.8,-436 76.8,-432.5 66.8,-429 66.8,-436"/>
</a>
</g>
</g>
<!-- Node8&#45;&gt;Node3 -->
<g id="edge9_Node000008_Node000003" class="edge">
<title>Node8&#45;&gt;Node3</title>
<g id="a_edge9_Node000008_Node000003"><a xlink:title=" ">
<path fill="none" stroke="#63b8ff" d="M865.78,-832.53C823.48,-816.95 758.48,-786.71 722,-738.5 647.45,-639.98 630.38,-482.22 627.16,-442.05"/>
<polygon fill="#63b8ff" stroke="#63b8ff" points="864.64,-835.84 875.23,-835.91 866.99,-829.25 864.64,-835.84"/>
</a>
</g>
</g>
<!-- Node9&#45;&gt;Node2 -->
<g id="edge11_Node000009_Node000002" class="edge">
<title>Node9&#45;&gt;Node2</title>
<g id="a_edge11_Node000009_Node000002"><a xlink:title=" ">
<path fill="none" stroke="#63b8ff" d="M1003.48,-460.93C990.2,-468.06 973.53,-476.41 958,-482.5 907.02,-502.5 845.49,-518.57 807.69,-527.57"/>
<polygon fill="#63b8ff" stroke="#63b8ff" points="1005.39,-463.88 1012.49,-456.01 1002.03,-457.74 1005.39,-463.88"/>
</a>
</g>
</g>
<!-- Node9&#45;&gt;Node10 -->
<g id="edge12_Node000009_Node000010" class="edge">
<title>Node9&#45;&gt;Node10</title>
<g id="a_edge12_Node000009_Node000010"><a xlink:title=" ">
<path fill="none" stroke="#63b8ff" d="M985.5,-456.15C976.43,-458.03 966.92,-459.91 958,-461.5 906.1,-470.75 845.6,-479.11 808.17,-483.99"/>
<polygon fill="#63b8ff" stroke="#63b8ff" points="986.44,-459.53 995.5,-454.04 984.99,-452.68 986.44,-459.53"/>
</a>
</g>
</g>
<!-- Node9&#45;&gt;Node11 -->
<g id="edge14_Node000009_Node000011" class="edge">
<title>Node9&#45;&gt;Node11</title>
<g id="a_edge14_Node000009_Node000011"><a xlink:title=" ">
<path fill="none" stroke="#63b8ff" d="M1019.47,-465.32C1007.42,-487.79 984.97,-525.58 958,-551.5 906.64,-600.86 830.67,-639.74 793.94,-656.92"/>
<polygon fill="#63b8ff" stroke="#63b8ff" points="1022.72,-466.66 1024.25,-456.17 1016.52,-463.42 1022.72,-466.66"/>
</a>
</g>
</g>
<!-- Node9&#45;&gt;Node12 -->
<g id="edge16_Node000009_Node000012" class="edge">
<title>Node9&#45;&gt;Node12</title>
<g id="a_edge16_Node000009_Node000012"><a xlink:title=" ">
<path fill="none" stroke="#63b8ff" d="M1025.02,-466.15C1015.82,-510.2 991.25,-619.85 958,-707.5 944.94,-741.91 924,-780.33 914.07,-797.85"/>
<polygon fill="#63b8ff" stroke="#63b8ff" points="1028.49,-466.69 1027.08,-456.19 1021.63,-465.28 1028.49,-466.69"/>
</a>
</g>
</g>
<!-- Node9&#45;&gt;Node13 -->
<g id="edge18_Node000009_Node000013" class="edge">
<title>Node9&#45;&gt;Node13</title>
<g id="a_edge18_Node000009_Node000013"><a xlink:title=" ">
<path fill="none" stroke="#63b8ff" d="M1013.48,-463.73C999.89,-478.1 979.05,-498.43 958,-512.5 906.17,-547.15 837.93,-574.33 800.34,-587.94"/>
<polygon fill="#63b8ff" stroke="#63b8ff" points="1016.37,-465.76 1020.6,-456.05 1011.24,-461 1016.37,-465.76"/>
</a>
</g>
</g>
<!-- Node9&#45;&gt;Node14 -->
<g id="edge20_Node000009_Node000014" class="edge">
<title>Node9&#45;&gt;Node14</title>
<g id="a_edge20_Node000009_Node000014"><a xlink:title=" ">
<path fill="none" stroke="#63b8ff" d="M1026.46,-426.93C1020.68,-389.65 1003.37,-307.7 958,-257.5 917.87,-213.09 851.47,-187.53 809.95,-175.09"/>
<polygon fill="#63b8ff" stroke="#63b8ff" points="1023.02,-427.58 1027.9,-436.98 1029.95,-426.59 1023.02,-427.58"/>
</a>
</g>
</g>
<!-- Node15 -->
<g id="Node000015" class="node">
<title>Node15</title>
<g id="a_Node000015"><a xlink:href="../../d3/d79/SceneParser_8cpp.html#a9d50142946b8423759ecbfa17c7edc79" target="_top" xlink:title=" ">
<polygon fill="white" stroke="#666666" points="809,-442 734,-442 734,-423 809,-423 809,-442"/>
<text text-anchor="middle" x="771.5" y="-430" font-family="Helvetica,sans-Serif" font-size="10.00">ParsePlanes</text>
</a>
</g>
</g>
<!-- Node9&#45;&gt;Node15 -->
<g id="edge22_Node000009_Node000015" class="edge">
<title>Node9&#45;&gt;Node15</title>
<g id="a_edge22_Node000009_Node000015"><a xlink:title=" ">
<path fill="none" stroke="#63b8ff" d="M985.02,-448.48C950.22,-449.57 900.42,-450.07 857,-446.5 841.29,-445.21 824.1,-442.59 809.36,-439.96"/>
<polygon fill="#63b8ff" stroke="#63b8ff" points="985.44,-451.97 995.32,-448.13 985.2,-444.97 985.44,-451.97"/>
</a>
</g>
</g>
<!-- Node9&#45;&gt;Node16 -->
<g id="edge24_Node000009_Node000016" class="edge">
<title>Node9&#45;&gt;Node16</title>
<g id="a_edge24_Node000009_Node000016"><a xlink:title=" ">
<path fill="none" stroke="#63b8ff" d="M1006.77,-431.45C993.27,-423.13 975.35,-413.5 958,-408.5 911.31,-395.04 855.41,-392.91 817.26,-393.45"/>
<polygon fill="#63b8ff" stroke="#63b8ff" points="1005.03,-434.49 1015.34,-436.92 1008.8,-428.59 1005.03,-434.49"/>
</a>
</g>
</g>
<!-- Node9&#45;&gt;Node17 -->
<g id="edge26_Node000009_Node000017" class="edge">
<title>Node9&#45;&gt;Node17</title>
<g id="a_edge26_Node000009_Node000017"><a xlink:title=" ">
<path fill="none" stroke="#63b8ff" d="M1012.45,-429.5C998.99,-416.72 978.87,-399.87 958,-390.5 910.85,-369.33 851.24,-361.72 812.51,-359"/>
<polygon fill="#63b8ff" stroke="#63b8ff" points="1010.33,-432.32 1019.92,-436.83 1015.23,-427.32 1010.33,-432.32"/>
</a>
</g>
</g>
<!-- Node9&#45;&gt;Node18 -->
<g id="edge28_Node000009_Node000018" class="edge">
<title>Node9&#45;&gt;Node18</title>
<g id="a_edge28_Node000009_Node000018"><a xlink:title=" ">
<path fill="none" stroke="#63b8ff" d="M1018.24,-428.2C1005.96,-408.81 984.16,-378.55 958,-360.5 916.43,-331.81 860.67,-315.21 821.17,-306.32"/>
<polygon fill="#63b8ff" stroke="#63b8ff" points="1015.27,-430.05 1023.48,-436.74 1021.24,-426.39 1015.27,-430.05"/>
</a>
</g>
</g>
<!-- Node9&#45;&gt;Node19 -->
<g id="edge30_Node000009_Node000019" class="edge">
<title>Node9&#45;&gt;Node19</title>
<g id="a_edge30_Node000009_Node000019"><a xlink:title=" ">
<path fill="none" stroke="#63b8ff" d="M1023.4,-426.98C1014.24,-398.34 993.43,-344.91 958,-313.5 913.8,-274.31 845.88,-255.35 805.65,-247.08"/>
<polygon fill="#63b8ff" stroke="#63b8ff" points="1020.08,-428.11 1026.35,-436.65 1026.78,-426.07 1020.08,-428.11"/>
</a>
</g>
</g>
<!-- Node20 -->
<g id="Node000020" class="node">
<title>Node20</title>
<g id="a_Node000020"><a xlink:href="../../d3/d79/SceneParser_8cpp.html#a8b7e43054abc89463b4746c81fe05f73" target="_top" xlink:title=" ">
<polygon fill="white" stroke="#666666" points="954,-437 861,-437 861,-418 954,-418 954,-437"/>
<text text-anchor="middle" x="907.5" y="-425" font-family="Helvetica,sans-Serif" font-size="10.00">resolveMaterial</text>
</a>
</g>
</g>
<!-- Node9&#45;&gt;Node20 -->
<g id="edge32_Node000009_Node000020" class="edge">
<title>Node9&#45;&gt;Node20</title>
<g id="a_edge32_Node000009_Node000020"><a xlink:title=" ">
<path fill="none" stroke="#63b8ff" d="M985.49,-439.64C975.27,-438.03 964.35,-436.31 954.05,-434.68"/>
<polygon fill="#63b8ff" stroke="#63b8ff" points="985.01,-443.11 995.43,-441.21 986.1,-436.19 985.01,-443.11"/>
</a>
</g>
</g>
<!-- Node10&#45;&gt;Node3 -->
<g id="edge13_Node000010_Node000003" class="edge">
<title>Node10&#45;&gt;Node3</title>
<g id="a_edge13_Node000010_Node000003"><a xlink:title=" ">
<path fill="none" stroke="#63b8ff" d="M736.18,-475.15C709.92,-464.94 674.35,-451.11 650.93,-442"/>
<polygon fill="#63b8ff" stroke="#63b8ff" points="735.16,-478.51 745.75,-478.87 737.69,-471.99 735.16,-478.51"/>
</a>
</g>
</g>
<!-- Node11&#45;&gt;Node3 -->
<g id="edge15_Node000011_Node000003" class="edge">
<title>Node11&#45;&gt;Node3</title>
<g id="a_edge15_Node000011_Node000003"><a xlink:title=" ">
<path fill="none" stroke="#63b8ff" d="M751.97,-649.91C742.31,-640.67 730.73,-628.61 722,-616.5 677.81,-555.18 641.86,-470.65 630.36,-442.25"/>
<polygon fill="#63b8ff" stroke="#63b8ff" points="749.83,-652.69 759.53,-656.94 754.6,-647.57 749.83,-652.69"/>
</a>
</g>
</g>
<!-- Node12&#45;&gt;Node3 -->
<g id="edge17_Node000012_Node000003" class="edge">
<title>Node12&#45;&gt;Node3</title>
<g id="a_edge17_Node000012_Node000003"><a xlink:title=" ">
<path fill="none" stroke="#63b8ff" d="M873.36,-793.89C832.12,-775.31 762.23,-738.21 722,-685.5 659.9,-604.14 634.31,-477.88 628.08,-442.19"/>
<polygon fill="#63b8ff" stroke="#63b8ff" points="872.13,-797.17 882.7,-797.99 874.95,-790.76 872.13,-797.17"/>
</a>
</g>
</g>
<!-- Node13&#45;&gt;Node3 -->
<g id="edge19_Node000013_Node000003" class="edge">
<title>Node13&#45;&gt;Node3</title>
<g id="a_edge19_Node000013_Node000003"><a xlink:title=" ">
<path fill="none" stroke="#63b8ff" d="M750.6,-581.28C741.52,-573.53 730.85,-563.91 722,-554.5 685.33,-515.51 647.96,-463.42 633.14,-442.15"/>
<polygon fill="#63b8ff" stroke="#63b8ff" points="748.48,-584.07 758.39,-587.81 752.97,-578.71 748.48,-584.07"/>
</a>
</g>
</g>
<!-- Node14&#45;&gt;Node3 -->
<g id="edge21_Node000014_Node000003" class="edge">
<title>Node14&#45;&gt;Node3</title>
<g id="a_edge21_Node000014_Node000003"><a xlink:title=" ">
<path fill="none" stroke="#63b8ff" d="M753.56,-182.8C743.55,-193.61 731.1,-208.17 722,-222.5 676.26,-294.51 640.52,-392.07 629.81,-422.81"/>
<polygon fill="#63b8ff" stroke="#63b8ff" points="756.3,-184.99 760.64,-175.32 751.22,-180.18 756.3,-184.99"/>
</a>
</g>
</g>
<!-- Node15&#45;&gt;Node3 -->
<g id="edge23_Node000015_Node000003" class="edge">
<title>Node15&#45;&gt;Node3</title>
<g id="a_edge23_Node000015_Node000003"><a xlink:title=" ">
<path fill="none" stroke="#63b8ff" d="M723.58,-432.5C711.62,-432.5 698.59,-432.5 686.08,-432.5"/>
<polygon fill="#63b8ff" stroke="#63b8ff" points="723.79,-436 733.79,-432.5 723.79,-429 723.79,-436"/>
</a>
</g>
</g>
<!-- Node16&#45;&gt;Node3 -->
<g id="edge25_Node000016_Node000003" class="edge">
<title>Node16&#45;&gt;Node3</title>
<g id="a_edge25_Node000016_Node000003"><a xlink:title=" ">
<path fill="none" stroke="#63b8ff" d="M723.59,-407.55C704.27,-412.52 682.18,-418.19 663.96,-422.88"/>
<polygon fill="#63b8ff" stroke="#63b8ff" points="724.6,-410.91 733.42,-405.03 722.86,-404.13 724.6,-410.91"/>
</a>
</g>
</g>
<!-- Node17&#45;&gt;Node3 -->
<g id="edge27_Node000017_Node000003" class="edge">
<title>Node17&#45;&gt;Node3</title>
<g id="a_edge27_Node000017_Node000003"><a xlink:title=" ">
<path fill="none" stroke="#63b8ff" d="M734.66,-370.8C730.35,-372.62 726.04,-374.54 722,-376.5 692.43,-390.85 659.75,-411.02 641.31,-422.82"/>
<polygon fill="#63b8ff" stroke="#63b8ff" points="736.05,-374.02 744,-367.02 733.42,-367.53 736.05,-374.02"/>
</a>
</g>
</g>
<!-- Node18&#45;&gt;Node3 -->
<g id="edge29_Node000018_Node000003" class="edge">
<title>Node18&#45;&gt;Node3</title>
<g id="a_edge29_Node000018_Node000003"><a xlink:title=" ">
<path fill="none" stroke="#63b8ff" d="M750.78,-313.59C741.86,-321.02 731.26,-330.05 722,-338.5 689.35,-368.29 652.56,-405.64 635.76,-422.92"/>
<polygon fill="#63b8ff" stroke="#63b8ff" points="753.24,-316.1 758.72,-307.03 748.79,-310.7 753.24,-316.1"/>
</a>
</g>
</g>
<!-- Node19&#45;&gt;Node3 -->
<g id="edge31_Node000019_Node000003" class="edge">
<title>Node19&#45;&gt;Node3</title>
<g id="a_edge31_Node000019_Node000003"><a xlink:title=" ">
<path fill="none" stroke="#63b8ff" d="M746.58,-257.07C738.24,-263.16 729.19,-270.58 722,-278.5 678.44,-326.48 643.15,-396.96 631.02,-422.66"/>
<polygon fill="#63b8ff" stroke="#63b8ff" points="748.72,-259.84 754.9,-251.24 744.7,-254.11 748.72,-259.84"/>
</a>
</g>
</g>
<!-- Node20&#45;&gt;Node2 -->
<g id="edge33_Node000020_Node000002" class="edge">
<title>Node20&#45;&gt;Node2</title>
<g id="a_edge33_Node000020_Node000002"><a xlink:title=" ">
<path fill="none" stroke="#63b8ff" d="M890.42,-444.69C873.94,-461.78 847.1,-488.15 821,-507.5 811.78,-514.33 800.76,-520.81 791.55,-525.82"/>
<polygon fill="#63b8ff" stroke="#63b8ff" points="893.27,-446.78 897.63,-437.12 888.2,-441.95 893.27,-446.78"/>
</a>
</g>
</g>
<!-- Node20&#45;&gt;Node10 -->
<g id="edge34_Node000020_Node000010" class="edge">
<title>Node20&#45;&gt;Node10</title>
<g id="a_edge34_Node000020_Node000010"><a xlink:title=" ">
<path fill="none" stroke="#63b8ff" d="M876.13,-441.32C851,-452.76 815.94,-468.72 793.73,-478.83"/>
<polygon fill="#63b8ff" stroke="#63b8ff" points="877.91,-444.36 885.56,-437.03 875.01,-437.99 877.91,-444.36"/>
</a>
</g>
</g>
<!-- Node20&#45;&gt;Node11 -->
<g id="edge35_Node000020_Node000011" class="edge">
<title>Node20&#45;&gt;Node11</title>
<g id="a_edge35_Node000020_Node000011"><a xlink:title=" ">
<path fill="none" stroke="#63b8ff" d="M900.29,-446.75C888.31,-482.24 859.74,-559.57 821,-616.5 810.39,-632.1 794.7,-647.25 784.06,-656.71"/>
<polygon fill="#63b8ff" stroke="#63b8ff" points="903.65,-447.74 903.47,-437.14 897,-445.54 903.65,-447.74"/>
</a>
</g>
</g>
<!-- Node20&#45;&gt;Node13 -->
<g id="edge36_Node000020_Node000013" class="edge">
<title>Node20&#45;&gt;Node13</title>
<g id="a_edge36_Node000020_Node000013"><a xlink:title=" ">
<path fill="none" stroke="#63b8ff" d="M896.06,-446.01C881.14,-471.7 852.06,-519.01 821,-554.5 810.03,-567.03 795.53,-579.45 785.26,-587.69"/>
<polygon fill="#63b8ff" stroke="#63b8ff" points="899.29,-447.42 901.23,-437 893.22,-443.94 899.29,-447.42"/>
</a>
</g>
</g>
<!-- Node20&#45;&gt;Node14 -->
<g id="edge37_Node000020_Node000014" class="edge">
<title>Node20&#45;&gt;Node14</title>
<g id="a_edge37_Node000020_Node000014"><a xlink:title=" ">
<path fill="none" stroke="#63b8ff" d="M900.57,-407.86C888.73,-370.2 859.9,-285.93 821,-222.5 809.86,-204.33 793.09,-186.05 782.47,-175.26"/>
<polygon fill="#63b8ff" stroke="#63b8ff" points="897.28,-409.07 903.58,-417.59 903.97,-407 897.28,-409.07"/>
</a>
</g>
</g>
<!-- Node20&#45;&gt;Node15 -->
<g id="edge38_Node000020_Node000015" class="edge">
<title>Node20&#45;&gt;Node15</title>
<g id="a_edge38_Node000020_Node000015"><a xlink:title=" ">
<path fill="none" stroke="#63b8ff" d="M850.71,-429.58C836.68,-430.11 821.99,-430.65 809.17,-431.13"/>
<polygon fill="#63b8ff" stroke="#63b8ff" points="850.9,-433.08 860.76,-429.21 850.64,-426.08 850.9,-433.08"/>
</a>
</g>
</g>
<!-- Node20&#45;&gt;Node16 -->
<g id="edge39_Node000020_Node000016" class="edge">
<title>Node20&#45;&gt;Node16</title>
<g id="a_edge39_Node000020_Node000016"><a xlink:title=" ">
<path fill="none" stroke="#63b8ff" d="M856.76,-415.62C842.14,-412.13 826.34,-408.36 812.42,-405.03"/>
<polygon fill="#63b8ff" stroke="#63b8ff" points="856.12,-419.07 866.66,-417.99 857.74,-412.26 856.12,-419.07"/>
</a>
</g>
</g>
<!-- Node20&#45;&gt;Node17 -->
<g id="edge40_Node000020_Node000017" class="edge">
<title>Node20&#45;&gt;Node17</title>
<g id="a_edge40_Node000020_Node000017"><a xlink:title=" ">
<path fill="none" stroke="#63b8ff" d="M883.46,-412.34C866.57,-401.59 842.87,-387.22 821,-376.5 814.1,-373.12 806.43,-369.89 799.27,-367.08"/>
<polygon fill="#63b8ff" stroke="#63b8ff" points="881.78,-415.43 892.08,-417.9 885.57,-409.54 881.78,-415.43"/>
</a>
</g>
</g>
<!-- Node20&#45;&gt;Node18 -->
<g id="edge41_Node000020_Node000018" class="edge">
<title>Node20&#45;&gt;Node18</title>
<g id="a_edge41_Node000020_Node000018"><a xlink:title=" ">
<path fill="none" stroke="#63b8ff" d="M890.94,-410.27C874.18,-391.96 846.47,-362.4 821,-338.5 809.1,-327.33 794.75,-315.38 784.76,-307.27"/>
<polygon fill="#63b8ff" stroke="#63b8ff" points="888.5,-412.79 897.82,-417.83 893.68,-408.08 888.5,-412.79"/>
</a>
</g>
</g>
<!-- Node20&#45;&gt;Node19 -->
<g id="edge42_Node000020_Node000019" class="edge">
<title>Node20&#45;&gt;Node19</title>
<g id="a_edge42_Node000020_Node000019"><a xlink:title=" ">
<path fill="none" stroke="#63b8ff" d="M898.66,-408.69C885.61,-378.86 857.24,-319.82 821,-278.5 811.5,-267.67 798.41,-257.91 788.22,-251.13"/>
<polygon fill="#63b8ff" stroke="#63b8ff" points="895.47,-410.14 902.63,-417.95 901.91,-407.38 895.47,-410.14"/>
</a>
</g>
</g>
<!-- Node21&#45;&gt;Node3 -->
<g id="edge46_Node000021_Node000003" class="edge">
<title>Node21&#45;&gt;Node3</title>
<g id="a_edge46_Node000021_Node000003"><a xlink:title=" ">
<path fill="none" stroke="#63b8ff" d="M983.47,-17.78C916.81,-32.23 792.9,-68.33 722,-146.5 644.1,-232.39 629.51,-383.76 626.99,-423"/>
<polygon fill="#63b8ff" stroke="#63b8ff" points="984.59,-21.12 993.66,-15.64 983.16,-14.27 984.59,-21.12"/>
</a>
</g>
</g>
</g>
</svg>
