<?xml version="1.0" encoding="UTF-8" standalone="no"?>
<!DOCTYPE svg PUBLIC "-//W3C//DTD SVG 1.1//EN"
 "http://www.w3.org/Graphics/SVG/1.1/DTD/svg11.dtd">
<!-- Generated by graphviz version 2.43.0 (0)
 -->
<!-- Title: ParseTangleCube Pages: 1 -->
<svg width="521pt" height="169pt"
 viewBox="0.00 0.00 521.00 168.66" xmlns="http://www.w3.org/2000/svg" xmlns:xlink="http://www.w3.org/1999/xlink">
<g id="graph0" class="graph" transform="scale(1 1) rotate(0) translate(4 164.66)">
<title>ParseTangleCube</title>
<!-- Node1 -->
<g id="Node000001" class="node">
<title>Node1</title>
<g id="a_Node000001"><a xlink:title=" ">
<polygon fill="#999999" stroke="#666666" points="99,-85.66 0,-85.66 0,-66.66 99,-66.66 99,-85.66"/>
<text text-anchor="middle" x="49.5" y="-73.66" font-family="Helvetica,sans-Serif" font-size="10.00">ParseTangleCube</text>
</a>
</g>
</g>
<!-- Node2 -->
<g id="Node000002" class="node">
<title>Node2</title>
<g id="a_Node000002"><a xlink:href="../../dc/d25/classRayTracer_1_1Scene.html#a596cfa5f2e69ddd8a341f3b10fdcf1b2" target="_top" xlink:title="Add a geometry object to the scene.">
<polygon fill="white" stroke="#666666" points="290,-160.66 135,-160.66 135,-141.66 290,-141.66 290,-160.66"/>
<text text-anchor="middle" x="212.5" y="-148.66" font-family="Helvetica,sans-Serif" font-size="10.00">RayTracer::Scene::addObject</text>
</a>
</g>
</g>
<!-- Node1&#45;&gt;Node2 -->
<g id="edge1_Node000001_Node000002" class="edge">
<title>Node1&#45;&gt;Node2</title>
<g id="a_edge1_Node000001_Node000002"><a xlink:title=" ">
<path fill="none" stroke="#63b8ff" d="M61.74,-85.73C77.23,-98.42 106.46,-120.69 135,-133.16 139.72,-135.23 144.72,-137.08 149.8,-138.73"/>
<polygon fill="#63b8ff" stroke="#63b8ff" points="149.06,-142.16 159.64,-141.66 151.06,-135.45 149.06,-142.16"/>
</a>
</g>
</g>
<!-- Node3 -->
<g id="Node000003" class="node">
<title>Node3</title>
<g id="a_Node000003"><a xlink:href="../../d3/d79/SceneParser_8cpp.html#aa782e54e3eee3a001fb792cc4026fb20" target="_top" xlink:title=" ">
<polygon fill="white" stroke="#666666" points="261.5,-123.66 163.5,-123.66 163.5,-104.66 261.5,-104.66 261.5,-123.66"/>
<text text-anchor="middle" x="212.5" y="-111.66" font-family="Helvetica,sans-Serif" font-size="10.00">ApplyTransforms</text>
</a>
</g>
</g>
<!-- Node1&#45;&gt;Node3 -->
<g id="edge2_Node000001_Node000003" class="edge">
<title>Node1&#45;&gt;Node3</title>
<g id="a_edge2_Node000001_Node000003"><a xlink:title=" ">
<path fill="none" stroke="#63b8ff" d="M91.13,-85.75C112.47,-90.79 138.81,-97.01 161.41,-102.34"/>
<polygon fill="#63b8ff" stroke="#63b8ff" points="160.63,-105.75 171.17,-104.64 162.24,-98.94 160.63,-105.75"/>
</a>
</g>
</g>
<!-- Node7 -->
<g id="Node000007" class="node">
<title>Node7</title>
<g id="a_Node000007"><a xlink:href="../../d3/d79/SceneParser_8cpp.html#a2f2fded85eeec23ebae4e1c2e9fe96aa" target="_top" xlink:title=" ">
<polygon fill="white" stroke="#666666" points="402.5,-47.66 333.5,-47.66 333.5,-28.66 402.5,-28.66 402.5,-47.66"/>
<text text-anchor="middle" x="368" y="-35.66" font-family="Helvetica,sans-Serif" font-size="10.00">parseColor</text>
</a>
</g>
</g>
<!-- Node1&#45;&gt;Node7 -->
<g id="edge6_Node000001_Node000007" class="edge">
<title>Node1&#45;&gt;Node7</title>
<g id="a_edge6_Node000001_Node000007"><a xlink:title=" ">
<path fill="none" stroke="#63b8ff" d="M99.4,-74.61C148,-72.53 224.53,-67.77 290,-57.16 301.03,-55.38 312.81,-52.81 323.75,-50.15"/>
<polygon fill="#63b8ff" stroke="#63b8ff" points="324.67,-53.52 333.51,-47.69 322.96,-46.74 324.67,-53.52"/>
</a>
</g>
</g>
<!-- Node8 -->
<g id="Node000008" class="node">
<title>Node8</title>
<g id="a_Node000008"><a xlink:href="../../d3/d79/SceneParser_8cpp.html#ab07eea3323845932b0e5c43bec9396d5" target="_top" xlink:title=" ">
<polygon fill="white" stroke="#666666" points="513,-28.66 446,-28.66 446,-9.66 513,-9.66 513,-28.66"/>
<text text-anchor="middle" x="479.5" y="-16.66" font-family="Helvetica,sans-Serif" font-size="10.00">parseVec3</text>
</a>
</g>
</g>
<!-- Node1&#45;&gt;Node8 -->
<g id="edge8_Node000001_Node000008" class="edge">
<title>Node1&#45;&gt;Node8</title>
<g id="a_edge8_Node000001_Node000008"><a xlink:title=" ">
<path fill="none" stroke="#63b8ff" d="M60.9,-66.27C75.88,-52.77 105.02,-29.24 135,-20.16 239.29,11.42 369.7,-1.57 435.82,-11.6"/>
<polygon fill="#63b8ff" stroke="#63b8ff" points="435.44,-15.08 445.86,-13.18 436.52,-8.17 435.44,-15.08"/>
</a>
</g>
</g>
<!-- Node9 -->
<g id="Node000009" class="node">
<title>Node9</title>
<g id="a_Node000009"><a xlink:href="../../d3/d79/SceneParser_8cpp.html#a8b7e43054abc89463b4746c81fe05f73" target="_top" xlink:title=" ">
<polygon fill="white" stroke="#666666" points="259,-47.66 166,-47.66 166,-28.66 259,-28.66 259,-47.66"/>
<text text-anchor="middle" x="212.5" y="-35.66" font-family="Helvetica,sans-Serif" font-size="10.00">resolveMaterial</text>
</a>
</g>
</g>
<!-- Node1&#45;&gt;Node9 -->
<g id="edge9_Node000001_Node000009" class="edge">
<title>Node1&#45;&gt;Node9</title>
<g id="a_edge9_Node000001_Node000009"><a xlink:title=" ">
<path fill="none" stroke="#63b8ff" d="M91.13,-66.58C112.47,-61.54 138.81,-55.32 161.41,-49.99"/>
<polygon fill="#63b8ff" stroke="#63b8ff" points="162.24,-53.39 171.17,-47.68 160.63,-46.58 162.24,-53.39"/>
</a>
</g>
</g>
<!-- Node4 -->
<g id="Node000004" class="node">
<title>Node4</title>
<g id="a_Node000004"><a xlink:href="../../d3/d79/SceneParser_8cpp.html#ae3517631b63ce9e4328bc51373bf45a3" target="_top" xlink:title=" ">
<polygon fill="white" stroke="#666666" points="405,-160.66 331,-160.66 331,-141.66 405,-141.66 405,-160.66"/>
<text text-anchor="middle" x="368" y="-148.66" font-family="Helvetica,sans-Serif" font-size="10.00">ParseMatrix</text>
</a>
</g>
</g>
<!-- Node3&#45;&gt;Node4 -->
<g id="edge3_Node000003_Node000004" class="edge">
<title>Node3&#45;&gt;Node4</title>
<g id="a_edge3_Node000003_Node000004"><a xlink:title=" ">
<path fill="none" stroke="#63b8ff" d="M253.03,-123.69C273.74,-128.68 299.21,-134.82 320.82,-140.03"/>
<polygon fill="#63b8ff" stroke="#63b8ff" points="320.22,-143.49 330.76,-142.43 321.86,-136.68 320.22,-143.49"/>
</a>
</g>
</g>
<!-- Node5 -->
<g id="Node000005" class="node">
<title>Node5</title>
<g id="a_Node000005"><a xlink:href="../../d3/d79/SceneParser_8cpp.html#ab610c3a763bad5cb0f39e0d2f61a0c84" target="_top" xlink:title=" ">
<polygon fill="white" stroke="#666666" points="410,-123.66 326,-123.66 326,-104.66 410,-104.66 410,-123.66"/>
<text text-anchor="middle" x="368" y="-111.66" font-family="Helvetica,sans-Serif" font-size="10.00">ParseRotation</text>
</a>
</g>
</g>
<!-- Node3&#45;&gt;Node5 -->
<g id="edge4_Node000003_Node000005" class="edge">
<title>Node3&#45;&gt;Node5</title>
<g id="a_edge4_Node000003_Node000005"><a xlink:title=" ">
<path fill="none" stroke="#63b8ff" d="M261.65,-114.16C278.92,-114.16 298.45,-114.16 315.96,-114.16"/>
<polygon fill="#63b8ff" stroke="#63b8ff" points="316,-117.66 326,-114.16 316,-110.66 316,-117.66"/>
</a>
</g>
</g>
<!-- Node6 -->
<g id="Node000006" class="node">
<title>Node6</title>
<g id="a_Node000006"><a xlink:href="../../d3/d79/SceneParser_8cpp.html#a16ef5180e27cc191fa8b0948fef6446f" target="_top" xlink:title=" ">
<polygon fill="white" stroke="#666666" points="403.5,-86.66 332.5,-86.66 332.5,-67.66 403.5,-67.66 403.5,-86.66"/>
<text text-anchor="middle" x="368" y="-74.66" font-family="Helvetica,sans-Serif" font-size="10.00">ParseShear</text>
</a>
</g>
</g>
<!-- Node3&#45;&gt;Node6 -->
<g id="edge5_Node000003_Node000006" class="edge">
<title>Node3&#45;&gt;Node6</title>
<g id="a_edge5_Node000003_Node000006"><a xlink:title=" ">
<path fill="none" stroke="#63b8ff" d="M253.03,-104.64C274.29,-99.51 300.58,-93.17 322.55,-87.88"/>
<polygon fill="#63b8ff" stroke="#63b8ff" points="323.4,-91.27 332.31,-85.53 321.76,-84.47 323.4,-91.27"/>
</a>
</g>
</g>
<!-- Node7&#45;&gt;Node8 -->
<g id="edge7_Node000007_Node000008" class="edge">
<title>Node7&#45;&gt;Node8</title>
<g id="a_edge7_Node000007_Node000008"><a xlink:title=" ">
<path fill="none" stroke="#63b8ff" d="M402.75,-32.31C413.24,-30.49 424.94,-28.46 435.94,-26.55"/>
<polygon fill="#63b8ff" stroke="#63b8ff" points="436.55,-30 445.8,-24.84 435.35,-23.1 436.55,-30"/>
</a>
</g>
</g>
<!-- Node9&#45;&gt;Node7 -->
<g id="edge10_Node000009_Node000007" class="edge">
<title>Node9&#45;&gt;Node7</title>
<g id="a_edge10_Node000009_Node000007"><a xlink:title=" ">
<path fill="none" stroke="#63b8ff" d="M259.14,-38.16C279.46,-38.16 303.28,-38.16 323.36,-38.16"/>
<polygon fill="#63b8ff" stroke="#63b8ff" points="323.48,-41.66 333.48,-38.16 323.48,-34.66 323.48,-41.66"/>
</a>
</g>
</g>
</g>
</svg>
