<?xml version="1.0" encoding="UTF-8" standalone="no"?>
<!DOCTYPE svg PUBLIC "-//W3C//DTD SVG 1.1//EN"
 "http://www.w3.org/Graphics/SVG/1.1/DTD/svg11.dtd">
<!-- Generated by graphviz version 2.43.0 (0)
 -->
<!-- Title: ParseRotation Pages: 1 -->
<svg width="1083pt" height="360pt"
 viewBox="0.00 0.00 1083.00 360.00" xmlns="http://www.w3.org/2000/svg" xmlns:xlink="http://www.w3.org/1999/xlink">
<g id="graph0" class="graph" transform="scale(1 1) rotate(0) translate(4 356)">
<title>ParseRotation</title>
<!-- Node1 -->
<g id="Node000001" class="node">
<title>Node1</title>
<g id="a_Node000001"><a xlink:title=" ">
<polygon fill="#999999" stroke="#666666" points="1075,-185 991,-185 991,-166 1075,-166 1075,-185"/>
<text text-anchor="middle" x="1033" y="-173" font-family="Helvetica,sans-Serif" font-size="10.00">ParseRotation</text>
</a>
</g>
</g>
<!-- Node2 -->
<g id="Node000002" class="node">
<title>Node2</title>
<g id="a_Node000002"><a xlink:href="../../d3/d79/SceneParser_8cpp.html#aa782e54e3eee3a001fb792cc4026fb20" target="_top" xlink:title=" ">
<polygon fill="white" stroke="#666666" points="955,-185 857,-185 857,-166 955,-166 955,-185"/>
<text text-anchor="middle" x="906" y="-173" font-family="Helvetica,sans-Serif" font-size="10.00">ApplyTransforms</text>
</a>
</g>
</g>
<!-- Node1&#45;&gt;Node2 -->
<g id="edge1_Node000001_Node000002" class="edge">
<title>Node1&#45;&gt;Node2</title>
<g id="a_edge1_Node000001_Node000002"><a xlink:title=" ">
<path fill="none" stroke="#63b8ff" d="M980.63,-175.5C972.21,-175.5 963.51,-175.5 955.17,-175.5"/>
<polygon fill="#63b8ff" stroke="#63b8ff" points="980.72,-179 990.72,-175.5 980.72,-172 980.72,-179"/>
</a>
</g>
</g>
<!-- Node3 -->
<g id="Node000003" class="node">
<title>Node3</title>
<g id="a_Node000003"><a xlink:href="../../d3/d79/SceneParser_8cpp.html#ad262901d3d20b2d0a15d937abb911dbd" target="_top" xlink:title=" ">
<polygon fill="white" stroke="#666666" points="807.5,-352 735.5,-352 735.5,-333 807.5,-333 807.5,-352"/>
<text text-anchor="middle" x="771.5" y="-340" font-family="Helvetica,sans-Serif" font-size="10.00">ParseBoxes</text>
</a>
</g>
</g>
<!-- Node2&#45;&gt;Node3 -->
<g id="edge2_Node000002_Node000003" class="edge">
<title>Node2&#45;&gt;Node3</title>
<g id="a_edge2_Node000002_Node000003"><a xlink:title=" ">
<path fill="none" stroke="#63b8ff" d="M899.03,-194.76C888.34,-226.19 863.03,-288.64 821,-324.5 817.04,-327.88 812.38,-330.65 807.55,-332.92"/>
<polygon fill="#63b8ff" stroke="#63b8ff" points="902.43,-195.61 902.2,-185.02 895.77,-193.44 902.43,-195.61"/>
</a>
</g>
</g>
<!-- Node9 -->
<g id="Node000009" class="node">
<title>Node9</title>
<g id="a_Node000009"><a xlink:href="../../d3/d79/SceneParser_8cpp.html#acadf69d0ff9684ba689927979b304f6a" target="_top" xlink:title=" ">
<polygon fill="white" stroke="#666666" points="808,-315 735,-315 735,-296 808,-296 808,-315"/>
<text text-anchor="middle" x="771.5" y="-303" font-family="Helvetica,sans-Serif" font-size="10.00">ParseCones</text>
</a>
</g>
</g>
<!-- Node2&#45;&gt;Node9 -->
<g id="edge9_Node000002_Node000009" class="edge">
<title>Node2&#45;&gt;Node9</title>
<g id="a_edge9_Node000002_Node000009"><a xlink:title=" ">
<path fill="none" stroke="#63b8ff" d="M895.51,-194.07C882.06,-218.67 855.24,-261.94 821,-287.5 816.54,-290.83 811.39,-293.6 806.16,-295.9"/>
<polygon fill="#63b8ff" stroke="#63b8ff" points="898.7,-195.53 900.29,-185.06 892.51,-192.25 898.7,-195.53"/>
</a>
</g>
</g>
<!-- Node10 -->
<g id="Node000010" class="node">
<title>Node10</title>
<g id="a_Node000010"><a xlink:href="../../d3/d79/SceneParser_8cpp.html#a58b4651708d2a5da5625f2412bd84bd7" target="_top" xlink:title=" ">
<polygon fill="white" stroke="#666666" points="816,-278 727,-278 727,-259 816,-259 816,-278"/>
<text text-anchor="middle" x="771.5" y="-266" font-family="Helvetica,sans-Serif" font-size="10.00">ParseCylinders</text>
</a>
</g>
</g>
<!-- Node2&#45;&gt;Node10 -->
<g id="edge11_Node000002_Node000010" class="edge">
<title>Node2&#45;&gt;Node10</title>
<g id="a_edge11_Node000002_Node000010"><a xlink:title=" ">
<path fill="none" stroke="#63b8ff" d="M889.68,-192.47C873.86,-209.15 847.77,-234.38 821,-250.5 815.61,-253.74 809.55,-256.56 803.58,-258.94"/>
<polygon fill="#63b8ff" stroke="#63b8ff" points="892.34,-194.76 896.58,-185.05 887.21,-189.99 892.34,-194.76"/>
</a>
</g>
</g>
<!-- Node11 -->
<g id="Node000011" class="node">
<title>Node11</title>
<g id="a_Node000011"><a xlink:href="../../d3/d79/SceneParser_8cpp.html#a1122aa28b0a7f73c44adaf6dca1d5750" target="_top" xlink:title=" ">
<polygon fill="white" stroke="#666666" points="811.5,-241 731.5,-241 731.5,-222 811.5,-222 811.5,-241"/>
<text text-anchor="middle" x="771.5" y="-229" font-family="Helvetica,sans-Serif" font-size="10.00">ParseMenger</text>
</a>
</g>
</g>
<!-- Node2&#45;&gt;Node11 -->
<g id="edge13_Node000002_Node000011" class="edge">
<title>Node2&#45;&gt;Node11</title>
<g id="a_edge13_Node000002_Node000011"><a xlink:title=" ">
<path fill="none" stroke="#63b8ff" d="M875.44,-189.48C859.44,-196.89 839.27,-205.99 821,-213.5 814.02,-216.37 806.4,-219.29 799.31,-221.93"/>
<polygon fill="#63b8ff" stroke="#63b8ff" points="877.22,-192.51 884.8,-185.11 874.26,-186.17 877.22,-192.51"/>
</a>
</g>
</g>
<!-- Node12 -->
<g id="Node000012" class="node">
<title>Node12</title>
<g id="a_Node000012"><a xlink:href="../../d3/d79/SceneParser_8cpp.html#a26f05fcddd9c159c09c9cedc7bdf844a" target="_top" xlink:title=" ">
<polygon fill="white" stroke="#666666" points="811.5,-204 731.5,-204 731.5,-185 811.5,-185 811.5,-204"/>
<text text-anchor="middle" x="771.5" y="-192" font-family="Helvetica,sans-Serif" font-size="10.00">ParseMeshes</text>
</a>
</g>
</g>
<!-- Node2&#45;&gt;Node12 -->
<g id="edge15_Node000002_Node000012" class="edge">
<title>Node2&#45;&gt;Node12</title>
<g id="a_edge15_Node000002_Node000012"><a xlink:title=" ">
<path fill="none" stroke="#63b8ff" d="M846.57,-183.88C834.8,-185.57 822.69,-187.3 811.77,-188.87"/>
<polygon fill="#63b8ff" stroke="#63b8ff" points="847.39,-187.3 856.79,-182.41 846.39,-180.37 847.39,-187.3"/>
</a>
</g>
</g>
<!-- Node13 -->
<g id="Node000013" class="node">
<title>Node13</title>
<g id="a_Node000013"><a xlink:href="../../d3/d79/SceneParser_8cpp.html#a9d50142946b8423759ecbfa17c7edc79" target="_top" xlink:title=" ">
<polygon fill="white" stroke="#666666" points="809,-167 734,-167 734,-148 809,-148 809,-167"/>
<text text-anchor="middle" x="771.5" y="-155" font-family="Helvetica,sans-Serif" font-size="10.00">ParsePlanes</text>
</a>
</g>
</g>
<!-- Node2&#45;&gt;Node13 -->
<g id="edge17_Node000002_Node000013" class="edge">
<title>Node2&#45;&gt;Node13</title>
<g id="a_edge17_Node000002_Node000013"><a xlink:title=" ">
<path fill="none" stroke="#63b8ff" d="M846.7,-167.58C833.98,-165.85 820.85,-164.07 809.25,-162.49"/>
<polygon fill="#63b8ff" stroke="#63b8ff" points="846.41,-171.07 856.79,-168.95 847.35,-164.14 846.41,-171.07"/>
</a>
</g>
</g>
<!-- Node14 -->
<g id="Node000014" class="node">
<title>Node14</title>
<g id="a_Node000014"><a xlink:href="../../d3/d79/SceneParser_8cpp.html#a1113dafd3e97959e0e81c1d2fd42cd81" target="_top" xlink:title=" ">
<polygon fill="white" stroke="#666666" points="817,-130 726,-130 726,-111 817,-111 817,-130"/>
<text text-anchor="middle" x="771.5" y="-118" font-family="Helvetica,sans-Serif" font-size="10.00">ParseSierpinski</text>
</a>
</g>
</g>
<!-- Node2&#45;&gt;Node14 -->
<g id="edge19_Node000002_Node000014" class="edge">
<title>Node2&#45;&gt;Node14</title>
<g id="a_edge19_Node000002_Node000014"><a xlink:title=" ">
<path fill="none" stroke="#63b8ff" d="M874.01,-161.94C858.2,-155.1 838.63,-146.73 821,-139.5 813.3,-136.34 804.87,-133 797.23,-130.02"/>
<polygon fill="#63b8ff" stroke="#63b8ff" points="872.76,-165.21 883.32,-165.99 875.55,-158.79 872.76,-165.21"/>
</a>
</g>
</g>
<!-- Node15 -->
<g id="Node000015" class="node">
<title>Node15</title>
<g id="a_Node000015"><a xlink:href="../../d3/d79/SceneParser_8cpp.html#aa379bf06dc8b31c936030d2fc900e73c" target="_top" xlink:title=" ">
<polygon fill="white" stroke="#666666" points="812.5,-93 730.5,-93 730.5,-74 812.5,-74 812.5,-93"/>
<text text-anchor="middle" x="771.5" y="-81" font-family="Helvetica,sans-Serif" font-size="10.00">ParseSpheres</text>
</a>
</g>
</g>
<!-- Node2&#45;&gt;Node15 -->
<g id="edge21_Node000002_Node000015" class="edge">
<title>Node2&#45;&gt;Node15</title>
<g id="a_edge21_Node000002_Node000015"><a xlink:title=" ">
<path fill="none" stroke="#63b8ff" d="M889.01,-158.59C873.03,-142.45 847.13,-118.32 821,-102.5 815.04,-98.89 808.28,-95.74 801.74,-93.09"/>
<polygon fill="#63b8ff" stroke="#63b8ff" points="886.54,-161.06 896.02,-165.79 891.56,-156.18 886.54,-161.06"/>
</a>
</g>
</g>
<!-- Node16 -->
<g id="Node000016" class="node">
<title>Node16</title>
<g id="a_Node000016"><a xlink:href="../../d3/d79/SceneParser_8cpp.html#abe09300f6764206d0215ca7b12403972" target="_top" xlink:title=" ">
<polygon fill="white" stroke="#666666" points="821,-56 722,-56 722,-37 821,-37 821,-56"/>
<text text-anchor="middle" x="771.5" y="-44" font-family="Helvetica,sans-Serif" font-size="10.00">ParseTangleCube</text>
</a>
</g>
</g>
<!-- Node2&#45;&gt;Node16 -->
<g id="edge23_Node000002_Node000016" class="edge">
<title>Node2&#45;&gt;Node16</title>
<g id="a_edge23_Node000002_Node000016"><a xlink:title=" ">
<path fill="none" stroke="#63b8ff" d="M895.15,-156.99C881.47,-132.88 854.56,-90.8 821,-65.5 816.02,-61.74 810.2,-58.63 804.35,-56.09"/>
<polygon fill="#63b8ff" stroke="#63b8ff" points="892.15,-158.78 900.04,-165.85 898.27,-155.4 892.15,-158.78"/>
</a>
</g>
</g>
<!-- Node17 -->
<g id="Node000017" class="node">
<title>Node17</title>
<g id="a_Node000017"><a xlink:href="../../d3/d79/SceneParser_8cpp.html#aa2d4ee6129dea0eeb1ad8100b5026239" target="_top" xlink:title=" ">
<polygon fill="white" stroke="#666666" points="805.5,-19 737.5,-19 737.5,0 805.5,0 805.5,-19"/>
<text text-anchor="middle" x="771.5" y="-7" font-family="Helvetica,sans-Serif" font-size="10.00">ParseTorus</text>
</a>
</g>
</g>
<!-- Node2&#45;&gt;Node17 -->
<g id="edge25_Node000002_Node000017" class="edge">
<title>Node2&#45;&gt;Node17</title>
<g id="a_edge25_Node000002_Node000017"><a xlink:title=" ">
<path fill="none" stroke="#63b8ff" d="M898.73,-156.14C887.74,-125.1 862.19,-64.08 821,-28.5 816.48,-24.6 811.07,-21.45 805.53,-18.91"/>
<polygon fill="#63b8ff" stroke="#63b8ff" points="895.47,-157.44 902.01,-165.78 902.1,-155.18 895.47,-157.44"/>
</a>
</g>
</g>
<!-- Node4 -->
<g id="Node000004" class="node">
<title>Node4</title>
<g id="a_Node000004"><a xlink:href="../../d1/df4/namespaceRayTracer.html#a4bbc9c3996d70f6a71cf4d185a4811d6" target="_top" xlink:title="Loads a single scene file (non&#45;recursive).">
<polygon fill="white" stroke="#666666" points="686,-185 565,-185 565,-166 686,-166 686,-185"/>
<text text-anchor="middle" x="625.5" y="-173" font-family="Helvetica,sans-Serif" font-size="10.00">RayTracer::loadScene</text>
</a>
</g>
</g>
<!-- Node3&#45;&gt;Node4 -->
<g id="edge3_Node000003_Node000004" class="edge">
<title>Node3&#45;&gt;Node4</title>
<g id="a_edge3_Node000003_Node000004"><a xlink:title=" ">
<path fill="none" stroke="#63b8ff" d="M726.99,-328.06C725.25,-326.95 723.57,-325.77 722,-324.5 672.23,-284.41 640.29,-211.1 630.06,-185.02"/>
<polygon fill="#63b8ff" stroke="#63b8ff" points="725.66,-331.31 736.12,-332.95 728.96,-325.14 725.66,-331.31"/>
</a>
</g>
</g>
<!-- Node5 -->
<g id="Node000005" class="node">
<title>Node5</title>
<g id="a_Node000005"><a xlink:href="../../d1/df4/namespaceRayTracer.html#a9aa92d0c88c2ac9be33f27ba71e8ceaa" target="_top" xlink:title="Recursively loads a scene and any referenced sub&#45;scenes from file(s).">
<polygon fill="white" stroke="#666666" points="529,-185 360,-185 360,-166 529,-166 529,-185"/>
<text text-anchor="middle" x="444.5" y="-173" font-family="Helvetica,sans-Serif" font-size="10.00">RayTracer::loadSceneRecursive</text>
</a>
</g>
</g>
<!-- Node4&#45;&gt;Node5 -->
<g id="edge4_Node000004_Node000005" class="edge">
<title>Node4&#45;&gt;Node5</title>
<g id="a_edge4_Node000004_Node000005"><a xlink:title=" ">
<path fill="none" stroke="#63b8ff" d="M554.76,-175.5C546.34,-175.5 537.67,-175.5 529.08,-175.5"/>
<polygon fill="#63b8ff" stroke="#63b8ff" points="554.9,-179 564.9,-175.5 554.9,-172 554.9,-179"/>
</a>
</g>
</g>
<!-- Node5&#45;&gt;Node5 -->
<g id="edge8_Node000005_Node000005" class="edge">
<title>Node5&#45;&gt;Node5</title>
<g id="a_edge8_Node000005_Node000005"><a xlink:title=" ">
<path fill="none" stroke="#63b8ff" d="M478.18,-193.45C477.22,-198.82 465.99,-203 444.5,-203 412.51,-203 403.26,-193.73 416.76,-185.08"/>
<polygon fill="#63b8ff" stroke="#63b8ff" points="480.89,-191.21 472.24,-185.08 475.18,-195.26 480.89,-191.21"/>
</a>
</g>
</g>
<!-- Node6 -->
<g id="Node000006" class="node">
<title>Node6</title>
<g id="a_Node000006"><a xlink:href="../../d4/d3d/namespaceUtils.html#a763a2a5523575e2175022d2623a77d05" target="_top" xlink:title="Loads a scene from file, or exits on failure.">
<polygon fill="white" stroke="#666666" points="324,-185 199,-185 199,-166 324,-166 324,-185"/>
<text text-anchor="middle" x="261.5" y="-173" font-family="Helvetica,sans-Serif" font-size="10.00">Utils::loadSceneOrExit</text>
</a>
</g>
</g>
<!-- Node5&#45;&gt;Node6 -->
<g id="edge5_Node000005_Node000006" class="edge">
<title>Node5&#45;&gt;Node6</title>
<g id="a_edge5_Node000005_Node000006"><a xlink:title=" ">
<path fill="none" stroke="#63b8ff" d="M349.71,-175.5C341.04,-175.5 332.4,-175.5 324.13,-175.5"/>
<polygon fill="#63b8ff" stroke="#63b8ff" points="349.89,-179 359.89,-175.5 349.89,-172 349.89,-179"/>
</a>
</g>
</g>
<!-- Node7 -->
<g id="Node000007" class="node">
<title>Node7</title>
<g id="a_Node000007"><a xlink:href="../../dd/dea/classRaytracer.html#a844a5a660abbb9d21608fc170074e0c5" target="_top" xlink:title="Launch the raytracing process.">
<polygon fill="white" stroke="#666666" points="163,-185 77,-185 77,-166 163,-166 163,-185"/>
<text text-anchor="middle" x="120" y="-173" font-family="Helvetica,sans-Serif" font-size="10.00">Raytracer::run</text>
</a>
</g>
</g>
<!-- Node6&#45;&gt;Node7 -->
<g id="edge6_Node000006_Node000007" class="edge">
<title>Node6&#45;&gt;Node7</title>
<g id="a_edge6_Node000006_Node000007"><a xlink:title=" ">
<path fill="none" stroke="#63b8ff" d="M188.64,-175.5C179.88,-175.5 171.17,-175.5 163.05,-175.5"/>
<polygon fill="#63b8ff" stroke="#63b8ff" points="188.91,-179 198.91,-175.5 188.91,-172 188.91,-179"/>
</a>
</g>
</g>
<!-- Node8 -->
<g id="Node000008" class="node">
<title>Node8</title>
<g id="a_Node000008"><a xlink:href="../../df/d0a/main_8cpp.html#a0ddf1224851353fc92bfbff6f499fa97" target="_top" xlink:title="Raimond is a good Raytracer. Logic, it&#39;s Raimond.">
<polygon fill="white" stroke="#666666" points="41,-185 0,-185 0,-166 41,-166 41,-185"/>
<text text-anchor="middle" x="20.5" y="-173" font-family="Helvetica,sans-Serif" font-size="10.00">main</text>
</a>
</g>
</g>
<!-- Node7&#45;&gt;Node8 -->
<g id="edge7_Node000007_Node000008" class="edge">
<title>Node7&#45;&gt;Node8</title>
<g id="a_edge7_Node000007_Node000008"><a xlink:title=" ">
<path fill="none" stroke="#63b8ff" d="M66.52,-175.5C57.42,-175.5 48.5,-175.5 41.03,-175.5"/>
<polygon fill="#63b8ff" stroke="#63b8ff" points="66.8,-179 76.8,-175.5 66.8,-172 66.8,-179"/>
</a>
</g>
</g>
<!-- Node9&#45;&gt;Node4 -->
<g id="edge10_Node000009_Node000004" class="edge">
<title>Node9&#45;&gt;Node4</title>
<g id="a_edge10_Node000009_Node000004"><a xlink:title=" ">
<path fill="none" stroke="#63b8ff" d="M728.62,-291.59C726.32,-290.32 724.09,-288.96 722,-287.5 680.11,-258.22 645.39,-206.33 632.2,-185.03"/>
<polygon fill="#63b8ff" stroke="#63b8ff" points="727.25,-294.81 737.78,-295.98 730.28,-288.5 727.25,-294.81"/>
</a>
</g>
</g>
<!-- Node10&#45;&gt;Node4 -->
<g id="edge12_Node000010_Node000004" class="edge">
<title>Node10&#45;&gt;Node4</title>
<g id="a_edge12_Node000010_Node000004"><a xlink:title=" ">
<path fill="none" stroke="#63b8ff" d="M730.98,-255.03C727.89,-253.61 724.86,-252.1 722,-250.5 687.97,-231.44 653.25,-200.76 636.61,-185.21"/>
<polygon fill="#63b8ff" stroke="#63b8ff" points="729.78,-258.32 740.35,-258.97 732.49,-251.86 729.78,-258.32"/>
</a>
</g>
</g>
<!-- Node11&#45;&gt;Node4 -->
<g id="edge14_Node000011_Node000004" class="edge">
<title>Node11&#45;&gt;Node4</title>
<g id="a_edge14_Node000011_Node000004"><a xlink:title=" ">
<path fill="none" stroke="#63b8ff" d="M735.05,-218.45C730.65,-216.8 726.22,-215.12 722,-213.5 697.35,-204.02 669.28,-192.8 649.99,-185.02"/>
<polygon fill="#63b8ff" stroke="#63b8ff" points="733.94,-221.77 744.53,-221.99 736.39,-215.22 733.94,-221.77"/>
</a>
</g>
</g>
<!-- Node12&#45;&gt;Node4 -->
<g id="edge16_Node000012_Node000004" class="edge">
<title>Node12&#45;&gt;Node4</title>
<g id="a_edge16_Node000012_Node000004"><a xlink:title=" ">
<path fill="none" stroke="#63b8ff" d="M721.07,-187.98C709.8,-186.49 697.71,-184.9 686.07,-183.36"/>
<polygon fill="#63b8ff" stroke="#63b8ff" points="720.78,-191.47 731.15,-189.31 721.7,-184.53 720.78,-191.47"/>
</a>
</g>
</g>
<!-- Node13&#45;&gt;Node4 -->
<g id="edge18_Node000013_Node000004" class="edge">
<title>Node13&#45;&gt;Node4</title>
<g id="a_edge18_Node000013_Node000004"><a xlink:title=" ">
<path fill="none" stroke="#63b8ff" d="M723.58,-163.36C711.62,-164.86 698.59,-166.49 686.08,-168.05"/>
<polygon fill="#63b8ff" stroke="#63b8ff" points="724.3,-166.8 733.79,-162.09 723.43,-159.86 724.3,-166.8"/>
</a>
</g>
</g>
<!-- Node14&#45;&gt;Node4 -->
<g id="edge20_Node000014_Node000004" class="edge">
<title>Node14&#45;&gt;Node4</title>
<g id="a_edge20_Node000014_Node000004"><a xlink:title=" ">
<path fill="none" stroke="#63b8ff" d="M735.96,-133.69C710.04,-143.59 675.14,-156.92 651.78,-165.84"/>
<polygon fill="#63b8ff" stroke="#63b8ff" points="737.32,-136.92 745.42,-130.08 734.83,-130.38 737.32,-136.92"/>
</a>
</g>
</g>
<!-- Node15&#45;&gt;Node4 -->
<g id="edge22_Node000015_Node000004" class="edge">
<title>Node15&#45;&gt;Node4</title>
<g id="a_edge22_Node000015_Node000004"><a xlink:title=" ">
<path fill="none" stroke="#63b8ff" d="M732.87,-97.02C729.13,-98.73 725.45,-100.56 722,-102.5 688.54,-121.35 653.85,-150.81 636.97,-165.9"/>
<polygon fill="#63b8ff" stroke="#63b8ff" points="734.36,-100.19 742.19,-93.06 731.61,-93.75 734.36,-100.19"/>
</a>
</g>
</g>
<!-- Node16&#45;&gt;Node4 -->
<g id="edge24_Node000016_Node000004" class="edge">
<title>Node16&#45;&gt;Node4</title>
<g id="a_edge24_Node000016_Node000004"><a xlink:title=" ">
<path fill="none" stroke="#63b8ff" d="M730.5,-60.32C727.53,-61.9 724.66,-63.62 722,-65.5 680.88,-94.52 645.98,-144.89 632.48,-165.88"/>
<polygon fill="#63b8ff" stroke="#63b8ff" points="732.05,-63.46 739.6,-56.02 729.06,-57.13 732.05,-63.46"/>
</a>
</g>
</g>
<!-- Node17&#45;&gt;Node4 -->
<g id="edge26_Node000017_Node000004" class="edge">
<title>Node17&#45;&gt;Node4</title>
<g id="a_edge26_Node000017_Node000004"><a xlink:title=" ">
<path fill="none" stroke="#63b8ff" d="M728.59,-23.87C726.27,-25.28 724.05,-26.82 722,-28.5 673.17,-68.31 640.87,-139.85 630.29,-165.78"/>
<polygon fill="#63b8ff" stroke="#63b8ff" points="730.66,-26.74 737.91,-19.02 727.42,-20.53 730.66,-26.74"/>
</a>
</g>
</g>
</g>
</svg>
