<?xml version="1.0" encoding="UTF-8" standalone="no"?>
<!DOCTYPE svg PUBLIC "-//W3C//DTD SVG 1.1//EN"
 "http://www.w3.org/Graphics/SVG/1.1/DTD/svg11.dtd">
<!-- Generated by graphviz version 2.43.0 (0)
 -->
<!-- Title: ParseCamera Pages: 1 -->
<svg width="259pt" height="212pt"
 viewBox="0.00 0.00 259.00 212.00" xmlns="http://www.w3.org/2000/svg" xmlns:xlink="http://www.w3.org/1999/xlink">
<g id="graph0" class="graph" transform="scale(1 1) rotate(0) translate(4 208)">
<title>ParseCamera</title>
<!-- Node1 -->
<g id="Node000001" class="node">
<title>Node1</title>
<g id="a_Node000001"><a xlink:title=" ">
<polygon fill="#999999" stroke="#666666" points="81,-111 0,-111 0,-92 81,-92 81,-111"/>
<text text-anchor="middle" x="40.5" y="-99" font-family="Helvetica,sans-Serif" font-size="10.00">ParseCamera</text>
</a>
</g>
</g>
<!-- Node2 -->
<g id="Node000002" class="node">
<title>Node2</title>
<g id="a_Node000002"><a xlink:href="../../d6/d30/structMath_1_1Vector3D.html#ad9bca728f96bfb94acebaf6cc63109c3" target="_top" xlink:title="Computes the cross product between this and another vector.">
<polygon fill="white" stroke="#666666" points="245.5,-204 122.5,-204 122.5,-185 245.5,-185 245.5,-204"/>
<text text-anchor="middle" x="184" y="-192" font-family="Helvetica,sans-Serif" font-size="10.00">Math::Vector3D::cross</text>
</a>
</g>
</g>
<!-- Node1&#45;&gt;Node2 -->
<g id="edge1_Node000001_Node000002" class="edge">
<title>Node1&#45;&gt;Node2</title>
<g id="a_edge1_Node000001_Node000002"><a xlink:title=" ">
<path fill="none" stroke="#63b8ff" d="M48.48,-111.14C60.59,-127.16 87.09,-159.21 117,-176.5 120.02,-178.25 123.22,-179.83 126.51,-181.26"/>
<polygon fill="#63b8ff" stroke="#63b8ff" points="125.39,-184.58 135.98,-184.92 127.92,-178.05 125.39,-184.58"/>
</a>
</g>
</g>
<!-- Node3 -->
<g id="Node000003" class="node">
<title>Node3</title>
<g id="a_Node000003"><a xlink:href="../../d6/d30/structMath_1_1Vector3D.html#a4c208026b6867d4c99afa13ddc3b9278" target="_top" xlink:title="Computes the Euclidean length (norm) of the vector.">
<polygon fill="white" stroke="#666666" points="248,-167 120,-167 120,-148 248,-148 248,-167"/>
<text text-anchor="middle" x="184" y="-155" font-family="Helvetica,sans-Serif" font-size="10.00">Math::Vector3D::length</text>
</a>
</g>
</g>
<!-- Node1&#45;&gt;Node3 -->
<g id="edge2_Node000001_Node000003" class="edge">
<title>Node1&#45;&gt;Node3</title>
<g id="a_edge2_Node000001_Node000003"><a xlink:title=" ">
<path fill="none" stroke="#63b8ff" d="M58.15,-111.1C73.16,-119.46 96.04,-131.46 117,-139.5 122.13,-141.47 127.56,-143.31 133.01,-145.01"/>
<polygon fill="#63b8ff" stroke="#63b8ff" points="132.22,-148.43 142.8,-147.92 134.21,-141.72 132.22,-148.43"/>
</a>
</g>
</g>
<!-- Node4 -->
<g id="Node000004" class="node">
<title>Node4</title>
<g id="a_Node000004"><a xlink:href="../../d3/d79/SceneParser_8cpp.html#ab07eea3323845932b0e5c43bec9396d5" target="_top" xlink:title=" ">
<polygon fill="white" stroke="#666666" points="217.5,-130 150.5,-130 150.5,-111 217.5,-111 217.5,-130"/>
<text text-anchor="middle" x="184" y="-118" font-family="Helvetica,sans-Serif" font-size="10.00">parseVec3</text>
</a>
</g>
</g>
<!-- Node1&#45;&gt;Node4 -->
<g id="edge3_Node000001_Node000004" class="edge">
<title>Node1&#45;&gt;Node4</title>
<g id="a_edge3_Node000001_Node000004"><a xlink:title=" ">
<path fill="none" stroke="#63b8ff" d="M81.29,-106.84C99.64,-109.31 121.44,-112.23 140.15,-114.75"/>
<polygon fill="#63b8ff" stroke="#63b8ff" points="139.81,-118.23 150.18,-116.09 140.74,-111.29 139.81,-118.23"/>
</a>
</g>
</g>
<!-- Node5 -->
<g id="Node000005" class="node">
<title>Node5</title>
<g id="a_Node000005"><a xlink:href="../../d6/d30/structMath_1_1Vector3D.html#af66e63a6c47e83d78a675aca89aa86b5" target="_top" xlink:title="Rotates the vector around the X&#45;axis by a given angle.">
<polygon fill="white" stroke="#666666" points="251,-93 117,-93 117,-74 251,-74 251,-93"/>
<text text-anchor="middle" x="184" y="-81" font-family="Helvetica,sans-Serif" font-size="10.00">Math::Vector3D::rotateX</text>
</a>
</g>
</g>
<!-- Node1&#45;&gt;Node5 -->
<g id="edge4_Node000001_Node000005" class="edge">
<title>Node1&#45;&gt;Node5</title>
<g id="a_edge4_Node000001_Node000005"><a xlink:title=" ">
<path fill="none" stroke="#63b8ff" d="M81.29,-96.44C89.37,-95.41 98.12,-94.3 106.98,-93.17"/>
<polygon fill="#63b8ff" stroke="#63b8ff" points="107.52,-96.63 116.99,-91.9 106.63,-89.69 107.52,-96.63"/>
</a>
</g>
</g>
<!-- Node6 -->
<g id="Node000006" class="node">
<title>Node6</title>
<g id="a_Node000006"><a xlink:href="../../d6/d30/structMath_1_1Vector3D.html#ac99855c4bcc047f335347e5e4711bf3d" target="_top" xlink:title="Rotates the vector around the Y&#45;axis by a given angle.">
<polygon fill="white" stroke="#666666" points="250.5,-56 117.5,-56 117.5,-37 250.5,-37 250.5,-56"/>
<text text-anchor="middle" x="184" y="-44" font-family="Helvetica,sans-Serif" font-size="10.00">Math::Vector3D::rotateY</text>
</a>
</g>
</g>
<!-- Node1&#45;&gt;Node6 -->
<g id="edge5_Node000001_Node000006" class="edge">
<title>Node1&#45;&gt;Node6</title>
<g id="a_edge5_Node000001_Node000006"><a xlink:title=" ">
<path fill="none" stroke="#63b8ff" d="M59.44,-91.91C74.51,-84.11 96.77,-73.18 117,-65.5 123,-63.22 129.39,-61.07 135.75,-59.08"/>
<polygon fill="#63b8ff" stroke="#63b8ff" points="137.08,-62.33 145.65,-56.09 135.06,-55.63 137.08,-62.33"/>
</a>
</g>
</g>
<!-- Node7 -->
<g id="Node000007" class="node">
<title>Node7</title>
<g id="a_Node000007"><a xlink:href="../../d6/d30/structMath_1_1Vector3D.html#aae23e198158b265ebe1ab6d87f1c9929" target="_top" xlink:title="Rotates the vector around the Z&#45;axis by a given angle.">
<polygon fill="white" stroke="#666666" points="251,-19 117,-19 117,0 251,0 251,-19"/>
<text text-anchor="middle" x="184" y="-7" font-family="Helvetica,sans-Serif" font-size="10.00">Math::Vector3D::rotateZ</text>
</a>
</g>
</g>
<!-- Node1&#45;&gt;Node7 -->
<g id="edge6_Node000001_Node000007" class="edge">
<title>Node1&#45;&gt;Node7</title>
<g id="a_edge6_Node000001_Node000007"><a xlink:title=" ">
<path fill="none" stroke="#63b8ff" d="M48.76,-91.92C61.09,-76.32 87.64,-45.48 117,-28.5 120.72,-26.35 124.69,-24.43 128.78,-22.72"/>
<polygon fill="#63b8ff" stroke="#63b8ff" points="130.33,-25.87 138.46,-19.08 127.87,-19.32 130.33,-25.87"/>
</a>
</g>
</g>
</g>
</svg>
