<?xml version="1.0" encoding="UTF-8" standalone="no"?>
<!DOCTYPE svg PUBLIC "-//W3C//DTD SVG 1.1//EN"
 "http://www.w3.org/Graphics/SVG/1.1/DTD/svg11.dtd">
<!-- Generated by graphviz version 2.43.0 (0)
 -->
<!-- Title: ParseMeshes Pages: 1 -->
<svg width="594pt" height="323pt"
 viewBox="0.00 0.00 594.00 322.70" xmlns="http://www.w3.org/2000/svg" xmlns:xlink="http://www.w3.org/1999/xlink">
<g id="graph0" class="graph" transform="scale(1 1) rotate(0) translate(4 318.7)">
<title>ParseMeshes</title>
<!-- Node1 -->
<g id="Node000001" class="node">
<title>Node1</title>
<g id="a_Node000001"><a xlink:title=" ">
<polygon fill="#999999" stroke="#666666" points="80,-114.7 0,-114.7 0,-95.7 80,-95.7 80,-114.7"/>
<text text-anchor="middle" x="40" y="-102.7" font-family="Helvetica,sans-Serif" font-size="10.00">ParseMeshes</text>
</a>
</g>
</g>
<!-- Node2 -->
<g id="Node000002" class="node">
<title>Node2</title>
<g id="a_Node000002"><a xlink:href="../../dc/d25/classRayTracer_1_1Scene.html#a596cfa5f2e69ddd8a341f3b10fdcf1b2" target="_top" xlink:title="Add a geometry object to the scene.">
<polygon fill="white" stroke="#666666" points="271,-277.7 116,-277.7 116,-258.7 271,-258.7 271,-277.7"/>
<text text-anchor="middle" x="193.5" y="-265.7" font-family="Helvetica,sans-Serif" font-size="10.00">RayTracer::Scene::addObject</text>
</a>
</g>
</g>
<!-- Node1&#45;&gt;Node2 -->
<g id="edge1_Node000001_Node000002" class="edge">
<title>Node1&#45;&gt;Node2</title>
<g id="a_edge1_Node000001_Node000002"><a xlink:title=" ">
<path fill="none" stroke="#63b8ff" d="M43.02,-114.76C49.06,-140.88 69.51,-213.95 116,-250.2 117.61,-251.46 119.3,-252.63 121.05,-253.72"/>
<polygon fill="#63b8ff" stroke="#63b8ff" points="119.73,-256.99 130.21,-258.55 122.99,-250.79 119.73,-256.99"/>
</a>
</g>
</g>
<!-- Node3 -->
<g id="Node000003" class="node">
<title>Node3</title>
<g id="a_Node000003"><a xlink:href="../../d3/d79/SceneParser_8cpp.html#aa782e54e3eee3a001fb792cc4026fb20" target="_top" xlink:title=" ">
<polygon fill="white" stroke="#666666" points="242.5,-240.7 144.5,-240.7 144.5,-221.7 242.5,-221.7 242.5,-240.7"/>
<text text-anchor="middle" x="193.5" y="-228.7" font-family="Helvetica,sans-Serif" font-size="10.00">ApplyTransforms</text>
</a>
</g>
</g>
<!-- Node1&#45;&gt;Node3 -->
<g id="edge2_Node000001_Node000003" class="edge">
<title>Node1&#45;&gt;Node3</title>
<g id="a_edge2_Node000001_Node000003"><a xlink:title=" ">
<path fill="none" stroke="#63b8ff" d="M52.89,-115.09C78.89,-136.71 141.01,-188.38 172.89,-214.89"/>
<polygon fill="#63b8ff" stroke="#63b8ff" points="170.74,-217.66 180.67,-221.36 175.22,-212.27 170.74,-217.66"/>
</a>
</g>
</g>
<!-- Node7 -->
<g id="Node000007" class="node">
<title>Node7</title>
<g id="a_Node000007"><a xlink:href="../../d5/d90/classRayTracer_1_1STLLoader.html#ab7fcaf89c01814b6641ee02a0710f4b6" target="_top" xlink:title="Loads an STL file and returns its geometry as a Mesh.">
<polygon fill="white" stroke="#666666" points="254,-142.2 133,-142.2 133,-112.2 254,-112.2 254,-142.2"/>
<text text-anchor="start" x="141" y="-130.2" font-family="Helvetica,sans-Serif" font-size="10.00">RayTracer::STLLoader</text>
<text text-anchor="middle" x="193.5" y="-119.2" font-family="Helvetica,sans-Serif" font-size="10.00">::load</text>
</a>
</g>
</g>
<!-- Node1&#45;&gt;Node7 -->
<g id="edge6_Node000001_Node000007" class="edge">
<title>Node1&#45;&gt;Node7</title>
<g id="a_edge6_Node000001_Node000007"><a xlink:title=" ">
<path fill="none" stroke="#63b8ff" d="M80.02,-110.87C93.05,-112.76 108,-114.93 122.66,-117.06"/>
<polygon fill="#63b8ff" stroke="#63b8ff" points="122.33,-120.55 132.73,-118.52 123.33,-113.62 122.33,-120.55"/>
</a>
</g>
</g>
<!-- Node14 -->
<g id="Node000014" class="node">
<title>Node14</title>
<g id="a_Node000014"><a xlink:href="../../d3/d79/SceneParser_8cpp.html#a2f2fded85eeec23ebae4e1c2e9fe96aa" target="_top" xlink:title=" ">
<polygon fill="white" stroke="#666666" points="383.5,-55.7 314.5,-55.7 314.5,-36.7 383.5,-36.7 383.5,-55.7"/>
<text text-anchor="middle" x="349" y="-43.7" font-family="Helvetica,sans-Serif" font-size="10.00">parseColor</text>
</a>
</g>
</g>
<!-- Node1&#45;&gt;Node14 -->
<g id="edge14_Node000001_Node000014" class="edge">
<title>Node1&#45;&gt;Node14</title>
<g id="a_edge14_Node000001_Node000014"><a xlink:title=" ">
<path fill="none" stroke="#63b8ff" d="M80.23,-99.23C126.14,-92.05 204.36,-79.2 271,-65.2 281.94,-62.9 293.68,-60.15 304.61,-57.47"/>
<polygon fill="#63b8ff" stroke="#63b8ff" points="305.53,-60.85 314.38,-55.03 303.83,-54.05 305.53,-60.85"/>
</a>
</g>
</g>
<!-- Node15 -->
<g id="Node000015" class="node">
<title>Node15</title>
<g id="a_Node000015"><a xlink:href="../../d3/d79/SceneParser_8cpp.html#ab07eea3323845932b0e5c43bec9396d5" target="_top" xlink:title=" ">
<polygon fill="white" stroke="#666666" points="540,-45.7 473,-45.7 473,-26.7 540,-26.7 540,-45.7"/>
<text text-anchor="middle" x="506.5" y="-33.7" font-family="Helvetica,sans-Serif" font-size="10.00">parseVec3</text>
</a>
</g>
</g>
<!-- Node1&#45;&gt;Node15 -->
<g id="edge16_Node000001_Node000015" class="edge">
<title>Node1&#45;&gt;Node15</title>
<g id="a_edge16_Node000001_Node000015"><a xlink:title=" ">
<path fill="none" stroke="#63b8ff" d="M46.7,-95.51C57.57,-78.1 83.16,-42.06 116,-28.2 233.4,21.33 388.94,-6.37 462.91,-24.46"/>
<polygon fill="#63b8ff" stroke="#63b8ff" points="462.24,-27.9 472.8,-26.93 463.95,-21.11 462.24,-27.9"/>
</a>
</g>
</g>
<!-- Node16 -->
<g id="Node000016" class="node">
<title>Node16</title>
<g id="a_Node000016"><a xlink:href="../../d3/d79/SceneParser_8cpp.html#a8b7e43054abc89463b4746c81fe05f73" target="_top" xlink:title=" ">
<polygon fill="white" stroke="#666666" points="240,-55.7 147,-55.7 147,-36.7 240,-36.7 240,-55.7"/>
<text text-anchor="middle" x="193.5" y="-43.7" font-family="Helvetica,sans-Serif" font-size="10.00">resolveMaterial</text>
</a>
</g>
</g>
<!-- Node1&#45;&gt;Node16 -->
<g id="edge17_Node000001_Node000016" class="edge">
<title>Node1&#45;&gt;Node16</title>
<g id="a_edge17_Node000001_Node000016"><a xlink:title=" ">
<path fill="none" stroke="#63b8ff" d="M59.81,-95.57C74.8,-88.11 96.44,-77.79 116,-70.2 126.53,-66.11 138.07,-62.2 148.93,-58.77"/>
<polygon fill="#63b8ff" stroke="#63b8ff" points="150.13,-62.06 158.65,-55.76 148.06,-55.37 150.13,-62.06"/>
</a>
</g>
</g>
<!-- Node4 -->
<g id="Node000004" class="node">
<title>Node4</title>
<g id="a_Node000004"><a xlink:href="../../d3/d79/SceneParser_8cpp.html#ae3517631b63ce9e4328bc51373bf45a3" target="_top" xlink:title=" ">
<polygon fill="white" stroke="#666666" points="386,-314.7 312,-314.7 312,-295.7 386,-295.7 386,-314.7"/>
<text text-anchor="middle" x="349" y="-302.7" font-family="Helvetica,sans-Serif" font-size="10.00">ParseMatrix</text>
</a>
</g>
</g>
<!-- Node3&#45;&gt;Node4 -->
<g id="edge3_Node000003_Node000004" class="edge">
<title>Node3&#45;&gt;Node4</title>
<g id="a_edge3_Node000003_Node000004"><a xlink:title=" ">
<path fill="none" stroke="#63b8ff" d="M242.61,-238.82C252.39,-241.54 262.34,-245.22 271,-250.2 290.9,-261.63 288.15,-274.12 307,-287.2 308.87,-288.5 310.85,-289.73 312.88,-290.9"/>
<polygon fill="#63b8ff" stroke="#63b8ff" points="311.54,-294.15 322.03,-295.61 314.75,-287.92 311.54,-294.15"/>
</a>
</g>
</g>
<!-- Node5 -->
<g id="Node000005" class="node">
<title>Node5</title>
<g id="a_Node000005"><a xlink:href="../../d3/d79/SceneParser_8cpp.html#ab610c3a763bad5cb0f39e0d2f61a0c84" target="_top" xlink:title=" ">
<polygon fill="white" stroke="#666666" points="391,-277.7 307,-277.7 307,-258.7 391,-258.7 391,-277.7"/>
<text text-anchor="middle" x="349" y="-265.7" font-family="Helvetica,sans-Serif" font-size="10.00">ParseRotation</text>
</a>
</g>
</g>
<!-- Node3&#45;&gt;Node5 -->
<g id="edge4_Node000003_Node000005" class="edge">
<title>Node3&#45;&gt;Node5</title>
<g id="a_edge4_Node000003_Node000005"><a xlink:title=" ">
<path fill="none" stroke="#63b8ff" d="M234.03,-240.73C253.65,-245.46 277.55,-251.22 298.39,-256.24"/>
<polygon fill="#63b8ff" stroke="#63b8ff" points="297.8,-259.7 308.34,-258.64 299.44,-252.89 297.8,-259.7"/>
</a>
</g>
</g>
<!-- Node6 -->
<g id="Node000006" class="node">
<title>Node6</title>
<g id="a_Node000006"><a xlink:href="../../d3/d79/SceneParser_8cpp.html#a16ef5180e27cc191fa8b0948fef6446f" target="_top" xlink:title=" ">
<polygon fill="white" stroke="#666666" points="384.5,-240.7 313.5,-240.7 313.5,-221.7 384.5,-221.7 384.5,-240.7"/>
<text text-anchor="middle" x="349" y="-228.7" font-family="Helvetica,sans-Serif" font-size="10.00">ParseShear</text>
</a>
</g>
</g>
<!-- Node3&#45;&gt;Node6 -->
<g id="edge5_Node000003_Node000006" class="edge">
<title>Node3&#45;&gt;Node6</title>
<g id="a_edge5_Node000003_Node000006"><a xlink:title=" ">
<path fill="none" stroke="#63b8ff" d="M242.65,-231.2C261.94,-231.2 284.04,-231.2 303,-231.2"/>
<polygon fill="#63b8ff" stroke="#63b8ff" points="303.17,-234.7 313.17,-231.2 303.17,-227.7 303.17,-234.7"/>
</a>
</g>
</g>
<!-- Node8 -->
<g id="Node000008" class="node">
<title>Node8</title>
<g id="a_Node000008"><a xlink:href="../../d3/d4f/STLLoader_8cpp.html#a8a4be3d7ad6d081ff61b7e9743fe97cd" target="_top" xlink:title=" ">
<polygon fill="white" stroke="#666666" points="386,-203.7 312,-203.7 312,-184.7 386,-184.7 386,-203.7"/>
<text text-anchor="middle" x="349" y="-191.7" font-family="Helvetica,sans-Serif" font-size="10.00">centerMesh</text>
</a>
</g>
</g>
<!-- Node7&#45;&gt;Node8 -->
<g id="edge7_Node000007_Node000008" class="edge">
<title>Node7&#45;&gt;Node8</title>
<g id="a_edge7_Node000007_Node000008"><a xlink:title=" ">
<path fill="none" stroke="#63b8ff" d="M228.95,-142.24C255.28,-153.73 291.28,-169.44 316.78,-180.57"/>
<polygon fill="#63b8ff" stroke="#63b8ff" points="315.43,-183.8 326,-184.6 318.23,-177.39 315.43,-183.8"/>
</a>
</g>
</g>
<!-- Node10 -->
<g id="Node000010" class="node">
<title>Node10</title>
<g id="a_Node000010"><a xlink:href="../../d3/d4f/STLLoader_8cpp.html#a4725c4c7e7199370f6166982f2e9bdec" target="_top" xlink:title=" ">
<polygon fill="white" stroke="#666666" points="386,-166.7 312,-166.7 312,-147.7 386,-147.7 386,-166.7"/>
<text text-anchor="middle" x="349" y="-154.7" font-family="Helvetica,sans-Serif" font-size="10.00">isBinarySTL</text>
</a>
</g>
</g>
<!-- Node7&#45;&gt;Node10 -->
<g id="edge9_Node000007_Node000010" class="edge">
<title>Node7&#45;&gt;Node10</title>
<g id="a_edge9_Node000007_Node000010"><a xlink:title=" ">
<path fill="none" stroke="#63b8ff" d="M254.29,-138.88C270.02,-141.96 286.75,-145.23 301.66,-148.14"/>
<polygon fill="#63b8ff" stroke="#63b8ff" points="301.16,-151.61 311.65,-150.1 302.51,-144.74 301.16,-151.61"/>
</a>
</g>
</g>
<!-- Node11 -->
<g id="Node000011" class="node">
<title>Node11</title>
<g id="a_Node000011"><a xlink:href="../../d3/d4f/STLLoader_8cpp.html#aedb3ca3b691f29fb2d3a60286145b590" target="_top" xlink:title=" ">
<polygon fill="white" stroke="#666666" points="379.5,-129.7 318.5,-129.7 318.5,-110.7 379.5,-110.7 379.5,-129.7"/>
<text text-anchor="middle" x="349" y="-117.7" font-family="Helvetica,sans-Serif" font-size="10.00">loadAscii</text>
</a>
</g>
</g>
<!-- Node7&#45;&gt;Node11 -->
<g id="edge10_Node000007_Node000011" class="edge">
<title>Node7&#45;&gt;Node11</title>
<g id="a_edge10_Node000007_Node000011"><a xlink:title=" ">
<path fill="none" stroke="#63b8ff" d="M254.29,-124.47C272.24,-123.65 291.5,-122.78 307.86,-122.03"/>
<polygon fill="#63b8ff" stroke="#63b8ff" points="308.32,-125.51 318.15,-121.56 308,-118.52 308.32,-125.51"/>
</a>
</g>
</g>
<!-- Node13 -->
<g id="Node000013" class="node">
<title>Node13</title>
<g id="a_Node000013"><a xlink:href="../../d3/d4f/STLLoader_8cpp.html#a63d46669c1a2d0e4dfd860e64595857a" target="_top" xlink:title=" ">
<polygon fill="white" stroke="#666666" points="383.5,-92.7 314.5,-92.7 314.5,-73.7 383.5,-73.7 383.5,-92.7"/>
<text text-anchor="middle" x="349" y="-80.7" font-family="Helvetica,sans-Serif" font-size="10.00">loadBinary</text>
</a>
</g>
</g>
<!-- Node7&#45;&gt;Node13 -->
<g id="edge12_Node000007_Node000013" class="edge">
<title>Node7&#45;&gt;Node13</title>
<g id="a_edge12_Node000007_Node000013"><a xlink:title=" ">
<path fill="none" stroke="#63b8ff" d="M246.9,-112.18C265.8,-106.76 286.91,-100.71 304.93,-95.55"/>
<polygon fill="#63b8ff" stroke="#63b8ff" points="305.94,-98.9 314.58,-92.78 304.01,-92.17 305.94,-98.9"/>
</a>
</g>
</g>
<!-- Node9 -->
<g id="Node000009" class="node">
<title>Node9</title>
<g id="a_Node000009"><a xlink:href="../../d3/d4f/STLLoader_8cpp.html#a66a2f6a6ed1624e39cd0454e6727e3a6" target="_top" xlink:title=" ">
<polygon fill="white" stroke="#666666" points="553,-203.7 460,-203.7 460,-184.7 553,-184.7 553,-203.7"/>
<text text-anchor="middle" x="506.5" y="-191.7" font-family="Helvetica,sans-Serif" font-size="10.00">calculateCenter</text>
</a>
</g>
</g>
<!-- Node8&#45;&gt;Node9 -->
<g id="edge8_Node000008_Node000009" class="edge">
<title>Node8&#45;&gt;Node9</title>
<g id="a_edge8_Node000008_Node000009"><a xlink:title=" ">
<path fill="none" stroke="#63b8ff" d="M386.07,-194.2C404.96,-194.2 428.51,-194.2 449.69,-194.2"/>
<polygon fill="#63b8ff" stroke="#63b8ff" points="449.87,-197.7 459.87,-194.2 449.87,-190.7 449.87,-197.7"/>
</a>
</g>
</g>
<!-- Node12 -->
<g id="Node000012" class="node">
<title>Node12</title>
<g id="a_Node000012"><a xlink:href="../../d7/de3/classRayTracer_1_1Mesh.html#a22fcc813861fb709fda744f825b7d641" target="_top" xlink:title="Append a triangle to the mesh.">
<polygon fill="white" stroke="#666666" points="586,-101.7 427,-101.7 427,-82.7 586,-82.7 586,-101.7"/>
<text text-anchor="middle" x="506.5" y="-89.7" font-family="Helvetica,sans-Serif" font-size="10.00">RayTracer::Mesh::addTriangle</text>
</a>
</g>
</g>
<!-- Node11&#45;&gt;Node12 -->
<g id="edge11_Node000011_Node000012" class="edge">
<title>Node11&#45;&gt;Node12</title>
<g id="a_edge11_Node000011_Node000012"><a xlink:title=" ">
<path fill="none" stroke="#63b8ff" d="M379.61,-114.87C397.5,-111.65 420.98,-107.42 442.81,-103.49"/>
<polygon fill="#63b8ff" stroke="#63b8ff" points="443.48,-106.92 452.7,-101.71 442.24,-100.03 443.48,-106.92"/>
</a>
</g>
</g>
<!-- Node13&#45;&gt;Node12 -->
<g id="edge13_Node000013_Node000012" class="edge">
<title>Node13&#45;&gt;Node12</title>
<g id="a_edge13_Node000013_Node000012"><a xlink:title=" ">
<path fill="none" stroke="#63b8ff" d="M383.74,-85.15C393.62,-85.72 404.91,-86.38 416.55,-87.05"/>
<polygon fill="#63b8ff" stroke="#63b8ff" points="416.65,-90.56 426.83,-87.65 417.05,-83.57 416.65,-90.56"/>
</a>
</g>
</g>
<!-- Node14&#45;&gt;Node15 -->
<g id="edge15_Node000014_Node000015" class="edge">
<title>Node14&#45;&gt;Node15</title>
<g id="a_edge15_Node000014_Node000015"><a xlink:title=" ">
<path fill="none" stroke="#63b8ff" d="M383.74,-44.03C406.88,-42.54 437.76,-40.56 462.64,-38.96"/>
<polygon fill="#63b8ff" stroke="#63b8ff" points="463.14,-42.43 472.89,-38.3 462.69,-35.45 463.14,-42.43"/>
</a>
</g>
</g>
<!-- Node16&#45;&gt;Node14 -->
<g id="edge18_Node000016_Node000014" class="edge">
<title>Node16&#45;&gt;Node14</title>
<g id="a_edge18_Node000016_Node000014"><a xlink:title=" ">
<path fill="none" stroke="#63b8ff" d="M240.14,-46.2C260.46,-46.2 284.28,-46.2 304.36,-46.2"/>
<polygon fill="#63b8ff" stroke="#63b8ff" points="304.48,-49.7 314.48,-46.2 304.48,-42.7 304.48,-49.7"/>
</a>
</g>
</g>
</g>
</svg>
