<?xml version="1.0" encoding="UTF-8" standalone="no"?>
<!DOCTYPE svg PUBLIC "-//W3C//DTD SVG 1.1//EN"
 "http://www.w3.org/Graphics/SVG/1.1/DTD/svg11.dtd">
<!-- Generated by graphviz version 2.43.0 (0)
 -->
<!-- Title: ParseSpheres Pages: 1 -->
<svg width="504pt" height="170pt"
 viewBox="0.00 0.00 504.00 170.30" xmlns="http://www.w3.org/2000/svg" xmlns:xlink="http://www.w3.org/1999/xlink">
<g id="graph0" class="graph" transform="scale(1 1) rotate(0) translate(4 166.3)">
<title>ParseSpheres</title>
<!-- Node1 -->
<g id="Node000001" class="node">
<title>Node1</title>
<g id="a_Node000001"><a xlink:title=" ">
<polygon fill="#999999" stroke="#666666" points="82,-87.3 0,-87.3 0,-68.3 82,-68.3 82,-87.3"/>
<text text-anchor="middle" x="41" y="-75.3" font-family="Helvetica,sans-Serif" font-size="10.00">ParseSpheres</text>
</a>
</g>
</g>
<!-- Node2 -->
<g id="Node000002" class="node">
<title>Node2</title>
<g id="a_Node000002"><a xlink:href="../../dc/d25/classRayTracer_1_1Scene.html#a596cfa5f2e69ddd8a341f3b10fdcf1b2" target="_top" xlink:title="Add a geometry object to the scene.">
<polygon fill="white" stroke="#666666" points="273,-162.3 118,-162.3 118,-143.3 273,-143.3 273,-162.3"/>
<text text-anchor="middle" x="195.5" y="-150.3" font-family="Helvetica,sans-Serif" font-size="10.00">RayTracer::Scene::addObject</text>
</a>
</g>
</g>
<!-- Node1&#45;&gt;Node2 -->
<g id="edge1_Node000001_Node000002" class="edge">
<title>Node1&#45;&gt;Node2</title>
<g id="a_edge1_Node000001_Node000002"><a xlink:title=" ">
<path fill="none" stroke="#63b8ff" d="M51.92,-87.42C65.64,-100.17 91.7,-122.5 118,-134.8 122.33,-136.82 126.91,-138.63 131.58,-140.24"/>
<polygon fill="#63b8ff" stroke="#63b8ff" points="130.68,-143.63 141.27,-143.28 132.78,-136.95 130.68,-143.63"/>
</a>
</g>
</g>
<!-- Node3 -->
<g id="Node000003" class="node">
<title>Node3</title>
<g id="a_Node000003"><a xlink:href="../../d3/d79/SceneParser_8cpp.html#aa782e54e3eee3a001fb792cc4026fb20" target="_top" xlink:title=" ">
<polygon fill="white" stroke="#666666" points="244.5,-125.3 146.5,-125.3 146.5,-106.3 244.5,-106.3 244.5,-125.3"/>
<text text-anchor="middle" x="195.5" y="-113.3" font-family="Helvetica,sans-Serif" font-size="10.00">ApplyTransforms</text>
</a>
</g>
</g>
<!-- Node1&#45;&gt;Node3 -->
<g id="edge2_Node000001_Node000003" class="edge">
<title>Node1&#45;&gt;Node3</title>
<g id="a_edge2_Node000001_Node000003"><a xlink:title=" ">
<path fill="none" stroke="#63b8ff" d="M80.48,-87.39C100.52,-92.38 125.2,-98.53 146.48,-103.83"/>
<polygon fill="#63b8ff" stroke="#63b8ff" points="145.74,-107.26 156.29,-106.28 147.44,-100.46 145.74,-107.26"/>
</a>
</g>
</g>
<!-- Node7 -->
<g id="Node000007" class="node">
<title>Node7</title>
<g id="a_Node000007"><a xlink:href="../../d3/d79/SceneParser_8cpp.html#a2f2fded85eeec23ebae4e1c2e9fe96aa" target="_top" xlink:title=" ">
<polygon fill="white" stroke="#666666" points="385.5,-49.3 316.5,-49.3 316.5,-30.3 385.5,-30.3 385.5,-49.3"/>
<text text-anchor="middle" x="351" y="-37.3" font-family="Helvetica,sans-Serif" font-size="10.00">parseColor</text>
</a>
</g>
</g>
<!-- Node1&#45;&gt;Node7 -->
<g id="edge6_Node000001_Node000007" class="edge">
<title>Node1&#45;&gt;Node7</title>
<g id="a_edge6_Node000001_Node000007"><a xlink:title=" ">
<path fill="none" stroke="#63b8ff" d="M82.3,-76.43C128.58,-74.42 206.68,-69.64 273,-58.8 284.03,-56.99 295.8,-54.43 306.74,-51.76"/>
<polygon fill="#63b8ff" stroke="#63b8ff" points="307.67,-55.13 316.51,-49.3 305.96,-48.35 307.67,-55.13"/>
</a>
</g>
</g>
<!-- Node8 -->
<g id="Node000008" class="node">
<title>Node8</title>
<g id="a_Node000008"><a xlink:href="../../d3/d79/SceneParser_8cpp.html#ab07eea3323845932b0e5c43bec9396d5" target="_top" xlink:title=" ">
<polygon fill="white" stroke="#666666" points="496,-30.3 429,-30.3 429,-11.3 496,-11.3 496,-30.3"/>
<text text-anchor="middle" x="462.5" y="-18.3" font-family="Helvetica,sans-Serif" font-size="10.00">parseVec3</text>
</a>
</g>
</g>
<!-- Node1&#45;&gt;Node8 -->
<g id="edge8_Node000001_Node000008" class="edge">
<title>Node1&#45;&gt;Node8</title>
<g id="a_edge8_Node000001_Node000008"><a xlink:title=" ">
<path fill="none" stroke="#63b8ff" d="M51.15,-67.92C64.38,-54.45 90.3,-30.95 118,-21.8 221.47,12.37 352.24,-1.73 418.62,-12.6"/>
<polygon fill="#63b8ff" stroke="#63b8ff" points="418.26,-16.09 428.7,-14.31 419.43,-9.18 418.26,-16.09"/>
</a>
</g>
</g>
<!-- Node9 -->
<g id="Node000009" class="node">
<title>Node9</title>
<g id="a_Node000009"><a xlink:href="../../d3/d79/SceneParser_8cpp.html#a8b7e43054abc89463b4746c81fe05f73" target="_top" xlink:title=" ">
<polygon fill="white" stroke="#666666" points="242,-49.3 149,-49.3 149,-30.3 242,-30.3 242,-49.3"/>
<text text-anchor="middle" x="195.5" y="-37.3" font-family="Helvetica,sans-Serif" font-size="10.00">resolveMaterial</text>
</a>
</g>
</g>
<!-- Node1&#45;&gt;Node9 -->
<g id="edge9_Node000001_Node000009" class="edge">
<title>Node1&#45;&gt;Node9</title>
<g id="a_edge9_Node000001_Node000009"><a xlink:title=" ">
<path fill="none" stroke="#63b8ff" d="M80.48,-68.21C100.52,-63.22 125.2,-57.06 146.48,-51.76"/>
<polygon fill="#63b8ff" stroke="#63b8ff" points="147.44,-55.13 156.29,-49.32 145.74,-48.34 147.44,-55.13"/>
</a>
</g>
</g>
<!-- Node4 -->
<g id="Node000004" class="node">
<title>Node4</title>
<g id="a_Node000004"><a xlink:href="../../d3/d79/SceneParser_8cpp.html#ae3517631b63ce9e4328bc51373bf45a3" target="_top" xlink:title=" ">
<polygon fill="white" stroke="#666666" points="388,-162.3 314,-162.3 314,-143.3 388,-143.3 388,-162.3"/>
<text text-anchor="middle" x="351" y="-150.3" font-family="Helvetica,sans-Serif" font-size="10.00">ParseMatrix</text>
</a>
</g>
</g>
<!-- Node3&#45;&gt;Node4 -->
<g id="edge3_Node000003_Node000004" class="edge">
<title>Node3&#45;&gt;Node4</title>
<g id="a_edge3_Node000003_Node000004"><a xlink:title=" ">
<path fill="none" stroke="#63b8ff" d="M236.03,-125.33C256.74,-130.32 282.21,-136.46 303.82,-141.67"/>
<polygon fill="#63b8ff" stroke="#63b8ff" points="303.22,-145.12 313.76,-144.06 304.86,-138.32 303.22,-145.12"/>
</a>
</g>
</g>
<!-- Node5 -->
<g id="Node000005" class="node">
<title>Node5</title>
<g id="a_Node000005"><a xlink:href="../../d3/d79/SceneParser_8cpp.html#ab610c3a763bad5cb0f39e0d2f61a0c84" target="_top" xlink:title=" ">
<polygon fill="white" stroke="#666666" points="393,-125.3 309,-125.3 309,-106.3 393,-106.3 393,-125.3"/>
<text text-anchor="middle" x="351" y="-113.3" font-family="Helvetica,sans-Serif" font-size="10.00">ParseRotation</text>
</a>
</g>
</g>
<!-- Node3&#45;&gt;Node5 -->
<g id="edge4_Node000003_Node000005" class="edge">
<title>Node3&#45;&gt;Node5</title>
<g id="a_edge4_Node000003_Node000005"><a xlink:title=" ">
<path fill="none" stroke="#63b8ff" d="M244.65,-115.8C261.92,-115.8 281.45,-115.8 298.96,-115.8"/>
<polygon fill="#63b8ff" stroke="#63b8ff" points="299,-119.3 309,-115.8 299,-112.3 299,-119.3"/>
</a>
</g>
</g>
<!-- Node6 -->
<g id="Node000006" class="node">
<title>Node6</title>
<g id="a_Node000006"><a xlink:href="../../d3/d79/SceneParser_8cpp.html#a16ef5180e27cc191fa8b0948fef6446f" target="_top" xlink:title=" ">
<polygon fill="white" stroke="#666666" points="386.5,-88.3 315.5,-88.3 315.5,-69.3 386.5,-69.3 386.5,-88.3"/>
<text text-anchor="middle" x="351" y="-76.3" font-family="Helvetica,sans-Serif" font-size="10.00">ParseShear</text>
</a>
</g>
</g>
<!-- Node3&#45;&gt;Node6 -->
<g id="edge5_Node000003_Node000006" class="edge">
<title>Node3&#45;&gt;Node6</title>
<g id="a_edge5_Node000003_Node000006"><a xlink:title=" ">
<path fill="none" stroke="#63b8ff" d="M236.03,-106.27C257.29,-101.14 283.58,-94.81 305.55,-89.51"/>
<polygon fill="#63b8ff" stroke="#63b8ff" points="306.4,-92.91 315.31,-87.16 304.76,-86.1 306.4,-92.91"/>
</a>
</g>
</g>
<!-- Node7&#45;&gt;Node8 -->
<g id="edge7_Node000007_Node000008" class="edge">
<title>Node7&#45;&gt;Node8</title>
<g id="a_edge7_Node000007_Node000008"><a xlink:title=" ">
<path fill="none" stroke="#63b8ff" d="M385.75,-33.94C396.24,-32.12 407.94,-30.09 418.94,-28.18"/>
<polygon fill="#63b8ff" stroke="#63b8ff" points="419.55,-31.63 428.8,-26.47 418.35,-24.73 419.55,-31.63"/>
</a>
</g>
</g>
<!-- Node9&#45;&gt;Node7 -->
<g id="edge10_Node000009_Node000007" class="edge">
<title>Node9&#45;&gt;Node7</title>
<g id="a_edge10_Node000009_Node000007"><a xlink:title=" ">
<path fill="none" stroke="#63b8ff" d="M242.14,-39.8C262.46,-39.8 286.28,-39.8 306.36,-39.8"/>
<polygon fill="#63b8ff" stroke="#63b8ff" points="306.48,-43.3 316.48,-39.8 306.48,-36.3 306.48,-43.3"/>
</a>
</g>
</g>
</g>
</svg>
