<?xml version="1.0" encoding="UTF-8" standalone="no"?>
<!DOCTYPE svg PUBLIC "-//W3C//DTD SVG 1.1//EN"
 "http://www.w3.org/Graphics/SVG/1.1/DTD/svg11.dtd">
<!-- Generated by graphviz version 2.43.0 (0)
 -->
<!-- Title: ParseMenger Pages: 1 -->
<svg width="502pt" height="171pt"
 viewBox="0.00 0.00 502.00 170.50" xmlns="http://www.w3.org/2000/svg" xmlns:xlink="http://www.w3.org/1999/xlink">
<g id="graph0" class="graph" transform="scale(1 1) rotate(0) translate(4 166.5)">
<title>ParseMenger</title>
<!-- Node1 -->
<g id="Node000001" class="node">
<title>Node1</title>
<g id="a_Node000001"><a xlink:title=" ">
<polygon fill="#999999" stroke="#666666" points="80,-87.5 0,-87.5 0,-68.5 80,-68.5 80,-87.5"/>
<text text-anchor="middle" x="40" y="-75.5" font-family="Helvetica,sans-Serif" font-size="10.00">ParseMenger</text>
</a>
</g>
</g>
<!-- Node2 -->
<g id="Node000002" class="node">
<title>Node2</title>
<g id="a_Node000002"><a xlink:href="../../dc/d25/classRayTracer_1_1Scene.html#a596cfa5f2e69ddd8a341f3b10fdcf1b2" target="_top" xlink:title="Add a geometry object to the scene.">
<polygon fill="white" stroke="#666666" points="271,-162.5 116,-162.5 116,-143.5 271,-143.5 271,-162.5"/>
<text text-anchor="middle" x="193.5" y="-150.5" font-family="Helvetica,sans-Serif" font-size="10.00">RayTracer::Scene::addObject</text>
</a>
</g>
</g>
<!-- Node1&#45;&gt;Node2 -->
<g id="edge1_Node000001_Node000002" class="edge">
<title>Node1&#45;&gt;Node2</title>
<g id="a_edge1_Node000001_Node000002"><a xlink:title=" ">
<path fill="none" stroke="#63b8ff" d="M50.77,-87.63C64.28,-100.39 89.96,-122.73 116,-135 120.14,-136.95 124.5,-138.7 128.97,-140.27"/>
<polygon fill="#63b8ff" stroke="#63b8ff" points="128.26,-143.72 138.85,-143.41 130.38,-137.04 128.26,-143.72"/>
</a>
</g>
</g>
<!-- Node3 -->
<g id="Node000003" class="node">
<title>Node3</title>
<g id="a_Node000003"><a xlink:href="../../d3/d79/SceneParser_8cpp.html#aa782e54e3eee3a001fb792cc4026fb20" target="_top" xlink:title=" ">
<polygon fill="white" stroke="#666666" points="242.5,-125.5 144.5,-125.5 144.5,-106.5 242.5,-106.5 242.5,-125.5"/>
<text text-anchor="middle" x="193.5" y="-113.5" font-family="Helvetica,sans-Serif" font-size="10.00">ApplyTransforms</text>
</a>
</g>
</g>
<!-- Node1&#45;&gt;Node3 -->
<g id="edge2_Node000001_Node000003" class="edge">
<title>Node1&#45;&gt;Node3</title>
<g id="a_edge2_Node000001_Node000003"><a xlink:title=" ">
<path fill="none" stroke="#63b8ff" d="M79.23,-87.59C99.13,-92.59 123.66,-98.74 144.79,-104.04"/>
<polygon fill="#63b8ff" stroke="#63b8ff" points="143.99,-107.45 154.55,-106.48 145.7,-100.66 143.99,-107.45"/>
</a>
</g>
</g>
<!-- Node7 -->
<g id="Node000007" class="node">
<title>Node7</title>
<g id="a_Node000007"><a xlink:href="../../d3/d79/SceneParser_8cpp.html#a2f2fded85eeec23ebae4e1c2e9fe96aa" target="_top" xlink:title=" ">
<polygon fill="white" stroke="#666666" points="383.5,-49.5 314.5,-49.5 314.5,-30.5 383.5,-30.5 383.5,-49.5"/>
<text text-anchor="middle" x="349" y="-37.5" font-family="Helvetica,sans-Serif" font-size="10.00">parseColor</text>
</a>
</g>
</g>
<!-- Node1&#45;&gt;Node7 -->
<g id="edge6_Node000001_Node000007" class="edge">
<title>Node1&#45;&gt;Node7</title>
<g id="a_edge6_Node000001_Node000007"><a xlink:title=" ">
<path fill="none" stroke="#63b8ff" d="M80.3,-76.67C126.28,-74.66 204.57,-69.87 271,-59 281.81,-57.24 293.34,-54.73 304.1,-52.12"/>
<polygon fill="#63b8ff" stroke="#63b8ff" points="305.28,-55.43 314.13,-49.6 303.58,-48.64 305.28,-55.43"/>
</a>
</g>
</g>
<!-- Node8 -->
<g id="Node000008" class="node">
<title>Node8</title>
<g id="a_Node000008"><a xlink:href="../../d3/d79/SceneParser_8cpp.html#ab07eea3323845932b0e5c43bec9396d5" target="_top" xlink:title=" ">
<polygon fill="white" stroke="#666666" points="494,-30.5 427,-30.5 427,-11.5 494,-11.5 494,-30.5"/>
<text text-anchor="middle" x="460.5" y="-18.5" font-family="Helvetica,sans-Serif" font-size="10.00">parseVec3</text>
</a>
</g>
</g>
<!-- Node1&#45;&gt;Node8 -->
<g id="edge8_Node000001_Node000008" class="edge">
<title>Node1&#45;&gt;Node8</title>
<g id="a_edge8_Node000001_Node000008"><a xlink:title=" ">
<path fill="none" stroke="#63b8ff" d="M50,-68.13C63.02,-54.66 88.56,-31.16 116,-22 219.36,12.49 350.17,-1.75 416.59,-12.72"/>
<polygon fill="#63b8ff" stroke="#63b8ff" points="416.23,-16.21 426.68,-14.45 417.41,-9.31 416.23,-16.21"/>
</a>
</g>
</g>
<!-- Node9 -->
<g id="Node000009" class="node">
<title>Node9</title>
<g id="a_Node000009"><a xlink:href="../../d3/d79/SceneParser_8cpp.html#a8b7e43054abc89463b4746c81fe05f73" target="_top" xlink:title=" ">
<polygon fill="white" stroke="#666666" points="240,-49.5 147,-49.5 147,-30.5 240,-30.5 240,-49.5"/>
<text text-anchor="middle" x="193.5" y="-37.5" font-family="Helvetica,sans-Serif" font-size="10.00">resolveMaterial</text>
</a>
</g>
</g>
<!-- Node1&#45;&gt;Node9 -->
<g id="edge9_Node000001_Node000009" class="edge">
<title>Node1&#45;&gt;Node9</title>
<g id="a_edge9_Node000001_Node000009"><a xlink:title=" ">
<path fill="none" stroke="#63b8ff" d="M79.23,-68.42C99.13,-63.42 123.66,-57.27 144.79,-51.97"/>
<polygon fill="#63b8ff" stroke="#63b8ff" points="145.7,-55.35 154.55,-49.52 143.99,-48.56 145.7,-55.35"/>
</a>
</g>
</g>
<!-- Node4 -->
<g id="Node000004" class="node">
<title>Node4</title>
<g id="a_Node000004"><a xlink:href="../../d3/d79/SceneParser_8cpp.html#ae3517631b63ce9e4328bc51373bf45a3" target="_top" xlink:title=" ">
<polygon fill="white" stroke="#666666" points="386,-162.5 312,-162.5 312,-143.5 386,-143.5 386,-162.5"/>
<text text-anchor="middle" x="349" y="-150.5" font-family="Helvetica,sans-Serif" font-size="10.00">ParseMatrix</text>
</a>
</g>
</g>
<!-- Node3&#45;&gt;Node4 -->
<g id="edge3_Node000003_Node000004" class="edge">
<title>Node3&#45;&gt;Node4</title>
<g id="a_edge3_Node000003_Node000004"><a xlink:title=" ">
<path fill="none" stroke="#63b8ff" d="M234.03,-125.53C254.74,-130.52 280.21,-136.66 301.82,-141.87"/>
<polygon fill="#63b8ff" stroke="#63b8ff" points="301.22,-145.33 311.76,-144.27 302.86,-138.52 301.22,-145.33"/>
</a>
</g>
</g>
<!-- Node5 -->
<g id="Node000005" class="node">
<title>Node5</title>
<g id="a_Node000005"><a xlink:href="../../d3/d79/SceneParser_8cpp.html#ab610c3a763bad5cb0f39e0d2f61a0c84" target="_top" xlink:title=" ">
<polygon fill="white" stroke="#666666" points="391,-125.5 307,-125.5 307,-106.5 391,-106.5 391,-125.5"/>
<text text-anchor="middle" x="349" y="-113.5" font-family="Helvetica,sans-Serif" font-size="10.00">ParseRotation</text>
</a>
</g>
</g>
<!-- Node3&#45;&gt;Node5 -->
<g id="edge4_Node000003_Node000005" class="edge">
<title>Node3&#45;&gt;Node5</title>
<g id="a_edge4_Node000003_Node000005"><a xlink:title=" ">
<path fill="none" stroke="#63b8ff" d="M242.65,-116C259.92,-116 279.45,-116 296.96,-116"/>
<polygon fill="#63b8ff" stroke="#63b8ff" points="297,-119.5 307,-116 297,-112.5 297,-119.5"/>
</a>
</g>
</g>
<!-- Node6 -->
<g id="Node000006" class="node">
<title>Node6</title>
<g id="a_Node000006"><a xlink:href="../../d3/d79/SceneParser_8cpp.html#a16ef5180e27cc191fa8b0948fef6446f" target="_top" xlink:title=" ">
<polygon fill="white" stroke="#666666" points="384.5,-88.5 313.5,-88.5 313.5,-69.5 384.5,-69.5 384.5,-88.5"/>
<text text-anchor="middle" x="349" y="-76.5" font-family="Helvetica,sans-Serif" font-size="10.00">ParseShear</text>
</a>
</g>
</g>
<!-- Node3&#45;&gt;Node6 -->
<g id="edge5_Node000003_Node000006" class="edge">
<title>Node3&#45;&gt;Node6</title>
<g id="a_edge5_Node000003_Node000006"><a xlink:title=" ">
<path fill="none" stroke="#63b8ff" d="M234.03,-106.48C255.29,-101.35 281.58,-95.01 303.55,-89.72"/>
<polygon fill="#63b8ff" stroke="#63b8ff" points="304.4,-93.11 313.31,-87.37 302.76,-86.31 304.4,-93.11"/>
</a>
</g>
</g>
<!-- Node7&#45;&gt;Node8 -->
<g id="edge7_Node000007_Node000008" class="edge">
<title>Node7&#45;&gt;Node8</title>
<g id="a_edge7_Node000007_Node000008"><a xlink:title=" ">
<path fill="none" stroke="#63b8ff" d="M383.75,-34.15C394.24,-32.33 405.94,-30.3 416.94,-28.39"/>
<polygon fill="#63b8ff" stroke="#63b8ff" points="417.55,-31.84 426.8,-26.68 416.35,-24.94 417.55,-31.84"/>
</a>
</g>
</g>
<!-- Node9&#45;&gt;Node7 -->
<g id="edge10_Node000009_Node000007" class="edge">
<title>Node9&#45;&gt;Node7</title>
<g id="a_edge10_Node000009_Node000007"><a xlink:title=" ">
<path fill="none" stroke="#63b8ff" d="M240.14,-40C260.46,-40 284.28,-40 304.36,-40"/>
<polygon fill="#63b8ff" stroke="#63b8ff" points="304.48,-43.5 314.48,-40 304.48,-36.5 304.48,-43.5"/>
</a>
</g>
</g>
</g>
</svg>
