<?xml version="1.0" encoding="UTF-8" standalone="no"?>
<!DOCTYPE svg PUBLIC "-//W3C//DTD SVG 1.1//EN"
 "http://www.w3.org/Graphics/SVG/1.1/DTD/svg11.dtd">
<!-- Generated by graphviz version 2.43.0 (0)
 -->
<!-- Title: ParseCones Pages: 1 -->
<svg width="495pt" height="171pt"
 viewBox="0.00 0.00 495.00 171.09" xmlns="http://www.w3.org/2000/svg" xmlns:xlink="http://www.w3.org/1999/xlink">
<g id="graph0" class="graph" transform="scale(1 1) rotate(0) translate(4 167.09)">
<title>ParseCones</title>
<!-- Node1 -->
<g id="Node000001" class="node">
<title>Node1</title>
<g id="a_Node000001"><a xlink:title=" ">
<polygon fill="#999999" stroke="#666666" points="73,-88.09 0,-88.09 0,-69.09 73,-69.09 73,-88.09"/>
<text text-anchor="middle" x="36.5" y="-76.09" font-family="Helvetica,sans-Serif" font-size="10.00">ParseCones</text>
</a>
</g>
</g>
<!-- Node2 -->
<g id="Node000002" class="node">
<title>Node2</title>
<g id="a_Node000002"><a xlink:href="../../dc/d25/classRayTracer_1_1Scene.html#a596cfa5f2e69ddd8a341f3b10fdcf1b2" target="_top" xlink:title="Add a geometry object to the scene.">
<polygon fill="white" stroke="#666666" points="264,-163.09 109,-163.09 109,-144.09 264,-144.09 264,-163.09"/>
<text text-anchor="middle" x="186.5" y="-151.09" font-family="Helvetica,sans-Serif" font-size="10.00">RayTracer::Scene::addObject</text>
</a>
</g>
</g>
<!-- Node1&#45;&gt;Node2 -->
<g id="edge1_Node000001_Node000002" class="edge">
<title>Node1&#45;&gt;Node2</title>
<g id="a_edge1_Node000001_Node000002"><a xlink:title=" ">
<path fill="none" stroke="#63b8ff" d="M46.72,-88.24C59.5,-101.02 83.87,-123.39 109,-135.59 113.04,-137.56 117.32,-139.31 121.69,-140.88"/>
<polygon fill="#63b8ff" stroke="#63b8ff" points="120.78,-144.27 131.37,-144.03 122.94,-137.61 120.78,-144.27"/>
</a>
</g>
</g>
<!-- Node3 -->
<g id="Node000003" class="node">
<title>Node3</title>
<g id="a_Node000003"><a xlink:href="../../d3/d79/SceneParser_8cpp.html#aa782e54e3eee3a001fb792cc4026fb20" target="_top" xlink:title=" ">
<polygon fill="white" stroke="#666666" points="235.5,-126.09 137.5,-126.09 137.5,-107.09 235.5,-107.09 235.5,-126.09"/>
<text text-anchor="middle" x="186.5" y="-114.09" font-family="Helvetica,sans-Serif" font-size="10.00">ApplyTransforms</text>
</a>
</g>
</g>
<!-- Node1&#45;&gt;Node3 -->
<g id="edge2_Node000001_Node000003" class="edge">
<title>Node1&#45;&gt;Node3</title>
<g id="a_edge2_Node000001_Node000003"><a xlink:title=" ">
<path fill="none" stroke="#63b8ff" d="M73.33,-87.79C92.97,-92.84 117.56,-99.15 138.7,-104.58"/>
<polygon fill="#63b8ff" stroke="#63b8ff" points="137.9,-107.99 148.46,-107.08 139.64,-101.21 137.9,-107.99"/>
</a>
</g>
</g>
<!-- Node7 -->
<g id="Node000007" class="node">
<title>Node7</title>
<g id="a_Node000007"><a xlink:href="../../d3/d79/SceneParser_8cpp.html#a2f2fded85eeec23ebae4e1c2e9fe96aa" target="_top" xlink:title=" ">
<polygon fill="white" stroke="#666666" points="376.5,-50.09 307.5,-50.09 307.5,-31.09 376.5,-31.09 376.5,-50.09"/>
<text text-anchor="middle" x="342" y="-38.09" font-family="Helvetica,sans-Serif" font-size="10.00">parseColor</text>
</a>
</g>
</g>
<!-- Node1&#45;&gt;Node7 -->
<g id="edge6_Node000001_Node000007" class="edge">
<title>Node1&#45;&gt;Node7</title>
<g id="a_edge6_Node000001_Node000007"><a xlink:title=" ">
<path fill="none" stroke="#63b8ff" d="M73.02,-77.35C117.8,-75.39 197.02,-70.6 264,-59.59 274.81,-57.82 286.34,-55.31 297.1,-52.7"/>
<polygon fill="#63b8ff" stroke="#63b8ff" points="298.28,-56.01 307.13,-50.18 296.57,-49.22 298.28,-56.01"/>
</a>
</g>
</g>
<!-- Node8 -->
<g id="Node000008" class="node">
<title>Node8</title>
<g id="a_Node000008"><a xlink:href="../../d3/d79/SceneParser_8cpp.html#ab07eea3323845932b0e5c43bec9396d5" target="_top" xlink:title=" ">
<polygon fill="white" stroke="#666666" points="487,-31.09 420,-31.09 420,-12.09 487,-12.09 487,-31.09"/>
<text text-anchor="middle" x="453.5" y="-19.09" font-family="Helvetica,sans-Serif" font-size="10.00">parseVec3</text>
</a>
</g>
</g>
<!-- Node1&#45;&gt;Node8 -->
<g id="edge8_Node000001_Node000008" class="edge">
<title>Node1&#45;&gt;Node8</title>
<g id="a_edge8_Node000001_Node000008"><a xlink:title=" ">
<path fill="none" stroke="#63b8ff" d="M45.98,-68.73C58.27,-55.27 82.48,-31.79 109,-22.59 211.96,13.09 342.94,-1.65 409.49,-13.02"/>
<polygon fill="#63b8ff" stroke="#63b8ff" points="409.15,-16.51 419.6,-14.81 410.36,-9.62 409.15,-16.51"/>
</a>
</g>
</g>
<!-- Node9 -->
<g id="Node000009" class="node">
<title>Node9</title>
<g id="a_Node000009"><a xlink:href="../../d3/d79/SceneParser_8cpp.html#a8b7e43054abc89463b4746c81fe05f73" target="_top" xlink:title=" ">
<polygon fill="white" stroke="#666666" points="233,-50.09 140,-50.09 140,-31.09 233,-31.09 233,-50.09"/>
<text text-anchor="middle" x="186.5" y="-38.09" font-family="Helvetica,sans-Serif" font-size="10.00">resolveMaterial</text>
</a>
</g>
</g>
<!-- Node1&#45;&gt;Node9 -->
<g id="edge9_Node000001_Node000009" class="edge">
<title>Node1&#45;&gt;Node9</title>
<g id="a_edge9_Node000001_Node000009"><a xlink:title=" ">
<path fill="none" stroke="#63b8ff" d="M73.33,-69.4C92.97,-64.35 117.56,-58.04 138.7,-52.61"/>
<polygon fill="#63b8ff" stroke="#63b8ff" points="139.64,-55.98 148.46,-50.1 137.9,-49.2 139.64,-55.98"/>
</a>
</g>
</g>
<!-- Node4 -->
<g id="Node000004" class="node">
<title>Node4</title>
<g id="a_Node000004"><a xlink:href="../../d3/d79/SceneParser_8cpp.html#ae3517631b63ce9e4328bc51373bf45a3" target="_top" xlink:title=" ">
<polygon fill="white" stroke="#666666" points="379,-163.09 305,-163.09 305,-144.09 379,-144.09 379,-163.09"/>
<text text-anchor="middle" x="342" y="-151.09" font-family="Helvetica,sans-Serif" font-size="10.00">ParseMatrix</text>
</a>
</g>
</g>
<!-- Node3&#45;&gt;Node4 -->
<g id="edge3_Node000003_Node000004" class="edge">
<title>Node3&#45;&gt;Node4</title>
<g id="a_edge3_Node000003_Node000004"><a xlink:title=" ">
<path fill="none" stroke="#63b8ff" d="M227.03,-126.12C247.74,-131.11 273.21,-137.25 294.82,-142.46"/>
<polygon fill="#63b8ff" stroke="#63b8ff" points="294.22,-145.92 304.76,-144.86 295.86,-139.11 294.22,-145.92"/>
</a>
</g>
</g>
<!-- Node5 -->
<g id="Node000005" class="node">
<title>Node5</title>
<g id="a_Node000005"><a xlink:href="../../d3/d79/SceneParser_8cpp.html#ab610c3a763bad5cb0f39e0d2f61a0c84" target="_top" xlink:title=" ">
<polygon fill="white" stroke="#666666" points="384,-126.09 300,-126.09 300,-107.09 384,-107.09 384,-126.09"/>
<text text-anchor="middle" x="342" y="-114.09" font-family="Helvetica,sans-Serif" font-size="10.00">ParseRotation</text>
</a>
</g>
</g>
<!-- Node3&#45;&gt;Node5 -->
<g id="edge4_Node000003_Node000005" class="edge">
<title>Node3&#45;&gt;Node5</title>
<g id="a_edge4_Node000003_Node000005"><a xlink:title=" ">
<path fill="none" stroke="#63b8ff" d="M235.65,-116.59C252.92,-116.59 272.45,-116.59 289.96,-116.59"/>
<polygon fill="#63b8ff" stroke="#63b8ff" points="290,-120.09 300,-116.59 290,-113.09 290,-120.09"/>
</a>
</g>
</g>
<!-- Node6 -->
<g id="Node000006" class="node">
<title>Node6</title>
<g id="a_Node000006"><a xlink:href="../../d3/d79/SceneParser_8cpp.html#a16ef5180e27cc191fa8b0948fef6446f" target="_top" xlink:title=" ">
<polygon fill="white" stroke="#666666" points="377.5,-89.09 306.5,-89.09 306.5,-70.09 377.5,-70.09 377.5,-89.09"/>
<text text-anchor="middle" x="342" y="-77.09" font-family="Helvetica,sans-Serif" font-size="10.00">ParseShear</text>
</a>
</g>
</g>
<!-- Node3&#45;&gt;Node6 -->
<g id="edge5_Node000003_Node000006" class="edge">
<title>Node3&#45;&gt;Node6</title>
<g id="a_edge5_Node000003_Node000006"><a xlink:title=" ">
<path fill="none" stroke="#63b8ff" d="M227.03,-107.07C248.29,-101.94 274.58,-95.6 296.55,-90.31"/>
<polygon fill="#63b8ff" stroke="#63b8ff" points="297.4,-93.7 306.31,-87.96 295.76,-86.9 297.4,-93.7"/>
</a>
</g>
</g>
<!-- Node7&#45;&gt;Node8 -->
<g id="edge7_Node000007_Node000008" class="edge">
<title>Node7&#45;&gt;Node8</title>
<g id="a_edge7_Node000007_Node000008"><a xlink:title=" ">
<path fill="none" stroke="#63b8ff" d="M376.75,-34.74C387.24,-32.92 398.94,-30.89 409.94,-28.98"/>
<polygon fill="#63b8ff" stroke="#63b8ff" points="410.55,-32.43 419.8,-27.27 409.35,-25.53 410.55,-32.43"/>
</a>
</g>
</g>
<!-- Node9&#45;&gt;Node7 -->
<g id="edge10_Node000009_Node000007" class="edge">
<title>Node9&#45;&gt;Node7</title>
<g id="a_edge10_Node000009_Node000007"><a xlink:title=" ">
<path fill="none" stroke="#63b8ff" d="M233.14,-40.59C253.46,-40.59 277.28,-40.59 297.36,-40.59"/>
<polygon fill="#63b8ff" stroke="#63b8ff" points="297.48,-44.09 307.48,-40.59 297.48,-37.09 297.48,-44.09"/>
</a>
</g>
</g>
</g>
</svg>
