<?xml version="1.0" encoding="UTF-8" standalone="no"?>
<!DOCTYPE svg PUBLIC "-//W3C//DTD SVG 1.1//EN"
 "http://www.w3.org/Graphics/SVG/1.1/DTD/svg11.dtd">
<!-- Generated by graphviz version 2.43.0 (0)
 -->
<!-- Title: ParseCylinders Pages: 1 -->
<svg width="511pt" height="170pt"
 viewBox="0.00 0.00 511.00 169.60" xmlns="http://www.w3.org/2000/svg" xmlns:xlink="http://www.w3.org/1999/xlink">
<g id="graph0" class="graph" transform="scale(1 1) rotate(0) translate(4 165.6)">
<title>ParseCylinders</title>
<!-- Node1 -->
<g id="Node000001" class="node">
<title>Node1</title>
<g id="a_Node000001"><a xlink:title=" ">
<polygon fill="#999999" stroke="#666666" points="89,-86.6 0,-86.6 0,-67.6 89,-67.6 89,-86.6"/>
<text text-anchor="middle" x="44.5" y="-74.6" font-family="Helvetica,sans-Serif" font-size="10.00">ParseCylinders</text>
</a>
</g>
</g>
<!-- Node2 -->
<g id="Node000002" class="node">
<title>Node2</title>
<g id="a_Node000002"><a xlink:href="../../dc/d25/classRayTracer_1_1Scene.html#a596cfa5f2e69ddd8a341f3b10fdcf1b2" target="_top" xlink:title="Add a geometry object to the scene.">
<polygon fill="white" stroke="#666666" points="280,-161.6 125,-161.6 125,-142.6 280,-142.6 280,-161.6"/>
<text text-anchor="middle" x="202.5" y="-149.6" font-family="Helvetica,sans-Serif" font-size="10.00">RayTracer::Scene::addObject</text>
</a>
</g>
</g>
<!-- Node1&#45;&gt;Node2 -->
<g id="edge1_Node000001_Node000002" class="edge">
<title>Node1&#45;&gt;Node2</title>
<g id="a_edge1_Node000001_Node000002"><a xlink:title=" ">
<path fill="none" stroke="#63b8ff" d="M55.97,-86.7C70.42,-99.43 97.79,-121.73 125,-134.1 129.43,-136.11 134.1,-137.91 138.87,-139.52"/>
<polygon fill="#63b8ff" stroke="#63b8ff" points="138.16,-142.96 148.74,-142.56 140.22,-136.27 138.16,-142.96"/>
</a>
</g>
</g>
<!-- Node3 -->
<g id="Node000003" class="node">
<title>Node3</title>
<g id="a_Node000003"><a xlink:href="../../d3/d79/SceneParser_8cpp.html#aa782e54e3eee3a001fb792cc4026fb20" target="_top" xlink:title=" ">
<polygon fill="white" stroke="#666666" points="251.5,-124.6 153.5,-124.6 153.5,-105.6 251.5,-105.6 251.5,-124.6"/>
<text text-anchor="middle" x="202.5" y="-112.6" font-family="Helvetica,sans-Serif" font-size="10.00">ApplyTransforms</text>
</a>
</g>
</g>
<!-- Node1&#45;&gt;Node3 -->
<g id="edge2_Node000001_Node000003" class="edge">
<title>Node1&#45;&gt;Node3</title>
<g id="a_edge2_Node000001_Node000003"><a xlink:title=" ">
<path fill="none" stroke="#63b8ff" d="M84.87,-86.69C105.45,-91.7 130.84,-97.89 152.67,-103.2"/>
<polygon fill="#63b8ff" stroke="#63b8ff" points="151.87,-106.61 162.42,-105.58 153.53,-99.81 151.87,-106.61"/>
</a>
</g>
</g>
<!-- Node7 -->
<g id="Node000007" class="node">
<title>Node7</title>
<g id="a_Node000007"><a xlink:href="../../d3/d79/SceneParser_8cpp.html#a2f2fded85eeec23ebae4e1c2e9fe96aa" target="_top" xlink:title=" ">
<polygon fill="white" stroke="#666666" points="392.5,-48.6 323.5,-48.6 323.5,-29.6 392.5,-29.6 392.5,-48.6"/>
<text text-anchor="middle" x="358" y="-36.6" font-family="Helvetica,sans-Serif" font-size="10.00">parseColor</text>
</a>
</g>
</g>
<!-- Node1&#45;&gt;Node7 -->
<g id="edge6_Node000001_Node000007" class="edge">
<title>Node1&#45;&gt;Node7</title>
<g id="a_edge6_Node000001_Node000007"><a xlink:title=" ">
<path fill="none" stroke="#63b8ff" d="M89.41,-75.65C136.71,-73.6 214.09,-68.83 280,-58.1 291.03,-56.3 302.8,-53.74 313.74,-51.07"/>
<polygon fill="#63b8ff" stroke="#63b8ff" points="314.67,-54.44 323.51,-48.61 312.96,-47.66 314.67,-54.44"/>
</a>
</g>
</g>
<!-- Node8 -->
<g id="Node000008" class="node">
<title>Node8</title>
<g id="a_Node000008"><a xlink:href="../../d3/d79/SceneParser_8cpp.html#ab07eea3323845932b0e5c43bec9396d5" target="_top" xlink:title=" ">
<polygon fill="white" stroke="#666666" points="503,-29.6 436,-29.6 436,-10.6 503,-10.6 503,-29.6"/>
<text text-anchor="middle" x="469.5" y="-17.6" font-family="Helvetica,sans-Serif" font-size="10.00">parseVec3</text>
</a>
</g>
</g>
<!-- Node1&#45;&gt;Node8 -->
<g id="edge8_Node000001_Node000008" class="edge">
<title>Node1&#45;&gt;Node8</title>
<g id="a_edge8_Node000001_Node000008"><a xlink:title=" ">
<path fill="none" stroke="#63b8ff" d="M55.17,-67.21C69.12,-53.73 96.37,-30.22 125,-21.1 228.83,11.97 359.44,-1.66 425.7,-12.17"/>
<polygon fill="#63b8ff" stroke="#63b8ff" points="425.34,-15.66 435.77,-13.82 426.47,-8.75 425.34,-15.66"/>
</a>
</g>
</g>
<!-- Node9 -->
<g id="Node000009" class="node">
<title>Node9</title>
<g id="a_Node000009"><a xlink:href="../../d3/d79/SceneParser_8cpp.html#a8b7e43054abc89463b4746c81fe05f73" target="_top" xlink:title=" ">
<polygon fill="white" stroke="#666666" points="249,-48.6 156,-48.6 156,-29.6 249,-29.6 249,-48.6"/>
<text text-anchor="middle" x="202.5" y="-36.6" font-family="Helvetica,sans-Serif" font-size="10.00">resolveMaterial</text>
</a>
</g>
</g>
<!-- Node1&#45;&gt;Node9 -->
<g id="edge9_Node000001_Node000009" class="edge">
<title>Node1&#45;&gt;Node9</title>
<g id="a_edge9_Node000001_Node000009"><a xlink:title=" ">
<path fill="none" stroke="#63b8ff" d="M84.87,-67.51C105.45,-62.49 130.84,-56.31 152.67,-50.99"/>
<polygon fill="#63b8ff" stroke="#63b8ff" points="153.53,-54.39 162.42,-48.62 151.87,-47.58 153.53,-54.39"/>
</a>
</g>
</g>
<!-- Node4 -->
<g id="Node000004" class="node">
<title>Node4</title>
<g id="a_Node000004"><a xlink:href="../../d3/d79/SceneParser_8cpp.html#ae3517631b63ce9e4328bc51373bf45a3" target="_top" xlink:title=" ">
<polygon fill="white" stroke="#666666" points="395,-161.6 321,-161.6 321,-142.6 395,-142.6 395,-161.6"/>
<text text-anchor="middle" x="358" y="-149.6" font-family="Helvetica,sans-Serif" font-size="10.00">ParseMatrix</text>
</a>
</g>
</g>
<!-- Node3&#45;&gt;Node4 -->
<g id="edge3_Node000003_Node000004" class="edge">
<title>Node3&#45;&gt;Node4</title>
<g id="a_edge3_Node000003_Node000004"><a xlink:title=" ">
<path fill="none" stroke="#63b8ff" d="M243.03,-124.63C263.74,-129.62 289.21,-135.76 310.82,-140.97"/>
<polygon fill="#63b8ff" stroke="#63b8ff" points="310.22,-144.42 320.76,-143.36 311.86,-137.62 310.22,-144.42"/>
</a>
</g>
</g>
<!-- Node5 -->
<g id="Node000005" class="node">
<title>Node5</title>
<g id="a_Node000005"><a xlink:href="../../d3/d79/SceneParser_8cpp.html#ab610c3a763bad5cb0f39e0d2f61a0c84" target="_top" xlink:title=" ">
<polygon fill="white" stroke="#666666" points="400,-124.6 316,-124.6 316,-105.6 400,-105.6 400,-124.6"/>
<text text-anchor="middle" x="358" y="-112.6" font-family="Helvetica,sans-Serif" font-size="10.00">ParseRotation</text>
</a>
</g>
</g>
<!-- Node3&#45;&gt;Node5 -->
<g id="edge4_Node000003_Node000005" class="edge">
<title>Node3&#45;&gt;Node5</title>
<g id="a_edge4_Node000003_Node000005"><a xlink:title=" ">
<path fill="none" stroke="#63b8ff" d="M251.65,-115.1C268.92,-115.1 288.45,-115.1 305.96,-115.1"/>
<polygon fill="#63b8ff" stroke="#63b8ff" points="306,-118.6 316,-115.1 306,-111.6 306,-118.6"/>
</a>
</g>
</g>
<!-- Node6 -->
<g id="Node000006" class="node">
<title>Node6</title>
<g id="a_Node000006"><a xlink:href="../../d3/d79/SceneParser_8cpp.html#a16ef5180e27cc191fa8b0948fef6446f" target="_top" xlink:title=" ">
<polygon fill="white" stroke="#666666" points="393.5,-87.6 322.5,-87.6 322.5,-68.6 393.5,-68.6 393.5,-87.6"/>
<text text-anchor="middle" x="358" y="-75.6" font-family="Helvetica,sans-Serif" font-size="10.00">ParseShear</text>
</a>
</g>
</g>
<!-- Node3&#45;&gt;Node6 -->
<g id="edge5_Node000003_Node000006" class="edge">
<title>Node3&#45;&gt;Node6</title>
<g id="a_edge5_Node000003_Node000006"><a xlink:title=" ">
<path fill="none" stroke="#63b8ff" d="M243.03,-105.57C264.29,-100.44 290.58,-94.11 312.55,-88.81"/>
<polygon fill="#63b8ff" stroke="#63b8ff" points="313.4,-92.21 322.31,-86.46 311.76,-85.4 313.4,-92.21"/>
</a>
</g>
</g>
<!-- Node7&#45;&gt;Node8 -->
<g id="edge7_Node000007_Node000008" class="edge">
<title>Node7&#45;&gt;Node8</title>
<g id="a_edge7_Node000007_Node000008"><a xlink:title=" ">
<path fill="none" stroke="#63b8ff" d="M392.75,-33.24C403.24,-31.42 414.94,-29.39 425.94,-27.48"/>
<polygon fill="#63b8ff" stroke="#63b8ff" points="426.55,-30.93 435.8,-25.77 425.35,-24.03 426.55,-30.93"/>
</a>
</g>
</g>
<!-- Node9&#45;&gt;Node7 -->
<g id="edge10_Node000009_Node000007" class="edge">
<title>Node9&#45;&gt;Node7</title>
<g id="a_edge10_Node000009_Node000007"><a xlink:title=" ">
<path fill="none" stroke="#63b8ff" d="M249.14,-39.1C269.46,-39.1 293.28,-39.1 313.36,-39.1"/>
<polygon fill="#63b8ff" stroke="#63b8ff" points="313.48,-42.6 323.48,-39.1 313.48,-35.6 313.48,-42.6"/>
</a>
</g>
</g>
</g>
</svg>
