<?xml version="1.0" encoding="UTF-8" standalone="no"?>
<!DOCTYPE svg PUBLIC "-//W3C//DTD SVG 1.1//EN"
 "http://www.w3.org/Graphics/SVG/1.1/DTD/svg11.dtd">
<!-- Generated by graphviz version 2.43.0 (0)
 -->
<!-- Title: include/core/Utils.hpp Pages: 1 -->
<svg width="618pt" height="137pt"
 viewBox="0.00 0.00 618.00 137.00" xmlns="http://www.w3.org/2000/svg" xmlns:xlink="http://www.w3.org/1999/xlink">
<g id="graph0" class="graph" transform="scale(1 1) rotate(0) translate(4 133)">
<title>include/core/Utils.hpp</title>
<!-- Node1 -->
<g id="Node000001" class="node">
<title>Node1</title>
<g id="a_Node000001"><a xlink:title="Utility functions and structures for raytracer configuration, rendering and post&#45;processing.">
<polygon fill="#999999" stroke="#666666" points="439.5,-129 317.5,-129 317.5,-110 439.5,-110 439.5,-129"/>
<text text-anchor="middle" x="378.5" y="-117" font-family="Helvetica,sans-Serif" font-size="10.00">include/core/Utils.hpp</text>
</a>
</g>
</g>
<!-- Node2 -->
<g id="Node000002" class="node">
<title>Node2</title>
<g id="a_Node000002"><a xlink:href="../../d0/d3a/Raytracer_8hpp.html" target="_top" xlink:title="Declares the main Raytracer application class for program execution and argument handling.">
<polygon fill="white" stroke="#666666" points="286.5,-74 140.5,-74 140.5,-55 286.5,-55 286.5,-74"/>
<text text-anchor="middle" x="213.5" y="-62" font-family="Helvetica,sans-Serif" font-size="10.00">include/core/Raytracer.hpp</text>
</a>
</g>
</g>
<!-- Node1&#45;&gt;Node2 -->
<g id="edge1_Node000001_Node000002" class="edge">
<title>Node1&#45;&gt;Node2</title>
<g id="a_edge1_Node000001_Node000002"><a xlink:title=" ">
<path fill="none" stroke="#63b8ff" d="M337.2,-107.06C304.76,-97.15 261.03,-83.04 235.09,-74.08"/>
<polygon fill="#63b8ff" stroke="#63b8ff" points="336.29,-110.44 346.88,-109.98 338.32,-103.74 336.29,-110.44"/>
</a>
</g>
</g>
<!-- Node6 -->
<g id="Node000006" class="node">
<title>Node6</title>
<g id="a_Node000006"><a xlink:href="../../da/d7d/Visualizer_8hpp.html" target="_top" xlink:title=" ">
<polygon fill="white" stroke="#666666" points="452,-74 305,-74 305,-55 452,-55 452,-74"/>
<text text-anchor="middle" x="378.5" y="-62" font-family="Helvetica,sans-Serif" font-size="10.00">include/core/Visualizer.hpp</text>
</a>
</g>
</g>
<!-- Node1&#45;&gt;Node6 -->
<g id="edge6_Node000001_Node000006" class="edge">
<title>Node1&#45;&gt;Node6</title>
<g id="a_edge6_Node000001_Node000006"><a xlink:title=" ">
<path fill="none" stroke="#63b8ff" d="M378.5,-99.66C378.5,-90.93 378.5,-80.99 378.5,-74.09"/>
<polygon fill="#63b8ff" stroke="#63b8ff" points="375,-99.75 378.5,-109.75 382,-99.75 375,-99.75"/>
</a>
</g>
</g>
<!-- Node7 -->
<g id="Node000007" class="node">
<title>Node7</title>
<g id="a_Node000007"><a xlink:href="../../d7/dd9/Visualizer_8cpp.html" target="_top" xlink:title="Implements visualization modes for the raytracer using SFML.">
<polygon fill="white" stroke="#666666" points="560,-19 435,-19 435,0 560,0 560,-19"/>
<text text-anchor="middle" x="497.5" y="-7" font-family="Helvetica,sans-Serif" font-size="10.00">src/core/Visualizer.cpp</text>
</a>
</g>
</g>
<!-- Node1&#45;&gt;Node7 -->
<g id="edge10_Node000001_Node000007" class="edge">
<title>Node1&#45;&gt;Node7</title>
<g id="a_edge10_Node000001_Node000007"><a xlink:title=" ">
<path fill="none" stroke="#63b8ff" d="M411.51,-106C427.96,-98.56 447.32,-87.85 461.5,-74 478,-57.88 489.23,-32.59 494.35,-19.31"/>
<polygon fill="#63b8ff" stroke="#63b8ff" points="410.02,-102.83 402.22,-110 412.78,-109.26 410.02,-102.83"/>
</a>
</g>
</g>
<!-- Node8 -->
<g id="Node000008" class="node">
<title>Node8</title>
<g id="a_Node000008"><a xlink:href="../../df/d0c/Utils_8cpp.html" target="_top" xlink:title="Implements utility functions for argument parsing, rendering, post&#45;processing, and denoising in the r...">
<polygon fill="white" stroke="#666666" points="610,-74 509,-74 509,-55 610,-55 610,-74"/>
<text text-anchor="middle" x="559.5" y="-62" font-family="Helvetica,sans-Serif" font-size="10.00">src/core/Utils.cpp</text>
</a>
</g>
</g>
<!-- Node1&#45;&gt;Node8 -->
<g id="edge9_Node000001_Node000008" class="edge">
<title>Node1&#45;&gt;Node8</title>
<g id="a_edge9_Node000001_Node000008"><a xlink:title=" ">
<path fill="none" stroke="#63b8ff" d="M417.58,-107.06C451.41,-97.15 499.58,-83.04 530.19,-74.08"/>
<polygon fill="#63b8ff" stroke="#63b8ff" points="416.19,-103.82 407.58,-109.98 418.16,-110.53 416.19,-103.82"/>
</a>
</g>
</g>
<!-- Node2&#45;&gt;Node1 -->
<g id="edge2_Node000002_Node000001" class="edge">
<title>Node2&#45;&gt;Node1</title>
<g id="a_edge2_Node000002_Node000001"><a xlink:title=" ">
<path fill="none" stroke="#63b8ff" d="M255.04,-77.02C287.54,-86.94 331.25,-101.05 357.1,-109.98"/>
<polygon fill="#63b8ff" stroke="#63b8ff" points="255.93,-73.63 245.35,-74.08 253.9,-80.33 255.93,-73.63"/>
</a>
</g>
</g>
<!-- Node3 -->
<g id="Node000003" class="node">
<title>Node3</title>
<g id="a_Node000003"><a xlink:href="../../df/d39/Raytracer_8cpp.html" target="_top" xlink:title="Implements the main execution flow of the Raytracer application, including argument parsing,...">
<polygon fill="white" stroke="#666666" points="417,-19 292,-19 292,0 417,0 417,-19"/>
<text text-anchor="middle" x="354.5" y="-7" font-family="Helvetica,sans-Serif" font-size="10.00">src/core/Raytracer.cpp</text>
</a>
</g>
</g>
<!-- Node2&#45;&gt;Node3 -->
<g id="edge3_Node000002_Node000003" class="edge">
<title>Node2&#45;&gt;Node3</title>
<g id="a_edge3_Node000002_Node000003"><a xlink:title=" ">
<path fill="none" stroke="#63b8ff" d="M245.64,-51.42C271.79,-41.59 308.09,-27.95 331.43,-19.17"/>
<polygon fill="#63b8ff" stroke="#63b8ff" points="244.28,-48.19 236.15,-54.98 246.75,-54.74 244.28,-48.19"/>
</a>
</g>
</g>
<!-- Node4 -->
<g id="Node000004" class="node">
<title>Node4</title>
<g id="a_Node000004"><a xlink:href="../../df/d0a/main_8cpp.html" target="_top" xlink:title="Entry point of the raytracer application. Initializes and runs the Raytracer engine.">
<polygon fill="white" stroke="#666666" points="103,-19 0,-19 0,0 103,0 103,-19"/>
<text text-anchor="middle" x="51.5" y="-7" font-family="Helvetica,sans-Serif" font-size="10.00">src/core/main.cpp</text>
</a>
</g>
</g>
<!-- Node2&#45;&gt;Node4 -->
<g id="edge4_Node000002_Node000004" class="edge">
<title>Node2&#45;&gt;Node4</title>
<g id="a_edge4_Node000002_Node000004"><a xlink:title=" ">
<path fill="none" stroke="#63b8ff" d="M177.73,-51.8C147.5,-41.91 104.89,-27.97 77.73,-19.08"/>
<polygon fill="#63b8ff" stroke="#63b8ff" points="176.88,-55.2 187.47,-54.98 179.06,-48.55 176.88,-55.2"/>
</a>
</g>
</g>
<!-- Node5 -->
<g id="Node000005" class="node">
<title>Node5</title>
<g id="a_Node000005"><a xlink:href="../../d3/d79/SceneParser_8cpp.html" target="_top" xlink:title="Implements the scene loading system using libconfig for the raytracer engine.">
<polygon fill="white" stroke="#666666" points="273.5,-19 121.5,-19 121.5,0 273.5,0 273.5,-19"/>
<text text-anchor="middle" x="197.5" y="-7" font-family="Helvetica,sans-Serif" font-size="10.00">src/loaders/SceneParser.cpp</text>
</a>
</g>
</g>
<!-- Node2&#45;&gt;Node5 -->
<g id="edge5_Node000002_Node000005" class="edge">
<title>Node2&#45;&gt;Node5</title>
<g id="a_edge5_Node000002_Node000005"><a xlink:title=" ">
<path fill="none" stroke="#63b8ff" d="M207.9,-44.95C205.24,-36.15 202.2,-26.06 200.09,-19.09"/>
<polygon fill="#63b8ff" stroke="#63b8ff" points="204.62,-46.19 210.86,-54.75 211.32,-44.16 204.62,-46.19"/>
</a>
</g>
</g>
<!-- Node6&#45;&gt;Node3 -->
<g id="edge7_Node000006_Node000003" class="edge">
<title>Node6&#45;&gt;Node3</title>
<g id="a_edge7_Node000006_Node000003"><a xlink:title=" ">
<path fill="none" stroke="#63b8ff" d="M370.36,-45.53C366.32,-36.6 361.62,-26.22 358.39,-19.09"/>
<polygon fill="#63b8ff" stroke="#63b8ff" points="367.22,-47.08 374.54,-54.75 373.6,-44.19 367.22,-47.08"/>
</a>
</g>
</g>
<!-- Node6&#45;&gt;Node7 -->
<g id="edge8_Node000006_Node000007" class="edge">
<title>Node6&#45;&gt;Node7</title>
<g id="a_edge8_Node000006_Node000007"><a xlink:title=" ">
<path fill="none" stroke="#63b8ff" d="M406.8,-50.9C428.78,-41.11 458.68,-27.79 478.03,-19.17"/>
<polygon fill="#63b8ff" stroke="#63b8ff" points="405.33,-47.72 397.62,-54.98 408.18,-54.11 405.33,-47.72"/>
</a>
</g>
</g>
</g>
</svg>
