<?xml version="1.0" encoding="UTF-8" standalone="no"?>
<!DOCTYPE svg PUBLIC "-//W3C//DTD SVG 1.1//EN"
 "http://www.w3.org/Graphics/SVG/1.1/DTD/svg11.dtd">
<!-- Generated by graphviz version 2.43.0 (0)
 -->
<!-- Title: include/primitives/Sphere.hpp Pages: 1 -->
<svg width="732pt" height="269pt"
 viewBox="0.00 0.00 731.50 269.00" xmlns="http://www.w3.org/2000/svg" xmlns:xlink="http://www.w3.org/1999/xlink">
<g id="graph0" class="graph" transform="scale(1 1) rotate(0) translate(4 265)">
<title>include/primitives/Sphere.hpp</title>
<!-- Node1 -->
<g id="Node000001" class="node">
<title>Node1</title>
<g id="a_Node000001"><a xlink:title="Declares the Sphere primitive for ray tracing.">
<polygon fill="#999999" stroke="#666666" points="607.5,-261 503.5,-261 503.5,-231 607.5,-231 607.5,-261"/>
<text text-anchor="start" x="511.5" y="-249" font-family="Helvetica,sans-Serif" font-size="10.00">include/primitives</text>
<text text-anchor="middle" x="555.5" y="-238" font-family="Helvetica,sans-Serif" font-size="10.00">/Sphere.hpp</text>
</a>
</g>
</g>
<!-- Node2 -->
<g id="Node000002" class="node">
<title>Node2</title>
<g id="a_Node000002"><a xlink:href="../../d1/d3a/ShadowShading_8hpp.html" target="_top" xlink:title=" ">
<polygon fill="white" stroke="#666666" points="371,-195 228,-195 228,-165 371,-165 371,-195"/>
<text text-anchor="start" x="236" y="-183" font-family="Helvetica,sans-Serif" font-size="10.00">include/rendering/Shadow</text>
<text text-anchor="middle" x="299.5" y="-172" font-family="Helvetica,sans-Serif" font-size="10.00">Shading.hpp</text>
</a>
</g>
</g>
<!-- Node1&#45;&gt;Node2 -->
<g id="edge1_Node000001_Node000002" class="edge">
<title>Node1&#45;&gt;Node2</title>
<g id="a_edge1_Node000001_Node000002"><a xlink:title=" ">
<path fill="none" stroke="#63b8ff" d="M493.54,-229.51C451.47,-218.99 396.29,-205.2 355.54,-195.01"/>
<polygon fill="#63b8ff" stroke="#63b8ff" points="492.84,-232.94 503.39,-231.97 494.53,-226.15 492.84,-232.94"/>
</a>
</g>
</g>
<!-- Node7 -->
<g id="Node000007" class="node">
<title>Node7</title>
<g id="a_Node000007"><a xlink:href="../../d3/d79/SceneParser_8cpp.html" target="_top" xlink:title="Implements the scene loading system using libconfig for the raytracer engine.">
<polygon fill="white" stroke="#666666" points="637.5,-19 485.5,-19 485.5,0 637.5,0 637.5,-19"/>
<text text-anchor="middle" x="561.5" y="-7" font-family="Helvetica,sans-Serif" font-size="10.00">src/loaders/SceneParser.cpp</text>
</a>
</g>
</g>
<!-- Node1&#45;&gt;Node7 -->
<g id="edge16_Node000001_Node000007" class="edge">
<title>Node1&#45;&gt;Node7</title>
<g id="a_edge16_Node000001_Node000007"><a xlink:title=" ">
<path fill="none" stroke="#63b8ff" d="M556.13,-220.49C557.44,-169.12 560.43,-52.16 561.28,-19.26"/>
<polygon fill="#63b8ff" stroke="#63b8ff" points="552.62,-220.6 555.87,-230.68 559.62,-220.78 552.62,-220.6"/>
</a>
</g>
</g>
<!-- Node13 -->
<g id="Node000013" class="node">
<title>Node13</title>
<g id="a_Node000013"><a xlink:href="../../db/d26/Sphere_8cpp.html" target="_top" xlink:title=" ">
<polygon fill="white" stroke="#666666" points="723.5,-189.5 583.5,-189.5 583.5,-170.5 723.5,-170.5 723.5,-189.5"/>
<text text-anchor="middle" x="653.5" y="-177.5" font-family="Helvetica,sans-Serif" font-size="10.00">src/primitives/Sphere.cpp</text>
</a>
</g>
</g>
<!-- Node1&#45;&gt;Node13 -->
<g id="edge17_Node000001_Node000013" class="edge">
<title>Node1&#45;&gt;Node13</title>
<g id="a_edge17_Node000001_Node000013"><a xlink:title=" ">
<path fill="none" stroke="#63b8ff" d="M585.82,-225.2C604.06,-213.29 626.35,-198.73 640.24,-189.66"/>
<polygon fill="#63b8ff" stroke="#63b8ff" points="583.71,-222.4 577.25,-230.8 587.54,-228.26 583.71,-222.4"/>
</a>
</g>
</g>
<!-- Node3 -->
<g id="Node000003" class="node">
<title>Node3</title>
<g id="a_Node000003"><a xlink:href="../../d7/d09/Utils_8hpp.html" target="_top" xlink:title="Utility functions and structures for raytracer configuration, rendering and post&#45;processing.">
<polygon fill="white" stroke="#666666" points="509.5,-129 387.5,-129 387.5,-110 509.5,-110 509.5,-129"/>
<text text-anchor="middle" x="448.5" y="-117" font-family="Helvetica,sans-Serif" font-size="10.00">include/core/Utils.hpp</text>
</a>
</g>
</g>
<!-- Node2&#45;&gt;Node3 -->
<g id="edge2_Node000002_Node000003" class="edge">
<title>Node2&#45;&gt;Node3</title>
<g id="a_edge2_Node000002_Node000003"><a xlink:title=" ">
<path fill="none" stroke="#63b8ff" d="M344.5,-161.33C371.63,-150.68 404.99,-137.58 426.5,-129.14"/>
<polygon fill="#63b8ff" stroke="#63b8ff" points="343.22,-158.08 335.19,-164.99 345.78,-164.59 343.22,-158.08"/>
</a>
</g>
</g>
<!-- Node9 -->
<g id="Node000009" class="node">
<title>Node9</title>
<g id="a_Node000009"><a xlink:href="../../d7/dd9/Visualizer_8cpp.html" target="_top" xlink:title="Implements visualization modes for the raytracer using SFML.">
<polygon fill="white" stroke="#666666" points="125,-19 0,-19 0,0 125,0 125,-19"/>
<text text-anchor="middle" x="62.5" y="-7" font-family="Helvetica,sans-Serif" font-size="10.00">src/core/Visualizer.cpp</text>
</a>
</g>
</g>
<!-- Node2&#45;&gt;Node9 -->
<g id="edge13_Node000002_Node000009" class="edge">
<title>Node2&#45;&gt;Node9</title>
<g id="a_edge13_Node000002_Node000009"><a xlink:title=" ">
<path fill="none" stroke="#63b8ff" d="M217.83,-175.59C145,-170.63 46.17,-158.51 21.5,-129 -6.85,-95.1 35.54,-40.45 54.31,-19.28"/>
<polygon fill="#63b8ff" stroke="#63b8ff" points="217.72,-179.09 227.92,-176.24 218.17,-172.1 217.72,-179.09"/>
</a>
</g>
</g>
<!-- Node11 -->
<g id="Node000011" class="node">
<title>Node11</title>
<g id="a_Node000011"><a xlink:href="../../d7/dbd/ShadowShading_8cpp.html" target="_top" xlink:title=" ">
<polygon fill="white" stroke="#666666" points="212,-129 31,-129 31,-110 212,-110 212,-129"/>
<text text-anchor="middle" x="121.5" y="-117" font-family="Helvetica,sans-Serif" font-size="10.00">src/rendering/ShadowShading.cpp</text>
</a>
</g>
</g>
<!-- Node2&#45;&gt;Node11 -->
<g id="edge14_Node000002_Node000011" class="edge">
<title>Node2&#45;&gt;Node11</title>
<g id="a_edge14_Node000002_Node000011"><a xlink:title=" ">
<path fill="none" stroke="#63b8ff" d="M246.98,-161.74C214.24,-150.98 173.53,-137.6 147.53,-129.05"/>
<polygon fill="#63b8ff" stroke="#63b8ff" points="246.27,-165.19 256.86,-164.99 248.46,-158.54 246.27,-165.19"/>
</a>
</g>
</g>
<!-- Node12 -->
<g id="Node000012" class="node">
<title>Node12</title>
<g id="a_Node000012"><a xlink:href="../../d6/dc9/Skybox_8cpp.html" target="_top" xlink:title=" ">
<polygon fill="white" stroke="#666666" points="369,-129 230,-129 230,-110 369,-110 369,-129"/>
<text text-anchor="middle" x="299.5" y="-117" font-family="Helvetica,sans-Serif" font-size="10.00">src/rendering/Skybox.cpp</text>
</a>
</g>
</g>
<!-- Node2&#45;&gt;Node12 -->
<g id="edge15_Node000002_Node000012" class="edge">
<title>Node2&#45;&gt;Node12</title>
<g id="a_edge15_Node000002_Node000012"><a xlink:title=" ">
<path fill="none" stroke="#63b8ff" d="M299.5,-154.75C299.5,-145.72 299.5,-136.03 299.5,-129.27"/>
<polygon fill="#63b8ff" stroke="#63b8ff" points="296,-154.84 299.5,-164.84 303,-154.84 296,-154.84"/>
</a>
</g>
</g>
<!-- Node4 -->
<g id="Node000004" class="node">
<title>Node4</title>
<g id="a_Node000004"><a xlink:href="../../d0/d3a/Raytracer_8hpp.html" target="_top" xlink:title="Declares the main Raytracer application class for program execution and argument handling.">
<polygon fill="white" stroke="#666666" points="521.5,-74 375.5,-74 375.5,-55 521.5,-55 521.5,-74"/>
<text text-anchor="middle" x="448.5" y="-62" font-family="Helvetica,sans-Serif" font-size="10.00">include/core/Raytracer.hpp</text>
</a>
</g>
</g>
<!-- Node3&#45;&gt;Node4 -->
<g id="edge3_Node000003_Node000004" class="edge">
<title>Node3&#45;&gt;Node4</title>
<g id="a_edge3_Node000003_Node000004"><a xlink:title=" ">
<path fill="none" stroke="#63b8ff" d="M442.01,-99.66C441.41,-90.93 441.86,-80.99 443.37,-74.09"/>
<polygon fill="#63b8ff" stroke="#63b8ff" points="438.56,-100.29 443.33,-109.75 445.5,-99.38 438.56,-100.29"/>
</a>
</g>
</g>
<!-- Node8 -->
<g id="Node000008" class="node">
<title>Node8</title>
<g id="a_Node000008"><a xlink:href="../../da/d7d/Visualizer_8hpp.html" target="_top" xlink:title=" ">
<polygon fill="white" stroke="#666666" points="357,-74 210,-74 210,-55 357,-55 357,-74"/>
<text text-anchor="middle" x="283.5" y="-62" font-family="Helvetica,sans-Serif" font-size="10.00">include/core/Visualizer.hpp</text>
</a>
</g>
</g>
<!-- Node3&#45;&gt;Node8 -->
<g id="edge8_Node000003_Node000008" class="edge">
<title>Node3&#45;&gt;Node8</title>
<g id="a_edge8_Node000003_Node000008"><a xlink:title=" ">
<path fill="none" stroke="#63b8ff" d="M412.07,-106.8C381.28,-96.91 337.88,-82.97 310.22,-74.08"/>
<polygon fill="#63b8ff" stroke="#63b8ff" points="411.4,-110.26 421.99,-109.98 413.54,-103.59 411.4,-110.26"/>
</a>
</g>
</g>
<!-- Node3&#45;&gt;Node9 -->
<g id="edge12_Node000003_Node000009" class="edge">
<title>Node3&#45;&gt;Node9</title>
<g id="a_edge12_Node000003_Node000009"><a xlink:title=" ">
<path fill="none" stroke="#63b8ff" d="M377.09,-109.9C270.42,-97.05 81.85,-74.3 81.5,-74 65.13,-60.21 62.52,-32.93 62.31,-19.05"/>
<polygon fill="#63b8ff" stroke="#63b8ff" points="376.8,-113.39 387.15,-111.11 377.64,-106.44 376.8,-113.39"/>
</a>
</g>
</g>
<!-- Node10 -->
<g id="Node000010" class="node">
<title>Node10</title>
<g id="a_Node000010"><a xlink:href="../../df/d0c/Utils_8cpp.html" target="_top" xlink:title="Implements utility functions for argument parsing, rendering, post&#45;processing, and denoising in the r...">
<polygon fill="white" stroke="#666666" points="192,-74 91,-74 91,-55 192,-55 192,-74"/>
<text text-anchor="middle" x="141.5" y="-62" font-family="Helvetica,sans-Serif" font-size="10.00">src/core/Utils.cpp</text>
</a>
</g>
</g>
<!-- Node3&#45;&gt;Node10 -->
<g id="edge11_Node000003_Node000010" class="edge">
<title>Node3&#45;&gt;Node10</title>
<g id="a_edge11_Node000003_Node000010"><a xlink:title=" ">
<path fill="none" stroke="#63b8ff" d="M389.12,-108.25C331.47,-98.3 244.97,-83.36 190.96,-74.04"/>
<polygon fill="#63b8ff" stroke="#63b8ff" points="388.73,-111.73 399.18,-109.98 389.92,-104.83 388.73,-111.73"/>
</a>
</g>
</g>
<!-- Node4&#45;&gt;Node3 -->
<g id="edge4_Node000004_Node000003" class="edge">
<title>Node4&#45;&gt;Node3</title>
<g id="a_edge4_Node000004_Node000003"><a xlink:title=" ">
<path fill="none" stroke="#63b8ff" d="M454.98,-84.13C455.6,-92.85 455.16,-102.8 453.67,-109.75"/>
<polygon fill="#63b8ff" stroke="#63b8ff" points="458.43,-83.53 453.63,-74.09 451.49,-84.47 458.43,-83.53"/>
</a>
</g>
</g>
<!-- Node5 -->
<g id="Node000005" class="node">
<title>Node5</title>
<g id="a_Node000005"><a xlink:href="../../df/d39/Raytracer_8cpp.html" target="_top" xlink:title="Implements the main execution flow of the Raytracer application, including argument parsing,...">
<polygon fill="white" stroke="#666666" points="346,-19 221,-19 221,0 346,0 346,-19"/>
<text text-anchor="middle" x="283.5" y="-7" font-family="Helvetica,sans-Serif" font-size="10.00">src/core/Raytracer.cpp</text>
</a>
</g>
</g>
<!-- Node4&#45;&gt;Node5 -->
<g id="edge5_Node000004_Node000005" class="edge">
<title>Node4&#45;&gt;Node5</title>
<g id="a_edge5_Node000004_Node000005"><a xlink:title=" ">
<path fill="none" stroke="#63b8ff" d="M412.07,-51.8C381.28,-41.91 337.88,-27.97 310.22,-19.08"/>
<polygon fill="#63b8ff" stroke="#63b8ff" points="411.4,-55.26 421.99,-54.98 413.54,-48.59 411.4,-55.26"/>
</a>
</g>
</g>
<!-- Node6 -->
<g id="Node000006" class="node">
<title>Node6</title>
<g id="a_Node000006"><a xlink:href="../../df/d0a/main_8cpp.html" target="_top" xlink:title="Entry point of the raytracer application. Initializes and runs the Raytracer engine.">
<polygon fill="white" stroke="#666666" points="467,-19 364,-19 364,0 467,0 467,-19"/>
<text text-anchor="middle" x="415.5" y="-7" font-family="Helvetica,sans-Serif" font-size="10.00">src/core/main.cpp</text>
</a>
</g>
</g>
<!-- Node4&#45;&gt;Node6 -->
<g id="edge6_Node000004_Node000006" class="edge">
<title>Node4&#45;&gt;Node6</title>
<g id="a_edge6_Node000004_Node000006"><a xlink:title=" ">
<path fill="none" stroke="#63b8ff" d="M437.67,-46.1C432.03,-37.04 425.38,-26.37 420.85,-19.09"/>
<polygon fill="#63b8ff" stroke="#63b8ff" points="434.79,-48.11 443.05,-54.75 440.74,-44.41 434.79,-48.11"/>
</a>
</g>
</g>
<!-- Node4&#45;&gt;Node7 -->
<g id="edge7_Node000004_Node000007" class="edge">
<title>Node4&#45;&gt;Node7</title>
<g id="a_edge7_Node000004_Node000007"><a xlink:title=" ">
<path fill="none" stroke="#63b8ff" d="M475.93,-50.63C496.75,-40.87 524.8,-27.71 543.01,-19.17"/>
<polygon fill="#63b8ff" stroke="#63b8ff" points="474.22,-47.57 466.66,-54.98 477.2,-53.91 474.22,-47.57"/>
</a>
</g>
</g>
<!-- Node8&#45;&gt;Node5 -->
<g id="edge9_Node000008_Node000005" class="edge">
<title>Node8&#45;&gt;Node5</title>
<g id="a_edge9_Node000008_Node000005"><a xlink:title=" ">
<path fill="none" stroke="#63b8ff" d="M283.5,-44.66C283.5,-35.93 283.5,-25.99 283.5,-19.09"/>
<polygon fill="#63b8ff" stroke="#63b8ff" points="280,-44.75 283.5,-54.75 287,-44.75 280,-44.75"/>
</a>
</g>
</g>
<!-- Node8&#45;&gt;Node9 -->
<g id="edge10_Node000008_Node000009" class="edge">
<title>Node8&#45;&gt;Node9</title>
<g id="a_edge10_Node000008_Node000009"><a xlink:title=" ">
<path fill="none" stroke="#63b8ff" d="M238.16,-52.63C196.76,-42.7 136.38,-28.22 98.29,-19.08"/>
<polygon fill="#63b8ff" stroke="#63b8ff" points="237.45,-56.06 247.99,-54.98 239.08,-49.25 237.45,-56.06"/>
</a>
</g>
</g>
</g>
</svg>
