<?xml version="1.0" encoding="UTF-8" standalone="no"?>
<!DOCTYPE svg PUBLIC "-//W3C//DTD SVG 1.1//EN"
 "http://www.w3.org/Graphics/SVG/1.1/DTD/svg11.dtd">
<!-- Generated by graphviz version 2.43.0 (0)
 -->
<!-- Title: src/rendering/PostFX.cpp Pages: 1 -->
<svg width="226pt" height="203pt"
 viewBox="0.00 0.00 225.50 203.00" xmlns="http://www.w3.org/2000/svg" xmlns:xlink="http://www.w3.org/1999/xlink">
<g id="graph0" class="graph" transform="scale(1 1) rotate(0) translate(4 199)">
<title>src/rendering/PostFX.cpp</title>
<!-- Node1 -->
<g id="Node000001" class="node">
<title>Node1</title>
<g id="a_Node000001"><a xlink:title=" ">
<polygon fill="#999999" stroke="#666666" points="199,-195 62,-195 62,-176 199,-176 199,-195"/>
<text text-anchor="middle" x="130.5" y="-183" font-family="Helvetica,sans-Serif" font-size="10.00">src/rendering/PostFX.cpp</text>
</a>
</g>
</g>
<!-- Node2 -->
<g id="Node000002" class="node">
<title>Node2</title>
<g id="a_Node000002"><a xlink:href="../../da/d96/PostFX_8hpp.html" target="_top" xlink:title="Declares simple post&#45;processing helpers (contrast, saturation, tone&#45;mapping, vignette) for the ray&#45;tr...">
<polygon fill="white" stroke="#666666" points="135,-140 16,-140 16,-110 135,-110 135,-140"/>
<text text-anchor="start" x="24" y="-128" font-family="Helvetica,sans-Serif" font-size="10.00">../../include/rendering</text>
<text text-anchor="middle" x="75.5" y="-117" font-family="Helvetica,sans-Serif" font-size="10.00">/PostFX.hpp</text>
</a>
</g>
</g>
<!-- Node1&#45;&gt;Node2 -->
<g id="edge1_Node000001_Node000002" class="edge">
<title>Node1&#45;&gt;Node2</title>
<g id="a_edge1_Node000001_Node000002"><a xlink:title=" ">
<path fill="none" stroke="#63b8ff" d="M122.38,-175.87C115.41,-168.44 105.04,-157.42 95.82,-147.62"/>
<polygon fill="#63b8ff" stroke="#63b8ff" points="98.17,-145 88.77,-140.11 93.07,-149.8 98.17,-145"/>
</a>
</g>
</g>
<!-- Node6 -->
<g id="Node000006" class="node">
<title>Node6</title>
<g id="a_Node000006"><a xlink:title=" ">
<polygon fill="#e0e0e0" stroke="#999999" points="217.5,-134.5 153.5,-134.5 153.5,-115.5 217.5,-115.5 217.5,-134.5"/>
<text text-anchor="middle" x="185.5" y="-122.5" font-family="Helvetica,sans-Serif" font-size="10.00">algorithm</text>
</a>
</g>
</g>
<!-- Node1&#45;&gt;Node6 -->
<g id="edge6_Node000001_Node000006" class="edge">
<title>Node1&#45;&gt;Node6</title>
<g id="a_edge6_Node000001_Node000006"><a xlink:title=" ">
<path fill="none" stroke="#63b8ff" d="M138.62,-175.87C146.9,-167.05 159.97,-153.16 170.2,-142.27"/>
<polygon fill="#63b8ff" stroke="#63b8ff" points="173.05,-144.35 177.35,-134.67 167.95,-139.56 173.05,-144.35"/>
</a>
</g>
</g>
<!-- Node3 -->
<g id="Node000003" class="node">
<title>Node3</title>
<g id="a_Node000003"><a xlink:title=" ">
<polygon fill="#e0e0e0" stroke="#999999" points="47,-74 0,-74 0,-55 47,-55 47,-74"/>
<text text-anchor="middle" x="23.5" y="-62" font-family="Helvetica,sans-Serif" font-size="10.00">vector</text>
</a>
</g>
</g>
<!-- Node2&#45;&gt;Node3 -->
<g id="edge2_Node000002_Node000003" class="edge">
<title>Node2&#45;&gt;Node3</title>
<g id="a_edge2_Node000002_Node000003"><a xlink:title=" ">
<path fill="none" stroke="#63b8ff" d="M62.91,-109.84C55.44,-101.43 45.94,-90.74 38.13,-81.96"/>
<polygon fill="#63b8ff" stroke="#63b8ff" points="40.55,-79.41 31.29,-74.27 35.32,-84.07 40.55,-79.41"/>
</a>
</g>
</g>
<!-- Node4 -->
<g id="Node000004" class="node">
<title>Node4</title>
<g id="a_Node000004"><a xlink:title=" ">
<polygon fill="#e0e0e0" stroke="#999999" points="139,-19 92,-19 92,0 139,0 139,-19"/>
<text text-anchor="middle" x="115.5" y="-7" font-family="Helvetica,sans-Serif" font-size="10.00">cmath</text>
</a>
</g>
</g>
<!-- Node2&#45;&gt;Node4 -->
<g id="edge3_Node000002_Node000004" class="edge">
<title>Node2&#45;&gt;Node4</title>
<g id="a_edge3_Node000002_Node000004"><a xlink:title=" ">
<path fill="none" stroke="#63b8ff" d="M78.66,-109.77C81.97,-95.66 87.64,-73.53 94.5,-55 97.84,-45.99 102.3,-36.3 106.25,-28.28"/>
<polygon fill="#63b8ff" stroke="#63b8ff" points="109.46,-29.68 110.86,-19.17 103.22,-26.51 109.46,-29.68"/>
</a>
</g>
</g>
<!-- Node5 -->
<g id="Node000005" class="node">
<title>Node5</title>
<g id="a_Node000005"><a xlink:href="../../d3/dde/Vector3D_8hpp.html" target="_top" xlink:title="Defines a 3D vector structure with basic arithmetic and transformation operations.">
<polygon fill="white" stroke="#666666" points="209.5,-74 103.5,-74 103.5,-55 209.5,-55 209.5,-74"/>
<text text-anchor="middle" x="156.5" y="-62" font-family="Helvetica,sans-Serif" font-size="10.00">core/Vector3D.hpp</text>
</a>
</g>
</g>
<!-- Node2&#45;&gt;Node5 -->
<g id="edge4_Node000002_Node000005" class="edge">
<title>Node2&#45;&gt;Node5</title>
<g id="a_edge4_Node000002_Node000005"><a xlink:title=" ">
<path fill="none" stroke="#63b8ff" d="M95.11,-109.84C107.47,-100.91 123.4,-89.41 135.93,-80.35"/>
<polygon fill="#63b8ff" stroke="#63b8ff" points="138.3,-82.96 144.36,-74.27 134.21,-77.28 138.3,-82.96"/>
</a>
</g>
</g>
<!-- Node5&#45;&gt;Node4 -->
<g id="edge5_Node000005_Node000004" class="edge">
<title>Node5&#45;&gt;Node4</title>
<g id="a_edge5_Node000005_Node000004"><a xlink:title=" ">
<path fill="none" stroke="#63b8ff" d="M149.73,-54.75C143.94,-47.26 135.44,-36.28 128.36,-27.13"/>
<polygon fill="#63b8ff" stroke="#63b8ff" points="131.03,-24.86 122.14,-19.09 125.49,-29.14 131.03,-24.86"/>
</a>
</g>
</g>
</g>
</svg>
