<?xml version="1.0" encoding="UTF-8" standalone="no"?>
<!DOCTYPE svg PUBLIC "-//W3C//DTD SVG 1.1//EN"
 "http://www.w3.org/Graphics/SVG/1.1/DTD/svg11.dtd">
<!-- Generated by graphviz version 2.43.0 (0)
 -->
<!-- Title: RayTracer::Scene Pages: 1 -->
<svg width="206pt" height="203pt"
 viewBox="0.00 0.00 206.00 203.00" xmlns="http://www.w3.org/2000/svg" xmlns:xlink="http://www.w3.org/1999/xlink">
<g id="graph0" class="graph" transform="scale(1 1) rotate(0) translate(4 199)">
<title>RayTracer::Scene</title>
<!-- Node1 -->
<g id="Node000001" class="node">
<title>Node1</title>
<g id="a_Node000001"><a xlink:title="Complete renderable scene.">
<polygon fill="#999999" stroke="#666666" points="146,-19 46,-19 46,0 146,0 146,-19"/>
<text text-anchor="middle" x="96" y="-7" font-family="Helvetica,sans-Serif" font-size="10.00">RayTracer::Scene</text>
</a>
</g>
</g>
<!-- Node2 -->
<g id="Node000002" class="node">
<title>Node2</title>
<g id="a_Node000002"><a xlink:href="../../dc/dd2/classRayTracer_1_1Camera.html" target="_top" xlink:title="Simple pin&#45;hole / thin&#45;lens camera model.">
<polygon fill="white" stroke="#666666" points="150.5,-85 41.5,-85 41.5,-66 150.5,-66 150.5,-85"/>
<text text-anchor="middle" x="96" y="-73" font-family="Helvetica,sans-Serif" font-size="10.00">RayTracer::Camera</text>
</a>
</g>
</g>
<!-- Node2&#45;&gt;Node1 -->
<g id="edge1_Node000001_Node000002" class="edge">
<title>Node2&#45;&gt;Node1</title>
<g id="a_edge1_Node000001_Node000002"><a xlink:title=" ">
<path fill="none" stroke="#9a32cd" stroke-dasharray="5,2" d="M96,-55.58C96,-43.63 96,-28.72 96,-19.41"/>
<polygon fill="#9a32cd" stroke="#9a32cd" points="92.5,-55.87 96,-65.87 99.5,-55.87 92.5,-55.87"/>
</a>
</g>
<text text-anchor="middle" x="116" y="-40" font-family="Helvetica,sans-Serif" font-size="10.00" fill="grey"> camera</text>
</g>
<!-- Node3 -->
<g id="Node000003" class="node">
<title>Node3</title>
<g id="a_Node000003"><a xlink:href="../../db/daa/structMath_1_1Point3D.html" target="_top" xlink:title="Represents a 3D point in Cartesian coordinates.">
<polygon fill="white" stroke="#666666" points="86,-195 0,-195 0,-176 86,-176 86,-195"/>
<text text-anchor="middle" x="43" y="-183" font-family="Helvetica,sans-Serif" font-size="10.00">Math::Point3D</text>
</a>
</g>
</g>
<!-- Node3&#45;&gt;Node2 -->
<g id="edge2_Node000002_Node000003" class="edge">
<title>Node3&#45;&gt;Node2</title>
<g id="a_edge2_Node000002_Node000003"><a xlink:title=" ">
<path fill="none" stroke="#9a32cd" stroke-dasharray="5,2" d="M49,-165.81C54.79,-148.86 64.39,-123.48 76,-103 79.52,-96.78 84.33,-90.37 88.34,-85.41"/>
<polygon fill="#9a32cd" stroke="#9a32cd" points="45.58,-165 45.75,-175.59 52.22,-167.2 45.58,-165"/>
</a>
</g>
<text text-anchor="middle" x="102" y="-133.5" font-family="Helvetica,sans-Serif" font-size="10.00" fill="grey"> lower_left</text>
<text text-anchor="middle" x="102" y="-122.5" font-family="Helvetica,sans-Serif" font-size="10.00" fill="grey">origin</text>
</g>
<!-- Node4 -->
<g id="Node000004" class="node">
<title>Node4</title>
<g id="a_Node000004"><a xlink:href="../../d6/d30/structMath_1_1Vector3D.html" target="_top" xlink:title="Represents a 3D vector with real coordinates.">
<polygon fill="white" stroke="#666666" points="196,-195 104,-195 104,-176 196,-176 196,-195"/>
<text text-anchor="middle" x="150" y="-183" font-family="Helvetica,sans-Serif" font-size="10.00">Math::Vector3D</text>
</a>
</g>
</g>
<!-- Node4&#45;&gt;Node2 -->
<g id="edge3_Node000002_Node000004" class="edge">
<title>Node4&#45;&gt;Node2</title>
<g id="a_edge3_Node000002_Node000004"><a xlink:title=" ">
<path fill="none" stroke="#9a32cd" stroke-dasharray="5,2" d="M148.24,-165.94C145.88,-148.52 140.42,-122.31 128,-103 123.4,-95.84 116.24,-89.65 109.86,-85.06"/>
<polygon fill="#9a32cd" stroke="#9a32cd" points="144.78,-166.42 149.39,-175.96 151.73,-165.63 144.78,-166.42"/>
</a>
</g>
<text text-anchor="middle" x="172" y="-150" font-family="Helvetica,sans-Serif" font-size="10.00" fill="grey"> horizontal</text>
<text text-anchor="middle" x="172" y="-139" font-family="Helvetica,sans-Serif" font-size="10.00" fill="grey">u</text>
<text text-anchor="middle" x="172" y="-128" font-family="Helvetica,sans-Serif" font-size="10.00" fill="grey">v</text>
<text text-anchor="middle" x="172" y="-117" font-family="Helvetica,sans-Serif" font-size="10.00" fill="grey">vertical</text>
<text text-anchor="middle" x="172" y="-106" font-family="Helvetica,sans-Serif" font-size="10.00" fill="grey">w</text>
</g>
</g>
</svg>
