<?xml version="1.0" encoding="UTF-8" standalone="no"?>
<!DOCTYPE svg PUBLIC "-//W3C//DTD SVG 1.1//EN"
 "http://www.w3.org/Graphics/SVG/1.1/DTD/svg11.dtd">
<!-- Generated by graphviz version 2.43.0 (0)
 -->
<!-- Title: include/rendering/NoiseTexture.hpp Pages: 1 -->
<svg width="346pt" height="82pt"
 viewBox="0.00 0.00 345.50 82.00" xmlns="http://www.w3.org/2000/svg" xmlns:xlink="http://www.w3.org/1999/xlink">
<g id="graph0" class="graph" transform="scale(1 1) rotate(0) translate(4 78)">
<title>include/rendering/NoiseTexture.hpp</title>
<!-- Node1 -->
<g id="Node000001" class="node">
<title>Node1</title>
<g id="a_Node000001"><a xlink:title=" ">
<polygon fill="#999999" stroke="#666666" points="259.5,-74 70.5,-74 70.5,-55 259.5,-55 259.5,-74"/>
<text text-anchor="middle" x="165" y="-62" font-family="Helvetica,sans-Serif" font-size="10.00">include/rendering/NoiseTexture.hpp</text>
</a>
</g>
</g>
<!-- Node2 -->
<g id="Node000002" class="node">
<title>Node2</title>
<g id="a_Node000002"><a xlink:href="../../d3/d79/SceneParser_8cpp.html" target="_top" xlink:title="Implements the scene loading system using libconfig for the raytracer engine.">
<polygon fill="white" stroke="#666666" points="152,-19 0,-19 0,0 152,0 152,-19"/>
<text text-anchor="middle" x="76" y="-7" font-family="Helvetica,sans-Serif" font-size="10.00">src/loaders/SceneParser.cpp</text>
</a>
</g>
</g>
<!-- Node1&#45;&gt;Node2 -->
<g id="edge1_Node000001_Node000002" class="edge">
<title>Node1&#45;&gt;Node2</title>
<g id="a_edge1_Node000001_Node000002"><a xlink:title=" ">
<path fill="none" stroke="#63b8ff" d="M141.82,-49.7C125.61,-40.04 104.45,-27.44 90.56,-19.17"/>
<polygon fill="#63b8ff" stroke="#63b8ff" points="140.32,-52.88 150.7,-54.98 143.9,-46.86 140.32,-52.88"/>
</a>
</g>
</g>
<!-- Node3 -->
<g id="Node000003" class="node">
<title>Node3</title>
<g id="a_Node000003"><a xlink:href="../../d0/d66/NoiseTexture_8cpp.html" target="_top" xlink:title=" ">
<polygon fill="white" stroke="#666666" points="337.5,-19 170.5,-19 170.5,0 337.5,0 337.5,-19"/>
<text text-anchor="middle" x="254" y="-7" font-family="Helvetica,sans-Serif" font-size="10.00">src/rendering/NoiseTexture.cpp</text>
</a>
</g>
</g>
<!-- Node1&#45;&gt;Node3 -->
<g id="edge2_Node000001_Node000003" class="edge">
<title>Node1&#45;&gt;Node3</title>
<g id="a_edge2_Node000001_Node000003"><a xlink:title=" ">
<path fill="none" stroke="#63b8ff" d="M188.18,-49.7C204.39,-40.04 225.55,-27.44 239.44,-19.17"/>
<polygon fill="#63b8ff" stroke="#63b8ff" points="186.1,-46.86 179.3,-54.98 189.68,-52.88 186.1,-46.86"/>
</a>
</g>
</g>
</g>
</svg>
