<?xml version="1.0" encoding="UTF-8" standalone="no"?>
<!DOCTYPE svg PUBLIC "-//W3C//DTD SVG 1.1//EN"
 "http://www.w3.org/Graphics/SVG/1.1/DTD/svg11.dtd">
<!-- Generated by graphviz version 2.43.0 (0)
 -->
<!-- Title: src/primitives/Torus.cpp Pages: 1 -->
<svg width="1130pt" height="478pt"
 viewBox="0.00 0.00 1129.50 478.00" xmlns="http://www.w3.org/2000/svg" xmlns:xlink="http://www.w3.org/1999/xlink">
<g id="graph0" class="graph" transform="scale(1 1) rotate(0) translate(4 474)">
<title>src/primitives/Torus.cpp</title>
<!-- Node1 -->
<g id="Node000001" class="node">
<title>Node1</title>
<g id="a_Node000001"><a xlink:title=" ">
<polygon fill="#999999" stroke="#666666" points="466,-470 334,-470 334,-451 466,-451 466,-470"/>
<text text-anchor="middle" x="400" y="-458" font-family="Helvetica,sans-Serif" font-size="10.00">src/primitives/Torus.cpp</text>
</a>
</g>
</g>
<!-- Node2 -->
<g id="Node000002" class="node">
<title>Node2</title>
<g id="a_Node000002"><a xlink:href="../../d2/d4f/Torus_8hpp.html" target="_top" xlink:title="Declares the Torus primitive and its ray–torus intersection logic.">
<polygon fill="white" stroke="#666666" points="461,-415 339,-415 339,-385 461,-385 461,-415"/>
<text text-anchor="start" x="347" y="-403" font-family="Helvetica,sans-Serif" font-size="10.00">../../include/primitives</text>
<text text-anchor="middle" x="400" y="-392" font-family="Helvetica,sans-Serif" font-size="10.00">/Torus.hpp</text>
</a>
</g>
</g>
<!-- Node1&#45;&gt;Node2 -->
<g id="edge1_Node000001_Node000002" class="edge">
<title>Node1&#45;&gt;Node2</title>
<g id="a_edge1_Node000001_Node000002"><a xlink:title=" ">
<path fill="none" stroke="#63b8ff" d="M400,-450.87C400,-444.11 400,-434.35 400,-425.26"/>
<polygon fill="#63b8ff" stroke="#63b8ff" points="403.5,-425.11 400,-415.11 396.5,-425.11 403.5,-425.11"/>
</a>
</g>
</g>
<!-- Node3 -->
<g id="Node000003" class="node">
<title>Node3</title>
<g id="a_Node000003"><a xlink:title=" ">
<polygon fill="#e0e0e0" stroke="#999999" points="75.5,-294 28.5,-294 28.5,-275 75.5,-275 75.5,-294"/>
<text text-anchor="middle" x="52" y="-282" font-family="Helvetica,sans-Serif" font-size="10.00">vector</text>
</a>
</g>
</g>
<!-- Node2&#45;&gt;Node3 -->
<g id="edge2_Node000002_Node000003" class="edge">
<title>Node2&#45;&gt;Node3</title>
<g id="a_edge2_Node000002_Node000003"><a xlink:title=" ">
<path fill="none" stroke="#63b8ff" d="M338.73,-395.21C260.22,-389.34 129.54,-375.8 90,-349 74.08,-338.21 63.79,-318.33 57.98,-303.68"/>
<polygon fill="#63b8ff" stroke="#63b8ff" points="61.23,-302.35 54.53,-294.14 54.64,-304.73 61.23,-302.35"/>
</a>
</g>
</g>
<!-- Node4 -->
<g id="Node000004" class="node">
<title>Node4</title>
<g id="a_Node000004"><a xlink:title=" ">
<polygon fill="#e0e0e0" stroke="#999999" points="966,-349 924,-349 924,-330 966,-330 966,-349"/>
<text text-anchor="middle" x="945" y="-337" font-family="Helvetica,sans-Serif" font-size="10.00">array</text>
</a>
</g>
</g>
<!-- Node2&#45;&gt;Node4 -->
<g id="edge3_Node000002_Node000004" class="edge">
<title>Node2&#45;&gt;Node4</title>
<g id="a_edge3_Node000002_Node000004"><a xlink:title=" ">
<path fill="none" stroke="#63b8ff" d="M461.21,-395.79C557.32,-390.11 749.26,-376.26 910,-349 911.25,-348.79 912.52,-348.56 913.8,-348.31"/>
<polygon fill="#63b8ff" stroke="#63b8ff" points="914.59,-351.72 923.63,-346.19 913.11,-344.88 914.59,-351.72"/>
</a>
</g>
</g>
<!-- Node5 -->
<g id="Node000005" class="node">
<title>Node5</title>
<g id="a_Node000005"><a xlink:title=" ">
<polygon fill="#e0e0e0" stroke="#999999" points="302.5,-19 255.5,-19 255.5,0 302.5,0 302.5,-19"/>
<text text-anchor="middle" x="279" y="-7" font-family="Helvetica,sans-Serif" font-size="10.00">cmath</text>
</a>
</g>
</g>
<!-- Node2&#45;&gt;Node5 -->
<g id="edge4_Node000002_Node000005" class="edge">
<title>Node2&#45;&gt;Node5</title>
<g id="a_edge4_Node000002_Node000005"><a xlink:title=" ">
<path fill="none" stroke="#63b8ff" d="M338.84,-394.07C256.65,-386.71 115.51,-371.29 69,-349 31.42,-330.99 0,-327.18 0,-285.5 0,-285.5 0,-285.5 0,-118.5 0,-66.52 170.55,-29.8 244.96,-16.25"/>
<polygon fill="#63b8ff" stroke="#63b8ff" points="245.98,-19.63 255.21,-14.43 244.75,-12.74 245.98,-19.63"/>
</a>
</g>
</g>
<!-- Node6 -->
<g id="Node000006" class="node">
<title>Node6</title>
<g id="a_Node000006"><a xlink:title=" ">
<polygon fill="#e0e0e0" stroke="#999999" points="176,-294 132,-294 132,-275 176,-275 176,-294"/>
<text text-anchor="middle" x="154" y="-282" font-family="Helvetica,sans-Serif" font-size="10.00">limits</text>
</a>
</g>
</g>
<!-- Node2&#45;&gt;Node6 -->
<g id="edge5_Node000002_Node000006" class="edge">
<title>Node2&#45;&gt;Node6</title>
<g id="a_edge5_Node000002_Node000006"><a xlink:title=" ">
<path fill="none" stroke="#63b8ff" d="M338.81,-385.5C307.62,-377.29 269.7,-365.24 238,-349 212.5,-335.94 186.75,-315.08 170.61,-300.86"/>
<polygon fill="#63b8ff" stroke="#63b8ff" points="172.87,-298.19 163.09,-294.1 168.19,-303.39 172.87,-298.19"/>
</a>
</g>
</g>
<!-- Node7 -->
<g id="Node000007" class="node">
<title>Node7</title>
<g id="a_Node000007"><a xlink:title=" ">
<polygon fill="#e0e0e0" stroke="#999999" points="258,-294 194,-294 194,-275 258,-275 258,-294"/>
<text text-anchor="middle" x="226" y="-282" font-family="Helvetica,sans-Serif" font-size="10.00">algorithm</text>
</a>
</g>
</g>
<!-- Node2&#45;&gt;Node7 -->
<g id="edge6_Node000002_Node000007" class="edge">
<title>Node2&#45;&gt;Node7</title>
<g id="a_edge6_Node000002_Node000007"><a xlink:title=" ">
<path fill="none" stroke="#63b8ff" d="M338.94,-389.4C310.61,-382.29 278.16,-370.03 255,-349 241.97,-337.17 234.39,-318.34 230.27,-304.24"/>
<polygon fill="#63b8ff" stroke="#63b8ff" points="233.57,-302.99 227.67,-294.19 226.79,-304.74 233.57,-302.99"/>
</a>
</g>
</g>
<!-- Node8 -->
<g id="Node000008" class="node">
<title>Node8</title>
<g id="a_Node000008"><a xlink:href="../../de/d81/APrimitive_8hpp.html" target="_top" xlink:title=" ">
<polygon fill="white" stroke="#666666" points="601.5,-294 488.5,-294 488.5,-275 601.5,-275 601.5,-294"/>
<text text-anchor="middle" x="545" y="-282" font-family="Helvetica,sans-Serif" font-size="10.00">core/APrimitive.hpp</text>
</a>
</g>
</g>
<!-- Node2&#45;&gt;Node8 -->
<g id="edge7_Node000002_Node000008" class="edge">
<title>Node2&#45;&gt;Node8</title>
<g id="a_edge7_Node000002_Node000008"><a xlink:title=" ">
<path fill="none" stroke="#63b8ff" d="M418.07,-384.85C445.59,-363.31 497.77,-322.47 525.89,-300.46"/>
<polygon fill="#63b8ff" stroke="#63b8ff" points="528.08,-303.19 533.8,-294.27 523.76,-297.68 528.08,-303.19"/>
</a>
</g>
</g>
<!-- Node9 -->
<g id="Node000009" class="node">
<title>Node9</title>
<g id="a_Node000009"><a xlink:href="../../d4/db2/Ray_8hpp.html" target="_top" xlink:title="Defines the Ray structure used for ray&#45;object intersection tests in the raytracer.">
<polygon fill="white" stroke="#666666" points="546.5,-184 467.5,-184 467.5,-165 546.5,-165 546.5,-184"/>
<text text-anchor="middle" x="507" y="-172" font-family="Helvetica,sans-Serif" font-size="10.00">core/Ray.hpp</text>
</a>
</g>
</g>
<!-- Node2&#45;&gt;Node9 -->
<g id="edge27_Node000002_Node000009" class="edge">
<title>Node2&#45;&gt;Node9</title>
<g id="a_edge27_Node000002_Node000009"><a xlink:title=" ">
<path fill="none" stroke="#63b8ff" d="M402.02,-384.93C407.09,-353.26 422.56,-274.88 458,-220 465.33,-208.65 476.26,-198.34 485.94,-190.51"/>
<polygon fill="#63b8ff" stroke="#63b8ff" points="488.21,-193.18 494,-184.3 483.94,-187.63 488.21,-193.18"/>
</a>
</g>
</g>
<!-- Node10 -->
<g id="Node000010" class="node">
<title>Node10</title>
<g id="a_Node000010"><a xlink:href="../../df/df2/Point3D_8hpp.html" target="_top" xlink:title="Defines a 3D point structure used in geometric computations.">
<polygon fill="white" stroke="#666666" points="317,-129 241,-129 241,-110 317,-110 317,-129"/>
<text text-anchor="middle" x="279" y="-117" font-family="Helvetica,sans-Serif" font-size="10.00">Point3D.hpp</text>
</a>
</g>
</g>
<!-- Node2&#45;&gt;Node10 -->
<g id="edge25_Node000002_Node000010" class="edge">
<title>Node2&#45;&gt;Node10</title>
<g id="a_edge25_Node000002_Node000010"><a xlink:title=" ">
<path fill="none" stroke="#63b8ff" d="M338.67,-388.31C251.97,-371.42 104,-335.31 104,-285.5 104,-285.5 104,-285.5 104,-228.5 104,-168.76 178.78,-140.97 230.57,-128.89"/>
<polygon fill="#63b8ff" stroke="#63b8ff" points="231.58,-132.25 240.6,-126.68 230.08,-125.42 231.58,-132.25"/>
</a>
</g>
</g>
<!-- Node11 -->
<g id="Node000011" class="node">
<title>Node11</title>
<g id="a_Node000011"><a xlink:href="../../d3/dde/Vector3D_8hpp.html" target="_top" xlink:title="Defines a 3D vector structure with basic arithmetic and transformation operations.">
<polygon fill="white" stroke="#666666" points="671,-74 589,-74 589,-55 671,-55 671,-74"/>
<text text-anchor="middle" x="630" y="-62" font-family="Helvetica,sans-Serif" font-size="10.00">Vector3D.hpp</text>
</a>
</g>
</g>
<!-- Node2&#45;&gt;Node11 -->
<g id="edge26_Node000002_Node000011" class="edge">
<title>Node2&#45;&gt;Node11</title>
<g id="a_edge26_Node000002_Node000011"><a xlink:title=" ">
<path fill="none" stroke="#63b8ff" d="M461.3,-390.3C591.11,-370.49 886.63,-317.56 945,-239 964.62,-212.6 960.31,-194.11 945,-165 924.91,-126.81 904.83,-126.59 865,-110 804.88,-84.96 730.22,-73.9 681.4,-69.08"/>
<polygon fill="#63b8ff" stroke="#63b8ff" points="681.67,-65.59 671.39,-68.15 681.02,-72.56 681.67,-65.59"/>
</a>
</g>
</g>
<!-- Node13 -->
<g id="Node000013" class="node">
<title>Node13</title>
<g id="a_Node000013"><a xlink:href="../../d0/d70/Material_8hpp.html" target="_top" xlink:title="Declares the physically&#45;based material descriptor used by the renderer.">
<polygon fill="white" stroke="#666666" points="936,-239 808,-239 808,-220 936,-220 936,-239"/>
<text text-anchor="middle" x="872" y="-227" font-family="Helvetica,sans-Serif" font-size="10.00">rendering/Material.hpp</text>
</a>
</g>
</g>
<!-- Node2&#45;&gt;Node13 -->
<g id="edge28_Node000002_Node000013" class="edge">
<title>Node2&#45;&gt;Node13</title>
<g id="a_edge28_Node000002_Node000013"><a xlink:title=" ">
<path fill="none" stroke="#63b8ff" d="M439.43,-384.92C530.34,-352.47 753.36,-272.85 838.35,-242.51"/>
<polygon fill="#63b8ff" stroke="#63b8ff" points="839.77,-245.72 848.01,-239.06 837.42,-239.13 839.77,-245.72"/>
</a>
</g>
</g>
<!-- Node18 -->
<g id="Node000018" class="node">
<title>Node18</title>
<g id="a_Node000018"><a xlink:title=" ">
<polygon fill="#e0e0e0" stroke="#999999" points="1044,-349 984,-349 984,-330 1044,-330 1044,-349"/>
<text text-anchor="middle" x="1014" y="-337" font-family="Helvetica,sans-Serif" font-size="10.00">iostream</text>
</a>
</g>
</g>
<!-- Node2&#45;&gt;Node18 -->
<g id="edge29_Node000002_Node000018" class="edge">
<title>Node2&#45;&gt;Node18</title>
<g id="a_edge29_Node000002_Node000018"><a xlink:title=" ">
<path fill="none" stroke="#63b8ff" d="M461.15,-396.25C564.75,-391.04 781.43,-377.7 973.82,-348.98"/>
<polygon fill="#63b8ff" stroke="#63b8ff" points="974.47,-352.43 983.84,-347.47 973.43,-345.51 974.47,-352.43"/>
</a>
</g>
</g>
<!-- Node19 -->
<g id="Node000019" class="node">
<title>Node19</title>
<g id="a_Node000019"><a xlink:title=" ">
<polygon fill="#e0e0e0" stroke="#999999" points="1121.5,-349 1062.5,-349 1062.5,-330 1121.5,-330 1121.5,-349"/>
<text text-anchor="middle" x="1092" y="-337" font-family="Helvetica,sans-Serif" font-size="10.00">complex</text>
</a>
</g>
</g>
<!-- Node2&#45;&gt;Node19 -->
<g id="edge30_Node000002_Node000019" class="edge">
<title>Node2&#45;&gt;Node19</title>
<g id="a_edge30_Node000002_Node000019"><a xlink:title=" ">
<path fill="none" stroke="#63b8ff" d="M461.08,-397.14C575.32,-393.04 829.14,-381.05 1052.33,-348.87"/>
<polygon fill="#63b8ff" stroke="#63b8ff" points="1052.88,-352.33 1062.27,-347.42 1051.87,-345.4 1052.88,-352.33"/>
</a>
</g>
</g>
<!-- Node20 -->
<g id="Node000020" class="node">
<title>Node20</title>
<g id="a_Node000020"><a xlink:href="../../d9/dad/BVH_8hpp.html" target="_top" xlink:title="Declares the axis&#45;aligned bounding box (AABB) and the BVH node used for ray&#45;tracing acceleration.">
<polygon fill="white" stroke="#666666" points="372,-349 264,-349 264,-330 372,-330 372,-349"/>
<text text-anchor="middle" x="318" y="-337" font-family="Helvetica,sans-Serif" font-size="10.00">rendering/BVH.hpp</text>
</a>
</g>
</g>
<!-- Node2&#45;&gt;Node20 -->
<g id="edge31_Node000002_Node000020" class="edge">
<title>Node2&#45;&gt;Node20</title>
<g id="a_edge31_Node000002_Node000020"><a xlink:title=" ">
<path fill="none" stroke="#63b8ff" d="M380.15,-384.84C367.52,-375.83 351.2,-364.18 338.45,-355.09"/>
<polygon fill="#63b8ff" stroke="#63b8ff" points="340.46,-352.22 330.29,-349.27 336.4,-357.92 340.46,-352.22"/>
</a>
</g>
</g>
<!-- Node8&#45;&gt;Node9 -->
<g id="edge8_Node000008_Node000009" class="edge">
<title>Node8&#45;&gt;Node9</title>
<g id="a_edge8_Node000008_Node000009"><a xlink:title=" ">
<path fill="none" stroke="#63b8ff" d="M550.7,-274.93C558.27,-262.38 569.73,-238.51 561,-220 554.99,-207.26 543.34,-196.92 532.39,-189.44"/>
<polygon fill="#63b8ff" stroke="#63b8ff" points="534.21,-186.44 523.89,-184.05 530.46,-192.36 534.21,-186.44"/>
</a>
</g>
</g>
<!-- Node8&#45;&gt;Node10 -->
<g id="edge14_Node000008_Node000010" class="edge">
<title>Node8&#45;&gt;Node10</title>
<g id="a_edge14_Node000008_Node000010"><a xlink:title=" ">
<path fill="none" stroke="#63b8ff" d="M526.69,-274.87C508.86,-266.3 481.14,-252.52 458,-239 398.58,-204.28 331.76,-158 299.12,-134.9"/>
<polygon fill="#63b8ff" stroke="#63b8ff" points="301.04,-131.96 290.86,-129.02 296.98,-137.67 301.04,-131.96"/>
</a>
</g>
</g>
<!-- Node8&#45;&gt;Node11 -->
<g id="edge16_Node000008_Node000011" class="edge">
<title>Node8&#45;&gt;Node11</title>
<g id="a_edge16_Node000008_Node000011"><a xlink:title=" ">
<path fill="none" stroke="#63b8ff" d="M591.17,-274.99C641.12,-265.32 714.79,-249.51 723,-239 744.13,-211.94 674.82,-120.51 644.01,-82.4"/>
<polygon fill="#63b8ff" stroke="#63b8ff" points="646.45,-79.85 637.41,-74.32 641.03,-84.28 646.45,-79.85"/>
</a>
</g>
</g>
<!-- Node12 -->
<g id="Node000012" class="node">
<title>Node12</title>
<g id="a_Node000012"><a xlink:href="../../d8/d1e/Vector2D_8hpp.html" target="_top" xlink:title="Defines a 2D vector structure used for texture coordinates or screen&#45;space math operations.">
<polygon fill="white" stroke="#666666" points="714,-239 608,-239 608,-220 714,-220 714,-239"/>
<text text-anchor="middle" x="661" y="-227" font-family="Helvetica,sans-Serif" font-size="10.00">core/Vector2D.hpp</text>
</a>
</g>
</g>
<!-- Node8&#45;&gt;Node12 -->
<g id="edge15_Node000008_Node000012" class="edge">
<title>Node8&#45;&gt;Node12</title>
<g id="a_edge15_Node000008_Node000012"><a xlink:title=" ">
<path fill="none" stroke="#63b8ff" d="M563.64,-274.98C582.3,-266.46 611.25,-253.23 632.74,-243.41"/>
<polygon fill="#63b8ff" stroke="#63b8ff" points="634.38,-246.51 642.02,-239.17 631.47,-240.14 634.38,-246.51"/>
</a>
</g>
</g>
<!-- Node8&#45;&gt;Node13 -->
<g id="edge17_Node000008_Node000013" class="edge">
<title>Node8&#45;&gt;Node13</title>
<g id="a_edge17_Node000008_Node000013"><a xlink:title=" ">
<path fill="none" stroke="#63b8ff" d="M597.54,-274.98C655.26,-265.63 747.91,-250.61 809.36,-240.65"/>
<polygon fill="#63b8ff" stroke="#63b8ff" points="810.01,-244.09 819.32,-239.04 808.89,-237.18 810.01,-244.09"/>
</a>
</g>
</g>
<!-- Node17 -->
<g id="Node000017" class="node">
<title>Node17</title>
<g id="a_Node000017"><a xlink:href="../../d0/d38/IPrimitive_8hpp.html" target="_top" xlink:title="Interface for geometric primitives in the raytracer.">
<polygon fill="white" stroke="#666666" points="551.5,-239 466.5,-239 466.5,-220 551.5,-220 551.5,-239"/>
<text text-anchor="middle" x="509" y="-227" font-family="Helvetica,sans-Serif" font-size="10.00">IPrimitive.hpp</text>
</a>
</g>
</g>
<!-- Node8&#45;&gt;Node17 -->
<g id="edge23_Node000008_Node000017" class="edge">
<title>Node8&#45;&gt;Node17</title>
<g id="a_edge23_Node000008_Node000017"><a xlink:title=" ">
<path fill="none" stroke="#63b8ff" d="M539.06,-274.75C534.02,-267.34 526.66,-256.5 520.49,-247.41"/>
<polygon fill="#63b8ff" stroke="#63b8ff" points="523.35,-245.39 514.83,-239.09 517.56,-249.33 523.35,-245.39"/>
</a>
</g>
</g>
<!-- Node9&#45;&gt;Node10 -->
<g id="edge9_Node000009_Node000010" class="edge">
<title>Node9&#45;&gt;Node10</title>
<g id="a_edge9_Node000009_Node000010"><a xlink:title=" ">
<path fill="none" stroke="#63b8ff" d="M470.37,-164.98C431.09,-155.86 368.63,-141.33 325.81,-131.38"/>
<polygon fill="#63b8ff" stroke="#63b8ff" points="326.45,-127.94 315.92,-129.08 324.87,-134.76 326.45,-127.94"/>
</a>
</g>
</g>
<!-- Node9&#45;&gt;Node11 -->
<g id="edge13_Node000009_Node000011" class="edge">
<title>Node9&#45;&gt;Node11</title>
<g id="a_edge13_Node000009_Node000011"><a xlink:title=" ">
<path fill="none" stroke="#63b8ff" d="M517.07,-164.66C537.98,-146.3 586.37,-103.81 612.5,-80.87"/>
<polygon fill="#63b8ff" stroke="#63b8ff" points="614.93,-83.39 620.14,-74.16 610.32,-78.13 614.93,-83.39"/>
</a>
</g>
</g>
<!-- Node10&#45;&gt;Node5 -->
<g id="edge12_Node000010_Node000005" class="edge">
<title>Node10&#45;&gt;Node5</title>
<g id="a_edge12_Node000010_Node000005"><a xlink:title=" ">
<path fill="none" stroke="#63b8ff" d="M279,-109.66C279,-92.17 279,-52.8 279,-29.27"/>
<polygon fill="#63b8ff" stroke="#63b8ff" points="282.5,-29.16 279,-19.16 275.5,-29.16 282.5,-29.16"/>
</a>
</g>
</g>
<!-- Node10&#45;&gt;Node11 -->
<g id="edge10_Node000010_Node000011" class="edge">
<title>Node10&#45;&gt;Node11</title>
<g id="a_edge10_Node000010_Node000011"><a xlink:title=" ">
<path fill="none" stroke="#63b8ff" d="M317.05,-112.22C321.74,-111.46 326.48,-110.71 331,-110 418.01,-96.42 519.41,-81.52 578.96,-72.87"/>
<polygon fill="#63b8ff" stroke="#63b8ff" points="579.47,-76.33 588.86,-71.43 578.46,-69.41 579.47,-76.33"/>
</a>
</g>
</g>
<!-- Node11&#45;&gt;Node5 -->
<g id="edge11_Node000011_Node000005" class="edge">
<title>Node11&#45;&gt;Node5</title>
<g id="a_edge11_Node000011_Node000005"><a xlink:title=" ">
<path fill="none" stroke="#63b8ff" d="M588.7,-57.26C518.49,-46.66 377.2,-25.33 312.61,-15.57"/>
<polygon fill="#63b8ff" stroke="#63b8ff" points="312.97,-12.09 302.56,-14.06 311.92,-19.01 312.97,-12.09"/>
</a>
</g>
</g>
<!-- Node13&#45;&gt;Node11 -->
<g id="edge20_Node000013_Node000011" class="edge">
<title>Node13&#45;&gt;Node11</title>
<g id="a_edge20_Node000013_Node000011"><a xlink:title=" ">
<path fill="none" stroke="#63b8ff" d="M872.89,-219.87C874.62,-198.05 875.89,-140.28 845,-110 822.26,-87.71 737.6,-75.56 681.55,-69.81"/>
<polygon fill="#63b8ff" stroke="#63b8ff" points="681.73,-66.31 671.44,-68.81 681.04,-73.27 681.73,-66.31"/>
</a>
</g>
</g>
<!-- Node14 -->
<g id="Node000014" class="node">
<title>Node14</title>
<g id="a_Node000014"><a xlink:title=" ">
<polygon fill="#e0e0e0" stroke="#999999" points="936,-184 892,-184 892,-165 936,-165 936,-184"/>
<text text-anchor="middle" x="914" y="-172" font-family="Helvetica,sans-Serif" font-size="10.00">string</text>
</a>
</g>
</g>
<!-- Node13&#45;&gt;Node14 -->
<g id="edge18_Node000013_Node000014" class="edge">
<title>Node13&#45;&gt;Node14</title>
<g id="a_edge18_Node000013_Node000014"><a xlink:title=" ">
<path fill="none" stroke="#63b8ff" d="M878.94,-219.75C884.87,-212.26 893.57,-201.28 900.82,-192.13"/>
<polygon fill="#63b8ff" stroke="#63b8ff" points="903.73,-194.1 907.19,-184.09 898.24,-189.75 903.73,-194.1"/>
</a>
</g>
</g>
<!-- Node15 -->
<g id="Node000015" class="node">
<title>Node15</title>
<g id="a_Node000015"><a xlink:title=" ">
<polygon fill="#e0e0e0" stroke="#999999" points="798,-184 740,-184 740,-165 798,-165 798,-184"/>
<text text-anchor="middle" x="769" y="-172" font-family="Helvetica,sans-Serif" font-size="10.00">memory</text>
</a>
</g>
</g>
<!-- Node13&#45;&gt;Node15 -->
<g id="edge19_Node000013_Node000015" class="edge">
<title>Node13&#45;&gt;Node15</title>
<g id="a_edge19_Node000013_Node000015"><a xlink:title=" ">
<path fill="none" stroke="#63b8ff" d="M855.45,-219.98C839.11,-211.57 813.87,-198.59 794.87,-188.81"/>
<polygon fill="#63b8ff" stroke="#63b8ff" points="796.34,-185.63 785.85,-184.17 793.14,-191.86 796.34,-185.63"/>
</a>
</g>
</g>
<!-- Node16 -->
<g id="Node000016" class="node">
<title>Node16</title>
<g id="a_Node000016"><a xlink:href="../../d0/ddc/Texture_8hpp.html" target="_top" xlink:title="Declares the abstract base class for all 2&#45;D textures. (Solid colour, checkerboard,...">
<polygon fill="white" stroke="#666666" points="835.5,-129 712.5,-129 712.5,-110 835.5,-110 835.5,-129"/>
<text text-anchor="middle" x="774" y="-117" font-family="Helvetica,sans-Serif" font-size="10.00">rendering/Texture.hpp</text>
</a>
</g>
</g>
<!-- Node13&#45;&gt;Node16 -->
<g id="edge21_Node000013_Node000016" class="edge">
<title>Node13&#45;&gt;Node16</title>
<g id="a_edge21_Node000013_Node000016"><a xlink:title=" ">
<path fill="none" stroke="#63b8ff" d="M863.98,-219.66C847.53,-201.54 809.76,-159.91 788.76,-136.77"/>
<polygon fill="#63b8ff" stroke="#63b8ff" points="791.17,-134.21 781.86,-129.16 785.98,-138.92 791.17,-134.21"/>
</a>
</g>
</g>
<!-- Node16&#45;&gt;Node11 -->
<g id="edge22_Node000016_Node000011" class="edge">
<title>Node16&#45;&gt;Node11</title>
<g id="a_edge22_Node000016_Node000011"><a xlink:title=" ">
<path fill="none" stroke="#63b8ff" d="M750.86,-109.98C727.18,-101.27 690.13,-87.63 663.29,-77.75"/>
<polygon fill="#63b8ff" stroke="#63b8ff" points="664.15,-74.34 653.56,-74.17 661.73,-80.91 664.15,-74.34"/>
</a>
</g>
</g>
<!-- Node17&#45;&gt;Node9 -->
<g id="edge24_Node000017_Node000009" class="edge">
<title>Node17&#45;&gt;Node9</title>
<g id="a_edge24_Node000017_Node000009"><a xlink:title=" ">
<path fill="none" stroke="#63b8ff" d="M508.67,-219.75C508.41,-212.8 508.03,-202.85 507.7,-194.13"/>
<polygon fill="#63b8ff" stroke="#63b8ff" points="511.2,-193.95 507.32,-184.09 504.2,-194.21 511.2,-193.95"/>
</a>
</g>
</g>
<!-- Node20&#45;&gt;Node3 -->
<g id="edge33_Node000020_Node000003" class="edge">
<title>Node20&#45;&gt;Node3</title>
<g id="a_edge33_Node000020_Node000003"><a xlink:title=" ">
<path fill="none" stroke="#63b8ff" d="M275.26,-329.98C222.45,-319.46 133.68,-301.78 85.52,-292.18"/>
<polygon fill="#63b8ff" stroke="#63b8ff" points="86.1,-288.73 75.61,-290.2 84.73,-295.59 86.1,-288.73"/>
</a>
</g>
</g>
<!-- Node20&#45;&gt;Node6 -->
<g id="edge35_Node000020_Node000006" class="edge">
<title>Node20&#45;&gt;Node6</title>
<g id="a_edge35_Node000020_Node000006"><a xlink:title=" ">
<path fill="none" stroke="#63b8ff" d="M291.65,-329.98C262.85,-320.68 216.72,-305.77 185.9,-295.81"/>
<polygon fill="#63b8ff" stroke="#63b8ff" points="186.67,-292.38 176.08,-292.63 184.52,-299.04 186.67,-292.38"/>
</a>
</g>
</g>
<!-- Node20&#45;&gt;Node7 -->
<g id="edge34_Node000020_Node000007" class="edge">
<title>Node20&#45;&gt;Node7</title>
<g id="a_edge34_Node000020_Node000007"><a xlink:title=" ">
<path fill="none" stroke="#63b8ff" d="M303.22,-329.98C288.82,-321.69 266.69,-308.94 249.81,-299.22"/>
<polygon fill="#63b8ff" stroke="#63b8ff" points="251.46,-296.13 241.05,-294.17 247.97,-302.19 251.46,-296.13"/>
</a>
</g>
</g>
<!-- Node20&#45;&gt;Node8 -->
<g id="edge37_Node000020_Node000008" class="edge">
<title>Node20&#45;&gt;Node8</title>
<g id="a_edge37_Node000020_Node000008"><a xlink:title=" ">
<path fill="none" stroke="#63b8ff" d="M354.47,-329.98C393.57,-320.86 455.77,-306.33 498.39,-296.38"/>
<polygon fill="#63b8ff" stroke="#63b8ff" points="499.3,-299.76 508.24,-294.08 497.71,-292.95 499.3,-299.76"/>
</a>
</g>
</g>
<!-- Node20&#45;&gt;Node9 -->
<g id="edge36_Node000020_Node000009" class="edge">
<title>Node20&#45;&gt;Node9</title>
<g id="a_edge36_Node000020_Node000009"><a xlink:title=" ">
<path fill="none" stroke="#63b8ff" d="M321.95,-329.95C333.4,-305.51 366.97,-236.07 386,-220 406.35,-202.82 433.93,-191.99 457.62,-185.33"/>
<polygon fill="#63b8ff" stroke="#63b8ff" points="458.72,-188.66 467.5,-182.72 456.93,-181.89 458.72,-188.66"/>
</a>
</g>
</g>
<!-- Node20&#45;&gt;Node10 -->
<g id="edge38_Node000020_Node000010" class="edge">
<title>Node20&#45;&gt;Node10</title>
<g id="a_edge38_Node000020_Node000010"><a xlink:title=" ">
<path fill="none" stroke="#63b8ff" d="M316.46,-329.97C314.85,-321.01 312.24,-306.52 310,-294 299.9,-237.67 288.01,-171.04 282.34,-139.23"/>
<polygon fill="#63b8ff" stroke="#63b8ff" points="285.75,-138.4 280.55,-129.17 278.86,-139.63 285.75,-138.4"/>
</a>
</g>
</g>
<!-- Node20&#45;&gt;Node11 -->
<g id="edge39_Node000020_Node000011" class="edge">
<title>Node20&#45;&gt;Node11</title>
<g id="a_edge39_Node000020_Node000011"><a xlink:title=" ">
<path fill="none" stroke="#63b8ff" d="M319.38,-329.9C323.19,-308.64 335.76,-252.96 367,-220 434.73,-148.54 542.81,-99.38 596.9,-77.83"/>
<polygon fill="#63b8ff" stroke="#63b8ff" points="598.31,-81.03 606.35,-74.12 595.76,-74.51 598.31,-81.03"/>
</a>
</g>
</g>
<!-- Node20&#45;&gt;Node15 -->
<g id="edge32_Node000020_Node000015" class="edge">
<title>Node20&#45;&gt;Node15</title>
<g id="a_edge32_Node000020_Node000015"><a xlink:title=" ">
<path fill="none" stroke="#63b8ff" d="M372.16,-333.74C431.5,-327.73 529.13,-315.48 611,-294 677.67,-276.51 711.33,-291.49 756,-239 766.48,-226.68 769.29,-208.17 769.74,-194.31"/>
<polygon fill="#63b8ff" stroke="#63b8ff" points="773.24,-193.98 769.68,-184 766.24,-194.02 773.24,-193.98"/>
</a>
</g>
</g>
</g>
</svg>
