<?xml version="1.0" encoding="UTF-8" standalone="no"?>
<!DOCTYPE svg PUBLIC "-//W3C//DTD SVG 1.1//EN"
 "http://www.w3.org/Graphics/SVG/1.1/DTD/svg11.dtd">
<!-- Generated by graphviz version 2.43.0 (0)
 -->
<!-- Title: include/rendering/CheckerTexture.hpp Pages: 1 -->
<svg width="358pt" height="93pt"
 viewBox="0.00 0.00 357.50 93.00" xmlns="http://www.w3.org/2000/svg" xmlns:xlink="http://www.w3.org/1999/xlink">
<g id="graph0" class="graph" transform="scale(1 1) rotate(0) translate(4 89)">
<title>include/rendering/CheckerTexture.hpp</title>
<!-- Node1 -->
<g id="Node000001" class="node">
<title>Node1</title>
<g id="a_Node000001"><a xlink:title="Declares a 2&#45;D procedural checkerboard texture.">
<polygon fill="#999999" stroke="#666666" points="239.5,-85 96.5,-85 96.5,-55 239.5,-55 239.5,-85"/>
<text text-anchor="start" x="104.5" y="-73" font-family="Helvetica,sans-Serif" font-size="10.00">include/rendering/Checker</text>
<text text-anchor="middle" x="168" y="-62" font-family="Helvetica,sans-Serif" font-size="10.00">Texture.hpp</text>
</a>
</g>
</g>
<!-- Node2 -->
<g id="Node000002" class="node">
<title>Node2</title>
<g id="a_Node000002"><a xlink:href="../../d3/d79/SceneParser_8cpp.html" target="_top" xlink:title="Implements the scene loading system using libconfig for the raytracer engine.">
<polygon fill="white" stroke="#666666" points="152,-19 0,-19 0,0 152,0 152,-19"/>
<text text-anchor="middle" x="76" y="-7" font-family="Helvetica,sans-Serif" font-size="10.00">src/loaders/SceneParser.cpp</text>
</a>
</g>
</g>
<!-- Node1&#45;&gt;Node2 -->
<g id="edge1_Node000001_Node000002" class="edge">
<title>Node1&#45;&gt;Node2</title>
<g id="a_edge1_Node000001_Node000002"><a xlink:title=" ">
<path fill="none" stroke="#63b8ff" d="M137.1,-49.35C120.94,-39.07 101.98,-27.02 89.52,-19.09"/>
<polygon fill="#63b8ff" stroke="#63b8ff" points="135.41,-52.43 145.73,-54.84 139.17,-46.52 135.41,-52.43"/>
</a>
</g>
</g>
<!-- Node3 -->
<g id="Node000003" class="node">
<title>Node3</title>
<g id="a_Node000003"><a xlink:href="../../d9/d08/CheckerTexture_8cpp.html" target="_top" xlink:title=" ">
<polygon fill="white" stroke="#666666" points="349.5,-19 170.5,-19 170.5,0 349.5,0 349.5,-19"/>
<text text-anchor="middle" x="260" y="-7" font-family="Helvetica,sans-Serif" font-size="10.00">src/rendering/CheckerTexture.cpp</text>
</a>
</g>
</g>
<!-- Node1&#45;&gt;Node3 -->
<g id="edge2_Node000001_Node000003" class="edge">
<title>Node1&#45;&gt;Node3</title>
<g id="a_edge2_Node000001_Node000003"><a xlink:title=" ">
<path fill="none" stroke="#63b8ff" d="M198.9,-49.35C215.06,-39.07 234.02,-27.02 246.48,-19.09"/>
<polygon fill="#63b8ff" stroke="#63b8ff" points="196.83,-46.52 190.27,-54.84 200.59,-52.43 196.83,-46.52"/>
</a>
</g>
</g>
</g>
</svg>
