<?xml version="1.0" encoding="UTF-8" standalone="no"?>
<!DOCTYPE svg PUBLIC "-//W3C//DTD SVG 1.1//EN"
 "http://www.w3.org/Graphics/SVG/1.1/DTD/svg11.dtd">
<!-- Generated by graphviz version 2.43.0 (0)
 -->
<!-- Title: RayTracer::Triangle Pages: 1 -->
<svg width="256pt" height="269pt"
 viewBox="0.00 0.00 255.50 269.00" xmlns="http://www.w3.org/2000/svg" xmlns:xlink="http://www.w3.org/1999/xlink">
<g id="graph0" class="graph" transform="scale(1 1) rotate(0) translate(4 265)">
<title>RayTracer::Triangle</title>
<!-- Node1 -->
<g id="Node000001" class="node">
<title>Node1</title>
<g id="a_Node000001"><a xlink:title="Triangle primitive for ray tracing.">
<polygon fill="#999999" stroke="#666666" points="190.5,-19 81.5,-19 81.5,0 190.5,0 190.5,-19"/>
<text text-anchor="middle" x="136" y="-7" font-family="Helvetica,sans-Serif" font-size="10.00">RayTracer::Triangle</text>
</a>
</g>
</g>
<!-- Node2 -->
<g id="Node000002" class="node">
<title>Node2</title>
<g id="a_Node000002"><a xlink:href="../../d9/d3d/classRayTracer_1_1APrimitive.html" target="_top" xlink:title=" ">
<polygon fill="white" stroke="#666666" points="136,-107 14,-107 14,-88 136,-88 136,-107"/>
<text text-anchor="middle" x="75" y="-95" font-family="Helvetica,sans-Serif" font-size="10.00">RayTracer::APrimitive</text>
</a>
</g>
</g>
<!-- Node2&#45;&gt;Node1 -->
<g id="edge1_Node000001_Node000002" class="edge">
<title>Node2&#45;&gt;Node1</title>
<g id="a_edge1_Node000001_Node000002"><a xlink:title=" ">
<path fill="none" stroke="#63b8ff" d="M87.1,-79.44C100.03,-61.21 120.01,-33.04 129.95,-19.03"/>
<polygon fill="#63b8ff" stroke="#63b8ff" points="84,-77.76 81.07,-87.94 89.71,-81.81 84,-77.76"/>
</a>
</g>
</g>
<!-- Node3 -->
<g id="Node000003" class="node">
<title>Node3</title>
<g id="a_Node000003"><a xlink:href="../../da/d13/classRayTracer_1_1IPrimitive.html" target="_top" xlink:title="Pure interface that every geometric primitive must implement.">
<polygon fill="white" stroke="#666666" points="118,-173 0,-173 0,-154 118,-154 118,-173"/>
<text text-anchor="middle" x="59" y="-161" font-family="Helvetica,sans-Serif" font-size="10.00">RayTracer::IPrimitive</text>
</a>
</g>
</g>
<!-- Node3&#45;&gt;Node2 -->
<g id="edge2_Node000002_Node000003" class="edge">
<title>Node3&#45;&gt;Node2</title>
<g id="a_edge2_Node000002_Node000003"><a xlink:title=" ">
<path fill="none" stroke="#63b8ff" d="M63.64,-143.95C66.64,-131.93 70.42,-116.82 72.77,-107.41"/>
<polygon fill="#63b8ff" stroke="#63b8ff" points="60.19,-143.32 61.16,-153.87 66.98,-145.02 60.19,-143.32"/>
</a>
</g>
</g>
<!-- Node4 -->
<g id="Node000004" class="node">
<title>Node4</title>
<g id="a_Node000004"><a xlink:href="../../d1/d48/structRayTracer_1_1Material.html" target="_top" xlink:title="Physically&#45;based material parameters.">
<polygon fill="white" stroke="#666666" points="247.5,-173 136.5,-173 136.5,-154 247.5,-154 247.5,-173"/>
<text text-anchor="middle" x="192" y="-161" font-family="Helvetica,sans-Serif" font-size="10.00">RayTracer::Material</text>
</a>
</g>
</g>
<!-- Node4&#45;&gt;Node2 -->
<g id="edge3_Node000002_Node000004" class="edge">
<title>Node4&#45;&gt;Node2</title>
<g id="a_edge3_Node000002_Node000004"><a xlink:title=" ">
<path fill="none" stroke="#9a32cd" stroke-dasharray="5,2" d="M167.37,-149.03C144.33,-136.42 110.59,-117.97 90.9,-107.2"/>
<polygon fill="#9a32cd" stroke="#9a32cd" points="165.77,-152.14 176.22,-153.87 169.13,-146 165.77,-152.14"/>
</a>
</g>
<text text-anchor="middle" x="163.5" y="-128" font-family="Helvetica,sans-Serif" font-size="10.00" fill="grey"> material</text>
</g>
<!-- Node5 -->
<g id="Node000005" class="node">
<title>Node5</title>
<g id="a_Node000005"><a xlink:href="../../d6/d30/structMath_1_1Vector3D.html" target="_top" xlink:title="Represents a 3D vector with real coordinates.">
<polygon fill="white" stroke="#666666" points="238,-261 146,-261 146,-242 238,-242 238,-261"/>
<text text-anchor="middle" x="192" y="-249" font-family="Helvetica,sans-Serif" font-size="10.00">Math::Vector3D</text>
</a>
</g>
</g>
<!-- Node5&#45;&gt;Node4 -->
<g id="edge4_Node000004_Node000005" class="edge">
<title>Node5&#45;&gt;Node4</title>
<g id="a_edge4_Node000004_Node000005"><a xlink:title=" ">
<path fill="none" stroke="#9a32cd" stroke-dasharray="5,2" d="M192,-231.91C192,-213.67 192,-186.65 192,-173.03"/>
<polygon fill="#9a32cd" stroke="#9a32cd" points="188.5,-231.94 192,-241.94 195.5,-231.94 188.5,-231.94"/>
</a>
</g>
<text text-anchor="middle" x="214.5" y="-216" font-family="Helvetica,sans-Serif" font-size="10.00" fill="grey"> albedo</text>
<text text-anchor="middle" x="214.5" y="-205" font-family="Helvetica,sans-Serif" font-size="10.00" fill="grey">emission</text>
<text text-anchor="middle" x="214.5" y="-194" font-family="Helvetica,sans-Serif" font-size="10.00" fill="grey">specular</text>
</g>
<!-- Node6 -->
<g id="Node000006" class="node">
<title>Node6</title>
<g id="a_Node000006"><a xlink:href="../../db/daa/structMath_1_1Point3D.html" target="_top" xlink:title="Represents a 3D point in Cartesian coordinates.">
<polygon fill="white" stroke="#666666" points="240,-107 154,-107 154,-88 240,-88 240,-107"/>
<text text-anchor="middle" x="197" y="-95" font-family="Helvetica,sans-Serif" font-size="10.00">Math::Point3D</text>
</a>
</g>
</g>
<!-- Node6&#45;&gt;Node1 -->
<g id="edge5_Node000001_Node000006" class="edge">
<title>Node6&#45;&gt;Node1</title>
<g id="a_edge5_Node000001_Node000006"><a xlink:title=" ">
<path fill="none" stroke="#9a32cd" stroke-dasharray="5,2" d="M184.9,-79.44C171.97,-61.21 151.99,-33.04 142.05,-19.03"/>
<polygon fill="#9a32cd" stroke="#9a32cd" points="182.29,-81.81 190.93,-87.94 188,-77.76 182.29,-81.81"/>
</a>
</g>
<text text-anchor="middle" x="185" y="-62" font-family="Helvetica,sans-Serif" font-size="10.00" fill="grey"> v0</text>
<text text-anchor="middle" x="185" y="-51" font-family="Helvetica,sans-Serif" font-size="10.00" fill="grey">v1</text>
<text text-anchor="middle" x="185" y="-40" font-family="Helvetica,sans-Serif" font-size="10.00" fill="grey">v2</text>
</g>
</g>
</svg>
