<?xml version="1.0" encoding="UTF-8" standalone="no"?>
<!DOCTYPE svg PUBLIC "-//W3C//DTD SVG 1.1//EN"
 "http://www.w3.org/Graphics/SVG/1.1/DTD/svg11.dtd">
<!-- Generated by graphviz version 2.43.0 (0)
 -->
<!-- Title: RayTracer::APrimitive Pages: 1 -->
<svg width="256pt" height="181pt"
 viewBox="0.00 0.00 255.50 181.00" xmlns="http://www.w3.org/2000/svg" xmlns:xlink="http://www.w3.org/1999/xlink">
<g id="graph0" class="graph" transform="scale(1 1) rotate(0) translate(4 177)">
<title>RayTracer::APrimitive</title>
<!-- Node1 -->
<g id="Node000001" class="node">
<title>Node1</title>
<g id="a_Node000001"><a xlink:title=" ">
<polygon fill="#999999" stroke="#666666" points="136,-19 14,-19 14,0 136,0 136,-19"/>
<text text-anchor="middle" x="75" y="-7" font-family="Helvetica,sans-Serif" font-size="10.00">RayTracer::APrimitive</text>
</a>
</g>
</g>
<!-- Node2 -->
<g id="Node000002" class="node">
<title>Node2</title>
<g id="a_Node000002"><a xlink:href="../../da/d13/classRayTracer_1_1IPrimitive.html" target="_top" xlink:title="Pure interface that every geometric primitive must implement.">
<polygon fill="white" stroke="#666666" points="118,-85 0,-85 0,-66 118,-66 118,-85"/>
<text text-anchor="middle" x="59" y="-73" font-family="Helvetica,sans-Serif" font-size="10.00">RayTracer::IPrimitive</text>
</a>
</g>
</g>
<!-- Node2&#45;&gt;Node1 -->
<g id="edge1_Node000001_Node000002" class="edge">
<title>Node2&#45;&gt;Node1</title>
<g id="a_edge1_Node000001_Node000002"><a xlink:title=" ">
<path fill="none" stroke="#63b8ff" d="M63.64,-55.95C66.64,-43.93 70.42,-28.82 72.77,-19.41"/>
<polygon fill="#63b8ff" stroke="#63b8ff" points="60.19,-55.32 61.16,-65.87 66.98,-57.02 60.19,-55.32"/>
</a>
</g>
</g>
<!-- Node3 -->
<g id="Node000003" class="node">
<title>Node3</title>
<g id="a_Node000003"><a xlink:href="../../d1/d48/structRayTracer_1_1Material.html" target="_top" xlink:title="Physically&#45;based material parameters.">
<polygon fill="white" stroke="#666666" points="247.5,-85 136.5,-85 136.5,-66 247.5,-66 247.5,-85"/>
<text text-anchor="middle" x="192" y="-73" font-family="Helvetica,sans-Serif" font-size="10.00">RayTracer::Material</text>
</a>
</g>
</g>
<!-- Node3&#45;&gt;Node1 -->
<g id="edge2_Node000001_Node000003" class="edge">
<title>Node3&#45;&gt;Node1</title>
<g id="a_edge2_Node000001_Node000003"><a xlink:title=" ">
<path fill="none" stroke="#9a32cd" stroke-dasharray="5,2" d="M167.37,-61.03C144.33,-48.42 110.59,-29.97 90.9,-19.2"/>
<polygon fill="#9a32cd" stroke="#9a32cd" points="165.77,-64.14 176.22,-65.87 169.13,-58 165.77,-64.14"/>
</a>
</g>
<text text-anchor="middle" x="162.5" y="-40" font-family="Helvetica,sans-Serif" font-size="10.00" fill="grey"> material</text>
</g>
<!-- Node4 -->
<g id="Node000004" class="node">
<title>Node4</title>
<g id="a_Node000004"><a xlink:href="../../d6/d30/structMath_1_1Vector3D.html" target="_top" xlink:title="Represents a 3D vector with real coordinates.">
<polygon fill="white" stroke="#666666" points="238,-173 146,-173 146,-154 238,-154 238,-173"/>
<text text-anchor="middle" x="192" y="-161" font-family="Helvetica,sans-Serif" font-size="10.00">Math::Vector3D</text>
</a>
</g>
</g>
<!-- Node4&#45;&gt;Node3 -->
<g id="edge3_Node000003_Node000004" class="edge">
<title>Node4&#45;&gt;Node3</title>
<g id="a_edge3_Node000003_Node000004"><a xlink:title=" ">
<path fill="none" stroke="#9a32cd" stroke-dasharray="5,2" d="M192,-143.91C192,-125.67 192,-98.65 192,-85.03"/>
<polygon fill="#9a32cd" stroke="#9a32cd" points="188.5,-143.94 192,-153.94 195.5,-143.94 188.5,-143.94"/>
</a>
</g>
<text text-anchor="middle" x="214.5" y="-128" font-family="Helvetica,sans-Serif" font-size="10.00" fill="grey"> albedo</text>
<text text-anchor="middle" x="214.5" y="-117" font-family="Helvetica,sans-Serif" font-size="10.00" fill="grey">emission</text>
<text text-anchor="middle" x="214.5" y="-106" font-family="Helvetica,sans-Serif" font-size="10.00" fill="grey">specular</text>
</g>
</g>
</svg>
