<?xml version="1.0" encoding="UTF-8" standalone="no"?>
<!DOCTYPE svg PUBLIC "-//W3C//DTD SVG 1.1//EN"
 "http://www.w3.org/Graphics/SVG/1.1/DTD/svg11.dtd">
<!-- Generated by graphviz version 2.43.0 (0)
 -->
<!-- Title: RayTracer::Camera Pages: 1 -->
<svg width="206pt" height="137pt"
 viewBox="0.00 0.00 206.00 137.00" xmlns="http://www.w3.org/2000/svg" xmlns:xlink="http://www.w3.org/1999/xlink">
<g id="graph0" class="graph" transform="scale(1 1) rotate(0) translate(4 133)">
<title>RayTracer::Camera</title>
<!-- Node1 -->
<g id="Node000001" class="node">
<title>Node1</title>
<g id="a_Node000001"><a xlink:title="Simple pin&#45;hole / thin&#45;lens camera model.">
<polygon fill="#999999" stroke="#666666" points="150.5,-19 41.5,-19 41.5,0 150.5,0 150.5,-19"/>
<text text-anchor="middle" x="96" y="-7" font-family="Helvetica,sans-Serif" font-size="10.00">RayTracer::Camera</text>
</a>
</g>
</g>
<!-- Node2 -->
<g id="Node000002" class="node">
<title>Node2</title>
<g id="a_Node000002"><a xlink:href="../../db/daa/structMath_1_1Point3D.html" target="_top" xlink:title="Represents a 3D point in Cartesian coordinates.">
<polygon fill="white" stroke="#666666" points="86,-129 0,-129 0,-110 86,-110 86,-129"/>
<text text-anchor="middle" x="43" y="-117" font-family="Helvetica,sans-Serif" font-size="10.00">Math::Point3D</text>
</a>
</g>
</g>
<!-- Node2&#45;&gt;Node1 -->
<g id="edge1_Node000001_Node000002" class="edge">
<title>Node2&#45;&gt;Node1</title>
<g id="a_edge1_Node000001_Node000002"><a xlink:title=" ">
<path fill="none" stroke="#9a32cd" stroke-dasharray="5,2" d="M49,-99.81C54.79,-82.86 64.39,-57.48 76,-37 79.52,-30.78 84.33,-24.37 88.34,-19.41"/>
<polygon fill="#9a32cd" stroke="#9a32cd" points="45.58,-99 45.75,-109.59 52.22,-101.2 45.58,-99"/>
</a>
</g>
<text text-anchor="middle" x="102" y="-67.5" font-family="Helvetica,sans-Serif" font-size="10.00" fill="grey"> lower_left</text>
<text text-anchor="middle" x="102" y="-56.5" font-family="Helvetica,sans-Serif" font-size="10.00" fill="grey">origin</text>
</g>
<!-- Node3 -->
<g id="Node000003" class="node">
<title>Node3</title>
<g id="a_Node000003"><a xlink:href="../../d6/d30/structMath_1_1Vector3D.html" target="_top" xlink:title="Represents a 3D vector with real coordinates.">
<polygon fill="white" stroke="#666666" points="196,-129 104,-129 104,-110 196,-110 196,-129"/>
<text text-anchor="middle" x="150" y="-117" font-family="Helvetica,sans-Serif" font-size="10.00">Math::Vector3D</text>
</a>
</g>
</g>
<!-- Node3&#45;&gt;Node1 -->
<g id="edge2_Node000001_Node000003" class="edge">
<title>Node3&#45;&gt;Node1</title>
<g id="a_edge2_Node000001_Node000003"><a xlink:title=" ">
<path fill="none" stroke="#9a32cd" stroke-dasharray="5,2" d="M148.24,-99.94C145.88,-82.52 140.42,-56.31 128,-37 123.4,-29.84 116.24,-23.65 109.86,-19.06"/>
<polygon fill="#9a32cd" stroke="#9a32cd" points="144.78,-100.42 149.39,-109.96 151.73,-99.63 144.78,-100.42"/>
</a>
</g>
<text text-anchor="middle" x="172" y="-84" font-family="Helvetica,sans-Serif" font-size="10.00" fill="grey"> horizontal</text>
<text text-anchor="middle" x="172" y="-73" font-family="Helvetica,sans-Serif" font-size="10.00" fill="grey">u</text>
<text text-anchor="middle" x="172" y="-62" font-family="Helvetica,sans-Serif" font-size="10.00" fill="grey">v</text>
<text text-anchor="middle" x="172" y="-51" font-family="Helvetica,sans-Serif" font-size="10.00" fill="grey">vertical</text>
<text text-anchor="middle" x="172" y="-40" font-family="Helvetica,sans-Serif" font-size="10.00" fill="grey">w</text>
</g>
</g>
</svg>
