<?xml version="1.0" encoding="UTF-8" standalone="no"?>
<!DOCTYPE svg PUBLIC "-//W3C//DTD SVG 1.1//EN"
 "http://www.w3.org/Graphics/SVG/1.1/DTD/svg11.dtd">
<!-- Generated by graphviz version 2.43.0 (0)
 -->
<!-- Title: RayTracer::Shear::hits Pages: 1 -->
<svg width="318pt" height="64pt"
 viewBox="0.00 0.00 318.00 64.00" xmlns="http://www.w3.org/2000/svg" xmlns:xlink="http://www.w3.org/1999/xlink">
<g id="graph0" class="graph" transform="scale(1 1) rotate(0) translate(4 60)">
<title>RayTracer::Shear::hits</title>
<!-- Node1 -->
<g id="Node000001" class="node">
<title>Node1</title>
<g id="a_Node000001"><a xlink:title="Performs ray intersection test after applying the shear transformation.">
<polygon fill="#999999" stroke="#666666" points="122,-37 0,-37 0,-18 122,-18 122,-37"/>
<text text-anchor="middle" x="61" y="-25" font-family="Helvetica,sans-Serif" font-size="10.00">RayTracer::Shear::hits</text>
</a>
</g>
</g>
<!-- Node2 -->
<g id="Node000002" class="node">
<title>Node2</title>
<g id="a_Node000002"><a xlink:href="../../dd/d52/Matrix_8cpp.html#a3a0f50a7a24b1a3ee5904edaea3c93f3" target="_top" xlink:title=" ">
<polygon fill="white" stroke="#666666" points="257.5,-56 210.5,-56 210.5,-37 257.5,-37 257.5,-56"/>
<text text-anchor="middle" x="234" y="-44" font-family="Helvetica,sans-Serif" font-size="10.00">mul33</text>
</a>
</g>
</g>
<!-- Node1&#45;&gt;Node2 -->
<g id="edge1_Node000001_Node000002" class="edge">
<title>Node1&#45;&gt;Node2</title>
<g id="a_edge1_Node000001_Node000002"><a xlink:title=" ">
<path fill="none" stroke="#63b8ff" d="M122.29,-34.2C148.4,-37.1 177.96,-40.38 199.96,-42.83"/>
<polygon fill="#63b8ff" stroke="#63b8ff" points="199.78,-46.33 210.11,-43.96 200.56,-39.37 199.78,-46.33"/>
</a>
</g>
</g>
<!-- Node3 -->
<g id="Node000003" class="node">
<title>Node3</title>
<g id="a_Node000003"><a xlink:href="../../d6/d30/structMath_1_1Vector3D.html#a598b2b7fe5b2b34c111ee68015080334" target="_top" xlink:title="Returns a normalized (unit&#45;length) copy of the vector.">
<polygon fill="white" stroke="#666666" points="310,-19 158,-19 158,0 310,0 310,-19"/>
<text text-anchor="middle" x="234" y="-7" font-family="Helvetica,sans-Serif" font-size="10.00">Math::Vector3D::normalized</text>
</a>
</g>
</g>
<!-- Node1&#45;&gt;Node3 -->
<g id="edge2_Node000001_Node000003" class="edge">
<title>Node1&#45;&gt;Node3</title>
<g id="a_edge2_Node000001_Node000003"><a xlink:title=" ">
<path fill="none" stroke="#63b8ff" d="M122.29,-21.15C130.58,-20.28 139.22,-19.37 147.86,-18.46"/>
<polygon fill="#63b8ff" stroke="#63b8ff" points="148.39,-21.93 157.97,-17.4 147.66,-14.96 148.39,-21.93"/>
</a>
</g>
</g>
</g>
</svg>
