<?xml version="1.0" encoding="UTF-8" standalone="no"?>
<!DOCTYPE svg PUBLIC "-//W3C//DTD SVG 1.1//EN"
 "http://www.w3.org/Graphics/SVG/1.1/DTD/svg11.dtd">
<!-- Generated by graphviz version 2.43.0 (0)
 -->
<!-- Title: include/core/IPrimitive.hpp Pages: 1 -->
<svg width="156pt" height="247pt"
 viewBox="0.00 0.00 155.50 247.00" xmlns="http://www.w3.org/2000/svg" xmlns:xlink="http://www.w3.org/1999/xlink">
<g id="graph0" class="graph" transform="scale(1 1) rotate(0) translate(4 243)">
<title>include/core/IPrimitive.hpp</title>
<!-- Node1 -->
<g id="Node000001" class="node">
<title>Node1</title>
<g id="a_Node000001"><a xlink:title="Interface for geometric primitives in the raytracer.">
<polygon fill="#999999" stroke="#666666" points="147.5,-239 0.5,-239 0.5,-220 147.5,-220 147.5,-239"/>
<text text-anchor="middle" x="74" y="-227" font-family="Helvetica,sans-Serif" font-size="10.00">include/core/IPrimitive.hpp</text>
</a>
</g>
</g>
<!-- Node2 -->
<g id="Node000002" class="node">
<title>Node2</title>
<g id="a_Node000002"><a xlink:href="../../d4/db2/Ray_8hpp.html" target="_top" xlink:title="Defines the Ray structure used for ray&#45;object intersection tests in the raytracer.">
<polygon fill="white" stroke="#666666" points="113.5,-184 34.5,-184 34.5,-165 113.5,-165 113.5,-184"/>
<text text-anchor="middle" x="74" y="-172" font-family="Helvetica,sans-Serif" font-size="10.00">core/Ray.hpp</text>
</a>
</g>
</g>
<!-- Node1&#45;&gt;Node2 -->
<g id="edge1_Node000001_Node000002" class="edge">
<title>Node1&#45;&gt;Node2</title>
<g id="a_edge1_Node000001_Node000002"><a xlink:title=" ">
<path fill="none" stroke="#63b8ff" d="M74,-219.75C74,-212.8 74,-202.85 74,-194.13"/>
<polygon fill="#63b8ff" stroke="#63b8ff" points="77.5,-194.09 74,-184.09 70.5,-194.09 77.5,-194.09"/>
</a>
</g>
</g>
<!-- Node3 -->
<g id="Node000003" class="node">
<title>Node3</title>
<g id="a_Node000003"><a xlink:href="../../df/df2/Point3D_8hpp.html" target="_top" xlink:title="Defines a 3D point structure used in geometric computations.">
<polygon fill="white" stroke="#666666" points="145,-129 69,-129 69,-110 145,-110 145,-129"/>
<text text-anchor="middle" x="107" y="-117" font-family="Helvetica,sans-Serif" font-size="10.00">Point3D.hpp</text>
</a>
</g>
</g>
<!-- Node2&#45;&gt;Node3 -->
<g id="edge2_Node000002_Node000003" class="edge">
<title>Node2&#45;&gt;Node3</title>
<g id="a_edge2_Node000002_Node000003"><a xlink:title=" ">
<path fill="none" stroke="#63b8ff" d="M79.45,-164.75C84.01,-157.42 90.67,-146.73 96.29,-137.7"/>
<polygon fill="#63b8ff" stroke="#63b8ff" points="99.34,-139.43 101.65,-129.09 93.4,-135.73 99.34,-139.43"/>
</a>
</g>
</g>
<!-- Node4 -->
<g id="Node000004" class="node">
<title>Node4</title>
<g id="a_Node000004"><a xlink:href="../../d3/dde/Vector3D_8hpp.html" target="_top" xlink:title="Defines a 3D vector structure with basic arithmetic and transformation operations.">
<polygon fill="white" stroke="#666666" points="82,-74 0,-74 0,-55 82,-55 82,-74"/>
<text text-anchor="middle" x="41" y="-62" font-family="Helvetica,sans-Serif" font-size="10.00">Vector3D.hpp</text>
</a>
</g>
</g>
<!-- Node2&#45;&gt;Node4 -->
<g id="edge6_Node000002_Node000004" class="edge">
<title>Node2&#45;&gt;Node4</title>
<g id="a_edge6_Node000002_Node000004"><a xlink:title=" ">
<path fill="none" stroke="#63b8ff" d="M71.28,-164.98C68.43,-156.03 63.85,-141.54 60,-129 55.35,-113.85 50.21,-96.63 46.45,-83.95"/>
<polygon fill="#63b8ff" stroke="#63b8ff" points="49.74,-82.74 43.54,-74.14 43.02,-84.72 49.74,-82.74"/>
</a>
</g>
</g>
<!-- Node3&#45;&gt;Node4 -->
<g id="edge3_Node000003_Node000004" class="edge">
<title>Node3&#45;&gt;Node4</title>
<g id="a_edge3_Node000003_Node000004"><a xlink:title=" ">
<path fill="none" stroke="#63b8ff" d="M96.4,-109.98C86.54,-102.07 71.65,-90.11 59.78,-80.58"/>
<polygon fill="#63b8ff" stroke="#63b8ff" points="61.79,-77.7 51.8,-74.17 57.4,-83.16 61.79,-77.7"/>
</a>
</g>
</g>
<!-- Node5 -->
<g id="Node000005" class="node">
<title>Node5</title>
<g id="a_Node000005"><a xlink:title=" ">
<polygon fill="#e0e0e0" stroke="#999999" points="98.5,-19 51.5,-19 51.5,0 98.5,0 98.5,-19"/>
<text text-anchor="middle" x="75" y="-7" font-family="Helvetica,sans-Serif" font-size="10.00">cmath</text>
</a>
</g>
</g>
<!-- Node3&#45;&gt;Node5 -->
<g id="edge5_Node000003_Node000005" class="edge">
<title>Node3&#45;&gt;Node5</title>
<g id="a_edge5_Node000003_Node000005"><a xlink:title=" ">
<path fill="none" stroke="#63b8ff" d="M105.09,-109.8C102.33,-97.5 96.9,-74.36 91,-55 88.34,-46.26 84.97,-36.72 82.01,-28.71"/>
<polygon fill="#63b8ff" stroke="#63b8ff" points="85.25,-27.4 78.45,-19.28 78.7,-29.87 85.25,-27.4"/>
</a>
</g>
</g>
<!-- Node4&#45;&gt;Node5 -->
<g id="edge4_Node000004_Node000005" class="edge">
<title>Node4&#45;&gt;Node5</title>
<g id="a_edge4_Node000004_Node000005"><a xlink:title=" ">
<path fill="none" stroke="#63b8ff" d="M46.61,-54.75C51.32,-47.42 58.17,-36.73 63.97,-27.7"/>
<polygon fill="#63b8ff" stroke="#63b8ff" points="67.04,-29.4 69.49,-19.09 61.14,-25.62 67.04,-29.4"/>
</a>
</g>
</g>
</g>
</svg>
