<?xml version="1.0" encoding="UTF-8" standalone="no"?>
<!DOCTYPE svg PUBLIC "-//W3C//DTD SVG 1.1//EN"
 "http://www.w3.org/Graphics/SVG/1.1/DTD/svg11.dtd">
<!-- Generated by graphviz version 2.43.0 (0)
 -->
<!-- Title: include/rendering/CheckerTexture.hpp Pages: 1 -->
<svg width="181pt" height="203pt"
 viewBox="0.00 0.00 180.50 203.00" xmlns="http://www.w3.org/2000/svg" xmlns:xlink="http://www.w3.org/1999/xlink">
<g id="graph0" class="graph" transform="scale(1 1) rotate(0) translate(4 199)">
<title>include/rendering/CheckerTexture.hpp</title>
<!-- Node1 -->
<g id="Node000001" class="node">
<title>Node1</title>
<g id="a_Node000001"><a xlink:title="Declares a 2&#45;D procedural checkerboard texture.">
<polygon fill="#999999" stroke="#666666" points="172.5,-195 29.5,-195 29.5,-165 172.5,-165 172.5,-195"/>
<text text-anchor="start" x="37.5" y="-183" font-family="Helvetica,sans-Serif" font-size="10.00">include/rendering/Checker</text>
<text text-anchor="middle" x="101" y="-172" font-family="Helvetica,sans-Serif" font-size="10.00">Texture.hpp</text>
</a>
</g>
</g>
<!-- Node2 -->
<g id="Node000002" class="node">
<title>Node2</title>
<g id="a_Node000002"><a xlink:href="../../d0/ddc/Texture_8hpp.html" target="_top" xlink:title="Declares the abstract base class for all 2&#45;D textures. (Solid colour, checkerboard,...">
<polygon fill="white" stroke="#666666" points="98,-129 24,-129 24,-110 98,-110 98,-129"/>
<text text-anchor="middle" x="61" y="-117" font-family="Helvetica,sans-Serif" font-size="10.00">Texture.hpp</text>
</a>
</g>
</g>
<!-- Node1&#45;&gt;Node2 -->
<g id="edge1_Node000001_Node000002" class="edge">
<title>Node1&#45;&gt;Node2</title>
<g id="a_edge1_Node000001_Node000002"><a xlink:title=" ">
<path fill="none" stroke="#63b8ff" d="M91.32,-164.84C85.75,-156.69 78.71,-146.4 72.82,-137.78"/>
<polygon fill="#63b8ff" stroke="#63b8ff" points="75.53,-135.55 66.99,-129.27 69.75,-139.5 75.53,-135.55"/>
</a>
</g>
</g>
<!-- Node4 -->
<g id="Node000004" class="node">
<title>Node4</title>
<g id="a_Node000004"><a xlink:title=" ">
<polygon fill="#e0e0e0" stroke="#999999" points="116.5,-19 69.5,-19 69.5,0 116.5,0 116.5,-19"/>
<text text-anchor="middle" x="93" y="-7" font-family="Helvetica,sans-Serif" font-size="10.00">cmath</text>
</a>
</g>
</g>
<!-- Node1&#45;&gt;Node4 -->
<g id="edge4_Node000001_Node000004" class="edge">
<title>Node1&#45;&gt;Node4</title>
<g id="a_edge4_Node000001_Node000004"><a xlink:title=" ">
<path fill="none" stroke="#63b8ff" d="M105.74,-164.68C112.75,-141.41 124.12,-94.03 115,-55 112.8,-45.57 108.29,-35.85 103.93,-27.91"/>
<polygon fill="#63b8ff" stroke="#63b8ff" points="106.92,-26.09 98.84,-19.24 100.88,-29.64 106.92,-26.09"/>
</a>
</g>
</g>
<!-- Node3 -->
<g id="Node000003" class="node">
<title>Node3</title>
<g id="a_Node000003"><a xlink:href="../../d3/dde/Vector3D_8hpp.html" target="_top" xlink:title="Defines a 3D vector structure with basic arithmetic and transformation operations.">
<polygon fill="white" stroke="#666666" points="106,-74 0,-74 0,-55 106,-55 106,-74"/>
<text text-anchor="middle" x="53" y="-62" font-family="Helvetica,sans-Serif" font-size="10.00">core/Vector3D.hpp</text>
</a>
</g>
</g>
<!-- Node2&#45;&gt;Node3 -->
<g id="edge2_Node000002_Node000003" class="edge">
<title>Node2&#45;&gt;Node3</title>
<g id="a_edge2_Node000002_Node000003"><a xlink:title=" ">
<path fill="none" stroke="#63b8ff" d="M59.68,-109.75C58.63,-102.8 57.13,-92.85 55.81,-84.13"/>
<polygon fill="#63b8ff" stroke="#63b8ff" points="59.25,-83.45 54.3,-74.09 52.33,-84.5 59.25,-83.45"/>
</a>
</g>
</g>
<!-- Node3&#45;&gt;Node4 -->
<g id="edge3_Node000003_Node000004" class="edge">
<title>Node3&#45;&gt;Node4</title>
<g id="a_edge3_Node000003_Node000004"><a xlink:title=" ">
<path fill="none" stroke="#63b8ff" d="M59.61,-54.75C65.26,-47.26 73.54,-36.28 80.45,-27.13"/>
<polygon fill="#63b8ff" stroke="#63b8ff" points="83.29,-29.18 86.52,-19.09 77.7,-24.96 83.29,-29.18"/>
</a>
</g>
</g>
</g>
</svg>
