<?xml version="1.0" encoding="UTF-8" standalone="no"?>
<!DOCTYPE svg PUBLIC "-//W3C//DTD SVG 1.1//EN"
 "http://www.w3.org/Graphics/SVG/1.1/DTD/svg11.dtd">
<!-- Generated by graphviz version 2.43.0 (0)
 -->
<!-- Title: include/geoTransf/Rotation.hpp Pages: 1 -->
<svg width="324pt" height="82pt"
 viewBox="0.00 0.00 324.00 82.00" xmlns="http://www.w3.org/2000/svg" xmlns:xlink="http://www.w3.org/1999/xlink">
<g id="graph0" class="graph" transform="scale(1 1) rotate(0) translate(4 78)">
<title>include/geoTransf/Rotation.hpp</title>
<!-- Node1 -->
<g id="Node000001" class="node">
<title>Node1</title>
<g id="a_Node000001"><a xlink:title="Declares a wrapper primitive that applies 3D Euler rotations to another primitive&#39;s space before ray ...">
<polygon fill="#999999" stroke="#666666" points="239.5,-74 72.5,-74 72.5,-55 239.5,-55 239.5,-74"/>
<text text-anchor="middle" x="156" y="-62" font-family="Helvetica,sans-Serif" font-size="10.00">include/geoTransf/Rotation.hpp</text>
</a>
</g>
</g>
<!-- Node2 -->
<g id="Node000002" class="node">
<title>Node2</title>
<g id="a_Node000002"><a xlink:href="../../d3/dbb/Rotation_8cpp.html" target="_top" xlink:title="Implements a geometric rotation transformation applied to primitives.">
<polygon fill="white" stroke="#666666" points="146,-19 0,-19 0,0 146,0 146,-19"/>
<text text-anchor="middle" x="73" y="-7" font-family="Helvetica,sans-Serif" font-size="10.00">src/geoTransf/Rotation.cpp</text>
</a>
</g>
</g>
<!-- Node1&#45;&gt;Node2 -->
<g id="edge1_Node000001_Node000002" class="edge">
<title>Node1&#45;&gt;Node2</title>
<g id="a_edge1_Node000001_Node000002"><a xlink:title=" ">
<path fill="none" stroke="#63b8ff" d="M133.96,-49.42C118.89,-39.81 99.41,-27.37 86.58,-19.17"/>
<polygon fill="#63b8ff" stroke="#63b8ff" points="132.35,-52.55 142.66,-54.98 136.12,-46.65 132.35,-52.55"/>
</a>
</g>
</g>
<!-- Node3 -->
<g id="Node000003" class="node">
<title>Node3</title>
<g id="a_Node000003"><a xlink:href="../../d3/d79/SceneParser_8cpp.html" target="_top" xlink:title="Implements the scene loading system using libconfig for the raytracer engine.">
<polygon fill="white" stroke="#666666" points="316,-19 164,-19 164,0 316,0 316,-19"/>
<text text-anchor="middle" x="240" y="-7" font-family="Helvetica,sans-Serif" font-size="10.00">src/loaders/SceneParser.cpp</text>
</a>
</g>
</g>
<!-- Node1&#45;&gt;Node3 -->
<g id="edge2_Node000001_Node000003" class="edge">
<title>Node1&#45;&gt;Node3</title>
<g id="a_edge2_Node000001_Node000003"><a xlink:title=" ">
<path fill="none" stroke="#63b8ff" d="M178.31,-49.42C193.55,-39.81 213.27,-27.37 226.26,-19.17"/>
<polygon fill="#63b8ff" stroke="#63b8ff" points="176.09,-46.69 169.5,-54.98 179.82,-52.61 176.09,-46.69"/>
</a>
</g>
</g>
</g>
</svg>
