<?xml version="1.0" encoding="UTF-8" standalone="no"?>
<!DOCTYPE svg PUBLIC "-//W3C//DTD SVG 1.1//EN"
 "http://www.w3.org/Graphics/SVG/1.1/DTD/svg11.dtd">
<!-- Generated by graphviz version 2.43.0 (0)
 -->
<!-- Title: include/rendering/ALight.hpp Pages: 1 -->
<svg width="183pt" height="247pt"
 viewBox="0.00 0.00 182.50 247.00" xmlns="http://www.w3.org/2000/svg" xmlns:xlink="http://www.w3.org/1999/xlink">
<g id="graph0" class="graph" transform="scale(1 1) rotate(0) translate(4 243)">
<title>include/rendering/ALight.hpp</title>
<!-- Node1 -->
<g id="Node000001" class="node">
<title>Node1</title>
<g id="a_Node000001"><a xlink:title="Abstract base class partially implementing the ILight interface.">
<polygon fill="#999999" stroke="#666666" points="156,-239 0,-239 0,-220 156,-220 156,-239"/>
<text text-anchor="middle" x="78" y="-227" font-family="Helvetica,sans-Serif" font-size="10.00">include/rendering/ALight.hpp</text>
</a>
</g>
</g>
<!-- Node2 -->
<g id="Node000002" class="node">
<title>Node2</title>
<g id="a_Node000002"><a xlink:href="../../da/da7/ILight_8hpp.html" target="_top" xlink:title="Abstract interface for all light sources in the path tracer.">
<polygon fill="white" stroke="#666666" points="110.5,-184 45.5,-184 45.5,-165 110.5,-165 110.5,-184"/>
<text text-anchor="middle" x="78" y="-172" font-family="Helvetica,sans-Serif" font-size="10.00">ILight.hpp</text>
</a>
</g>
</g>
<!-- Node1&#45;&gt;Node2 -->
<g id="edge1_Node000001_Node000002" class="edge">
<title>Node1&#45;&gt;Node2</title>
<g id="a_edge1_Node000001_Node000002"><a xlink:title=" ">
<path fill="none" stroke="#63b8ff" d="M78,-219.75C78,-212.8 78,-202.85 78,-194.13"/>
<polygon fill="#63b8ff" stroke="#63b8ff" points="81.5,-194.09 78,-184.09 74.5,-194.09 81.5,-194.09"/>
</a>
</g>
</g>
<!-- Node3 -->
<g id="Node000003" class="node">
<title>Node3</title>
<g id="a_Node000003"><a xlink:href="../../df/df2/Point3D_8hpp.html" target="_top" xlink:title="Defines a 3D point structure used in geometric computations.">
<polygon fill="white" stroke="#666666" points="174.5,-129 65.5,-129 65.5,-110 174.5,-110 174.5,-129"/>
<text text-anchor="middle" x="120" y="-117" font-family="Helvetica,sans-Serif" font-size="10.00">../core/Point3D.hpp</text>
</a>
</g>
</g>
<!-- Node2&#45;&gt;Node3 -->
<g id="edge2_Node000002_Node000003" class="edge">
<title>Node2&#45;&gt;Node3</title>
<g id="a_edge2_Node000002_Node000003"><a xlink:title=" ">
<path fill="none" stroke="#63b8ff" d="M84.94,-164.75C90.87,-157.26 99.57,-146.28 106.82,-137.13"/>
<polygon fill="#63b8ff" stroke="#63b8ff" points="109.73,-139.1 113.19,-129.09 104.24,-134.75 109.73,-139.1"/>
</a>
</g>
</g>
<!-- Node4 -->
<g id="Node000004" class="node">
<title>Node4</title>
<g id="a_Node000004"><a xlink:href="../../d3/dde/Vector3D_8hpp.html" target="_top" xlink:title="Defines a 3D vector structure with basic arithmetic and transformation operations.">
<polygon fill="white" stroke="#666666" points="92,-74 10,-74 10,-55 92,-55 92,-74"/>
<text text-anchor="middle" x="51" y="-62" font-family="Helvetica,sans-Serif" font-size="10.00">Vector3D.hpp</text>
</a>
</g>
</g>
<!-- Node2&#45;&gt;Node4 -->
<g id="edge6_Node000002_Node000004" class="edge">
<title>Node2&#45;&gt;Node4</title>
<g id="a_edge6_Node000002_Node000004"><a xlink:title=" ">
<path fill="none" stroke="#63b8ff" d="M72.39,-164.7C67.15,-156 59.62,-142.13 56,-129 52,-114.47 50.84,-97.42 50.63,-84.64"/>
<polygon fill="#63b8ff" stroke="#63b8ff" points="54.13,-84.32 50.65,-74.31 47.13,-84.3 54.13,-84.32"/>
</a>
</g>
</g>
<!-- Node3&#45;&gt;Node4 -->
<g id="edge3_Node000003_Node000004" class="edge">
<title>Node3&#45;&gt;Node4</title>
<g id="a_edge3_Node000003_Node000004"><a xlink:title=" ">
<path fill="none" stroke="#63b8ff" d="M108.91,-109.98C98.51,-102 82.74,-89.88 70.28,-80.31"/>
<polygon fill="#63b8ff" stroke="#63b8ff" points="72.35,-77.49 62.29,-74.17 68.09,-83.04 72.35,-77.49"/>
</a>
</g>
</g>
<!-- Node5 -->
<g id="Node000005" class="node">
<title>Node5</title>
<g id="a_Node000005"><a xlink:title=" ">
<polygon fill="#e0e0e0" stroke="#999999" points="108.5,-19 61.5,-19 61.5,0 108.5,0 108.5,-19"/>
<text text-anchor="middle" x="85" y="-7" font-family="Helvetica,sans-Serif" font-size="10.00">cmath</text>
</a>
</g>
</g>
<!-- Node3&#45;&gt;Node5 -->
<g id="edge5_Node000003_Node000005" class="edge">
<title>Node3&#45;&gt;Node5</title>
<g id="a_edge5_Node000003_Node000005"><a xlink:title=" ">
<path fill="none" stroke="#63b8ff" d="M117.57,-109.83C114.09,-97.56 107.4,-74.46 101,-55 98.14,-46.32 94.75,-36.79 91.82,-28.77"/>
<polygon fill="#63b8ff" stroke="#63b8ff" points="95.08,-27.48 88.33,-19.32 88.51,-29.91 95.08,-27.48"/>
</a>
</g>
</g>
<!-- Node4&#45;&gt;Node5 -->
<g id="edge4_Node000004_Node000005" class="edge">
<title>Node4&#45;&gt;Node5</title>
<g id="a_edge4_Node000004_Node000005"><a xlink:title=" ">
<path fill="none" stroke="#63b8ff" d="M56.61,-54.75C61.32,-47.42 68.17,-36.73 73.97,-27.7"/>
<polygon fill="#63b8ff" stroke="#63b8ff" points="77.04,-29.4 79.49,-19.09 71.14,-25.62 77.04,-29.4"/>
</a>
</g>
</g>
</g>
</svg>
